%TF.GenerationSoftware,KiCad,Pcbnew,7.0.6*%
%TF.CreationDate,2024-06-20T12:42:18-04:00*%
%TF.ProjectId,ActiveImpactor_Encoder_Celera,41637469-7665-4496-9d70-6163746f725f,rev?*%
%TF.SameCoordinates,Original*%
%TF.FileFunction,Soldermask,Top*%
%TF.FilePolarity,Negative*%
%FSLAX46Y46*%
G04 Gerber Fmt 4.6, Leading zero omitted, Abs format (unit mm)*
G04 Created by KiCad (PCBNEW 7.0.6) date 2024-06-20 12:42:18*
%MOMM*%
%LPD*%
G01*
G04 APERTURE LIST*
G04 APERTURE END LIST*
G36*
X-3446770Y-5700642D02*
G01*
X-3394227Y-5706738D01*
X-3376274Y-5714664D01*
X-3354329Y-5719030D01*
X-3330835Y-5734728D01*
X-3309109Y-5744321D01*
X-3294270Y-5759159D01*
X-3273223Y-5773223D01*
X-3259159Y-5794270D01*
X-3244321Y-5809109D01*
X-3234727Y-5830835D01*
X-3219030Y-5854329D01*
X-3214665Y-5876273D01*
X-3206739Y-5894224D01*
X-3200644Y-5946759D01*
X-3200000Y-5950000D01*
X-3200000Y-7250000D01*
X-3200642Y-7253231D01*
X-3206738Y-7305772D01*
X-3214664Y-7323723D01*
X-3219030Y-7345671D01*
X-3234729Y-7369166D01*
X-3244321Y-7390890D01*
X-3259157Y-7405726D01*
X-3273223Y-7426777D01*
X-3294273Y-7440842D01*
X-3309109Y-7455678D01*
X-3330830Y-7465269D01*
X-3354329Y-7480970D01*
X-3376277Y-7485335D01*
X-3394224Y-7493260D01*
X-3446747Y-7499352D01*
X-3450000Y-7500000D01*
X-4150000Y-7500000D01*
X-4153243Y-7499354D01*
X-4205772Y-7493261D01*
X-4223719Y-7485336D01*
X-4245671Y-7480970D01*
X-4269171Y-7465267D01*
X-4290890Y-7455678D01*
X-4305723Y-7440844D01*
X-4326777Y-7426777D01*
X-4340844Y-7405723D01*
X-4355678Y-7390890D01*
X-4365267Y-7369170D01*
X-4380970Y-7345671D01*
X-4385336Y-7323720D01*
X-4393260Y-7305775D01*
X-4399352Y-7253254D01*
X-4400000Y-7250000D01*
X-4400000Y-5950000D01*
X-4399355Y-5946758D01*
X-4393261Y-5894227D01*
X-4385335Y-5876278D01*
X-4380970Y-5854329D01*
X-4365268Y-5830830D01*
X-4355678Y-5809109D01*
X-4340842Y-5794273D01*
X-4326777Y-5773223D01*
X-4305726Y-5759157D01*
X-4290890Y-5744321D01*
X-4269166Y-5734729D01*
X-4245671Y-5719030D01*
X-4223724Y-5714664D01*
X-4205775Y-5706739D01*
X-4153242Y-5700644D01*
X-4150000Y-5700000D01*
X-3450000Y-5700000D01*
X-3446770Y-5700642D01*
G37*
G36*
X4153231Y-5700642D02*
G01*
X4205772Y-5706738D01*
X4223723Y-5714664D01*
X4245671Y-5719030D01*
X4269166Y-5734729D01*
X4290890Y-5744321D01*
X4305726Y-5759157D01*
X4326777Y-5773223D01*
X4340842Y-5794273D01*
X4355678Y-5809109D01*
X4365269Y-5830830D01*
X4380970Y-5854329D01*
X4385335Y-5876277D01*
X4393260Y-5894224D01*
X4399352Y-5946747D01*
X4400000Y-5950000D01*
X4400000Y-7250000D01*
X4399354Y-7253243D01*
X4393261Y-7305772D01*
X4385336Y-7323719D01*
X4380970Y-7345671D01*
X4365267Y-7369171D01*
X4355678Y-7390890D01*
X4340844Y-7405723D01*
X4326777Y-7426777D01*
X4305723Y-7440844D01*
X4290890Y-7455678D01*
X4269170Y-7465267D01*
X4245671Y-7480970D01*
X4223720Y-7485336D01*
X4205775Y-7493260D01*
X4153254Y-7499352D01*
X4150000Y-7500000D01*
X3450000Y-7500000D01*
X3446758Y-7499355D01*
X3394227Y-7493261D01*
X3376278Y-7485335D01*
X3354329Y-7480970D01*
X3330830Y-7465268D01*
X3309109Y-7455678D01*
X3294273Y-7440842D01*
X3273223Y-7426777D01*
X3259157Y-7405726D01*
X3244321Y-7390890D01*
X3234729Y-7369166D01*
X3219030Y-7345671D01*
X3214664Y-7323724D01*
X3206739Y-7305775D01*
X3200644Y-7253242D01*
X3200000Y-7250000D01*
X3200000Y-5950000D01*
X3200642Y-5946770D01*
X3206738Y-5894227D01*
X3214664Y-5876274D01*
X3219030Y-5854329D01*
X3234728Y-5830835D01*
X3244321Y-5809109D01*
X3259159Y-5794270D01*
X3273223Y-5773223D01*
X3294270Y-5759159D01*
X3309109Y-5744321D01*
X3330835Y-5734727D01*
X3354329Y-5719030D01*
X3376273Y-5714665D01*
X3394224Y-5706739D01*
X3446759Y-5700644D01*
X3450000Y-5700000D01*
X4150000Y-5700000D01*
X4153231Y-5700642D01*
G37*
G36*
X-2292597Y-3311418D02*
G01*
X-2243934Y-3343934D01*
X-2211418Y-3392597D01*
X-2200000Y-3450000D01*
X-2200000Y-4700000D01*
X-2211418Y-4757403D01*
X-2243934Y-4806066D01*
X-2292597Y-4838582D01*
X-2350000Y-4850000D01*
X-2650000Y-4850000D01*
X-2707403Y-4838582D01*
X-2756066Y-4806066D01*
X-2788582Y-4757403D01*
X-2800000Y-4700000D01*
X-2800000Y-3450000D01*
X-2788582Y-3392597D01*
X-2756066Y-3343934D01*
X-2707403Y-3311418D01*
X-2650000Y-3300000D01*
X-2350000Y-3300000D01*
X-2292597Y-3311418D01*
G37*
G36*
X-1292597Y-3311418D02*
G01*
X-1243934Y-3343934D01*
X-1211418Y-3392597D01*
X-1200000Y-3450000D01*
X-1200000Y-4700000D01*
X-1211418Y-4757403D01*
X-1243934Y-4806066D01*
X-1292597Y-4838582D01*
X-1350000Y-4850000D01*
X-1650000Y-4850000D01*
X-1707403Y-4838582D01*
X-1756066Y-4806066D01*
X-1788582Y-4757403D01*
X-1800000Y-4700000D01*
X-1800000Y-3450000D01*
X-1788582Y-3392597D01*
X-1756066Y-3343934D01*
X-1707403Y-3311418D01*
X-1650000Y-3300000D01*
X-1350000Y-3300000D01*
X-1292597Y-3311418D01*
G37*
G36*
X-292597Y-3311418D02*
G01*
X-243934Y-3343934D01*
X-211418Y-3392597D01*
X-200000Y-3450000D01*
X-200000Y-4700000D01*
X-211418Y-4757403D01*
X-243934Y-4806066D01*
X-292597Y-4838582D01*
X-350000Y-4850000D01*
X-650000Y-4850000D01*
X-707403Y-4838582D01*
X-756066Y-4806066D01*
X-788582Y-4757403D01*
X-800000Y-4700000D01*
X-800000Y-3450000D01*
X-788582Y-3392597D01*
X-756066Y-3343934D01*
X-707403Y-3311418D01*
X-650000Y-3300000D01*
X-350000Y-3300000D01*
X-292597Y-3311418D01*
G37*
G36*
X707403Y-3311418D02*
G01*
X756066Y-3343934D01*
X788582Y-3392597D01*
X800000Y-3450000D01*
X800000Y-4700000D01*
X788582Y-4757403D01*
X756066Y-4806066D01*
X707403Y-4838582D01*
X650000Y-4850000D01*
X350000Y-4850000D01*
X292597Y-4838582D01*
X243934Y-4806066D01*
X211418Y-4757403D01*
X200000Y-4700000D01*
X200000Y-3450000D01*
X211418Y-3392597D01*
X243934Y-3343934D01*
X292597Y-3311418D01*
X350000Y-3300000D01*
X650000Y-3300000D01*
X707403Y-3311418D01*
G37*
G36*
X1707403Y-3311418D02*
G01*
X1756066Y-3343934D01*
X1788582Y-3392597D01*
X1800000Y-3450000D01*
X1800000Y-4700000D01*
X1788582Y-4757403D01*
X1756066Y-4806066D01*
X1707403Y-4838582D01*
X1650000Y-4850000D01*
X1350000Y-4850000D01*
X1292597Y-4838582D01*
X1243934Y-4806066D01*
X1211418Y-4757403D01*
X1200000Y-4700000D01*
X1200000Y-3450000D01*
X1211418Y-3392597D01*
X1243934Y-3343934D01*
X1292597Y-3311418D01*
X1350000Y-3300000D01*
X1650000Y-3300000D01*
X1707403Y-3311418D01*
G37*
G36*
X2707403Y-3311418D02*
G01*
X2756066Y-3343934D01*
X2788582Y-3392597D01*
X2800000Y-3450000D01*
X2800000Y-4700000D01*
X2788582Y-4757403D01*
X2756066Y-4806066D01*
X2707403Y-4838582D01*
X2650000Y-4850000D01*
X2350000Y-4850000D01*
X2292597Y-4838582D01*
X2243934Y-4806066D01*
X2211418Y-4757403D01*
X2200000Y-4700000D01*
X2200000Y-3450000D01*
X2211418Y-3392597D01*
X2243934Y-3343934D01*
X2292597Y-3311418D01*
X2350000Y-3300000D01*
X2650000Y-3300000D01*
X2707403Y-3311418D01*
G37*
G36*
X-1286424Y-2000657D02*
G01*
X-1241005Y-2031005D01*
X-1210657Y-2076424D01*
X-1200000Y-2130000D01*
X-1200000Y-2470000D01*
X-1210657Y-2523576D01*
X-1241005Y-2568995D01*
X-1286424Y-2599343D01*
X-1340000Y-2610000D01*
X-1620000Y-2610000D01*
X-1673576Y-2599343D01*
X-1718995Y-2568995D01*
X-1749343Y-2523576D01*
X-1760000Y-2470000D01*
X-1760000Y-2130000D01*
X-1749343Y-2076424D01*
X-1718995Y-2031005D01*
X-1673576Y-2000657D01*
X-1620000Y-1990000D01*
X-1340000Y-1990000D01*
X-1286424Y-2000657D01*
G37*
G36*
X-326424Y-2000657D02*
G01*
X-281005Y-2031005D01*
X-250657Y-2076424D01*
X-240000Y-2130000D01*
X-240000Y-2470000D01*
X-250657Y-2523576D01*
X-281005Y-2568995D01*
X-326424Y-2599343D01*
X-380000Y-2610000D01*
X-660000Y-2610000D01*
X-713576Y-2599343D01*
X-758995Y-2568995D01*
X-789343Y-2523576D01*
X-800000Y-2470000D01*
X-800000Y-2130000D01*
X-789343Y-2076424D01*
X-758995Y-2031005D01*
X-713576Y-2000657D01*
X-660000Y-1990000D01*
X-380000Y-1990000D01*
X-326424Y-2000657D01*
G37*
G36*
X1613576Y-2000657D02*
G01*
X1658995Y-2031005D01*
X1689343Y-2076424D01*
X1700000Y-2130000D01*
X1700000Y-2470000D01*
X1689343Y-2523576D01*
X1658995Y-2568995D01*
X1613576Y-2599343D01*
X1560000Y-2610000D01*
X1280000Y-2610000D01*
X1226424Y-2599343D01*
X1181005Y-2568995D01*
X1150657Y-2523576D01*
X1140000Y-2470000D01*
X1140000Y-2130000D01*
X1150657Y-2076424D01*
X1181005Y-2031005D01*
X1226424Y-2000657D01*
X1280000Y-1990000D01*
X1560000Y-1990000D01*
X1613576Y-2000657D01*
G37*
G36*
X2573576Y-2000657D02*
G01*
X2618995Y-2031005D01*
X2649343Y-2076424D01*
X2660000Y-2130000D01*
X2660000Y-2470000D01*
X2649343Y-2523576D01*
X2618995Y-2568995D01*
X2573576Y-2599343D01*
X2520000Y-2610000D01*
X2240000Y-2610000D01*
X2186424Y-2599343D01*
X2141005Y-2568995D01*
X2110657Y-2523576D01*
X2100000Y-2470000D01*
X2100000Y-2130000D01*
X2110657Y-2076424D01*
X2141005Y-2031005D01*
X2186424Y-2000657D01*
X2240000Y-1990000D01*
X2520000Y-1990000D01*
X2573576Y-2000657D01*
G37*
G36*
X3713576Y-2000657D02*
G01*
X3758995Y-2031005D01*
X3789343Y-2076424D01*
X3800000Y-2130000D01*
X3800000Y-2470000D01*
X3789343Y-2523576D01*
X3758995Y-2568995D01*
X3713576Y-2599343D01*
X3660000Y-2610000D01*
X3380000Y-2610000D01*
X3326424Y-2599343D01*
X3281005Y-2568995D01*
X3250657Y-2523576D01*
X3240000Y-2470000D01*
X3240000Y-2130000D01*
X3250657Y-2076424D01*
X3281005Y-2031005D01*
X3326424Y-2000657D01*
X3380000Y-1990000D01*
X3660000Y-1990000D01*
X3713576Y-2000657D01*
G37*
G36*
X4673576Y-2000657D02*
G01*
X4718995Y-2031005D01*
X4749343Y-2076424D01*
X4760000Y-2130000D01*
X4760000Y-2470000D01*
X4749343Y-2523576D01*
X4718995Y-2568995D01*
X4673576Y-2599343D01*
X4620000Y-2610000D01*
X4340000Y-2610000D01*
X4286424Y-2599343D01*
X4241005Y-2568995D01*
X4210657Y-2523576D01*
X4200000Y-2470000D01*
X4200000Y-2130000D01*
X4210657Y-2076424D01*
X4241005Y-2031005D01*
X4286424Y-2000657D01*
X4340000Y-1990000D01*
X4620000Y-1990000D01*
X4673576Y-2000657D01*
G37*
G36*
X-3878582Y-2179758D02*
G01*
X-3858306Y-2193306D01*
X-3844758Y-2213582D01*
X-3840000Y-2237500D01*
X-3840000Y-2362500D01*
X-3844758Y-2386418D01*
X-3858306Y-2406694D01*
X-3878582Y-2420242D01*
X-3902500Y-2425000D01*
X-4137500Y-2425000D01*
X-4161418Y-2420242D01*
X-4181694Y-2406694D01*
X-4195242Y-2386418D01*
X-4200000Y-2362500D01*
X-4200000Y-2237500D01*
X-4195242Y-2213582D01*
X-4181694Y-2193306D01*
X-4161418Y-2179758D01*
X-4137500Y-2175000D01*
X-3902500Y-2175000D01*
X-3878582Y-2179758D01*
G37*
G36*
X-3038582Y-2179758D02*
G01*
X-3018306Y-2193306D01*
X-3004758Y-2213582D01*
X-3000000Y-2237500D01*
X-3000000Y-2362500D01*
X-3004758Y-2386418D01*
X-3018306Y-2406694D01*
X-3038582Y-2420242D01*
X-3062500Y-2425000D01*
X-3297500Y-2425000D01*
X-3321418Y-2420242D01*
X-3341694Y-2406694D01*
X-3355242Y-2386418D01*
X-3360000Y-2362500D01*
X-3360000Y-2237500D01*
X-3355242Y-2213582D01*
X-3341694Y-2193306D01*
X-3321418Y-2179758D01*
X-3297500Y-2175000D01*
X-3062500Y-2175000D01*
X-3038582Y-2179758D01*
G37*
G36*
X-4063896Y-642127D02*
G01*
X-3990901Y-690901D01*
X-3942127Y-763896D01*
X-3925000Y-850000D01*
X-3925000Y-1350000D01*
X-3942127Y-1436104D01*
X-3990901Y-1509099D01*
X-4063896Y-1557873D01*
X-4150000Y-1575000D01*
X-4600000Y-1575000D01*
X-4686104Y-1557873D01*
X-4759099Y-1509099D01*
X-4807873Y-1436104D01*
X-4825000Y-1350000D01*
X-4825000Y-850000D01*
X-4807873Y-763896D01*
X-4759099Y-690901D01*
X-4686104Y-642127D01*
X-4600000Y-625000D01*
X-4150000Y-625000D01*
X-4063896Y-642127D01*
G37*
G36*
X-2513896Y-642127D02*
G01*
X-2440901Y-690901D01*
X-2392127Y-763896D01*
X-2375000Y-850000D01*
X-2375000Y-1350000D01*
X-2392127Y-1436104D01*
X-2440901Y-1509099D01*
X-2513896Y-1557873D01*
X-2600000Y-1575000D01*
X-3050000Y-1575000D01*
X-3136104Y-1557873D01*
X-3209099Y-1509099D01*
X-3257873Y-1436104D01*
X-3275000Y-1350000D01*
X-3275000Y-850000D01*
X-3257873Y-763896D01*
X-3209099Y-690901D01*
X-3136104Y-642127D01*
X-3050000Y-625000D01*
X-2600000Y-625000D01*
X-2513896Y-642127D01*
G37*
G36*
X3557403Y-186418D02*
G01*
X3606066Y-218934D01*
X3638582Y-267597D01*
X3650000Y-325000D01*
X3650000Y-1350000D01*
X3638582Y-1407403D01*
X3606066Y-1456066D01*
X3557403Y-1488582D01*
X3500000Y-1500000D01*
X3200000Y-1500000D01*
X3142597Y-1488582D01*
X3093934Y-1456066D01*
X3061418Y-1407403D01*
X3050000Y-1350000D01*
X3050000Y-325000D01*
X3061418Y-267597D01*
X3093934Y-218934D01*
X3142597Y-186418D01*
X3200000Y-175000D01*
X3500000Y-175000D01*
X3557403Y-186418D01*
G37*
G36*
X4507403Y-186418D02*
G01*
X4556066Y-218934D01*
X4588582Y-267597D01*
X4600000Y-325000D01*
X4600000Y-1350000D01*
X4588582Y-1407403D01*
X4556066Y-1456066D01*
X4507403Y-1488582D01*
X4450000Y-1500000D01*
X4150000Y-1500000D01*
X4092597Y-1488582D01*
X4043934Y-1456066D01*
X4011418Y-1407403D01*
X4000000Y-1350000D01*
X4000000Y-325000D01*
X4011418Y-267597D01*
X4043934Y-218934D01*
X4092597Y-186418D01*
X4150000Y-175000D01*
X4450000Y-175000D01*
X4507403Y-186418D01*
G37*
G36*
X5457403Y-186418D02*
G01*
X5506066Y-218934D01*
X5538582Y-267597D01*
X5550000Y-325000D01*
X5550000Y-1350000D01*
X5538582Y-1407403D01*
X5506066Y-1456066D01*
X5457403Y-1488582D01*
X5400000Y-1500000D01*
X5100000Y-1500000D01*
X5042597Y-1488582D01*
X4993934Y-1456066D01*
X4961418Y-1407403D01*
X4950000Y-1350000D01*
X4950000Y-325000D01*
X4961418Y-267597D01*
X4993934Y-218934D01*
X5042597Y-186418D01*
X5100000Y-175000D01*
X5400000Y-175000D01*
X5457403Y-186418D01*
G37*
G36*
X-263896Y657873D02*
G01*
X-190901Y609099D01*
X-142127Y536104D01*
X-125000Y450000D01*
X-125000Y-50000D01*
X-142127Y-136104D01*
X-190901Y-209099D01*
X-263896Y-257873D01*
X-350000Y-275000D01*
X-800000Y-275000D01*
X-886104Y-257873D01*
X-959099Y-209099D01*
X-1007873Y-136104D01*
X-1025000Y-50000D01*
X-1025000Y450000D01*
X-1007873Y536104D01*
X-959099Y609099D01*
X-886104Y657873D01*
X-800000Y675000D01*
X-350000Y675000D01*
X-263896Y657873D01*
G37*
G36*
X1286104Y657873D02*
G01*
X1359099Y609099D01*
X1407873Y536104D01*
X1425000Y450000D01*
X1425000Y-50000D01*
X1407873Y-136104D01*
X1359099Y-209099D01*
X1286104Y-257873D01*
X1200000Y-275000D01*
X750000Y-275000D01*
X663896Y-257873D01*
X590901Y-209099D01*
X542127Y-136104D01*
X525000Y-50000D01*
X525000Y450000D01*
X542127Y536104D01*
X590901Y609099D01*
X663896Y657873D01*
X750000Y675000D01*
X1200000Y675000D01*
X1286104Y657873D01*
G37*
G36*
X-4123338Y409724D02*
G01*
X-4079541Y380459D01*
X-4050276Y336662D01*
X-4040000Y285000D01*
X-4040000Y-85000D01*
X-4050276Y-136662D01*
X-4079541Y-180459D01*
X-4123338Y-209724D01*
X-4175000Y-220000D01*
X-4445000Y-220000D01*
X-4496662Y-209724D01*
X-4540459Y-180459D01*
X-4569724Y-136662D01*
X-4580000Y-85000D01*
X-4580000Y285000D01*
X-4569724Y336662D01*
X-4540459Y380459D01*
X-4496662Y409724D01*
X-4445000Y420000D01*
X-4175000Y420000D01*
X-4123338Y409724D01*
G37*
G36*
X-3103338Y409724D02*
G01*
X-3059541Y380459D01*
X-3030276Y336662D01*
X-3020000Y285000D01*
X-3020000Y-85000D01*
X-3030276Y-136662D01*
X-3059541Y-180459D01*
X-3103338Y-209724D01*
X-3155000Y-220000D01*
X-3425000Y-220000D01*
X-3476662Y-209724D01*
X-3520459Y-180459D01*
X-3549724Y-136662D01*
X-3560000Y-85000D01*
X-3560000Y285000D01*
X-3549724Y336662D01*
X-3520459Y380459D01*
X-3476662Y409724D01*
X-3425000Y420000D01*
X-3155000Y420000D01*
X-3103338Y409724D01*
G37*
G36*
X3557403Y2088582D02*
G01*
X3606066Y2056066D01*
X3638582Y2007403D01*
X3650000Y1950000D01*
X3650000Y925000D01*
X3638582Y867597D01*
X3606066Y818934D01*
X3557403Y786418D01*
X3500000Y775000D01*
X3496057Y775000D01*
X3203937Y775000D01*
X3200000Y775000D01*
X3142597Y786418D01*
X3093934Y818934D01*
X3061418Y867597D01*
X3050000Y925000D01*
X3050000Y1950000D01*
X3061418Y2007403D01*
X3093934Y2056066D01*
X3142597Y2088582D01*
X3200000Y2100000D01*
X3500000Y2100000D01*
X3557403Y2088582D01*
G37*
G36*
X5457403Y2088582D02*
G01*
X5506066Y2056066D01*
X5538582Y2007403D01*
X5550000Y1950000D01*
X5550000Y925000D01*
X5538582Y867597D01*
X5506066Y818934D01*
X5457403Y786418D01*
X5400000Y775000D01*
X5396057Y775000D01*
X5103937Y775000D01*
X5100000Y775000D01*
X5042597Y786418D01*
X4993934Y818934D01*
X4961418Y867597D01*
X4950000Y925000D01*
X4950000Y1950000D01*
X4961418Y2007403D01*
X4993934Y2056066D01*
X5042597Y2088582D01*
X5100000Y2100000D01*
X5400000Y2100000D01*
X5457403Y2088582D01*
G37*
G36*
X-123338Y1709724D02*
G01*
X-79541Y1680459D01*
X-50276Y1636662D01*
X-40000Y1585000D01*
X-40000Y1215000D01*
X-50276Y1163338D01*
X-79541Y1119541D01*
X-123338Y1090276D01*
X-175000Y1080000D01*
X-178942Y1080000D01*
X-441063Y1080000D01*
X-445000Y1080000D01*
X-496662Y1090276D01*
X-540459Y1119541D01*
X-569724Y1163338D01*
X-580000Y1215000D01*
X-580000Y1585000D01*
X-569724Y1636662D01*
X-540459Y1680459D01*
X-496662Y1709724D01*
X-445000Y1720000D01*
X-175000Y1720000D01*
X-123338Y1709724D01*
G37*
G36*
X896662Y1709724D02*
G01*
X940459Y1680459D01*
X969724Y1636662D01*
X980000Y1585000D01*
X980000Y1215000D01*
X969724Y1163338D01*
X940459Y1119541D01*
X896662Y1090276D01*
X845000Y1080000D01*
X841057Y1080000D01*
X578936Y1080000D01*
X575000Y1080000D01*
X523338Y1090276D01*
X479541Y1119541D01*
X450276Y1163338D01*
X440000Y1215000D01*
X440000Y1585000D01*
X450276Y1636662D01*
X479541Y1680459D01*
X523338Y1709724D01*
X575000Y1720000D01*
X845000Y1720000D01*
X896662Y1709724D01*
G37*
G36*
X-5160038Y2433349D02*
G01*
X-5089070Y2385930D01*
X-5041651Y2314962D01*
X-5025000Y2231250D01*
X-5025000Y1793750D01*
X-5041651Y1710038D01*
X-5089070Y1639070D01*
X-5160038Y1591651D01*
X-5243750Y1575000D01*
X-5247692Y1575000D01*
X-5752313Y1575000D01*
X-5756250Y1575000D01*
X-5839962Y1591651D01*
X-5910930Y1639070D01*
X-5958349Y1710038D01*
X-5975000Y1793750D01*
X-5975000Y2231250D01*
X-5958349Y2314962D01*
X-5910930Y2385930D01*
X-5839962Y2433349D01*
X-5756250Y2450000D01*
X-5243750Y2450000D01*
X-5160038Y2433349D01*
G37*
G36*
X-923338Y3309724D02*
G01*
X-879541Y3280459D01*
X-850276Y3236662D01*
X-840000Y3185000D01*
X-840000Y2815000D01*
X-850276Y2763338D01*
X-879541Y2719541D01*
X-923338Y2690276D01*
X-975000Y2680000D01*
X-978942Y2680000D01*
X-1241063Y2680000D01*
X-1245000Y2680000D01*
X-1296662Y2690276D01*
X-1340459Y2719541D01*
X-1369724Y2763338D01*
X-1380000Y2815000D01*
X-1380000Y3185000D01*
X-1369724Y3236662D01*
X-1340459Y3280459D01*
X-1296662Y3309724D01*
X-1245000Y3320000D01*
X-975000Y3320000D01*
X-923338Y3309724D01*
G37*
G36*
X96662Y3309724D02*
G01*
X140459Y3280459D01*
X169724Y3236662D01*
X180000Y3185000D01*
X180000Y2815000D01*
X169724Y2763338D01*
X140459Y2719541D01*
X96662Y2690276D01*
X45000Y2680000D01*
X41057Y2680000D01*
X-221063Y2680000D01*
X-225000Y2680000D01*
X-276662Y2690276D01*
X-320459Y2719541D01*
X-349724Y2763338D01*
X-360000Y2815000D01*
X-360000Y3185000D01*
X-349724Y3236662D01*
X-320459Y3280459D01*
X-276662Y3309724D01*
X-225000Y3320000D01*
X45000Y3320000D01*
X96662Y3309724D01*
G37*
G36*
X-3786424Y3399343D02*
G01*
X-3741005Y3368995D01*
X-3710657Y3323576D01*
X-3700000Y3270000D01*
X-3700000Y2930000D01*
X-3710657Y2876424D01*
X-3741005Y2831005D01*
X-3786424Y2800657D01*
X-3840000Y2790000D01*
X-3843942Y2790000D01*
X-4116062Y2790000D01*
X-4120000Y2790000D01*
X-4173576Y2800657D01*
X-4218995Y2831005D01*
X-4249343Y2876424D01*
X-4260000Y2930000D01*
X-4260000Y3270000D01*
X-4249343Y3323576D01*
X-4218995Y3368995D01*
X-4173576Y3399343D01*
X-4120000Y3410000D01*
X-3840000Y3410000D01*
X-3786424Y3399343D01*
G37*
G36*
X-2826424Y3399343D02*
G01*
X-2781005Y3368995D01*
X-2750657Y3323576D01*
X-2740000Y3270000D01*
X-2740000Y2930000D01*
X-2750657Y2876424D01*
X-2781005Y2831005D01*
X-2826424Y2800657D01*
X-2880000Y2790000D01*
X-2883942Y2790000D01*
X-3156062Y2790000D01*
X-3160000Y2790000D01*
X-3213576Y2800657D01*
X-3258995Y2831005D01*
X-3289343Y2876424D01*
X-3300000Y2930000D01*
X-3300000Y3270000D01*
X-3289343Y3323576D01*
X-3258995Y3368995D01*
X-3213576Y3399343D01*
X-3160000Y3410000D01*
X-2880000Y3410000D01*
X-2826424Y3399343D01*
G37*
G36*
X1213576Y3399343D02*
G01*
X1258995Y3368995D01*
X1289343Y3323576D01*
X1300000Y3270000D01*
X1300000Y2930000D01*
X1289343Y2876424D01*
X1258995Y2831005D01*
X1213576Y2800657D01*
X1160000Y2790000D01*
X1156057Y2790000D01*
X883937Y2790000D01*
X880000Y2790000D01*
X826424Y2800657D01*
X781005Y2831005D01*
X750657Y2876424D01*
X740000Y2930000D01*
X740000Y3270000D01*
X750657Y3323576D01*
X781005Y3368995D01*
X826424Y3399343D01*
X880000Y3410000D01*
X1160000Y3410000D01*
X1213576Y3399343D01*
G37*
G36*
X2173576Y3399343D02*
G01*
X2218995Y3368995D01*
X2249343Y3323576D01*
X2260000Y3270000D01*
X2260000Y2930000D01*
X2249343Y2876424D01*
X2218995Y2831005D01*
X2173576Y2800657D01*
X2120000Y2790000D01*
X2116057Y2790000D01*
X1843937Y2790000D01*
X1840000Y2790000D01*
X1786424Y2800657D01*
X1741005Y2831005D01*
X1710657Y2876424D01*
X1700000Y2930000D01*
X1700000Y3270000D01*
X1710657Y3323576D01*
X1741005Y3368995D01*
X1786424Y3399343D01*
X1840000Y3410000D01*
X2120000Y3410000D01*
X2173576Y3399343D01*
G37*
G36*
X-5160038Y4008349D02*
G01*
X-5089070Y3960930D01*
X-5041651Y3889962D01*
X-5025000Y3806250D01*
X-5025000Y3368750D01*
X-5041651Y3285038D01*
X-5089070Y3214070D01*
X-5160038Y3166651D01*
X-5243750Y3150000D01*
X-5247692Y3150000D01*
X-5752313Y3150000D01*
X-5756250Y3150000D01*
X-5839962Y3166651D01*
X-5910930Y3214070D01*
X-5958349Y3285038D01*
X-5975000Y3368750D01*
X-5975000Y3806250D01*
X-5958349Y3889962D01*
X-5910930Y3960930D01*
X-5839962Y4008349D01*
X-5756250Y4025000D01*
X-5243750Y4025000D01*
X-5160038Y4008349D01*
G37*
G36*
X3457403Y4613582D02*
G01*
X3506066Y4581066D01*
X3538582Y4532403D01*
X3550000Y4475000D01*
X3550000Y3450000D01*
X3538582Y3392597D01*
X3506066Y3343934D01*
X3457403Y3311418D01*
X3400000Y3300000D01*
X3396057Y3300000D01*
X3103937Y3300000D01*
X3100000Y3300000D01*
X3042597Y3311418D01*
X2993934Y3343934D01*
X2961418Y3392597D01*
X2950000Y3450000D01*
X2950000Y4475000D01*
X2961418Y4532403D01*
X2993934Y4581066D01*
X3042597Y4613582D01*
X3100000Y4625000D01*
X3400000Y4625000D01*
X3457403Y4613582D01*
G37*
G36*
X4407403Y4613582D02*
G01*
X4456066Y4581066D01*
X4488582Y4532403D01*
X4500000Y4475000D01*
X4500000Y3450000D01*
X4488582Y3392597D01*
X4456066Y3343934D01*
X4407403Y3311418D01*
X4350000Y3300000D01*
X4346057Y3300000D01*
X4053937Y3300000D01*
X4050000Y3300000D01*
X3992597Y3311418D01*
X3943934Y3343934D01*
X3911418Y3392597D01*
X3900000Y3450000D01*
X3900000Y4475000D01*
X3911418Y4532403D01*
X3943934Y4581066D01*
X3992597Y4613582D01*
X4050000Y4625000D01*
X4350000Y4625000D01*
X4407403Y4613582D01*
G37*
G36*
X5357403Y4613582D02*
G01*
X5406066Y4581066D01*
X5438582Y4532403D01*
X5450000Y4475000D01*
X5450000Y3450000D01*
X5438582Y3392597D01*
X5406066Y3343934D01*
X5357403Y3311418D01*
X5300000Y3300000D01*
X5296057Y3300000D01*
X5003937Y3300000D01*
X5000000Y3300000D01*
X4942597Y3311418D01*
X4893934Y3343934D01*
X4861418Y3392597D01*
X4850000Y3450000D01*
X4850000Y4475000D01*
X4861418Y4532403D01*
X4893934Y4581066D01*
X4942597Y4613582D01*
X5000000Y4625000D01*
X5300000Y4625000D01*
X5357403Y4613582D01*
G37*
G36*
X-3742597Y5213582D02*
G01*
X-3693934Y5181066D01*
X-3661418Y5132403D01*
X-3650000Y5075000D01*
X-3650000Y4050000D01*
X-3661418Y3992597D01*
X-3693934Y3943934D01*
X-3742597Y3911418D01*
X-3800000Y3900000D01*
X-3803942Y3900000D01*
X-4096062Y3900000D01*
X-4100000Y3900000D01*
X-4157403Y3911418D01*
X-4206066Y3943934D01*
X-4238582Y3992597D01*
X-4250000Y4050000D01*
X-4250000Y5075000D01*
X-4238582Y5132403D01*
X-4206066Y5181066D01*
X-4157403Y5213582D01*
X-4100000Y5225000D01*
X-3800000Y5225000D01*
X-3742597Y5213582D01*
G37*
G36*
X-2792597Y5213582D02*
G01*
X-2743934Y5181066D01*
X-2711418Y5132403D01*
X-2700000Y5075000D01*
X-2700000Y4050000D01*
X-2711418Y3992597D01*
X-2743934Y3943934D01*
X-2792597Y3911418D01*
X-2850000Y3900000D01*
X-2853942Y3900000D01*
X-3146062Y3900000D01*
X-3150000Y3900000D01*
X-3207403Y3911418D01*
X-3256066Y3943934D01*
X-3288582Y3992597D01*
X-3300000Y4050000D01*
X-3300000Y5075000D01*
X-3288582Y5132403D01*
X-3256066Y5181066D01*
X-3207403Y5213582D01*
X-3150000Y5225000D01*
X-2850000Y5225000D01*
X-2792597Y5213582D01*
G37*
G36*
X-1842597Y5213582D02*
G01*
X-1793934Y5181066D01*
X-1761418Y5132403D01*
X-1750000Y5075000D01*
X-1750000Y4050000D01*
X-1761418Y3992597D01*
X-1793934Y3943934D01*
X-1842597Y3911418D01*
X-1900000Y3900000D01*
X-1903942Y3900000D01*
X-2196062Y3900000D01*
X-2200000Y3900000D01*
X-2257403Y3911418D01*
X-2306066Y3943934D01*
X-2338582Y3992597D01*
X-2350000Y4050000D01*
X-2350000Y5075000D01*
X-2338582Y5132403D01*
X-2306066Y5181066D01*
X-2257403Y5213582D01*
X-2200000Y5225000D01*
X-1900000Y5225000D01*
X-1842597Y5213582D01*
G37*
G36*
X166891Y5531196D02*
G01*
X325413Y5475727D01*
X467617Y5386374D01*
X586374Y5267617D01*
X675727Y5125413D01*
X731196Y4966891D01*
X750000Y4800000D01*
X731196Y4633109D01*
X675727Y4474587D01*
X586374Y4332383D01*
X467617Y4213626D01*
X325413Y4124273D01*
X166891Y4068804D01*
X0Y4050000D01*
X-166891Y4068804D01*
X-325413Y4124273D01*
X-467617Y4213626D01*
X-586374Y4332383D01*
X-675727Y4474587D01*
X-731196Y4633109D01*
X-750000Y4800000D01*
X-731196Y4966891D01*
X-675727Y5125413D01*
X-586374Y5267617D01*
X-467617Y5386374D01*
X-325413Y5475727D01*
X-166891Y5531196D01*
X0Y5550000D01*
X166891Y5531196D01*
G37*
G36*
X-5163896Y5457873D02*
G01*
X-5090901Y5409099D01*
X-5042127Y5336104D01*
X-5025000Y5250000D01*
X-5025000Y4800000D01*
X-5042127Y4713896D01*
X-5090901Y4640901D01*
X-5163896Y4592127D01*
X-5250000Y4575000D01*
X-5253942Y4575000D01*
X-5746063Y4575000D01*
X-5750000Y4575000D01*
X-5836104Y4592127D01*
X-5909099Y4640901D01*
X-5957873Y4713896D01*
X-5975000Y4800000D01*
X-5975000Y5250000D01*
X-5957873Y5336104D01*
X-5909099Y5409099D01*
X-5836104Y5457873D01*
X-5750000Y5475000D01*
X-5250000Y5475000D01*
X-5163896Y5457873D01*
G37*
G36*
X3457403Y6888582D02*
G01*
X3506066Y6856066D01*
X3538582Y6807403D01*
X3550000Y6750000D01*
X3550000Y5725000D01*
X3538582Y5667597D01*
X3506066Y5618934D01*
X3457403Y5586418D01*
X3400000Y5575000D01*
X3396057Y5575000D01*
X3103937Y5575000D01*
X3100000Y5575000D01*
X3042597Y5586418D01*
X2993934Y5618934D01*
X2961418Y5667597D01*
X2950000Y5725000D01*
X2950000Y6750000D01*
X2961418Y6807403D01*
X2993934Y6856066D01*
X3042597Y6888582D01*
X3100000Y6900000D01*
X3400000Y6900000D01*
X3457403Y6888582D01*
G37*
G36*
X5357403Y6888582D02*
G01*
X5406066Y6856066D01*
X5438582Y6807403D01*
X5450000Y6750000D01*
X5450000Y5725000D01*
X5438582Y5667597D01*
X5406066Y5618934D01*
X5357403Y5586418D01*
X5300000Y5575000D01*
X5296057Y5575000D01*
X5003937Y5575000D01*
X5000000Y5575000D01*
X4942597Y5586418D01*
X4893934Y5618934D01*
X4861418Y5667597D01*
X4850000Y5725000D01*
X4850000Y6750000D01*
X4861418Y6807403D01*
X4893934Y6856066D01*
X4942597Y6888582D01*
X5000000Y6900000D01*
X5300000Y6900000D01*
X5357403Y6888582D01*
G37*
G36*
X-5163896Y7007873D02*
G01*
X-5090901Y6959099D01*
X-5042127Y6886104D01*
X-5025000Y6800000D01*
X-5025000Y6350000D01*
X-5042127Y6263896D01*
X-5090901Y6190901D01*
X-5163896Y6142127D01*
X-5250000Y6125000D01*
X-5253942Y6125000D01*
X-5746063Y6125000D01*
X-5750000Y6125000D01*
X-5836104Y6142127D01*
X-5909099Y6190901D01*
X-5957873Y6263896D01*
X-5975000Y6350000D01*
X-5975000Y6800000D01*
X-5957873Y6886104D01*
X-5909099Y6959099D01*
X-5836104Y7007873D01*
X-5750000Y7025000D01*
X-5250000Y7025000D01*
X-5163896Y7007873D01*
G37*
G36*
X-3742597Y7488582D02*
G01*
X-3693934Y7456066D01*
X-3661418Y7407403D01*
X-3650000Y7350000D01*
X-3650000Y6325000D01*
X-3661418Y6267597D01*
X-3693934Y6218934D01*
X-3742597Y6186418D01*
X-3800000Y6175000D01*
X-3803942Y6175000D01*
X-4096062Y6175000D01*
X-4100000Y6175000D01*
X-4157403Y6186418D01*
X-4206066Y6218934D01*
X-4238582Y6267597D01*
X-4250000Y6325000D01*
X-4250000Y7350000D01*
X-4238582Y7407403D01*
X-4206066Y7456066D01*
X-4157403Y7488582D01*
X-4100000Y7500000D01*
X-3800000Y7500000D01*
X-3742597Y7488582D01*
G37*
G36*
X-1842597Y7488582D02*
G01*
X-1793934Y7456066D01*
X-1761418Y7407403D01*
X-1750000Y7350000D01*
X-1750000Y6325000D01*
X-1761418Y6267597D01*
X-1793934Y6218934D01*
X-1842597Y6186418D01*
X-1900000Y6175000D01*
X-1903942Y6175000D01*
X-2196062Y6175000D01*
X-2200000Y6175000D01*
X-2257403Y6186418D01*
X-2306066Y6218934D01*
X-2338582Y6267597D01*
X-2350000Y6325000D01*
X-2350000Y7350000D01*
X-2338582Y7407403D01*
X-2306066Y7456066D01*
X-2257403Y7488582D01*
X-2200000Y7500000D01*
X-1900000Y7500000D01*
X-1842597Y7488582D01*
G37*
M02*
