%TF.GenerationSoftware,KiCad,Pcbnew,7.0.6*%
%TF.CreationDate,2024-06-20T12:42:18-04:00*%
%TF.ProjectId,ActiveImpactor_Encoder_Celera,41637469-7665-4496-9d70-6163746f725f,rev?*%
%TF.SameCoordinates,Original*%
%TF.FileFunction,Paste,Top*%
%TF.FilePolarity,Positive*%
%FSLAX46Y46*%
G04 Gerber Fmt 4.6, Leading zero omitted, Abs format (unit mm)*
G04 Created by KiCad (PCBNEW 7.0.6) date 2024-06-20 12:42:18*
%MOMM*%
%LPD*%
G01*
G04 APERTURE LIST*
G04 Aperture macros list*
%AMRoundRect*
0 Rectangle with rounded corners*
0 $1 Rounding radius*
0 $2 $3 $4 $5 $6 $7 $8 $9 X,Y pos of 4 corners*
0 Add a 4 corners polygon primitive as box body*
4,1,4,$2,$3,$4,$5,$6,$7,$8,$9,$2,$3,0*
0 Add four circle primitives for the rounded corners*
1,1,$1+$1,$2,$3*
1,1,$1+$1,$4,$5*
1,1,$1+$1,$6,$7*
1,1,$1+$1,$8,$9*
0 Add four rect primitives between the rounded corners*
20,1,$1+$1,$2,$3,$4,$5,0*
20,1,$1+$1,$4,$5,$6,$7,0*
20,1,$1+$1,$6,$7,$8,$9,0*
20,1,$1+$1,$8,$9,$2,$3,0*%
G04 Aperture macros list end*
%ADD10RoundRect,0.150000X0.150000X-0.512500X0.150000X0.512500X-0.150000X0.512500X-0.150000X-0.512500X0*%
%ADD11RoundRect,0.140000X0.140000X0.170000X-0.140000X0.170000X-0.140000X-0.170000X0.140000X-0.170000X0*%
%ADD12RoundRect,0.150000X0.150000X0.625000X-0.150000X0.625000X-0.150000X-0.625000X0.150000X-0.625000X0*%
%ADD13RoundRect,0.250000X0.350000X0.650000X-0.350000X0.650000X-0.350000X-0.650000X0.350000X-0.650000X0*%
%ADD14RoundRect,0.225000X-0.250000X0.225000X-0.250000X-0.225000X0.250000X-0.225000X0.250000X0.225000X0*%
%ADD15RoundRect,0.140000X-0.140000X-0.170000X0.140000X-0.170000X0.140000X0.170000X-0.140000X0.170000X0*%
%ADD16RoundRect,0.062500X0.117500X0.062500X-0.117500X0.062500X-0.117500X-0.062500X0.117500X-0.062500X0*%
%ADD17RoundRect,0.135000X0.135000X0.185000X-0.135000X0.185000X-0.135000X-0.185000X0.135000X-0.185000X0*%
%ADD18RoundRect,0.225000X0.225000X0.250000X-0.225000X0.250000X-0.225000X-0.250000X0.225000X-0.250000X0*%
%ADD19RoundRect,0.218750X-0.256250X0.218750X-0.256250X-0.218750X0.256250X-0.218750X0.256250X0.218750X0*%
%ADD20RoundRect,0.225000X-0.225000X-0.250000X0.225000X-0.250000X0.225000X0.250000X-0.225000X0.250000X0*%
%ADD21RoundRect,0.135000X-0.135000X-0.185000X0.135000X-0.185000X0.135000X0.185000X-0.135000X0.185000X0*%
G04 APERTURE END LIST*
D10*
%TO.C,U102*%
X3350000Y-837500D03*
X4300000Y-837500D03*
X5250000Y-837500D03*
X5250000Y1437500D03*
X3350000Y1437500D03*
%TD*%
D11*
%TO.C,C101*%
X-520000Y-2300000D03*
X-1480000Y-2300000D03*
%TD*%
D12*
%TO.C,J101*%
X2500000Y-4075000D03*
X1500000Y-4075000D03*
X500000Y-4075000D03*
X-500000Y-4075000D03*
X-1500000Y-4075000D03*
X-2500000Y-4075000D03*
D13*
X3800000Y-6600000D03*
X-3800000Y-6600000D03*
%TD*%
D14*
%TO.C,C105*%
X-5500000Y6575000D03*
X-5500000Y5025000D03*
%TD*%
D11*
%TO.C,C102*%
X2380000Y-2300000D03*
X1420000Y-2300000D03*
%TD*%
D15*
%TO.C,C107*%
X-3980000Y3100000D03*
X-3020000Y3100000D03*
%TD*%
D11*
%TO.C,C108*%
X1980000Y3100000D03*
X1020000Y3100000D03*
%TD*%
D10*
%TO.C,U104*%
X3250000Y3962500D03*
X4200000Y3962500D03*
X5150000Y3962500D03*
X5150000Y6237500D03*
X3250000Y6237500D03*
%TD*%
D16*
%TO.C,D101*%
X-4020000Y-2300000D03*
X-3180000Y-2300000D03*
%TD*%
D17*
%TO.C,R101*%
X-3290000Y100000D03*
X-4310000Y100000D03*
%TD*%
D18*
%TO.C,C104*%
X975000Y200000D03*
X-575000Y200000D03*
%TD*%
D19*
%TO.C,L101*%
X-5500000Y3587500D03*
X-5500000Y2012500D03*
%TD*%
D20*
%TO.C,C103*%
X-4375000Y-1100000D03*
X-2825000Y-1100000D03*
%TD*%
D21*
%TO.C,R102*%
X-1110000Y3000000D03*
X-90000Y3000000D03*
%TD*%
D10*
%TO.C,U103*%
X-3950000Y4562500D03*
X-3000000Y4562500D03*
X-2050000Y4562500D03*
X-2050000Y6837500D03*
X-3950000Y6837500D03*
%TD*%
D15*
%TO.C,C106*%
X3520000Y-2300000D03*
X4480000Y-2300000D03*
%TD*%
D17*
%TO.C,R103*%
X710000Y1400000D03*
X-310000Y1400000D03*
%TD*%
M02*
