%TF.GenerationSoftware,KiCad,Pcbnew,7.0.6*%
%TF.CreationDate,2024-06-20T12:42:18-04:00*%
%TF.ProjectId,ActiveImpactor_Encoder_Celera,41637469-7665-4496-9d70-6163746f725f,rev?*%
%TF.SameCoordinates,Original*%
%TF.FileFunction,Copper,L4,Bot*%
%TF.FilePolarity,Positive*%
%FSLAX46Y46*%
G04 Gerber Fmt 4.6, Leading zero omitted, Abs format (unit mm)*
G04 Created by KiCad (PCBNEW 7.0.6) date 2024-06-20 12:42:18*
%MOMM*%
%LPD*%
G01*
G04 APERTURE LIST*
%TA.AperFunction,ViaPad*%
%ADD10C,0.650000*%
%TD*%
%TA.AperFunction,Conductor*%
%ADD11C,0.300000*%
%TD*%
%TA.AperFunction,Conductor*%
%ADD12C,0.200000*%
%TD*%
%TA.AperFunction,Conductor*%
%ADD13C,0.500000*%
%TD*%
G04 APERTURE END LIST*
D10*
%TO.N,Net-(D101-K)*%
X-5600000Y-1300000D03*
%TO.N,GND*%
X1451289Y4365147D03*
%TO.N,A+*%
X5900000Y2700000D03*
%TO.N,A-*%
X4604502Y1800000D03*
%TO.N,IW-*%
X4600000Y5500000D03*
%TO.N,IW+*%
X3250000Y7300000D03*
%TO.N,B+*%
X-4800000Y7700000D03*
%TO.N,B-*%
X-1800000Y8600000D03*
%TO.N,Net-(U101-+5VD)*%
X-6592955Y5048341D03*
%TO.N,GND*%
X-2100000Y3100000D03*
X-1500000Y700000D03*
X-6600000Y6600000D03*
%TO.N,Net-(U101-CP+)*%
X1362180Y1370023D03*
%TO.N,Net-(D101-A)*%
X-1870888Y-887165D03*
%TO.N,+5V*%
X519184Y-965365D03*
%TO.N,Net-(U101-S+)*%
X-1949124Y2134051D03*
%TO.N,Net-(U101-DC2)*%
X1300000Y-1300000D03*
%TO.N,GND*%
X2500000Y-2900000D03*
X4500000Y-3400000D03*
X-274500Y-1499500D03*
%TO.N,Net-(U101-DC1)*%
X-1624000Y-1700000D03*
%TD*%
D11*
%TO.N,Net-(D101-K)*%
X-5105000Y-1795000D02*
X-5600000Y-1300000D01*
X-4315000Y-1795000D02*
X-5105000Y-1795000D01*
D12*
%TO.N,A-*%
X705000Y8350000D02*
X705000Y7515000D01*
X3200000Y8600000D02*
X955000Y8600000D01*
X955000Y8600000D02*
X705000Y8350000D01*
X5225000Y6575000D02*
X3200000Y8600000D01*
X4604502Y1800000D02*
X4604502Y3004502D01*
X4604502Y3004502D02*
X5225000Y3625000D01*
X5225000Y3625000D02*
X5225000Y6575000D01*
%TO.N,A+*%
X300000Y9100000D02*
X-435000Y8365000D01*
X3700000Y9100000D02*
X300000Y9100000D01*
X5900000Y6900000D02*
X3700000Y9100000D01*
X5900000Y2700000D02*
X5900000Y6900000D01*
X-435000Y8365000D02*
X-435000Y7515000D01*
%TO.N,IW+*%
X2060000Y7300000D02*
X1845000Y7515000D01*
X3250000Y7300000D02*
X2060000Y7300000D01*
D11*
%TO.N,IW-*%
X4600000Y5300000D02*
X4600000Y5500000D01*
X3445000Y5045000D02*
X4345000Y5045000D01*
X4345000Y5045000D02*
X4600000Y5300000D01*
D12*
%TO.N,B+*%
X-2900000Y7700000D02*
X-2715000Y7515000D01*
X-4800000Y7700000D02*
X-2900000Y7700000D01*
D11*
%TO.N,B-*%
X-1575000Y8375000D02*
X-1575000Y7515000D01*
X-1800000Y8600000D02*
X-1575000Y8375000D01*
D13*
%TO.N,Net-(U101-+5VD)*%
X-6589614Y5045000D02*
X-6592955Y5048341D01*
X-4315000Y5045000D02*
X-6589614Y5045000D01*
%TO.N,GND*%
X-2100000Y3400000D02*
X-2100000Y3100000D01*
X-2605000Y3905000D02*
X-2100000Y3400000D01*
X-3100000Y3905000D02*
X-2605000Y3905000D01*
D12*
%TO.N,Net-(U101-S+)*%
X-2555000Y-655000D02*
X-3100000Y-655000D01*
X-2200000Y-300000D02*
X-2555000Y-655000D01*
X-2200000Y1883175D02*
X-2200000Y-300000D01*
X-1949124Y2134051D02*
X-2200000Y1883175D01*
D11*
%TO.N,Net-(U101-CP+)*%
X1362180Y1237820D02*
X2115000Y485000D01*
X1362180Y1370023D02*
X1362180Y1237820D01*
X2115000Y485000D02*
X2230000Y485000D01*
%TO.N,Net-(D101-A)*%
X-1312835Y-887165D02*
X-1870888Y-887165D01*
X-949500Y-1250500D02*
X-1312835Y-887165D01*
X-949500Y-1950500D02*
X-949500Y-1250500D01*
X-435000Y-2465000D02*
X-949500Y-1950500D01*
X-435000Y-3050000D02*
X-435000Y-2465000D01*
%TO.N,Net-(U101-DC1)*%
X-1575000Y-1749000D02*
X-1575000Y-3050000D01*
X-1624000Y-1700000D02*
X-1575000Y-1749000D01*
D13*
%TO.N,+5V*%
X1751016Y-655000D02*
X1621016Y-525000D01*
X2230000Y-655000D02*
X1751016Y-655000D01*
X1621016Y-525000D02*
X959549Y-525000D01*
X959549Y-525000D02*
X519184Y-965365D01*
D11*
%TO.N,Net-(U101-DC2)*%
X705000Y-1895000D02*
X1300000Y-1300000D01*
X705000Y-3050000D02*
X705000Y-1895000D01*
D13*
%TO.N,GND*%
X1995000Y-2900000D02*
X1845000Y-3050000D01*
X2500000Y-2900000D02*
X1995000Y-2900000D01*
D11*
%TO.N,unconnected-(U101-NC-Pad7)*%
X2230000Y-1795000D02*
X3445000Y-1795000D01*
D13*
%TO.N,+5V*%
X2230000Y-655000D02*
X3445000Y-655000D01*
D11*
%TO.N,Net-(U101-CP+)*%
X2230000Y485000D02*
X3445000Y485000D01*
%TO.N,unconnected-(U101-NC-Pad4)*%
X2230000Y1625000D02*
X3445000Y1625000D01*
%TO.N,unconnected-(U101-NC-Pad3)*%
X2230000Y2765000D02*
X3445000Y2765000D01*
%TO.N,unconnected-(U101-GND-Pad2)*%
X2230000Y3905000D02*
X3445000Y3905000D01*
%TO.N,IW-*%
X2230000Y5045000D02*
X3445000Y5045000D01*
%TO.N,IW+*%
X1845000Y6300000D02*
X1845000Y7515000D01*
%TO.N,A-*%
X705000Y6300000D02*
X705000Y7515000D01*
%TO.N,A+*%
X-435000Y6300000D02*
X-435000Y7515000D01*
%TO.N,B-*%
X-1575000Y6300000D02*
X-1575000Y7515000D01*
%TO.N,B+*%
X-2715000Y6300000D02*
X-2715000Y7515000D01*
%TO.N,Net-(U101-+5VD)*%
X-3100000Y5045000D02*
X-4315000Y5045000D01*
D13*
%TO.N,GND*%
X-3100000Y3905000D02*
X-4315000Y3905000D01*
D11*
%TO.N,unconnected-(U101-NC-Pad17)*%
X-3100000Y2765000D02*
X-4315000Y2765000D01*
%TO.N,unconnected-(U101-NC-Pad16)*%
X-3100000Y1625000D02*
X-4315000Y1625000D01*
%TO.N,unconnected-(U101-NC-Pad15)*%
X-3100000Y485000D02*
X-4315000Y485000D01*
%TO.N,Net-(U101-S+)*%
X-3100000Y-655000D02*
X-4315000Y-655000D01*
%TO.N,Net-(D101-K)*%
X-3100000Y-1795000D02*
X-4315000Y-1795000D01*
%TO.N,unconnected-(U101-NC-Pad12)*%
X-2715000Y-3050000D02*
X-2715000Y-4265000D01*
%TO.N,Net-(U101-DC1)*%
X-1575000Y-3050000D02*
X-1575000Y-4265000D01*
%TO.N,Net-(D101-A)*%
X-435000Y-3050000D02*
X-435000Y-4265000D01*
%TO.N,Net-(U101-DC2)*%
X705000Y-3050000D02*
X705000Y-4265000D01*
D13*
%TO.N,GND*%
X1845000Y-3050000D02*
X1845000Y-4265000D01*
%TD*%
M02*
