%TF.GenerationSoftware,KiCad,Pcbnew,7.0.6*%
%TF.CreationDate,2024-06-20T12:42:18-04:00*%
%TF.ProjectId,ActiveImpactor_Encoder_Celera,41637469-7665-4496-9d70-6163746f725f,rev?*%
%TF.SameCoordinates,Original*%
%TF.FileFunction,Legend,Top*%
%TF.FilePolarity,Positive*%
%FSLAX46Y46*%
G04 Gerber Fmt 4.6, Leading zero omitted, Abs format (unit mm)*
G04 Created by KiCad (PCBNEW 7.0.6) date 2024-06-20 12:42:18*
%MOMM*%
%LPD*%
G01*
G04 APERTURE LIST*
G04 Aperture macros list*
%AMRoundRect*
0 Rectangle with rounded corners*
0 $1 Rounding radius*
0 $2 $3 $4 $5 $6 $7 $8 $9 X,Y pos of 4 corners*
0 Add a 4 corners polygon primitive as box body*
4,1,4,$2,$3,$4,$5,$6,$7,$8,$9,$2,$3,0*
0 Add four circle primitives for the rounded corners*
1,1,$1+$1,$2,$3*
1,1,$1+$1,$4,$5*
1,1,$1+$1,$6,$7*
1,1,$1+$1,$8,$9*
0 Add four rect primitives between the rounded corners*
20,1,$1+$1,$2,$3,$4,$5,0*
20,1,$1+$1,$4,$5,$6,$7,0*
20,1,$1+$1,$6,$7,$8,$9,0*
20,1,$1+$1,$8,$9,$2,$3,0*%
G04 Aperture macros list end*
%ADD10C,0.150000*%
%ADD11C,0.200000*%
%ADD12C,0.300000*%
%ADD13C,0.120000*%
%ADD14RoundRect,0.150000X0.150000X-0.512500X0.150000X0.512500X-0.150000X0.512500X-0.150000X-0.512500X0*%
%ADD15RoundRect,0.140000X0.140000X0.170000X-0.140000X0.170000X-0.140000X-0.170000X0.140000X-0.170000X0*%
%ADD16RoundRect,0.150000X0.150000X0.625000X-0.150000X0.625000X-0.150000X-0.625000X0.150000X-0.625000X0*%
%ADD17RoundRect,0.250000X0.350000X0.650000X-0.350000X0.650000X-0.350000X-0.650000X0.350000X-0.650000X0*%
%ADD18RoundRect,0.225000X-0.250000X0.225000X-0.250000X-0.225000X0.250000X-0.225000X0.250000X0.225000X0*%
%ADD19C,1.500000*%
%ADD20RoundRect,0.140000X-0.140000X-0.170000X0.140000X-0.170000X0.140000X0.170000X-0.140000X0.170000X0*%
%ADD21RoundRect,0.062500X0.117500X0.062500X-0.117500X0.062500X-0.117500X-0.062500X0.117500X-0.062500X0*%
%ADD22RoundRect,0.135000X0.135000X0.185000X-0.135000X0.185000X-0.135000X-0.185000X0.135000X-0.185000X0*%
%ADD23RoundRect,0.225000X0.225000X0.250000X-0.225000X0.250000X-0.225000X-0.250000X0.225000X-0.250000X0*%
%ADD24RoundRect,0.218750X-0.256250X0.218750X-0.256250X-0.218750X0.256250X-0.218750X0.256250X0.218750X0*%
%ADD25RoundRect,0.225000X-0.225000X-0.250000X0.225000X-0.250000X0.225000X0.250000X-0.225000X0.250000X0*%
%ADD26RoundRect,0.135000X-0.135000X-0.185000X0.135000X-0.185000X0.135000X0.185000X-0.135000X0.185000X0*%
G04 APERTURE END LIST*
D10*
X-776190Y6575800D02*
X-661904Y6537704D01*
X-661904Y6537704D02*
X-471428Y6537704D01*
X-471428Y6537704D02*
X-395237Y6575800D01*
X-395237Y6575800D02*
X-357142Y6613895D01*
X-357142Y6613895D02*
X-319047Y6690085D01*
X-319047Y6690085D02*
X-319047Y6766276D01*
X-319047Y6766276D02*
X-357142Y6842466D01*
X-357142Y6842466D02*
X-395237Y6880561D01*
X-395237Y6880561D02*
X-471428Y6918657D01*
X-471428Y6918657D02*
X-623809Y6956752D01*
X-623809Y6956752D02*
X-699999Y6994847D01*
X-699999Y6994847D02*
X-738094Y7032942D01*
X-738094Y7032942D02*
X-776190Y7109133D01*
X-776190Y7109133D02*
X-776190Y7185323D01*
X-776190Y7185323D02*
X-738094Y7261514D01*
X-738094Y7261514D02*
X-699999Y7299609D01*
X-699999Y7299609D02*
X-623809Y7337704D01*
X-623809Y7337704D02*
X-433332Y7337704D01*
X-433332Y7337704D02*
X-319047Y7299609D01*
X23810Y6537704D02*
X23810Y7071038D01*
X23810Y7337704D02*
X-14285Y7299609D01*
X-14285Y7299609D02*
X23810Y7261514D01*
X23810Y7261514D02*
X61905Y7299609D01*
X61905Y7299609D02*
X23810Y7337704D01*
X23810Y7337704D02*
X23810Y7261514D01*
X404762Y7071038D02*
X404762Y6537704D01*
X404762Y6994847D02*
X442857Y7032942D01*
X442857Y7032942D02*
X519047Y7071038D01*
X519047Y7071038D02*
X633333Y7071038D01*
X633333Y7071038D02*
X709524Y7032942D01*
X709524Y7032942D02*
X747619Y6956752D01*
X747619Y6956752D02*
X747619Y6537704D01*
X1128572Y6842466D02*
X1738096Y6842466D01*
X1433334Y6537704D02*
X1433334Y7147228D01*
D11*
X4762500Y7937500D02*
X-4762500Y7937500D01*
X4762500Y-7937500D02*
G75*
G03*
X6350000Y-6350000I0J1587500D01*
G01*
X6350000Y6350000D02*
G75*
G03*
X4762500Y7937500I-1587500J0D01*
G01*
X6350000Y-6350000D02*
X6350000Y6350000D01*
X-4762500Y-7937500D02*
X4762500Y-7937500D01*
X-6350000Y-6350000D02*
G75*
G03*
X-4762500Y-7937500I1587500J0D01*
G01*
X-6350000Y6350000D02*
X-6350000Y-6350000D01*
X-4762500Y7937500D02*
G75*
G03*
X-6350000Y6350000I0J-1587500D01*
G01*
D12*
X-1321427Y750242D02*
X-1464285Y821671D01*
X-1464285Y821671D02*
X-1678570Y821671D01*
X-1678570Y821671D02*
X-1892856Y750242D01*
X-1892856Y750242D02*
X-2035713Y607385D01*
X-2035713Y607385D02*
X-2107142Y464528D01*
X-2107142Y464528D02*
X-2178570Y178814D01*
X-2178570Y178814D02*
X-2178570Y-35471D01*
X-2178570Y-35471D02*
X-2107142Y-321185D01*
X-2107142Y-321185D02*
X-2035713Y-464042D01*
X-2035713Y-464042D02*
X-1892856Y-606900D01*
X-1892856Y-606900D02*
X-1678570Y-678328D01*
X-1678570Y-678328D02*
X-1535713Y-678328D01*
X-1535713Y-678328D02*
X-1321427Y-606900D01*
X-1321427Y-606900D02*
X-1249999Y-535471D01*
X-1249999Y-535471D02*
X-1249999Y-35471D01*
X-1249999Y-35471D02*
X-1535713Y-35471D01*
X-392856Y821671D02*
X-392856Y464528D01*
X-749999Y607385D02*
X-392856Y464528D01*
X-392856Y464528D02*
X-35713Y607385D01*
X-607142Y178814D02*
X-392856Y464528D01*
X-392856Y464528D02*
X-178570Y178814D01*
X750000Y821671D02*
X750000Y464528D01*
X392857Y607385D02*
X750000Y464528D01*
X750000Y464528D02*
X1107143Y607385D01*
X535714Y178814D02*
X750000Y464528D01*
X750000Y464528D02*
X964286Y178814D01*
X1892857Y821671D02*
X1892857Y464528D01*
X1535714Y607385D02*
X1892857Y464528D01*
X1892857Y464528D02*
X2250000Y607385D01*
X1678571Y178814D02*
X1892857Y464528D01*
X1892857Y464528D02*
X2107143Y178814D01*
D13*
%TO.C,U102*%
X2740000Y300000D02*
X2740000Y-1500000D01*
X2740000Y300000D02*
X2740000Y1100000D01*
X5860000Y300000D02*
X5860000Y-500000D01*
X5860000Y300000D02*
X5860000Y1100000D01*
%TO.C,C101*%
X-892164Y-2660000D02*
X-1107836Y-2660000D01*
X-892164Y-1940000D02*
X-1107836Y-1940000D01*
%TO.C,J101*%
X4110000Y-5440000D02*
X4110000Y-4290000D01*
X4110000Y-4290000D02*
X3060000Y-4290000D01*
X3060000Y-4290000D02*
X3060000Y-3300000D01*
X2940000Y-7410000D02*
X-2940000Y-7410000D01*
X-4110000Y-5440000D02*
X-4110000Y-4290000D01*
X-4110000Y-4290000D02*
X-3060000Y-4290000D01*
%TO.C,C105*%
X-4990000Y5940580D02*
X-4990000Y5659420D01*
X-6010000Y5940580D02*
X-6010000Y5659420D01*
%TO.C,TP101*%
X950000Y4800000D02*
G75*
G03*
X950000Y4800000I-950000J0D01*
G01*
%TO.C,C102*%
X2007836Y-2660000D02*
X1792164Y-2660000D01*
X2007836Y-1940000D02*
X1792164Y-1940000D01*
%TO.C,C107*%
X-3607836Y3460000D02*
X-3392164Y3460000D01*
X-3607836Y2740000D02*
X-3392164Y2740000D01*
%TO.C,C108*%
X1607836Y2740000D02*
X1392164Y2740000D01*
X1607836Y3460000D02*
X1392164Y3460000D01*
%TO.C,U104*%
X2640000Y5100000D02*
X2640000Y3300000D01*
X2640000Y5100000D02*
X2640000Y5900000D01*
X5760000Y5100000D02*
X5760000Y4300000D01*
X5760000Y5100000D02*
X5760000Y5900000D01*
%TO.C,D101*%
X-4460000Y-1900000D02*
X-4460000Y-2700000D01*
X-3100000Y-1900000D02*
X-4460000Y-1900000D01*
X-3100000Y-2700000D02*
X-4460000Y-2700000D01*
%TO.C,R101*%
X-3646359Y-280000D02*
X-3953641Y-280000D01*
X-3646359Y480000D02*
X-3953641Y480000D01*
%TO.C,C104*%
X340580Y-310000D02*
X59420Y-310000D01*
X340580Y710000D02*
X59420Y710000D01*
%TO.C,L101*%
X-4990000Y2962779D02*
X-4990000Y2637221D01*
X-6010000Y2962779D02*
X-6010000Y2637221D01*
%TO.C,C103*%
X-3740580Y-590000D02*
X-3459420Y-590000D01*
X-3740580Y-1610000D02*
X-3459420Y-1610000D01*
%TO.C,R102*%
X-753641Y3380000D02*
X-446359Y3380000D01*
X-753641Y2620000D02*
X-446359Y2620000D01*
%TO.C,U103*%
X-4560000Y5700000D02*
X-4560000Y3900000D01*
X-4560000Y5700000D02*
X-4560000Y6500000D01*
X-1440000Y5700000D02*
X-1440000Y4900000D01*
X-1440000Y5700000D02*
X-1440000Y6500000D01*
%TO.C,C106*%
X3892164Y-1940000D02*
X4107836Y-1940000D01*
X3892164Y-2660000D02*
X4107836Y-2660000D01*
%TO.C,R103*%
X353641Y1020000D02*
X46359Y1020000D01*
X353641Y1780000D02*
X46359Y1780000D01*
%TD*%
%LPC*%
D14*
%TO.C,U102*%
X3350000Y-837500D03*
X4300000Y-837500D03*
X5250000Y-837500D03*
X5250000Y1437500D03*
X3350000Y1437500D03*
%TD*%
D15*
%TO.C,C101*%
X-520000Y-2300000D03*
X-1480000Y-2300000D03*
%TD*%
D16*
%TO.C,J101*%
X2500000Y-4075000D03*
X1500000Y-4075000D03*
X500000Y-4075000D03*
X-500000Y-4075000D03*
X-1500000Y-4075000D03*
X-2500000Y-4075000D03*
D17*
X3800000Y-6600000D03*
X-3800000Y-6600000D03*
%TD*%
D18*
%TO.C,C105*%
X-5500000Y6575000D03*
X-5500000Y5025000D03*
%TD*%
D19*
%TO.C,TP101*%
X0Y4800000D03*
%TD*%
D15*
%TO.C,C102*%
X2380000Y-2300000D03*
X1420000Y-2300000D03*
%TD*%
D20*
%TO.C,C107*%
X-3980000Y3100000D03*
X-3020000Y3100000D03*
%TD*%
D15*
%TO.C,C108*%
X1980000Y3100000D03*
X1020000Y3100000D03*
%TD*%
D14*
%TO.C,U104*%
X3250000Y3962500D03*
X4200000Y3962500D03*
X5150000Y3962500D03*
X5150000Y6237500D03*
X3250000Y6237500D03*
%TD*%
D21*
%TO.C,D101*%
X-4020000Y-2300000D03*
X-3180000Y-2300000D03*
%TD*%
D22*
%TO.C,R101*%
X-3290000Y100000D03*
X-4310000Y100000D03*
%TD*%
D23*
%TO.C,C104*%
X975000Y200000D03*
X-575000Y200000D03*
%TD*%
D24*
%TO.C,L101*%
X-5500000Y3587500D03*
X-5500000Y2012500D03*
%TD*%
D25*
%TO.C,C103*%
X-4375000Y-1100000D03*
X-2825000Y-1100000D03*
%TD*%
D26*
%TO.C,R102*%
X-1110000Y3000000D03*
X-90000Y3000000D03*
%TD*%
D14*
%TO.C,U103*%
X-3950000Y4562500D03*
X-3000000Y4562500D03*
X-2050000Y4562500D03*
X-2050000Y6837500D03*
X-3950000Y6837500D03*
%TD*%
D20*
%TO.C,C106*%
X3520000Y-2300000D03*
X4480000Y-2300000D03*
%TD*%
D22*
%TO.C,R103*%
X710000Y1400000D03*
X-310000Y1400000D03*
%TD*%
%LPD*%
M02*
