M48
; DRILL file {KiCad 7.0.6} date Thu Jun 20 12:42:18 2024
; FORMAT={-:-/ absolute / inch / decimal}
; #@! TF.CreationDate,2024-06-20T12:42:18-04:00
; #@! TF.GenerationSoftware,Kicad,Pcbnew,7.0.6
; #@! TF.FileFunction,Plated,1,4,PTH
FMAT,2
INCH
; #@! TA.AperFunction,Plated,PTH,ViaDrill
T1C0.0098
%
G90
G05
T1
X-0.2598Y0.2598
X-0.2596Y0.1988
X-0.2205Y-0.0512
X-0.189Y0.3031
X-0.0827Y0.122
X-0.0767Y0.084
X-0.0737Y-0.0349
X-0.0709Y0.3386
X-0.0639Y-0.0669
X-0.0591Y0.0276
X-0.0108Y-0.059
X0.0204Y-0.038
X0.0512Y-0.0512
X0.0536Y0.0539
X0.0571Y0.1719
X0.0984Y-0.1142
X0.128Y0.2874
X0.1772Y-0.1339
X0.1811Y0.2165
X0.1813Y0.0709
X0.2323Y0.1063
T0
M30
