%TF.GenerationSoftware,KiCad,Pcbnew,7.0.6*%
%TF.CreationDate,2024-06-20T12:42:18-04:00*%
%TF.ProjectId,ActiveImpactor_Encoder_Celera,41637469-7665-4496-9d70-6163746f725f,rev?*%
%TF.SameCoordinates,Original*%
%TF.FileFunction,Copper,L3,Inr*%
%TF.FilePolarity,Positive*%
%FSLAX46Y46*%
G04 Gerber Fmt 4.6, Leading zero omitted, Abs format (unit mm)*
G04 Created by KiCad (PCBNEW 7.0.6) date 2024-06-20 12:42:18*
%MOMM*%
%LPD*%
G01*
G04 APERTURE LIST*
%TA.AperFunction,ViaPad*%
%ADD10C,0.650000*%
%TD*%
G04 APERTURE END LIST*
D10*
%TO.N,Net-(D101-K)*%
X-5600000Y-1300000D03*
%TO.N,GND*%
X1451289Y4365147D03*
%TO.N,A+*%
X5900000Y2700000D03*
%TO.N,A-*%
X4604502Y1800000D03*
%TO.N,IW-*%
X4600000Y5500000D03*
%TO.N,IW+*%
X3250000Y7300000D03*
%TO.N,B+*%
X-4800000Y7700000D03*
%TO.N,B-*%
X-1800000Y8600000D03*
%TO.N,Net-(U101-+5VD)*%
X-6592955Y5048341D03*
%TO.N,GND*%
X-2100000Y3100000D03*
X-1500000Y700000D03*
X-6600000Y6600000D03*
%TO.N,Net-(U101-CP+)*%
X1362180Y1370023D03*
%TO.N,Net-(D101-A)*%
X-1870888Y-887165D03*
%TO.N,+5V*%
X519184Y-965365D03*
%TO.N,Net-(U101-S+)*%
X-1949124Y2134051D03*
%TO.N,Net-(U101-DC2)*%
X1300000Y-1300000D03*
%TO.N,GND*%
X2500000Y-2900000D03*
X4500000Y-3400000D03*
X-274500Y-1499500D03*
%TO.N,Net-(U101-DC1)*%
X-1624000Y-1700000D03*
%TD*%
%TA.AperFunction,Conductor*%
%TO.N,GND*%
G36*
X-2540385Y9204815D02*
G01*
X-2494630Y9152011D01*
X-2484686Y9082853D01*
X-2500036Y9038500D01*
X-2558286Y8937611D01*
X-2611908Y8772576D01*
X-2630047Y8600000D01*
X-2611908Y8427424D01*
X-2558286Y8262389D01*
X-2471523Y8112112D01*
X-2355411Y7983156D01*
X-2215023Y7881157D01*
X-2056504Y7810579D01*
X-2056498Y7810577D01*
X-1922841Y7782168D01*
X-1886764Y7774500D01*
X-1886763Y7774500D01*
X-1713237Y7774500D01*
X-1713236Y7774500D01*
X-1683483Y7780824D01*
X-1543501Y7810577D01*
X-1543495Y7810579D01*
X-1384976Y7881157D01*
X-1244588Y7983156D01*
X-1128477Y8112112D01*
X-1041712Y8262391D01*
X-988093Y8427420D01*
X-988092Y8427421D01*
X-988092Y8427424D01*
X-969953Y8600000D01*
X-988092Y8772576D01*
X-989382Y8776547D01*
X-1041712Y8937608D01*
X-1099963Y9038500D01*
X-1116436Y9106400D01*
X-1093584Y9172427D01*
X-1038662Y9215617D01*
X-992576Y9224500D01*
X10271155Y9224500D01*
X10316310Y9224500D01*
X10321177Y9224309D01*
X10510353Y9209420D01*
X10529571Y9206376D01*
X10706965Y9163788D01*
X10725472Y9157775D01*
X10894017Y9087960D01*
X10911352Y9079127D01*
X11066910Y8983802D01*
X11082653Y8972364D01*
X11221375Y8853883D01*
X11235133Y8840125D01*
X11353614Y8701403D01*
X11365052Y8685660D01*
X11460377Y8530102D01*
X11469210Y8512767D01*
X11539025Y8344222D01*
X11545038Y8325715D01*
X11587626Y8148321D01*
X11590670Y8129103D01*
X11605559Y7939926D01*
X11605750Y7935059D01*
X11605750Y-7935059D01*
X11605559Y-7939926D01*
X11590670Y-8129103D01*
X11587626Y-8148321D01*
X11545038Y-8325715D01*
X11539025Y-8344222D01*
X11469210Y-8512767D01*
X11460377Y-8530102D01*
X11365052Y-8685660D01*
X11353614Y-8701403D01*
X11235133Y-8840125D01*
X11221375Y-8853883D01*
X11082653Y-8972364D01*
X11066910Y-8983802D01*
X10911352Y-9079127D01*
X10894017Y-9087960D01*
X10725472Y-9157775D01*
X10706965Y-9163788D01*
X10529571Y-9206376D01*
X10510353Y-9209420D01*
X10321177Y-9224309D01*
X10316310Y-9224500D01*
X-10316310Y-9224500D01*
X-10321177Y-9224309D01*
X-10510353Y-9209420D01*
X-10529571Y-9206376D01*
X-10706965Y-9163788D01*
X-10725472Y-9157775D01*
X-10894017Y-9087960D01*
X-10911352Y-9079127D01*
X-11066910Y-8983802D01*
X-11082653Y-8972364D01*
X-11221375Y-8853883D01*
X-11235133Y-8840125D01*
X-11353614Y-8701403D01*
X-11365052Y-8685660D01*
X-11460377Y-8530102D01*
X-11469210Y-8512767D01*
X-11539025Y-8344222D01*
X-11545038Y-8325715D01*
X-11587626Y-8148321D01*
X-11590670Y-8129103D01*
X-11605559Y-7939926D01*
X-11605750Y-7935059D01*
X-11605750Y-112611D01*
X-10955800Y-112611D01*
X-10936227Y-236183D01*
X-10920569Y-335046D01*
X-10850974Y-549236D01*
X-10748730Y-749902D01*
X-10616353Y-932103D01*
X-10457103Y-1091353D01*
X-10274902Y-1223730D01*
X-10074236Y-1325974D01*
X-9860046Y-1395569D01*
X-9761183Y-1411227D01*
X-9637611Y-1430800D01*
X-9637606Y-1430800D01*
X-7824889Y-1430800D01*
X-7685869Y-1408780D01*
X-7602454Y-1395569D01*
X-7388264Y-1325974D01*
X-7337287Y-1300000D01*
X-6430047Y-1300000D01*
X-6411908Y-1472576D01*
X-6358286Y-1637611D01*
X-6271522Y-1787889D01*
X-6155410Y-1916845D01*
X-6015024Y-2018842D01*
X-5972868Y-2037611D01*
X-5856504Y-2089420D01*
X-5856501Y-2089420D01*
X-5856499Y-2089422D01*
X-5686764Y-2125500D01*
X-5686762Y-2125500D01*
X-5513237Y-2125500D01*
X-5513236Y-2125500D01*
X-5343501Y-2089422D01*
X-5343495Y-2089420D01*
X-5184976Y-2018842D01*
X-5044590Y-1916845D01*
X-4928478Y-1787889D01*
X-4877734Y-1699999D01*
X-4841712Y-1637608D01*
X-4788093Y-1472579D01*
X-4788092Y-1472576D01*
X-4769953Y-1300000D01*
X-4788092Y-1127424D01*
X-4788093Y-1127420D01*
X-4841712Y-962391D01*
X-4885144Y-887165D01*
X-2700935Y-887165D01*
X-2682796Y-1059741D01*
X-2629174Y-1224776D01*
X-2542410Y-1375054D01*
X-2469641Y-1455871D01*
X-2439411Y-1518862D01*
X-2438470Y-1551800D01*
X-2454047Y-1700000D01*
X-2435908Y-1872576D01*
X-2382286Y-2037611D01*
X-2295522Y-2187889D01*
X-2179410Y-2316845D01*
X-2039024Y-2418842D01*
X-1933899Y-2465646D01*
X-1880504Y-2489420D01*
X-1880501Y-2489420D01*
X-1880499Y-2489422D01*
X-1710764Y-2525500D01*
X-1710762Y-2525500D01*
X-1537237Y-2525500D01*
X-1537236Y-2525500D01*
X-1367501Y-2489422D01*
X-1367495Y-2489420D01*
X-1208976Y-2418842D01*
X-1068590Y-2316845D01*
X-952478Y-2187889D01*
X-865714Y-2037611D01*
X-865712Y-2037608D01*
X-812093Y-1872579D01*
X-812092Y-1872576D01*
X-793953Y-1700000D01*
X-812092Y-1527424D01*
X-814874Y-1518862D01*
X-865712Y-1362391D01*
X-952476Y-1212112D01*
X-952481Y-1212105D01*
X-1025247Y-1131290D01*
X-1055476Y-1068298D01*
X-1056417Y-1035357D01*
X-1049060Y-965365D01*
X-310863Y-965365D01*
X-292724Y-1137941D01*
X-239102Y-1302976D01*
X-152338Y-1453254D01*
X-36226Y-1582210D01*
X104160Y-1684206D01*
X104160Y-1684207D01*
X262679Y-1754785D01*
X262685Y-1754787D01*
X432420Y-1790865D01*
X432421Y-1790865D01*
X575949Y-1790865D01*
X642988Y-1810550D01*
X668099Y-1831893D01*
X744590Y-1916845D01*
X884976Y-2018842D01*
X1043495Y-2089420D01*
X1043501Y-2089422D01*
X1213236Y-2125500D01*
X1213237Y-2125500D01*
X1386762Y-2125500D01*
X1386764Y-2125500D01*
X1556499Y-2089422D01*
X1556501Y-2089420D01*
X1556504Y-2089420D01*
X1672868Y-2037611D01*
X1715024Y-2018842D01*
X1855410Y-1916845D01*
X1971522Y-1787889D01*
X2058286Y-1637611D01*
X2111908Y-1472576D01*
X2130047Y-1300000D01*
X2111908Y-1127424D01*
X2058286Y-962389D01*
X1971522Y-812111D01*
X1954125Y-792789D01*
X1855411Y-683156D01*
X1715023Y-581157D01*
X1556504Y-510579D01*
X1556498Y-510577D01*
X1408358Y-479090D01*
X1386764Y-474500D01*
X1243235Y-474500D01*
X1176196Y-454815D01*
X1151085Y-433472D01*
X1074595Y-348521D01*
X1056048Y-335046D01*
X934208Y-246523D01*
X934207Y-246522D01*
X775688Y-175944D01*
X775682Y-175942D01*
X642025Y-147533D01*
X605948Y-139865D01*
X432420Y-139865D01*
X402667Y-146189D01*
X262685Y-175942D01*
X262680Y-175944D01*
X104161Y-246522D01*
X104156Y-246525D01*
X-36224Y-348518D01*
X-36226Y-348520D01*
X-152338Y-477476D01*
X-239102Y-627754D01*
X-292724Y-792789D01*
X-310863Y-965365D01*
X-1049060Y-965365D01*
X-1040841Y-887165D01*
X-1058980Y-714589D01*
X-1058981Y-714585D01*
X-1112600Y-549556D01*
X-1199365Y-399277D01*
X-1199364Y-399277D01*
X-1315476Y-270321D01*
X-1455864Y-168322D01*
X-1580992Y-112611D01*
X6506700Y-112611D01*
X6541930Y-335042D01*
X6541931Y-335046D01*
X6611526Y-549236D01*
X6713770Y-749902D01*
X6846147Y-932103D01*
X7005397Y-1091353D01*
X7187598Y-1223730D01*
X7388264Y-1325974D01*
X7602454Y-1395569D01*
X7685869Y-1408780D01*
X7824889Y-1430800D01*
X7824894Y-1430800D01*
X9637611Y-1430800D01*
X9761183Y-1411227D01*
X9860046Y-1395569D01*
X10074236Y-1325974D01*
X10274902Y-1223730D01*
X10457103Y-1091353D01*
X10616353Y-932103D01*
X10748730Y-749902D01*
X10850974Y-549236D01*
X10920569Y-335046D01*
X10936227Y-236183D01*
X10955800Y-112611D01*
X10955800Y112611D01*
X10933022Y256422D01*
X10920569Y335046D01*
X10850974Y549236D01*
X10748730Y749902D01*
X10616353Y932103D01*
X10457103Y1091353D01*
X10274902Y1223730D01*
X10074236Y1325974D01*
X9860046Y1395569D01*
X9761183Y1411227D01*
X9637611Y1430800D01*
X9637606Y1430800D01*
X9581173Y1430800D01*
X7985095Y1430800D01*
X7937500Y1430800D01*
X7824894Y1430800D01*
X7824889Y1430800D01*
X7685869Y1408780D01*
X7602454Y1395569D01*
X7388264Y1325974D01*
X7187598Y1223730D01*
X7005397Y1091353D01*
X6846147Y932103D01*
X6713770Y749902D01*
X6611526Y549236D01*
X6541931Y335046D01*
X6541930Y335042D01*
X6506700Y112611D01*
X6506700Y-112611D01*
X-1580992Y-112611D01*
X-1614383Y-97744D01*
X-1614389Y-97742D01*
X-1754371Y-67989D01*
X-1784124Y-61665D01*
X-1957652Y-61665D01*
X-1993729Y-69333D01*
X-2127386Y-97742D01*
X-2127391Y-97744D01*
X-2285910Y-168322D01*
X-2285915Y-168325D01*
X-2426296Y-270318D01*
X-2426298Y-270320D01*
X-2542410Y-399276D01*
X-2629174Y-549554D01*
X-2682796Y-714589D01*
X-2700935Y-887165D01*
X-4885144Y-887165D01*
X-4928477Y-812112D01*
X-4928476Y-812112D01*
X-5044588Y-683156D01*
X-5184976Y-581157D01*
X-5343495Y-510579D01*
X-5343501Y-510577D01*
X-5491642Y-479090D01*
X-5513236Y-474500D01*
X-5686764Y-474500D01*
X-5708358Y-479090D01*
X-5856498Y-510577D01*
X-5856503Y-510579D01*
X-6015022Y-581157D01*
X-6015027Y-581160D01*
X-6155408Y-683153D01*
X-6155410Y-683155D01*
X-6271522Y-812111D01*
X-6358286Y-962389D01*
X-6411908Y-1127424D01*
X-6430047Y-1300000D01*
X-7337287Y-1300000D01*
X-7187598Y-1223730D01*
X-7005397Y-1091353D01*
X-6846147Y-932103D01*
X-6713770Y-749902D01*
X-6611526Y-549236D01*
X-6541931Y-335046D01*
X-6541930Y-335042D01*
X-6506700Y-112611D01*
X-6506700Y112611D01*
X-6541930Y335042D01*
X-6541931Y335046D01*
X-6611526Y549236D01*
X-6713770Y749902D01*
X-6846147Y932103D01*
X-7005397Y1091353D01*
X-7187598Y1223730D01*
X-7388264Y1325974D01*
X-7602454Y1395569D01*
X-7685869Y1408780D01*
X-7824889Y1430800D01*
X-7824894Y1430800D01*
X-7881327Y1430800D01*
X-9477405Y1430800D01*
X-9525000Y1430800D01*
X-9637606Y1430800D01*
X-9637611Y1430800D01*
X-9761183Y1411227D01*
X-9860046Y1395569D01*
X-10074236Y1325974D01*
X-10274902Y1223730D01*
X-10457103Y1091353D01*
X-10616353Y932103D01*
X-10748730Y749902D01*
X-10850974Y549236D01*
X-10920569Y335046D01*
X-10933022Y256422D01*
X-10955800Y112611D01*
X-10955800Y-112611D01*
X-11605750Y-112611D01*
X-11605750Y2134051D01*
X-2779171Y2134051D01*
X-2761032Y1961475D01*
X-2732773Y1874500D01*
X-2710679Y1806499D01*
X-2707410Y1796440D01*
X-2620647Y1646163D01*
X-2504535Y1517207D01*
X-2364147Y1415208D01*
X-2205628Y1344630D01*
X-2205622Y1344628D01*
X-2071964Y1316219D01*
X-2035888Y1308551D01*
X-2035887Y1308551D01*
X-1862361Y1308551D01*
X-1862360Y1308551D01*
X-1832607Y1314875D01*
X-1692625Y1344628D01*
X-1692619Y1344630D01*
X-1635586Y1370023D01*
X532133Y1370023D01*
X550272Y1197447D01*
X550272Y1197444D01*
X550273Y1197443D01*
X603892Y1032414D01*
X690657Y882135D01*
X690656Y882135D01*
X806768Y753179D01*
X947156Y651180D01*
X1105675Y580602D01*
X1105681Y580600D01*
X1245663Y550847D01*
X1275416Y544523D01*
X1275417Y544523D01*
X1448943Y544523D01*
X1448944Y544523D01*
X1485021Y552191D01*
X1618678Y580600D01*
X1618684Y580602D01*
X1777203Y651180D01*
X1917591Y753179D01*
X1929155Y766023D01*
X2033702Y882134D01*
X2120466Y1032412D01*
X2174088Y1197447D01*
X2192227Y1370023D01*
X2174088Y1542599D01*
X2120466Y1707634D01*
X2067138Y1800000D01*
X3774455Y1800000D01*
X3792594Y1627424D01*
X3792594Y1627421D01*
X3792595Y1627420D01*
X3846214Y1462391D01*
X3932979Y1312112D01*
X3932978Y1312112D01*
X4049090Y1183156D01*
X4189478Y1081157D01*
X4347997Y1010579D01*
X4348003Y1010577D01*
X4487985Y980824D01*
X4517738Y974500D01*
X4517739Y974500D01*
X4691265Y974500D01*
X4691266Y974500D01*
X4727343Y982168D01*
X4861000Y1010577D01*
X4861006Y1010579D01*
X5019525Y1081157D01*
X5159913Y1183156D01*
X5196446Y1223730D01*
X5276024Y1312111D01*
X5362788Y1462389D01*
X5416410Y1627424D01*
X5434549Y1800000D01*
X5434549Y1800003D01*
X5434549Y1806499D01*
X5435739Y1806499D01*
X5447107Y1868718D01*
X5494831Y1919750D01*
X5562568Y1936879D01*
X5608301Y1926249D01*
X5643499Y1910578D01*
X5643501Y1910577D01*
X5783483Y1880824D01*
X5813236Y1874500D01*
X5813237Y1874500D01*
X5986763Y1874500D01*
X5986764Y1874500D01*
X6022841Y1882168D01*
X6156498Y1910577D01*
X6156504Y1910579D01*
X6315023Y1981157D01*
X6455411Y2083156D01*
X6466975Y2096000D01*
X6571522Y2212111D01*
X6658286Y2362389D01*
X6711908Y2527424D01*
X6730047Y2700000D01*
X6711908Y2872576D01*
X6658286Y3037611D01*
X6571522Y3187889D01*
X6455410Y3316845D01*
X6315024Y3418842D01*
X6209899Y3465646D01*
X6156504Y3489420D01*
X6156501Y3489420D01*
X6156499Y3489422D01*
X5986764Y3525500D01*
X5813236Y3525500D01*
X5643501Y3489422D01*
X5643496Y3489420D01*
X5484977Y3418842D01*
X5484972Y3418839D01*
X5344591Y3316846D01*
X5344590Y3316845D01*
X5228478Y3187889D01*
X5228477Y3187887D01*
X5141712Y3037608D01*
X5116351Y2959551D01*
X5088092Y2872576D01*
X5069953Y2700000D01*
X5069953Y2699999D01*
X5069954Y2699992D01*
X5069953Y2699986D01*
X5069953Y2693501D01*
X5068767Y2693501D01*
X5057384Y2631262D01*
X5009652Y2580239D01*
X4941912Y2563121D01*
X4896197Y2573752D01*
X4861006Y2589420D01*
X4861003Y2589420D01*
X4861001Y2589422D01*
X4691266Y2625500D01*
X4517738Y2625500D01*
X4348002Y2589422D01*
X4348003Y2589422D01*
X4347998Y2589420D01*
X4189479Y2518842D01*
X4189474Y2518839D01*
X4096073Y2450979D01*
X4049092Y2416845D01*
X3932980Y2287889D01*
X3932979Y2287887D01*
X3846214Y2137608D01*
X3797238Y1986869D01*
X3792594Y1972576D01*
X3774455Y1800000D01*
X2067138Y1800000D01*
X2033702Y1857912D01*
X1917590Y1986868D01*
X1777204Y2088865D01*
X1667719Y2137611D01*
X1618684Y2159443D01*
X1618681Y2159443D01*
X1618679Y2159445D01*
X1448944Y2195523D01*
X1275416Y2195523D01*
X1105681Y2159445D01*
X1105676Y2159443D01*
X947157Y2088865D01*
X947152Y2088862D01*
X806771Y1986869D01*
X806770Y1986868D01*
X690658Y1857912D01*
X690657Y1857910D01*
X603892Y1707631D01*
X577831Y1627420D01*
X550272Y1542599D01*
X532133Y1370023D01*
X-1635586Y1370023D01*
X-1534100Y1415208D01*
X-1393712Y1517207D01*
X-1277601Y1646163D01*
X-1190836Y1796442D01*
X-1137217Y1961471D01*
X-1137216Y1961472D01*
X-1137216Y1961475D01*
X-1119077Y2134051D01*
X-1137216Y2306627D01*
X-1138506Y2310598D01*
X-1190836Y2471659D01*
X-1277601Y2621938D01*
X-1277600Y2621938D01*
X-1393712Y2750894D01*
X-1393713Y2750895D01*
X-1393714Y2750896D01*
X-1534100Y2852893D01*
X-1692619Y2923471D01*
X-1692625Y2923473D01*
X-1862360Y2959551D01*
X-2035888Y2959551D01*
X-2205623Y2923473D01*
X-2364147Y2852893D01*
X-2504534Y2750896D01*
X-2620646Y2621940D01*
X-2707410Y2471662D01*
X-2761032Y2306627D01*
X-2779171Y2134051D01*
X-11605750Y2134051D01*
X-11605750Y5048341D01*
X-7423002Y5048341D01*
X-7404863Y4875765D01*
X-7351241Y4710730D01*
X-7264478Y4560453D01*
X-7148366Y4431497D01*
X-7007978Y4329498D01*
X-6849459Y4258920D01*
X-6849453Y4258918D01*
X-6715795Y4230509D01*
X-6679719Y4222841D01*
X-6679718Y4222841D01*
X-6506192Y4222841D01*
X-6506191Y4222841D01*
X-6476438Y4229165D01*
X-6336456Y4258918D01*
X-6336450Y4258920D01*
X-6177931Y4329498D01*
X-6037543Y4431497D01*
X-5921432Y4560453D01*
X-5834667Y4710732D01*
X-5781048Y4875761D01*
X-5781047Y4875762D01*
X-5781047Y4875765D01*
X-5762908Y5048341D01*
X-5781047Y5220917D01*
X-5815652Y5327424D01*
X-5834667Y5385949D01*
X-5900515Y5500000D01*
X3769953Y5500000D01*
X3788092Y5327424D01*
X3788092Y5327421D01*
X3788093Y5327420D01*
X3841712Y5162391D01*
X3928477Y5012112D01*
X3928476Y5012112D01*
X4044588Y4883156D01*
X4184976Y4781157D01*
X4343495Y4710579D01*
X4343501Y4710577D01*
X4483483Y4680824D01*
X4513236Y4674500D01*
X4513237Y4674500D01*
X4686763Y4674500D01*
X4686764Y4674500D01*
X4722841Y4682168D01*
X4856498Y4710577D01*
X4856504Y4710579D01*
X5015023Y4781157D01*
X5145233Y4875761D01*
X5155410Y4883155D01*
X5271522Y5012111D01*
X5358286Y5162389D01*
X5411908Y5327424D01*
X5430047Y5500000D01*
X5411908Y5672576D01*
X5358286Y5837611D01*
X5271522Y5987889D01*
X5155410Y6116845D01*
X5015024Y6218842D01*
X4909899Y6265646D01*
X4856504Y6289420D01*
X4856501Y6289420D01*
X4856499Y6289422D01*
X4686764Y6325500D01*
X4513236Y6325500D01*
X4343501Y6289422D01*
X4343496Y6289420D01*
X4184977Y6218842D01*
X4184972Y6218839D01*
X4044591Y6116846D01*
X4044590Y6116845D01*
X3928478Y5987889D01*
X3928477Y5987887D01*
X3841712Y5837608D01*
X3789382Y5676547D01*
X3788092Y5672576D01*
X3769953Y5500000D01*
X-5900515Y5500000D01*
X-5921432Y5536228D01*
X-5921431Y5536228D01*
X-6037543Y5665184D01*
X-6037544Y5665185D01*
X-6037545Y5665186D01*
X-6177931Y5767183D01*
X-6336450Y5837761D01*
X-6336456Y5837763D01*
X-6506191Y5873841D01*
X-6679719Y5873841D01*
X-6849454Y5837763D01*
X-7007978Y5767183D01*
X-7148365Y5665186D01*
X-7264477Y5536230D01*
X-7351241Y5385952D01*
X-7404863Y5220917D01*
X-7423002Y5048341D01*
X-11605750Y5048341D01*
X-11605750Y7700000D01*
X-5630047Y7700000D01*
X-5611908Y7527424D01*
X-5558286Y7362389D01*
X-5471523Y7212112D01*
X-5355411Y7083156D01*
X-5215023Y6981157D01*
X-5056504Y6910579D01*
X-5056498Y6910577D01*
X-4922841Y6882168D01*
X-4886764Y6874500D01*
X-4886763Y6874500D01*
X-4713237Y6874500D01*
X-4713236Y6874500D01*
X-4683483Y6880824D01*
X-4543501Y6910577D01*
X-4543495Y6910579D01*
X-4384976Y6981157D01*
X-4244588Y7083156D01*
X-4128477Y7212112D01*
X-4077734Y7300000D01*
X2419953Y7300000D01*
X2438092Y7127424D01*
X2438092Y7127421D01*
X2438093Y7127420D01*
X2491712Y6962391D01*
X2578477Y6812112D01*
X2578476Y6812112D01*
X2694588Y6683156D01*
X2834976Y6581157D01*
X2993495Y6510579D01*
X2993501Y6510577D01*
X3133483Y6480824D01*
X3163236Y6474500D01*
X3163237Y6474500D01*
X3336763Y6474500D01*
X3336764Y6474500D01*
X3372841Y6482168D01*
X3506498Y6510577D01*
X3506504Y6510579D01*
X3665023Y6581157D01*
X3805411Y6683156D01*
X3816975Y6696000D01*
X3921522Y6812111D01*
X4008286Y6962389D01*
X4014385Y6981158D01*
X4047524Y7083155D01*
X4061908Y7127424D01*
X4080047Y7300000D01*
X4061908Y7472576D01*
X4008286Y7637611D01*
X3921522Y7787889D01*
X3805410Y7916845D01*
X3665024Y8018842D01*
X3559899Y8065646D01*
X3506504Y8089420D01*
X3506501Y8089420D01*
X3506499Y8089422D01*
X3336764Y8125500D01*
X3163236Y8125500D01*
X2993501Y8089422D01*
X2993496Y8089420D01*
X2834977Y8018842D01*
X2834972Y8018839D01*
X2761343Y7965344D01*
X2694590Y7916845D01*
X2578478Y7787889D01*
X2578477Y7787887D01*
X2491712Y7637608D01*
X2439382Y7476547D01*
X2438092Y7472576D01*
X2419953Y7300000D01*
X-4077734Y7300000D01*
X-4041712Y7362391D01*
X-3988093Y7527420D01*
X-3988092Y7527421D01*
X-3988092Y7527424D01*
X-3969953Y7700000D01*
X-3988092Y7872576D01*
X-4002475Y7916844D01*
X-4041712Y8037608D01*
X-4128477Y8187887D01*
X-4128476Y8187887D01*
X-4244588Y8316843D01*
X-4244589Y8316844D01*
X-4244590Y8316845D01*
X-4384976Y8418842D01*
X-4404251Y8427424D01*
X-4543495Y8489420D01*
X-4543501Y8489422D01*
X-4713236Y8525500D01*
X-4886764Y8525500D01*
X-5056499Y8489422D01*
X-5215023Y8418842D01*
X-5355410Y8316845D01*
X-5471522Y8187889D01*
X-5558286Y8037611D01*
X-5611908Y7872576D01*
X-5630047Y7700000D01*
X-11605750Y7700000D01*
X-11605750Y7935059D01*
X-11605559Y7939926D01*
X-11590670Y8129103D01*
X-11587626Y8148321D01*
X-11545038Y8325715D01*
X-11539025Y8344222D01*
X-11469210Y8512767D01*
X-11460377Y8530102D01*
X-11365052Y8685660D01*
X-11353614Y8701403D01*
X-11235133Y8840125D01*
X-11221375Y8853883D01*
X-11082653Y8972364D01*
X-11066910Y8983802D01*
X-10911352Y9079127D01*
X-10894017Y9087960D01*
X-10725472Y9157775D01*
X-10706965Y9163788D01*
X-10529571Y9206376D01*
X-10510353Y9209420D01*
X-10321177Y9224309D01*
X-10316310Y9224500D01*
X-10271155Y9224500D01*
X-2607424Y9224500D01*
X-2540385Y9204815D01*
G37*
%TD.AperFunction*%
%TD*%
M02*
