%TF.GenerationSoftware,KiCad,Pcbnew,7.0.6*%
%TF.CreationDate,2024-05-23T09:50:57-04:00*%
%TF.ProjectId,ActiveImpactor_Control,41637469-7665-4496-9d70-6163746f725f,rev?*%
%TF.SameCoordinates,Original*%
%TF.FileFunction,Soldermask,Bot*%
%TF.FilePolarity,Negative*%
%FSLAX46Y46*%
G04 Gerber Fmt 4.6, Leading zero omitted, Abs format (unit mm)*
G04 Created by KiCad (PCBNEW 7.0.6) date 2024-05-23 09:50:57*
%MOMM*%
%LPD*%
G01*
G04 APERTURE LIST*
G04 APERTURE END LIST*
G36*
X-13817798Y-41682765D02*
G01*
X-13741381Y-41682765D01*
X-13658984Y-41693173D01*
X-13580500Y-41698318D01*
X-13514773Y-41711391D01*
X-13445477Y-41720146D01*
X-13358518Y-41742473D01*
X-13275805Y-41758926D01*
X-13217950Y-41778564D01*
X-13156612Y-41794314D01*
X-13066792Y-41829876D01*
X-12981627Y-41858786D01*
X-12932153Y-41883183D01*
X-12879305Y-41904108D01*
X-12788545Y-41954003D01*
X-12703000Y-41996190D01*
X-12662107Y-42023513D01*
X-12617956Y-42047786D01*
X-12528365Y-42112876D01*
X-12444692Y-42168786D01*
X-12412229Y-42197254D01*
X-12376666Y-42223093D01*
X-12290501Y-42304006D01*
X-12211121Y-42373621D01*
X-12186628Y-42401549D01*
X-12159257Y-42427253D01*
X-12078865Y-42524430D01*
X-12006286Y-42607192D01*
X-11989007Y-42633050D01*
X-11969149Y-42657056D01*
X-11896923Y-42770864D01*
X-11833690Y-42865500D01*
X-11822621Y-42887945D01*
X-11809340Y-42908873D01*
X-11747654Y-43039962D01*
X-11696286Y-43144127D01*
X-11690194Y-43162071D01*
X-11682353Y-43178736D01*
X-11633509Y-43329059D01*
X-11596426Y-43438305D01*
X-11593919Y-43450905D01*
X-11590191Y-43462381D01*
X-11556357Y-43639743D01*
X-11535818Y-43743000D01*
X-11535377Y-43749722D01*
X-11534306Y-43755339D01*
X-11517470Y-44022940D01*
X-11515500Y-44053000D01*
X-11517470Y-44083062D01*
X-11534306Y-44350660D01*
X-11535377Y-44356275D01*
X-11535818Y-44363000D01*
X-11556361Y-44466279D01*
X-11590191Y-44643618D01*
X-11593919Y-44655091D01*
X-11596426Y-44667695D01*
X-11633517Y-44776962D01*
X-11682353Y-44927263D01*
X-11690193Y-44943924D01*
X-11696286Y-44961873D01*
X-11747664Y-45066058D01*
X-11809340Y-45197126D01*
X-11822618Y-45218049D01*
X-11833690Y-45240500D01*
X-11896935Y-45335153D01*
X-11969149Y-45448943D01*
X-11989004Y-45472944D01*
X-12006286Y-45498808D01*
X-12078880Y-45581586D01*
X-12159257Y-45678746D01*
X-12186623Y-45704444D01*
X-12211121Y-45732379D01*
X-12290517Y-45802007D01*
X-12376666Y-45882906D01*
X-12412222Y-45908739D01*
X-12444692Y-45937214D01*
X-12528383Y-45993134D01*
X-12617956Y-46058213D01*
X-12662099Y-46082481D01*
X-12703000Y-46109810D01*
X-12788563Y-46152005D01*
X-12879305Y-46201891D01*
X-12932142Y-46222811D01*
X-12981627Y-46247214D01*
X-13066809Y-46276129D01*
X-13156612Y-46311685D01*
X-13217938Y-46327431D01*
X-13275805Y-46347074D01*
X-13358536Y-46363530D01*
X-13445477Y-46385853D01*
X-13514762Y-46394605D01*
X-13580500Y-46407682D01*
X-13658989Y-46412826D01*
X-13741381Y-46423235D01*
X-13817798Y-46423235D01*
X-13890500Y-46428000D01*
X-13963202Y-46423235D01*
X-14039619Y-46423235D01*
X-14122009Y-46412826D01*
X-14200500Y-46407682D01*
X-14266238Y-46394605D01*
X-14335522Y-46385853D01*
X-14422459Y-46363531D01*
X-14505195Y-46347074D01*
X-14563064Y-46327429D01*
X-14624387Y-46311685D01*
X-14714183Y-46276132D01*
X-14799373Y-46247214D01*
X-14848861Y-46222809D01*
X-14901694Y-46201891D01*
X-14992427Y-46152010D01*
X-15078000Y-46109810D01*
X-15118905Y-46082477D01*
X-15163043Y-46058213D01*
X-15252604Y-45993142D01*
X-15336308Y-45937214D01*
X-15368781Y-45908735D01*
X-15404333Y-45882906D01*
X-15490467Y-45802020D01*
X-15569879Y-45732379D01*
X-15594381Y-45704439D01*
X-15621742Y-45678746D01*
X-15702102Y-45581606D01*
X-15774714Y-45498808D01*
X-15791999Y-45472937D01*
X-15811850Y-45448943D01*
X-15884044Y-45335183D01*
X-15947310Y-45240500D01*
X-15958384Y-45218042D01*
X-15971659Y-45197126D01*
X-16033313Y-45066103D01*
X-16084714Y-44961873D01*
X-16090809Y-44943917D01*
X-16098646Y-44927263D01*
X-16147459Y-44777031D01*
X-16184574Y-44667695D01*
X-16187082Y-44655083D01*
X-16190808Y-44643618D01*
X-16224613Y-44466402D01*
X-16245182Y-44363000D01*
X-16245623Y-44356267D01*
X-16246693Y-44350660D01*
X-16263503Y-44083464D01*
X-16265500Y-44053000D01*
X-16263506Y-44022581D01*
X-16246693Y-43755339D01*
X-16245623Y-43749730D01*
X-16245182Y-43743000D01*
X-16224618Y-43639620D01*
X-16190808Y-43462381D01*
X-16187082Y-43450913D01*
X-16184574Y-43438305D01*
X-16147466Y-43328991D01*
X-16098646Y-43178736D01*
X-16090807Y-43162079D01*
X-16084714Y-43144127D01*
X-16033323Y-43039917D01*
X-15971659Y-42908873D01*
X-15958382Y-42887952D01*
X-15947310Y-42865500D01*
X-15884056Y-42770835D01*
X-15811850Y-42657056D01*
X-15791996Y-42633056D01*
X-15774714Y-42607192D01*
X-15702116Y-42524410D01*
X-15621742Y-42427253D01*
X-15594376Y-42401554D01*
X-15569879Y-42373621D01*
X-15490483Y-42303993D01*
X-15404333Y-42223093D01*
X-15368775Y-42197258D01*
X-15336308Y-42168786D01*
X-15252621Y-42112868D01*
X-15163043Y-42047786D01*
X-15118896Y-42023516D01*
X-15078000Y-41996190D01*
X-14992444Y-41953998D01*
X-14901694Y-41904108D01*
X-14848850Y-41883185D01*
X-14799373Y-41858786D01*
X-14714200Y-41829873D01*
X-14624387Y-41794314D01*
X-14563052Y-41778565D01*
X-14505195Y-41758926D01*
X-14422476Y-41742472D01*
X-14335522Y-41720146D01*
X-14266227Y-41711392D01*
X-14200500Y-41698318D01*
X-14122014Y-41693173D01*
X-14039619Y-41682765D01*
X-13963202Y-41682765D01*
X-13890500Y-41678000D01*
X-13817798Y-41682765D01*
G37*
G36*
X13963202Y-41682765D02*
G01*
X14039619Y-41682765D01*
X14122014Y-41693173D01*
X14200500Y-41698318D01*
X14266227Y-41711392D01*
X14335522Y-41720146D01*
X14422476Y-41742472D01*
X14505195Y-41758926D01*
X14563052Y-41778565D01*
X14624387Y-41794314D01*
X14714200Y-41829873D01*
X14799373Y-41858786D01*
X14848850Y-41883185D01*
X14901694Y-41904108D01*
X14992444Y-41953998D01*
X15078000Y-41996190D01*
X15118896Y-42023516D01*
X15163043Y-42047786D01*
X15252621Y-42112868D01*
X15336308Y-42168786D01*
X15368775Y-42197258D01*
X15404333Y-42223093D01*
X15490483Y-42303993D01*
X15569879Y-42373621D01*
X15594376Y-42401554D01*
X15621742Y-42427253D01*
X15702116Y-42524410D01*
X15774714Y-42607192D01*
X15791996Y-42633056D01*
X15811850Y-42657056D01*
X15884056Y-42770835D01*
X15947310Y-42865500D01*
X15958382Y-42887952D01*
X15971659Y-42908873D01*
X16033323Y-43039917D01*
X16084714Y-43144127D01*
X16090807Y-43162079D01*
X16098646Y-43178736D01*
X16147466Y-43328991D01*
X16184574Y-43438305D01*
X16187082Y-43450913D01*
X16190808Y-43462381D01*
X16224618Y-43639620D01*
X16245182Y-43743000D01*
X16245623Y-43749730D01*
X16246693Y-43755339D01*
X16263506Y-44022581D01*
X16265500Y-44053000D01*
X16263503Y-44083464D01*
X16246693Y-44350660D01*
X16245623Y-44356267D01*
X16245182Y-44363000D01*
X16224613Y-44466402D01*
X16190808Y-44643618D01*
X16187082Y-44655083D01*
X16184574Y-44667695D01*
X16147459Y-44777031D01*
X16098646Y-44927263D01*
X16090809Y-44943917D01*
X16084714Y-44961873D01*
X16033313Y-45066103D01*
X15971659Y-45197126D01*
X15958384Y-45218042D01*
X15947310Y-45240500D01*
X15884044Y-45335183D01*
X15811850Y-45448943D01*
X15791999Y-45472937D01*
X15774714Y-45498808D01*
X15702102Y-45581606D01*
X15621742Y-45678746D01*
X15594381Y-45704439D01*
X15569879Y-45732379D01*
X15490467Y-45802020D01*
X15404333Y-45882906D01*
X15368781Y-45908735D01*
X15336308Y-45937214D01*
X15252604Y-45993142D01*
X15163043Y-46058213D01*
X15118905Y-46082477D01*
X15078000Y-46109810D01*
X14992427Y-46152010D01*
X14901694Y-46201891D01*
X14848861Y-46222809D01*
X14799373Y-46247214D01*
X14714183Y-46276132D01*
X14624387Y-46311685D01*
X14563064Y-46327429D01*
X14505195Y-46347074D01*
X14422459Y-46363531D01*
X14335522Y-46385853D01*
X14266238Y-46394605D01*
X14200500Y-46407682D01*
X14122009Y-46412826D01*
X14039619Y-46423235D01*
X13963202Y-46423235D01*
X13890500Y-46428000D01*
X13817798Y-46423235D01*
X13741381Y-46423235D01*
X13658989Y-46412826D01*
X13580500Y-46407682D01*
X13514762Y-46394605D01*
X13445477Y-46385853D01*
X13358536Y-46363530D01*
X13275805Y-46347074D01*
X13217938Y-46327431D01*
X13156612Y-46311685D01*
X13066809Y-46276129D01*
X12981627Y-46247214D01*
X12932142Y-46222811D01*
X12879305Y-46201891D01*
X12788563Y-46152005D01*
X12703000Y-46109810D01*
X12662099Y-46082481D01*
X12617956Y-46058213D01*
X12528383Y-45993134D01*
X12444692Y-45937214D01*
X12412222Y-45908739D01*
X12376666Y-45882906D01*
X12290517Y-45802007D01*
X12211121Y-45732379D01*
X12186623Y-45704444D01*
X12159257Y-45678746D01*
X12078880Y-45581586D01*
X12006286Y-45498808D01*
X11989004Y-45472944D01*
X11969149Y-45448943D01*
X11896935Y-45335153D01*
X11833690Y-45240500D01*
X11822618Y-45218049D01*
X11809340Y-45197126D01*
X11747664Y-45066058D01*
X11696286Y-44961873D01*
X11690193Y-44943924D01*
X11682353Y-44927263D01*
X11633517Y-44776962D01*
X11596426Y-44667695D01*
X11593919Y-44655091D01*
X11590191Y-44643618D01*
X11556361Y-44466279D01*
X11535818Y-44363000D01*
X11535377Y-44356275D01*
X11534306Y-44350660D01*
X11517470Y-44083062D01*
X11515500Y-44053000D01*
X11517470Y-44022940D01*
X11534306Y-43755339D01*
X11535377Y-43749722D01*
X11535818Y-43743000D01*
X11556357Y-43639743D01*
X11590191Y-43462381D01*
X11593919Y-43450905D01*
X11596426Y-43438305D01*
X11633509Y-43329059D01*
X11682353Y-43178736D01*
X11690194Y-43162071D01*
X11696286Y-43144127D01*
X11747654Y-43039962D01*
X11809340Y-42908873D01*
X11822621Y-42887945D01*
X11833690Y-42865500D01*
X11896923Y-42770864D01*
X11969149Y-42657056D01*
X11989007Y-42633050D01*
X12006286Y-42607192D01*
X12078865Y-42524430D01*
X12159257Y-42427253D01*
X12186628Y-42401549D01*
X12211121Y-42373621D01*
X12290501Y-42304006D01*
X12376666Y-42223093D01*
X12412229Y-42197254D01*
X12444692Y-42168786D01*
X12528365Y-42112876D01*
X12617956Y-42047786D01*
X12662107Y-42023513D01*
X12703000Y-41996190D01*
X12788545Y-41954003D01*
X12879305Y-41904108D01*
X12932153Y-41883183D01*
X12981627Y-41858786D01*
X13066792Y-41829876D01*
X13156612Y-41794314D01*
X13217950Y-41778564D01*
X13275805Y-41758926D01*
X13358518Y-41742473D01*
X13445477Y-41720146D01*
X13514773Y-41711391D01*
X13580500Y-41698318D01*
X13658984Y-41693173D01*
X13741381Y-41682765D01*
X13817798Y-41682765D01*
X13890500Y-41678000D01*
X13963202Y-41682765D01*
G37*
G36*
X-8946770Y-39200642D02*
G01*
X-8894227Y-39206738D01*
X-8876274Y-39214664D01*
X-8854329Y-39219030D01*
X-8830835Y-39234728D01*
X-8809109Y-39244321D01*
X-8794270Y-39259159D01*
X-8773223Y-39273223D01*
X-8759159Y-39294270D01*
X-8744321Y-39309109D01*
X-8734727Y-39330835D01*
X-8719030Y-39354329D01*
X-8714665Y-39376273D01*
X-8706739Y-39394224D01*
X-8700644Y-39446759D01*
X-8700000Y-39450000D01*
X-8700000Y-40750000D01*
X-8700642Y-40753231D01*
X-8706738Y-40805772D01*
X-8714664Y-40823723D01*
X-8719030Y-40845671D01*
X-8734729Y-40869166D01*
X-8744321Y-40890890D01*
X-8759157Y-40905726D01*
X-8773223Y-40926777D01*
X-8794273Y-40940842D01*
X-8809109Y-40955678D01*
X-8830830Y-40965269D01*
X-8854329Y-40980970D01*
X-8876277Y-40985335D01*
X-8894224Y-40993260D01*
X-8946747Y-40999352D01*
X-8950000Y-41000000D01*
X-9650000Y-41000000D01*
X-9653243Y-40999354D01*
X-9705772Y-40993261D01*
X-9723719Y-40985336D01*
X-9745671Y-40980970D01*
X-9769171Y-40965267D01*
X-9790890Y-40955678D01*
X-9805723Y-40940844D01*
X-9826777Y-40926777D01*
X-9840844Y-40905723D01*
X-9855678Y-40890890D01*
X-9865267Y-40869170D01*
X-9880970Y-40845671D01*
X-9885336Y-40823720D01*
X-9893260Y-40805775D01*
X-9899352Y-40753254D01*
X-9900000Y-40750000D01*
X-9900000Y-39450000D01*
X-9899355Y-39446758D01*
X-9893261Y-39394227D01*
X-9885335Y-39376278D01*
X-9880970Y-39354329D01*
X-9865268Y-39330830D01*
X-9855678Y-39309109D01*
X-9840842Y-39294273D01*
X-9826777Y-39273223D01*
X-9805726Y-39259157D01*
X-9790890Y-39244321D01*
X-9769166Y-39234729D01*
X-9745671Y-39219030D01*
X-9723724Y-39214664D01*
X-9705775Y-39206739D01*
X-9653242Y-39200644D01*
X-9650000Y-39200000D01*
X-8950000Y-39200000D01*
X-8946770Y-39200642D01*
G37*
G36*
X-346770Y-39200642D02*
G01*
X-294227Y-39206738D01*
X-276274Y-39214664D01*
X-254329Y-39219030D01*
X-230835Y-39234728D01*
X-209109Y-39244321D01*
X-194270Y-39259159D01*
X-173223Y-39273223D01*
X-159159Y-39294270D01*
X-144321Y-39309109D01*
X-134727Y-39330835D01*
X-119030Y-39354329D01*
X-114665Y-39376273D01*
X-106739Y-39394224D01*
X-100644Y-39446759D01*
X-100000Y-39450000D01*
X-100000Y-40750000D01*
X-100642Y-40753231D01*
X-106738Y-40805772D01*
X-114664Y-40823723D01*
X-119030Y-40845671D01*
X-134729Y-40869166D01*
X-144321Y-40890890D01*
X-159157Y-40905726D01*
X-173223Y-40926777D01*
X-194273Y-40940842D01*
X-209109Y-40955678D01*
X-230830Y-40965269D01*
X-254329Y-40980970D01*
X-276277Y-40985335D01*
X-294224Y-40993260D01*
X-346747Y-40999352D01*
X-350000Y-41000000D01*
X-1050000Y-41000000D01*
X-1053243Y-40999354D01*
X-1105772Y-40993261D01*
X-1123719Y-40985336D01*
X-1145671Y-40980970D01*
X-1169171Y-40965267D01*
X-1190890Y-40955678D01*
X-1205723Y-40940844D01*
X-1226777Y-40926777D01*
X-1240844Y-40905723D01*
X-1255678Y-40890890D01*
X-1265267Y-40869170D01*
X-1280970Y-40845671D01*
X-1285336Y-40823720D01*
X-1293260Y-40805775D01*
X-1299352Y-40753254D01*
X-1300000Y-40750000D01*
X-1300000Y-39450000D01*
X-1299355Y-39446758D01*
X-1293261Y-39394227D01*
X-1285335Y-39376278D01*
X-1280970Y-39354329D01*
X-1265268Y-39330830D01*
X-1255678Y-39309109D01*
X-1240842Y-39294273D01*
X-1226777Y-39273223D01*
X-1205726Y-39259157D01*
X-1190890Y-39244321D01*
X-1169166Y-39234729D01*
X-1145671Y-39219030D01*
X-1123724Y-39214664D01*
X-1105775Y-39206739D01*
X-1053242Y-39200644D01*
X-1050000Y-39200000D01*
X-350000Y-39200000D01*
X-346770Y-39200642D01*
G37*
G36*
X2853231Y-36950642D02*
G01*
X2905772Y-36956738D01*
X2923723Y-36964664D01*
X2945671Y-36969030D01*
X2969166Y-36984729D01*
X2990890Y-36994321D01*
X3005726Y-37009157D01*
X3026777Y-37023223D01*
X3040842Y-37044273D01*
X3055678Y-37059109D01*
X3065269Y-37080830D01*
X3080970Y-37104329D01*
X3085335Y-37126277D01*
X3093260Y-37144224D01*
X3099352Y-37196747D01*
X3100000Y-37200000D01*
X3100000Y-39700000D01*
X3099354Y-39703243D01*
X3093261Y-39755772D01*
X3085336Y-39773719D01*
X3080970Y-39795671D01*
X3065267Y-39819171D01*
X3055678Y-39840890D01*
X3040844Y-39855723D01*
X3026777Y-39876777D01*
X3005723Y-39890844D01*
X2990890Y-39905678D01*
X2969170Y-39915267D01*
X2945671Y-39930970D01*
X2923720Y-39935336D01*
X2905775Y-39943260D01*
X2853254Y-39949352D01*
X2850000Y-39950000D01*
X1750000Y-39950000D01*
X1746758Y-39949355D01*
X1694227Y-39943261D01*
X1676278Y-39935335D01*
X1654329Y-39930970D01*
X1630830Y-39915268D01*
X1609109Y-39905678D01*
X1594273Y-39890842D01*
X1573223Y-39876777D01*
X1559157Y-39855726D01*
X1544321Y-39840890D01*
X1534729Y-39819166D01*
X1519030Y-39795671D01*
X1514664Y-39773724D01*
X1506739Y-39755775D01*
X1500644Y-39703242D01*
X1500000Y-39700000D01*
X1500000Y-37200000D01*
X1500642Y-37196770D01*
X1506738Y-37144227D01*
X1514664Y-37126274D01*
X1519030Y-37104329D01*
X1534728Y-37080835D01*
X1544321Y-37059109D01*
X1559159Y-37044270D01*
X1573223Y-37023223D01*
X1594270Y-37009159D01*
X1609109Y-36994321D01*
X1630835Y-36984727D01*
X1654329Y-36969030D01*
X1676273Y-36964665D01*
X1694224Y-36956739D01*
X1746759Y-36950644D01*
X1750000Y-36950000D01*
X2850000Y-36950000D01*
X2853231Y-36950642D01*
G37*
G36*
X9653231Y-36950642D02*
G01*
X9705772Y-36956738D01*
X9723723Y-36964664D01*
X9745671Y-36969030D01*
X9769166Y-36984729D01*
X9790890Y-36994321D01*
X9805726Y-37009157D01*
X9826777Y-37023223D01*
X9840842Y-37044273D01*
X9855678Y-37059109D01*
X9865269Y-37080830D01*
X9880970Y-37104329D01*
X9885335Y-37126277D01*
X9893260Y-37144224D01*
X9899352Y-37196747D01*
X9900000Y-37200000D01*
X9900000Y-39700000D01*
X9899354Y-39703243D01*
X9893261Y-39755772D01*
X9885336Y-39773719D01*
X9880970Y-39795671D01*
X9865267Y-39819171D01*
X9855678Y-39840890D01*
X9840844Y-39855723D01*
X9826777Y-39876777D01*
X9805723Y-39890844D01*
X9790890Y-39905678D01*
X9769170Y-39915267D01*
X9745671Y-39930970D01*
X9723720Y-39935336D01*
X9705775Y-39943260D01*
X9653254Y-39949352D01*
X9650000Y-39950000D01*
X8550000Y-39950000D01*
X8546758Y-39949355D01*
X8494227Y-39943261D01*
X8476278Y-39935335D01*
X8454329Y-39930970D01*
X8430830Y-39915268D01*
X8409109Y-39905678D01*
X8394273Y-39890842D01*
X8373223Y-39876777D01*
X8359157Y-39855726D01*
X8344321Y-39840890D01*
X8334729Y-39819166D01*
X8319030Y-39795671D01*
X8314664Y-39773724D01*
X8306739Y-39755775D01*
X8300644Y-39703242D01*
X8300000Y-39700000D01*
X8300000Y-37200000D01*
X8300642Y-37196770D01*
X8306738Y-37144227D01*
X8314664Y-37126274D01*
X8319030Y-37104329D01*
X8334728Y-37080835D01*
X8344321Y-37059109D01*
X8359159Y-37044270D01*
X8373223Y-37023223D01*
X8394270Y-37009159D01*
X8409109Y-36994321D01*
X8430835Y-36984727D01*
X8454329Y-36969030D01*
X8476273Y-36964665D01*
X8494224Y-36956739D01*
X8546759Y-36950644D01*
X8550000Y-36950000D01*
X9650000Y-36950000D01*
X9653231Y-36950642D01*
G37*
G36*
X4953231Y-33450642D02*
G01*
X5005772Y-33456738D01*
X5023723Y-33464664D01*
X5045671Y-33469030D01*
X5069166Y-33484729D01*
X5090890Y-33494321D01*
X5105726Y-33509157D01*
X5126777Y-33523223D01*
X5140842Y-33544273D01*
X5155678Y-33559109D01*
X5165269Y-33580830D01*
X5180970Y-33604329D01*
X5185335Y-33626277D01*
X5193260Y-33644224D01*
X5199352Y-33696747D01*
X5200000Y-33700000D01*
X5200000Y-38700000D01*
X5199354Y-38703243D01*
X5193261Y-38755772D01*
X5185336Y-38773719D01*
X5180970Y-38795671D01*
X5165267Y-38819171D01*
X5155678Y-38840890D01*
X5140844Y-38855723D01*
X5126777Y-38876777D01*
X5105723Y-38890844D01*
X5090890Y-38905678D01*
X5069170Y-38915267D01*
X5045671Y-38930970D01*
X5023720Y-38935336D01*
X5005775Y-38943260D01*
X4953254Y-38949352D01*
X4950000Y-38950000D01*
X4450000Y-38950000D01*
X4446758Y-38949355D01*
X4394227Y-38943261D01*
X4376278Y-38935335D01*
X4354329Y-38930970D01*
X4330830Y-38915268D01*
X4309109Y-38905678D01*
X4294273Y-38890842D01*
X4273223Y-38876777D01*
X4259157Y-38855726D01*
X4244321Y-38840890D01*
X4234729Y-38819166D01*
X4219030Y-38795671D01*
X4214664Y-38773724D01*
X4206739Y-38755775D01*
X4200644Y-38703242D01*
X4200000Y-38700000D01*
X4200000Y-33700000D01*
X4200642Y-33696770D01*
X4206738Y-33644227D01*
X4214664Y-33626274D01*
X4219030Y-33604329D01*
X4234728Y-33580835D01*
X4244321Y-33559109D01*
X4259159Y-33544270D01*
X4273223Y-33523223D01*
X4294270Y-33509159D01*
X4309109Y-33494321D01*
X4330835Y-33484727D01*
X4354329Y-33469030D01*
X4376273Y-33464665D01*
X4394224Y-33456739D01*
X4446759Y-33450644D01*
X4450000Y-33450000D01*
X4950000Y-33450000D01*
X4953231Y-33450642D01*
G37*
G36*
X6953231Y-33450642D02*
G01*
X7005772Y-33456738D01*
X7023723Y-33464664D01*
X7045671Y-33469030D01*
X7069166Y-33484729D01*
X7090890Y-33494321D01*
X7105726Y-33509157D01*
X7126777Y-33523223D01*
X7140842Y-33544273D01*
X7155678Y-33559109D01*
X7165269Y-33580830D01*
X7180970Y-33604329D01*
X7185335Y-33626277D01*
X7193260Y-33644224D01*
X7199352Y-33696747D01*
X7200000Y-33700000D01*
X7200000Y-38700000D01*
X7199354Y-38703243D01*
X7193261Y-38755772D01*
X7185336Y-38773719D01*
X7180970Y-38795671D01*
X7165267Y-38819171D01*
X7155678Y-38840890D01*
X7140844Y-38855723D01*
X7126777Y-38876777D01*
X7105723Y-38890844D01*
X7090890Y-38905678D01*
X7069170Y-38915267D01*
X7045671Y-38930970D01*
X7023720Y-38935336D01*
X7005775Y-38943260D01*
X6953254Y-38949352D01*
X6950000Y-38950000D01*
X6450000Y-38950000D01*
X6446758Y-38949355D01*
X6394227Y-38943261D01*
X6376278Y-38935335D01*
X6354329Y-38930970D01*
X6330830Y-38915268D01*
X6309109Y-38905678D01*
X6294273Y-38890842D01*
X6273223Y-38876777D01*
X6259157Y-38855726D01*
X6244321Y-38840890D01*
X6234729Y-38819166D01*
X6219030Y-38795671D01*
X6214664Y-38773724D01*
X6206739Y-38755775D01*
X6200644Y-38703242D01*
X6200000Y-38700000D01*
X6200000Y-33700000D01*
X6200642Y-33696770D01*
X6206738Y-33644227D01*
X6214664Y-33626274D01*
X6219030Y-33604329D01*
X6234728Y-33580835D01*
X6244321Y-33559109D01*
X6259159Y-33544270D01*
X6273223Y-33523223D01*
X6294270Y-33509159D01*
X6309109Y-33494321D01*
X6330835Y-33484727D01*
X6354329Y-33469030D01*
X6376273Y-33464665D01*
X6394224Y-33456739D01*
X6446759Y-33450644D01*
X6450000Y-33450000D01*
X6950000Y-33450000D01*
X6953231Y-33450642D01*
G37*
G36*
X-7792597Y-36811418D02*
G01*
X-7743934Y-36843934D01*
X-7711418Y-36892597D01*
X-7700000Y-36950000D01*
X-7700000Y-38200000D01*
X-7711418Y-38257403D01*
X-7743934Y-38306066D01*
X-7792597Y-38338582D01*
X-7850000Y-38350000D01*
X-8150000Y-38350000D01*
X-8207403Y-38338582D01*
X-8256066Y-38306066D01*
X-8288582Y-38257403D01*
X-8300000Y-38200000D01*
X-8300000Y-36950000D01*
X-8288582Y-36892597D01*
X-8256066Y-36843934D01*
X-8207403Y-36811418D01*
X-8150000Y-36800000D01*
X-7850000Y-36800000D01*
X-7792597Y-36811418D01*
G37*
G36*
X-6792597Y-36811418D02*
G01*
X-6743934Y-36843934D01*
X-6711418Y-36892597D01*
X-6700000Y-36950000D01*
X-6700000Y-38200000D01*
X-6711418Y-38257403D01*
X-6743934Y-38306066D01*
X-6792597Y-38338582D01*
X-6850000Y-38350000D01*
X-7150000Y-38350000D01*
X-7207403Y-38338582D01*
X-7256066Y-38306066D01*
X-7288582Y-38257403D01*
X-7300000Y-38200000D01*
X-7300000Y-36950000D01*
X-7288582Y-36892597D01*
X-7256066Y-36843934D01*
X-7207403Y-36811418D01*
X-7150000Y-36800000D01*
X-6850000Y-36800000D01*
X-6792597Y-36811418D01*
G37*
G36*
X-5792597Y-36811418D02*
G01*
X-5743934Y-36843934D01*
X-5711418Y-36892597D01*
X-5700000Y-36950000D01*
X-5700000Y-38200000D01*
X-5711418Y-38257403D01*
X-5743934Y-38306066D01*
X-5792597Y-38338582D01*
X-5850000Y-38350000D01*
X-6150000Y-38350000D01*
X-6207403Y-38338582D01*
X-6256066Y-38306066D01*
X-6288582Y-38257403D01*
X-6300000Y-38200000D01*
X-6300000Y-36950000D01*
X-6288582Y-36892597D01*
X-6256066Y-36843934D01*
X-6207403Y-36811418D01*
X-6150000Y-36800000D01*
X-5850000Y-36800000D01*
X-5792597Y-36811418D01*
G37*
G36*
X-4792597Y-36811418D02*
G01*
X-4743934Y-36843934D01*
X-4711418Y-36892597D01*
X-4700000Y-36950000D01*
X-4700000Y-38200000D01*
X-4711418Y-38257403D01*
X-4743934Y-38306066D01*
X-4792597Y-38338582D01*
X-4850000Y-38350000D01*
X-5150000Y-38350000D01*
X-5207403Y-38338582D01*
X-5256066Y-38306066D01*
X-5288582Y-38257403D01*
X-5300000Y-38200000D01*
X-5300000Y-36950000D01*
X-5288582Y-36892597D01*
X-5256066Y-36843934D01*
X-5207403Y-36811418D01*
X-5150000Y-36800000D01*
X-4850000Y-36800000D01*
X-4792597Y-36811418D01*
G37*
G36*
X-3792597Y-36811418D02*
G01*
X-3743934Y-36843934D01*
X-3711418Y-36892597D01*
X-3700000Y-36950000D01*
X-3700000Y-38200000D01*
X-3711418Y-38257403D01*
X-3743934Y-38306066D01*
X-3792597Y-38338582D01*
X-3850000Y-38350000D01*
X-4150000Y-38350000D01*
X-4207403Y-38338582D01*
X-4256066Y-38306066D01*
X-4288582Y-38257403D01*
X-4300000Y-38200000D01*
X-4300000Y-36950000D01*
X-4288582Y-36892597D01*
X-4256066Y-36843934D01*
X-4207403Y-36811418D01*
X-4150000Y-36800000D01*
X-3850000Y-36800000D01*
X-3792597Y-36811418D01*
G37*
G36*
X-2792597Y-36811418D02*
G01*
X-2743934Y-36843934D01*
X-2711418Y-36892597D01*
X-2700000Y-36950000D01*
X-2700000Y-38200000D01*
X-2711418Y-38257403D01*
X-2743934Y-38306066D01*
X-2792597Y-38338582D01*
X-2850000Y-38350000D01*
X-3150000Y-38350000D01*
X-3207403Y-38338582D01*
X-3256066Y-38306066D01*
X-3288582Y-38257403D01*
X-3300000Y-38200000D01*
X-3300000Y-36950000D01*
X-3288582Y-36892597D01*
X-3256066Y-36843934D01*
X-3207403Y-36811418D01*
X-3150000Y-36800000D01*
X-2850000Y-36800000D01*
X-2792597Y-36811418D01*
G37*
G36*
X-1792597Y-36811418D02*
G01*
X-1743934Y-36843934D01*
X-1711418Y-36892597D01*
X-1700000Y-36950000D01*
X-1700000Y-38200000D01*
X-1711418Y-38257403D01*
X-1743934Y-38306066D01*
X-1792597Y-38338582D01*
X-1850000Y-38350000D01*
X-2150000Y-38350000D01*
X-2207403Y-38338582D01*
X-2256066Y-38306066D01*
X-2288582Y-38257403D01*
X-2300000Y-38200000D01*
X-2300000Y-36950000D01*
X-2288582Y-36892597D01*
X-2256066Y-36843934D01*
X-2207403Y-36811418D01*
X-2150000Y-36800000D01*
X-1850000Y-36800000D01*
X-1792597Y-36811418D01*
G37*
G36*
X-11363965Y-32705089D02*
G01*
X-11328843Y-32705089D01*
X-11300297Y-32713470D01*
X-11270678Y-32717370D01*
X-11230890Y-32733850D01*
X-11192292Y-32745184D01*
X-11171918Y-32758277D01*
X-11150172Y-32767285D01*
X-11110322Y-32797863D01*
X-11072570Y-32822125D01*
X-11060400Y-32836169D01*
X-11046690Y-32846690D01*
X-11011145Y-32893012D01*
X-10979373Y-32929680D01*
X-10974026Y-32941387D01*
X-10967285Y-32950173D01*
X-10940662Y-33014444D01*
X-10920254Y-33059134D01*
X-10919245Y-33066151D01*
X-10917370Y-33070678D01*
X-10904088Y-33171567D01*
X-10900000Y-33200000D01*
X-10904088Y-33228435D01*
X-10917370Y-33329321D01*
X-10919244Y-33333847D01*
X-10920254Y-33340866D01*
X-10940665Y-33385560D01*
X-10967285Y-33449827D01*
X-10974026Y-33458612D01*
X-10979373Y-33470320D01*
X-11011149Y-33506992D01*
X-11046690Y-33553309D01*
X-11060397Y-33563827D01*
X-11072570Y-33577875D01*
X-11110330Y-33602142D01*
X-11150172Y-33632714D01*
X-11171913Y-33641719D01*
X-11192292Y-33654816D01*
X-11230898Y-33666151D01*
X-11270678Y-33682629D01*
X-11300291Y-33686527D01*
X-11328843Y-33694911D01*
X-11363972Y-33694911D01*
X-11400000Y-33699654D01*
X-11436028Y-33694911D01*
X-11471157Y-33694911D01*
X-11499708Y-33686527D01*
X-11529321Y-33682629D01*
X-11569097Y-33666152D01*
X-11607708Y-33654816D01*
X-11628087Y-33641718D01*
X-11649827Y-33632714D01*
X-11689663Y-33602145D01*
X-11727430Y-33577875D01*
X-11739604Y-33563824D01*
X-11753309Y-33553309D01*
X-11788841Y-33507002D01*
X-11820627Y-33470320D01*
X-11825974Y-33458609D01*
X-11832714Y-33449827D01*
X-11859324Y-33385583D01*
X-11879746Y-33340866D01*
X-11880755Y-33333843D01*
X-11882629Y-33329321D01*
X-11895898Y-33228526D01*
X-11900000Y-33200000D01*
X-11895901Y-33171493D01*
X-11882629Y-33070678D01*
X-11880755Y-33066154D01*
X-11879746Y-33059134D01*
X-11859326Y-33014421D01*
X-11832714Y-32950173D01*
X-11825974Y-32941390D01*
X-11820627Y-32929680D01*
X-11788845Y-32893002D01*
X-11753309Y-32846690D01*
X-11739602Y-32836172D01*
X-11727430Y-32822125D01*
X-11689668Y-32797856D01*
X-11649826Y-32767285D01*
X-11628084Y-32758279D01*
X-11607708Y-32745184D01*
X-11569104Y-32733849D01*
X-11529321Y-32717370D01*
X-11499702Y-32713470D01*
X-11471157Y-32705089D01*
X-11436035Y-32705089D01*
X-11400000Y-32700345D01*
X-11363965Y-32705089D01*
G37*
G36*
X-9963965Y-30705089D02*
G01*
X-9928843Y-30705089D01*
X-9900297Y-30713470D01*
X-9870678Y-30717370D01*
X-9830890Y-30733850D01*
X-9792292Y-30745184D01*
X-9771918Y-30758277D01*
X-9750172Y-30767285D01*
X-9710322Y-30797863D01*
X-9672570Y-30822125D01*
X-9660400Y-30836169D01*
X-9646690Y-30846690D01*
X-9611145Y-30893012D01*
X-9579373Y-30929680D01*
X-9574026Y-30941387D01*
X-9567285Y-30950173D01*
X-9540662Y-31014444D01*
X-9520254Y-31059134D01*
X-9519245Y-31066151D01*
X-9517370Y-31070678D01*
X-9504088Y-31171567D01*
X-9500000Y-31200000D01*
X-9504088Y-31228435D01*
X-9517370Y-31329321D01*
X-9519244Y-31333847D01*
X-9520254Y-31340866D01*
X-9540665Y-31385560D01*
X-9567285Y-31449827D01*
X-9574026Y-31458612D01*
X-9579373Y-31470320D01*
X-9611149Y-31506992D01*
X-9646690Y-31553309D01*
X-9660397Y-31563827D01*
X-9672570Y-31577875D01*
X-9710330Y-31602142D01*
X-9750172Y-31632714D01*
X-9771913Y-31641719D01*
X-9792292Y-31654816D01*
X-9830898Y-31666151D01*
X-9870678Y-31682629D01*
X-9900291Y-31686527D01*
X-9928843Y-31694911D01*
X-9963972Y-31694911D01*
X-10000000Y-31699654D01*
X-10036028Y-31694911D01*
X-10071157Y-31694911D01*
X-10099708Y-31686527D01*
X-10129321Y-31682629D01*
X-10169097Y-31666152D01*
X-10207708Y-31654816D01*
X-10228087Y-31641718D01*
X-10249827Y-31632714D01*
X-10289663Y-31602145D01*
X-10327430Y-31577875D01*
X-10339604Y-31563824D01*
X-10353309Y-31553309D01*
X-10388841Y-31507002D01*
X-10420627Y-31470320D01*
X-10425974Y-31458609D01*
X-10432714Y-31449827D01*
X-10459324Y-31385583D01*
X-10479746Y-31340866D01*
X-10480755Y-31333843D01*
X-10482629Y-31329321D01*
X-10495899Y-31228517D01*
X-10500000Y-31200000D01*
X-10495900Y-31171484D01*
X-10482629Y-31070678D01*
X-10480755Y-31066154D01*
X-10479746Y-31059134D01*
X-10459326Y-31014421D01*
X-10432714Y-30950173D01*
X-10425974Y-30941390D01*
X-10420627Y-30929680D01*
X-10388845Y-30893002D01*
X-10353309Y-30846690D01*
X-10339602Y-30836172D01*
X-10327430Y-30822125D01*
X-10289668Y-30797856D01*
X-10249826Y-30767285D01*
X-10228084Y-30758279D01*
X-10207708Y-30745184D01*
X-10169104Y-30733849D01*
X-10129321Y-30717370D01*
X-10099702Y-30713470D01*
X-10071157Y-30705089D01*
X-10036035Y-30705089D01*
X-10000000Y-30700345D01*
X-9963965Y-30705089D01*
G37*
G36*
X4136035Y-29305089D02*
G01*
X4171157Y-29305089D01*
X4199702Y-29313470D01*
X4229321Y-29317370D01*
X4269106Y-29333849D01*
X4307708Y-29345184D01*
X4328083Y-29358278D01*
X4349827Y-29367285D01*
X4389671Y-29397859D01*
X4427430Y-29422125D01*
X4439601Y-29436172D01*
X4453309Y-29446690D01*
X4488845Y-29493002D01*
X4520627Y-29529680D01*
X4525974Y-29541390D01*
X4532714Y-29550173D01*
X4559326Y-29614421D01*
X4579746Y-29659134D01*
X4580755Y-29666154D01*
X4582629Y-29670678D01*
X4595900Y-29771484D01*
X4600000Y-29800000D01*
X4595899Y-29828517D01*
X4582629Y-29929321D01*
X4580755Y-29933843D01*
X4579746Y-29940866D01*
X4559324Y-29985583D01*
X4532714Y-30049827D01*
X4525974Y-30058609D01*
X4520627Y-30070320D01*
X4488841Y-30107002D01*
X4453309Y-30153309D01*
X4439604Y-30163824D01*
X4427430Y-30177875D01*
X4389663Y-30202145D01*
X4349827Y-30232714D01*
X4328087Y-30241718D01*
X4307708Y-30254816D01*
X4269097Y-30266152D01*
X4229321Y-30282629D01*
X4199708Y-30286527D01*
X4171157Y-30294911D01*
X4136028Y-30294911D01*
X4100000Y-30299654D01*
X4063972Y-30294911D01*
X4028843Y-30294911D01*
X4000291Y-30286527D01*
X3970678Y-30282629D01*
X3930898Y-30266151D01*
X3892292Y-30254816D01*
X3871913Y-30241719D01*
X3850172Y-30232714D01*
X3810330Y-30202142D01*
X3772570Y-30177875D01*
X3760397Y-30163827D01*
X3746690Y-30153309D01*
X3711149Y-30106992D01*
X3679373Y-30070320D01*
X3674026Y-30058612D01*
X3667285Y-30049827D01*
X3640665Y-29985560D01*
X3620254Y-29940866D01*
X3619244Y-29933847D01*
X3617370Y-29929321D01*
X3604088Y-29828435D01*
X3600000Y-29800000D01*
X3604088Y-29771567D01*
X3617370Y-29670678D01*
X3619245Y-29666151D01*
X3620254Y-29659134D01*
X3640662Y-29614444D01*
X3667285Y-29550173D01*
X3674026Y-29541387D01*
X3679373Y-29529680D01*
X3711145Y-29493012D01*
X3746690Y-29446690D01*
X3760399Y-29436170D01*
X3772570Y-29422125D01*
X3810325Y-29397860D01*
X3850173Y-29367285D01*
X3871916Y-29358278D01*
X3892292Y-29345184D01*
X3930891Y-29333850D01*
X3970678Y-29317370D01*
X4000297Y-29313470D01*
X4028843Y-29305089D01*
X4063965Y-29305089D01*
X4100000Y-29300345D01*
X4136035Y-29305089D01*
G37*
G36*
X6436035Y-29305089D02*
G01*
X6471157Y-29305089D01*
X6499702Y-29313470D01*
X6529321Y-29317370D01*
X6569106Y-29333849D01*
X6607708Y-29345184D01*
X6628083Y-29358278D01*
X6649827Y-29367285D01*
X6689671Y-29397859D01*
X6727430Y-29422125D01*
X6739601Y-29436172D01*
X6753309Y-29446690D01*
X6788845Y-29493002D01*
X6820627Y-29529680D01*
X6825974Y-29541390D01*
X6832714Y-29550173D01*
X6859326Y-29614421D01*
X6879746Y-29659134D01*
X6880755Y-29666154D01*
X6882629Y-29670678D01*
X6895900Y-29771484D01*
X6900000Y-29800000D01*
X6895899Y-29828517D01*
X6882629Y-29929321D01*
X6880755Y-29933843D01*
X6879746Y-29940866D01*
X6859324Y-29985583D01*
X6832714Y-30049827D01*
X6825974Y-30058609D01*
X6820627Y-30070320D01*
X6788841Y-30107002D01*
X6753309Y-30153309D01*
X6739604Y-30163824D01*
X6727430Y-30177875D01*
X6689663Y-30202145D01*
X6649827Y-30232714D01*
X6628087Y-30241718D01*
X6607708Y-30254816D01*
X6569097Y-30266152D01*
X6529321Y-30282629D01*
X6499708Y-30286527D01*
X6471157Y-30294911D01*
X6436028Y-30294911D01*
X6400000Y-30299654D01*
X6363972Y-30294911D01*
X6328843Y-30294911D01*
X6300291Y-30286527D01*
X6270678Y-30282629D01*
X6230898Y-30266151D01*
X6192292Y-30254816D01*
X6171913Y-30241719D01*
X6150172Y-30232714D01*
X6110330Y-30202142D01*
X6072570Y-30177875D01*
X6060397Y-30163827D01*
X6046690Y-30153309D01*
X6011149Y-30106992D01*
X5979373Y-30070320D01*
X5974026Y-30058612D01*
X5967285Y-30049827D01*
X5940665Y-29985560D01*
X5920254Y-29940866D01*
X5919244Y-29933847D01*
X5917370Y-29929321D01*
X5904088Y-29828435D01*
X5900000Y-29800000D01*
X5904088Y-29771567D01*
X5917370Y-29670678D01*
X5919245Y-29666151D01*
X5920254Y-29659134D01*
X5940662Y-29614444D01*
X5967285Y-29550173D01*
X5974026Y-29541387D01*
X5979373Y-29529680D01*
X6011145Y-29493012D01*
X6046690Y-29446690D01*
X6060399Y-29436170D01*
X6072570Y-29422125D01*
X6110325Y-29397860D01*
X6150173Y-29367285D01*
X6171916Y-29358278D01*
X6192292Y-29345184D01*
X6230891Y-29333850D01*
X6270678Y-29317370D01*
X6300297Y-29313470D01*
X6328843Y-29305089D01*
X6363965Y-29305089D01*
X6400000Y-29300345D01*
X6436035Y-29305089D01*
G37*
G36*
X3936035Y-23705089D02*
G01*
X3971157Y-23705089D01*
X3999702Y-23713470D01*
X4029321Y-23717370D01*
X4069106Y-23733849D01*
X4107708Y-23745184D01*
X4128083Y-23758278D01*
X4149827Y-23767285D01*
X4189671Y-23797859D01*
X4227430Y-23822125D01*
X4239601Y-23836172D01*
X4253309Y-23846690D01*
X4288845Y-23893002D01*
X4320627Y-23929680D01*
X4325974Y-23941390D01*
X4332714Y-23950173D01*
X4359326Y-24014421D01*
X4379746Y-24059134D01*
X4380755Y-24066154D01*
X4382629Y-24070678D01*
X4395900Y-24171484D01*
X4400000Y-24200000D01*
X4395899Y-24228517D01*
X4382629Y-24329321D01*
X4380755Y-24333843D01*
X4379746Y-24340866D01*
X4359324Y-24385583D01*
X4332714Y-24449827D01*
X4325974Y-24458609D01*
X4320627Y-24470320D01*
X4288841Y-24507002D01*
X4253309Y-24553309D01*
X4239604Y-24563824D01*
X4227430Y-24577875D01*
X4189663Y-24602145D01*
X4149827Y-24632714D01*
X4128087Y-24641718D01*
X4107708Y-24654816D01*
X4069097Y-24666152D01*
X4029321Y-24682629D01*
X3999708Y-24686527D01*
X3971157Y-24694911D01*
X3936028Y-24694911D01*
X3900000Y-24699654D01*
X3863972Y-24694911D01*
X3828843Y-24694911D01*
X3800291Y-24686527D01*
X3770678Y-24682629D01*
X3730898Y-24666151D01*
X3692292Y-24654816D01*
X3671913Y-24641719D01*
X3650172Y-24632714D01*
X3610330Y-24602142D01*
X3572570Y-24577875D01*
X3560397Y-24563827D01*
X3546690Y-24553309D01*
X3511149Y-24506992D01*
X3479373Y-24470320D01*
X3474026Y-24458612D01*
X3467285Y-24449827D01*
X3440665Y-24385560D01*
X3420254Y-24340866D01*
X3419244Y-24333847D01*
X3417370Y-24329321D01*
X3404088Y-24228435D01*
X3400000Y-24200000D01*
X3404088Y-24171567D01*
X3417370Y-24070678D01*
X3419245Y-24066151D01*
X3420254Y-24059134D01*
X3440662Y-24014444D01*
X3467285Y-23950173D01*
X3474026Y-23941387D01*
X3479373Y-23929680D01*
X3511145Y-23893012D01*
X3546690Y-23846690D01*
X3560399Y-23836170D01*
X3572570Y-23822125D01*
X3610325Y-23797860D01*
X3650173Y-23767285D01*
X3671916Y-23758278D01*
X3692292Y-23745184D01*
X3730891Y-23733850D01*
X3770678Y-23717370D01*
X3800297Y-23713470D01*
X3828843Y-23705089D01*
X3863965Y-23705089D01*
X3900000Y-23700345D01*
X3936035Y-23705089D01*
G37*
G36*
X7536035Y-22305089D02*
G01*
X7571157Y-22305089D01*
X7599702Y-22313470D01*
X7629321Y-22317370D01*
X7669106Y-22333849D01*
X7707708Y-22345184D01*
X7728083Y-22358278D01*
X7749827Y-22367285D01*
X7789671Y-22397859D01*
X7827430Y-22422125D01*
X7839601Y-22436172D01*
X7853309Y-22446690D01*
X7888845Y-22493002D01*
X7920627Y-22529680D01*
X7925974Y-22541390D01*
X7932714Y-22550173D01*
X7959326Y-22614421D01*
X7979746Y-22659134D01*
X7980755Y-22666154D01*
X7982629Y-22670678D01*
X7995900Y-22771484D01*
X8000000Y-22800000D01*
X7995899Y-22828517D01*
X7982629Y-22929321D01*
X7980755Y-22933843D01*
X7979746Y-22940866D01*
X7959324Y-22985583D01*
X7932714Y-23049827D01*
X7925974Y-23058609D01*
X7920627Y-23070320D01*
X7888841Y-23107002D01*
X7853309Y-23153309D01*
X7839604Y-23163824D01*
X7827430Y-23177875D01*
X7789663Y-23202145D01*
X7749827Y-23232714D01*
X7728087Y-23241718D01*
X7707708Y-23254816D01*
X7669097Y-23266152D01*
X7629321Y-23282629D01*
X7599708Y-23286527D01*
X7571157Y-23294911D01*
X7536028Y-23294911D01*
X7500000Y-23299654D01*
X7463972Y-23294911D01*
X7428843Y-23294911D01*
X7400291Y-23286527D01*
X7370678Y-23282629D01*
X7330898Y-23266151D01*
X7292292Y-23254816D01*
X7271913Y-23241719D01*
X7250172Y-23232714D01*
X7210330Y-23202142D01*
X7172570Y-23177875D01*
X7160397Y-23163827D01*
X7146690Y-23153309D01*
X7111149Y-23106992D01*
X7079373Y-23070320D01*
X7074026Y-23058612D01*
X7067285Y-23049827D01*
X7040665Y-22985560D01*
X7020254Y-22940866D01*
X7019244Y-22933847D01*
X7017370Y-22929321D01*
X7004088Y-22828435D01*
X7000000Y-22800000D01*
X7004088Y-22771567D01*
X7017370Y-22670678D01*
X7019245Y-22666151D01*
X7020254Y-22659134D01*
X7040662Y-22614444D01*
X7067285Y-22550173D01*
X7074026Y-22541387D01*
X7079373Y-22529680D01*
X7111145Y-22493012D01*
X7146690Y-22446690D01*
X7160399Y-22436170D01*
X7172570Y-22422125D01*
X7210325Y-22397860D01*
X7250173Y-22367285D01*
X7271916Y-22358278D01*
X7292292Y-22345184D01*
X7330891Y-22333850D01*
X7370678Y-22317370D01*
X7400297Y-22313470D01*
X7428843Y-22305089D01*
X7463965Y-22305089D01*
X7500000Y-22300345D01*
X7536035Y-22305089D01*
G37*
G36*
X2034489Y-20219857D02*
G01*
X2069611Y-20219857D01*
X2098156Y-20228238D01*
X2127775Y-20232138D01*
X2167560Y-20248617D01*
X2206162Y-20259952D01*
X2226537Y-20273046D01*
X2248281Y-20282053D01*
X2288125Y-20312627D01*
X2325884Y-20336893D01*
X2338055Y-20350940D01*
X2351763Y-20361458D01*
X2387299Y-20407770D01*
X2419081Y-20444448D01*
X2424428Y-20456158D01*
X2431168Y-20464941D01*
X2457780Y-20529189D01*
X2478200Y-20573902D01*
X2479209Y-20580922D01*
X2481083Y-20585446D01*
X2494354Y-20686252D01*
X2498454Y-20714768D01*
X2494353Y-20743285D01*
X2481083Y-20844089D01*
X2479209Y-20848611D01*
X2478200Y-20855634D01*
X2457778Y-20900351D01*
X2431168Y-20964595D01*
X2424428Y-20973377D01*
X2419081Y-20985088D01*
X2387295Y-21021770D01*
X2351763Y-21068077D01*
X2338058Y-21078592D01*
X2325884Y-21092643D01*
X2288117Y-21116913D01*
X2248281Y-21147482D01*
X2226541Y-21156486D01*
X2206162Y-21169584D01*
X2167551Y-21180920D01*
X2127775Y-21197397D01*
X2098162Y-21201295D01*
X2069611Y-21209679D01*
X2034482Y-21209679D01*
X1998454Y-21214422D01*
X1962426Y-21209679D01*
X1927297Y-21209679D01*
X1898745Y-21201295D01*
X1869132Y-21197397D01*
X1829352Y-21180919D01*
X1790746Y-21169584D01*
X1770367Y-21156487D01*
X1748626Y-21147482D01*
X1708784Y-21116910D01*
X1671024Y-21092643D01*
X1658851Y-21078595D01*
X1645144Y-21068077D01*
X1609603Y-21021760D01*
X1577827Y-20985088D01*
X1572480Y-20973380D01*
X1565739Y-20964595D01*
X1539119Y-20900328D01*
X1518708Y-20855634D01*
X1517698Y-20848615D01*
X1515824Y-20844089D01*
X1502542Y-20743203D01*
X1498454Y-20714768D01*
X1502542Y-20686335D01*
X1515824Y-20585446D01*
X1517699Y-20580919D01*
X1518708Y-20573902D01*
X1539116Y-20529212D01*
X1565739Y-20464941D01*
X1572480Y-20456155D01*
X1577827Y-20444448D01*
X1609599Y-20407780D01*
X1645144Y-20361458D01*
X1658853Y-20350938D01*
X1671024Y-20336893D01*
X1708779Y-20312628D01*
X1748627Y-20282053D01*
X1770370Y-20273046D01*
X1790746Y-20259952D01*
X1829345Y-20248618D01*
X1869132Y-20232138D01*
X1898751Y-20228238D01*
X1927297Y-20219857D01*
X1962419Y-20219857D01*
X1998454Y-20215113D01*
X2034489Y-20219857D01*
G37*
G36*
X-14070329Y-19149741D02*
G01*
X-14035511Y-19149741D01*
X-14007212Y-19158050D01*
X-13977894Y-19161910D01*
X-13938509Y-19178223D01*
X-13900245Y-19189459D01*
X-13880048Y-19202438D01*
X-13858522Y-19211355D01*
X-13819076Y-19241622D01*
X-13781647Y-19265677D01*
X-13769581Y-19279601D01*
X-13756013Y-19290013D01*
X-13720833Y-19335860D01*
X-13689327Y-19372221D01*
X-13684025Y-19383829D01*
X-13677355Y-19392523D01*
X-13651019Y-19456101D01*
X-13630763Y-19500458D01*
X-13629761Y-19507424D01*
X-13627910Y-19511894D01*
X-13614788Y-19611563D01*
X-13610700Y-19640000D01*
X-13614791Y-19668455D01*
X-13627910Y-19768105D01*
X-13629761Y-19772574D01*
X-13630763Y-19779542D01*
X-13651022Y-19823903D01*
X-13677355Y-19887477D01*
X-13684025Y-19896169D01*
X-13689327Y-19907779D01*
X-13720837Y-19944144D01*
X-13756013Y-19989986D01*
X-13769578Y-20000395D01*
X-13781647Y-20014323D01*
X-13819084Y-20038382D01*
X-13858522Y-20068644D01*
X-13880043Y-20077558D01*
X-13900245Y-20090541D01*
X-13938517Y-20101778D01*
X-13977894Y-20118089D01*
X-14007206Y-20121947D01*
X-14035511Y-20130259D01*
X-14070337Y-20130259D01*
X-14106000Y-20134954D01*
X-14141663Y-20130259D01*
X-14176489Y-20130259D01*
X-14204794Y-20121947D01*
X-14234105Y-20118089D01*
X-14273478Y-20101779D01*
X-14311755Y-20090541D01*
X-14331958Y-20077557D01*
X-14353477Y-20068644D01*
X-14392909Y-20038386D01*
X-14430353Y-20014323D01*
X-14442423Y-20000393D01*
X-14455986Y-19989986D01*
X-14491153Y-19944154D01*
X-14522673Y-19907779D01*
X-14527976Y-19896166D01*
X-14534644Y-19887477D01*
X-14560966Y-19823927D01*
X-14581237Y-19779542D01*
X-14582239Y-19772570D01*
X-14584089Y-19768105D01*
X-14597198Y-19668529D01*
X-14601300Y-19640000D01*
X-14597198Y-19611472D01*
X-14584089Y-19511894D01*
X-14582239Y-19507428D01*
X-14581237Y-19500458D01*
X-14560969Y-19456078D01*
X-14534644Y-19392523D01*
X-14527976Y-19383833D01*
X-14522673Y-19372221D01*
X-14491157Y-19335850D01*
X-14455986Y-19290013D01*
X-14442420Y-19279604D01*
X-14430353Y-19265677D01*
X-14392913Y-19241616D01*
X-14353476Y-19211355D01*
X-14331955Y-19202440D01*
X-14311755Y-19189459D01*
X-14273486Y-19178222D01*
X-14234105Y-19161910D01*
X-14204788Y-19158050D01*
X-14176489Y-19149741D01*
X-14141670Y-19149741D01*
X-14106000Y-19145045D01*
X-14070329Y-19149741D01*
G37*
G36*
X-12038329Y-19149741D02*
G01*
X-12003511Y-19149741D01*
X-11975212Y-19158050D01*
X-11945894Y-19161910D01*
X-11906509Y-19178223D01*
X-11868245Y-19189459D01*
X-11848048Y-19202438D01*
X-11826522Y-19211355D01*
X-11787076Y-19241622D01*
X-11749647Y-19265677D01*
X-11737581Y-19279601D01*
X-11724013Y-19290013D01*
X-11688833Y-19335860D01*
X-11657327Y-19372221D01*
X-11652025Y-19383829D01*
X-11645355Y-19392523D01*
X-11619019Y-19456101D01*
X-11598763Y-19500458D01*
X-11597761Y-19507424D01*
X-11595910Y-19511894D01*
X-11582789Y-19611555D01*
X-11578700Y-19640000D01*
X-11582790Y-19668447D01*
X-11595910Y-19768105D01*
X-11597761Y-19772574D01*
X-11598763Y-19779542D01*
X-11619022Y-19823903D01*
X-11645355Y-19887477D01*
X-11652025Y-19896169D01*
X-11657327Y-19907779D01*
X-11688837Y-19944144D01*
X-11724013Y-19989986D01*
X-11737578Y-20000395D01*
X-11749647Y-20014323D01*
X-11787084Y-20038382D01*
X-11826522Y-20068644D01*
X-11848043Y-20077558D01*
X-11868245Y-20090541D01*
X-11906517Y-20101778D01*
X-11945894Y-20118089D01*
X-11975206Y-20121947D01*
X-12003511Y-20130259D01*
X-12038337Y-20130259D01*
X-12074000Y-20134954D01*
X-12109663Y-20130259D01*
X-12144489Y-20130259D01*
X-12172794Y-20121947D01*
X-12202105Y-20118089D01*
X-12241478Y-20101779D01*
X-12279755Y-20090541D01*
X-12299958Y-20077557D01*
X-12321477Y-20068644D01*
X-12360909Y-20038386D01*
X-12398353Y-20014323D01*
X-12410423Y-20000393D01*
X-12423986Y-19989986D01*
X-12459153Y-19944154D01*
X-12490673Y-19907779D01*
X-12495976Y-19896166D01*
X-12502644Y-19887477D01*
X-12528966Y-19823927D01*
X-12549237Y-19779542D01*
X-12550239Y-19772570D01*
X-12552089Y-19768105D01*
X-12565198Y-19668529D01*
X-12569300Y-19640000D01*
X-12565198Y-19611472D01*
X-12552089Y-19511894D01*
X-12550239Y-19507428D01*
X-12549237Y-19500458D01*
X-12528969Y-19456078D01*
X-12502644Y-19392523D01*
X-12495976Y-19383833D01*
X-12490673Y-19372221D01*
X-12459157Y-19335850D01*
X-12423986Y-19290013D01*
X-12410420Y-19279604D01*
X-12398353Y-19265677D01*
X-12360913Y-19241616D01*
X-12321476Y-19211355D01*
X-12299955Y-19202440D01*
X-12279755Y-19189459D01*
X-12241486Y-19178222D01*
X-12202105Y-19161910D01*
X-12172788Y-19158050D01*
X-12144489Y-19149741D01*
X-12109670Y-19149741D01*
X-12074000Y-19145045D01*
X-12038329Y-19149741D01*
G37*
G36*
X-2963965Y-19105089D02*
G01*
X-2928843Y-19105089D01*
X-2900297Y-19113470D01*
X-2870678Y-19117370D01*
X-2830890Y-19133850D01*
X-2792292Y-19145184D01*
X-2771918Y-19158277D01*
X-2750172Y-19167285D01*
X-2710322Y-19197863D01*
X-2672570Y-19222125D01*
X-2660400Y-19236169D01*
X-2646690Y-19246690D01*
X-2611145Y-19293012D01*
X-2579373Y-19329680D01*
X-2574026Y-19341387D01*
X-2567285Y-19350173D01*
X-2540662Y-19414444D01*
X-2520254Y-19459134D01*
X-2519245Y-19466151D01*
X-2517370Y-19470678D01*
X-2504088Y-19571567D01*
X-2500000Y-19600000D01*
X-2504088Y-19628435D01*
X-2517370Y-19729321D01*
X-2519244Y-19733847D01*
X-2520254Y-19740866D01*
X-2540665Y-19785560D01*
X-2567285Y-19849827D01*
X-2574026Y-19858612D01*
X-2579373Y-19870320D01*
X-2611149Y-19906992D01*
X-2646690Y-19953309D01*
X-2660397Y-19963827D01*
X-2672570Y-19977875D01*
X-2710330Y-20002142D01*
X-2750172Y-20032714D01*
X-2771913Y-20041719D01*
X-2792292Y-20054816D01*
X-2830898Y-20066151D01*
X-2870678Y-20082629D01*
X-2900291Y-20086527D01*
X-2928843Y-20094911D01*
X-2963972Y-20094911D01*
X-3000000Y-20099654D01*
X-3036028Y-20094911D01*
X-3071157Y-20094911D01*
X-3099708Y-20086527D01*
X-3129321Y-20082629D01*
X-3169097Y-20066152D01*
X-3207708Y-20054816D01*
X-3228087Y-20041718D01*
X-3249827Y-20032714D01*
X-3289663Y-20002145D01*
X-3327430Y-19977875D01*
X-3339604Y-19963824D01*
X-3353309Y-19953309D01*
X-3388841Y-19907002D01*
X-3420627Y-19870320D01*
X-3425974Y-19858609D01*
X-3432714Y-19849827D01*
X-3459324Y-19785583D01*
X-3479746Y-19740866D01*
X-3480755Y-19733843D01*
X-3482629Y-19729321D01*
X-3495899Y-19628517D01*
X-3500000Y-19600000D01*
X-3495900Y-19571484D01*
X-3482629Y-19470678D01*
X-3480755Y-19466154D01*
X-3479746Y-19459134D01*
X-3459326Y-19414421D01*
X-3432714Y-19350173D01*
X-3425974Y-19341390D01*
X-3420627Y-19329680D01*
X-3388845Y-19293002D01*
X-3353309Y-19246690D01*
X-3339602Y-19236172D01*
X-3327430Y-19222125D01*
X-3289668Y-19197856D01*
X-3249826Y-19167285D01*
X-3228084Y-19158279D01*
X-3207708Y-19145184D01*
X-3169104Y-19133849D01*
X-3129321Y-19117370D01*
X-3099702Y-19113470D01*
X-3071157Y-19105089D01*
X-3036035Y-19105089D01*
X-3000000Y-19100345D01*
X-2963965Y-19105089D01*
G37*
G36*
X5736035Y-19105089D02*
G01*
X5771157Y-19105089D01*
X5799702Y-19113470D01*
X5829321Y-19117370D01*
X5869106Y-19133849D01*
X5907708Y-19145184D01*
X5928083Y-19158278D01*
X5949827Y-19167285D01*
X5989671Y-19197859D01*
X6027430Y-19222125D01*
X6039601Y-19236172D01*
X6053309Y-19246690D01*
X6088845Y-19293002D01*
X6120627Y-19329680D01*
X6125974Y-19341390D01*
X6132714Y-19350173D01*
X6159326Y-19414421D01*
X6179746Y-19459134D01*
X6180755Y-19466154D01*
X6182629Y-19470678D01*
X6195900Y-19571484D01*
X6200000Y-19600000D01*
X6195899Y-19628517D01*
X6182629Y-19729321D01*
X6180755Y-19733843D01*
X6179746Y-19740866D01*
X6159324Y-19785583D01*
X6132714Y-19849827D01*
X6125974Y-19858609D01*
X6120627Y-19870320D01*
X6088841Y-19907002D01*
X6053309Y-19953309D01*
X6039604Y-19963824D01*
X6027430Y-19977875D01*
X5989663Y-20002145D01*
X5949827Y-20032714D01*
X5928087Y-20041718D01*
X5907708Y-20054816D01*
X5869097Y-20066152D01*
X5829321Y-20082629D01*
X5799708Y-20086527D01*
X5771157Y-20094911D01*
X5736028Y-20094911D01*
X5700000Y-20099654D01*
X5663972Y-20094911D01*
X5628843Y-20094911D01*
X5600291Y-20086527D01*
X5570678Y-20082629D01*
X5530898Y-20066151D01*
X5492292Y-20054816D01*
X5471913Y-20041719D01*
X5450172Y-20032714D01*
X5410330Y-20002142D01*
X5372570Y-19977875D01*
X5360397Y-19963827D01*
X5346690Y-19953309D01*
X5311149Y-19906992D01*
X5279373Y-19870320D01*
X5274026Y-19858612D01*
X5267285Y-19849827D01*
X5240665Y-19785560D01*
X5220254Y-19740866D01*
X5219244Y-19733847D01*
X5217370Y-19729321D01*
X5204088Y-19628435D01*
X5200000Y-19600000D01*
X5204088Y-19571567D01*
X5217370Y-19470678D01*
X5219245Y-19466151D01*
X5220254Y-19459134D01*
X5240662Y-19414444D01*
X5267285Y-19350173D01*
X5274026Y-19341387D01*
X5279373Y-19329680D01*
X5311145Y-19293012D01*
X5346690Y-19246690D01*
X5360399Y-19236170D01*
X5372570Y-19222125D01*
X5410325Y-19197860D01*
X5450173Y-19167285D01*
X5471916Y-19158278D01*
X5492292Y-19145184D01*
X5530891Y-19133850D01*
X5570678Y-19117370D01*
X5600297Y-19113470D01*
X5628843Y-19105089D01*
X5663965Y-19105089D01*
X5700000Y-19100345D01*
X5736035Y-19105089D01*
G37*
G36*
X-263965Y-18505089D02*
G01*
X-228843Y-18505089D01*
X-200297Y-18513470D01*
X-170678Y-18517370D01*
X-130890Y-18533850D01*
X-92292Y-18545184D01*
X-71918Y-18558277D01*
X-50172Y-18567285D01*
X-10324Y-18597861D01*
X27430Y-18622125D01*
X39601Y-18636171D01*
X53309Y-18646690D01*
X88845Y-18693002D01*
X120627Y-18729680D01*
X125974Y-18741390D01*
X132714Y-18750173D01*
X159326Y-18814421D01*
X179746Y-18859134D01*
X180755Y-18866154D01*
X182629Y-18870678D01*
X195900Y-18971484D01*
X200000Y-19000000D01*
X195899Y-19028517D01*
X182629Y-19129321D01*
X180755Y-19133843D01*
X179746Y-19140866D01*
X159324Y-19185583D01*
X132714Y-19249827D01*
X125974Y-19258609D01*
X120627Y-19270320D01*
X88841Y-19307002D01*
X53309Y-19353309D01*
X39604Y-19363825D01*
X27430Y-19377875D01*
X-10332Y-19402143D01*
X-50172Y-19432714D01*
X-71913Y-19441719D01*
X-92292Y-19454816D01*
X-130898Y-19466151D01*
X-170678Y-19482629D01*
X-200291Y-19486527D01*
X-228843Y-19494911D01*
X-263972Y-19494911D01*
X-300000Y-19499654D01*
X-336028Y-19494911D01*
X-371157Y-19494911D01*
X-399708Y-19486527D01*
X-429321Y-19482629D01*
X-469097Y-19466152D01*
X-507708Y-19454816D01*
X-528087Y-19441718D01*
X-549827Y-19432714D01*
X-589663Y-19402145D01*
X-627430Y-19377875D01*
X-639604Y-19363824D01*
X-653309Y-19353309D01*
X-688841Y-19307002D01*
X-720627Y-19270320D01*
X-725974Y-19258609D01*
X-732714Y-19249827D01*
X-759324Y-19185583D01*
X-779746Y-19140866D01*
X-780755Y-19133843D01*
X-782629Y-19129321D01*
X-795899Y-19028517D01*
X-800000Y-19000000D01*
X-795900Y-18971484D01*
X-782629Y-18870678D01*
X-780755Y-18866154D01*
X-779746Y-18859134D01*
X-759326Y-18814421D01*
X-732714Y-18750173D01*
X-725974Y-18741390D01*
X-720627Y-18729680D01*
X-688845Y-18693002D01*
X-653309Y-18646690D01*
X-639602Y-18636172D01*
X-627430Y-18622125D01*
X-589668Y-18597856D01*
X-549826Y-18567285D01*
X-528084Y-18558279D01*
X-507708Y-18545184D01*
X-469104Y-18533849D01*
X-429321Y-18517370D01*
X-399702Y-18513470D01*
X-371157Y-18505089D01*
X-336035Y-18505089D01*
X-300000Y-18500345D01*
X-263965Y-18505089D01*
G37*
G36*
X3436035Y-14905089D02*
G01*
X3471157Y-14905089D01*
X3499702Y-14913470D01*
X3529321Y-14917370D01*
X3569106Y-14933849D01*
X3607708Y-14945184D01*
X3628083Y-14958278D01*
X3649827Y-14967285D01*
X3689671Y-14997859D01*
X3727430Y-15022125D01*
X3739601Y-15036172D01*
X3753309Y-15046690D01*
X3788845Y-15093002D01*
X3820627Y-15129680D01*
X3825974Y-15141390D01*
X3832714Y-15150173D01*
X3859326Y-15214421D01*
X3879746Y-15259134D01*
X3880755Y-15266154D01*
X3882629Y-15270678D01*
X3895900Y-15371484D01*
X3900000Y-15400000D01*
X3895899Y-15428517D01*
X3882629Y-15529321D01*
X3880755Y-15533843D01*
X3879746Y-15540866D01*
X3859324Y-15585583D01*
X3832714Y-15649827D01*
X3825974Y-15658609D01*
X3820627Y-15670320D01*
X3788841Y-15707002D01*
X3753309Y-15753309D01*
X3739604Y-15763824D01*
X3727430Y-15777875D01*
X3689663Y-15802145D01*
X3649827Y-15832714D01*
X3628087Y-15841718D01*
X3607708Y-15854816D01*
X3569097Y-15866152D01*
X3529321Y-15882629D01*
X3499708Y-15886527D01*
X3471157Y-15894911D01*
X3436028Y-15894911D01*
X3400000Y-15899654D01*
X3363972Y-15894911D01*
X3328843Y-15894911D01*
X3300291Y-15886527D01*
X3270678Y-15882629D01*
X3230898Y-15866151D01*
X3192292Y-15854816D01*
X3171913Y-15841719D01*
X3150172Y-15832714D01*
X3110330Y-15802142D01*
X3072570Y-15777875D01*
X3060397Y-15763827D01*
X3046690Y-15753309D01*
X3011149Y-15706992D01*
X2979373Y-15670320D01*
X2974026Y-15658612D01*
X2967285Y-15649827D01*
X2940665Y-15585560D01*
X2920254Y-15540866D01*
X2919244Y-15533847D01*
X2917370Y-15529321D01*
X2904088Y-15428435D01*
X2900000Y-15400000D01*
X2904088Y-15371567D01*
X2917370Y-15270678D01*
X2919245Y-15266151D01*
X2920254Y-15259134D01*
X2940662Y-15214444D01*
X2967285Y-15150173D01*
X2974026Y-15141387D01*
X2979373Y-15129680D01*
X3011145Y-15093012D01*
X3046690Y-15046690D01*
X3060399Y-15036170D01*
X3072570Y-15022125D01*
X3110325Y-14997860D01*
X3150173Y-14967285D01*
X3171916Y-14958278D01*
X3192292Y-14945184D01*
X3230891Y-14933850D01*
X3270678Y-14917370D01*
X3300297Y-14913470D01*
X3328843Y-14905089D01*
X3363965Y-14905089D01*
X3400000Y-14900345D01*
X3436035Y-14905089D01*
G37*
G36*
X-563965Y-14705089D02*
G01*
X-528843Y-14705089D01*
X-500297Y-14713470D01*
X-470678Y-14717370D01*
X-430890Y-14733850D01*
X-392292Y-14745184D01*
X-371918Y-14758277D01*
X-350172Y-14767285D01*
X-310322Y-14797863D01*
X-272570Y-14822125D01*
X-260400Y-14836169D01*
X-246690Y-14846690D01*
X-211145Y-14893012D01*
X-179373Y-14929680D01*
X-174026Y-14941387D01*
X-167285Y-14950173D01*
X-140662Y-15014444D01*
X-120254Y-15059134D01*
X-119245Y-15066151D01*
X-117370Y-15070678D01*
X-104088Y-15171567D01*
X-100000Y-15200000D01*
X-104088Y-15228435D01*
X-117370Y-15329321D01*
X-119244Y-15333847D01*
X-120254Y-15340866D01*
X-140665Y-15385560D01*
X-167285Y-15449827D01*
X-174026Y-15458612D01*
X-179373Y-15470320D01*
X-211149Y-15506992D01*
X-246690Y-15553309D01*
X-260397Y-15563827D01*
X-272570Y-15577875D01*
X-310330Y-15602142D01*
X-350172Y-15632714D01*
X-371913Y-15641719D01*
X-392292Y-15654816D01*
X-430898Y-15666151D01*
X-470678Y-15682629D01*
X-500291Y-15686527D01*
X-528843Y-15694911D01*
X-563972Y-15694911D01*
X-600000Y-15699654D01*
X-636028Y-15694911D01*
X-671157Y-15694911D01*
X-699708Y-15686527D01*
X-729321Y-15682629D01*
X-769097Y-15666152D01*
X-807708Y-15654816D01*
X-828087Y-15641718D01*
X-849827Y-15632714D01*
X-889663Y-15602145D01*
X-927430Y-15577875D01*
X-939604Y-15563824D01*
X-953309Y-15553309D01*
X-988841Y-15507002D01*
X-1020627Y-15470320D01*
X-1025974Y-15458609D01*
X-1032714Y-15449827D01*
X-1059324Y-15385583D01*
X-1079746Y-15340866D01*
X-1080755Y-15333843D01*
X-1082629Y-15329321D01*
X-1095899Y-15228517D01*
X-1100000Y-15200000D01*
X-1095900Y-15171484D01*
X-1082629Y-15070678D01*
X-1080755Y-15066154D01*
X-1079746Y-15059134D01*
X-1059326Y-15014421D01*
X-1032714Y-14950173D01*
X-1025974Y-14941390D01*
X-1020627Y-14929680D01*
X-988845Y-14893002D01*
X-953309Y-14846690D01*
X-939602Y-14836172D01*
X-927430Y-14822125D01*
X-889668Y-14797856D01*
X-849826Y-14767285D01*
X-828084Y-14758279D01*
X-807708Y-14745184D01*
X-769104Y-14733849D01*
X-729321Y-14717370D01*
X-699702Y-14713470D01*
X-671157Y-14705089D01*
X-636035Y-14705089D01*
X-600000Y-14700345D01*
X-563965Y-14705089D01*
G37*
G36*
X-13054329Y-14069741D02*
G01*
X-13019511Y-14069741D01*
X-12991212Y-14078050D01*
X-12961894Y-14081910D01*
X-12922509Y-14098223D01*
X-12884245Y-14109459D01*
X-12864048Y-14122438D01*
X-12842522Y-14131355D01*
X-12803076Y-14161622D01*
X-12765647Y-14185677D01*
X-12753581Y-14199601D01*
X-12740013Y-14210013D01*
X-12704833Y-14255860D01*
X-12673327Y-14292221D01*
X-12668025Y-14303829D01*
X-12661355Y-14312523D01*
X-12635019Y-14376101D01*
X-12614763Y-14420458D01*
X-12613761Y-14427424D01*
X-12611910Y-14431894D01*
X-12598789Y-14531555D01*
X-12594700Y-14560000D01*
X-12598790Y-14588447D01*
X-12611910Y-14688105D01*
X-12613761Y-14692574D01*
X-12614763Y-14699542D01*
X-12635022Y-14743903D01*
X-12661355Y-14807477D01*
X-12668025Y-14816169D01*
X-12673327Y-14827779D01*
X-12704837Y-14864144D01*
X-12740013Y-14909986D01*
X-12753578Y-14920395D01*
X-12765647Y-14934323D01*
X-12803084Y-14958382D01*
X-12842522Y-14988644D01*
X-12864043Y-14997558D01*
X-12884245Y-15010541D01*
X-12922517Y-15021778D01*
X-12961894Y-15038089D01*
X-12991206Y-15041947D01*
X-13019511Y-15050259D01*
X-13054337Y-15050259D01*
X-13090000Y-15054954D01*
X-13125663Y-15050259D01*
X-13160489Y-15050259D01*
X-13188794Y-15041947D01*
X-13218105Y-15038089D01*
X-13257478Y-15021779D01*
X-13295755Y-15010541D01*
X-13315958Y-14997557D01*
X-13337477Y-14988644D01*
X-13376909Y-14958386D01*
X-13414353Y-14934323D01*
X-13426423Y-14920393D01*
X-13439986Y-14909986D01*
X-13475153Y-14864154D01*
X-13506673Y-14827779D01*
X-13511976Y-14816166D01*
X-13518644Y-14807477D01*
X-13544966Y-14743927D01*
X-13565237Y-14699542D01*
X-13566239Y-14692570D01*
X-13568089Y-14688105D01*
X-13581198Y-14588529D01*
X-13585300Y-14560000D01*
X-13581198Y-14531472D01*
X-13568089Y-14431894D01*
X-13566239Y-14427428D01*
X-13565237Y-14420458D01*
X-13544969Y-14376078D01*
X-13518644Y-14312523D01*
X-13511976Y-14303833D01*
X-13506673Y-14292221D01*
X-13475157Y-14255850D01*
X-13439986Y-14210013D01*
X-13426420Y-14199604D01*
X-13414353Y-14185677D01*
X-13376913Y-14161616D01*
X-13337476Y-14131355D01*
X-13315955Y-14122440D01*
X-13295755Y-14109459D01*
X-13257486Y-14098222D01*
X-13218105Y-14081910D01*
X-13188788Y-14078050D01*
X-13160489Y-14069741D01*
X-13125670Y-14069741D01*
X-13089999Y-14065045D01*
X-13054329Y-14069741D01*
G37*
G36*
X-14114749Y10333992D02*
G01*
X-14079620Y10333992D01*
X-14051068Y10325608D01*
X-14021455Y10321710D01*
X-13981675Y10305232D01*
X-13943069Y10293897D01*
X-13922690Y10280800D01*
X-13900949Y10271795D01*
X-13861107Y10241223D01*
X-13823347Y10216956D01*
X-13811174Y10202908D01*
X-13797467Y10192390D01*
X-13761929Y10146076D01*
X-13730150Y10109401D01*
X-13724802Y10097691D01*
X-13718062Y10088907D01*
X-13691444Y10024645D01*
X-13671031Y9979947D01*
X-13670021Y9972928D01*
X-13668147Y9968402D01*
X-13654865Y9867516D01*
X-13650777Y9839081D01*
X-13654865Y9810648D01*
X-13668147Y9709759D01*
X-13670022Y9705232D01*
X-13671031Y9698215D01*
X-13691437Y9653530D01*
X-13718062Y9589253D01*
X-13724804Y9580465D01*
X-13730150Y9568761D01*
X-13761919Y9532096D01*
X-13797467Y9485771D01*
X-13811177Y9475250D01*
X-13823347Y9461206D01*
X-13861099Y9436944D01*
X-13900949Y9406366D01*
X-13922695Y9397358D01*
X-13943069Y9384265D01*
X-13981667Y9372931D01*
X-14021455Y9356451D01*
X-14051074Y9352551D01*
X-14079620Y9344170D01*
X-14114742Y9344170D01*
X-14150777Y9339426D01*
X-14186812Y9344170D01*
X-14221934Y9344170D01*
X-14250479Y9352551D01*
X-14280098Y9356451D01*
X-14319883Y9372930D01*
X-14358485Y9384265D01*
X-14378860Y9397359D01*
X-14400604Y9406366D01*
X-14440448Y9436940D01*
X-14478207Y9461206D01*
X-14490378Y9475253D01*
X-14504086Y9485771D01*
X-14539625Y9532086D01*
X-14571404Y9568761D01*
X-14576750Y9580469D01*
X-14583491Y9589253D01*
X-14610105Y9653506D01*
X-14630523Y9698215D01*
X-14631532Y9705235D01*
X-14633406Y9709759D01*
X-14646677Y9810565D01*
X-14650777Y9839081D01*
X-14646676Y9867598D01*
X-14633406Y9968402D01*
X-14631532Y9972924D01*
X-14630523Y9979947D01*
X-14610099Y10024669D01*
X-14583491Y10088907D01*
X-14576753Y10097688D01*
X-14571404Y10109401D01*
X-14539615Y10146086D01*
X-14504086Y10192390D01*
X-14490381Y10202905D01*
X-14478207Y10216956D01*
X-14440436Y10241229D01*
X-14400603Y10271795D01*
X-14378866Y10280798D01*
X-14358485Y10293897D01*
X-14319873Y10305234D01*
X-14280098Y10321710D01*
X-14250485Y10325608D01*
X-14221934Y10333992D01*
X-14186805Y10333992D01*
X-14150777Y10338735D01*
X-14114749Y10333992D01*
G37*
G36*
X-9163972Y12094911D02*
G01*
X-9128843Y12094911D01*
X-9100291Y12086527D01*
X-9070678Y12082629D01*
X-9030898Y12066151D01*
X-8992292Y12054816D01*
X-8971913Y12041719D01*
X-8950172Y12032714D01*
X-8910330Y12002142D01*
X-8872570Y11977875D01*
X-8860397Y11963827D01*
X-8846690Y11953309D01*
X-8811152Y11906995D01*
X-8779373Y11870320D01*
X-8774025Y11858610D01*
X-8767285Y11849826D01*
X-8740667Y11785564D01*
X-8720254Y11740866D01*
X-8719244Y11733847D01*
X-8717370Y11729321D01*
X-8704088Y11628435D01*
X-8700000Y11600000D01*
X-8704088Y11571567D01*
X-8717370Y11470678D01*
X-8719245Y11466151D01*
X-8720254Y11459134D01*
X-8740660Y11414449D01*
X-8767285Y11350172D01*
X-8774027Y11341384D01*
X-8779373Y11329680D01*
X-8811142Y11293015D01*
X-8846690Y11246690D01*
X-8860400Y11236169D01*
X-8872570Y11222125D01*
X-8910322Y11197863D01*
X-8950172Y11167285D01*
X-8971918Y11158277D01*
X-8992292Y11145184D01*
X-9030890Y11133850D01*
X-9070678Y11117370D01*
X-9100297Y11113470D01*
X-9128843Y11105089D01*
X-9163965Y11105089D01*
X-9200000Y11100345D01*
X-9236035Y11105089D01*
X-9271157Y11105089D01*
X-9299702Y11113470D01*
X-9329321Y11117370D01*
X-9369106Y11133849D01*
X-9407708Y11145184D01*
X-9428083Y11158278D01*
X-9449827Y11167285D01*
X-9489671Y11197859D01*
X-9527430Y11222125D01*
X-9539601Y11236172D01*
X-9553309Y11246690D01*
X-9588848Y11293005D01*
X-9620627Y11329680D01*
X-9625973Y11341388D01*
X-9632714Y11350172D01*
X-9659328Y11414425D01*
X-9679746Y11459134D01*
X-9680755Y11466154D01*
X-9682629Y11470678D01*
X-9695900Y11571484D01*
X-9700000Y11600000D01*
X-9695899Y11628517D01*
X-9682629Y11729321D01*
X-9680755Y11733843D01*
X-9679746Y11740866D01*
X-9659322Y11785588D01*
X-9632714Y11849826D01*
X-9625976Y11858607D01*
X-9620627Y11870320D01*
X-9588838Y11907005D01*
X-9553309Y11953309D01*
X-9539604Y11963824D01*
X-9527430Y11977875D01*
X-9489659Y12002148D01*
X-9449826Y12032714D01*
X-9428089Y12041717D01*
X-9407708Y12054816D01*
X-9369096Y12066153D01*
X-9329321Y12082629D01*
X-9299708Y12086527D01*
X-9271157Y12094911D01*
X-9236028Y12094911D01*
X-9200000Y12099654D01*
X-9163972Y12094911D01*
G37*
G36*
X-11863972Y16394911D02*
G01*
X-11828843Y16394911D01*
X-11800291Y16386527D01*
X-11770678Y16382629D01*
X-11730898Y16366151D01*
X-11692292Y16354816D01*
X-11671913Y16341719D01*
X-11650172Y16332714D01*
X-11610330Y16302142D01*
X-11572570Y16277875D01*
X-11560397Y16263827D01*
X-11546690Y16253309D01*
X-11511152Y16206995D01*
X-11479373Y16170320D01*
X-11474025Y16158610D01*
X-11467285Y16149826D01*
X-11440667Y16085564D01*
X-11420254Y16040866D01*
X-11419244Y16033847D01*
X-11417370Y16029321D01*
X-11404088Y15928435D01*
X-11400000Y15900000D01*
X-11404088Y15871567D01*
X-11417370Y15770678D01*
X-11419245Y15766151D01*
X-11420254Y15759134D01*
X-11440660Y15714449D01*
X-11467285Y15650172D01*
X-11474027Y15641384D01*
X-11479373Y15629680D01*
X-11511142Y15593015D01*
X-11546690Y15546690D01*
X-11560400Y15536169D01*
X-11572570Y15522125D01*
X-11610322Y15497863D01*
X-11650172Y15467285D01*
X-11671918Y15458277D01*
X-11692292Y15445184D01*
X-11730890Y15433850D01*
X-11770678Y15417370D01*
X-11800297Y15413470D01*
X-11828843Y15405089D01*
X-11863965Y15405089D01*
X-11900000Y15400345D01*
X-11936035Y15405089D01*
X-11971157Y15405089D01*
X-11999702Y15413470D01*
X-12029321Y15417370D01*
X-12069106Y15433849D01*
X-12107708Y15445184D01*
X-12128083Y15458278D01*
X-12149827Y15467285D01*
X-12189671Y15497859D01*
X-12227430Y15522125D01*
X-12239601Y15536172D01*
X-12253309Y15546690D01*
X-12288848Y15593005D01*
X-12320627Y15629680D01*
X-12325973Y15641388D01*
X-12332714Y15650172D01*
X-12359328Y15714425D01*
X-12379746Y15759134D01*
X-12380755Y15766154D01*
X-12382629Y15770678D01*
X-12395900Y15871484D01*
X-12400000Y15900000D01*
X-12395899Y15928517D01*
X-12382629Y16029321D01*
X-12380755Y16033843D01*
X-12379746Y16040866D01*
X-12359322Y16085588D01*
X-12332714Y16149826D01*
X-12325976Y16158607D01*
X-12320627Y16170320D01*
X-12288838Y16207005D01*
X-12253309Y16253309D01*
X-12239604Y16263824D01*
X-12227430Y16277875D01*
X-12189659Y16302148D01*
X-12149826Y16332714D01*
X-12128089Y16341717D01*
X-12107708Y16354816D01*
X-12069096Y16366153D01*
X-12029321Y16382629D01*
X-11999708Y16386527D01*
X-11971157Y16394911D01*
X-11936028Y16394911D01*
X-11900000Y16399654D01*
X-11863972Y16394911D01*
G37*
G36*
X-9463972Y17194911D02*
G01*
X-9428843Y17194911D01*
X-9400291Y17186527D01*
X-9370678Y17182629D01*
X-9330898Y17166151D01*
X-9292292Y17154816D01*
X-9271913Y17141719D01*
X-9250172Y17132714D01*
X-9210330Y17102142D01*
X-9172570Y17077875D01*
X-9160397Y17063827D01*
X-9146690Y17053309D01*
X-9111152Y17006995D01*
X-9079373Y16970320D01*
X-9074025Y16958610D01*
X-9067285Y16949826D01*
X-9040667Y16885564D01*
X-9020254Y16840866D01*
X-9019244Y16833847D01*
X-9017370Y16829321D01*
X-9004088Y16728435D01*
X-9000000Y16700000D01*
X-9004088Y16671567D01*
X-9017370Y16570678D01*
X-9019245Y16566151D01*
X-9020254Y16559134D01*
X-9040660Y16514449D01*
X-9067285Y16450172D01*
X-9074027Y16441384D01*
X-9079373Y16429680D01*
X-9111142Y16393015D01*
X-9146690Y16346690D01*
X-9160400Y16336169D01*
X-9172570Y16322125D01*
X-9210322Y16297863D01*
X-9250172Y16267285D01*
X-9271918Y16258277D01*
X-9292292Y16245184D01*
X-9330890Y16233850D01*
X-9370678Y16217370D01*
X-9400297Y16213470D01*
X-9428843Y16205089D01*
X-9463965Y16205089D01*
X-9500000Y16200345D01*
X-9536035Y16205089D01*
X-9571157Y16205089D01*
X-9599702Y16213470D01*
X-9629321Y16217370D01*
X-9669106Y16233849D01*
X-9707708Y16245184D01*
X-9728083Y16258278D01*
X-9749827Y16267285D01*
X-9789671Y16297859D01*
X-9827430Y16322125D01*
X-9839601Y16336172D01*
X-9853309Y16346690D01*
X-9888848Y16393005D01*
X-9920627Y16429680D01*
X-9925973Y16441388D01*
X-9932714Y16450172D01*
X-9959328Y16514425D01*
X-9979746Y16559134D01*
X-9980755Y16566154D01*
X-9982629Y16570678D01*
X-9995900Y16671484D01*
X-10000000Y16700000D01*
X-9995899Y16728517D01*
X-9982629Y16829321D01*
X-9980755Y16833843D01*
X-9979746Y16840866D01*
X-9959322Y16885588D01*
X-9932714Y16949826D01*
X-9925976Y16958607D01*
X-9920627Y16970320D01*
X-9888838Y17007005D01*
X-9853309Y17053309D01*
X-9839604Y17063824D01*
X-9827430Y17077875D01*
X-9789659Y17102148D01*
X-9749826Y17132714D01*
X-9728089Y17141717D01*
X-9707708Y17154816D01*
X-9669096Y17166153D01*
X-9629321Y17182629D01*
X-9599708Y17186527D01*
X-9571157Y17194911D01*
X-9536028Y17194911D01*
X-9500000Y17199654D01*
X-9463972Y17194911D01*
G37*
G36*
X-2194507Y41557761D02*
G01*
X-2055758Y41484940D01*
X-1938468Y41381030D01*
X-1849454Y41252070D01*
X-1793888Y41105555D01*
X-1775000Y40950000D01*
X-1793888Y40794445D01*
X-1849454Y40647930D01*
X-1938468Y40518970D01*
X-2055758Y40415060D01*
X-2194507Y40342239D01*
X-2346651Y40304739D01*
X-2503349Y40304739D01*
X-2655493Y40342239D01*
X-2794242Y40415060D01*
X-2911532Y40518970D01*
X-3000546Y40647930D01*
X-3056112Y40794445D01*
X-3075000Y40950000D01*
X-3056112Y41105555D01*
X-3000546Y41252070D01*
X-2911532Y41381030D01*
X-2794242Y41484940D01*
X-2655493Y41557761D01*
X-2503349Y41595261D01*
X-2346651Y41595261D01*
X-2194507Y41557761D01*
G37*
G36*
X2655493Y41557761D02*
G01*
X2794242Y41484940D01*
X2911532Y41381030D01*
X3000546Y41252070D01*
X3056112Y41105555D01*
X3075000Y40950000D01*
X3056112Y40794445D01*
X3000546Y40647930D01*
X2911532Y40518970D01*
X2794242Y40415060D01*
X2655493Y40342239D01*
X2503349Y40304739D01*
X2346651Y40304739D01*
X2194507Y40342239D01*
X2055758Y40415060D01*
X1938468Y40518970D01*
X1849454Y40647930D01*
X1793888Y40794445D01*
X1775000Y40950000D01*
X1793888Y41105555D01*
X1849454Y41252070D01*
X1938468Y41381030D01*
X2055758Y41484940D01*
X2194507Y41557761D01*
X2346651Y41595261D01*
X2503349Y41595261D01*
X2655493Y41557761D01*
G37*
G36*
X-13817798Y46423235D02*
G01*
X-13741381Y46423235D01*
X-13658989Y46412826D01*
X-13580500Y46407682D01*
X-13514762Y46394605D01*
X-13445477Y46385853D01*
X-13358536Y46363530D01*
X-13275805Y46347074D01*
X-13217938Y46327431D01*
X-13156612Y46311685D01*
X-13066809Y46276129D01*
X-12981627Y46247214D01*
X-12932142Y46222811D01*
X-12879305Y46201891D01*
X-12788563Y46152005D01*
X-12703000Y46109810D01*
X-12662099Y46082481D01*
X-12617956Y46058213D01*
X-12528383Y45993134D01*
X-12444692Y45937214D01*
X-12412222Y45908739D01*
X-12376666Y45882906D01*
X-12290517Y45802007D01*
X-12211121Y45732379D01*
X-12186623Y45704444D01*
X-12159257Y45678746D01*
X-12078880Y45581586D01*
X-12006286Y45498808D01*
X-11989004Y45472944D01*
X-11969149Y45448943D01*
X-11896935Y45335153D01*
X-11833690Y45240500D01*
X-11822618Y45218049D01*
X-11809340Y45197126D01*
X-11747664Y45066058D01*
X-11696286Y44961873D01*
X-11690193Y44943924D01*
X-11682353Y44927263D01*
X-11633517Y44776962D01*
X-11596426Y44667695D01*
X-11593919Y44655091D01*
X-11590191Y44643618D01*
X-11556361Y44466279D01*
X-11535818Y44363000D01*
X-11535377Y44356275D01*
X-11534306Y44350660D01*
X-11517470Y44083062D01*
X-11515500Y44053000D01*
X-11517470Y44022940D01*
X-11534306Y43755339D01*
X-11535377Y43749722D01*
X-11535818Y43743000D01*
X-11556357Y43639743D01*
X-11590191Y43462381D01*
X-11593919Y43450905D01*
X-11596426Y43438305D01*
X-11633509Y43329059D01*
X-11682353Y43178736D01*
X-11690194Y43162071D01*
X-11696286Y43144127D01*
X-11747654Y43039962D01*
X-11809340Y42908873D01*
X-11822621Y42887945D01*
X-11833690Y42865500D01*
X-11896923Y42770864D01*
X-11969149Y42657056D01*
X-11989007Y42633050D01*
X-12006286Y42607192D01*
X-12078865Y42524430D01*
X-12159257Y42427253D01*
X-12186628Y42401549D01*
X-12211121Y42373621D01*
X-12290501Y42304006D01*
X-12376666Y42223093D01*
X-12412229Y42197254D01*
X-12444692Y42168786D01*
X-12528365Y42112876D01*
X-12617956Y42047786D01*
X-12662107Y42023513D01*
X-12703000Y41996190D01*
X-12788545Y41954003D01*
X-12879305Y41904108D01*
X-12932153Y41883183D01*
X-12981627Y41858786D01*
X-13066792Y41829876D01*
X-13156612Y41794314D01*
X-13217950Y41778564D01*
X-13275805Y41758926D01*
X-13358518Y41742473D01*
X-13445477Y41720146D01*
X-13514773Y41711391D01*
X-13580500Y41698318D01*
X-13658984Y41693173D01*
X-13741381Y41682765D01*
X-13817798Y41682765D01*
X-13890500Y41678000D01*
X-13963202Y41682765D01*
X-14039619Y41682765D01*
X-14122014Y41693173D01*
X-14200500Y41698318D01*
X-14266227Y41711392D01*
X-14335522Y41720146D01*
X-14422476Y41742472D01*
X-14505195Y41758926D01*
X-14563052Y41778565D01*
X-14624387Y41794314D01*
X-14714200Y41829873D01*
X-14799373Y41858786D01*
X-14848850Y41883185D01*
X-14901694Y41904108D01*
X-14992444Y41953998D01*
X-15078000Y41996190D01*
X-15118896Y42023516D01*
X-15163043Y42047786D01*
X-15252621Y42112868D01*
X-15336308Y42168786D01*
X-15368775Y42197258D01*
X-15404333Y42223093D01*
X-15490483Y42303993D01*
X-15569879Y42373621D01*
X-15594376Y42401554D01*
X-15621742Y42427253D01*
X-15702116Y42524410D01*
X-15774714Y42607192D01*
X-15791996Y42633056D01*
X-15811850Y42657056D01*
X-15884056Y42770835D01*
X-15947310Y42865500D01*
X-15958382Y42887952D01*
X-15971659Y42908873D01*
X-16033323Y43039917D01*
X-16084714Y43144127D01*
X-16090807Y43162079D01*
X-16098646Y43178736D01*
X-16147466Y43328991D01*
X-16184574Y43438305D01*
X-16187082Y43450913D01*
X-16190808Y43462381D01*
X-16224618Y43639620D01*
X-16245182Y43743000D01*
X-16245623Y43749730D01*
X-16246693Y43755339D01*
X-16263527Y44022901D01*
X-16265500Y44053000D01*
X-16263527Y44083100D01*
X-16246693Y44350660D01*
X-16245623Y44356267D01*
X-16245182Y44363000D01*
X-16224613Y44466402D01*
X-16190808Y44643618D01*
X-16187082Y44655083D01*
X-16184574Y44667695D01*
X-16147459Y44777031D01*
X-16098646Y44927263D01*
X-16090809Y44943917D01*
X-16084714Y44961873D01*
X-16033313Y45066103D01*
X-15971659Y45197126D01*
X-15958384Y45218042D01*
X-15947310Y45240500D01*
X-15884044Y45335183D01*
X-15811850Y45448943D01*
X-15791999Y45472937D01*
X-15774714Y45498808D01*
X-15702102Y45581606D01*
X-15621742Y45678746D01*
X-15594381Y45704439D01*
X-15569879Y45732379D01*
X-15490467Y45802020D01*
X-15404333Y45882906D01*
X-15368781Y45908735D01*
X-15336308Y45937214D01*
X-15252604Y45993142D01*
X-15163043Y46058213D01*
X-15118905Y46082477D01*
X-15078000Y46109810D01*
X-14992427Y46152010D01*
X-14901694Y46201891D01*
X-14848861Y46222809D01*
X-14799373Y46247214D01*
X-14714183Y46276132D01*
X-14624387Y46311685D01*
X-14563064Y46327429D01*
X-14505195Y46347074D01*
X-14422459Y46363531D01*
X-14335522Y46385853D01*
X-14266238Y46394605D01*
X-14200500Y46407682D01*
X-14122009Y46412826D01*
X-14039619Y46423235D01*
X-13963202Y46423235D01*
X-13890500Y46428000D01*
X-13817798Y46423235D01*
G37*
G36*
X13963202Y46423235D02*
G01*
X14039619Y46423235D01*
X14122009Y46412826D01*
X14200500Y46407682D01*
X14266238Y46394605D01*
X14335522Y46385853D01*
X14422459Y46363531D01*
X14505195Y46347074D01*
X14563064Y46327429D01*
X14624387Y46311685D01*
X14714183Y46276132D01*
X14799373Y46247214D01*
X14848861Y46222809D01*
X14901694Y46201891D01*
X14992427Y46152010D01*
X15078000Y46109810D01*
X15118905Y46082477D01*
X15163043Y46058213D01*
X15252604Y45993142D01*
X15336308Y45937214D01*
X15368781Y45908735D01*
X15404333Y45882906D01*
X15490467Y45802020D01*
X15569879Y45732379D01*
X15594381Y45704439D01*
X15621742Y45678746D01*
X15702102Y45581606D01*
X15774714Y45498808D01*
X15791999Y45472937D01*
X15811850Y45448943D01*
X15884044Y45335183D01*
X15947310Y45240500D01*
X15958384Y45218042D01*
X15971659Y45197126D01*
X16033313Y45066103D01*
X16084714Y44961873D01*
X16090809Y44943917D01*
X16098646Y44927263D01*
X16147459Y44777031D01*
X16184574Y44667695D01*
X16187082Y44655083D01*
X16190808Y44643618D01*
X16224613Y44466402D01*
X16245182Y44363000D01*
X16245623Y44356267D01*
X16246693Y44350660D01*
X16263527Y44083100D01*
X16265500Y44053000D01*
X16263527Y44022901D01*
X16246693Y43755339D01*
X16245623Y43749730D01*
X16245182Y43743000D01*
X16224618Y43639620D01*
X16190808Y43462381D01*
X16187082Y43450913D01*
X16184574Y43438305D01*
X16147466Y43328991D01*
X16098646Y43178736D01*
X16090807Y43162079D01*
X16084714Y43144127D01*
X16033323Y43039917D01*
X15971659Y42908873D01*
X15958382Y42887952D01*
X15947310Y42865500D01*
X15884056Y42770835D01*
X15811850Y42657056D01*
X15791996Y42633056D01*
X15774714Y42607192D01*
X15702116Y42524410D01*
X15621742Y42427253D01*
X15594376Y42401554D01*
X15569879Y42373621D01*
X15490483Y42303993D01*
X15404333Y42223093D01*
X15368775Y42197258D01*
X15336308Y42168786D01*
X15252621Y42112868D01*
X15163043Y42047786D01*
X15118896Y42023516D01*
X15078000Y41996190D01*
X14992444Y41953998D01*
X14901694Y41904108D01*
X14848850Y41883185D01*
X14799373Y41858786D01*
X14714200Y41829873D01*
X14624387Y41794314D01*
X14563052Y41778565D01*
X14505195Y41758926D01*
X14422476Y41742472D01*
X14335522Y41720146D01*
X14266227Y41711392D01*
X14200500Y41698318D01*
X14122014Y41693173D01*
X14039619Y41682765D01*
X13963202Y41682765D01*
X13890500Y41678000D01*
X13817798Y41682765D01*
X13741381Y41682765D01*
X13658984Y41693173D01*
X13580500Y41698318D01*
X13514773Y41711391D01*
X13445477Y41720146D01*
X13358518Y41742473D01*
X13275805Y41758926D01*
X13217950Y41778564D01*
X13156612Y41794314D01*
X13066792Y41829876D01*
X12981627Y41858786D01*
X12932153Y41883183D01*
X12879305Y41904108D01*
X12788545Y41954003D01*
X12703000Y41996190D01*
X12662107Y42023513D01*
X12617956Y42047786D01*
X12528365Y42112876D01*
X12444692Y42168786D01*
X12412229Y42197254D01*
X12376666Y42223093D01*
X12290501Y42304006D01*
X12211121Y42373621D01*
X12186628Y42401549D01*
X12159257Y42427253D01*
X12078865Y42524430D01*
X12006286Y42607192D01*
X11989007Y42633050D01*
X11969149Y42657056D01*
X11896923Y42770864D01*
X11833690Y42865500D01*
X11822621Y42887945D01*
X11809340Y42908873D01*
X11747654Y43039962D01*
X11696286Y43144127D01*
X11690194Y43162071D01*
X11682353Y43178736D01*
X11633509Y43329059D01*
X11596426Y43438305D01*
X11593919Y43450905D01*
X11590191Y43462381D01*
X11556357Y43639743D01*
X11535818Y43743000D01*
X11535377Y43749722D01*
X11534306Y43755339D01*
X11517470Y44022940D01*
X11515500Y44053000D01*
X11517470Y44083062D01*
X11534306Y44350660D01*
X11535377Y44356275D01*
X11535818Y44363000D01*
X11556361Y44466279D01*
X11590191Y44643618D01*
X11593919Y44655091D01*
X11596426Y44667695D01*
X11633517Y44776962D01*
X11682353Y44927263D01*
X11690193Y44943924D01*
X11696286Y44961873D01*
X11747664Y45066058D01*
X11809340Y45197126D01*
X11822618Y45218049D01*
X11833690Y45240500D01*
X11896935Y45335153D01*
X11969149Y45448943D01*
X11989004Y45472944D01*
X12006286Y45498808D01*
X12078880Y45581586D01*
X12159257Y45678746D01*
X12186623Y45704444D01*
X12211121Y45732379D01*
X12290517Y45802007D01*
X12376666Y45882906D01*
X12412222Y45908739D01*
X12444692Y45937214D01*
X12528383Y45993134D01*
X12617956Y46058213D01*
X12662099Y46082481D01*
X12703000Y46109810D01*
X12788563Y46152005D01*
X12879305Y46201891D01*
X12932142Y46222811D01*
X12981627Y46247214D01*
X13066809Y46276129D01*
X13156612Y46311685D01*
X13217938Y46327431D01*
X13275805Y46347074D01*
X13358536Y46363530D01*
X13445477Y46385853D01*
X13514762Y46394605D01*
X13580500Y46407682D01*
X13658989Y46412826D01*
X13741381Y46423235D01*
X13817798Y46423235D01*
X13890500Y46428000D01*
X13963202Y46423235D01*
G37*
G36*
X-3546268Y44517580D02*
G01*
X-3491151Y44513810D01*
X-3475570Y44508272D01*
X-3461619Y44506436D01*
X-3408541Y44484451D01*
X-3353865Y44465019D01*
X-3342840Y44457236D01*
X-3332672Y44453025D01*
X-3284404Y44415987D01*
X-3234834Y44380997D01*
X-3228239Y44372890D01*
X-3221941Y44368058D01*
X-3182666Y44316874D01*
X-3142886Y44267977D01*
X-3139936Y44261187D01*
X-3136974Y44257326D01*
X-3110553Y44193540D01*
X-3084839Y44134341D01*
X-3084246Y44130030D01*
X-3083563Y44128380D01*
X-3073190Y44049594D01*
X-3065000Y43990000D01*
X-3065000Y43160000D01*
X-3069983Y43087151D01*
X-3079325Y43053807D01*
X-3083563Y43021619D01*
X-3098339Y42985945D01*
X-3109292Y42946855D01*
X-3125723Y42919835D01*
X-3136974Y42892673D01*
X-3162357Y42859592D01*
X-3184994Y42822368D01*
X-3205908Y42802835D01*
X-3221941Y42781941D01*
X-3257478Y42754672D01*
X-3291476Y42722921D01*
X-3314209Y42711141D01*
X-3332673Y42696974D01*
X-3376927Y42678643D01*
X-3420839Y42655890D01*
X-3442952Y42651294D01*
X-3461619Y42643563D01*
X-3512215Y42636901D01*
X-3563490Y42626247D01*
X-3583007Y42627582D01*
X-3600000Y42625345D01*
X-3653746Y42632420D01*
X-3708849Y42636190D01*
X-3724425Y42641725D01*
X-3738380Y42643563D01*
X-3791468Y42665552D01*
X-3846135Y42684981D01*
X-3857157Y42692761D01*
X-3867327Y42696974D01*
X-3915599Y42734014D01*
X-3965166Y42769003D01*
X-3971760Y42777108D01*
X-3978058Y42781941D01*
X-4017328Y42833120D01*
X-4057114Y42882023D01*
X-4060063Y42888813D01*
X-4063025Y42892673D01*
X-4089434Y42956430D01*
X-4115161Y43015659D01*
X-4115753Y43019972D01*
X-4116436Y43021619D01*
X-4126801Y43100351D01*
X-4135000Y43160000D01*
X-4135000Y43990000D01*
X-4130017Y44062849D01*
X-4120672Y44096198D01*
X-4116436Y44128380D01*
X-4101663Y44164043D01*
X-4090708Y44203145D01*
X-4074272Y44230172D01*
X-4063025Y44257326D01*
X-4037649Y44290396D01*
X-4015006Y44327632D01*
X-3994085Y44347170D01*
X-3978058Y44368058D01*
X-3942531Y44395317D01*
X-3908524Y44427079D01*
X-3885783Y44438862D01*
X-3867326Y44453025D01*
X-3823085Y44471349D01*
X-3779161Y44494110D01*
X-3757040Y44498706D01*
X-3738380Y44506436D01*
X-3687799Y44513095D01*
X-3636510Y44523753D01*
X-3616987Y44522417D01*
X-3600000Y44524654D01*
X-3546268Y44517580D01*
G37*
G36*
X3653730Y44517580D02*
G01*
X3708849Y44513810D01*
X3724430Y44508272D01*
X3738380Y44506436D01*
X3791451Y44484453D01*
X3846135Y44465019D01*
X3857161Y44457235D01*
X3867327Y44453025D01*
X3915583Y44415996D01*
X3965166Y44380997D01*
X3971762Y44372888D01*
X3978058Y44368058D01*
X4017315Y44316896D01*
X4057114Y44267977D01*
X4060064Y44261184D01*
X4063025Y44257326D01*
X4089425Y44193589D01*
X4115161Y44134341D01*
X4115754Y44130026D01*
X4116436Y44128380D01*
X4126798Y44049670D01*
X4135000Y43990000D01*
X4135000Y43160000D01*
X4130017Y43087151D01*
X4120673Y43053802D01*
X4116436Y43021619D01*
X4101662Y42985953D01*
X4090708Y42946855D01*
X4074273Y42919829D01*
X4063025Y42892673D01*
X4037646Y42859598D01*
X4015006Y42822368D01*
X3994088Y42802832D01*
X3978058Y42781941D01*
X3942525Y42754676D01*
X3908524Y42722921D01*
X3885787Y42711139D01*
X3867326Y42696974D01*
X3823076Y42678645D01*
X3779161Y42655890D01*
X3757045Y42651294D01*
X3738380Y42643563D01*
X3687786Y42636902D01*
X3636510Y42626247D01*
X3616992Y42627582D01*
X3600000Y42625345D01*
X3546252Y42632420D01*
X3491151Y42636190D01*
X3475574Y42641725D01*
X3461619Y42643563D01*
X3408524Y42665555D01*
X3353865Y42684981D01*
X3342843Y42692760D01*
X3332672Y42696974D01*
X3284388Y42734023D01*
X3234834Y42769003D01*
X3228241Y42777106D01*
X3221941Y42781941D01*
X3182653Y42833141D01*
X3142886Y42882023D01*
X3139937Y42888810D01*
X3136974Y42892673D01*
X3110544Y42956480D01*
X3084839Y43015659D01*
X3084246Y43019968D01*
X3083563Y43021619D01*
X3073187Y43100428D01*
X3065000Y43160000D01*
X3065000Y43990000D01*
X3069983Y44062849D01*
X3079325Y44096193D01*
X3083563Y44128380D01*
X3098338Y44164051D01*
X3109292Y44203145D01*
X3125724Y44230167D01*
X3136974Y44257326D01*
X3162354Y44290402D01*
X3184994Y44327632D01*
X3205910Y44347166D01*
X3221941Y44368058D01*
X3257472Y44395322D01*
X3291476Y44427079D01*
X3314213Y44438860D01*
X3332673Y44453025D01*
X3376918Y44471351D01*
X3420839Y44494110D01*
X3442957Y44498706D01*
X3461619Y44506436D01*
X3512201Y44513095D01*
X3563490Y44523753D01*
X3583012Y44522417D01*
X3600000Y44524654D01*
X3653730Y44517580D01*
G37*
M02*
