%TF.GenerationSoftware,KiCad,Pcbnew,7.0.6*%
%TF.CreationDate,2024-05-23T09:50:57-04:00*%
%TF.ProjectId,ActiveImpactor_Control,41637469-7665-4496-9d70-6163746f725f,rev?*%
%TF.SameCoordinates,Original*%
%TF.FileFunction,Legend,Top*%
%TF.FilePolarity,Positive*%
%FSLAX46Y46*%
G04 Gerber Fmt 4.6, Leading zero omitted, Abs format (unit mm)*
G04 Created by KiCad (PCBNEW 7.0.6) date 2024-05-23 09:50:57*
%MOMM*%
%LPD*%
G01*
G04 APERTURE LIST*
G04 Aperture macros list*
%AMRoundRect*
0 Rectangle with rounded corners*
0 $1 Rounding radius*
0 $2 $3 $4 $5 $6 $7 $8 $9 X,Y pos of 4 corners*
0 Add a 4 corners polygon primitive as box body*
4,1,4,$2,$3,$4,$5,$6,$7,$8,$9,$2,$3,0*
0 Add four circle primitives for the rounded corners*
1,1,$1+$1,$2,$3*
1,1,$1+$1,$4,$5*
1,1,$1+$1,$6,$7*
1,1,$1+$1,$8,$9*
0 Add four rect primitives between the rounded corners*
20,1,$1+$1,$2,$3,$4,$5,0*
20,1,$1+$1,$4,$5,$6,$7,0*
20,1,$1+$1,$6,$7,$8,$9,0*
20,1,$1+$1,$8,$9,$2,$3,0*%
%AMRotRect*
0 Rectangle, with rotation*
0 The origin of the aperture is its center*
0 $1 length*
0 $2 width*
0 $3 Rotation angle, in degrees counterclockwise*
0 Add horizontal line*
21,1,$1,$2,0,0,$3*%
%AMOutline4P*
0 Free polygon, 4 corners , with rotation*
0 The origin of the aperture is its center*
0 number of corners: always 4*
0 $1 to $8 corner X, Y*
0 $9 Rotation angle, in degrees counterclockwise*
0 create outline with 4 corners*
4,1,4,$1,$2,$3,$4,$5,$6,$7,$8,$1,$2,$9*%
%AMFreePoly0*
4,1,19,0.499999,-0.750000,0.000000,-0.750000,0.000000,-0.744912,-0.071157,-0.744911,-0.207708,-0.704816,-0.327430,-0.627875,-0.420627,-0.520320,-0.479746,-0.390866,-0.500000,-0.250000,-0.500000,0.250000,-0.479746,0.390866,-0.420627,0.520320,-0.327430,0.627875,-0.207708,0.704816,-0.071157,0.744911,0.000000,0.744912,0.000000,0.750000,0.499999,0.750000,0.499999,-0.750000,0.499999,-0.750000,
$1*%
%AMFreePoly1*
4,1,19,0.000000,0.744912,0.071157,0.744911,0.207708,0.704816,0.327430,0.627875,0.420627,0.520320,0.479746,0.390866,0.500000,0.250000,0.500000,-0.250000,0.479746,-0.390866,0.420627,-0.520320,0.327430,-0.627875,0.207708,-0.704816,0.071157,-0.744911,0.000000,-0.744912,0.000000,-0.750000,-0.499999,-0.750000,-0.499999,0.750000,0.000000,0.750000,0.000000,0.744912,0.000000,0.744912,
$1*%
G04 Aperture macros list end*
%ADD10C,0.150000*%
%ADD11C,0.200000*%
%ADD12C,0.120000*%
%ADD13C,0.152400*%
%ADD14RoundRect,0.135000X0.135000X0.185000X-0.135000X0.185000X-0.135000X-0.185000X0.135000X-0.185000X0*%
%ADD15RoundRect,0.225000X-0.017678X0.335876X-0.335876X0.017678X0.017678X-0.335876X0.335876X-0.017678X0*%
%ADD16RoundRect,0.140000X-0.219203X-0.021213X-0.021213X-0.219203X0.219203X0.021213X0.021213X0.219203X0*%
%ADD17RoundRect,0.135000X0.185000X-0.135000X0.185000X0.135000X-0.185000X0.135000X-0.185000X-0.135000X0*%
%ADD18C,1.000000*%
%ADD19RotRect,1.400000X1.200000X315.000000*%
%ADD20RoundRect,0.135000X-0.226274X-0.035355X-0.035355X-0.226274X0.226274X0.035355X0.035355X0.226274X0*%
%ADD21RoundRect,0.140000X-0.021213X0.219203X-0.219203X0.021213X0.021213X-0.219203X0.219203X-0.021213X0*%
%ADD22RoundRect,0.140000X0.140000X0.170000X-0.140000X0.170000X-0.140000X-0.170000X0.140000X-0.170000X0*%
%ADD23RoundRect,0.140000X0.170000X-0.140000X0.170000X0.140000X-0.170000X0.140000X-0.170000X-0.140000X0*%
%ADD24FreePoly0,135.000000*%
%ADD25FreePoly1,135.000000*%
%ADD26RoundRect,0.218750X0.218750X0.256250X-0.218750X0.256250X-0.218750X-0.256250X0.218750X-0.256250X0*%
%ADD27RoundRect,0.140000X-0.140000X-0.170000X0.140000X-0.170000X0.140000X0.170000X-0.140000X0.170000X0*%
%ADD28RoundRect,0.140000X0.021213X-0.219203X0.219203X-0.021213X-0.021213X0.219203X-0.219203X0.021213X0*%
%ADD29RoundRect,0.140000X0.219203X0.021213X0.021213X0.219203X-0.219203X-0.021213X-0.021213X-0.219203X0*%
%ADD30RoundRect,0.218750X-0.218750X-0.256250X0.218750X-0.256250X0.218750X0.256250X-0.218750X0.256250X0*%
%ADD31RoundRect,0.135000X-0.135000X-0.185000X0.135000X-0.185000X0.135000X0.185000X-0.135000X0.185000X0*%
%ADD32RoundRect,0.218750X0.256250X-0.218750X0.256250X0.218750X-0.256250X0.218750X-0.256250X-0.218750X0*%
%ADD33RoundRect,0.140000X-0.170000X0.140000X-0.170000X-0.140000X0.170000X-0.140000X0.170000X0.140000X0*%
%ADD34RoundRect,0.225000X-0.250000X0.225000X-0.250000X-0.225000X0.250000X-0.225000X0.250000X0.225000X0*%
%ADD35R,1.500000X2.000000*%
%ADD36R,3.800000X2.000000*%
%ADD37RoundRect,0.075000X0.387500X0.075000X-0.387500X0.075000X-0.387500X-0.075000X0.387500X-0.075000X0*%
%ADD38RoundRect,0.075000X0.075000X0.325000X-0.075000X0.325000X-0.075000X-0.325000X0.075000X-0.325000X0*%
%ADD39RoundRect,0.225000X0.250000X-0.225000X0.250000X0.225000X-0.250000X0.225000X-0.250000X-0.225000X0*%
%ADD40RoundRect,0.135000X-0.185000X0.135000X-0.185000X-0.135000X0.185000X-0.135000X0.185000X0.135000X0*%
%ADD41RoundRect,0.147500X-0.226274X-0.017678X-0.017678X-0.226274X0.226274X0.017678X0.017678X0.226274X0*%
%ADD42RoundRect,0.135000X-0.035355X0.226274X-0.226274X0.035355X0.035355X-0.226274X0.226274X-0.035355X0*%
%ADD43C,4.750000*%
%ADD44RoundRect,0.225000X-0.225000X-0.250000X0.225000X-0.250000X0.225000X0.250000X-0.225000X0.250000X0*%
%ADD45RoundRect,0.087500X-0.225000X-0.087500X0.225000X-0.087500X0.225000X0.087500X-0.225000X0.087500X0*%
%ADD46RoundRect,0.087500X-0.087500X-0.225000X0.087500X-0.225000X0.087500X0.225000X-0.087500X0.225000X0*%
%ADD47RoundRect,0.225000X0.225000X0.250000X-0.225000X0.250000X-0.225000X-0.250000X0.225000X-0.250000X0*%
%ADD48RoundRect,0.200000X-0.800000X0.200000X-0.800000X-0.200000X0.800000X-0.200000X0.800000X0.200000X0*%
%ADD49RoundRect,0.150000X-0.150000X-0.625000X0.150000X-0.625000X0.150000X0.625000X-0.150000X0.625000X0*%
%ADD50RoundRect,0.250000X-0.350000X-0.650000X0.350000X-0.650000X0.350000X0.650000X-0.350000X0.650000X0*%
%ADD51RoundRect,0.225000X0.335876X0.017678X0.017678X0.335876X-0.335876X-0.017678X-0.017678X-0.335876X0*%
%ADD52RoundRect,0.135000X0.226274X0.035355X0.035355X0.226274X-0.226274X-0.035355X-0.035355X-0.226274X0*%
%ADD53C,0.990600*%
%ADD54C,0.787400*%
%ADD55R,0.711200X2.006600*%
%ADD56R,2.692400X1.397000*%
%ADD57R,0.990600X2.590800*%
%ADD58R,1.193800X1.193800*%
%ADD59R,1.498600X2.590800*%
%ADD60R,1.510000X0.458000*%
%ADD61RoundRect,0.150000X0.150000X-0.512500X0.150000X0.512500X-0.150000X0.512500X-0.150000X-0.512500X0*%
%ADD62Outline4P,-0.200000X-0.625000X0.200000X-0.625000X0.200000X0.625000X-0.200000X0.625000X0.000000*%
%ADD63R,0.400000X1.250000*%
%ADD64O,1.070000X1.900000*%
%ADD65C,1.300000*%
%ADD66Outline4P,-0.300000X-0.675000X0.300000X-0.675000X0.300000X0.675000X-0.300000X0.675000X0.000000*%
%ADD67RoundRect,0.100000X0.100000X-0.637500X0.100000X0.637500X-0.100000X0.637500X-0.100000X-0.637500X0*%
%ADD68RoundRect,0.075000X0.521491X-0.415425X-0.415425X0.521491X-0.521491X0.415425X0.415425X-0.521491X0*%
%ADD69RoundRect,0.075000X0.521491X0.415425X0.415425X0.521491X-0.521491X-0.415425X-0.415425X-0.521491X0*%
G04 APERTURE END LIST*
D10*
X-11275736Y-33700000D02*
G75*
G03*
X-11275736Y-33700000I-424264J0D01*
G01*
D11*
X-11600000Y-33700000D02*
G75*
G03*
X-11600000Y-33700000I-100000J0D01*
G01*
D10*
X-9700000Y-33700000D02*
X-11275736Y-33700000D01*
X-11700000Y-31700000D02*
X-11700000Y-33275736D01*
X6257200Y-24876190D02*
X6304819Y-24733333D01*
X6304819Y-24733333D02*
X6304819Y-24495238D01*
X6304819Y-24495238D02*
X6257200Y-24400000D01*
X6257200Y-24400000D02*
X6209580Y-24352381D01*
X6209580Y-24352381D02*
X6114342Y-24304762D01*
X6114342Y-24304762D02*
X6019104Y-24304762D01*
X6019104Y-24304762D02*
X5923866Y-24352381D01*
X5923866Y-24352381D02*
X5876247Y-24400000D01*
X5876247Y-24400000D02*
X5828628Y-24495238D01*
X5828628Y-24495238D02*
X5781009Y-24685714D01*
X5781009Y-24685714D02*
X5733390Y-24780952D01*
X5733390Y-24780952D02*
X5685771Y-24828571D01*
X5685771Y-24828571D02*
X5590533Y-24876190D01*
X5590533Y-24876190D02*
X5495295Y-24876190D01*
X5495295Y-24876190D02*
X5400057Y-24828571D01*
X5400057Y-24828571D02*
X5352438Y-24780952D01*
X5352438Y-24780952D02*
X5304819Y-24685714D01*
X5304819Y-24685714D02*
X5304819Y-24447619D01*
X5304819Y-24447619D02*
X5352438Y-24304762D01*
X5304819Y-24019047D02*
X5304819Y-23447619D01*
X6304819Y-23733333D02*
X5304819Y-23733333D01*
X6019104Y-23161904D02*
X6019104Y-22685714D01*
X6304819Y-23257142D02*
X5304819Y-22923809D01*
X5304819Y-22923809D02*
X6304819Y-22590476D01*
X5304819Y-22399999D02*
X5304819Y-21828571D01*
X6304819Y-22114285D02*
X5304819Y-22114285D01*
X-12416666Y4583966D02*
X-12416666Y5283966D01*
X-12416666Y5283966D02*
X-12249999Y5283966D01*
X-12249999Y5283966D02*
X-12149999Y5250633D01*
X-12149999Y5250633D02*
X-12083333Y5183966D01*
X-12083333Y5183966D02*
X-12049999Y5117300D01*
X-12049999Y5117300D02*
X-12016666Y4983966D01*
X-12016666Y4983966D02*
X-12016666Y4883966D01*
X-12016666Y4883966D02*
X-12049999Y4750633D01*
X-12049999Y4750633D02*
X-12083333Y4683966D01*
X-12083333Y4683966D02*
X-12149999Y4617300D01*
X-12149999Y4617300D02*
X-12249999Y4583966D01*
X-12249999Y4583966D02*
X-12416666Y4583966D01*
X-11583333Y5283966D02*
X-11516666Y5283966D01*
X-11516666Y5283966D02*
X-11449999Y5250633D01*
X-11449999Y5250633D02*
X-11416666Y5217300D01*
X-11416666Y5217300D02*
X-11383333Y5150633D01*
X-11383333Y5150633D02*
X-11349999Y5017300D01*
X-11349999Y5017300D02*
X-11349999Y4850633D01*
X-11349999Y4850633D02*
X-11383333Y4717300D01*
X-11383333Y4717300D02*
X-11416666Y4650633D01*
X-11416666Y4650633D02*
X-11449999Y4617300D01*
X-11449999Y4617300D02*
X-11516666Y4583966D01*
X-11516666Y4583966D02*
X-11583333Y4583966D01*
X-11583333Y4583966D02*
X-11649999Y4617300D01*
X-11649999Y4617300D02*
X-11683333Y4650633D01*
X-11683333Y4650633D02*
X-11716666Y4717300D01*
X-11716666Y4717300D02*
X-11749999Y4850633D01*
X-11749999Y4850633D02*
X-11749999Y5017300D01*
X-11749999Y5017300D02*
X-11716666Y5150633D01*
X-11716666Y5150633D02*
X-11683333Y5217300D01*
X-11683333Y5217300D02*
X-11649999Y5250633D01*
X-11649999Y5250633D02*
X-11583333Y5283966D01*
X6816667Y-37516033D02*
X6483333Y-37516033D01*
X6483333Y-37516033D02*
X6450000Y-37849366D01*
X6450000Y-37849366D02*
X6483333Y-37816033D01*
X6483333Y-37816033D02*
X6550000Y-37782700D01*
X6550000Y-37782700D02*
X6716667Y-37782700D01*
X6716667Y-37782700D02*
X6783333Y-37816033D01*
X6783333Y-37816033D02*
X6816667Y-37849366D01*
X6816667Y-37849366D02*
X6850000Y-37916033D01*
X6850000Y-37916033D02*
X6850000Y-38082700D01*
X6850000Y-38082700D02*
X6816667Y-38149366D01*
X6816667Y-38149366D02*
X6783333Y-38182700D01*
X6783333Y-38182700D02*
X6716667Y-38216033D01*
X6716667Y-38216033D02*
X6550000Y-38216033D01*
X6550000Y-38216033D02*
X6483333Y-38182700D01*
X6483333Y-38182700D02*
X6450000Y-38149366D01*
X7050000Y-37516033D02*
X7283334Y-38216033D01*
X7283334Y-38216033D02*
X7516667Y-37516033D01*
G36*
X-9545253Y-33380317D02*
G01*
X-9213327Y-33380317D01*
X-9097312Y-33584993D01*
X-8962734Y-33380317D01*
X-8654255Y-33380317D01*
X-8902895Y-33730317D01*
X-8636426Y-34115000D01*
X-8962734Y-34115000D01*
X-9097312Y-33878328D01*
X-9256070Y-34115000D01*
X-9558931Y-34115000D01*
X-9293683Y-33730317D01*
X-9545253Y-33380317D01*
G37*
X15200000Y-22816033D02*
X15200000Y-22116033D01*
X15466667Y-22116033D02*
X15633333Y-22816033D01*
X15633333Y-22816033D02*
X15766667Y-22316033D01*
X15766667Y-22316033D02*
X15900000Y-22816033D01*
X15900000Y-22816033D02*
X16066667Y-22116033D01*
X-5902380Y-39943247D02*
X-5635714Y-39943247D01*
X-5521428Y-40362295D02*
X-5902380Y-40362295D01*
X-5902380Y-40362295D02*
X-5902380Y-39562295D01*
X-5902380Y-39562295D02*
X-5521428Y-39562295D01*
X-5254761Y-39562295D02*
X-4721427Y-40362295D01*
X-4721427Y-39562295D02*
X-5254761Y-40362295D01*
X-4416665Y-40362295D02*
X-4416665Y-39562295D01*
X-4416665Y-39562295D02*
X-4111903Y-39562295D01*
X-4111903Y-39562295D02*
X-4035713Y-39600390D01*
X-4035713Y-39600390D02*
X-3997618Y-39638485D01*
X-3997618Y-39638485D02*
X-3959522Y-39714676D01*
X-3959522Y-39714676D02*
X-3959522Y-39828961D01*
X-3959522Y-39828961D02*
X-3997618Y-39905152D01*
X-3997618Y-39905152D02*
X-4035713Y-39943247D01*
X-4035713Y-39943247D02*
X-4111903Y-39981342D01*
X-4111903Y-39981342D02*
X-4416665Y-39981342D01*
G36*
X-12936322Y-34080317D02*
G01*
X-12259769Y-34080317D01*
X-12259769Y-34240785D01*
X-12628087Y-34627421D01*
X-12237055Y-34627421D01*
X-12237055Y-34815000D01*
X-12963921Y-34815000D01*
X-12963921Y-34636946D01*
X-12614898Y-34267896D01*
X-12936322Y-34267896D01*
X-12936322Y-34080317D01*
G37*
X-3466666Y12583966D02*
X-3466666Y13283966D01*
X-3466666Y13283966D02*
X-3299999Y13283966D01*
X-3299999Y13283966D02*
X-3199999Y13250633D01*
X-3199999Y13250633D02*
X-3133333Y13183966D01*
X-3133333Y13183966D02*
X-3099999Y13117300D01*
X-3099999Y13117300D02*
X-3066666Y12983966D01*
X-3066666Y12983966D02*
X-3066666Y12883966D01*
X-3066666Y12883966D02*
X-3099999Y12750633D01*
X-3099999Y12750633D02*
X-3133333Y12683966D01*
X-3133333Y12683966D02*
X-3199999Y12617300D01*
X-3199999Y12617300D02*
X-3299999Y12583966D01*
X-3299999Y12583966D02*
X-3466666Y12583966D01*
X-2766666Y12950633D02*
X-2533333Y12950633D01*
X-2433333Y12583966D02*
X-2766666Y12583966D01*
X-2766666Y12583966D02*
X-2766666Y13283966D01*
X-2766666Y13283966D02*
X-2433333Y13283966D01*
X-2233333Y13283966D02*
X-1833333Y13283966D01*
X-2033333Y12583966D02*
X-2033333Y13283966D01*
X-1283333Y-36616033D02*
X-849999Y-36616033D01*
X-849999Y-36616033D02*
X-1083333Y-36882700D01*
X-1083333Y-36882700D02*
X-983333Y-36882700D01*
X-983333Y-36882700D02*
X-916666Y-36916033D01*
X-916666Y-36916033D02*
X-883333Y-36949366D01*
X-883333Y-36949366D02*
X-849999Y-37016033D01*
X-849999Y-37016033D02*
X-849999Y-37182700D01*
X-849999Y-37182700D02*
X-883333Y-37249366D01*
X-883333Y-37249366D02*
X-916666Y-37282700D01*
X-916666Y-37282700D02*
X-983333Y-37316033D01*
X-983333Y-37316033D02*
X-1183333Y-37316033D01*
X-1183333Y-37316033D02*
X-1249999Y-37282700D01*
X-1249999Y-37282700D02*
X-1283333Y-37249366D01*
X-549999Y-37249366D02*
X-516666Y-37282700D01*
X-516666Y-37282700D02*
X-549999Y-37316033D01*
X-549999Y-37316033D02*
X-583332Y-37282700D01*
X-583332Y-37282700D02*
X-549999Y-37249366D01*
X-549999Y-37249366D02*
X-549999Y-37316033D01*
X-283333Y-36616033D02*
X150000Y-36616033D01*
X150000Y-36616033D02*
X-83333Y-36882700D01*
X-83333Y-36882700D02*
X16667Y-36882700D01*
X16667Y-36882700D02*
X83333Y-36916033D01*
X83333Y-36916033D02*
X116666Y-36949366D01*
X116666Y-36949366D02*
X150000Y-37016033D01*
X150000Y-37016033D02*
X150000Y-37182700D01*
X150000Y-37182700D02*
X116666Y-37249366D01*
X116666Y-37249366D02*
X83333Y-37282700D01*
X83333Y-37282700D02*
X16667Y-37316033D01*
X16667Y-37316033D02*
X-183333Y-37316033D01*
X-183333Y-37316033D02*
X-249999Y-37282700D01*
X-249999Y-37282700D02*
X-283333Y-37249366D01*
X350000Y-36616033D02*
X583334Y-37316033D01*
X583334Y-37316033D02*
X816667Y-36616033D01*
X-14116666Y7883966D02*
X-14116666Y8583966D01*
X-14116666Y8583966D02*
X-13949999Y8583966D01*
X-13949999Y8583966D02*
X-13849999Y8550633D01*
X-13849999Y8550633D02*
X-13783333Y8483966D01*
X-13783333Y8483966D02*
X-13749999Y8417300D01*
X-13749999Y8417300D02*
X-13716666Y8283966D01*
X-13716666Y8283966D02*
X-13716666Y8183966D01*
X-13716666Y8183966D02*
X-13749999Y8050633D01*
X-13749999Y8050633D02*
X-13783333Y7983966D01*
X-13783333Y7983966D02*
X-13849999Y7917300D01*
X-13849999Y7917300D02*
X-13949999Y7883966D01*
X-13949999Y7883966D02*
X-14116666Y7883966D01*
X-13049999Y7883966D02*
X-13449999Y7883966D01*
X-13249999Y7883966D02*
X-13249999Y8583966D01*
X-13249999Y8583966D02*
X-13316666Y8483966D01*
X-13316666Y8483966D02*
X-13383333Y8417300D01*
X-13383333Y8417300D02*
X-13449999Y8383966D01*
X2878571Y-39993247D02*
X3145237Y-39993247D01*
X3259523Y-40412295D02*
X2878571Y-40412295D01*
X2878571Y-40412295D02*
X2878571Y-39612295D01*
X2878571Y-39612295D02*
X3259523Y-39612295D01*
X3602381Y-40412295D02*
X3602381Y-39612295D01*
X3602381Y-39612295D02*
X4059524Y-40412295D01*
X4059524Y-40412295D02*
X4059524Y-39612295D01*
X4897619Y-40336104D02*
X4859523Y-40374200D01*
X4859523Y-40374200D02*
X4745238Y-40412295D01*
X4745238Y-40412295D02*
X4669047Y-40412295D01*
X4669047Y-40412295D02*
X4554761Y-40374200D01*
X4554761Y-40374200D02*
X4478571Y-40298009D01*
X4478571Y-40298009D02*
X4440476Y-40221819D01*
X4440476Y-40221819D02*
X4402380Y-40069438D01*
X4402380Y-40069438D02*
X4402380Y-39955152D01*
X4402380Y-39955152D02*
X4440476Y-39802771D01*
X4440476Y-39802771D02*
X4478571Y-39726580D01*
X4478571Y-39726580D02*
X4554761Y-39650390D01*
X4554761Y-39650390D02*
X4669047Y-39612295D01*
X4669047Y-39612295D02*
X4745238Y-39612295D01*
X4745238Y-39612295D02*
X4859523Y-39650390D01*
X4859523Y-39650390D02*
X4897619Y-39688485D01*
X5392857Y-39612295D02*
X5545238Y-39612295D01*
X5545238Y-39612295D02*
X5621428Y-39650390D01*
X5621428Y-39650390D02*
X5697619Y-39726580D01*
X5697619Y-39726580D02*
X5735714Y-39878961D01*
X5735714Y-39878961D02*
X5735714Y-40145628D01*
X5735714Y-40145628D02*
X5697619Y-40298009D01*
X5697619Y-40298009D02*
X5621428Y-40374200D01*
X5621428Y-40374200D02*
X5545238Y-40412295D01*
X5545238Y-40412295D02*
X5392857Y-40412295D01*
X5392857Y-40412295D02*
X5316666Y-40374200D01*
X5316666Y-40374200D02*
X5240476Y-40298009D01*
X5240476Y-40298009D02*
X5202380Y-40145628D01*
X5202380Y-40145628D02*
X5202380Y-39878961D01*
X5202380Y-39878961D02*
X5240476Y-39726580D01*
X5240476Y-39726580D02*
X5316666Y-39650390D01*
X5316666Y-39650390D02*
X5392857Y-39612295D01*
X6078571Y-40412295D02*
X6078571Y-39612295D01*
X6078571Y-39612295D02*
X6269047Y-39612295D01*
X6269047Y-39612295D02*
X6383333Y-39650390D01*
X6383333Y-39650390D02*
X6459523Y-39726580D01*
X6459523Y-39726580D02*
X6497618Y-39802771D01*
X6497618Y-39802771D02*
X6535714Y-39955152D01*
X6535714Y-39955152D02*
X6535714Y-40069438D01*
X6535714Y-40069438D02*
X6497618Y-40221819D01*
X6497618Y-40221819D02*
X6459523Y-40298009D01*
X6459523Y-40298009D02*
X6383333Y-40374200D01*
X6383333Y-40374200D02*
X6269047Y-40412295D01*
X6269047Y-40412295D02*
X6078571Y-40412295D01*
X6878571Y-39993247D02*
X7145237Y-39993247D01*
X7259523Y-40412295D02*
X6878571Y-40412295D01*
X6878571Y-40412295D02*
X6878571Y-39612295D01*
X6878571Y-39612295D02*
X7259523Y-39612295D01*
X8059524Y-40412295D02*
X7792857Y-40031342D01*
X7602381Y-40412295D02*
X7602381Y-39612295D01*
X7602381Y-39612295D02*
X7907143Y-39612295D01*
X7907143Y-39612295D02*
X7983333Y-39650390D01*
X7983333Y-39650390D02*
X8021428Y-39688485D01*
X8021428Y-39688485D02*
X8059524Y-39764676D01*
X8059524Y-39764676D02*
X8059524Y-39878961D01*
X8059524Y-39878961D02*
X8021428Y-39955152D01*
X8021428Y-39955152D02*
X7983333Y-39993247D01*
X7983333Y-39993247D02*
X7907143Y-40031342D01*
X7907143Y-40031342D02*
X7602381Y-40031342D01*
X-16366666Y-28416033D02*
X-16366666Y-27716033D01*
X-16033333Y-28416033D02*
X-16033333Y-27716033D01*
X-16033333Y-27716033D02*
X-15633333Y-28416033D01*
X-15633333Y-28416033D02*
X-15633333Y-27716033D01*
X-15400000Y-27716033D02*
X-15000000Y-27716033D01*
X-15200000Y-28416033D02*
X-15200000Y-27716033D01*
X-14800000Y-27782700D02*
X-14766667Y-27749366D01*
X-14766667Y-27749366D02*
X-14700000Y-27716033D01*
X-14700000Y-27716033D02*
X-14533334Y-27716033D01*
X-14533334Y-27716033D02*
X-14466667Y-27749366D01*
X-14466667Y-27749366D02*
X-14433334Y-27782700D01*
X-14433334Y-27782700D02*
X-14400000Y-27849366D01*
X-14400000Y-27849366D02*
X-14400000Y-27916033D01*
X-14400000Y-27916033D02*
X-14433334Y-28016033D01*
X-14433334Y-28016033D02*
X-14833334Y-28416033D01*
X-14833334Y-28416033D02*
X-14400000Y-28416033D01*
X14050000Y-23749366D02*
X14150000Y-23782700D01*
X14150000Y-23782700D02*
X14183333Y-23816033D01*
X14183333Y-23816033D02*
X14216666Y-23882700D01*
X14216666Y-23882700D02*
X14216666Y-23982700D01*
X14216666Y-23982700D02*
X14183333Y-24049366D01*
X14183333Y-24049366D02*
X14150000Y-24082700D01*
X14150000Y-24082700D02*
X14083333Y-24116033D01*
X14083333Y-24116033D02*
X13816666Y-24116033D01*
X13816666Y-24116033D02*
X13816666Y-23416033D01*
X13816666Y-23416033D02*
X14050000Y-23416033D01*
X14050000Y-23416033D02*
X14116666Y-23449366D01*
X14116666Y-23449366D02*
X14150000Y-23482700D01*
X14150000Y-23482700D02*
X14183333Y-23549366D01*
X14183333Y-23549366D02*
X14183333Y-23616033D01*
X14183333Y-23616033D02*
X14150000Y-23682700D01*
X14150000Y-23682700D02*
X14116666Y-23716033D01*
X14116666Y-23716033D02*
X14050000Y-23749366D01*
X14050000Y-23749366D02*
X13816666Y-23749366D01*
X14433333Y-27316033D02*
X14766666Y-27316033D01*
X14366666Y-27516033D02*
X14600000Y-26816033D01*
X14600000Y-26816033D02*
X14833333Y-27516033D01*
X-10607553Y-23135947D02*
X-10513273Y-23088807D01*
X-10513273Y-23088807D02*
X-10466132Y-23088807D01*
X-10466132Y-23088807D02*
X-10395421Y-23112377D01*
X-10395421Y-23112377D02*
X-10324711Y-23183088D01*
X-10324711Y-23183088D02*
X-10301140Y-23253798D01*
X-10301140Y-23253798D02*
X-10301140Y-23300939D01*
X-10301140Y-23300939D02*
X-10324711Y-23371649D01*
X-10324711Y-23371649D02*
X-10513273Y-23560211D01*
X-10513273Y-23560211D02*
X-11008247Y-23065236D01*
X-11008247Y-23065236D02*
X-10843256Y-22900245D01*
X-10843256Y-22900245D02*
X-10772545Y-22876675D01*
X-10772545Y-22876675D02*
X-10725405Y-22876675D01*
X-10725405Y-22876675D02*
X-10654694Y-22900245D01*
X-10654694Y-22900245D02*
X-10607553Y-22947385D01*
X-10607553Y-22947385D02*
X-10583983Y-23018096D01*
X-10583983Y-23018096D02*
X-10583983Y-23065236D01*
X-10583983Y-23065236D02*
X-10607553Y-23135947D01*
X-10607553Y-23135947D02*
X-10772545Y-23300939D01*
X-10418992Y-22475981D02*
X-10324711Y-22381700D01*
X-10324711Y-22381700D02*
X-10254000Y-22358130D01*
X-10254000Y-22358130D02*
X-10159719Y-22358130D01*
X-10159719Y-22358130D02*
X-10041868Y-22428840D01*
X-10041868Y-22428840D02*
X-9876876Y-22593832D01*
X-9876876Y-22593832D02*
X-9806166Y-22711683D01*
X-9806166Y-22711683D02*
X-9806166Y-22805964D01*
X-9806166Y-22805964D02*
X-9829736Y-22876675D01*
X-9829736Y-22876675D02*
X-9924017Y-22970955D01*
X-9924017Y-22970955D02*
X-9994728Y-22994526D01*
X-9994728Y-22994526D02*
X-10089008Y-22994526D01*
X-10089008Y-22994526D02*
X-10206860Y-22923815D01*
X-10206860Y-22923815D02*
X-10371851Y-22758823D01*
X-10371851Y-22758823D02*
X-10442562Y-22640972D01*
X-10442562Y-22640972D02*
X-10442562Y-22546691D01*
X-10442562Y-22546691D02*
X-10418992Y-22475981D01*
X-9900447Y-21957436D02*
X-9806166Y-21863155D01*
X-9806166Y-21863155D02*
X-9735455Y-21839585D01*
X-9735455Y-21839585D02*
X-9641174Y-21839585D01*
X-9641174Y-21839585D02*
X-9523323Y-21910296D01*
X-9523323Y-21910296D02*
X-9358332Y-22075287D01*
X-9358332Y-22075287D02*
X-9287621Y-22193138D01*
X-9287621Y-22193138D02*
X-9287621Y-22287419D01*
X-9287621Y-22287419D02*
X-9311191Y-22358130D01*
X-9311191Y-22358130D02*
X-9405472Y-22452411D01*
X-9405472Y-22452411D02*
X-9476183Y-22475981D01*
X-9476183Y-22475981D02*
X-9570464Y-22475981D01*
X-9570464Y-22475981D02*
X-9688315Y-22405270D01*
X-9688315Y-22405270D02*
X-9853306Y-22240279D01*
X-9853306Y-22240279D02*
X-9924017Y-22122428D01*
X-9924017Y-22122428D02*
X-9924017Y-22028147D01*
X-9924017Y-22028147D02*
X-9900447Y-21957436D01*
X-9546894Y-21603883D02*
X-9264051Y-21321040D01*
X-8910498Y-21957436D02*
X-9405472Y-21462461D01*
X-16066666Y-35116033D02*
X-16066666Y-34416033D01*
X-15733333Y-35116033D02*
X-15733333Y-34416033D01*
X-15733333Y-34416033D02*
X-15333333Y-35116033D01*
X-15333333Y-35116033D02*
X-15333333Y-34416033D01*
X-15100000Y-34416033D02*
X-14700000Y-34416033D01*
X-14900000Y-35116033D02*
X-14900000Y-34416033D01*
X-14100000Y-35116033D02*
X-14500000Y-35116033D01*
X-14300000Y-35116033D02*
X-14300000Y-34416033D01*
X-14300000Y-34416033D02*
X-14366667Y-34516033D01*
X-14366667Y-34516033D02*
X-14433334Y-34582700D01*
X-14433334Y-34582700D02*
X-14500000Y-34616033D01*
G36*
X-11324004Y-31580317D02*
G01*
X-11028714Y-31580317D01*
X-10878261Y-32069535D01*
X-10738798Y-31580317D01*
X-10463292Y-31580317D01*
X-10752476Y-32365314D01*
X-10758680Y-32381675D01*
X-10764898Y-32397359D01*
X-10771129Y-32412366D01*
X-10777373Y-32426695D01*
X-10783631Y-32440347D01*
X-10789902Y-32453321D01*
X-10796187Y-32465618D01*
X-10802485Y-32477238D01*
X-10808796Y-32488180D01*
X-10815120Y-32498445D01*
X-10821458Y-32508032D01*
X-10827809Y-32516943D01*
X-10834174Y-32525175D01*
X-10840552Y-32532731D01*
X-10850144Y-32542793D01*
X-10853348Y-32545809D01*
X-10862773Y-32553824D01*
X-10872792Y-32561322D01*
X-10883404Y-32568303D01*
X-10894610Y-32574767D01*
X-10906409Y-32580714D01*
X-10918801Y-32586143D01*
X-10931787Y-32591056D01*
X-10945367Y-32595451D01*
X-10959539Y-32599330D01*
X-10974306Y-32602691D01*
X-10989665Y-32605535D01*
X-11005618Y-32607862D01*
X-11022165Y-32609672D01*
X-11039305Y-32610965D01*
X-11057038Y-32611740D01*
X-11075365Y-32611999D01*
X-11087258Y-32611857D01*
X-11100315Y-32611432D01*
X-11114535Y-32610724D01*
X-11124662Y-32610094D01*
X-11135305Y-32609338D01*
X-11146466Y-32608457D01*
X-11158144Y-32607449D01*
X-11170339Y-32606316D01*
X-11183051Y-32605056D01*
X-11196280Y-32603671D01*
X-11210026Y-32602160D01*
X-11224290Y-32600523D01*
X-11239070Y-32598760D01*
X-11254368Y-32596871D01*
X-11262211Y-32595879D01*
X-11284193Y-32404148D01*
X-11272759Y-32407771D01*
X-11261080Y-32411038D01*
X-11249157Y-32413948D01*
X-11236989Y-32416501D01*
X-11224576Y-32418699D01*
X-11211919Y-32420540D01*
X-11199016Y-32422025D01*
X-11185870Y-32423153D01*
X-11172478Y-32423925D01*
X-11158842Y-32424341D01*
X-11149615Y-32424420D01*
X-11137517Y-32424062D01*
X-11126015Y-32422985D01*
X-11115108Y-32421192D01*
X-11104796Y-32418681D01*
X-11095080Y-32415452D01*
X-11085959Y-32411506D01*
X-11075395Y-32405564D01*
X-11069503Y-32401461D01*
X-11062015Y-32395153D01*
X-11054818Y-32387708D01*
X-11047910Y-32379125D01*
X-11041293Y-32369405D01*
X-11034966Y-32358547D01*
X-11030410Y-32349658D01*
X-11026018Y-32340129D01*
X-11021789Y-32329960D01*
X-11017724Y-32319152D01*
X-11324004Y-31580317D01*
G37*
X-15017300Y-32166666D02*
X-15050633Y-32199999D01*
X-15050633Y-32199999D02*
X-15150633Y-32266666D01*
X-15150633Y-32266666D02*
X-15217300Y-32299999D01*
X-15217300Y-32299999D02*
X-15317300Y-32333333D01*
X-15317300Y-32333333D02*
X-15483966Y-32366666D01*
X-15483966Y-32366666D02*
X-15617300Y-32366666D01*
X-15617300Y-32366666D02*
X-15783966Y-32333333D01*
X-15783966Y-32333333D02*
X-15883966Y-32299999D01*
X-15883966Y-32299999D02*
X-15950633Y-32266666D01*
X-15950633Y-32266666D02*
X-16050633Y-32199999D01*
X-16050633Y-32199999D02*
X-16083966Y-32166666D01*
X-15283966Y-31899999D02*
X-15983966Y-31899999D01*
X-15283966Y-31566666D02*
X-15983966Y-31566666D01*
X-15317300Y-31266666D02*
X-15283966Y-31166666D01*
X-15283966Y-31166666D02*
X-15283966Y-31000000D01*
X-15283966Y-31000000D02*
X-15317300Y-30933333D01*
X-15317300Y-30933333D02*
X-15350633Y-30900000D01*
X-15350633Y-30900000D02*
X-15417300Y-30866666D01*
X-15417300Y-30866666D02*
X-15483966Y-30866666D01*
X-15483966Y-30866666D02*
X-15550633Y-30900000D01*
X-15550633Y-30900000D02*
X-15583966Y-30933333D01*
X-15583966Y-30933333D02*
X-15617300Y-31000000D01*
X-15617300Y-31000000D02*
X-15650633Y-31133333D01*
X-15650633Y-31133333D02*
X-15683966Y-31200000D01*
X-15683966Y-31200000D02*
X-15717300Y-31233333D01*
X-15717300Y-31233333D02*
X-15783966Y-31266666D01*
X-15783966Y-31266666D02*
X-15850633Y-31266666D01*
X-15850633Y-31266666D02*
X-15917300Y-31233333D01*
X-15917300Y-31233333D02*
X-15950633Y-31200000D01*
X-15950633Y-31200000D02*
X-15983966Y-31133333D01*
X-15983966Y-31133333D02*
X-15983966Y-30966666D01*
X-15983966Y-30966666D02*
X-15950633Y-30866666D01*
X-15017300Y-30633333D02*
X-15050633Y-30599999D01*
X-15050633Y-30599999D02*
X-15150633Y-30533333D01*
X-15150633Y-30533333D02*
X-15217300Y-30499999D01*
X-15217300Y-30499999D02*
X-15317300Y-30466666D01*
X-15317300Y-30466666D02*
X-15483966Y-30433333D01*
X-15483966Y-30433333D02*
X-15617300Y-30433333D01*
X-15617300Y-30433333D02*
X-15783966Y-30466666D01*
X-15783966Y-30466666D02*
X-15883966Y-30499999D01*
X-15883966Y-30499999D02*
X-15950633Y-30533333D01*
X-15950633Y-30533333D02*
X-16050633Y-30599999D01*
X-16050633Y-30599999D02*
X-16083966Y-30633333D01*
X-14616666Y-21566033D02*
X-14616666Y-20866033D01*
X-14616666Y-20866033D02*
X-14449999Y-20866033D01*
X-14449999Y-20866033D02*
X-14349999Y-20899366D01*
X-14349999Y-20899366D02*
X-14283333Y-20966033D01*
X-14283333Y-20966033D02*
X-14249999Y-21032700D01*
X-14249999Y-21032700D02*
X-14216666Y-21166033D01*
X-14216666Y-21166033D02*
X-14216666Y-21266033D01*
X-14216666Y-21266033D02*
X-14249999Y-21399366D01*
X-14249999Y-21399366D02*
X-14283333Y-21466033D01*
X-14283333Y-21466033D02*
X-14349999Y-21532700D01*
X-14349999Y-21532700D02*
X-14449999Y-21566033D01*
X-14449999Y-21566033D02*
X-14616666Y-21566033D01*
X-13916666Y-21199366D02*
X-13683333Y-21199366D01*
X-13583333Y-21566033D02*
X-13916666Y-21566033D01*
X-13916666Y-21566033D02*
X-13916666Y-20866033D01*
X-13916666Y-20866033D02*
X-13583333Y-20866033D01*
X-13050000Y-21199366D02*
X-12950000Y-21232700D01*
X-12950000Y-21232700D02*
X-12916666Y-21266033D01*
X-12916666Y-21266033D02*
X-12883333Y-21332700D01*
X-12883333Y-21332700D02*
X-12883333Y-21432700D01*
X-12883333Y-21432700D02*
X-12916666Y-21499366D01*
X-12916666Y-21499366D02*
X-12950000Y-21532700D01*
X-12950000Y-21532700D02*
X-13016666Y-21566033D01*
X-13016666Y-21566033D02*
X-13283333Y-21566033D01*
X-13283333Y-21566033D02*
X-13283333Y-20866033D01*
X-13283333Y-20866033D02*
X-13050000Y-20866033D01*
X-13050000Y-20866033D02*
X-12983333Y-20899366D01*
X-12983333Y-20899366D02*
X-12950000Y-20932700D01*
X-12950000Y-20932700D02*
X-12916666Y-20999366D01*
X-12916666Y-20999366D02*
X-12916666Y-21066033D01*
X-12916666Y-21066033D02*
X-12950000Y-21132700D01*
X-12950000Y-21132700D02*
X-12983333Y-21166033D01*
X-12983333Y-21166033D02*
X-13050000Y-21199366D01*
X-13050000Y-21199366D02*
X-13283333Y-21199366D01*
X-12583333Y-20866033D02*
X-12583333Y-21432700D01*
X-12583333Y-21432700D02*
X-12550000Y-21499366D01*
X-12550000Y-21499366D02*
X-12516666Y-21532700D01*
X-12516666Y-21532700D02*
X-12450000Y-21566033D01*
X-12450000Y-21566033D02*
X-12316666Y-21566033D01*
X-12316666Y-21566033D02*
X-12250000Y-21532700D01*
X-12250000Y-21532700D02*
X-12216666Y-21499366D01*
X-12216666Y-21499366D02*
X-12183333Y-21432700D01*
X-12183333Y-21432700D02*
X-12183333Y-20866033D01*
X-11483333Y-20899366D02*
X-11550000Y-20866033D01*
X-11550000Y-20866033D02*
X-11650000Y-20866033D01*
X-11650000Y-20866033D02*
X-11750000Y-20899366D01*
X-11750000Y-20899366D02*
X-11816667Y-20966033D01*
X-11816667Y-20966033D02*
X-11850000Y-21032700D01*
X-11850000Y-21032700D02*
X-11883333Y-21166033D01*
X-11883333Y-21166033D02*
X-11883333Y-21266033D01*
X-11883333Y-21266033D02*
X-11850000Y-21399366D01*
X-11850000Y-21399366D02*
X-11816667Y-21466033D01*
X-11816667Y-21466033D02*
X-11750000Y-21532700D01*
X-11750000Y-21532700D02*
X-11650000Y-21566033D01*
X-11650000Y-21566033D02*
X-11583333Y-21566033D01*
X-11583333Y-21566033D02*
X-11483333Y-21532700D01*
X-11483333Y-21532700D02*
X-11450000Y-21499366D01*
X-11450000Y-21499366D02*
X-11450000Y-21266033D01*
X-11450000Y-21266033D02*
X-11583333Y-21266033D01*
D12*
%TO.C,R206*%
X-9936359Y-16180000D02*
X-10243641Y-16180000D01*
X-9936359Y-15420000D02*
X-10243641Y-15420000D01*
%TO.C,C201*%
X4860030Y-20761219D02*
X4661219Y-20960030D01*
X4138781Y-20039970D02*
X3939970Y-20238781D01*
%TO.C,C203*%
X9978307Y-17469190D02*
X10130810Y-17621693D01*
X9469190Y-17978307D02*
X9621693Y-18130810D01*
%TO.C,R501*%
X-7580000Y12246359D02*
X-7580000Y12553641D01*
X-6820000Y12246359D02*
X-6820000Y12553641D01*
%TO.C,TP712*%
X-14600000Y-29400000D02*
G75*
G03*
X-14600000Y-29400000I-700000J0D01*
G01*
%TO.C,R505*%
X-10846359Y7120000D02*
X-11153641Y7120000D01*
X-10846359Y7880000D02*
X-11153641Y7880000D01*
%TO.C,R504*%
X-5380000Y12246359D02*
X-5380000Y12553641D01*
X-4620000Y12246359D02*
X-4620000Y12553641D01*
%TO.C,Y201*%
X11052513Y-13619060D02*
X8719060Y-15952513D01*
X8719060Y-15952513D02*
X11547487Y-18780940D01*
%TO.C,R202*%
X13060060Y-14322659D02*
X13277341Y-14539940D01*
X12522659Y-14860060D02*
X12739940Y-15077341D01*
%TO.C,C218*%
X14630810Y-11978307D02*
X14478307Y-12130810D01*
X14121693Y-11469190D02*
X13969190Y-11621693D01*
%TO.C,C404*%
X2407836Y34040000D02*
X2192164Y34040000D01*
X2407836Y34760000D02*
X2192164Y34760000D01*
%TO.C,C103*%
X9440000Y-30407836D02*
X9440000Y-30192164D01*
X10160000Y-30407836D02*
X10160000Y-30192164D01*
%TO.C,C701*%
X-13292164Y-30660000D02*
X-13507836Y-30660000D01*
X-13292164Y-29940000D02*
X-13507836Y-29940000D01*
%TO.C,JP201*%
X-7097918Y-24877817D02*
X-7522183Y-25302082D01*
X-8512132Y-25302082D02*
X-9502082Y-24312132D01*
X-8087868Y-22897918D02*
X-7097918Y-23887868D01*
X-9502082Y-23322183D02*
X-9077817Y-22897918D01*
X-8512131Y-25302081D02*
G75*
G03*
X-7522184Y-25302081I494974J494973D01*
G01*
X-7097918Y-24877817D02*
G75*
G03*
X-7097918Y-23887868I-494974J494974D01*
G01*
X-9502082Y-23322183D02*
G75*
G03*
X-9502082Y-24312132I494975J-494974D01*
G01*
X-8087869Y-22897919D02*
G75*
G03*
X-9077817Y-22897918I-494974J-494974D01*
G01*
%TO.C,C408*%
X490000Y23192164D02*
X490000Y23407836D01*
X1210000Y23192164D02*
X1210000Y23407836D01*
%TO.C,C706*%
X-13254664Y-40210000D02*
X-13470336Y-40210000D01*
X-13254664Y-39490000D02*
X-13470336Y-39490000D01*
%TO.C,C216*%
X8180810Y-15478307D02*
X8028307Y-15630810D01*
X7671693Y-14969190D02*
X7519190Y-15121693D01*
%TO.C,D102*%
X4110000Y-38472500D02*
X4110000Y-37002500D01*
X4110000Y-37002500D02*
X1825000Y-37002500D01*
X1825000Y-38472500D02*
X4110000Y-38472500D01*
%TO.C,C705*%
X-15370336Y-39490000D02*
X-15154664Y-39490000D01*
X-15370336Y-40210000D02*
X-15154664Y-40210000D01*
%TO.C,C702*%
X-11092164Y-30660000D02*
X-11307836Y-30660000D01*
X-11092164Y-29940000D02*
X-11307836Y-29940000D01*
%TO.C,C211*%
X12269190Y-10521693D02*
X12421693Y-10369190D01*
X12778307Y-11030810D02*
X12930810Y-10878307D01*
%TO.C,C209*%
X-10878307Y-12830810D02*
X-11030810Y-12678307D01*
X-10369190Y-12321693D02*
X-10521693Y-12169190D01*
%TO.C,G\u002A\u002A\u002A*%
G36*
X-5587390Y39176001D02*
G01*
X-5587390Y39095307D01*
X-6040518Y39095307D01*
X-6493646Y39095307D01*
X-6493646Y38722873D01*
X-6493646Y38350439D01*
X-6083969Y38350439D01*
X-5674291Y38350439D01*
X-5674291Y38269745D01*
X-5674291Y38189051D01*
X-6083969Y38189051D01*
X-6493646Y38189051D01*
X-6493646Y37791788D01*
X-6493646Y37394525D01*
X-6034311Y37394525D01*
X-5574975Y37394525D01*
X-5574975Y37313831D01*
X-5574975Y37233137D01*
X-6121212Y37233137D01*
X-6667448Y37233137D01*
X-6667448Y38244916D01*
X-6667448Y39256696D01*
X-6127419Y39256696D01*
X-5587390Y39256696D01*
X-5587390Y39176001D01*
G37*
G36*
X-4467518Y35419914D02*
G01*
X-4385765Y35417360D01*
X-4320698Y35412332D01*
X-4268260Y35404201D01*
X-4224396Y35392335D01*
X-4185049Y35376105D01*
X-4146161Y35354879D01*
X-4145861Y35354699D01*
X-4084151Y35305384D01*
X-4039890Y35241037D01*
X-4012225Y35160003D01*
X-4000948Y35073894D01*
X-4004042Y34964694D01*
X-4026508Y34869288D01*
X-4068014Y34788726D01*
X-4103663Y34746195D01*
X-4135414Y34716447D01*
X-4166518Y34693203D01*
X-4200626Y34675590D01*
X-4241387Y34662734D01*
X-4292452Y34653763D01*
X-4357472Y34647803D01*
X-4440095Y34643981D01*
X-4541471Y34641473D01*
X-4805278Y34636380D01*
X-4805278Y35028503D01*
X-4805278Y35420625D01*
X-4570015Y35420625D01*
X-4467518Y35419914D01*
G37*
G36*
X-11617717Y35420410D02*
G01*
X-11505585Y35418556D01*
X-11413509Y35412744D01*
X-11336924Y35402197D01*
X-11271262Y35386140D01*
X-11211956Y35363798D01*
X-11173628Y35344992D01*
X-11086949Y35284824D01*
X-11013889Y35204228D01*
X-10954818Y35103775D01*
X-10910109Y34984036D01*
X-10892084Y34911632D01*
X-10880762Y34838810D01*
X-10873067Y34748927D01*
X-10868948Y34648075D01*
X-10868355Y34542343D01*
X-10871237Y34437824D01*
X-10877544Y34340609D01*
X-10887225Y34256788D01*
X-10897949Y34201106D01*
X-10937532Y34075981D01*
X-10988847Y33971889D01*
X-11052781Y33887527D01*
X-11130216Y33821595D01*
X-11173628Y33795476D01*
X-11231232Y33768504D01*
X-11292143Y33748335D01*
X-11360927Y33734195D01*
X-11442151Y33725306D01*
X-11540382Y33720895D01*
X-11617717Y33720059D01*
X-11819452Y33719843D01*
X-11819452Y34570234D01*
X-11819452Y35420625D01*
X-11617717Y35420410D01*
G37*
G36*
X-13694037Y37340286D02*
G01*
X-13694050Y37011197D01*
X-13694092Y36706011D01*
X-13694168Y36423806D01*
X-13694285Y36163656D01*
X-13694448Y35924638D01*
X-13694663Y35705827D01*
X-13694935Y35506299D01*
X-13695270Y35325129D01*
X-13695673Y35161392D01*
X-13696150Y35014166D01*
X-13696707Y34882524D01*
X-13697349Y34765543D01*
X-13698082Y34662299D01*
X-13698911Y34571866D01*
X-13699843Y34493322D01*
X-13700882Y34425740D01*
X-13702034Y34368197D01*
X-13703305Y34319769D01*
X-13704701Y34279531D01*
X-13706227Y34246558D01*
X-13707888Y34219927D01*
X-13709691Y34198713D01*
X-13711641Y34181992D01*
X-13713254Y34171548D01*
X-13753976Y34000967D01*
X-13815001Y33834013D01*
X-13893715Y33676923D01*
X-13969109Y33560558D01*
X-14055767Y33454310D01*
X-14157749Y33350816D01*
X-14269765Y33254383D01*
X-14386524Y33169318D01*
X-14502736Y33099928D01*
X-14579694Y33063499D01*
X-14703815Y33017689D01*
X-14832615Y32980772D01*
X-14959117Y32954327D01*
X-15076339Y32939936D01*
X-15135013Y32937732D01*
X-15196187Y32937732D01*
X-15196187Y36668279D01*
X-15196187Y40398826D01*
X-14445112Y40398826D01*
X-13694037Y40398826D01*
X-13694037Y37340286D01*
G37*
G36*
X-9880676Y38785000D02*
G01*
X-9829753Y38685182D01*
X-9782224Y38592559D01*
X-9739277Y38509404D01*
X-9702097Y38437990D01*
X-9671872Y38380591D01*
X-9649788Y38339479D01*
X-9637033Y38316929D01*
X-9634376Y38313250D01*
X-9627669Y38323977D01*
X-9611094Y38354658D01*
X-9585822Y38403007D01*
X-9553027Y38466741D01*
X-9513880Y38543572D01*
X-9469553Y38631216D01*
X-9421218Y38727389D01*
X-9392424Y38784946D01*
X-9156810Y39256696D01*
X-9060289Y39256696D01*
X-8963768Y39256696D01*
X-9000852Y39183232D01*
X-9014439Y39156731D01*
X-9038161Y39110923D01*
X-9070620Y39048489D01*
X-9110420Y38972108D01*
X-9156163Y38884463D01*
X-9206450Y38788232D01*
X-9259886Y38686098D01*
X-9292771Y38623300D01*
X-9547605Y38136831D01*
X-9547605Y37684984D01*
X-9547605Y37233137D01*
X-9634506Y37233137D01*
X-9721407Y37233137D01*
X-9721407Y37685233D01*
X-9721407Y38137328D01*
X-10013147Y38692758D01*
X-10069999Y38801077D01*
X-10123192Y38902582D01*
X-10171637Y38995186D01*
X-10214245Y39076797D01*
X-10249926Y39145326D01*
X-10277591Y39198683D01*
X-10296151Y39234778D01*
X-10304517Y39251521D01*
X-10304887Y39252442D01*
X-10293490Y39254485D01*
X-10263367Y39255992D01*
X-10220617Y39256680D01*
X-10212763Y39256696D01*
X-10120638Y39256696D01*
X-9880676Y38785000D01*
G37*
G36*
X-4671823Y39256602D02*
G01*
X-4540786Y39255716D01*
X-4431315Y39252805D01*
X-4340195Y39247355D01*
X-4264208Y39238851D01*
X-4200140Y39226781D01*
X-4144773Y39210631D01*
X-4094891Y39189888D01*
X-4047279Y39164037D01*
X-4031655Y39154386D01*
X-3958410Y39093724D01*
X-3900221Y39015908D01*
X-3858141Y38924290D01*
X-3833220Y38822217D01*
X-3826511Y38713039D01*
X-3839064Y38600106D01*
X-3846837Y38565622D01*
X-3883667Y38458932D01*
X-3935317Y38372052D01*
X-4002059Y38304675D01*
X-4084166Y38256489D01*
X-4134897Y38238367D01*
X-4155639Y38231228D01*
X-4153861Y38225796D01*
X-4141104Y38221034D01*
X-4044003Y38178246D01*
X-3967289Y38121581D01*
X-3910428Y38050533D01*
X-3873894Y37967906D01*
X-3866338Y37941129D01*
X-3860493Y37913360D01*
X-3856145Y37881048D01*
X-3853081Y37840640D01*
X-3851086Y37788585D01*
X-3849946Y37721331D01*
X-3849447Y37635327D01*
X-3849364Y37560813D01*
X-3849364Y37233137D01*
X-3936266Y37233137D01*
X-4023167Y37233137D01*
X-4023167Y37559867D01*
X-4023562Y37675101D01*
X-4025091Y37768521D01*
X-4028273Y37843137D01*
X-4033626Y37901958D01*
X-4041667Y37947993D01*
X-4052913Y37984249D01*
X-4067884Y38013736D01*
X-4087097Y38039462D01*
X-4109800Y38063207D01*
X-4136038Y38087015D01*
X-4162181Y38105638D01*
X-4191717Y38119787D01*
X-4228130Y38130172D01*
X-4274907Y38137503D01*
X-4335534Y38142489D01*
X-4413496Y38145841D01*
X-4512279Y38148269D01*
X-4529057Y38148596D01*
X-4805278Y38153873D01*
X-4805278Y37693505D01*
X-4805278Y37233137D01*
X-4892180Y37233137D01*
X-4979081Y37233137D01*
X-4979081Y38244916D01*
X-4979081Y39095307D01*
X-4805278Y39095307D01*
X-4805278Y38703185D01*
X-4805278Y38311062D01*
X-4541471Y38316155D01*
X-4447465Y38318340D01*
X-4374562Y38321017D01*
X-4319039Y38324499D01*
X-4277170Y38329101D01*
X-4245232Y38335134D01*
X-4219498Y38342913D01*
X-4218411Y38343314D01*
X-4143565Y38383866D01*
X-4083034Y38443190D01*
X-4038078Y38518939D01*
X-4009956Y38608765D01*
X-3999928Y38710323D01*
X-4000948Y38748576D01*
X-4014761Y38845605D01*
X-4044420Y38924497D01*
X-4090781Y38986907D01*
X-4145861Y39029381D01*
X-4184761Y39050647D01*
X-4224089Y39066913D01*
X-4267905Y39078809D01*
X-4320263Y39086966D01*
X-4385220Y39092014D01*
X-4466834Y39094585D01*
X-4569160Y39095307D01*
X-4570015Y39095307D01*
X-4805278Y39095307D01*
X-4979081Y39095307D01*
X-4979081Y39256696D01*
X-4671823Y39256602D01*
G37*
G36*
X-11184736Y39270696D02*
G01*
X-11072174Y39239275D01*
X-10972722Y39186822D01*
X-10886334Y39113296D01*
X-10812959Y39018656D01*
X-10752549Y38902863D01*
X-10708823Y38779143D01*
X-10695812Y38730048D01*
X-10687523Y38690185D01*
X-10685039Y38665296D01*
X-10686386Y38660191D01*
X-10702455Y38652077D01*
X-10734822Y38639436D01*
X-10771369Y38626730D01*
X-10846795Y38601819D01*
X-10861663Y38671657D01*
X-10891462Y38777770D01*
X-10932721Y38874712D01*
X-10983043Y38958303D01*
X-11040033Y39024367D01*
X-11083590Y39058571D01*
X-11141518Y39090251D01*
X-11199249Y39109526D01*
X-11264679Y39118155D01*
X-11345708Y39117894D01*
X-11349277Y39117729D01*
X-11410099Y39113219D01*
X-11456915Y39104756D01*
X-11500513Y39089754D01*
X-11537944Y39072479D01*
X-11625210Y39015777D01*
X-11699301Y38938200D01*
X-11760127Y38839974D01*
X-11807597Y38721326D01*
X-11841620Y38582482D01*
X-11862106Y38423668D01*
X-11868964Y38245112D01*
X-11868964Y38244916D01*
X-11862121Y38065657D01*
X-11841635Y37906457D01*
X-11807566Y37767470D01*
X-11759976Y37648852D01*
X-11698928Y37550755D01*
X-11624482Y37473334D01*
X-11537944Y37417354D01*
X-11489615Y37395685D01*
X-11446227Y37382513D01*
X-11396994Y37375251D01*
X-11349277Y37372104D01*
X-11267483Y37371534D01*
X-11201594Y37379784D01*
X-11143713Y37398613D01*
X-11085939Y37429779D01*
X-11083590Y37431262D01*
X-11023300Y37482212D01*
X-10967962Y37553682D01*
X-10919971Y37641492D01*
X-10881724Y37741464D01*
X-10861663Y37818176D01*
X-10846795Y37888014D01*
X-10771369Y37863103D01*
X-10730708Y37848880D01*
X-10699766Y37836594D01*
X-10686386Y37829642D01*
X-10684488Y37813319D01*
X-10690481Y37779197D01*
X-10702752Y37732413D01*
X-10719685Y37678106D01*
X-10739664Y37621413D01*
X-10761075Y37567470D01*
X-10782301Y37521416D01*
X-10784832Y37516525D01*
X-10833413Y37439997D01*
X-10893908Y37369080D01*
X-10960080Y37310304D01*
X-11015378Y37275149D01*
X-11114399Y37237155D01*
X-11226122Y37215331D01*
X-11343826Y37210377D01*
X-11460789Y37222995D01*
X-11479160Y37226730D01*
X-11593533Y37263969D01*
X-11697440Y37323009D01*
X-11789838Y37402678D01*
X-11869683Y37501805D01*
X-11935930Y37619219D01*
X-11987536Y37753747D01*
X-12004977Y37816617D01*
X-12032313Y37960390D01*
X-12047663Y38117930D01*
X-12051029Y38281449D01*
X-12042408Y38443158D01*
X-12021801Y38595267D01*
X-12005058Y38673216D01*
X-11959038Y38817849D01*
X-11897949Y38944083D01*
X-11822519Y39051279D01*
X-11733475Y39138801D01*
X-11631548Y39206011D01*
X-11517463Y39252272D01*
X-11391951Y39276946D01*
X-11310459Y39281125D01*
X-11184736Y39270696D01*
G37*
G36*
X-8104423Y39253818D02*
G01*
X-7984122Y39251578D01*
X-7885417Y39248362D01*
X-7805076Y39243583D01*
X-7739871Y39236652D01*
X-7686570Y39226982D01*
X-7641943Y39213985D01*
X-7602759Y39197073D01*
X-7565789Y39175657D01*
X-7527802Y39149151D01*
X-7527312Y39148789D01*
X-7472380Y39102069D01*
X-7430912Y39050626D01*
X-7396605Y38985999D01*
X-7384436Y38956980D01*
X-7367632Y38895166D01*
X-7358121Y38817885D01*
X-7355881Y38733396D01*
X-7360889Y38649957D01*
X-7373122Y38575829D01*
X-7385603Y38534830D01*
X-7428059Y38454913D01*
X-7486560Y38385098D01*
X-7555438Y38331781D01*
X-7575148Y38321009D01*
X-7610282Y38303105D01*
X-7625528Y38292840D01*
X-7623242Y38286818D01*
X-7605780Y38281647D01*
X-7602943Y38280962D01*
X-7530788Y38253301D01*
X-7458455Y38207708D01*
X-7393149Y38149961D01*
X-7342072Y38085833D01*
X-7327430Y38060072D01*
X-7296906Y37980636D01*
X-7276016Y37888447D01*
X-7266753Y37794377D01*
X-7268025Y37735923D01*
X-7288175Y37615898D01*
X-7327697Y37511211D01*
X-7386331Y37422207D01*
X-7463816Y37349228D01*
X-7559890Y37292620D01*
X-7623362Y37267646D01*
X-7648192Y37259894D01*
X-7673265Y37253706D01*
X-7701805Y37248859D01*
X-7737038Y37245128D01*
X-7782187Y37242289D01*
X-7840477Y37240119D01*
X-7915133Y37238393D01*
X-8009380Y37236888D01*
X-8079594Y37235961D01*
X-8455132Y37231220D01*
X-8455132Y38203565D01*
X-8281329Y38203565D01*
X-8281329Y37798045D01*
X-8281329Y37392525D01*
X-7992693Y37396692D01*
X-7900798Y37398079D01*
X-7830012Y37399517D01*
X-7776616Y37401416D01*
X-7736892Y37404181D01*
X-7707124Y37408221D01*
X-7683592Y37413944D01*
X-7662578Y37421756D01*
X-7640365Y37432065D01*
X-7631798Y37436251D01*
X-7559823Y37483618D01*
X-7506256Y37546497D01*
X-7470817Y37625476D01*
X-7453228Y37721146D01*
X-7452070Y37815397D01*
X-7466810Y37922428D01*
X-7499391Y38012213D01*
X-7549805Y38084737D01*
X-7618040Y38139982D01*
X-7672514Y38166845D01*
X-7697701Y38176012D01*
X-7723611Y38183017D01*
X-7754205Y38188233D01*
X-7793445Y38192035D01*
X-7845292Y38194797D01*
X-7913707Y38196893D01*
X-8002651Y38198698D01*
X-8011315Y38198850D01*
X-8281329Y38203565D01*
X-8455132Y38203565D01*
X-8455132Y38245103D01*
X-8455132Y39095307D01*
X-8281329Y39095307D01*
X-8281329Y38727958D01*
X-8281329Y38360609D01*
X-8036144Y38365832D01*
X-7943803Y38368268D01*
X-7872510Y38371361D01*
X-7818482Y38375447D01*
X-7777940Y38380857D01*
X-7747104Y38387926D01*
X-7733072Y38392582D01*
X-7665475Y38429657D01*
X-7605674Y38485087D01*
X-7560452Y38552417D01*
X-7556499Y38560618D01*
X-7541645Y38608548D01*
X-7532325Y38671193D01*
X-7528597Y38740971D01*
X-7530523Y38810302D01*
X-7538161Y38871604D01*
X-7551573Y38917296D01*
X-7553644Y38921505D01*
X-7583915Y38971651D01*
X-7618266Y39011523D01*
X-7659746Y39042196D01*
X-7711407Y39064745D01*
X-7776299Y39080246D01*
X-7857473Y39089774D01*
X-7957978Y39094403D01*
X-8046762Y39095307D01*
X-8281329Y39095307D01*
X-8455132Y39095307D01*
X-8455132Y39258987D01*
X-8104423Y39253818D01*
G37*
G36*
X-11374949Y40075563D02*
G01*
X-11374986Y40065681D01*
X-11396873Y40047421D01*
X-11441240Y40020988D01*
X-11487365Y39997055D01*
X-11615592Y39923439D01*
X-11747489Y39829459D01*
X-11879461Y39718495D01*
X-12007914Y39593926D01*
X-12129253Y39459130D01*
X-12239885Y39317487D01*
X-12294744Y39238074D01*
X-12408749Y39045550D01*
X-12500220Y38849073D01*
X-12568775Y38650074D01*
X-12614034Y38449981D01*
X-12635615Y38250225D01*
X-12633138Y38052235D01*
X-12627309Y37990420D01*
X-12591779Y37762288D01*
X-12539240Y37548895D01*
X-12470111Y37351216D01*
X-12384812Y37170229D01*
X-12283762Y37006910D01*
X-12167380Y36862238D01*
X-12123850Y36816932D01*
X-12013742Y36717636D01*
X-11898486Y36634854D01*
X-11773537Y36566140D01*
X-11634352Y36509045D01*
X-11476386Y36461124D01*
X-11451043Y36454640D01*
X-11442063Y36452670D01*
X-11430818Y36450822D01*
X-11416508Y36449093D01*
X-11398331Y36447476D01*
X-11375487Y36445967D01*
X-11347175Y36444562D01*
X-11312593Y36443255D01*
X-11270940Y36442042D01*
X-11221415Y36440918D01*
X-11163218Y36439877D01*
X-11095546Y36438917D01*
X-11017600Y36438031D01*
X-10928577Y36437214D01*
X-10827677Y36436463D01*
X-10714099Y36435771D01*
X-10587042Y36435135D01*
X-10445704Y36434550D01*
X-10289285Y36434010D01*
X-10116983Y36433511D01*
X-9927997Y36433049D01*
X-9721527Y36432618D01*
X-9496770Y36432213D01*
X-9252927Y36431830D01*
X-8989196Y36431464D01*
X-8704776Y36431111D01*
X-8398865Y36430764D01*
X-8070664Y36430421D01*
X-7719370Y36430075D01*
X-7344182Y36429722D01*
X-7278820Y36429662D01*
X-3191315Y36425904D01*
X-3194460Y34610435D01*
X-3197605Y32794965D01*
X-9055043Y32791849D01*
X-9512836Y32791611D01*
X-9946444Y32791398D01*
X-10356512Y32791212D01*
X-10743684Y32791055D01*
X-11108605Y32790929D01*
X-11451918Y32790835D01*
X-11774268Y32790776D01*
X-12076300Y32790752D01*
X-12358657Y32790765D01*
X-12621984Y32790818D01*
X-12866925Y32790912D01*
X-13094124Y32791049D01*
X-13304227Y32791231D01*
X-13497877Y32791459D01*
X-13675718Y32791735D01*
X-13838395Y32792061D01*
X-13986552Y32792439D01*
X-14120834Y32792870D01*
X-14241884Y32793356D01*
X-14350347Y32793899D01*
X-14446868Y32794501D01*
X-14532090Y32795163D01*
X-14606659Y32795887D01*
X-14671217Y32796675D01*
X-14726411Y32797529D01*
X-14772883Y32798450D01*
X-14811279Y32799440D01*
X-14842242Y32800501D01*
X-14866417Y32801635D01*
X-14884448Y32802844D01*
X-14896980Y32804128D01*
X-14904657Y32805491D01*
X-14908122Y32806933D01*
X-14908464Y32807776D01*
X-14894569Y32820369D01*
X-14857828Y32838331D01*
X-14799509Y32861106D01*
X-14739459Y32881986D01*
X-14539828Y32957624D01*
X-14361631Y33044070D01*
X-14203616Y33142045D01*
X-14064531Y33252265D01*
X-14017998Y33295919D01*
X-13908235Y33416261D01*
X-13814405Y33546931D01*
X-13735561Y33690096D01*
X-13670755Y33847924D01*
X-13619038Y34022580D01*
X-13579464Y34216232D01*
X-13561511Y34339614D01*
X-13556662Y34381151D01*
X-13552622Y34424097D01*
X-13549334Y34470961D01*
X-13546743Y34524253D01*
X-13544792Y34586485D01*
X-13543425Y34660166D01*
X-13542585Y34747806D01*
X-13542217Y34851917D01*
X-13542265Y34975007D01*
X-13542672Y35119588D01*
X-13542875Y35172336D01*
X-13543271Y35407726D01*
X-13542529Y35584426D01*
X-11993255Y35584426D01*
X-11993255Y34570234D01*
X-11993255Y33556042D01*
X-11667375Y33561836D01*
X-11556097Y33564217D01*
X-11466529Y33567113D01*
X-11395555Y33570727D01*
X-11340057Y33575263D01*
X-11296919Y33580922D01*
X-11263024Y33587907D01*
X-11261896Y33588196D01*
X-11141965Y33630144D01*
X-11032845Y33690108D01*
X-10937872Y33765550D01*
X-10860382Y33853936D01*
X-10815664Y33927356D01*
X-10765915Y34048171D01*
X-10728608Y34185719D01*
X-10703773Y34335234D01*
X-10691439Y34491946D01*
X-10691635Y34651086D01*
X-10704392Y34807885D01*
X-10729737Y34957575D01*
X-10767701Y35095388D01*
X-10807867Y35195342D01*
X-10860326Y35283215D01*
X-10929793Y35365851D01*
X-11010017Y35436893D01*
X-11094746Y35489988D01*
X-11100508Y35492785D01*
X-11149813Y35515206D01*
X-11195709Y35533102D01*
X-11241980Y35547047D01*
X-11292411Y35557613D01*
X-11350787Y35565374D01*
X-11420891Y35570902D01*
X-11506509Y35574772D01*
X-11611424Y35577555D01*
X-11667375Y35578632D01*
X-11857537Y35582013D01*
X-10193157Y35582013D01*
X-10193157Y35501319D01*
X-10193157Y35420625D01*
X-9957282Y35420625D01*
X-9721407Y35420625D01*
X-9721407Y34570234D01*
X-9721407Y33719843D01*
X-9957282Y33719843D01*
X-10193157Y33719843D01*
X-10193157Y33639149D01*
X-10193157Y33558455D01*
X-9634506Y33558455D01*
X-9075855Y33558455D01*
X-9075855Y33639149D01*
X-9075855Y33719843D01*
X-9311730Y33719843D01*
X-9547605Y33719843D01*
X-9547605Y34570234D01*
X-9547605Y35420625D01*
X-9311730Y35420625D01*
X-9075855Y35420625D01*
X-9075855Y35501319D01*
X-9075855Y35575806D01*
X-8626739Y35575806D01*
X-8317054Y34582649D01*
X-8269775Y34431047D01*
X-8224564Y34286119D01*
X-8181974Y34149636D01*
X-8142558Y34023368D01*
X-8106870Y33909088D01*
X-8075462Y33808565D01*
X-8048889Y33723570D01*
X-8027703Y33655874D01*
X-8012458Y33607248D01*
X-8003706Y33579463D01*
X-8001786Y33573487D01*
X-7991234Y33565340D01*
X-7964431Y33561082D01*
X-7917962Y33560337D01*
X-7889005Y33561072D01*
X-7781807Y33564662D01*
X-7467839Y34570234D01*
X-7153871Y35575806D01*
X-7241653Y35579494D01*
X-7293670Y35579643D01*
X-7327154Y35575280D01*
X-7337981Y35569354D01*
X-7342893Y35555462D01*
X-7354364Y35519713D01*
X-7371806Y35464027D01*
X-7394628Y35390324D01*
X-7422242Y35300525D01*
X-7454058Y35196550D01*
X-7489487Y35080320D01*
X-7527941Y34953754D01*
X-7568829Y34818773D01*
X-7603851Y34702860D01*
X-7646562Y34561358D01*
X-7687464Y34425892D01*
X-7725948Y34298483D01*
X-7761402Y34181149D01*
X-7793215Y34075911D01*
X-7820778Y33984789D01*
X-7843478Y33909802D01*
X-7860707Y33852970D01*
X-7871852Y33816313D01*
X-7875931Y33803021D01*
X-7890687Y33755847D01*
X-7936936Y33908544D01*
X-7948832Y33947849D01*
X-7967129Y34008350D01*
X-7991051Y34087474D01*
X-8019820Y34182648D01*
X-8052658Y34291298D01*
X-8088787Y34410853D01*
X-8127431Y34538738D01*
X-8167811Y34672383D01*
X-8209149Y34809213D01*
X-8211086Y34815624D01*
X-8250954Y34947360D01*
X-8288808Y35071988D01*
X-8324024Y35187487D01*
X-8355981Y35291836D01*
X-8384054Y35383013D01*
X-8407621Y35458997D01*
X-8426060Y35517767D01*
X-8438747Y35557301D01*
X-8445059Y35575577D01*
X-8445564Y35576584D01*
X-8460357Y35579355D01*
X-8493039Y35580430D01*
X-8536718Y35579595D01*
X-8539440Y35579484D01*
X-8626739Y35575806D01*
X-9075855Y35575806D01*
X-9075855Y35582013D01*
X-6667448Y35582013D01*
X-6667448Y34570234D01*
X-6667448Y33558455D01*
X-6121212Y33558455D01*
X-5574975Y33558455D01*
X-5574975Y33639149D01*
X-5574975Y33719843D01*
X-6034311Y33719843D01*
X-6493646Y33719843D01*
X-6493646Y34117106D01*
X-6493646Y34514369D01*
X-6083969Y34514369D01*
X-5674291Y34514369D01*
X-5674291Y34595063D01*
X-5674291Y34675757D01*
X-6083969Y34675757D01*
X-6493646Y34675757D01*
X-6493646Y35048191D01*
X-6493646Y35420625D01*
X-6040518Y35420625D01*
X-5587390Y35420625D01*
X-5587390Y35501319D01*
X-5587390Y35582013D01*
X-4979081Y35582013D01*
X-4979081Y34570234D01*
X-4979081Y33558455D01*
X-4892180Y33558455D01*
X-4805278Y33558455D01*
X-4805278Y34018823D01*
X-4805278Y34479191D01*
X-4529057Y34473914D01*
X-4426859Y34471563D01*
X-4346005Y34468395D01*
X-4283008Y34463698D01*
X-4234381Y34456763D01*
X-4196640Y34446880D01*
X-4166298Y34433339D01*
X-4139868Y34415430D01*
X-4113866Y34392443D01*
X-4109800Y34388525D01*
X-4086068Y34363584D01*
X-4067072Y34337746D01*
X-4052292Y34308003D01*
X-4041211Y34271345D01*
X-4033311Y34224765D01*
X-4028075Y34165254D01*
X-4024984Y34089802D01*
X-4023521Y33995402D01*
X-4023167Y33885185D01*
X-4023167Y33558455D01*
X-3936266Y33558455D01*
X-3849364Y33558455D01*
X-3849364Y33886131D01*
X-3849538Y33987628D01*
X-3850200Y34067850D01*
X-3851565Y34130347D01*
X-3853847Y34178672D01*
X-3857260Y34216376D01*
X-3862019Y34247011D01*
X-3868336Y34274129D01*
X-3873894Y34293224D01*
X-3912111Y34378623D01*
X-3969668Y34449153D01*
X-4047096Y34505317D01*
X-4141104Y34546351D01*
X-4156895Y34553039D01*
X-4151193Y34558562D01*
X-4134897Y34563684D01*
X-4044394Y34601652D01*
X-3969403Y34658645D01*
X-3909652Y34734973D01*
X-3864866Y34830946D01*
X-3846837Y34890940D01*
X-3828235Y35004351D01*
X-3829213Y35115022D01*
X-3848722Y35219603D01*
X-3885709Y35314746D01*
X-3939124Y35397101D01*
X-4007914Y35463319D01*
X-4031655Y35479704D01*
X-4079224Y35507337D01*
X-4128009Y35529694D01*
X-4181228Y35547290D01*
X-4242096Y35560638D01*
X-4313830Y35570252D01*
X-4399646Y35576644D01*
X-4502761Y35580330D01*
X-4626389Y35581821D01*
X-4671823Y35581919D01*
X-4979081Y35582013D01*
X-5587390Y35582013D01*
X-6127419Y35582013D01*
X-6667448Y35582013D01*
X-9075855Y35582013D01*
X-9634506Y35582013D01*
X-10193157Y35582013D01*
X-11857537Y35582013D01*
X-11993255Y35584426D01*
X-13542529Y35584426D01*
X-13542374Y35621319D01*
X-13540060Y35816119D01*
X-13536205Y35995131D01*
X-13530685Y36161358D01*
X-13523376Y36317805D01*
X-13514154Y36467476D01*
X-13502893Y36613376D01*
X-13489471Y36758509D01*
X-13473764Y36905878D01*
X-13469804Y36940492D01*
X-13421484Y37291869D01*
X-13360199Y37623285D01*
X-13286028Y37934442D01*
X-13199049Y38225042D01*
X-13099341Y38494787D01*
X-13006187Y38704252D01*
X-12914897Y38882633D01*
X-12822238Y39041253D01*
X-12724823Y39185099D01*
X-12619263Y39319158D01*
X-12502171Y39448414D01*
X-12496940Y39453823D01*
X-12336163Y39605975D01*
X-12168535Y39736845D01*
X-11990355Y39848751D01*
X-11797926Y39944006D01*
X-11587545Y40024927D01*
X-11580687Y40027235D01*
X-11499631Y40052903D01*
X-11437902Y40069378D01*
X-11396132Y40076864D01*
X-11374949Y40075563D01*
G37*
%TO.C,FB101*%
X9062221Y-31527500D02*
X9387779Y-31527500D01*
X9062221Y-32547500D02*
X9387779Y-32547500D01*
%TO.C,C217*%
X6678307Y5830810D02*
X6830810Y5678307D01*
X6169190Y5321693D02*
X6321693Y5169190D01*
%TO.C,R507*%
X-4653641Y11380000D02*
X-4346359Y11380000D01*
X-4653641Y10620000D02*
X-4346359Y10620000D01*
%TO.C,D201*%
X6765000Y-24585000D02*
X8235000Y-24585000D01*
X8235000Y-24585000D02*
X8235000Y-22300000D01*
X6765000Y-22300000D02*
X6765000Y-24585000D01*
%TO.C,C403*%
X15760000Y23407836D02*
X15760000Y23192164D01*
X15040000Y23407836D02*
X15040000Y23192164D01*
%TO.C,C214*%
X-7378307Y-16330810D02*
X-7530810Y-16178307D01*
X-6869190Y-15821693D02*
X-7021693Y-15669190D01*
%TO.C,R801*%
X2253641Y-25630000D02*
X1946359Y-25630000D01*
X2253641Y-24870000D02*
X1946359Y-24870000D01*
%TO.C,R506*%
X-13353641Y13280000D02*
X-13046359Y13280000D01*
X-13353641Y12520000D02*
X-13046359Y12520000D01*
%TO.C,C106*%
X9035000Y-34196920D02*
X9035000Y-34478080D01*
X8015000Y-34196920D02*
X8015000Y-34478080D01*
%TO.C,C101*%
X13192164Y-28540000D02*
X13407836Y-28540000D01*
X13192164Y-29260000D02*
X13407836Y-29260000D01*
%TO.C,U102*%
X715000Y-34237500D02*
X715000Y-28227500D01*
X7535000Y-31987500D02*
X7535000Y-28227500D01*
X715000Y-28227500D02*
X1975000Y-28227500D01*
X7535000Y-28227500D02*
X6275000Y-28227500D01*
%TO.C,R502*%
X-13339940Y-9322659D02*
X-13122659Y-9539940D01*
X-13877341Y-9860060D02*
X-13660060Y-10077341D01*
%TO.C,C402*%
X15040000Y29992164D02*
X15040000Y30207836D01*
X15760000Y29992164D02*
X15760000Y30207836D01*
%TO.C,C206*%
X13530810Y-18178307D02*
X13378307Y-18330810D01*
X13021693Y-17669190D02*
X12869190Y-17821693D01*
%TO.C,TP603*%
X14000000Y-27200000D02*
G75*
G03*
X14000000Y-27200000I-700000J0D01*
G01*
%TO.C,U702*%
X-10565000Y-26190000D02*
X-10565000Y-26365000D01*
X-11365000Y-29410000D02*
X-10565000Y-29410000D01*
X-11365000Y-26190000D02*
X-10565000Y-26190000D01*
X-13235000Y-29410000D02*
X-14035000Y-29410000D01*
X-13235000Y-26190000D02*
X-14035000Y-26190000D01*
X-14035000Y-29410000D02*
X-14035000Y-29235000D01*
X-14035000Y-26190000D02*
X-14035000Y-26365000D01*
%TO.C,C104*%
X8015000Y-29878080D02*
X8015000Y-29596920D01*
X9035000Y-29878080D02*
X9035000Y-29596920D01*
%TO.C,R201*%
X9180000Y-21646359D02*
X9180000Y-21953641D01*
X8420000Y-21646359D02*
X8420000Y-21953641D01*
%TO.C,TP601*%
X16300000Y-23900000D02*
G75*
G03*
X16300000Y-23900000I-700000J0D01*
G01*
%TO.C,C212*%
X321693Y8469190D02*
X169190Y8621693D01*
X830810Y8978307D02*
X678307Y9130810D01*
%TO.C,C301*%
X2592164Y39160000D02*
X2807836Y39160000D01*
X2592164Y38440000D02*
X2807836Y38440000D01*
%TO.C,R401*%
X-8522659Y2539940D02*
X-8739940Y2322659D01*
X-9060060Y3077341D02*
X-9277341Y2860060D01*
%TO.C,R802*%
X-1580000Y-39053641D02*
X-1580000Y-38746359D01*
X-820000Y-39053641D02*
X-820000Y-38746359D01*
%TO.C,R701*%
X-6680000Y-34853641D02*
X-6680000Y-34546359D01*
X-5920000Y-34853641D02*
X-5920000Y-34546359D01*
%TO.C,C202*%
X-2069190Y-21578307D02*
X-2221693Y-21730810D01*
X-2578307Y-21069190D02*
X-2730810Y-21221693D01*
%TO.C,C102*%
X10585000Y-33629664D02*
X10585000Y-33845336D01*
X9865000Y-33629664D02*
X9865000Y-33845336D01*
%TO.C,C204*%
X14378307Y-2669190D02*
X14530810Y-2821693D01*
X13869190Y-3178307D02*
X14021693Y-3330810D01*
%TO.C,C208*%
X-14669190Y-5438896D02*
X-14821693Y-5591399D01*
X-15178307Y-4929779D02*
X-15330810Y-5082282D01*
%TO.C,C219*%
X14230810Y-10978307D02*
X14078307Y-11130810D01*
X13721693Y-10469190D02*
X13569190Y-10621693D01*
%TO.C,R205*%
X-9936359Y-17480000D02*
X-10243641Y-17480000D01*
X-9936359Y-16720000D02*
X-10243641Y-16720000D01*
%TO.C,C407*%
X1210000Y11707836D02*
X1210000Y11492164D01*
X490000Y11707836D02*
X490000Y11492164D01*
%TO.C,C401*%
X4559420Y35110000D02*
X4840580Y35110000D01*
X4559420Y34090000D02*
X4840580Y34090000D01*
%TO.C,TP602*%
X14700000Y-25200000D02*
G75*
G03*
X14700000Y-25200000I-700000J0D01*
G01*
%TO.C,C222*%
X-14339970Y-3461219D02*
X-14538781Y-3660030D01*
X-15061219Y-2739970D02*
X-15260030Y-2938781D01*
%TO.C,TP507*%
X-2000000Y14400000D02*
G75*
G03*
X-2000000Y14400000I-700000J0D01*
G01*
%TO.C,C210*%
X-2769190Y-20938896D02*
X-2921693Y-21091399D01*
X-3278307Y-20429779D02*
X-3430810Y-20582282D01*
%TO.C,D101*%
X10785000Y-38635000D02*
X10785000Y-37165000D01*
X10785000Y-37165000D02*
X8500000Y-37165000D01*
X8500000Y-38635000D02*
X10785000Y-38635000D01*
%TO.C,U703*%
X-15972500Y-39210000D02*
X-15972500Y-39035000D01*
X-15297500Y-36490000D02*
X-15972500Y-36490000D01*
X-15297500Y-39210000D02*
X-15972500Y-39210000D01*
X-13427500Y-36490000D02*
X-12752500Y-36490000D01*
X-13427500Y-39210000D02*
X-12752500Y-39210000D01*
X-12752500Y-36490000D02*
X-12752500Y-36665000D01*
X-12752500Y-39210000D02*
X-12752500Y-39035000D01*
%TO.C,C406*%
X1210000Y25407836D02*
X1210000Y25192164D01*
X490000Y25407836D02*
X490000Y25192164D01*
%TO.C,G\u002A\u002A\u002A*%
G36*
X11314914Y39746614D02*
G01*
X11359078Y39732682D01*
X11385444Y39706150D01*
X11397410Y39664307D01*
X11399092Y39631348D01*
X11394834Y39582688D01*
X11379553Y39550089D01*
X11349495Y39530715D01*
X11300901Y39521728D01*
X11251790Y39520096D01*
X11155724Y39520096D01*
X11155724Y39635376D01*
X11155724Y39750656D01*
X11249557Y39750656D01*
X11314914Y39746614D01*
G37*
G36*
X9207723Y39680207D02*
G01*
X9211302Y39663632D01*
X9220277Y39627369D01*
X9233367Y39576463D01*
X9249291Y39515957D01*
X9252453Y39504085D01*
X9296032Y39340772D01*
X9202234Y39340772D01*
X9108436Y39340772D01*
X9147518Y39484871D01*
X9168954Y39563430D01*
X9184725Y39619908D01*
X9195665Y39657003D01*
X9202604Y39677415D01*
X9206376Y39683844D01*
X9207723Y39680207D01*
G37*
G36*
X10265421Y39747363D02*
G01*
X10309950Y39735688D01*
X10337760Y39712932D01*
X10352982Y39676397D01*
X10357687Y39647679D01*
X10358872Y39604721D01*
X10348644Y39573301D01*
X10336275Y39555320D01*
X10320533Y39537623D01*
X10303338Y39527116D01*
X10277855Y39521939D01*
X10237251Y39520231D01*
X10206937Y39520096D01*
X10105396Y39520096D01*
X10105396Y39635376D01*
X10105396Y39750656D01*
X10200043Y39750656D01*
X10265421Y39747363D01*
G37*
G36*
X10419455Y35203740D02*
G01*
X10560111Y35024650D01*
X10563665Y35203740D01*
X10567219Y35382829D01*
X10662934Y35382829D01*
X10758648Y35382829D01*
X10758648Y35030585D01*
X10758648Y34678341D01*
X10683094Y34678341D01*
X10607540Y34678341D01*
X10468546Y34850439D01*
X10329551Y35022538D01*
X10325987Y34850439D01*
X10322424Y34678341D01*
X10226719Y34678341D01*
X10131014Y34678341D01*
X10131014Y35030585D01*
X10131014Y35382829D01*
X10204907Y35382829D01*
X10278800Y35382829D01*
X10419455Y35203740D01*
G37*
G36*
X11982033Y35203291D02*
G01*
X12122794Y35023753D01*
X12126348Y35203291D01*
X12129901Y35382829D01*
X12225616Y35382829D01*
X12321331Y35382829D01*
X12321331Y35030585D01*
X12321331Y34678341D01*
X12245877Y34678341D01*
X12170423Y34678341D01*
X12031329Y34851491D01*
X11892234Y35024642D01*
X11888670Y34851491D01*
X11885107Y34678341D01*
X11789401Y34678341D01*
X11693696Y34678341D01*
X11693696Y35030585D01*
X11693696Y35382829D01*
X11767484Y35382829D01*
X11841272Y35382829D01*
X11982033Y35203291D01*
G37*
G36*
X13429541Y35203740D02*
G01*
X13570197Y35024650D01*
X13573751Y35203740D01*
X13577304Y35382829D01*
X13673019Y35382829D01*
X13768734Y35382829D01*
X13768734Y35030585D01*
X13768734Y34678341D01*
X13693180Y34678341D01*
X13617626Y34678341D01*
X13478631Y34850439D01*
X13339637Y35022538D01*
X13336073Y34850439D01*
X13332509Y34678341D01*
X13236804Y34678341D01*
X13141099Y34678341D01*
X13141099Y35030585D01*
X13141099Y35382829D01*
X13214992Y35382829D01*
X13288886Y35382829D01*
X13429541Y35203740D01*
G37*
G36*
X11591225Y35299571D02*
G01*
X11591225Y35216314D01*
X11443923Y35216314D01*
X11296621Y35216314D01*
X11296621Y35165078D01*
X11296621Y35113843D01*
X11424710Y35113843D01*
X11552799Y35113843D01*
X11552799Y35036989D01*
X11552799Y34960136D01*
X11424710Y34960136D01*
X11296621Y34960136D01*
X11296621Y34902496D01*
X11296621Y34844856D01*
X11450328Y34844856D01*
X11604034Y34844856D01*
X11604034Y34761599D01*
X11604034Y34678341D01*
X11354261Y34678341D01*
X11104488Y34678341D01*
X11104488Y35030585D01*
X11104488Y35382829D01*
X11347857Y35382829D01*
X11591225Y35382829D01*
X11591225Y35299571D01*
G37*
G36*
X12192984Y37890975D02*
G01*
X12275001Y37889443D01*
X12335396Y37887753D01*
X12378161Y37885349D01*
X12407287Y37881674D01*
X12426768Y37876169D01*
X12440594Y37868278D01*
X12452759Y37857442D01*
X12455963Y37854254D01*
X12485580Y37809818D01*
X12499656Y37756420D01*
X12498502Y37701333D01*
X12482430Y37651831D01*
X12451753Y37615186D01*
X12445523Y37611010D01*
X12427934Y37601796D01*
X12407192Y37595146D01*
X12379029Y37590651D01*
X12339174Y37587904D01*
X12283358Y37586498D01*
X12207309Y37586024D01*
X12183636Y37586004D01*
X11962683Y37585956D01*
X11962683Y37740471D01*
X11962683Y37894986D01*
X12192984Y37890975D01*
G37*
G36*
X12314280Y37124756D02*
G01*
X12380743Y37124263D01*
X12428885Y37122977D01*
X12462355Y37120519D01*
X12484800Y37116509D01*
X12499869Y37110568D01*
X12511210Y37102316D01*
X12519561Y37094286D01*
X12554776Y37043265D01*
X12570800Y36984401D01*
X12568046Y36924142D01*
X12546930Y36868935D01*
X12507868Y36825230D01*
X12501963Y36821043D01*
X12485708Y36810926D01*
X12468738Y36803457D01*
X12447064Y36798235D01*
X12416697Y36794860D01*
X12373646Y36792931D01*
X12313922Y36792048D01*
X12233534Y36791811D01*
X12210562Y36791805D01*
X11962683Y36791805D01*
X11962683Y36958321D01*
X11962683Y37124836D01*
X12225847Y37124836D01*
X12314280Y37124756D01*
G37*
G36*
X10245740Y37748499D02*
G01*
X10255367Y37714698D01*
X10269284Y37664117D01*
X10286429Y37600765D01*
X10305744Y37528655D01*
X10326166Y37451797D01*
X10346635Y37374202D01*
X10366089Y37299880D01*
X10383470Y37232844D01*
X10397714Y37177103D01*
X10407763Y37136668D01*
X10412554Y37115551D01*
X10412809Y37113647D01*
X10402524Y37107246D01*
X10370774Y37102779D01*
X10316219Y37100140D01*
X10237516Y37099221D01*
X10232114Y37099218D01*
X10158772Y37099672D01*
X10107849Y37101236D01*
X10076161Y37104221D01*
X10060522Y37108932D01*
X10057747Y37115680D01*
X10057885Y37116067D01*
X10062946Y37132593D01*
X10073816Y37170312D01*
X10089507Y37225714D01*
X10109028Y37295294D01*
X10131392Y37375544D01*
X10151622Y37448528D01*
X10175306Y37533735D01*
X10196746Y37610020D01*
X10215015Y37674148D01*
X10229183Y37722883D01*
X10238322Y37752991D01*
X10241464Y37761508D01*
X10245740Y37748499D01*
G37*
G36*
X7974705Y35380924D02*
G01*
X8050691Y35374242D01*
X8108765Y35361332D01*
X8152671Y35340741D01*
X8186153Y35311018D01*
X8212955Y35270713D01*
X8224019Y35248336D01*
X8245745Y35172183D01*
X8244076Y35094379D01*
X8219885Y35020650D01*
X8180656Y34963682D01*
X8154627Y34935205D01*
X8233213Y34806773D01*
X8311799Y34678341D01*
X8205081Y34678341D01*
X8098364Y34678341D01*
X8031832Y34787216D01*
X8000307Y34837549D01*
X7977497Y34869578D01*
X7959547Y34887323D01*
X7942603Y34894801D01*
X7927380Y34896092D01*
X7889460Y34896092D01*
X7889460Y34787216D01*
X7889460Y34678341D01*
X7793394Y34678341D01*
X7697327Y34678341D01*
X7697327Y35030585D01*
X7697327Y35217592D01*
X7889460Y35217592D01*
X7889460Y35139460D01*
X7889460Y35061329D01*
X7962999Y35065170D01*
X8005828Y35068711D01*
X8030791Y35075888D01*
X8045636Y35090052D01*
X8053360Y35104236D01*
X8063640Y35135887D01*
X8057601Y35165268D01*
X8053360Y35174685D01*
X8040919Y35195040D01*
X8023291Y35206275D01*
X7992727Y35211742D01*
X7962999Y35213751D01*
X7889460Y35217592D01*
X7697327Y35217592D01*
X7697327Y35382829D01*
X7877063Y35382829D01*
X7974705Y35380924D01*
G37*
G36*
X8786515Y35363310D02*
G01*
X8863042Y35320560D01*
X8892840Y35295228D01*
X8952275Y35222239D01*
X8990133Y35140145D01*
X9006450Y35053103D01*
X9001265Y34965268D01*
X8974613Y34880795D01*
X8926531Y34803842D01*
X8888118Y34763640D01*
X8812634Y34711325D01*
X8730781Y34682846D01*
X8645622Y34678651D01*
X8560221Y34699186D01*
X8531954Y34711741D01*
X8458618Y34761250D01*
X8403157Y34825127D01*
X8365567Y34899392D01*
X8345843Y34980068D01*
X8345155Y35010785D01*
X8532083Y35010785D01*
X8540083Y34957084D01*
X8548862Y34935013D01*
X8584526Y34887114D01*
X8630011Y34856528D01*
X8679763Y34845243D01*
X8728231Y34855247D01*
X8744878Y34864847D01*
X8784395Y34907096D01*
X8808652Y34963525D01*
X8817261Y35027455D01*
X8809830Y35092204D01*
X8785969Y35151092D01*
X8763361Y35181089D01*
X8721935Y35207869D01*
X8670305Y35217506D01*
X8618435Y35208657D01*
X8604826Y35202471D01*
X8574090Y35173121D01*
X8550667Y35126355D01*
X8536138Y35069726D01*
X8532083Y35010785D01*
X8345155Y35010785D01*
X8343981Y35063175D01*
X8359974Y35144736D01*
X8393819Y35220771D01*
X8445511Y35287303D01*
X8515045Y35340353D01*
X8532720Y35349811D01*
X8617325Y35378546D01*
X8703266Y35382843D01*
X8786515Y35363310D01*
G37*
G36*
X12798905Y35380323D02*
G01*
X12881931Y35355930D01*
X12895128Y35349705D01*
X12937755Y35323985D01*
X12974498Y35294210D01*
X12989455Y35277462D01*
X13017309Y35238344D01*
X12980165Y35211318D01*
X12944548Y35184201D01*
X12912583Y35158141D01*
X12882145Y35131990D01*
X12839983Y35174152D01*
X12804146Y35203479D01*
X12768876Y35215299D01*
X12750867Y35216314D01*
X12698312Y35209757D01*
X12660954Y35187134D01*
X12632080Y35144018D01*
X12627937Y35135225D01*
X12607636Y35068596D01*
X12605364Y35003459D01*
X12619276Y34944186D01*
X12647526Y34895151D01*
X12688271Y34860726D01*
X12739666Y34845284D01*
X12750429Y34844856D01*
X12796145Y34854026D01*
X12842642Y34877018D01*
X12871412Y34901652D01*
X12878312Y34913376D01*
X12870824Y34919390D01*
X12844479Y34921525D01*
X12822446Y34921710D01*
X12756833Y34921710D01*
X12756833Y34985754D01*
X12756833Y35049798D01*
X12897731Y35049798D01*
X13038628Y35049798D01*
X13038628Y34864070D01*
X13038628Y34678341D01*
X12968179Y34678341D01*
X12927467Y34679453D01*
X12906258Y34684260D01*
X12898482Y34694971D01*
X12897731Y34703959D01*
X12893492Y34724789D01*
X12887630Y34729576D01*
X12870908Y34724199D01*
X12840814Y34710677D01*
X12827282Y34703959D01*
X12757055Y34681445D01*
X12683328Y34684004D01*
X12605920Y34711370D01*
X12560040Y34739891D01*
X12517273Y34775613D01*
X12500050Y34794385D01*
X12464217Y34851241D01*
X12434837Y34919349D01*
X12415916Y34987919D01*
X12410993Y35034345D01*
X12422259Y35123863D01*
X12453823Y35203653D01*
X12502336Y35271533D01*
X12564450Y35325322D01*
X12636816Y35362837D01*
X12716084Y35381898D01*
X12798905Y35380323D01*
G37*
G36*
X7239410Y35382781D02*
G01*
X7321778Y35382462D01*
X7382759Y35381284D01*
X7426578Y35378856D01*
X7457463Y35374787D01*
X7479638Y35368685D01*
X7497331Y35360160D01*
X7499815Y35358676D01*
X7544447Y35317686D01*
X7571378Y35263934D01*
X7579875Y35203850D01*
X7569204Y35143864D01*
X7538632Y35090407D01*
X7531323Y35082348D01*
X7490509Y35040238D01*
X7534079Y35013311D01*
X7575202Y34978581D01*
X7598766Y34933410D01*
X7607469Y34872132D01*
X7607665Y34858790D01*
X7601472Y34804234D01*
X7581140Y34763379D01*
X7579897Y34761774D01*
X7557099Y34736849D01*
X7530513Y34717859D01*
X7496320Y34703899D01*
X7450698Y34694060D01*
X7389825Y34687435D01*
X7309882Y34683119D01*
X7239410Y34680957D01*
X7018457Y34675435D01*
X7018457Y34960136D01*
X7210590Y34960136D01*
X7210590Y34896092D01*
X7210590Y34832047D01*
X7280205Y34832047D01*
X7325987Y34834218D01*
X7365719Y34839757D01*
X7380929Y34843875D01*
X7413046Y34866129D01*
X7422177Y34899676D01*
X7415490Y34928225D01*
X7407569Y34944515D01*
X7395147Y34954052D01*
X7372116Y34958632D01*
X7332370Y34960051D01*
X7306974Y34960136D01*
X7210590Y34960136D01*
X7018457Y34960136D01*
X7018457Y35029132D01*
X7018457Y35229123D01*
X7210590Y35229123D01*
X7210590Y35171483D01*
X7210590Y35113843D01*
X7293397Y35113843D01*
X7340001Y35115037D01*
X7367800Y35119847D01*
X7383548Y35130117D01*
X7390374Y35140319D01*
X7397434Y35166763D01*
X7385886Y35195224D01*
X7384125Y35197959D01*
X7369209Y35215731D01*
X7349091Y35225143D01*
X7315904Y35228723D01*
X7287148Y35229123D01*
X7210590Y35229123D01*
X7018457Y35229123D01*
X7018457Y35382829D01*
X7239410Y35382781D01*
G37*
G36*
X9719997Y35381452D02*
G01*
X9749456Y35377857D01*
X9759700Y35373222D01*
X9755844Y35358115D01*
X9745200Y35323654D01*
X9729321Y35274707D01*
X9709760Y35216140D01*
X9706336Y35206036D01*
X9652830Y35048457D01*
X9674825Y34978679D01*
X9688161Y34940943D01*
X9699874Y34915605D01*
X9705829Y34908901D01*
X9712286Y34920527D01*
X9724756Y34952838D01*
X9741893Y35001979D01*
X9762351Y35064096D01*
X9783687Y35131782D01*
X9806204Y35203901D01*
X9826651Y35267938D01*
X9843652Y35319701D01*
X9855832Y35354999D01*
X9861596Y35369322D01*
X9880331Y35377443D01*
X9922394Y35380828D01*
X9966565Y35380203D01*
X10062475Y35376425D01*
X9927027Y35027680D01*
X9791578Y34678935D01*
X9713431Y34678638D01*
X9635283Y34678341D01*
X9585658Y34805678D01*
X9564922Y34856856D01*
X9547159Y34896945D01*
X9534506Y34921346D01*
X9529480Y34926463D01*
X9522235Y34912459D01*
X9508032Y34880063D01*
X9489223Y34834750D01*
X9476182Y34802328D01*
X9429436Y34684745D01*
X9350962Y34680928D01*
X9306193Y34679943D01*
X9280549Y34683411D01*
X9267719Y34692726D01*
X9264090Y34700141D01*
X9257346Y34717847D01*
X9242602Y34756054D01*
X9221166Y34811393D01*
X9194343Y34880497D01*
X9163438Y34959998D01*
X9129763Y35046518D01*
X9096570Y35131996D01*
X9066655Y35209510D01*
X9041221Y35275904D01*
X9021471Y35328023D01*
X9008609Y35362708D01*
X9003838Y35376804D01*
X9003832Y35376886D01*
X9015596Y35379752D01*
X9046782Y35381042D01*
X9091230Y35380552D01*
X9102694Y35380166D01*
X9201556Y35376425D01*
X9276665Y35141579D01*
X9300277Y35069477D01*
X9321731Y35007203D01*
X9339711Y34958319D01*
X9352899Y34926389D01*
X9359980Y34914977D01*
X9360330Y34915128D01*
X9369162Y34931329D01*
X9382030Y34963126D01*
X9389268Y34983458D01*
X9409651Y35043394D01*
X9354044Y35209376D01*
X9333783Y35270150D01*
X9316826Y35321585D01*
X9304657Y35359132D01*
X9298761Y35378244D01*
X9298437Y35379679D01*
X9310122Y35381335D01*
X9340759Y35381529D01*
X9383725Y35380218D01*
X9383855Y35380212D01*
X9469273Y35376425D01*
X9493946Y35286763D01*
X9507327Y35241363D01*
X9519431Y35205870D01*
X9527803Y35187432D01*
X9528259Y35186885D01*
X9535808Y35193473D01*
X9547654Y35219843D01*
X9561689Y35260973D01*
X9567250Y35279749D01*
X9596600Y35382829D01*
X9678078Y35382829D01*
X9719997Y35381452D01*
G37*
G36*
X13845587Y38168760D02*
G01*
X13845587Y35690242D01*
X10387191Y35690242D01*
X6928795Y35690242D01*
X6928795Y38168760D01*
X6928795Y38380106D01*
X7722945Y38380106D01*
X7722945Y37342587D01*
X7722945Y36305068D01*
X8783645Y36305068D01*
X9844346Y36305068D01*
X9906461Y36510010D01*
X9968576Y36714952D01*
X10241265Y36714952D01*
X10513954Y36714952D01*
X10534724Y36641301D01*
X10547962Y36596235D01*
X10566214Y36536541D01*
X10586490Y36471926D01*
X10596855Y36439561D01*
X10638217Y36311473D01*
X10943262Y36308035D01*
X11039300Y36307052D01*
X11112638Y36306670D01*
X11166187Y36307079D01*
X11202862Y36308468D01*
X11225575Y36311026D01*
X11237240Y36314942D01*
X11240770Y36320405D01*
X11239222Y36327248D01*
X11233449Y36342497D01*
X11219427Y36379936D01*
X11197836Y36437743D01*
X11169353Y36514096D01*
X11134659Y36607174D01*
X11094430Y36715154D01*
X11049348Y36836214D01*
X11000089Y36968534D01*
X10947334Y37110291D01*
X10891760Y37259662D01*
X10860914Y37342587D01*
X10804110Y37495296D01*
X10749765Y37641365D01*
X10698557Y37778975D01*
X10651165Y37906302D01*
X10608267Y38021527D01*
X10570541Y38122828D01*
X10538665Y38208383D01*
X10513318Y38276371D01*
X10495177Y38324972D01*
X10484921Y38352364D01*
X10482902Y38357690D01*
X10477619Y38365681D01*
X10466602Y38371528D01*
X10446305Y38375559D01*
X10413184Y38378102D01*
X10363694Y38379486D01*
X10294291Y38380037D01*
X10240789Y38380106D01*
X10007466Y38380106D01*
X9798608Y37819718D01*
X9747511Y37682635D01*
X9691868Y37533384D01*
X9633867Y37377830D01*
X9575695Y37221841D01*
X9519542Y37071285D01*
X9467594Y36932029D01*
X9422041Y36809941D01*
X9415273Y36791805D01*
X9240797Y36324281D01*
X9237312Y36564448D01*
X9233827Y36804614D01*
X8766586Y36804614D01*
X8299344Y36804614D01*
X8299344Y37592360D01*
X8299344Y38380106D01*
X8011145Y38380106D01*
X7722945Y38380106D01*
X6928795Y38380106D01*
X6928795Y38380983D01*
X11386283Y38380983D01*
X11386283Y37351565D01*
X11386387Y37191414D01*
X11386688Y37038688D01*
X11387170Y36895321D01*
X11387817Y36763246D01*
X11388613Y36644398D01*
X11389543Y36540711D01*
X11390590Y36454119D01*
X11391738Y36386556D01*
X11392972Y36339956D01*
X11394276Y36316253D01*
X11394823Y36313607D01*
X11409798Y36311141D01*
X11447275Y36309111D01*
X11504139Y36307503D01*
X11577278Y36306305D01*
X11663578Y36305504D01*
X11759926Y36305088D01*
X11863209Y36305043D01*
X11970314Y36305358D01*
X12078128Y36306019D01*
X12183537Y36307014D01*
X12283429Y36308329D01*
X12374691Y36309953D01*
X12454208Y36311872D01*
X12518869Y36314075D01*
X12565560Y36316547D01*
X12586189Y36318472D01*
X12726843Y36346393D01*
X12849992Y36389883D01*
X12954377Y36448323D01*
X13038739Y36521095D01*
X13067342Y36555053D01*
X13107887Y36617453D01*
X13134549Y36682898D01*
X13148885Y36757594D01*
X13152452Y36847744D01*
X13151217Y36889402D01*
X13147448Y36953788D01*
X13141640Y37001110D01*
X13131926Y37039921D01*
X13116442Y37078774D01*
X13104417Y37104021D01*
X13046478Y37193541D01*
X12968006Y37270991D01*
X12872589Y37332939D01*
X12857268Y37340571D01*
X12780856Y37377245D01*
X12820176Y37393532D01*
X12859683Y37418343D01*
X12905123Y37459816D01*
X12951052Y37511660D01*
X12992025Y37567585D01*
X13022597Y37621301D01*
X13027936Y37633546D01*
X13041607Y37671391D01*
X13050448Y37708439D01*
X13055434Y37751955D01*
X13057546Y37809209D01*
X13057842Y37855641D01*
X13057522Y37919954D01*
X13055599Y37966001D01*
X13050629Y38001135D01*
X13041168Y38032706D01*
X13025773Y38068066D01*
X13009605Y38101208D01*
X12947520Y38200321D01*
X12868906Y38281394D01*
X12775946Y38342193D01*
X12772596Y38343859D01*
X12712002Y38373702D01*
X12049143Y38377342D01*
X11386283Y38380983D01*
X6928795Y38380983D01*
X6928795Y38930888D01*
X7633005Y38930888D01*
X7786850Y38930888D01*
X7940696Y38930888D01*
X7940696Y39142234D01*
X7940696Y39353581D01*
X8120020Y39353581D01*
X8299344Y39353581D01*
X8299344Y39142234D01*
X8299344Y38930888D01*
X8453190Y38930888D01*
X8607035Y38930888D01*
X8606960Y38943094D01*
X8683611Y38943094D01*
X8695744Y38938145D01*
X8729467Y38934255D01*
X8780762Y38931733D01*
X8842119Y38930888D01*
X9000627Y38930888D01*
X9030236Y39033359D01*
X9059846Y39135830D01*
X9202979Y39135830D01*
X9346113Y39135830D01*
X9375290Y39033359D01*
X9404467Y38930888D01*
X9562798Y38930888D01*
X9797705Y38930888D01*
X9951550Y38930888D01*
X10105396Y38930888D01*
X10105396Y39090999D01*
X10105396Y39251110D01*
X10161101Y39251110D01*
X10216806Y39251110D01*
X10315983Y39090999D01*
X10415160Y38930888D01*
X10586694Y38930888D01*
X10758227Y38930888D01*
X10848033Y38930888D01*
X11001878Y38930888D01*
X11155724Y38930888D01*
X11885551Y38930888D01*
X12039536Y38930888D01*
X12193521Y38930888D01*
X12192812Y39045715D01*
X12308522Y39045715D01*
X12320054Y39031900D01*
X12351418Y39013340D01*
X12397770Y38992167D01*
X12454266Y38970513D01*
X12516060Y38950510D01*
X12540516Y38943626D01*
X12620177Y38928169D01*
X12709495Y38920554D01*
X12801037Y38920589D01*
X12887368Y38928082D01*
X12961053Y38942839D01*
X12996892Y38955448D01*
X13069287Y38999894D01*
X13125675Y39059402D01*
X13165220Y39129693D01*
X13187087Y39206485D01*
X13190439Y39285497D01*
X13174441Y39362448D01*
X13138257Y39433057D01*
X13098888Y39477887D01*
X13060296Y39508065D01*
X13010094Y39537060D01*
X12944733Y39566508D01*
X12860661Y39598042D01*
X12777087Y39626018D01*
X12716724Y39649122D01*
X12680629Y39672230D01*
X12667479Y39696583D01*
X12674933Y39721836D01*
X12702264Y39742345D01*
X12747515Y39749137D01*
X12807215Y39742592D01*
X12877892Y39723091D01*
X12956077Y39691016D01*
X12956176Y39690969D01*
X12996293Y39674437D01*
X13025797Y39666979D01*
X13037340Y39668759D01*
X13047369Y39684404D01*
X13066200Y39717238D01*
X13090728Y39761769D01*
X13107429Y39792830D01*
X13167438Y39905453D01*
X13099831Y39935085D01*
X13021201Y39967975D01*
X12956734Y39990352D01*
X12898174Y40004098D01*
X12837266Y40011094D01*
X12765752Y40013220D01*
X12756833Y40013238D01*
X12689578Y40012218D01*
X12640765Y40008494D01*
X12603276Y40001072D01*
X12569993Y39988954D01*
X12564049Y39986267D01*
X12479632Y39935462D01*
X12416613Y39870692D01*
X12374385Y39791108D01*
X12352342Y39695862D01*
X12351611Y39689278D01*
X12352318Y39604669D01*
X12374592Y39532027D01*
X12419849Y39467499D01*
X12440883Y39446576D01*
X12461515Y39428605D01*
X12483211Y39412903D01*
X12509629Y39397831D01*
X12544425Y39381746D01*
X12591259Y39363009D01*
X12653788Y39339979D01*
X12735671Y39311016D01*
X12769474Y39299211D01*
X12823483Y39276911D01*
X12852203Y39256511D01*
X12856991Y39247253D01*
X12853170Y39216078D01*
X12829432Y39196330D01*
X12788705Y39187849D01*
X12733921Y39190477D01*
X12668010Y39204053D01*
X12593901Y39228419D01*
X12514525Y39263414D01*
X12508966Y39266197D01*
X12470362Y39284860D01*
X12442051Y39297000D01*
X12430390Y39299981D01*
X12421075Y39284467D01*
X12404338Y39252271D01*
X12383063Y39209416D01*
X12360136Y39161921D01*
X12338444Y39115809D01*
X12320872Y39077099D01*
X12310305Y39051812D01*
X12308522Y39045715D01*
X12192812Y39045715D01*
X12190179Y39472063D01*
X12186838Y40013238D01*
X12039536Y40013238D01*
X11892234Y40013238D01*
X11888893Y39472063D01*
X11885551Y38930888D01*
X11155724Y38930888D01*
X11155724Y39090999D01*
X11155724Y39251110D01*
X11210161Y39250896D01*
X11264599Y39250683D01*
X11360666Y39090819D01*
X11456732Y38930956D01*
X11626450Y38930922D01*
X11689029Y38931271D01*
X11741205Y38932253D01*
X11778267Y38933727D01*
X11795503Y38935550D01*
X11796167Y38936003D01*
X11789777Y38948033D01*
X11772059Y38978201D01*
X11745192Y39022878D01*
X11711356Y39078436D01*
X11679908Y39129615D01*
X11563648Y39318111D01*
X11594589Y39351857D01*
X11647106Y39417975D01*
X11682178Y39485766D01*
X11700712Y39544174D01*
X11711899Y39636742D01*
X11699722Y39727604D01*
X11666320Y39812662D01*
X11613836Y39887819D01*
X11544410Y39948976D01*
X11468306Y39989011D01*
X11444105Y39997228D01*
X11417285Y40003382D01*
X11383857Y40007761D01*
X11339831Y40010648D01*
X11281218Y40012331D01*
X11204026Y40013095D01*
X11130106Y40013238D01*
X10854715Y40013238D01*
X10851374Y39472063D01*
X10848033Y38930888D01*
X10758227Y38930888D01*
X10673163Y39068583D01*
X10636693Y39127586D01*
X10601438Y39184566D01*
X10571573Y39232781D01*
X10552248Y39263918D01*
X10516397Y39321558D01*
X10559312Y39366389D01*
X10617344Y39443887D01*
X10652978Y39528784D01*
X10666903Y39617379D01*
X10659808Y39705973D01*
X10632383Y39790866D01*
X10585317Y39868357D01*
X10519299Y39934746D01*
X10444628Y39981760D01*
X10423042Y39991908D01*
X10402526Y39999592D01*
X10379239Y40005156D01*
X10349336Y40008942D01*
X10308975Y40011295D01*
X10254313Y40012556D01*
X10181507Y40013069D01*
X10092587Y40013175D01*
X9804387Y40013238D01*
X9801046Y39472063D01*
X9797705Y38930888D01*
X9562798Y38930888D01*
X9623088Y38931755D01*
X9672808Y38934123D01*
X9707084Y38937638D01*
X9721037Y38941948D01*
X9721130Y38942341D01*
X9716796Y38956523D01*
X9704447Y38992012D01*
X9685057Y39046125D01*
X9659601Y39116180D01*
X9629055Y39199495D01*
X9594395Y39293388D01*
X9556595Y39395178D01*
X9549930Y39413067D01*
X9510467Y39518961D01*
X9472836Y39619989D01*
X9438211Y39712995D01*
X9407767Y39794823D01*
X9382678Y39862318D01*
X9364117Y39912324D01*
X9353258Y39941685D01*
X9352852Y39942789D01*
X9326974Y40013238D01*
X9212180Y40016895D01*
X9149163Y40017471D01*
X9108455Y40014204D01*
X9086994Y40006788D01*
X9084143Y40004086D01*
X9076914Y39988821D01*
X9061842Y39952164D01*
X9039946Y39896759D01*
X9012248Y39825249D01*
X8979769Y39740278D01*
X8943531Y39644489D01*
X8904553Y39540524D01*
X8889778Y39500883D01*
X8849970Y39394005D01*
X8812573Y39293798D01*
X8778613Y39202993D01*
X8749115Y39124324D01*
X8725104Y39060522D01*
X8707605Y39014321D01*
X8697643Y38988452D01*
X8696134Y38984723D01*
X8686423Y38957387D01*
X8683611Y38943094D01*
X8606960Y38943094D01*
X8603694Y39472063D01*
X8600353Y40013238D01*
X8449849Y40016846D01*
X8299344Y40020455D01*
X8299344Y39815107D01*
X8299344Y39609758D01*
X8120020Y39609758D01*
X7940696Y39609758D01*
X7940696Y39815107D01*
X7940696Y40020455D01*
X7790192Y40016846D01*
X7639687Y40013238D01*
X7636346Y39472063D01*
X7633005Y38930888D01*
X6928795Y38930888D01*
X6928795Y40647277D01*
X10387191Y40647277D01*
X13845587Y40647277D01*
X13845587Y38168760D01*
G37*
%TO.C,U701*%
X-10810000Y-39210000D02*
X-10810000Y-39035000D01*
X-10135000Y-36490000D02*
X-10810000Y-36490000D01*
X-10135000Y-39210000D02*
X-10810000Y-39210000D01*
X-8265000Y-36490000D02*
X-7590000Y-36490000D01*
X-8265000Y-39210000D02*
X-7590000Y-39210000D01*
X-7590000Y-36490000D02*
X-7590000Y-36665000D01*
X-7590000Y-39210000D02*
X-7590000Y-39035000D01*
%TO.C,C107*%
X3065580Y-35847500D02*
X2784420Y-35847500D01*
X3065580Y-34827500D02*
X2784420Y-34827500D01*
%TO.C,R102*%
X6671359Y-36057500D02*
X6978641Y-36057500D01*
X6671359Y-36817500D02*
X6978641Y-36817500D01*
%TO.C,C213*%
X-10530810Y1178307D02*
X-10378307Y1330810D01*
X-10021693Y669190D02*
X-9869190Y821693D01*
%TO.C,SW201*%
X12570000Y-21030000D02*
X12570000Y-25170000D01*
X12270000Y-21030000D02*
X12570000Y-21030000D01*
X9430000Y-21030000D02*
X9730000Y-21030000D01*
X12570000Y-25170000D02*
X12270000Y-25170000D01*
X9730000Y-25170000D02*
X9430000Y-25170000D01*
X9430000Y-25170000D02*
X9430000Y-21030000D01*
%TO.C,C703*%
X-8092164Y-40210000D02*
X-8307836Y-40210000D01*
X-8092164Y-39490000D02*
X-8307836Y-39490000D01*
%TO.C,R101*%
X10605000Y-35983859D02*
X10605000Y-36291141D01*
X9845000Y-35983859D02*
X9845000Y-36291141D01*
%TO.C,J801*%
X-9560000Y-41815000D02*
X-8510000Y-41815000D01*
X-9560000Y-44315000D02*
X-9560000Y-41815000D01*
X-8510000Y-41815000D02*
X-8510000Y-40825000D01*
X-8390000Y-46285000D02*
X-1510000Y-46285000D01*
X-340000Y-41815000D02*
X-1390000Y-41815000D01*
X-340000Y-44315000D02*
X-340000Y-41815000D01*
%TO.C,R103*%
X8571359Y-36057500D02*
X8878641Y-36057500D01*
X8571359Y-36817500D02*
X8878641Y-36817500D01*
%TO.C,R207*%
X-9936359Y-18780000D02*
X-10243641Y-18780000D01*
X-9936359Y-18020000D02*
X-10243641Y-18020000D01*
%TO.C,C220*%
X1938781Y8939970D02*
X1739970Y9138781D01*
X2660030Y9661219D02*
X2461219Y9860030D01*
%TO.C,R703*%
X-13208859Y-36230000D02*
X-13516141Y-36230000D01*
X-13208859Y-35470000D02*
X-13516141Y-35470000D01*
%TO.C,TP711*%
X-14900000Y-33400000D02*
G75*
G03*
X-14900000Y-33400000I-700000J0D01*
G01*
%TO.C,FB501*%
X-9562779Y10610000D02*
X-9237221Y10610000D01*
X-9562779Y9590000D02*
X-9237221Y9590000D01*
%TO.C,R203*%
X-7260060Y-23177341D02*
X-7477341Y-22960060D01*
X-6722659Y-22639940D02*
X-6939940Y-22422659D01*
%TO.C,J201*%
X-14360000Y-15195000D02*
X-13725000Y-15195000D01*
X-14360000Y-15830000D02*
X-14360000Y-15195000D01*
D13*
%TO.C,J501*%
X-15000100Y30228650D02*
X-15000100Y18829790D01*
X-13950191Y15877650D02*
X-13365341Y15877650D01*
X-12930127Y30228650D02*
X-15000100Y30228650D01*
X-8104000Y30228650D02*
X-8104000Y29974650D01*
X-8030126Y30228650D02*
X-9623875Y30228650D01*
X-4288661Y15877650D02*
X-2557809Y15877650D01*
X-4230151Y30228650D02*
X-4723875Y30228650D01*
X-953900Y30228650D02*
X-2423847Y30228650D01*
X-953900Y18829791D02*
X-953900Y30228650D01*
D12*
%TO.C,U401*%
X1600000Y33400000D02*
X2800000Y33400000D01*
X2800000Y33800000D02*
X13400000Y33800000D01*
X2800000Y33400000D02*
X2800000Y33800000D01*
X2800000Y11600000D02*
X2800000Y11200000D01*
X2800000Y11200000D02*
X13400000Y11200000D01*
X13400000Y33800000D02*
X13400000Y33400000D01*
X13400000Y11600000D02*
X13400000Y11200000D01*
%TO.C,C207*%
X-6630810Y5578307D02*
X-6478307Y5730810D01*
X-6121693Y5069190D02*
X-5969190Y5221693D01*
%TO.C,C501*%
X-9292164Y12540000D02*
X-9507836Y12540000D01*
X-9292164Y13260000D02*
X-9507836Y13260000D01*
%TO.C,C205*%
X10078307Y2030810D02*
X10230810Y1878307D01*
X9569190Y1521693D02*
X9721693Y1369190D01*
%TO.C,C105*%
X11507836Y-29260000D02*
X11292164Y-29260000D01*
X11507836Y-28540000D02*
X11292164Y-28540000D01*
%TO.C,R702*%
X-13453641Y-25020000D02*
X-13146359Y-25020000D01*
X-13453641Y-25780000D02*
X-13146359Y-25780000D01*
%TO.C,R104*%
X3078641Y-36917500D02*
X2771359Y-36917500D01*
X3078641Y-36157500D02*
X2771359Y-36157500D01*
%TO.C,C405*%
X1210000Y30207836D02*
X1210000Y29992164D01*
X490000Y30207836D02*
X490000Y29992164D01*
%TO.C,U301*%
X-1560000Y37350000D02*
X-1560000Y35550000D01*
X-1560000Y37350000D02*
X-1560000Y38150000D01*
X1560000Y37350000D02*
X1560000Y36550000D01*
X1560000Y37350000D02*
X1560000Y38150000D01*
%TO.C,TP505*%
X-11200000Y3500000D02*
G75*
G03*
X-11200000Y3500000I-700000J0D01*
G01*
%TO.C,TP506*%
X-12900000Y6700000D02*
G75*
G03*
X-12900000Y6700000I-700000J0D01*
G01*
%TO.C,C221*%
X-15240000Y-17692164D02*
X-15240000Y-17907836D01*
X-15960000Y-17692164D02*
X-15960000Y-17907836D01*
%TO.C,R204*%
X8420000Y-24553641D02*
X8420000Y-24246359D01*
X9180000Y-24553641D02*
X9180000Y-24246359D01*
%TO.C,R503*%
X-6480000Y12246359D02*
X-6480000Y12553641D01*
X-5720000Y12246359D02*
X-5720000Y12553641D01*
%TO.C,J301*%
X-4500000Y44950000D02*
X-4500000Y40950000D01*
X-4500000Y44950000D02*
X4500000Y44950000D01*
X-4500000Y40950000D02*
X-3500000Y39950000D01*
X3500000Y39950000D02*
X-3500000Y39950000D01*
X4500000Y44950000D02*
X4500000Y40950000D01*
X4500000Y40950000D02*
X3500000Y39950000D01*
%TO.C,C502*%
X-9259420Y11090000D02*
X-9540580Y11090000D01*
X-9259420Y12110000D02*
X-9540580Y12110000D01*
%TO.C,C704*%
X-10207836Y-39490000D02*
X-9992164Y-39490000D01*
X-10207836Y-40210000D02*
X-9992164Y-40210000D01*
%TO.C,U101*%
X10915000Y-33237500D02*
X10915000Y-36837500D01*
X10915000Y-33237500D02*
X10915000Y-31037500D01*
X14135000Y-33237500D02*
X14135000Y-35437500D01*
X14135000Y-33237500D02*
X14135000Y-31037500D01*
%TO.C,J601*%
X1340000Y-41815000D02*
X2390000Y-41815000D01*
X1340000Y-44315000D02*
X1340000Y-41815000D01*
X2390000Y-41815000D02*
X2390000Y-40825000D01*
X2510000Y-46285000D02*
X8390000Y-46285000D01*
X9560000Y-41815000D02*
X8510000Y-41815000D01*
X9560000Y-44315000D02*
X9560000Y-41815000D01*
%TO.C,U201*%
X0Y-20297699D02*
X671751Y-19625948D01*
X671751Y-19625948D02*
X1583919Y-20538115D01*
X14297699Y-6000000D02*
X13625948Y-6671751D01*
X-671751Y-19625948D02*
X0Y-20297699D01*
X13625948Y-5328249D02*
X14297699Y-6000000D01*
X-13625948Y-6671751D02*
X-14297699Y-6000000D01*
X671751Y7625948D02*
X0Y8297699D01*
X-14297699Y-6000000D02*
X-13625948Y-5328249D01*
X0Y8297699D02*
X-671751Y7625948D01*
%TO.C,C215*%
X4130810Y-19578307D02*
X3978307Y-19730810D01*
X3621693Y-19069190D02*
X3469190Y-19221693D01*
%TD*%
%LPC*%
D14*
%TO.C,R206*%
X-9580000Y-15800000D03*
X-10600000Y-15800000D03*
%TD*%
D15*
%TO.C,C201*%
X4948008Y-19951992D03*
X3851992Y-21048008D03*
%TD*%
D16*
%TO.C,C203*%
X9460589Y-17460589D03*
X10139411Y-18139411D03*
%TD*%
D17*
%TO.C,R501*%
X-7200000Y11890000D03*
X-7200000Y12910000D03*
%TD*%
D18*
%TO.C,TP712*%
X-15300000Y-29400000D03*
%TD*%
D14*
%TO.C,R505*%
X-10490000Y7500000D03*
X-11510000Y7500000D03*
%TD*%
D17*
%TO.C,R504*%
X-5000000Y11890000D03*
X-5000000Y12910000D03*
%TD*%
D19*
%TO.C,Y201*%
X9921142Y-16023223D03*
X11476777Y-17578858D03*
X12678858Y-16376777D03*
X11123223Y-14821142D03*
%TD*%
D20*
%TO.C,R202*%
X12539376Y-14339376D03*
X13260624Y-15060624D03*
%TD*%
D21*
%TO.C,C218*%
X14639411Y-11460589D03*
X13960589Y-12139411D03*
%TD*%
D22*
%TO.C,C404*%
X2780000Y34400000D03*
X1820000Y34400000D03*
%TD*%
D23*
%TO.C,C103*%
X9800000Y-30780000D03*
X9800000Y-29820000D03*
%TD*%
D22*
%TO.C,C701*%
X-12920000Y-30300000D03*
X-13880000Y-30300000D03*
%TD*%
D24*
%TO.C,JP201*%
X-7840381Y-24559619D03*
D25*
X-8759619Y-23640381D03*
%TD*%
D23*
%TO.C,C408*%
X850000Y22820000D03*
X850000Y23780000D03*
%TD*%
D22*
%TO.C,C706*%
X-12882500Y-39850000D03*
X-13842500Y-39850000D03*
%TD*%
D21*
%TO.C,C216*%
X8189411Y-14960589D03*
X7510589Y-15639411D03*
%TD*%
D26*
%TO.C,D102*%
X3412500Y-37737500D03*
X1837500Y-37737500D03*
%TD*%
D27*
%TO.C,C705*%
X-15742500Y-39850000D03*
X-14782500Y-39850000D03*
%TD*%
D22*
%TO.C,C702*%
X-10720000Y-30300000D03*
X-11680000Y-30300000D03*
%TD*%
D28*
%TO.C,C211*%
X12260589Y-11039411D03*
X12939411Y-10360589D03*
%TD*%
D29*
%TO.C,C209*%
X-10360589Y-12839411D03*
X-11039411Y-12160589D03*
%TD*%
D30*
%TO.C,FB101*%
X8437500Y-32037500D03*
X10012500Y-32037500D03*
%TD*%
D16*
%TO.C,C217*%
X6160589Y5839411D03*
X6839411Y5160589D03*
%TD*%
D31*
%TO.C,R507*%
X-5010000Y11000000D03*
X-3990000Y11000000D03*
%TD*%
D32*
%TO.C,D201*%
X7500000Y-23887500D03*
X7500000Y-22312500D03*
%TD*%
D33*
%TO.C,C403*%
X15400000Y23780000D03*
X15400000Y22820000D03*
%TD*%
D29*
%TO.C,C214*%
X-6860589Y-16339411D03*
X-7539411Y-15660589D03*
%TD*%
D14*
%TO.C,R801*%
X2610000Y-25250000D03*
X1590000Y-25250000D03*
%TD*%
D31*
%TO.C,R506*%
X-13710000Y12900000D03*
X-12690000Y12900000D03*
%TD*%
D34*
%TO.C,C106*%
X8525000Y-33562500D03*
X8525000Y-35112500D03*
%TD*%
D27*
%TO.C,C101*%
X12820000Y-28900000D03*
X13780000Y-28900000D03*
%TD*%
D35*
%TO.C,U102*%
X1825000Y-33287500D03*
X4125000Y-33287500D03*
D36*
X4125000Y-26987500D03*
D35*
X6425000Y-33287500D03*
%TD*%
D20*
%TO.C,R502*%
X-13860624Y-9339376D03*
X-13139376Y-10060624D03*
%TD*%
D23*
%TO.C,C402*%
X15400000Y29620000D03*
X15400000Y30580000D03*
%TD*%
D21*
%TO.C,C206*%
X13539411Y-17660589D03*
X12860589Y-18339411D03*
%TD*%
D18*
%TO.C,TP603*%
X13300000Y-27200000D03*
%TD*%
D37*
%TO.C,U702*%
X-11012500Y-28800000D03*
X-11012500Y-28300000D03*
X-11012500Y-27800000D03*
X-11012500Y-27300000D03*
X-11012500Y-26800000D03*
D38*
X-11800000Y-26525000D03*
X-12300000Y-26525000D03*
X-12800000Y-26525000D03*
D37*
X-13587500Y-26800000D03*
X-13587500Y-27300000D03*
X-13587500Y-27800000D03*
X-13587500Y-28300000D03*
X-13587500Y-28800000D03*
D38*
X-12800000Y-29075000D03*
X-12300000Y-29075000D03*
X-11800000Y-29075000D03*
%TD*%
D39*
%TO.C,C104*%
X8525000Y-30512500D03*
X8525000Y-28962500D03*
%TD*%
D40*
%TO.C,R201*%
X8800000Y-21290000D03*
X8800000Y-22310000D03*
%TD*%
D18*
%TO.C,TP601*%
X15600000Y-23900000D03*
%TD*%
D29*
%TO.C,C212*%
X839411Y8460589D03*
X160589Y9139411D03*
%TD*%
D41*
%TO.C,L201*%
X13257053Y-12757053D03*
X13942947Y-13442947D03*
%TD*%
D27*
%TO.C,C301*%
X2220000Y38800000D03*
X3180000Y38800000D03*
%TD*%
D42*
%TO.C,R401*%
X-8539376Y3060624D03*
X-9260624Y2339376D03*
%TD*%
D43*
%TO.C,H102*%
X-13890500Y44053000D03*
%TD*%
D17*
%TO.C,R802*%
X-1200000Y-39410000D03*
X-1200000Y-38390000D03*
%TD*%
%TO.C,R701*%
X-6300000Y-35210000D03*
X-6300000Y-34190000D03*
%TD*%
D21*
%TO.C,C202*%
X-2060589Y-21060589D03*
X-2739411Y-21739411D03*
%TD*%
D33*
%TO.C,C102*%
X10225000Y-33257500D03*
X10225000Y-34217500D03*
%TD*%
D43*
%TO.C,H101*%
X13890500Y44053000D03*
%TD*%
D16*
%TO.C,C204*%
X13860589Y-2660589D03*
X14539411Y-3339411D03*
%TD*%
D21*
%TO.C,C208*%
X-14660589Y-4921178D03*
X-15339411Y-5600000D03*
%TD*%
%TO.C,C219*%
X14239411Y-10460589D03*
X13560589Y-11139411D03*
%TD*%
D14*
%TO.C,R205*%
X-9580000Y-17100000D03*
X-10600000Y-17100000D03*
%TD*%
D33*
%TO.C,C407*%
X850000Y12080000D03*
X850000Y11120000D03*
%TD*%
D44*
%TO.C,C401*%
X3925000Y34600000D03*
X5475000Y34600000D03*
%TD*%
D18*
%TO.C,TP602*%
X14000000Y-25200000D03*
%TD*%
D15*
%TO.C,C222*%
X-14251992Y-2651992D03*
X-15348008Y-3748008D03*
%TD*%
D18*
%TO.C,TP507*%
X-2700000Y14400000D03*
%TD*%
D21*
%TO.C,C210*%
X-2760589Y-20421178D03*
X-3439411Y-21100000D03*
%TD*%
D26*
%TO.C,D101*%
X10087500Y-37900000D03*
X8512500Y-37900000D03*
%TD*%
D45*
%TO.C,U703*%
X-15525000Y-37100000D03*
X-15525000Y-37600000D03*
X-15525000Y-38100000D03*
X-15525000Y-38600000D03*
D46*
X-14862500Y-38762500D03*
X-14362500Y-38762500D03*
X-13862500Y-38762500D03*
D45*
X-13200000Y-38600000D03*
X-13200000Y-38100000D03*
X-13200000Y-37600000D03*
X-13200000Y-37100000D03*
D46*
X-13862500Y-36937500D03*
X-14362500Y-36937500D03*
X-14862500Y-36937500D03*
%TD*%
D33*
%TO.C,C406*%
X850000Y25780000D03*
X850000Y24820000D03*
%TD*%
D45*
%TO.C,U701*%
X-10362500Y-37100000D03*
X-10362500Y-37600000D03*
X-10362500Y-38100000D03*
X-10362500Y-38600000D03*
D46*
X-9700000Y-38762500D03*
X-9200000Y-38762500D03*
X-8700000Y-38762500D03*
D45*
X-8037500Y-38600000D03*
X-8037500Y-38100000D03*
X-8037500Y-37600000D03*
X-8037500Y-37100000D03*
D46*
X-8700000Y-36937500D03*
X-9200000Y-36937500D03*
X-9700000Y-36937500D03*
%TD*%
D47*
%TO.C,C107*%
X3700000Y-35337500D03*
X2150000Y-35337500D03*
%TD*%
D31*
%TO.C,R102*%
X6315000Y-36437500D03*
X7335000Y-36437500D03*
%TD*%
D28*
%TO.C,C213*%
X-10539411Y660589D03*
X-9860589Y1339411D03*
%TD*%
D48*
%TO.C,SW201*%
X11000000Y-21000000D03*
X11000000Y-25200000D03*
%TD*%
D22*
%TO.C,C703*%
X-7720000Y-39850000D03*
X-8680000Y-39850000D03*
%TD*%
D40*
%TO.C,R101*%
X10225000Y-35627500D03*
X10225000Y-36647500D03*
%TD*%
D49*
%TO.C,J801*%
X-7950000Y-41600000D03*
X-6950000Y-41600000D03*
X-5950000Y-41600000D03*
X-4950000Y-41600000D03*
X-3950000Y-41600000D03*
X-2950000Y-41600000D03*
X-1950000Y-41600000D03*
D50*
X-9250000Y-45475000D03*
X-650000Y-45475000D03*
%TD*%
D31*
%TO.C,R103*%
X8215000Y-36437500D03*
X9235000Y-36437500D03*
%TD*%
D43*
%TO.C,H104*%
X13890500Y-44053000D03*
%TD*%
D14*
%TO.C,R207*%
X-9580000Y-18400000D03*
X-10600000Y-18400000D03*
%TD*%
D51*
%TO.C,C220*%
X2748008Y8851992D03*
X1651992Y9948008D03*
%TD*%
D14*
%TO.C,R703*%
X-12852500Y-35850000D03*
X-13872500Y-35850000D03*
%TD*%
D43*
%TO.C,H103*%
X-13890500Y-44053000D03*
%TD*%
D18*
%TO.C,TP711*%
X-15600000Y-33400000D03*
%TD*%
D30*
%TO.C,FB501*%
X-10187500Y10100000D03*
X-8612500Y10100000D03*
%TD*%
D52*
%TO.C,R203*%
X-6739376Y-23160624D03*
X-7460624Y-22439376D03*
%TD*%
D53*
%TO.C,J201*%
X-13090000Y-14560000D03*
X-12074000Y-19640000D03*
X-14106000Y-19640000D03*
D54*
X-13725000Y-15830000D03*
X-12455000Y-15830000D03*
X-13725000Y-17100000D03*
X-12455000Y-17100000D03*
X-13725000Y-18370000D03*
X-12455000Y-18370000D03*
%TD*%
D55*
%TO.C,J501*%
X-4977001Y16701649D03*
X-6077001Y16701649D03*
X-7177002Y16701649D03*
X-8277002Y16701649D03*
X-9377002Y16701649D03*
X-10477003Y16701649D03*
X-11577000Y16701649D03*
X-12677001Y16701649D03*
D56*
X-6377001Y29401649D03*
D57*
X-14776999Y17201650D03*
D56*
X-11277001Y29401649D03*
D58*
X-3326999Y29501651D03*
D59*
X-1477000Y17201651D03*
%TD*%
D60*
%TO.C,U401*%
X2350000Y32900000D03*
X2350000Y32100000D03*
X2350000Y31300000D03*
X2350000Y30500000D03*
X2350000Y29700000D03*
X2350000Y28900000D03*
X2350000Y28100000D03*
X2350000Y27300000D03*
X2350000Y26500000D03*
X2350000Y25700000D03*
X2350000Y24900000D03*
X2350000Y24100000D03*
X2350000Y23300000D03*
X2350000Y22500000D03*
X2350000Y21700000D03*
X2350000Y20900000D03*
X2350000Y20100000D03*
X2350000Y19300000D03*
X2350000Y18500000D03*
X2350000Y17700000D03*
X2350000Y16900000D03*
X2350000Y16100000D03*
X2350000Y15300000D03*
X2350000Y14500000D03*
X2350000Y13700000D03*
X2350000Y12900000D03*
X2350000Y12100000D03*
X13850000Y12100000D03*
X13850000Y12900000D03*
X13850000Y13700000D03*
X13850000Y14500000D03*
X13850000Y15300000D03*
X13850000Y16100000D03*
X13850000Y16900000D03*
X13850000Y17700000D03*
X13850000Y18500000D03*
X13850000Y19300000D03*
X13850000Y20100000D03*
X13850000Y20900000D03*
X13850000Y21700000D03*
X13850000Y22500000D03*
X13850000Y23300000D03*
X13850000Y24100000D03*
X13850000Y24900000D03*
X13850000Y25700000D03*
X13850000Y26500000D03*
X13850000Y27300000D03*
X13850000Y28100000D03*
X13850000Y28900000D03*
X13850000Y29700000D03*
X13850000Y30500000D03*
X13850000Y31300000D03*
X13850000Y32100000D03*
X13850000Y32900000D03*
%TD*%
D28*
%TO.C,C207*%
X-6639411Y5060589D03*
X-5960589Y5739411D03*
%TD*%
D22*
%TO.C,C501*%
X-8920000Y12900000D03*
X-9880000Y12900000D03*
%TD*%
D16*
%TO.C,C205*%
X9560589Y2039411D03*
X10239411Y1360589D03*
%TD*%
D22*
%TO.C,C105*%
X11880000Y-28900000D03*
X10920000Y-28900000D03*
%TD*%
D31*
%TO.C,R702*%
X-13810000Y-25400000D03*
X-12790000Y-25400000D03*
%TD*%
D14*
%TO.C,R104*%
X3435000Y-36537500D03*
X2415000Y-36537500D03*
%TD*%
D33*
%TO.C,C405*%
X850000Y30580000D03*
X850000Y29620000D03*
%TD*%
D61*
%TO.C,U301*%
X-950000Y36212500D03*
X0Y36212500D03*
X950000Y36212500D03*
X950000Y38487500D03*
X0Y38487500D03*
X-950000Y38487500D03*
%TD*%
D18*
%TO.C,TP505*%
X-11900000Y3500000D03*
%TD*%
%TO.C,TP506*%
X-13600000Y6700000D03*
%TD*%
D33*
%TO.C,C221*%
X-15600000Y-17320000D03*
X-15600000Y-18280000D03*
%TD*%
D17*
%TO.C,R204*%
X8800000Y-24910000D03*
X8800000Y-23890000D03*
%TD*%
%TO.C,R503*%
X-6100000Y11890000D03*
X-6100000Y12910000D03*
%TD*%
D62*
%TO.C,J301*%
X1300000Y40950000D03*
D63*
X650000Y40950000D03*
X0Y40950000D03*
X-650000Y40950000D03*
X-1300000Y40950000D03*
D64*
X-3600000Y43575000D03*
D65*
X-2425000Y40950000D03*
D66*
X-975000Y43625000D03*
X800000Y43625000D03*
D65*
X2425000Y40950000D03*
D64*
X3600000Y43575000D03*
%TD*%
D47*
%TO.C,C502*%
X-8625000Y11600000D03*
X-10175000Y11600000D03*
%TD*%
D27*
%TO.C,C704*%
X-10580000Y-39850000D03*
X-9620000Y-39850000D03*
%TD*%
D67*
%TO.C,U101*%
X11550000Y-36100000D03*
X12200000Y-36100000D03*
X12850000Y-36100000D03*
X13500000Y-36100000D03*
X13500000Y-30375000D03*
X12850000Y-30375000D03*
X12200000Y-30375000D03*
X11550000Y-30375000D03*
%TD*%
D49*
%TO.C,J601*%
X2950000Y-41600000D03*
X3950000Y-41600000D03*
X4950000Y-41600000D03*
X5950000Y-41600000D03*
X6950000Y-41600000D03*
X7950000Y-41600000D03*
D50*
X1650000Y-45475000D03*
X9250000Y-45475000D03*
%TD*%
D68*
%TO.C,U201*%
X1352342Y-19726710D03*
X1705895Y-19373157D03*
X2059449Y-19019604D03*
X2413002Y-18666050D03*
X2766555Y-18312497D03*
X3120109Y-17958943D03*
X3473662Y-17605390D03*
X3827215Y-17251837D03*
X4180769Y-16898283D03*
X4534322Y-16544730D03*
X4887876Y-16191176D03*
X5241429Y-15837623D03*
X5594982Y-15484070D03*
X5948536Y-15130516D03*
X6302089Y-14776963D03*
X6655643Y-14423410D03*
X7009196Y-14069856D03*
X7362749Y-13716303D03*
X7716303Y-13362749D03*
X8069856Y-13009196D03*
X8423410Y-12655643D03*
X8776963Y-12302089D03*
X9130516Y-11948536D03*
X9484070Y-11594982D03*
X9837623Y-11241429D03*
X10191176Y-10887876D03*
X10544730Y-10534322D03*
X10898283Y-10180769D03*
X11251837Y-9827215D03*
X11605390Y-9473662D03*
X11958943Y-9120109D03*
X12312497Y-8766555D03*
X12666050Y-8413002D03*
X13019604Y-8059449D03*
X13373157Y-7705895D03*
X13726710Y-7352342D03*
D69*
X13726710Y-4647658D03*
X13373157Y-4294105D03*
X13019604Y-3940551D03*
X12666050Y-3586998D03*
X12312497Y-3233445D03*
X11958943Y-2879891D03*
X11605390Y-2526338D03*
X11251837Y-2172785D03*
X10898283Y-1819231D03*
X10544730Y-1465678D03*
X10191176Y-1112124D03*
X9837623Y-758571D03*
X9484070Y-405018D03*
X9130516Y-51464D03*
X8776963Y302089D03*
X8423410Y655643D03*
X8069856Y1009196D03*
X7716303Y1362749D03*
X7362749Y1716303D03*
X7009196Y2069856D03*
X6655643Y2423410D03*
X6302089Y2776963D03*
X5948536Y3130516D03*
X5594982Y3484070D03*
X5241429Y3837623D03*
X4887876Y4191176D03*
X4534322Y4544730D03*
X4180769Y4898283D03*
X3827215Y5251837D03*
X3473662Y5605390D03*
X3120109Y5958943D03*
X2766555Y6312497D03*
X2413002Y6666050D03*
X2059449Y7019604D03*
X1705895Y7373157D03*
X1352342Y7726710D03*
D68*
X-1352342Y7726710D03*
X-1705895Y7373157D03*
X-2059449Y7019604D03*
X-2413002Y6666050D03*
X-2766555Y6312497D03*
X-3120109Y5958943D03*
X-3473662Y5605390D03*
X-3827215Y5251837D03*
X-4180769Y4898283D03*
X-4534322Y4544730D03*
X-4887876Y4191176D03*
X-5241429Y3837623D03*
X-5594982Y3484070D03*
X-5948536Y3130516D03*
X-6302089Y2776963D03*
X-6655643Y2423410D03*
X-7009196Y2069856D03*
X-7362749Y1716303D03*
X-7716303Y1362749D03*
X-8069856Y1009196D03*
X-8423410Y655643D03*
X-8776963Y302089D03*
X-9130516Y-51464D03*
X-9484070Y-405018D03*
X-9837623Y-758571D03*
X-10191176Y-1112124D03*
X-10544730Y-1465678D03*
X-10898283Y-1819231D03*
X-11251837Y-2172785D03*
X-11605390Y-2526338D03*
X-11958943Y-2879891D03*
X-12312497Y-3233445D03*
X-12666050Y-3586998D03*
X-13019604Y-3940551D03*
X-13373157Y-4294105D03*
X-13726710Y-4647658D03*
D69*
X-13726710Y-7352342D03*
X-13373157Y-7705895D03*
X-13019604Y-8059449D03*
X-12666050Y-8413002D03*
X-12312497Y-8766555D03*
X-11958943Y-9120109D03*
X-11605390Y-9473662D03*
X-11251837Y-9827215D03*
X-10898283Y-10180769D03*
X-10544730Y-10534322D03*
X-10191176Y-10887876D03*
X-9837623Y-11241429D03*
X-9484070Y-11594982D03*
X-9130516Y-11948536D03*
X-8776963Y-12302089D03*
X-8423410Y-12655643D03*
X-8069856Y-13009196D03*
X-7716303Y-13362749D03*
X-7362749Y-13716303D03*
X-7009196Y-14069856D03*
X-6655643Y-14423410D03*
X-6302089Y-14776963D03*
X-5948536Y-15130516D03*
X-5594982Y-15484070D03*
X-5241429Y-15837623D03*
X-4887876Y-16191176D03*
X-4534322Y-16544730D03*
X-4180769Y-16898283D03*
X-3827215Y-17251837D03*
X-3473662Y-17605390D03*
X-3120109Y-17958943D03*
X-2766555Y-18312497D03*
X-2413002Y-18666050D03*
X-2059449Y-19019604D03*
X-1705895Y-19373157D03*
X-1352342Y-19726710D03*
%TD*%
D21*
%TO.C,C215*%
X4139411Y-19060589D03*
X3460589Y-19739411D03*
%TD*%
%LPD*%
M02*
