%TF.GenerationSoftware,KiCad,Pcbnew,7.0.6*%
%TF.CreationDate,2024-05-23T09:50:57-04:00*%
%TF.ProjectId,ActiveImpactor_Control,41637469-7665-4496-9d70-6163746f725f,rev?*%
%TF.SameCoordinates,Original*%
%TF.FileFunction,Copper,L1,Top*%
%TF.FilePolarity,Positive*%
%FSLAX46Y46*%
G04 Gerber Fmt 4.6, Leading zero omitted, Abs format (unit mm)*
G04 Created by KiCad (PCBNEW 7.0.6) date 2024-05-23 09:50:57*
%MOMM*%
%LPD*%
G01*
G04 APERTURE LIST*
G04 Aperture macros list*
%AMRoundRect*
0 Rectangle with rounded corners*
0 $1 Rounding radius*
0 $2 $3 $4 $5 $6 $7 $8 $9 X,Y pos of 4 corners*
0 Add a 4 corners polygon primitive as box body*
4,1,4,$2,$3,$4,$5,$6,$7,$8,$9,$2,$3,0*
0 Add four circle primitives for the rounded corners*
1,1,$1+$1,$2,$3*
1,1,$1+$1,$4,$5*
1,1,$1+$1,$6,$7*
1,1,$1+$1,$8,$9*
0 Add four rect primitives between the rounded corners*
20,1,$1+$1,$2,$3,$4,$5,0*
20,1,$1+$1,$4,$5,$6,$7,0*
20,1,$1+$1,$6,$7,$8,$9,0*
20,1,$1+$1,$8,$9,$2,$3,0*%
%AMRotRect*
0 Rectangle, with rotation*
0 The origin of the aperture is its center*
0 $1 length*
0 $2 width*
0 $3 Rotation angle, in degrees counterclockwise*
0 Add horizontal line*
21,1,$1,$2,0,0,$3*%
%AMOutline4P*
0 Free polygon, 4 corners , with rotation*
0 The origin of the aperture is its center*
0 number of corners: always 4*
0 $1 to $8 corner X, Y*
0 $9 Rotation angle, in degrees counterclockwise*
0 create outline with 4 corners*
4,1,4,$1,$2,$3,$4,$5,$6,$7,$8,$1,$2,$9*%
%AMFreePoly0*
4,1,19,0.499999,-0.750000,0.000000,-0.750000,0.000000,-0.744912,-0.071157,-0.744911,-0.207708,-0.704816,-0.327430,-0.627875,-0.420627,-0.520320,-0.479746,-0.390866,-0.500000,-0.250000,-0.500000,0.250000,-0.479746,0.390866,-0.420627,0.520320,-0.327430,0.627875,-0.207708,0.704816,-0.071157,0.744911,0.000000,0.744912,0.000000,0.750000,0.499999,0.750000,0.499999,-0.750000,0.499999,-0.750000,
$1*%
%AMFreePoly1*
4,1,19,0.000000,0.744912,0.071157,0.744911,0.207708,0.704816,0.327430,0.627875,0.420627,0.520320,0.479746,0.390866,0.500000,0.250000,0.500000,-0.250000,0.479746,-0.390866,0.420627,-0.520320,0.327430,-0.627875,0.207708,-0.704816,0.071157,-0.744911,0.000000,-0.744912,0.000000,-0.750000,-0.499999,-0.750000,-0.499999,0.750000,0.000000,0.750000,0.000000,0.744912,0.000000,0.744912,
$1*%
G04 Aperture macros list end*
%TA.AperFunction,SMDPad,CuDef*%
%ADD10RoundRect,0.135000X0.135000X0.185000X-0.135000X0.185000X-0.135000X-0.185000X0.135000X-0.185000X0*%
%TD*%
%TA.AperFunction,SMDPad,CuDef*%
%ADD11RoundRect,0.225000X-0.017678X0.335876X-0.335876X0.017678X0.017678X-0.335876X0.335876X-0.017678X0*%
%TD*%
%TA.AperFunction,SMDPad,CuDef*%
%ADD12RoundRect,0.140000X-0.219203X-0.021213X-0.021213X-0.219203X0.219203X0.021213X0.021213X0.219203X0*%
%TD*%
%TA.AperFunction,SMDPad,CuDef*%
%ADD13RoundRect,0.135000X0.185000X-0.135000X0.185000X0.135000X-0.185000X0.135000X-0.185000X-0.135000X0*%
%TD*%
%TA.AperFunction,SMDPad,CuDef*%
%ADD14C,1.000000*%
%TD*%
%TA.AperFunction,SMDPad,CuDef*%
%ADD15RotRect,1.400000X1.200000X315.000000*%
%TD*%
%TA.AperFunction,SMDPad,CuDef*%
%ADD16RoundRect,0.135000X-0.226274X-0.035355X-0.035355X-0.226274X0.226274X0.035355X0.035355X0.226274X0*%
%TD*%
%TA.AperFunction,SMDPad,CuDef*%
%ADD17RoundRect,0.140000X-0.021213X0.219203X-0.219203X0.021213X0.021213X-0.219203X0.219203X-0.021213X0*%
%TD*%
%TA.AperFunction,SMDPad,CuDef*%
%ADD18RoundRect,0.140000X0.140000X0.170000X-0.140000X0.170000X-0.140000X-0.170000X0.140000X-0.170000X0*%
%TD*%
%TA.AperFunction,SMDPad,CuDef*%
%ADD19RoundRect,0.140000X0.170000X-0.140000X0.170000X0.140000X-0.170000X0.140000X-0.170000X-0.140000X0*%
%TD*%
%TA.AperFunction,SMDPad,CuDef*%
%ADD20FreePoly0,135.000000*%
%TD*%
%TA.AperFunction,SMDPad,CuDef*%
%ADD21FreePoly1,135.000000*%
%TD*%
%TA.AperFunction,SMDPad,CuDef*%
%ADD22RoundRect,0.218750X0.218750X0.256250X-0.218750X0.256250X-0.218750X-0.256250X0.218750X-0.256250X0*%
%TD*%
%TA.AperFunction,SMDPad,CuDef*%
%ADD23RoundRect,0.140000X-0.140000X-0.170000X0.140000X-0.170000X0.140000X0.170000X-0.140000X0.170000X0*%
%TD*%
%TA.AperFunction,SMDPad,CuDef*%
%ADD24RoundRect,0.140000X0.021213X-0.219203X0.219203X-0.021213X-0.021213X0.219203X-0.219203X0.021213X0*%
%TD*%
%TA.AperFunction,SMDPad,CuDef*%
%ADD25RoundRect,0.140000X0.219203X0.021213X0.021213X0.219203X-0.219203X-0.021213X-0.021213X-0.219203X0*%
%TD*%
%TA.AperFunction,SMDPad,CuDef*%
%ADD26RoundRect,0.218750X-0.218750X-0.256250X0.218750X-0.256250X0.218750X0.256250X-0.218750X0.256250X0*%
%TD*%
%TA.AperFunction,SMDPad,CuDef*%
%ADD27RoundRect,0.135000X-0.135000X-0.185000X0.135000X-0.185000X0.135000X0.185000X-0.135000X0.185000X0*%
%TD*%
%TA.AperFunction,SMDPad,CuDef*%
%ADD28RoundRect,0.218750X0.256250X-0.218750X0.256250X0.218750X-0.256250X0.218750X-0.256250X-0.218750X0*%
%TD*%
%TA.AperFunction,SMDPad,CuDef*%
%ADD29RoundRect,0.140000X-0.170000X0.140000X-0.170000X-0.140000X0.170000X-0.140000X0.170000X0.140000X0*%
%TD*%
%TA.AperFunction,SMDPad,CuDef*%
%ADD30RoundRect,0.225000X-0.250000X0.225000X-0.250000X-0.225000X0.250000X-0.225000X0.250000X0.225000X0*%
%TD*%
%TA.AperFunction,SMDPad,CuDef*%
%ADD31R,1.500000X2.000000*%
%TD*%
%TA.AperFunction,SMDPad,CuDef*%
%ADD32R,3.800000X2.000000*%
%TD*%
%TA.AperFunction,SMDPad,CuDef*%
%ADD33RoundRect,0.075000X0.387500X0.075000X-0.387500X0.075000X-0.387500X-0.075000X0.387500X-0.075000X0*%
%TD*%
%TA.AperFunction,SMDPad,CuDef*%
%ADD34RoundRect,0.075000X0.075000X0.325000X-0.075000X0.325000X-0.075000X-0.325000X0.075000X-0.325000X0*%
%TD*%
%TA.AperFunction,SMDPad,CuDef*%
%ADD35RoundRect,0.225000X0.250000X-0.225000X0.250000X0.225000X-0.250000X0.225000X-0.250000X-0.225000X0*%
%TD*%
%TA.AperFunction,SMDPad,CuDef*%
%ADD36RoundRect,0.135000X-0.185000X0.135000X-0.185000X-0.135000X0.185000X-0.135000X0.185000X0.135000X0*%
%TD*%
%TA.AperFunction,SMDPad,CuDef*%
%ADD37RoundRect,0.147500X-0.226274X-0.017678X-0.017678X-0.226274X0.226274X0.017678X0.017678X0.226274X0*%
%TD*%
%TA.AperFunction,SMDPad,CuDef*%
%ADD38RoundRect,0.135000X-0.035355X0.226274X-0.226274X0.035355X0.035355X-0.226274X0.226274X-0.035355X0*%
%TD*%
%TA.AperFunction,ComponentPad*%
%ADD39C,4.750000*%
%TD*%
%TA.AperFunction,SMDPad,CuDef*%
%ADD40RoundRect,0.225000X-0.225000X-0.250000X0.225000X-0.250000X0.225000X0.250000X-0.225000X0.250000X0*%
%TD*%
%TA.AperFunction,SMDPad,CuDef*%
%ADD41RoundRect,0.087500X-0.225000X-0.087500X0.225000X-0.087500X0.225000X0.087500X-0.225000X0.087500X0*%
%TD*%
%TA.AperFunction,SMDPad,CuDef*%
%ADD42RoundRect,0.087500X-0.087500X-0.225000X0.087500X-0.225000X0.087500X0.225000X-0.087500X0.225000X0*%
%TD*%
%TA.AperFunction,SMDPad,CuDef*%
%ADD43RoundRect,0.225000X0.225000X0.250000X-0.225000X0.250000X-0.225000X-0.250000X0.225000X-0.250000X0*%
%TD*%
%TA.AperFunction,SMDPad,CuDef*%
%ADD44RoundRect,0.200000X-0.800000X0.200000X-0.800000X-0.200000X0.800000X-0.200000X0.800000X0.200000X0*%
%TD*%
%TA.AperFunction,SMDPad,CuDef*%
%ADD45RoundRect,0.150000X-0.150000X-0.625000X0.150000X-0.625000X0.150000X0.625000X-0.150000X0.625000X0*%
%TD*%
%TA.AperFunction,SMDPad,CuDef*%
%ADD46RoundRect,0.250000X-0.350000X-0.650000X0.350000X-0.650000X0.350000X0.650000X-0.350000X0.650000X0*%
%TD*%
%TA.AperFunction,SMDPad,CuDef*%
%ADD47RoundRect,0.225000X0.335876X0.017678X0.017678X0.335876X-0.335876X-0.017678X-0.017678X-0.335876X0*%
%TD*%
%TA.AperFunction,SMDPad,CuDef*%
%ADD48RoundRect,0.135000X0.226274X0.035355X0.035355X0.226274X-0.226274X-0.035355X-0.035355X-0.226274X0*%
%TD*%
%TA.AperFunction,ConnectorPad*%
%ADD49C,0.787400*%
%TD*%
%TA.AperFunction,SMDPad,CuDef*%
%ADD50R,0.711200X2.006600*%
%TD*%
%TA.AperFunction,SMDPad,CuDef*%
%ADD51R,2.692400X1.397000*%
%TD*%
%TA.AperFunction,SMDPad,CuDef*%
%ADD52R,0.990600X2.590800*%
%TD*%
%TA.AperFunction,SMDPad,CuDef*%
%ADD53R,1.193800X1.193800*%
%TD*%
%TA.AperFunction,SMDPad,CuDef*%
%ADD54R,1.498600X2.590800*%
%TD*%
%TA.AperFunction,SMDPad,CuDef*%
%ADD55R,1.510000X0.458000*%
%TD*%
%TA.AperFunction,SMDPad,CuDef*%
%ADD56RoundRect,0.150000X0.150000X-0.512500X0.150000X0.512500X-0.150000X0.512500X-0.150000X-0.512500X0*%
%TD*%
%TA.AperFunction,SMDPad,CuDef*%
%ADD57Outline4P,-0.200000X-0.625000X0.200000X-0.625000X0.200000X0.625000X-0.200000X0.625000X0.000000*%
%TD*%
%TA.AperFunction,SMDPad,CuDef*%
%ADD58R,0.400000X1.250000*%
%TD*%
%TA.AperFunction,ComponentPad*%
%ADD59O,1.070000X1.900000*%
%TD*%
%TA.AperFunction,ComponentPad*%
%ADD60C,1.300000*%
%TD*%
%TA.AperFunction,SMDPad,CuDef*%
%ADD61Outline4P,-0.300000X-0.675000X0.300000X-0.675000X0.300000X0.675000X-0.300000X0.675000X0.000000*%
%TD*%
%TA.AperFunction,SMDPad,CuDef*%
%ADD62RoundRect,0.100000X0.100000X-0.637500X0.100000X0.637500X-0.100000X0.637500X-0.100000X-0.637500X0*%
%TD*%
%TA.AperFunction,SMDPad,CuDef*%
%ADD63RoundRect,0.075000X0.521491X-0.415425X-0.415425X0.521491X-0.521491X0.415425X0.415425X-0.521491X0*%
%TD*%
%TA.AperFunction,SMDPad,CuDef*%
%ADD64RoundRect,0.075000X0.521491X0.415425X0.415425X0.521491X-0.521491X-0.415425X-0.415425X-0.521491X0*%
%TD*%
%TA.AperFunction,ViaPad*%
%ADD65C,0.700000*%
%TD*%
%TA.AperFunction,ViaPad*%
%ADD66C,0.650000*%
%TD*%
%TA.AperFunction,Conductor*%
%ADD67C,0.300000*%
%TD*%
%TA.AperFunction,Conductor*%
%ADD68C,0.500000*%
%TD*%
%TA.AperFunction,Conductor*%
%ADD69C,0.200000*%
%TD*%
%TA.AperFunction,Conductor*%
%ADD70C,0.150000*%
%TD*%
%TA.AperFunction,Conductor*%
%ADD71C,0.400000*%
%TD*%
G04 APERTURE END LIST*
D10*
%TO.P,R206,1*%
%TO.N,/microcontroller/SWD_SWDIO*%
X-9580000Y-15800000D03*
%TO.P,R206,2*%
%TO.N,Net-(J201-SWDIO)*%
X-10600000Y-15800000D03*
%TD*%
D11*
%TO.P,C201,1*%
%TO.N,+3.3V*%
X4948008Y-19951992D03*
%TO.P,C201,2*%
%TO.N,GND*%
X3851992Y-21048008D03*
%TD*%
D12*
%TO.P,C203,1*%
%TO.N,/microcontroller/HSE_IN*%
X9460589Y-17460589D03*
%TO.P,C203,2*%
%TO.N,GND*%
X10139411Y-18139411D03*
%TD*%
D13*
%TO.P,R501,1*%
%TO.N,+3.3V*%
X-7200000Y11890000D03*
%TO.P,R501,2*%
%TO.N,/microcontroller/SDMMC1_CMD*%
X-7200000Y12910000D03*
%TD*%
D14*
%TO.P,TP712,1,1*%
%TO.N,/accelerometer/IIS3DWB_INT2*%
X-15300000Y-29400000D03*
%TD*%
D10*
%TO.P,R505,1*%
%TO.N,+3.3V*%
X-10490000Y7500000D03*
%TO.P,R505,2*%
%TO.N,/microcontroller/SDMMC1_D0*%
X-11510000Y7500000D03*
%TD*%
D13*
%TO.P,R504,1*%
%TO.N,+3.3V*%
X-5000000Y11890000D03*
%TO.P,R504,2*%
%TO.N,/microcontroller/SDMMC1_D2*%
X-5000000Y12910000D03*
%TD*%
D15*
%TO.P,Y201,1,1*%
%TO.N,/microcontroller/HSE_IN*%
X9921142Y-16023223D03*
%TO.P,Y201,2,2*%
%TO.N,GND*%
X11476777Y-17578858D03*
%TO.P,Y201,3,3*%
%TO.N,Net-(C206-Pad1)*%
X12678858Y-16376777D03*
%TO.P,Y201,4,4*%
%TO.N,GND*%
X11123223Y-14821142D03*
%TD*%
D16*
%TO.P,R202,1*%
%TO.N,/microcontroller/HSE_OUT*%
X12539376Y-14339376D03*
%TO.P,R202,2*%
%TO.N,Net-(C206-Pad1)*%
X13260624Y-15060624D03*
%TD*%
D17*
%TO.P,C218,1*%
%TO.N,+3.3VA*%
X14639411Y-11460589D03*
%TO.P,C218,2*%
%TO.N,GND*%
X13960589Y-12139411D03*
%TD*%
D18*
%TO.P,C404,1*%
%TO.N,+3.3V*%
X2780000Y34400000D03*
%TO.P,C404,2*%
%TO.N,GND*%
X1820000Y34400000D03*
%TD*%
D19*
%TO.P,C103,1*%
%TO.N,+5V*%
X9800000Y-30780000D03*
%TO.P,C103,2*%
%TO.N,GND*%
X9800000Y-29820000D03*
%TD*%
D18*
%TO.P,C701,1*%
%TO.N,+3.3V*%
X-12920000Y-30300000D03*
%TO.P,C701,2*%
%TO.N,GND*%
X-13880000Y-30300000D03*
%TD*%
D20*
%TO.P,JP201,1,A*%
%TO.N,/microcontroller/BOOT0*%
X-7840381Y-24559619D03*
D21*
%TO.P,JP201,2,B*%
%TO.N,+3.3V*%
X-8759619Y-23640381D03*
%TD*%
D19*
%TO.P,C408,1*%
%TO.N,+3.3V*%
X850000Y22820000D03*
%TO.P,C408,2*%
%TO.N,GND*%
X850000Y23780000D03*
%TD*%
D18*
%TO.P,C706,1*%
%TO.N,+3.3V*%
X-12882500Y-39850000D03*
%TO.P,C706,2*%
%TO.N,GND*%
X-13842500Y-39850000D03*
%TD*%
D17*
%TO.P,C216,1*%
%TO.N,+3.3V*%
X8189411Y-14960589D03*
%TO.P,C216,2*%
%TO.N,GND*%
X7510589Y-15639411D03*
%TD*%
D22*
%TO.P,D102,1,K*%
%TO.N,GND*%
X3412500Y-37737500D03*
%TO.P,D102,2,A*%
%TO.N,Net-(D102-A)*%
X1837500Y-37737500D03*
%TD*%
D23*
%TO.P,C705,1*%
%TO.N,+3.3V*%
X-15742500Y-39850000D03*
%TO.P,C705,2*%
%TO.N,GND*%
X-14782500Y-39850000D03*
%TD*%
D18*
%TO.P,C702,1*%
%TO.N,+3.3V*%
X-10720000Y-30300000D03*
%TO.P,C702,2*%
%TO.N,GND*%
X-11680000Y-30300000D03*
%TD*%
D24*
%TO.P,C211,1*%
%TO.N,+3.3V*%
X12260589Y-11039411D03*
%TO.P,C211,2*%
%TO.N,GND*%
X12939411Y-10360589D03*
%TD*%
D25*
%TO.P,C209,1*%
%TO.N,+3.3V*%
X-10360589Y-12839411D03*
%TO.P,C209,2*%
%TO.N,GND*%
X-11039411Y-12160589D03*
%TD*%
D26*
%TO.P,FB101,1*%
%TO.N,+5V*%
X8437500Y-32037500D03*
%TO.P,FB101,2*%
%TO.N,Net-(U101-OUT)*%
X10012500Y-32037500D03*
%TD*%
D12*
%TO.P,C217,1*%
%TO.N,+3.3V*%
X6160589Y5839411D03*
%TO.P,C217,2*%
%TO.N,GND*%
X6839411Y5160589D03*
%TD*%
D27*
%TO.P,R507,1*%
%TO.N,+3.3V*%
X-5010000Y11000000D03*
%TO.P,R507,2*%
%TO.N,/microcontroller/SD_DET*%
X-3990000Y11000000D03*
%TD*%
D28*
%TO.P,D201,1,K*%
%TO.N,Net-(D201-K)*%
X7500000Y-23887500D03*
%TO.P,D201,2,A*%
%TO.N,/microcontroller/LED_STATUS*%
X7500000Y-22312500D03*
%TD*%
D29*
%TO.P,C403,1*%
%TO.N,+3.3V*%
X15400000Y23780000D03*
%TO.P,C403,2*%
%TO.N,GND*%
X15400000Y22820000D03*
%TD*%
D25*
%TO.P,C214,1*%
%TO.N,+3.3V*%
X-6860589Y-16339411D03*
%TO.P,C214,2*%
%TO.N,GND*%
X-7539411Y-15660589D03*
%TD*%
D10*
%TO.P,R801,1*%
%TO.N,+3.3V*%
X2610000Y-25250000D03*
%TO.P,R801,2*%
%TO.N,/expansion/EXP_CS*%
X1590000Y-25250000D03*
%TD*%
D27*
%TO.P,R506,1*%
%TO.N,+3.3V*%
X-13710000Y12900000D03*
%TO.P,R506,2*%
%TO.N,/microcontroller/SDMMC1_D1*%
X-12690000Y12900000D03*
%TD*%
D30*
%TO.P,C106,1*%
%TO.N,+5V*%
X8525000Y-33562500D03*
%TO.P,C106,2*%
%TO.N,GND*%
X8525000Y-35112500D03*
%TD*%
D23*
%TO.P,C101,1*%
%TO.N,/USB/USB_5V*%
X12820000Y-28900000D03*
%TO.P,C101,2*%
%TO.N,GND*%
X13780000Y-28900000D03*
%TD*%
D31*
%TO.P,U102,1,GND*%
%TO.N,GND*%
X1825000Y-33287500D03*
%TO.P,U102,2,VO*%
%TO.N,+3.3V*%
X4125000Y-33287500D03*
D32*
X4125000Y-26987500D03*
D31*
%TO.P,U102,3,VI*%
%TO.N,+5V*%
X6425000Y-33287500D03*
%TD*%
D16*
%TO.P,R502,1*%
%TO.N,Net-(J501-CLK)*%
X-13860624Y-9339376D03*
%TO.P,R502,2*%
%TO.N,/microcontroller/SDMMC1_CK*%
X-13139376Y-10060624D03*
%TD*%
D19*
%TO.P,C402,1*%
%TO.N,+3.3V*%
X15400000Y29620000D03*
%TO.P,C402,2*%
%TO.N,GND*%
X15400000Y30580000D03*
%TD*%
D17*
%TO.P,C206,1*%
%TO.N,Net-(C206-Pad1)*%
X13539411Y-17660589D03*
%TO.P,C206,2*%
%TO.N,GND*%
X12860589Y-18339411D03*
%TD*%
D14*
%TO.P,TP603,1,1*%
%TO.N,/encoder/ENC_A*%
X13300000Y-27200000D03*
%TD*%
D33*
%TO.P,U702,1,V_{DD_I/O}*%
%TO.N,+3.3V*%
X-11012500Y-28800000D03*
%TO.P,U702,2*%
%TO.N,N/C*%
X-11012500Y-28300000D03*
%TO.P,U702,3,RES*%
%TO.N,unconnected-(U702-RES-Pad3)*%
X-11012500Y-27800000D03*
%TO.P,U702,4,SCLK*%
%TO.N,/accelerometer/ADXL372_CLK*%
X-11012500Y-27300000D03*
%TO.P,U702,5,ADC_IN*%
%TO.N,unconnected-(U702-ADC_IN-Pad5)*%
X-11012500Y-26800000D03*
D34*
%TO.P,U702,6,MOSI*%
%TO.N,/accelerometer/ADXL372_MOSI*%
X-11800000Y-26525000D03*
%TO.P,U702,7,MISO*%
%TO.N,/accelerometer/ADXL372_MISO*%
X-12300000Y-26525000D03*
%TO.P,U702,8,~{CS}*%
%TO.N,/accelerometer/ADXL372_CS*%
X-12800000Y-26525000D03*
D33*
%TO.P,U702,9,INT2*%
%TO.N,/accelerometer/ADXL372_INT2*%
X-13587500Y-26800000D03*
%TO.P,U702,10,RES*%
%TO.N,unconnected-(U702-RES-Pad10)*%
X-13587500Y-27300000D03*
%TO.P,U702,11,INT1*%
%TO.N,/accelerometer/ADXL372_INT1*%
X-13587500Y-27800000D03*
%TO.P,U702,12,GND*%
%TO.N,GND*%
X-13587500Y-28300000D03*
%TO.P,U702,13,GND*%
X-13587500Y-28800000D03*
D34*
%TO.P,U702,14,V_{S}*%
%TO.N,+3.3V*%
X-12800000Y-29075000D03*
%TO.P,U702,15*%
%TO.N,N/C*%
X-12300000Y-29075000D03*
%TO.P,U702,16,GND*%
%TO.N,GND*%
X-11800000Y-29075000D03*
%TD*%
D35*
%TO.P,C104,1*%
%TO.N,+5V*%
X8525000Y-30512500D03*
%TO.P,C104,2*%
%TO.N,GND*%
X8525000Y-28962500D03*
%TD*%
D36*
%TO.P,R201,1*%
%TO.N,/microcontroller/BUTTON*%
X8800000Y-21290000D03*
%TO.P,R201,2*%
%TO.N,GND*%
X8800000Y-22310000D03*
%TD*%
D14*
%TO.P,TP601,1,1*%
%TO.N,/encoder/ENC_IW*%
X15600000Y-23900000D03*
%TD*%
D25*
%TO.P,C212,1*%
%TO.N,+3.3V*%
X839411Y8460589D03*
%TO.P,C212,2*%
%TO.N,GND*%
X160589Y9139411D03*
%TD*%
D37*
%TO.P,L201,1*%
%TO.N,+3.3V*%
X13257053Y-12757053D03*
%TO.P,L201,2*%
%TO.N,+3.3VA*%
X13942947Y-13442947D03*
%TD*%
D23*
%TO.P,C301,1*%
%TO.N,/USB/USB_5V*%
X2220000Y38800000D03*
%TO.P,C301,2*%
%TO.N,GND*%
X3180000Y38800000D03*
%TD*%
D38*
%TO.P,R401,1*%
%TO.N,Net-(U401-CLK)*%
X-8539376Y3060624D03*
%TO.P,R401,2*%
%TO.N,/SDRAM/CLK*%
X-9260624Y2339376D03*
%TD*%
D39*
%TO.P,H102,1,1*%
%TO.N,GND*%
X-13890500Y44053000D03*
%TD*%
D13*
%TO.P,R802,1*%
%TO.N,Net-(J801-Pin_3)*%
X-1200000Y-39410000D03*
%TO.P,R802,2*%
%TO.N,/expansion/EXP_INT*%
X-1200000Y-38390000D03*
%TD*%
%TO.P,R701,1*%
%TO.N,+3.3V*%
X-6300000Y-35210000D03*
%TO.P,R701,2*%
%TO.N,/accelerometer/LSM6DS3_CS*%
X-6300000Y-34190000D03*
%TD*%
D17*
%TO.P,C202,1*%
%TO.N,+3.3V*%
X-2060589Y-21060589D03*
%TO.P,C202,2*%
%TO.N,GND*%
X-2739411Y-21739411D03*
%TD*%
D29*
%TO.P,C102,1*%
%TO.N,Net-(U101-OUT)*%
X10225000Y-33257500D03*
%TO.P,C102,2*%
%TO.N,GND*%
X10225000Y-34217500D03*
%TD*%
D39*
%TO.P,H101,1,1*%
%TO.N,GND*%
X13890500Y44053000D03*
%TD*%
D12*
%TO.P,C204,1*%
%TO.N,+3.3V*%
X13860589Y-2660589D03*
%TO.P,C204,2*%
%TO.N,GND*%
X14539411Y-3339411D03*
%TD*%
D17*
%TO.P,C208,1*%
%TO.N,+3.3V*%
X-14660589Y-4921178D03*
%TO.P,C208,2*%
%TO.N,GND*%
X-15339411Y-5600000D03*
%TD*%
%TO.P,C219,1*%
%TO.N,+3.3VA*%
X14239411Y-10460589D03*
%TO.P,C219,2*%
%TO.N,GND*%
X13560589Y-11139411D03*
%TD*%
D10*
%TO.P,R205,1*%
%TO.N,/microcontroller/SWD_SWCLK*%
X-9580000Y-17100000D03*
%TO.P,R205,2*%
%TO.N,Net-(J201-SWCLK)*%
X-10600000Y-17100000D03*
%TD*%
D29*
%TO.P,C407,1*%
%TO.N,+3.3V*%
X850000Y12080000D03*
%TO.P,C407,2*%
%TO.N,GND*%
X850000Y11120000D03*
%TD*%
D40*
%TO.P,C401,1*%
%TO.N,+3.3V*%
X3925000Y34600000D03*
%TO.P,C401,2*%
%TO.N,GND*%
X5475000Y34600000D03*
%TD*%
D14*
%TO.P,TP602,1,1*%
%TO.N,/encoder/ENC_B*%
X14000000Y-25200000D03*
%TD*%
D11*
%TO.P,C222,1*%
%TO.N,Net-(C222-Pad1)*%
X-14251992Y-2651992D03*
%TO.P,C222,2*%
%TO.N,GND*%
X-15348008Y-3748008D03*
%TD*%
D14*
%TO.P,TP507,1,1*%
%TO.N,/microcontroller/SD_DET*%
X-2700000Y14400000D03*
%TD*%
D17*
%TO.P,C210,1*%
%TO.N,+3.3V*%
X-2760589Y-20421178D03*
%TO.P,C210,2*%
%TO.N,GND*%
X-3439411Y-21100000D03*
%TD*%
D22*
%TO.P,D101,1,K*%
%TO.N,GND*%
X10087500Y-37900000D03*
%TO.P,D101,2,A*%
%TO.N,Net-(D101-A)*%
X8512500Y-37900000D03*
%TD*%
D41*
%TO.P,U703,1,SDO/SA0*%
%TO.N,/accelerometer/IIS3DWB_MISO*%
X-15525000Y-37100000D03*
%TO.P,U703,2,SDX*%
%TO.N,unconnected-(U703-SDX-Pad2)*%
X-15525000Y-37600000D03*
%TO.P,U703,3,SCX*%
%TO.N,unconnected-(U703-SCX-Pad3)*%
X-15525000Y-38100000D03*
%TO.P,U703,4,INT1*%
%TO.N,/accelerometer/IIS3DWB_INT1*%
X-15525000Y-38600000D03*
D42*
%TO.P,U703,5,VDDIO*%
%TO.N,+3.3V*%
X-14862500Y-38762500D03*
%TO.P,U703,6,GND*%
%TO.N,GND*%
X-14362500Y-38762500D03*
%TO.P,U703,7,GND*%
X-13862500Y-38762500D03*
D41*
%TO.P,U703,8,VDD*%
%TO.N,+3.3V*%
X-13200000Y-38600000D03*
%TO.P,U703,9,INT2*%
%TO.N,/accelerometer/IIS3DWB_INT2*%
X-13200000Y-38100000D03*
%TO.P,U703,10,NC*%
%TO.N,unconnected-(U703-NC-Pad10)*%
X-13200000Y-37600000D03*
%TO.P,U703,11,NC*%
%TO.N,unconnected-(U703-NC-Pad11)*%
X-13200000Y-37100000D03*
D42*
%TO.P,U703,12,CS*%
%TO.N,/accelerometer/IIS3DWB_CS*%
X-13862500Y-36937500D03*
%TO.P,U703,13,SCL*%
%TO.N,/accelerometer/IIS3DWB_CLK*%
X-14362500Y-36937500D03*
%TO.P,U703,14,SDA*%
%TO.N,/accelerometer/IIS3DWB_MOSI*%
X-14862500Y-36937500D03*
%TD*%
D29*
%TO.P,C406,1*%
%TO.N,+3.3V*%
X850000Y25780000D03*
%TO.P,C406,2*%
%TO.N,GND*%
X850000Y24820000D03*
%TD*%
D41*
%TO.P,U701,1,SDO/SA0*%
%TO.N,/accelerometer/LSM6DS3_MISO*%
X-10362500Y-37100000D03*
%TO.P,U701,2,SDX*%
%TO.N,unconnected-(U701-SDX-Pad2)*%
X-10362500Y-37600000D03*
%TO.P,U701,3,SCX*%
%TO.N,unconnected-(U701-SCX-Pad3)*%
X-10362500Y-38100000D03*
%TO.P,U701,4,INT1*%
%TO.N,/accelerometer/LSM6DS3_INT1*%
X-10362500Y-38600000D03*
D42*
%TO.P,U701,5,VDDIO*%
%TO.N,+3.3V*%
X-9700000Y-38762500D03*
%TO.P,U701,6,GND*%
%TO.N,GND*%
X-9200000Y-38762500D03*
%TO.P,U701,7,GND*%
X-8700000Y-38762500D03*
D41*
%TO.P,U701,8,VDD*%
%TO.N,+3.3V*%
X-8037500Y-38600000D03*
%TO.P,U701,9,INT2*%
%TO.N,/accelerometer/LSM6DS3_INT2*%
X-8037500Y-38100000D03*
%TO.P,U701,10,NC*%
%TO.N,unconnected-(U701-NC-Pad10)*%
X-8037500Y-37600000D03*
%TO.P,U701,11,NC*%
%TO.N,unconnected-(U701-NC-Pad11)*%
X-8037500Y-37100000D03*
D42*
%TO.P,U701,12,CS*%
%TO.N,/accelerometer/LSM6DS3_CS*%
X-8700000Y-36937500D03*
%TO.P,U701,13,SCL*%
%TO.N,/accelerometer/LSM6DS3_CLK*%
X-9200000Y-36937500D03*
%TO.P,U701,14,SDA*%
%TO.N,/accelerometer/LSM6DS3_MOSI*%
X-9700000Y-36937500D03*
%TD*%
D43*
%TO.P,C107,1*%
%TO.N,+3.3V*%
X3700000Y-35337500D03*
%TO.P,C107,2*%
%TO.N,GND*%
X2150000Y-35337500D03*
%TD*%
D27*
%TO.P,R102,1*%
%TO.N,+5V*%
X6315000Y-36437500D03*
%TO.P,R102,2*%
%TO.N,Net-(R102-Pad2)*%
X7335000Y-36437500D03*
%TD*%
D24*
%TO.P,C213,1*%
%TO.N,+3.3V*%
X-10539411Y660589D03*
%TO.P,C213,2*%
%TO.N,GND*%
X-9860589Y1339411D03*
%TD*%
D44*
%TO.P,SW201,1,1*%
%TO.N,/microcontroller/BUTTON*%
X11000000Y-21000000D03*
%TO.P,SW201,2,2*%
%TO.N,+3.3V*%
X11000000Y-25200000D03*
%TD*%
D18*
%TO.P,C703,1*%
%TO.N,+3.3V*%
X-7720000Y-39850000D03*
%TO.P,C703,2*%
%TO.N,GND*%
X-8680000Y-39850000D03*
%TD*%
D36*
%TO.P,R101,1*%
%TO.N,Net-(U101-ILIM)*%
X10225000Y-35627500D03*
%TO.P,R101,2*%
%TO.N,GND*%
X10225000Y-36647500D03*
%TD*%
D45*
%TO.P,J801,1,Pin_1*%
%TO.N,GND*%
X-7950000Y-41600000D03*
%TO.P,J801,2,Pin_2*%
%TO.N,+3.3V*%
X-6950000Y-41600000D03*
%TO.P,J801,3,Pin_3*%
%TO.N,Net-(J801-Pin_3)*%
X-5950000Y-41600000D03*
%TO.P,J801,4,Pin_4*%
%TO.N,/expansion/EXP_MOSI*%
X-4950000Y-41600000D03*
%TO.P,J801,5,Pin_5*%
%TO.N,/expansion/EXP_MISO*%
X-3950000Y-41600000D03*
%TO.P,J801,6,Pin_6*%
%TO.N,/expansion/EXP_CLK*%
X-2950000Y-41600000D03*
%TO.P,J801,7,Pin_7*%
%TO.N,/expansion/EXP_CS*%
X-1950000Y-41600000D03*
D46*
%TO.P,J801,MP*%
%TO.N,N/C*%
X-9250000Y-45475000D03*
X-650000Y-45475000D03*
%TD*%
D27*
%TO.P,R103,1*%
%TO.N,Net-(R102-Pad2)*%
X8215000Y-36437500D03*
%TO.P,R103,2*%
%TO.N,Net-(D101-A)*%
X9235000Y-36437500D03*
%TD*%
D39*
%TO.P,H104,1,1*%
%TO.N,GND*%
X13890500Y-44053000D03*
%TD*%
D10*
%TO.P,R207,1*%
%TO.N,/microcontroller/SWD_SWO*%
X-9580000Y-18400000D03*
%TO.P,R207,2*%
%TO.N,Net-(J201-SWO)*%
X-10600000Y-18400000D03*
%TD*%
D47*
%TO.P,C220,1*%
%TO.N,Net-(C220-Pad1)*%
X2748008Y8851992D03*
%TO.P,C220,2*%
%TO.N,GND*%
X1651992Y9948008D03*
%TD*%
D10*
%TO.P,R703,1*%
%TO.N,+3.3V*%
X-12852500Y-35850000D03*
%TO.P,R703,2*%
%TO.N,/accelerometer/IIS3DWB_CS*%
X-13872500Y-35850000D03*
%TD*%
D39*
%TO.P,H103,1,1*%
%TO.N,GND*%
X-13890500Y-44053000D03*
%TD*%
D14*
%TO.P,TP711,1,1*%
%TO.N,/accelerometer/IIS3DWB_INT1*%
X-15600000Y-33400000D03*
%TD*%
D26*
%TO.P,FB501,1*%
%TO.N,+3.3V*%
X-10187500Y10100000D03*
%TO.P,FB501,2*%
%TO.N,Net-(J501-VDD)*%
X-8612500Y10100000D03*
%TD*%
D48*
%TO.P,R203,1*%
%TO.N,/microcontroller/BOOT0*%
X-6739376Y-23160624D03*
%TO.P,R203,2*%
%TO.N,GND*%
X-7460624Y-22439376D03*
%TD*%
D49*
%TO.P,J201,1,VCC*%
%TO.N,+3.3V*%
X-13725000Y-15830000D03*
%TO.P,J201,2,SWDIO*%
%TO.N,Net-(J201-SWDIO)*%
X-12455000Y-15830000D03*
%TO.P,J201,3,~{RESET}*%
%TO.N,/microcontroller/SWD_NRST*%
X-13725000Y-17100000D03*
%TO.P,J201,4,SWCLK*%
%TO.N,Net-(J201-SWCLK)*%
X-12455000Y-17100000D03*
%TO.P,J201,5,GND*%
%TO.N,GND*%
X-13725000Y-18370000D03*
%TO.P,J201,6,SWO*%
%TO.N,Net-(J201-SWO)*%
X-12455000Y-18370000D03*
%TD*%
D50*
%TO.P,J501,1,DAT2*%
%TO.N,/microcontroller/SDMMC1_D2*%
X-4977001Y16701649D03*
%TO.P,J501,2,CD/DAT3*%
%TO.N,/microcontroller/SDMMC1_D3*%
X-6077001Y16701649D03*
%TO.P,J501,3,CMD*%
%TO.N,/microcontroller/SDMMC1_CMD*%
X-7177002Y16701649D03*
%TO.P,J501,4,VDD*%
%TO.N,Net-(J501-VDD)*%
X-8277002Y16701649D03*
%TO.P,J501,5,CLK*%
%TO.N,Net-(J501-CLK)*%
X-9377002Y16701649D03*
%TO.P,J501,6,VSS*%
%TO.N,GND*%
X-10477003Y16701649D03*
%TO.P,J501,7,DAT0*%
%TO.N,/microcontroller/SDMMC1_D0*%
X-11577000Y16701649D03*
%TO.P,J501,8,DAT1*%
%TO.N,/microcontroller/SDMMC1_D1*%
X-12677001Y16701649D03*
D51*
%TO.P,J501,9,CDS*%
%TO.N,/microcontroller/SD_DET*%
X-6377001Y29401649D03*
D52*
%TO.P,J501,10,GND1*%
%TO.N,GND*%
X-14776999Y17201650D03*
D51*
%TO.P,J501,11,GND2*%
X-11277001Y29401649D03*
D53*
%TO.P,J501,12,GND3*%
X-3326999Y29501651D03*
D54*
%TO.P,J501,13,GND4*%
X-1477000Y17201651D03*
%TD*%
D55*
%TO.P,U401,1,VDD*%
%TO.N,+3.3V*%
X2350000Y32900000D03*
%TO.P,U401,2,DQ0*%
%TO.N,/SDRAM/DQ0*%
X2350000Y32100000D03*
%TO.P,U401,3,VDDQ*%
%TO.N,+3.3V*%
X2350000Y31300000D03*
%TO.P,U401,4,DQ1*%
%TO.N,/SDRAM/DQ1*%
X2350000Y30500000D03*
%TO.P,U401,5,DQ2*%
%TO.N,/SDRAM/DQ2*%
X2350000Y29700000D03*
%TO.P,U401,6,VSSQ*%
%TO.N,GND*%
X2350000Y28900000D03*
%TO.P,U401,7,DQ3*%
%TO.N,/SDRAM/DQ3*%
X2350000Y28100000D03*
%TO.P,U401,8,DQ4*%
%TO.N,/SDRAM/DQ4*%
X2350000Y27300000D03*
%TO.P,U401,9,VDDQ*%
%TO.N,+3.3V*%
X2350000Y26500000D03*
%TO.P,U401,10,DQ5*%
%TO.N,/SDRAM/DQ5*%
X2350000Y25700000D03*
%TO.P,U401,11,DQ6*%
%TO.N,/SDRAM/DQ6*%
X2350000Y24900000D03*
%TO.P,U401,12,VSSQ*%
%TO.N,GND*%
X2350000Y24100000D03*
%TO.P,U401,13,DQ7*%
%TO.N,/SDRAM/DQ7*%
X2350000Y23300000D03*
%TO.P,U401,14,VDD*%
%TO.N,+3.3V*%
X2350000Y22500000D03*
%TO.P,U401,15,LDQM*%
%TO.N,/SDRAM/LDQM*%
X2350000Y21700000D03*
%TO.P,U401,16,~{WE}*%
%TO.N,/SDRAM/NWE*%
X2350000Y20900000D03*
%TO.P,U401,17,~{CAS}*%
%TO.N,/SDRAM/NCAS*%
X2350000Y20100000D03*
%TO.P,U401,18,~{RAS}*%
%TO.N,/SDRAM/NRAS*%
X2350000Y19300000D03*
%TO.P,U401,19,~{CS}*%
%TO.N,/SDRAM/NCS*%
X2350000Y18500000D03*
%TO.P,U401,20,BS0*%
%TO.N,/SDRAM/BS0*%
X2350000Y17700000D03*
%TO.P,U401,21,BS1*%
%TO.N,/SDRAM/BS1*%
X2350000Y16900000D03*
%TO.P,U401,22,A10/AP*%
%TO.N,/SDRAM/A10*%
X2350000Y16100000D03*
%TO.P,U401,23,A0*%
%TO.N,/SDRAM/A0*%
X2350000Y15300000D03*
%TO.P,U401,24,A1*%
%TO.N,/SDRAM/A1*%
X2350000Y14500000D03*
%TO.P,U401,25,A2*%
%TO.N,/SDRAM/A2*%
X2350000Y13700000D03*
%TO.P,U401,26,A3*%
%TO.N,/SDRAM/A3*%
X2350000Y12900000D03*
%TO.P,U401,27,VDD*%
%TO.N,+3.3V*%
X2350000Y12100000D03*
%TO.P,U401,28,VSS*%
%TO.N,GND*%
X13850000Y12100000D03*
%TO.P,U401,29,A4*%
%TO.N,/SDRAM/A4*%
X13850000Y12900000D03*
%TO.P,U401,30,A5*%
%TO.N,/SDRAM/A5*%
X13850000Y13700000D03*
%TO.P,U401,31,A6*%
%TO.N,/SDRAM/A6*%
X13850000Y14500000D03*
%TO.P,U401,32,A7*%
%TO.N,/SDRAM/A7*%
X13850000Y15300000D03*
%TO.P,U401,33,A8*%
%TO.N,/SDRAM/A8*%
X13850000Y16100000D03*
%TO.P,U401,34,A9*%
%TO.N,/SDRAM/A9*%
X13850000Y16900000D03*
%TO.P,U401,35,A11*%
%TO.N,/SDRAM/A11*%
X13850000Y17700000D03*
%TO.P,U401,36,NC*%
%TO.N,unconnected-(U401-NC-Pad36)*%
X13850000Y18500000D03*
%TO.P,U401,37,CKE*%
%TO.N,/SDRAM/CKE*%
X13850000Y19300000D03*
%TO.P,U401,38,CLK*%
%TO.N,Net-(U401-CLK)*%
X13850000Y20100000D03*
%TO.P,U401,39,UDQM*%
%TO.N,/SDRAM/UDQM*%
X13850000Y20900000D03*
%TO.P,U401,40,NC*%
%TO.N,unconnected-(U401-NC-Pad40)*%
X13850000Y21700000D03*
%TO.P,U401,41,VSS*%
%TO.N,GND*%
X13850000Y22500000D03*
%TO.P,U401,42,DQ8*%
%TO.N,/SDRAM/DQ8*%
X13850000Y23300000D03*
%TO.P,U401,43,VDDQ*%
%TO.N,+3.3V*%
X13850000Y24100000D03*
%TO.P,U401,44,DQ9*%
%TO.N,/SDRAM/DQ9*%
X13850000Y24900000D03*
%TO.P,U401,45,DQ10*%
%TO.N,/SDRAM/DQ10*%
X13850000Y25700000D03*
%TO.P,U401,46,VSSQ*%
%TO.N,GND*%
X13850000Y26500000D03*
%TO.P,U401,47,DQ11*%
%TO.N,/SDRAM/DQ11*%
X13850000Y27300000D03*
%TO.P,U401,48,DQ12*%
%TO.N,/SDRAM/DQ12*%
X13850000Y28100000D03*
%TO.P,U401,49,VDDQ*%
%TO.N,+3.3V*%
X13850000Y28900000D03*
%TO.P,U401,50,DQ13*%
%TO.N,/SDRAM/DQ13*%
X13850000Y29700000D03*
%TO.P,U401,51,DQ14*%
%TO.N,/SDRAM/DQ14*%
X13850000Y30500000D03*
%TO.P,U401,52,VSSQ*%
%TO.N,GND*%
X13850000Y31300000D03*
%TO.P,U401,53,DQ15*%
%TO.N,/SDRAM/DQ15*%
X13850000Y32100000D03*
%TO.P,U401,54,VSS*%
%TO.N,GND*%
X13850000Y32900000D03*
%TD*%
D24*
%TO.P,C207,1*%
%TO.N,+3.3V*%
X-6639411Y5060589D03*
%TO.P,C207,2*%
%TO.N,GND*%
X-5960589Y5739411D03*
%TD*%
D18*
%TO.P,C501,1*%
%TO.N,Net-(J501-VDD)*%
X-8920000Y12900000D03*
%TO.P,C501,2*%
%TO.N,GND*%
X-9880000Y12900000D03*
%TD*%
D12*
%TO.P,C205,1*%
%TO.N,+3.3V*%
X9560589Y2039411D03*
%TO.P,C205,2*%
%TO.N,GND*%
X10239411Y1360589D03*
%TD*%
D18*
%TO.P,C105,1*%
%TO.N,Net-(J102-Pin_2)*%
X11880000Y-28900000D03*
%TO.P,C105,2*%
%TO.N,GND*%
X10920000Y-28900000D03*
%TD*%
D27*
%TO.P,R702,1*%
%TO.N,+3.3V*%
X-13810000Y-25400000D03*
%TO.P,R702,2*%
%TO.N,/accelerometer/ADXL372_CS*%
X-12790000Y-25400000D03*
%TD*%
D10*
%TO.P,R104,1*%
%TO.N,+3.3V*%
X3435000Y-36537500D03*
%TO.P,R104,2*%
%TO.N,Net-(D102-A)*%
X2415000Y-36537500D03*
%TD*%
D29*
%TO.P,C405,1*%
%TO.N,+3.3V*%
X850000Y30580000D03*
%TO.P,C405,2*%
%TO.N,GND*%
X850000Y29620000D03*
%TD*%
D56*
%TO.P,U301,1,I/O1*%
%TO.N,/USB/USB_D+*%
X-950000Y36212500D03*
%TO.P,U301,2,GND*%
%TO.N,GND*%
X0Y36212500D03*
%TO.P,U301,3,I/O2*%
%TO.N,/USB/USB_D-*%
X950000Y36212500D03*
%TO.P,U301,4,I/O2*%
%TO.N,/USB/USB_CONN_D-*%
X950000Y38487500D03*
%TO.P,U301,5,VBUS*%
%TO.N,/USB/USB_5V*%
X0Y38487500D03*
%TO.P,U301,6,I/O1*%
%TO.N,/USB/USB_CONN_D+*%
X-950000Y38487500D03*
%TD*%
D14*
%TO.P,TP505,1,1*%
%TO.N,/microcontroller/SDMMC1_D0*%
X-11900000Y3500000D03*
%TD*%
%TO.P,TP506,1,1*%
%TO.N,/microcontroller/SDMMC1_D1*%
X-13600000Y6700000D03*
%TD*%
D29*
%TO.P,C221,1*%
%TO.N,/microcontroller/SWD_NRST*%
X-15600000Y-17320000D03*
%TO.P,C221,2*%
%TO.N,GND*%
X-15600000Y-18280000D03*
%TD*%
D13*
%TO.P,R204,1*%
%TO.N,Net-(D201-K)*%
X8800000Y-24910000D03*
%TO.P,R204,2*%
%TO.N,GND*%
X8800000Y-23890000D03*
%TD*%
%TO.P,R503,1*%
%TO.N,+3.3V*%
X-6100000Y11890000D03*
%TO.P,R503,2*%
%TO.N,/microcontroller/SDMMC1_D3*%
X-6100000Y12910000D03*
%TD*%
D57*
%TO.P,J301,1,VBUS*%
%TO.N,/USB/USB_5V*%
X1300000Y40950000D03*
D58*
%TO.P,J301,2,D-*%
%TO.N,/USB/USB_CONN_D-*%
X650000Y40950000D03*
%TO.P,J301,3,D+*%
%TO.N,/USB/USB_CONN_D+*%
X0Y40950000D03*
%TO.P,J301,4,ID*%
%TO.N,unconnected-(J301-ID-Pad4)*%
X-650000Y40950000D03*
%TO.P,J301,5,GND*%
%TO.N,GND*%
X-1300000Y40950000D03*
D59*
%TO.P,J301,6,Shield*%
%TO.N,unconnected-(J301-Shield-Pad6)*%
X-3600000Y43575000D03*
D60*
X-2425000Y40950000D03*
D61*
X-975000Y43625000D03*
X800000Y43625000D03*
D60*
X2425000Y40950000D03*
D59*
X3600000Y43575000D03*
%TD*%
D43*
%TO.P,C502,1*%
%TO.N,Net-(J501-VDD)*%
X-8625000Y11600000D03*
%TO.P,C502,2*%
%TO.N,GND*%
X-10175000Y11600000D03*
%TD*%
D23*
%TO.P,C704,1*%
%TO.N,+3.3V*%
X-10580000Y-39850000D03*
%TO.P,C704,2*%
%TO.N,GND*%
X-9620000Y-39850000D03*
%TD*%
D62*
%TO.P,U101,1,STAT*%
%TO.N,unconnected-(U101-STAT-Pad1)*%
X11550000Y-36100000D03*
%TO.P,U101,2,D0*%
%TO.N,unconnected-(U101-D0-Pad2)*%
X12200000Y-36100000D03*
%TO.P,U101,3,D1*%
%TO.N,GND*%
X12850000Y-36100000D03*
%TO.P,U101,4,ILIM*%
%TO.N,Net-(U101-ILIM)*%
X13500000Y-36100000D03*
%TO.P,U101,5,GND*%
%TO.N,GND*%
X13500000Y-30375000D03*
%TO.P,U101,6,IN2*%
%TO.N,/USB/USB_5V*%
X12850000Y-30375000D03*
%TO.P,U101,7,OUT*%
%TO.N,Net-(U101-OUT)*%
X12200000Y-30375000D03*
%TO.P,U101,8,IN1*%
%TO.N,Net-(J102-Pin_2)*%
X11550000Y-30375000D03*
%TD*%
D45*
%TO.P,J601,1,Pin_1*%
%TO.N,GND*%
X2950000Y-41600000D03*
%TO.P,J601,2,Pin_2*%
%TO.N,+3.3V*%
X3950000Y-41600000D03*
%TO.P,J601,3,Pin_3*%
%TO.N,+5V*%
X4950000Y-41600000D03*
%TO.P,J601,4,Pin_4*%
%TO.N,/encoder/ENC_A*%
X5950000Y-41600000D03*
%TO.P,J601,5,Pin_5*%
%TO.N,/encoder/ENC_B*%
X6950000Y-41600000D03*
%TO.P,J601,6,Pin_6*%
%TO.N,/encoder/ENC_IW*%
X7950000Y-41600000D03*
D46*
%TO.P,J601,MP*%
%TO.N,N/C*%
X1650000Y-45475000D03*
X9250000Y-45475000D03*
%TD*%
D63*
%TO.P,U201,1,PE2*%
%TO.N,/expansion/EXP_CLK*%
X1352342Y-19726710D03*
%TO.P,U201,2,PE3*%
%TO.N,/expansion/EXP_INT*%
X1705895Y-19373157D03*
%TO.P,U201,3,PE4*%
%TO.N,/expansion/EXP_CS*%
X2059449Y-19019604D03*
%TO.P,U201,4,PE5*%
%TO.N,/expansion/EXP_MISO*%
X2413002Y-18666050D03*
%TO.P,U201,5,PE6*%
%TO.N,/expansion/EXP_MOSI*%
X2766555Y-18312497D03*
%TO.P,U201,6,VBAT*%
%TO.N,+3.3V*%
X3120109Y-17958943D03*
%TO.P,U201,7,PC13*%
%TO.N,unconnected-(U201-PC13-Pad7)*%
X3473662Y-17605390D03*
%TO.P,U201,8,PC14*%
%TO.N,/microcontroller/LED_STATUS*%
X3827215Y-17251837D03*
%TO.P,U201,9,PC15*%
%TO.N,/microcontroller/BUTTON*%
X4180769Y-16898283D03*
%TO.P,U201,10,PF0*%
%TO.N,/SDRAM/A0*%
X4534322Y-16544730D03*
%TO.P,U201,11,PF1*%
%TO.N,/SDRAM/A1*%
X4887876Y-16191176D03*
%TO.P,U201,12,PF2*%
%TO.N,/SDRAM/A2*%
X5241429Y-15837623D03*
%TO.P,U201,13,PF3*%
%TO.N,/SDRAM/A3*%
X5594982Y-15484070D03*
%TO.P,U201,14,PF4*%
%TO.N,/SDRAM/A4*%
X5948536Y-15130516D03*
%TO.P,U201,15,PF5*%
%TO.N,/SDRAM/A5*%
X6302089Y-14776963D03*
%TO.P,U201,16,VSS*%
%TO.N,GND*%
X6655643Y-14423410D03*
%TO.P,U201,17,VDD*%
%TO.N,+3.3V*%
X7009196Y-14069856D03*
%TO.P,U201,18,PF6*%
%TO.N,/accelerometer/LSM6DS3_CS*%
X7362749Y-13716303D03*
%TO.P,U201,19,PF7*%
%TO.N,/accelerometer/LSM6DS3_CLK*%
X7716303Y-13362749D03*
%TO.P,U201,20,PF8*%
%TO.N,/accelerometer/LSM6DS3_MISO*%
X8069856Y-13009196D03*
%TO.P,U201,21,PF9*%
%TO.N,/accelerometer/LSM6DS3_MOSI*%
X8423410Y-12655643D03*
%TO.P,U201,22,PF10*%
%TO.N,unconnected-(U201-PF10-Pad22)*%
X8776963Y-12302089D03*
%TO.P,U201,23,PH0*%
%TO.N,/microcontroller/HSE_IN*%
X9130516Y-11948536D03*
%TO.P,U201,24,PH1*%
%TO.N,/microcontroller/HSE_OUT*%
X9484070Y-11594982D03*
%TO.P,U201,25,NRST*%
%TO.N,/microcontroller/SWD_NRST*%
X9837623Y-11241429D03*
%TO.P,U201,26,PC0*%
%TO.N,/SDRAM/NWE*%
X10191176Y-10887876D03*
%TO.P,U201,27,PC1*%
%TO.N,unconnected-(U201-PC1-Pad27)*%
X10544730Y-10534322D03*
%TO.P,U201,28,PC2_C*%
%TO.N,/SDRAM/NCS*%
X10898283Y-10180769D03*
%TO.P,U201,29,PC3_C*%
%TO.N,/SDRAM/CKE*%
X11251837Y-9827215D03*
%TO.P,U201,30,VDD*%
%TO.N,+3.3V*%
X11605390Y-9473662D03*
%TO.P,U201,31,VSSA*%
%TO.N,GND*%
X11958943Y-9120109D03*
%TO.P,U201,32,VREF+*%
%TO.N,+3.3VA*%
X12312497Y-8766555D03*
%TO.P,U201,33,VDDA*%
X12666050Y-8413002D03*
%TO.P,U201,34,PA0*%
%TO.N,/encoder/ENC_A*%
X13019604Y-8059449D03*
%TO.P,U201,35,PA1*%
%TO.N,/encoder/ENC_B*%
X13373157Y-7705895D03*
%TO.P,U201,36,PA2*%
%TO.N,/encoder/ENC_IW*%
X13726710Y-7352342D03*
D64*
%TO.P,U201,37,PA3*%
%TO.N,unconnected-(U201-PA3-Pad37)*%
X13726710Y-4647658D03*
%TO.P,U201,38,VSS*%
%TO.N,GND*%
X13373157Y-4294105D03*
%TO.P,U201,39,VDD*%
%TO.N,+3.3V*%
X13019604Y-3940551D03*
%TO.P,U201,40,PA4*%
%TO.N,/accelerometer/IIS3DWB_CS*%
X12666050Y-3586998D03*
%TO.P,U201,41,PA5*%
%TO.N,/accelerometer/IIS3DWB_CLK*%
X12312497Y-3233445D03*
%TO.P,U201,42,PA6*%
%TO.N,/accelerometer/IIS3DWB_MISO*%
X11958943Y-2879891D03*
%TO.P,U201,43,PA7*%
%TO.N,/accelerometer/IIS3DWB_MOSI*%
X11605390Y-2526338D03*
%TO.P,U201,44,PC4*%
%TO.N,unconnected-(U201-PC4-Pad44)*%
X11251837Y-2172785D03*
%TO.P,U201,45,PC5*%
%TO.N,unconnected-(U201-PC5-Pad45)*%
X10898283Y-1819231D03*
%TO.P,U201,46,PB0*%
%TO.N,unconnected-(U201-PB0-Pad46)*%
X10544730Y-1465678D03*
%TO.P,U201,47,PB1*%
%TO.N,unconnected-(U201-PB1-Pad47)*%
X10191176Y-1112124D03*
%TO.P,U201,48,PB2*%
%TO.N,unconnected-(U201-PB2-Pad48)*%
X9837623Y-758571D03*
%TO.P,U201,49,PF11*%
%TO.N,/SDRAM/NRAS*%
X9484070Y-405018D03*
%TO.P,U201,50,PF12*%
%TO.N,/SDRAM/A6*%
X9130516Y-51464D03*
%TO.P,U201,51,VSS*%
%TO.N,GND*%
X8776963Y302089D03*
%TO.P,U201,52,VDD*%
%TO.N,+3.3V*%
X8423410Y655643D03*
%TO.P,U201,53,PF13*%
%TO.N,/SDRAM/A7*%
X8069856Y1009196D03*
%TO.P,U201,54,PF14*%
%TO.N,/SDRAM/A8*%
X7716303Y1362749D03*
%TO.P,U201,55,PF15*%
%TO.N,/SDRAM/A9*%
X7362749Y1716303D03*
%TO.P,U201,56,PG0*%
%TO.N,/SDRAM/A10*%
X7009196Y2069856D03*
%TO.P,U201,57,PG1*%
%TO.N,/SDRAM/A11*%
X6655643Y2423410D03*
%TO.P,U201,58,PE7*%
%TO.N,/SDRAM/DQ4*%
X6302089Y2776963D03*
%TO.P,U201,59,PE8*%
%TO.N,/SDRAM/DQ5*%
X5948536Y3130516D03*
%TO.P,U201,60,PE9*%
%TO.N,/SDRAM/DQ6*%
X5594982Y3484070D03*
%TO.P,U201,61,VSS*%
%TO.N,GND*%
X5241429Y3837623D03*
%TO.P,U201,62,VDD*%
%TO.N,+3.3V*%
X4887876Y4191176D03*
%TO.P,U201,63,PE10*%
%TO.N,/SDRAM/DQ7*%
X4534322Y4544730D03*
%TO.P,U201,64,PE11*%
%TO.N,/SDRAM/DQ8*%
X4180769Y4898283D03*
%TO.P,U201,65,PE12*%
%TO.N,/SDRAM/DQ9*%
X3827215Y5251837D03*
%TO.P,U201,66,PE13*%
%TO.N,/SDRAM/DQ10*%
X3473662Y5605390D03*
%TO.P,U201,67,PE14*%
%TO.N,/SDRAM/DQ11*%
X3120109Y5958943D03*
%TO.P,U201,68,PE15*%
%TO.N,/SDRAM/DQ12*%
X2766555Y6312497D03*
%TO.P,U201,69,PB10*%
%TO.N,unconnected-(U201-PB10-Pad69)*%
X2413002Y6666050D03*
%TO.P,U201,70,PB11*%
%TO.N,unconnected-(U201-PB11-Pad70)*%
X2059449Y7019604D03*
%TO.P,U201,71,VCAP*%
%TO.N,Net-(C220-Pad1)*%
X1705895Y7373157D03*
%TO.P,U201,72,VDD*%
%TO.N,+3.3V*%
X1352342Y7726710D03*
D63*
%TO.P,U201,73,PB12*%
%TO.N,/accelerometer/ADXL372_CS*%
X-1352342Y7726710D03*
%TO.P,U201,74,PB13*%
%TO.N,/accelerometer/ADXL372_CLK*%
X-1705895Y7373157D03*
%TO.P,U201,75,PB14*%
%TO.N,/accelerometer/ADXL372_MISO*%
X-2059449Y7019604D03*
%TO.P,U201,76,PB15*%
%TO.N,/accelerometer/ADXL372_MOSI*%
X-2413002Y6666050D03*
%TO.P,U201,77,PD8*%
%TO.N,/SDRAM/DQ13*%
X-2766555Y6312497D03*
%TO.P,U201,78,PD9*%
%TO.N,/SDRAM/DQ14*%
X-3120109Y5958943D03*
%TO.P,U201,79,PD10*%
%TO.N,/SDRAM/DQ15*%
X-3473662Y5605390D03*
%TO.P,U201,80,PD11*%
%TO.N,/microcontroller/SD_DET*%
X-3827215Y5251837D03*
%TO.P,U201,81,PD12*%
%TO.N,unconnected-(U201-PD12-Pad81)*%
X-4180769Y4898283D03*
%TO.P,U201,82,PD13*%
%TO.N,unconnected-(U201-PD13-Pad82)*%
X-4534322Y4544730D03*
%TO.P,U201,83,VSS*%
%TO.N,GND*%
X-4887876Y4191176D03*
%TO.P,U201,84,VDD*%
%TO.N,+3.3V*%
X-5241429Y3837623D03*
%TO.P,U201,85,PD14*%
%TO.N,/SDRAM/DQ0*%
X-5594982Y3484070D03*
%TO.P,U201,86,PD15*%
%TO.N,/SDRAM/DQ1*%
X-5948536Y3130516D03*
%TO.P,U201,87,PG2*%
%TO.N,unconnected-(U201-PG2-Pad87)*%
X-6302089Y2776963D03*
%TO.P,U201,88,PG3*%
%TO.N,unconnected-(U201-PG3-Pad88)*%
X-6655643Y2423410D03*
%TO.P,U201,89,PG4*%
%TO.N,/SDRAM/BS0*%
X-7009196Y2069856D03*
%TO.P,U201,90,PG5*%
%TO.N,/SDRAM/BS1*%
X-7362749Y1716303D03*
%TO.P,U201,91,PG6*%
%TO.N,unconnected-(U201-PG6-Pad91)*%
X-7716303Y1362749D03*
%TO.P,U201,92,PG7*%
%TO.N,unconnected-(U201-PG7-Pad92)*%
X-8069856Y1009196D03*
%TO.P,U201,93,PG8*%
%TO.N,/SDRAM/CLK*%
X-8423410Y655643D03*
%TO.P,U201,94,VSS*%
%TO.N,GND*%
X-8776963Y302089D03*
%TO.P,U201,95,VDD33USB*%
%TO.N,+3.3V*%
X-9130516Y-51464D03*
%TO.P,U201,96,PC6*%
%TO.N,unconnected-(U201-PC6-Pad96)*%
X-9484070Y-405018D03*
%TO.P,U201,97,PC7*%
%TO.N,unconnected-(U201-PC7-Pad97)*%
X-9837623Y-758571D03*
%TO.P,U201,98,PC8*%
%TO.N,/microcontroller/SDMMC1_D0*%
X-10191176Y-1112124D03*
%TO.P,U201,99,PC9*%
%TO.N,/microcontroller/SDMMC1_D1*%
X-10544730Y-1465678D03*
%TO.P,U201,100,PA8*%
%TO.N,unconnected-(U201-PA8-Pad100)*%
X-10898283Y-1819231D03*
%TO.P,U201,101,PA9*%
%TO.N,unconnected-(U201-PA9-Pad101)*%
X-11251837Y-2172785D03*
%TO.P,U201,102,PA10*%
%TO.N,unconnected-(U201-PA10-Pad102)*%
X-11605390Y-2526338D03*
%TO.P,U201,103,PA11*%
%TO.N,/USB/USB_D-*%
X-11958943Y-2879891D03*
%TO.P,U201,104,PA12*%
%TO.N,/USB/USB_D+*%
X-12312497Y-3233445D03*
%TO.P,U201,105,PA13(JTMS*%
%TO.N,/microcontroller/SWD_SWDIO*%
X-12666050Y-3586998D03*
%TO.P,U201,106,VCAP*%
%TO.N,Net-(C222-Pad1)*%
X-13019604Y-3940551D03*
%TO.P,U201,107,VSS*%
%TO.N,GND*%
X-13373157Y-4294105D03*
%TO.P,U201,108,VDD*%
%TO.N,+3.3V*%
X-13726710Y-4647658D03*
D64*
%TO.P,U201,109,PA14(JTCK*%
%TO.N,/microcontroller/SWD_SWCLK*%
X-13726710Y-7352342D03*
%TO.P,U201,110,PA15(JTDI)*%
%TO.N,unconnected-(U201-PA15(JTDI)-Pad110)*%
X-13373157Y-7705895D03*
%TO.P,U201,111,PC10*%
%TO.N,/microcontroller/SDMMC1_D2*%
X-13019604Y-8059449D03*
%TO.P,U201,112,PC11*%
%TO.N,/microcontroller/SDMMC1_D3*%
X-12666050Y-8413002D03*
%TO.P,U201,113,PC12*%
%TO.N,/microcontroller/SDMMC1_CK*%
X-12312497Y-8766555D03*
%TO.P,U201,114,PD0*%
%TO.N,/SDRAM/DQ2*%
X-11958943Y-9120109D03*
%TO.P,U201,115,PD1*%
%TO.N,/SDRAM/DQ3*%
X-11605390Y-9473662D03*
%TO.P,U201,116,PD2*%
%TO.N,/microcontroller/SDMMC1_CMD*%
X-11251837Y-9827215D03*
%TO.P,U201,117,PD3*%
%TO.N,unconnected-(U201-PD3-Pad117)*%
X-10898283Y-10180769D03*
%TO.P,U201,118,PD4*%
%TO.N,/microcontroller/PWR_INT2*%
X-10544730Y-10534322D03*
%TO.P,U201,119,PD5*%
%TO.N,/microcontroller/PWR_INT1*%
X-10191176Y-10887876D03*
%TO.P,U201,120,VSS*%
%TO.N,GND*%
X-9837623Y-11241429D03*
%TO.P,U201,121,VDD*%
%TO.N,+3.3V*%
X-9484070Y-11594982D03*
%TO.P,U201,122,PD6*%
%TO.N,unconnected-(U201-PD6-Pad122)*%
X-9130516Y-11948536D03*
%TO.P,U201,123,PD7*%
%TO.N,/microcontroller/SPI1_MOSI*%
X-8776963Y-12302089D03*
%TO.P,U201,124,PG9*%
%TO.N,/microcontroller/SPI1_MISO*%
X-8423410Y-12655643D03*
%TO.P,U201,125,PG10*%
%TO.N,/microcontroller/SPI1_NSS*%
X-8069856Y-13009196D03*
%TO.P,U201,126,PG11*%
%TO.N,/microcontroller/SPI1_SCK*%
X-7716303Y-13362749D03*
%TO.P,U201,127,PG12*%
%TO.N,unconnected-(U201-PG12-Pad127)*%
X-7362749Y-13716303D03*
%TO.P,U201,128,PG13*%
%TO.N,unconnected-(U201-PG13-Pad128)*%
X-7009196Y-14069856D03*
%TO.P,U201,129,PG14*%
%TO.N,unconnected-(U201-PG14-Pad129)*%
X-6655643Y-14423410D03*
%TO.P,U201,130,VSS*%
%TO.N,GND*%
X-6302089Y-14776963D03*
%TO.P,U201,131,VDD*%
%TO.N,+3.3V*%
X-5948536Y-15130516D03*
%TO.P,U201,132,PG15*%
%TO.N,/SDRAM/NCAS*%
X-5594982Y-15484070D03*
%TO.P,U201,133,PB3(JTDO*%
%TO.N,/microcontroller/SWD_SWO*%
X-5241429Y-15837623D03*
%TO.P,U201,134,PB4(NJTRST)*%
%TO.N,/accelerometer/IIS3DWB_INT1*%
X-4887876Y-16191176D03*
%TO.P,U201,135,PB5*%
%TO.N,/accelerometer/IIS3DWB_INT2*%
X-4534322Y-16544730D03*
%TO.P,U201,136,PB6*%
%TO.N,/accelerometer/ADXL372_INT1*%
X-4180769Y-16898283D03*
%TO.P,U201,137,PB7*%
%TO.N,/accelerometer/ADXL372_INT2*%
X-3827215Y-17251837D03*
%TO.P,U201,138,BOOT0*%
%TO.N,/microcontroller/BOOT0*%
X-3473662Y-17605390D03*
%TO.P,U201,139,PB8*%
%TO.N,/accelerometer/LSM6DS3_INT1*%
X-3120109Y-17958943D03*
%TO.P,U201,140,PB9*%
%TO.N,/accelerometer/LSM6DS3_INT2*%
X-2766555Y-18312497D03*
%TO.P,U201,141,PE0*%
%TO.N,/SDRAM/LDQM*%
X-2413002Y-18666050D03*
%TO.P,U201,142,PE1*%
%TO.N,/SDRAM/UDQM*%
X-2059449Y-19019604D03*
%TO.P,U201,143,PDR_ON*%
%TO.N,+3.3V*%
X-1705895Y-19373157D03*
%TO.P,U201,144,VDD*%
X-1352342Y-19726710D03*
%TD*%
D17*
%TO.P,C215,1*%
%TO.N,+3.3V*%
X4139411Y-19060589D03*
%TO.P,C215,2*%
%TO.N,GND*%
X3460589Y-19739411D03*
%TD*%
D65*
%TO.N,GND*%
X15600000Y-40800000D03*
X5450000Y-43600000D03*
X7500000Y-43400000D03*
X8200000Y32400000D03*
X9000000Y30400000D03*
X11500000Y19000000D03*
X-8600000Y-4600000D03*
X-8900000Y-3200000D03*
X-3200000Y-3300000D03*
X-10800000Y40900000D03*
X-7300000Y40500000D03*
X-9603741Y42783936D03*
X-6600000Y43200000D03*
X-7269242Y45095771D03*
X-9800000Y45300000D03*
X15200000Y36000000D03*
X15200000Y38100000D03*
X15200000Y40000000D03*
X7000000Y45000000D03*
X9900000Y44900000D03*
X10600000Y41800000D03*
X8600000Y43000000D03*
X5800000Y41800000D03*
X5800000Y40000000D03*
X5200000Y37900000D03*
X5700000Y36100000D03*
D66*
X104242Y24295758D03*
D65*
X3200000Y37700000D03*
X13600000Y-31800000D03*
D66*
X1000000Y33799500D03*
X-1500000Y15200000D03*
D65*
X12000000Y-19000000D03*
D66*
X15200000Y-2700000D03*
X-12500000Y-12000000D03*
X10800000Y1900000D03*
X-2000000Y39400000D03*
D65*
X12900000Y-11707759D03*
X1000000Y-35600000D03*
D66*
X15400000Y31500000D03*
D65*
X9800000Y-23200000D03*
D66*
X7400000Y5700000D03*
D65*
X8526324Y-27801656D03*
D66*
X-3000000Y-22500000D03*
D65*
X-7900000Y-43000000D03*
D66*
X-8100000Y-1600000D03*
X3900000Y29000000D03*
D65*
X2950000Y-43100000D03*
D66*
X5500000Y33300000D03*
X-14873911Y-18323911D03*
D65*
X9700000Y-27800000D03*
D66*
X-8199500Y-21800000D03*
X-10300000Y27900000D03*
D65*
X9700000Y-28900000D03*
X1000000Y-34800000D03*
D66*
X12900000Y11100000D03*
X7200000Y-16600000D03*
X-12300000Y27900000D03*
D65*
X4400000Y-22400000D03*
X12851653Y-37531456D03*
D66*
X-8713437Y-14313437D03*
X-14925500Y-1500000D03*
D65*
X-10200000Y14600000D03*
X-6650000Y6450000D03*
X10500000Y-13500000D03*
X0Y34800000D03*
D66*
X-11300000Y27900000D03*
D65*
X-9200000Y-41700000D03*
D66*
X12200000Y33100000D03*
D65*
X2500000Y10800000D03*
D66*
X15600000Y22000000D03*
D65*
X11300000Y-37900000D03*
X-14800000Y-40700000D03*
X11000000Y-19000000D03*
D66*
X-14600000Y15050000D03*
X-14100000Y-31300000D03*
D65*
X10800000Y-27800000D03*
D66*
X15300000Y26500000D03*
D65*
X3700500Y-39000000D03*
D66*
X-2136956Y29710866D03*
D65*
X11500000Y-34100000D03*
D66*
%TO.N,/microcontroller/SWD_NRST*%
X11400000Y-12100000D03*
X-14700000Y-16400000D03*
D65*
%TO.N,+5V*%
X6400000Y-31100000D03*
D66*
%TO.N,+3.3V*%
X13400000Y-20700000D03*
D65*
X-11600000Y-39800000D03*
D66*
X-11724500Y-12792825D03*
X-13600000Y-24300000D03*
X13350000Y-1750000D03*
D65*
X4125000Y-31100000D03*
X-12900000Y-31200000D03*
X-14700000Y-14800000D03*
D66*
X-14592758Y-6200500D03*
X12250000Y200000D03*
D65*
X-9900000Y8800000D03*
D66*
%TO.N,/microcontroller/SD_DET*%
X-4700000Y7850000D03*
X-4699500Y9600000D03*
D65*
%TO.N,/USB/USB_5V*%
X2200000Y36000000D03*
X2200000Y37200000D03*
X12850000Y-32650000D03*
D66*
%TO.N,/microcontroller/PWR_INT2*%
X-4900000Y-9400000D03*
%TO.N,/microcontroller/PWR_INT1*%
X-3000000Y-9700000D03*
D65*
%TO.N,Net-(J501-CLK)*%
X-12200000Y18800000D03*
D66*
X-14550000Y-8650000D03*
%TO.N,Net-(U401-CLK)*%
X-8900000Y4200000D03*
X11500000Y21600000D03*
D65*
%TO.N,/microcontroller/SDMMC1_CMD*%
X-13500000Y-11300000D03*
D66*
X-10600000Y19700000D03*
%TO.N,/microcontroller/SDMMC1_D3*%
X-10900000Y-4700000D03*
X-7500000Y19700000D03*
%TO.N,/microcontroller/SDMMC1_D2*%
X-9100000Y20500000D03*
X-12200000Y-6400000D03*
%TO.N,/SDRAM/DQ0*%
X500000Y32100000D03*
X-6800000Y8800000D03*
%TO.N,/SDRAM/DQ1*%
X4000000Y30500000D03*
X-8300000Y7700000D03*
%TO.N,/SDRAM/DQ2*%
X-5600000Y1500000D03*
X5300000Y29600000D03*
%TO.N,/SDRAM/DQ3*%
X700000Y28100000D03*
X-4800000Y200000D03*
%TO.N,/SDRAM/DQ4*%
X4200000Y27900000D03*
X10200000Y20600000D03*
%TO.N,/SDRAM/DQ5*%
X5400000Y26300000D03*
X9050500Y18700000D03*
%TO.N,/SDRAM/DQ6*%
X8451000Y16400000D03*
X4100000Y24800000D03*
%TO.N,/SDRAM/DQ7*%
X7800000Y12600000D03*
X3800000Y23300000D03*
%TO.N,/SDRAM/LDQM*%
X-1700000Y-3300000D03*
X3900000Y17000000D03*
%TO.N,/SDRAM/NWE*%
X600000Y21500000D03*
X3800000Y-5600000D03*
%TO.N,/SDRAM/NCAS*%
X-2400000Y-14900000D03*
X800000Y19900000D03*
%TO.N,/SDRAM/NRAS*%
X-400000Y22700000D03*
X13000000Y7500000D03*
%TO.N,/SDRAM/NCS*%
X-700000Y25400000D03*
X13000000Y9200000D03*
%TO.N,/SDRAM/BS0*%
X300000Y17700000D03*
X-6200000Y-700000D03*
%TO.N,/SDRAM/BS1*%
X700000Y16100000D03*
X-7300000Y-2200000D03*
%TO.N,/SDRAM/A10*%
X4800000Y2200000D03*
X3800000Y10900000D03*
%TO.N,/SDRAM/A0*%
X-2400000Y1700000D03*
X-2400000Y9700000D03*
%TO.N,/SDRAM/A1*%
X-1500000Y11800000D03*
X-1600000Y-400000D03*
%TO.N,/SDRAM/A2*%
X-700000Y10200000D03*
X-700000Y1700000D03*
%TO.N,/SDRAM/A3*%
X0Y12500000D03*
X-100000Y-500000D03*
%TO.N,/SDRAM/A4*%
X15150000Y3950000D03*
X9150000Y-2050000D03*
%TO.N,/SDRAM/A5*%
X8800000Y-3600000D03*
X14750000Y2350000D03*
%TO.N,/SDRAM/CKE*%
X15800000Y19300000D03*
X11600000Y-7200000D03*
%TO.N,/SDRAM/UDQM*%
X15000000Y20900000D03*
X-900000Y-13100000D03*
%TO.N,/SDRAM/DQ13*%
X12600000Y29700000D03*
X7900000Y-900000D03*
%TO.N,/SDRAM/DQ14*%
X6900000Y-2300000D03*
X12200000Y31200000D03*
%TO.N,/SDRAM/DQ15*%
X5100000Y-2500000D03*
X11000000Y32100000D03*
%TO.N,/accelerometer/ADXL372_CLK*%
X-8699500Y-26300000D03*
X2500000Y4400000D03*
%TO.N,/accelerometer/ADXL372_MOSI*%
X3300500Y1400000D03*
X-10100000Y-25700000D03*
%TO.N,/accelerometer/ADXL372_MISO*%
X-10700000Y-24300000D03*
X2400000Y2900000D03*
%TO.N,/accelerometer/ADXL372_CS*%
X1399500Y5600000D03*
X-12100000Y-23600000D03*
%TO.N,/accelerometer/LSM6DS3_MISO*%
X6400000Y-10800000D03*
X-4500000Y-31100000D03*
%TO.N,/accelerometer/LSM6DS3_INT1*%
X-11400000Y-35000000D03*
X-8973245Y-27767791D03*
%TO.N,/accelerometer/LSM6DS3_INT2*%
X-8100000Y-35900000D03*
X-9500000Y-29500000D03*
%TO.N,/accelerometer/LSM6DS3_CS*%
X4900000Y-12300000D03*
X-3124500Y-27900000D03*
%TO.N,/accelerometer/LSM6DS3_CLK*%
X6400000Y-12400000D03*
X-3900000Y-29400000D03*
%TO.N,/accelerometer/LSM6DS3_MOSI*%
X8100000Y-10900000D03*
X-4500000Y-32600000D03*
%TO.N,/accelerometer/IIS3DWB_MISO*%
X-4000000Y-22900000D03*
X10225000Y-4350000D03*
%TO.N,/accelerometer/IIS3DWB_INT2*%
X-14450000Y-32450000D03*
X-12212000Y-38100000D03*
%TO.N,/accelerometer/IIS3DWB_CS*%
X11550000Y-5250000D03*
X-3350000Y-26375000D03*
%TO.N,/accelerometer/IIS3DWB_CLK*%
X-3400000Y-24400000D03*
X8575000Y-6375000D03*
%TO.N,/accelerometer/IIS3DWB_MOSI*%
X7425000Y-5100000D03*
X-4800000Y-25500000D03*
%TO.N,Net-(J801-Pin_3)*%
X-4700000Y-43500000D03*
X-700000Y-41850000D03*
%TO.N,/microcontroller/SPI1_SCK*%
X-4650000Y-13750000D03*
%TO.N,/microcontroller/SPI1_NSS*%
X-4050000Y-12250000D03*
%TO.N,/microcontroller/SPI1_MOSI*%
X-6750000Y-10300000D03*
%TO.N,/microcontroller/SPI1_MISO*%
X-4950000Y-10950000D03*
D65*
%TO.N,Net-(J102-Pin_2)*%
X11084668Y-31500500D03*
%TD*%
D67*
%TO.N,GND*%
X-1300000Y40950000D02*
X-1300000Y40100000D01*
X14734000Y31300000D02*
X14955000Y31079000D01*
D68*
X15400000Y22820000D02*
X15400000Y22200000D01*
X10825000Y-13525000D02*
X11123223Y-13823223D01*
D69*
X-8700000Y-39830000D02*
X-8680000Y-39850000D01*
D67*
X-6302089Y-14776963D02*
X-7185715Y-15660589D01*
D68*
X2950000Y-39750500D02*
X2950000Y-41600000D01*
D69*
X-13587500Y-28300000D02*
X-11900000Y-28300000D01*
D67*
X13000000Y12100000D02*
X12700000Y11800000D01*
X13850000Y22500000D02*
X15080000Y22500000D01*
D68*
X11476777Y-17876777D02*
X11476777Y-17578858D01*
X850000Y11120000D02*
X850000Y10750000D01*
D67*
X-8776963Y302089D02*
X-9814285Y1339411D01*
D69*
X-13587500Y-28800000D02*
X-13587500Y-29400000D01*
D68*
X3600000Y-37925000D02*
X3412500Y-37737500D01*
D67*
X12850000Y-36100000D02*
X12850000Y-37529803D01*
D68*
X-11039411Y-12160589D02*
X-11207175Y-11992825D01*
X2950000Y-43100000D02*
X2950000Y-41600000D01*
D67*
X2350000Y24100000D02*
X1400000Y24100000D01*
D68*
X-7950000Y-41600000D02*
X-7950000Y-42950000D01*
X9482500Y-34217500D02*
X10225000Y-34217500D01*
D67*
X-14620000Y-18280000D02*
X-14530000Y-18370000D01*
D68*
X13560589Y-11139411D02*
X13560589Y-11739411D01*
X-10477003Y14877003D02*
X-10477003Y16701649D01*
D67*
X-14873911Y-18323911D02*
X-15556089Y-18323911D01*
X-13966095Y-3701167D02*
X-15301167Y-3701167D01*
X12237330Y-18339411D02*
X11476777Y-17578858D01*
D68*
X1125457Y9421473D02*
X1651992Y9948008D01*
X442651Y9421473D02*
X1125457Y9421473D01*
D67*
X2350000Y24100000D02*
X1170000Y24100000D01*
D68*
X-9880000Y12900000D02*
X-9880000Y11895000D01*
X-9880000Y11895000D02*
X-10175000Y11600000D01*
X-1500000Y15200000D02*
X-1477000Y15223000D01*
D67*
X-15600000Y-18280000D02*
X-14620000Y-18280000D01*
X-14100000Y-30520000D02*
X-13880000Y-30300000D01*
D68*
X3180000Y37720000D02*
X3200000Y37700000D01*
X3600000Y-38899500D02*
X3600000Y-37925000D01*
D67*
X7510589Y-15278356D02*
X6655643Y-14423410D01*
X2350000Y28900000D02*
X3800000Y28900000D01*
D68*
X15400000Y30580000D02*
X15400000Y31500000D01*
D67*
X10003822Y1125000D02*
X10239411Y1360589D01*
D68*
X10260589Y1360589D02*
X10800000Y1900000D01*
X-9880000Y14280000D02*
X-9880000Y12900000D01*
X-14600000Y15050000D02*
X-14776999Y15226999D01*
D67*
X-15301167Y-3701167D02*
X-15348008Y-3748008D01*
D68*
X12000000Y-19000000D02*
X12000000Y-18400000D01*
D67*
X1570000Y28900000D02*
X850000Y29620000D01*
X-8713437Y-14313437D02*
X-8200000Y-14826874D01*
X850000Y24650000D02*
X850000Y24820000D01*
D68*
X3851992Y-21051992D02*
X4400000Y-21600000D01*
X-8199500Y-21800000D02*
X-7560124Y-22439376D01*
X850000Y10750000D02*
X1651992Y9948008D01*
X13560589Y-10981767D02*
X12939411Y-10360589D01*
D67*
X5241429Y3837623D02*
X6203806Y4800000D01*
D68*
X5475000Y33325000D02*
X5500000Y33300000D01*
D67*
X-13587500Y-30007500D02*
X-13880000Y-30300000D01*
D69*
X-14362500Y-38762500D02*
X-14362500Y-39850000D01*
D68*
X7510589Y-15639411D02*
X7510589Y-16289411D01*
D67*
X-9837623Y-11241429D02*
X-10756783Y-12160589D01*
X7510589Y-15639411D02*
X7510589Y-15278356D01*
D69*
X-11900000Y-28300000D02*
X-11800000Y-28400000D01*
D67*
X12400000Y32900000D02*
X12200000Y33100000D01*
X-8100000Y-374874D02*
X-8100000Y-1600000D01*
D68*
X-12492825Y-11992825D02*
X-12500000Y-12000000D01*
D67*
X-4887876Y4191176D02*
X-5960589Y5263889D01*
X14327851Y-3339411D02*
X14539411Y-3339411D01*
D69*
X-14362500Y-39850000D02*
X-14782500Y-39850000D01*
D68*
X7510589Y-16289411D02*
X7200000Y-16600000D01*
X3180000Y38800000D02*
X3180000Y37720000D01*
D69*
X-11800000Y-29075000D02*
X-11800000Y-30180000D01*
D67*
X-8200000Y-14826874D02*
X-8200000Y-15000000D01*
D68*
X1651992Y9948008D02*
X1651992Y9951992D01*
X-10200000Y14600000D02*
X-9880000Y14280000D01*
D67*
X-8776963Y302089D02*
X-8100000Y-374874D01*
D68*
X-11207175Y-11992825D02*
X-12492825Y-11992825D01*
D69*
X-9200000Y-38762500D02*
X-9200000Y-39850000D01*
D68*
X-15348008Y-1922508D02*
X-14925500Y-1500000D01*
D67*
X12860589Y-18339411D02*
X12237330Y-18339411D01*
D68*
X108484Y24300000D02*
X104242Y24295758D01*
D69*
X-9200000Y-39850000D02*
X-9620000Y-39850000D01*
D67*
X13850000Y12100000D02*
X13000000Y12100000D01*
D68*
X-8680000Y-39850000D02*
X-9620000Y-39850000D01*
X12000000Y-18400000D02*
X11476777Y-17876777D01*
D67*
X1170000Y24100000D02*
X850000Y23780000D01*
D68*
X-15348008Y-3748008D02*
X-15348008Y-1922508D01*
D67*
X12850000Y-37529803D02*
X12851653Y-37531456D01*
D68*
X12931652Y-11739411D02*
X12900000Y-11707759D01*
D69*
X-8700000Y-38762500D02*
X-8700000Y-39830000D01*
D67*
X15400000Y30620000D02*
X15400000Y30580000D01*
D68*
X1820000Y34400000D02*
X1600500Y34400000D01*
D67*
X-15556089Y-18323911D02*
X-15600000Y-18280000D01*
D68*
X14560589Y-3339411D02*
X15200000Y-2700000D01*
D67*
X13850000Y32900000D02*
X12400000Y32900000D01*
D68*
X-6650000Y6428822D02*
X-5960589Y5739411D01*
X-13842500Y-39850000D02*
X-14782500Y-39850000D01*
X3460589Y-20656605D02*
X3460589Y-19739411D01*
X10239411Y1360589D02*
X10260589Y1360589D01*
X11476777Y-17801329D02*
X11476777Y-17578858D01*
X-15339411Y-5600000D02*
X-15469792Y-5469619D01*
D69*
X-11800000Y-28400000D02*
X-11800000Y-29075000D01*
D67*
X-14530000Y-18370000D02*
X-13725000Y-18370000D01*
D68*
X850000Y24300000D02*
X108484Y24300000D01*
X3700500Y-39000000D02*
X2950000Y-39750500D01*
X-9620000Y-39850000D02*
X-9620000Y-41280000D01*
X1651992Y9951992D02*
X2500000Y10800000D01*
X15400000Y22200000D02*
X15600000Y22000000D01*
X-3117784Y29710866D02*
X-3326999Y29501651D01*
X11000000Y-19000000D02*
X11000000Y-18278106D01*
X850000Y24820000D02*
X850000Y24300000D01*
X10500000Y-13500000D02*
X10525000Y-13525000D01*
X13560589Y-11739411D02*
X12931652Y-11739411D01*
X-15469792Y-3869792D02*
X-15348008Y-3748008D01*
D67*
X12700000Y11300000D02*
X12900000Y11100000D01*
D68*
X3700500Y-39000000D02*
X3600000Y-38899500D01*
X10225000Y-34217500D02*
X10342500Y-34100000D01*
D67*
X-1300000Y40100000D02*
X-2000000Y39400000D01*
D68*
X-2739411Y-21739411D02*
X-2739411Y-22239411D01*
D67*
X-9814285Y1339411D02*
X-9860589Y1339411D01*
X-8200000Y-15000000D02*
X-7539411Y-15660589D01*
X10139411Y-18139411D02*
X10916224Y-18139411D01*
D68*
X-7950000Y-42950000D02*
X-7900000Y-43000000D01*
X5475000Y34600000D02*
X5475000Y33325000D01*
D67*
X-10756783Y-12160589D02*
X-11039411Y-12160589D01*
X9599874Y1125000D02*
X10003822Y1125000D01*
D68*
X14539411Y-3339411D02*
X14560589Y-3339411D01*
D67*
X8776963Y302089D02*
X9599874Y1125000D01*
X14955000Y31079000D02*
X14955000Y31065000D01*
D68*
X-14776999Y15226999D02*
X-14776999Y17201650D01*
D69*
X-13862500Y-38762500D02*
X-13862500Y-39830000D01*
D68*
X-1477000Y15223000D02*
X-1477000Y17201651D01*
D67*
X13373157Y-4294105D02*
X14327851Y-3339411D01*
X12700000Y11800000D02*
X12700000Y11300000D01*
D68*
X4400000Y-21600000D02*
X4400000Y-22400000D01*
D67*
X10916224Y-18139411D02*
X11476777Y-17578858D01*
D68*
X3851992Y-21048008D02*
X3460589Y-20656605D01*
X1600500Y34400000D02*
X1000000Y33799500D01*
D67*
X13850000Y26500000D02*
X15300000Y26500000D01*
X-13373157Y-4294105D02*
X-13966095Y-3701167D01*
D68*
X-7950000Y-41050000D02*
X-8680000Y-40320000D01*
X-2739411Y-21739411D02*
X-2800000Y-21739411D01*
X8800000Y-23200000D02*
X9800000Y-23200000D01*
X8587500Y-35112500D02*
X9482500Y-34217500D01*
X12000000Y-19000000D02*
X11000000Y-19000000D01*
X10342500Y-34100000D02*
X11500000Y-34100000D01*
D67*
X13500000Y-29180000D02*
X13780000Y-28900000D01*
X-14100000Y-31300000D02*
X-14100000Y-30520000D01*
D68*
X8800000Y-23200000D02*
X8800000Y-22310000D01*
D67*
X-7185715Y-15660589D02*
X-7539411Y-15660589D01*
X6839411Y5160589D02*
X6860589Y5160589D01*
D68*
X0Y36212500D02*
X0Y34800000D01*
X-10200000Y14600000D02*
X-10477003Y14877003D01*
D67*
X12939411Y-10100577D02*
X12939411Y-10360589D01*
X6203806Y4800000D02*
X6478822Y4800000D01*
D68*
X11123223Y-13823223D02*
X11123223Y-14821142D01*
D67*
X14955000Y31065000D02*
X15400000Y30620000D01*
D68*
X-2136956Y29710866D02*
X-3117784Y29710866D01*
X8800000Y-23890000D02*
X8800000Y-23200000D01*
X6860589Y5160589D02*
X7400000Y5700000D01*
X10225000Y-37762500D02*
X10087500Y-37900000D01*
X10225000Y-36647500D02*
X10225000Y-37762500D01*
X850000Y24300000D02*
X850000Y23780000D01*
X10087500Y-37900000D02*
X11300000Y-37900000D01*
D67*
X13500000Y-30375000D02*
X13500000Y-29180000D01*
D68*
X10525000Y-13525000D02*
X10825000Y-13525000D01*
D67*
X-5960589Y5263889D02*
X-5960589Y5739411D01*
X6478822Y4800000D02*
X6839411Y5160589D01*
D68*
X-8680000Y-40320000D02*
X-8680000Y-39850000D01*
D69*
X-11800000Y-30180000D02*
X-11680000Y-30300000D01*
D68*
X-14782500Y-39850000D02*
X-14782500Y-40582500D01*
X160589Y9139411D02*
X442651Y9421473D01*
X-2739411Y-22239411D02*
X-3000000Y-22500000D01*
X8525000Y-35112500D02*
X8587500Y-35112500D01*
X-15469792Y-5469619D02*
X-15469792Y-3869792D01*
X-6650000Y6450000D02*
X-6650000Y6428822D01*
X12992241Y-11707759D02*
X13560589Y-11139411D01*
D67*
X2350000Y28900000D02*
X1570000Y28900000D01*
D68*
X13560589Y-11139411D02*
X13560589Y-10981767D01*
X3851992Y-21048008D02*
X3851992Y-21051992D01*
X-7950000Y-41600000D02*
X-7950000Y-41050000D01*
X11000000Y-18278106D02*
X11476777Y-17801329D01*
X-2800000Y-21739411D02*
X-3439411Y-21100000D01*
X900000Y11120000D02*
X850000Y11120000D01*
D67*
X13500000Y-31700000D02*
X13600000Y-31800000D01*
D68*
X12900000Y-11707759D02*
X12992241Y-11707759D01*
X13560589Y-11739411D02*
X13960589Y-12139411D01*
D67*
X13850000Y31300000D02*
X14734000Y31300000D01*
X11958943Y-9120109D02*
X12939411Y-10100577D01*
X-13587500Y-29400000D02*
X-13587500Y-30007500D01*
X15080000Y22500000D02*
X15400000Y22820000D01*
X3800000Y28900000D02*
X3900000Y29000000D01*
X13500000Y-30375000D02*
X13500000Y-31700000D01*
D68*
X-9620000Y-41280000D02*
X-9200000Y-41700000D01*
X-7560124Y-22439376D02*
X-7460624Y-22439376D01*
D67*
X1400000Y24100000D02*
X850000Y24650000D01*
D69*
X-13587500Y-29400000D02*
X-13587500Y-28300000D01*
D67*
X-13862500Y-39830000D02*
X-13842500Y-39850000D01*
D70*
%TO.N,/microcontroller/SWD_NRST*%
X10696194Y-12100000D02*
X9837623Y-11241429D01*
D67*
X-14700000Y-16900000D02*
X-14500000Y-17100000D01*
X-14720000Y-17320000D02*
X-14500000Y-17100000D01*
X-14500000Y-17100000D02*
X-13725000Y-17100000D01*
D70*
X11400000Y-12100000D02*
X10696194Y-12100000D01*
D67*
X-15600000Y-17320000D02*
X-14720000Y-17320000D01*
X-14700000Y-16400000D02*
X-14700000Y-16900000D01*
D68*
%TO.N,/microcontroller/LED_STATUS*%
X6137689Y-19562311D02*
X7500000Y-20924622D01*
D69*
X3827215Y-17251837D02*
X6137689Y-19562311D01*
D68*
X7500000Y-20924622D02*
X7500000Y-22312500D01*
%TO.N,+5V*%
X6400000Y-31100000D02*
X6425000Y-31125000D01*
X4950000Y-40039950D02*
X5500000Y-39489950D01*
X6315000Y-36437500D02*
X6315000Y-33397500D01*
X4950000Y-41600000D02*
X4950000Y-40039950D01*
X6425000Y-31125000D02*
X6425000Y-33287500D01*
X6315000Y-37385000D02*
X6315000Y-36437500D01*
X6315000Y-33397500D02*
X6425000Y-33287500D01*
X5500000Y-39489950D02*
X5500000Y-38200000D01*
X5500000Y-38200000D02*
X6315000Y-37385000D01*
%TO.N,+3.3V*%
X-9900000Y8800000D02*
X-10200000Y8800000D01*
X-13725000Y-15830000D02*
X-13725000Y-15775000D01*
D67*
X5750000Y950000D02*
X6850000Y-150000D01*
X-7700000Y-16800000D02*
X-7321178Y-16800000D01*
D69*
X-11012500Y-30007500D02*
X-10720000Y-30300000D01*
D68*
X13400000Y-20700000D02*
X13400000Y-19900000D01*
D69*
X-13200000Y-38600000D02*
X-13200000Y-39532500D01*
D67*
X-2753916Y-20421178D02*
X-2760589Y-20421178D01*
D68*
X3725000Y34400000D02*
X3925000Y34600000D01*
D67*
X517262Y-17150000D02*
X2311166Y-17150000D01*
D68*
X3600000Y-35437500D02*
X3700000Y-35337500D01*
D67*
X-10360589Y-12860589D02*
X-10360589Y-12839411D01*
X8219792Y-14990970D02*
X8189411Y-14960589D01*
X-625000Y-18875000D02*
X-916369Y-18583631D01*
D68*
X-9900000Y-43900000D02*
X-10600000Y-43200000D01*
D67*
X-10669792Y2030208D02*
X-10500000Y2200000D01*
X-9781980Y600000D02*
X-10478822Y600000D01*
X-1352342Y-19726710D02*
X-625000Y-18999368D01*
D68*
X-14100000Y24200000D02*
X-14100000Y29900000D01*
X11200000Y28900000D02*
X7800000Y28900000D01*
X-14592758Y-6200500D02*
X-14350000Y-5957742D01*
D67*
X1170000Y22500000D02*
X850000Y22820000D01*
D68*
X9900000Y-19900000D02*
X8169792Y-18169792D01*
X-5900000Y21600000D02*
X-3800000Y19500000D01*
D69*
X-9600000Y-22800000D02*
X-12700000Y-22800000D01*
D68*
X-2650000Y8750000D02*
X-5500000Y8750000D01*
X3950000Y-40050000D02*
X4500000Y-39500000D01*
X-14100000Y29900000D02*
X-13100000Y30900000D01*
X7100000Y29400000D02*
X7100000Y29600000D01*
X-11562500Y-39850000D02*
X-12882500Y-39850000D01*
D69*
X-9700000Y-38928470D02*
X-10580000Y-39808470D01*
D68*
X-6950000Y-41600000D02*
X-6950000Y-43450000D01*
D67*
X-11317325Y-13200000D02*
X-10700000Y-13200000D01*
D68*
X-13700000Y18500000D02*
X-13700000Y19400000D01*
X-10500000Y7490000D02*
X-10500000Y2800000D01*
X3925000Y32325000D02*
X3925000Y31675000D01*
X-13100000Y30900000D02*
X-600000Y30900000D01*
D69*
X-8037500Y-39532500D02*
X-7720000Y-39850000D01*
D68*
X-10600000Y-43200000D02*
X-10600000Y-39870000D01*
X-2250000Y-43900000D02*
X-3000000Y-44650000D01*
D67*
X-14350000Y-5231767D02*
X-14310819Y-5231767D01*
X-6200000Y7750000D02*
X-6339950Y7750000D01*
D68*
X11700000Y750000D02*
X12250000Y200000D01*
D67*
X-8400000Y-16100000D02*
X-7700000Y-16800000D01*
X5825000Y5128300D02*
X5825000Y5503822D01*
X-10720000Y-30300000D02*
X-10720000Y-30820000D01*
D68*
X-5010000Y11880000D02*
X-5000000Y11890000D01*
D69*
X-14530761Y-41350000D02*
X-15250000Y-41350000D01*
D68*
X-11100000Y21600000D02*
X-5900000Y21600000D01*
X3435000Y-36537500D02*
X3600000Y-36372500D01*
X-14350000Y-5231767D02*
X-14660589Y-4921178D01*
D67*
X-11724500Y-12792825D02*
X-11317325Y-13200000D01*
D68*
X-5500000Y8289950D02*
X-5500000Y8750000D01*
D67*
X-5948536Y-15130516D02*
X-6860589Y-16042569D01*
X2350000Y33350000D02*
X2350000Y32900000D01*
X-9130516Y-51464D02*
X-9781980Y600000D01*
D68*
X-12882500Y-40482500D02*
X-12882500Y-39850000D01*
X3600000Y-36372500D02*
X3600000Y-35437500D01*
D67*
X3800000Y3103300D02*
X3800000Y2150000D01*
X580000Y22820000D02*
X850000Y22820000D01*
D68*
X-6950000Y-41600000D02*
X-6950000Y-40620000D01*
D67*
X-570758Y23970758D02*
X580000Y22820000D01*
X13850000Y28900000D02*
X14680000Y28900000D01*
X2350000Y26500000D02*
X4200000Y26500000D01*
D68*
X3400000Y-43900000D02*
X-2250000Y-43900000D01*
X2780000Y34400000D02*
X3725000Y34400000D01*
D67*
X-15500000Y-41350000D02*
X-15250000Y-41350000D01*
D68*
X3700000Y-35337500D02*
X3700000Y-33712500D01*
D67*
X-5000000Y11890000D02*
X-3800000Y13090000D01*
D69*
X-10580000Y-39808470D02*
X-10580000Y-39850000D01*
D68*
X7800000Y28900000D02*
X7100000Y29600000D01*
D67*
X50000Y11322965D02*
X50000Y9995405D01*
D68*
X4125000Y-26987500D02*
X4125000Y-25525000D01*
D67*
X11605390Y-9473662D02*
X12198328Y-10066600D01*
D68*
X5600000Y27900000D02*
X7100000Y29400000D01*
D69*
X-11587000Y-37115500D02*
X-12852500Y-35850000D01*
D67*
X2350000Y31300000D02*
X1570000Y31300000D01*
X3925000Y31675000D02*
X3550000Y31300000D01*
X11200000Y28900000D02*
X13850000Y28900000D01*
D68*
X-11500000Y21600000D02*
X-14100000Y24200000D01*
X-280000Y30580000D02*
X850000Y30580000D01*
X4037500Y-36537500D02*
X3435000Y-36537500D01*
D67*
X-7400000Y6689950D02*
X-7400000Y5821178D01*
X-10478822Y600000D02*
X-10539411Y660589D01*
X5825000Y5503822D02*
X6160589Y5839411D01*
D68*
X-10580000Y-39850000D02*
X-11562500Y-39850000D01*
D67*
X12198328Y-10066600D02*
X12198328Y-10977150D01*
X14275000Y-19025000D02*
X13400000Y-19900000D01*
D68*
X-15742500Y-40736508D02*
X-15743445Y-40737453D01*
X-7200000Y11890000D02*
X-5000000Y11890000D01*
D67*
X633889Y25780000D02*
X-570758Y24575353D01*
X-3800000Y13090000D02*
X-3800000Y13800000D01*
X7899929Y-14960589D02*
X7009196Y-14069856D01*
D68*
X16075000Y25875000D02*
X15400000Y25200000D01*
D67*
X2311166Y-17150000D02*
X3120109Y-17958943D01*
X-1705895Y-19373157D02*
X-691369Y-18358631D01*
X850000Y25780000D02*
X633889Y25780000D01*
X-5500000Y8289950D02*
X-5500000Y8244975D01*
X5000000Y950000D02*
X5750000Y950000D01*
D68*
X-7400000Y-43900000D02*
X-9900000Y-43900000D01*
D67*
X2780000Y34400000D02*
X2780000Y33780000D01*
X-12920000Y-30300000D02*
X-12920000Y-31180000D01*
X-9484070Y-11594982D02*
X-10360589Y-12471501D01*
D68*
X-5994975Y7750000D02*
X-5500000Y8244975D01*
D67*
X-10700000Y-13200000D02*
X-10360589Y-12860589D01*
D68*
X11700000Y2350000D02*
X11700000Y750000D01*
D69*
X-6300000Y-35210000D02*
X-6300000Y-39970000D01*
D68*
X-5010000Y11000000D02*
X-5010000Y11880000D01*
D67*
X-570758Y24575353D02*
X-570758Y23970758D01*
D68*
X11000000Y-25200000D02*
X11000000Y-24050000D01*
X-10200000Y8800000D02*
X-10490000Y8510000D01*
D67*
X-6860589Y-16042569D02*
X-6860589Y-16339411D01*
D68*
X-6950000Y-40620000D02*
X-7720000Y-39850000D01*
D69*
X-13200000Y-39532500D02*
X-12882500Y-39850000D01*
D67*
X12610050Y-12407759D02*
X12907759Y-12407759D01*
X12900000Y-13500000D02*
X14275000Y-14875000D01*
X-5241429Y3837623D02*
X-6464395Y5060589D01*
D69*
X-11562500Y-39850000D02*
X-11587000Y-39825500D01*
D67*
X-6339950Y7750000D02*
X-7400000Y6689950D01*
D68*
X3950000Y-41600000D02*
X3950000Y-43350000D01*
X-3800000Y19500000D02*
X-3800000Y13800000D01*
X-5750000Y-44650000D02*
X-6950000Y-43450000D01*
D69*
X-13600000Y-23700000D02*
X-13600000Y-24300000D01*
D67*
X14680000Y28900000D02*
X15400000Y29620000D01*
D69*
X-12800000Y-30180000D02*
X-12920000Y-30300000D01*
D67*
X13019604Y-3940551D02*
X13860589Y-3099566D01*
D68*
X-7200000Y9800000D02*
X-7200000Y11890000D01*
D69*
X-10000000Y-13598960D02*
X-10000000Y-13875402D01*
D67*
X-6464395Y5060589D02*
X-6639411Y5060589D01*
D68*
X-3000000Y-44650000D02*
X-5750000Y-44650000D01*
X9560589Y2039411D02*
X10271178Y2750000D01*
D67*
X4887876Y4191176D02*
X5825000Y5128300D01*
D68*
X5600000Y-20521178D02*
X5600000Y-27400000D01*
X-9900000Y8800000D02*
X-8200000Y8800000D01*
D67*
X-11100000Y-31200000D02*
X-12900000Y-31200000D01*
D68*
X15400000Y27798008D02*
X16075000Y27123008D01*
D70*
X-9387701Y-14487701D02*
X-9387701Y-14487702D01*
D67*
X-600000Y8800000D02*
X-230208Y8430208D01*
X-8400000Y-15700000D02*
X-8400000Y-16100000D01*
D68*
X-14350000Y-5957742D02*
X-14350000Y-5231767D01*
X10271178Y2750000D02*
X11300000Y2750000D01*
D67*
X-13810000Y-24510000D02*
X-13810000Y-25400000D01*
D68*
X3700000Y-33712500D02*
X4125000Y-33287500D01*
D67*
X8423410Y655643D02*
X9200000Y1432233D01*
D68*
X4125000Y-33287500D02*
X4125000Y-26987500D01*
X3850000Y-25250000D02*
X2610000Y-25250000D01*
D69*
X-12700000Y-22800000D02*
X-13600000Y-23700000D01*
D67*
X-7321178Y-16800000D02*
X-6860589Y-16339411D01*
D68*
X4125000Y-25525000D02*
X3850000Y-25250000D01*
D67*
X13860589Y-3099566D02*
X13860589Y-2660589D01*
D69*
X-12800000Y-29075000D02*
X-12800000Y-30180000D01*
D67*
X8169792Y-17100000D02*
X8219792Y-17050000D01*
D68*
X8169792Y-18169792D02*
X8169792Y-17100000D01*
X-5500000Y8750000D02*
X-5500000Y10510000D01*
X13350000Y-2150000D02*
X13860589Y-2660589D01*
D67*
X9200000Y1678822D02*
X9560589Y2039411D01*
D68*
X11300000Y2750000D02*
X11700000Y2350000D01*
D67*
X-1800000Y8850000D02*
X-1900000Y8750000D01*
X6850000Y-150000D02*
X7617767Y-150000D01*
X-1900000Y8750000D02*
X-2650000Y8750000D01*
X-625000Y-18999368D02*
X-625000Y-18875000D01*
X2350000Y22500000D02*
X1170000Y22500000D01*
X13850000Y24100000D02*
X15080000Y24100000D01*
X-1600000Y9050000D02*
X-1800000Y8850000D01*
X4139411Y-18978245D02*
X4139411Y-19060589D01*
D68*
X4500000Y-39500000D02*
X4500000Y-37000000D01*
X3925000Y32325000D02*
X3925000Y34600000D01*
D67*
X-13000000Y-41050000D02*
X-12882500Y-40932500D01*
X-1705895Y-19373157D02*
X-2753916Y-20421178D01*
X-13700000Y18500000D02*
X-13700000Y12910000D01*
X-10669792Y790970D02*
X-10669792Y2030208D01*
D68*
X13400000Y-21650000D02*
X13400000Y-20700000D01*
D69*
X-14230761Y-41050000D02*
X-14530761Y-41350000D01*
D67*
X9200000Y1432233D02*
X9200000Y1678822D01*
D68*
X9560589Y2039411D02*
X9587233Y2039411D01*
D67*
X13257053Y-12757053D02*
X12900000Y-13114106D01*
X12907759Y-12407759D02*
X13257053Y-12757053D01*
D68*
X-5500000Y10510000D02*
X-5010000Y11000000D01*
X11000000Y-24050000D02*
X13400000Y-21650000D01*
X5025000Y31675000D02*
X7100000Y29600000D01*
X-11500000Y21600000D02*
X-11100000Y21600000D01*
D67*
X8219792Y-17050000D02*
X8219792Y-14990970D01*
D68*
X-600000Y30900000D02*
X-280000Y30580000D01*
X-10490000Y7500000D02*
X-10500000Y7490000D01*
D67*
X4200000Y26500000D02*
X5600000Y27900000D01*
X-14310819Y-5231767D02*
X-13726710Y-4647658D01*
D68*
X3950000Y-43350000D02*
X3400000Y-43900000D01*
X6160589Y5839411D02*
X6160589Y5860589D01*
X11000000Y-26100000D02*
X10400000Y-26700000D01*
D69*
X-8987701Y-14887701D02*
X-8400000Y-15475402D01*
D67*
X12200000Y-11100000D02*
X12200000Y-11997709D01*
X-13800000Y-41050000D02*
X-13000000Y-41050000D01*
X3800000Y2150000D02*
X5000000Y950000D01*
D68*
X-10187500Y10100000D02*
X-10187500Y8812500D01*
D67*
X-10000000Y-13598960D02*
X-10000000Y-13200000D01*
X839411Y8460589D02*
X839411Y8239641D01*
X-12882500Y-40932500D02*
X-12882500Y-40482500D01*
X8189411Y-14960589D02*
X7899929Y-14960589D01*
X-230208Y8430208D02*
X809030Y8430208D01*
X4887876Y4191176D02*
X3800000Y3103300D01*
D68*
X15400000Y25200000D02*
X15400000Y23780000D01*
D67*
X-1352342Y-19726710D02*
X-1900000Y-20274368D01*
D69*
X-8400000Y-15475402D02*
X-8400000Y-15700000D01*
D68*
X-13700000Y19400000D02*
X-11500000Y21600000D01*
D67*
X-7400000Y5821178D02*
X-6639411Y5060589D01*
D69*
X-11587000Y-39825500D02*
X-11587000Y-37115500D01*
D68*
X5600000Y-27400000D02*
X5300000Y-27700000D01*
D67*
X14275000Y-14875000D02*
X14275000Y-19025000D01*
X1570000Y26500000D02*
X850000Y25780000D01*
X809030Y8430208D02*
X839411Y8460589D01*
D69*
X-6300000Y-39970000D02*
X-6950000Y-40620000D01*
X-14862500Y-38762500D02*
X-14862500Y-38929898D01*
D68*
X-15742500Y-39850000D02*
X-15742500Y-40736508D01*
D67*
X1570000Y31300000D02*
X850000Y30580000D01*
D70*
X-9387701Y-14487702D02*
X-8400707Y-15474696D01*
D68*
X4139411Y-19060589D02*
X5600000Y-20521178D01*
D67*
X839411Y8239641D02*
X1352342Y7726710D01*
D68*
X-6200000Y7750000D02*
X-5994975Y7750000D01*
D67*
X12900000Y-13114106D02*
X12900000Y-13500000D01*
D68*
X-13725000Y-15775000D02*
X-14700000Y-14800000D01*
X-6950000Y-43450000D02*
X-7400000Y-43900000D01*
X15400000Y29620000D02*
X15400000Y27798008D01*
D67*
X-600000Y9050000D02*
X-600000Y8800000D01*
X12200000Y-11997709D02*
X12610050Y-12407759D01*
X3120109Y-17958943D02*
X4139411Y-18978245D01*
D68*
X11000000Y-25200000D02*
X11000000Y-26100000D01*
D67*
X-10720000Y-30820000D02*
X-11100000Y-31200000D01*
X2780000Y33780000D02*
X2350000Y33350000D01*
X-1900000Y-20274368D02*
X-1900000Y-20900000D01*
D68*
X3925000Y31675000D02*
X5025000Y31675000D01*
D67*
X-10360589Y-12471501D02*
X-10360589Y-12839411D01*
D68*
X16075000Y27123008D02*
X16075000Y25875000D01*
D67*
X2350000Y12100000D02*
X2330000Y12080000D01*
X807035Y12080000D02*
X50000Y11322965D01*
D68*
X3950000Y-41600000D02*
X3950000Y-40050000D01*
D69*
X-8661629Y-23640381D02*
X-8759619Y-23640381D01*
D68*
X-12920000Y-31180000D02*
X-12900000Y-31200000D01*
D67*
X-13700000Y12910000D02*
X-13710000Y12900000D01*
X12198328Y-10977150D02*
X12260589Y-11039411D01*
X-13600000Y-24300000D02*
X-13810000Y-24510000D01*
X7617767Y-150000D02*
X8423410Y655643D01*
D68*
X13400000Y-19900000D02*
X9900000Y-19900000D01*
D67*
X-10500000Y2200000D02*
X-10500000Y2800000D01*
X50000Y9995405D02*
X-600000Y9345405D01*
D68*
X4500000Y-37000000D02*
X4037500Y-36537500D01*
D67*
X3550000Y31300000D02*
X2350000Y31300000D01*
D69*
X-8037500Y-38600000D02*
X-8037500Y-39532500D01*
D67*
X-600000Y9050000D02*
X-1600000Y9050000D01*
X2350000Y26500000D02*
X1570000Y26500000D01*
X-1900000Y-20900000D02*
X-2060589Y-21060589D01*
X-600000Y9345405D02*
X-600000Y9050000D01*
X15080000Y24100000D02*
X15400000Y23780000D01*
D69*
X-13800000Y-41050000D02*
X-14230761Y-41050000D01*
D67*
X-15743445Y-41106555D02*
X-15743445Y-40737453D01*
D69*
X-11012500Y-28800000D02*
X-11012500Y-30007500D01*
X-14862500Y-38929898D02*
X-15742500Y-39809898D01*
X-8759619Y-23640381D02*
X-9600000Y-22800000D01*
X-10000000Y-13875402D02*
X-9387701Y-14487701D01*
D68*
X-10490000Y8510000D02*
X-10490000Y7500000D01*
X13350000Y-1750000D02*
X13350000Y-2150000D01*
D67*
X-10000000Y-13200000D02*
X-10360589Y-12839411D01*
X12260589Y-11039411D02*
X12200000Y-11100000D01*
D68*
X-10600000Y-39870000D02*
X-10580000Y-39850000D01*
D69*
X-9700000Y-38762500D02*
X-9700000Y-38928470D01*
D67*
X-15500000Y-41350000D02*
X-15743445Y-41106555D01*
X2330000Y12080000D02*
X807035Y12080000D01*
X-691369Y-18358631D02*
X517262Y-17150000D01*
D68*
X10400000Y-26700000D02*
X4412500Y-26700000D01*
X-8200000Y8800000D02*
X-7200000Y9800000D01*
D70*
%TO.N,/microcontroller/SD_DET*%
X-2700000Y14400000D02*
X-2700000Y13300000D01*
X-2700000Y13300000D02*
X-3990000Y12010000D01*
X-5800000Y27700000D02*
X-3800000Y27700000D01*
X-2700000Y15200000D02*
X-2700000Y14400000D01*
X-3990000Y12010000D02*
X-3990000Y11000000D01*
X-4700000Y6124622D02*
X-3827215Y5251837D01*
X-3000000Y26900000D02*
X-3000000Y15500000D01*
X-4000000Y10990000D02*
X-4000000Y10250000D01*
X-6377001Y29401649D02*
X-6377001Y28277001D01*
X-3800000Y27700000D02*
X-3000000Y26900000D01*
X-4000000Y10250000D02*
X-4650000Y9600000D01*
X-3000000Y15500000D02*
X-2700000Y15200000D01*
X-3990000Y11000000D02*
X-4000000Y10990000D01*
X-4650000Y9600000D02*
X-4699500Y9600000D01*
X-6377001Y28277001D02*
X-5800000Y27700000D01*
X-4700000Y7850000D02*
X-4700000Y6124622D01*
D68*
%TO.N,/USB/USB_5V*%
X1703678Y37200000D02*
X1551839Y37351839D01*
X2200000Y37200000D02*
X1703678Y37200000D01*
D71*
X1300000Y40100000D02*
X1300000Y40950000D01*
D68*
X0Y37700000D02*
X0Y38487500D01*
X1551839Y37351839D02*
X348161Y37351839D01*
X348161Y37351839D02*
X0Y37700000D01*
D67*
X12850000Y-28930000D02*
X12820000Y-28900000D01*
D68*
X1500000Y39900000D02*
X2200000Y39200000D01*
D67*
X12850000Y-30375000D02*
X12850000Y-28930000D01*
D68*
X2200000Y39200000D02*
X2200000Y38000000D01*
D67*
X12850000Y-32650000D02*
X12850000Y-30375000D01*
D68*
X2200000Y36000000D02*
X2200000Y38000000D01*
D71*
X1500000Y39900000D02*
X1300000Y40100000D01*
D70*
%TO.N,/microcontroller/PWR_INT2*%
X-7210408Y-7200000D02*
X-10544730Y-10534322D01*
X-4000000Y-8400000D02*
X-5200000Y-7200000D01*
X-4000000Y-9100000D02*
X-4000000Y-8400000D01*
X-4300000Y-9400000D02*
X-4000000Y-9100000D01*
X-5200000Y-7200000D02*
X-7210408Y-7200000D01*
X-4900000Y-9400000D02*
X-4300000Y-9400000D01*
D69*
%TO.N,/microcontroller/BUTTON*%
X6000000Y-17800000D02*
X8800000Y-20600000D01*
X9800000Y-21000000D02*
X9510000Y-21290000D01*
X8800000Y-20600000D02*
X8800000Y-21290000D01*
X4180769Y-16898283D02*
X5082486Y-17800000D01*
X5082486Y-17800000D02*
X6000000Y-17800000D01*
X11000000Y-21000000D02*
X9800000Y-21000000D01*
X9510000Y-21290000D02*
X8800000Y-21290000D01*
D70*
%TO.N,/microcontroller/SWD_SWCLK*%
X-14300000Y-12700000D02*
X-12700000Y-12700000D01*
X-15300000Y-11700000D02*
X-14300000Y-12700000D01*
X-13726710Y-7352342D02*
X-13752342Y-7352342D01*
X-14900000Y-7900000D02*
X-15300000Y-8300000D01*
X-9000000Y-16520000D02*
X-9580000Y-17100000D01*
X-10052513Y-14400000D02*
X-9000000Y-15452513D01*
X-12700000Y-12700000D02*
X-11000000Y-14400000D01*
X-9000000Y-15452513D02*
X-9000000Y-16520000D01*
X-13752342Y-7352342D02*
X-14300000Y-7900000D01*
X-11000000Y-14400000D02*
X-10052513Y-14400000D01*
X-14300000Y-7900000D02*
X-14900000Y-7900000D01*
X-15300000Y-8300000D02*
X-15300000Y-11700000D01*
%TO.N,/microcontroller/SWD_SWDIO*%
X-15000000Y-6900000D02*
X-16100000Y-8000000D01*
X-12744961Y-13500000D02*
X-11344961Y-14900000D01*
X-12000000Y-4750000D02*
X-14150000Y-6900000D01*
X-11344961Y-14900000D02*
X-10150000Y-14900000D01*
X-9580000Y-15470000D02*
X-9580000Y-15800000D01*
X-16100000Y-12500000D02*
X-15100000Y-13500000D01*
X-15100000Y-13500000D02*
X-12744961Y-13500000D01*
X-16100000Y-8000000D02*
X-16100000Y-12500000D01*
X-14150000Y-6900000D02*
X-15000000Y-6900000D01*
X-12666050Y-3586998D02*
X-12000000Y-4253048D01*
X-10150000Y-14900000D02*
X-9580000Y-15470000D01*
X-12000000Y-4253048D02*
X-12000000Y-4750000D01*
%TO.N,/microcontroller/SWD_SWO*%
X-7803806Y-18400000D02*
X-9580000Y-18400000D01*
X-5241429Y-15837623D02*
X-7803806Y-18400000D01*
D68*
%TO.N,Net-(D201-K)*%
X7500000Y-23887500D02*
X7500000Y-24700000D01*
X7710000Y-24910000D02*
X8800000Y-24910000D01*
X7500000Y-24700000D02*
X7710000Y-24910000D01*
D70*
%TO.N,Net-(J201-SWDIO)*%
X-10630000Y-15830000D02*
X-10600000Y-15800000D01*
X-12455000Y-15830000D02*
X-10630000Y-15830000D01*
%TO.N,Net-(J201-SWCLK)*%
X-10600000Y-17100000D02*
X-12455000Y-17100000D01*
%TO.N,Net-(J201-SWO)*%
X-10630000Y-18370000D02*
X-10600000Y-18400000D01*
X-12455000Y-18370000D02*
X-10630000Y-18370000D01*
D67*
%TO.N,Net-(C206-Pad1)*%
X13539411Y-17237330D02*
X12678858Y-16376777D01*
X13260624Y-15795011D02*
X12678858Y-16376777D01*
X13260624Y-15060624D02*
X13260624Y-15795011D01*
X13539411Y-17660589D02*
X13539411Y-17237330D01*
D68*
%TO.N,Net-(R102-Pad2)*%
X8215000Y-36437500D02*
X7335000Y-36437500D01*
D70*
%TO.N,/microcontroller/HSE_IN*%
X9875000Y-12693020D02*
X9875000Y-14325000D01*
D67*
X9460589Y-17460589D02*
X9400000Y-17400000D01*
X9400000Y-17400000D02*
X9400000Y-16544365D01*
D70*
X9130516Y-11948536D02*
X9875000Y-12693020D01*
X9200000Y-15302081D02*
X9921142Y-16023223D01*
X9875000Y-14325000D02*
X9200000Y-15000000D01*
X9200000Y-15000000D02*
X9200000Y-15302081D01*
D67*
X9400000Y-16544365D02*
X9921142Y-16023223D01*
D68*
%TO.N,+3.3VA*%
X14639411Y-11460589D02*
X14639411Y-10860589D01*
X13942947Y-13442947D02*
X14800000Y-12585894D01*
D67*
X12312497Y-8766555D02*
X14006530Y-10460589D01*
D68*
X14639411Y-10860589D02*
X14239411Y-10460589D01*
X14800000Y-12585894D02*
X14800000Y-11621178D01*
D67*
X14006530Y-10460589D02*
X14239411Y-10460589D01*
X12666050Y-8413002D02*
X14239411Y-9986363D01*
D68*
X14800000Y-11621178D02*
X14639411Y-11460589D01*
D67*
X14239411Y-9986363D02*
X14239411Y-10460589D01*
%TO.N,Net-(C222-Pad1)*%
X-13019604Y-3940551D02*
X-14251992Y-2708163D01*
X-14251992Y-2708163D02*
X-14251992Y-2651992D01*
D68*
%TO.N,Net-(J501-VDD)*%
X-8277002Y13542998D02*
X-8920000Y12900000D01*
X-8277002Y16701649D02*
X-8277002Y13542998D01*
X-8920000Y12900000D02*
X-8920000Y11895000D01*
X-8612500Y11587500D02*
X-8625000Y11600000D01*
X-8920000Y11895000D02*
X-8625000Y11600000D01*
X-8612500Y10100000D02*
X-8612500Y11587500D01*
D70*
%TO.N,/USB/USB_CONN_D-*%
X650000Y40000000D02*
X950000Y39700000D01*
X950000Y39700000D02*
X950000Y38487500D01*
X650000Y40950000D02*
X650000Y40000000D01*
%TO.N,/USB/USB_CONN_D+*%
X0Y40000000D02*
X0Y40950000D01*
X-950000Y39450000D02*
X-700000Y39700000D01*
X-950000Y38487500D02*
X-950000Y39450000D01*
X-700000Y39700000D02*
X-300000Y39700000D01*
X-300000Y39700000D02*
X0Y40000000D01*
%TO.N,/microcontroller/PWR_INT1*%
X-6500000Y-9200000D02*
X-8503300Y-9200000D01*
X-3500000Y-10200000D02*
X-5500000Y-10200000D01*
X-3000000Y-9700000D02*
X-3500000Y-10200000D01*
X-8503300Y-9200000D02*
X-10191176Y-10887876D01*
X-5500000Y-10200000D02*
X-6500000Y-9200000D01*
%TO.N,Net-(J501-CLK)*%
X-10200000Y18800000D02*
X-9377002Y17977002D01*
X-13860624Y-9339376D02*
X-14550000Y-8650000D01*
X-9377002Y17977002D02*
X-9377002Y16701649D01*
X-12200000Y18800000D02*
X-10200000Y18800000D01*
D69*
%TO.N,/microcontroller/BOOT0*%
X-6421248Y-22921248D02*
X-7840381Y-24340381D01*
X-3477022Y-17605390D02*
X-6421248Y-20549616D01*
X-7840381Y-24340381D02*
X-7840381Y-24559619D01*
X-6421248Y-20549616D02*
X-6421248Y-22921248D01*
X-3473662Y-17605390D02*
X-3477022Y-17605390D01*
D70*
%TO.N,/microcontroller/HSE_OUT*%
X10689088Y-12800000D02*
X11000000Y-12800000D01*
X9484070Y-11594982D02*
X10689088Y-12800000D01*
X11000000Y-12800000D02*
X12539376Y-14339376D01*
%TO.N,Net-(U401-CLK)*%
X-8900000Y4200000D02*
X-8539376Y3839376D01*
X13000000Y20100000D02*
X13850000Y20100000D01*
X11500000Y21600000D02*
X13000000Y20100000D01*
X-8539376Y3839376D02*
X-8539376Y3060624D01*
%TO.N,/SDRAM/CLK*%
X-9000000Y1232233D02*
X-9000000Y2078752D01*
X-9000000Y2078752D02*
X-9260624Y2339376D01*
X-8423410Y655643D02*
X-9000000Y1232233D01*
%TO.N,/microcontroller/SDMMC1_CMD*%
X-8900000Y19700000D02*
X-7177002Y17977002D01*
X-7177002Y17977002D02*
X-7177002Y16701649D01*
X-10600000Y19700000D02*
X-8900000Y19700000D01*
X-12724622Y-11300000D02*
X-13500000Y-11300000D01*
X-7177002Y12932998D02*
X-7177002Y16701649D01*
X-7200000Y12910000D02*
X-7177002Y12932998D01*
X-11251837Y-9827215D02*
X-12724622Y-11300000D01*
%TO.N,/microcontroller/SDMMC1_CK*%
X-13122385Y-9576443D02*
X-13122385Y-10043633D01*
X-12312497Y-8766555D02*
X-13122385Y-9576443D01*
X-13122385Y-10043633D02*
X-13139376Y-10060624D01*
%TO.N,/microcontroller/SDMMC1_D3*%
X-10900000Y-4700000D02*
X-10900000Y-6646952D01*
X-10900000Y-6646952D02*
X-12666050Y-8413002D01*
X-6100000Y12910000D02*
X-6077001Y12932999D01*
X-6077001Y16701649D02*
X-6077001Y18377001D01*
X-7400000Y19700000D02*
X-7500000Y19700000D01*
X-6077001Y18377001D02*
X-7400000Y19700000D01*
X-6077001Y12932999D02*
X-6077001Y16701649D01*
%TO.N,/microcontroller/SDMMC1_D2*%
X-12200000Y-7239845D02*
X-13019604Y-8059449D01*
X-9000000Y20600000D02*
X-6600000Y20600000D01*
X-6600000Y20600000D02*
X-4977001Y18977001D01*
X-9100000Y20500000D02*
X-9000000Y20600000D01*
X-4977001Y18977001D02*
X-4977001Y16701649D01*
X-12200000Y-6400000D02*
X-12200000Y-7239845D01*
X-4977001Y12932999D02*
X-5000000Y12910000D01*
X-4977001Y16701649D02*
X-4977001Y12932999D01*
%TO.N,/microcontroller/SDMMC1_D1*%
X-13600000Y1000000D02*
X-11800000Y-800000D01*
X-12677001Y9422999D02*
X-13600000Y8500000D01*
X-13600000Y8500000D02*
X-13600000Y1000000D01*
X-11800000Y-800000D02*
X-11210408Y-800000D01*
X-12677001Y16701649D02*
X-12677001Y9422999D01*
X-11210408Y-800000D02*
X-10544730Y-1465678D01*
%TO.N,/microcontroller/SDMMC1_D0*%
X-10191176Y-1112124D02*
X-11900000Y596700D01*
X-11577000Y16701649D02*
X-11577000Y7567000D01*
X-11900000Y3500000D02*
X-11900000Y596700D01*
X-11900000Y6300000D02*
X-11900000Y3500000D01*
X-11510000Y6690000D02*
X-11900000Y6300000D01*
X-11510000Y7500000D02*
X-11510000Y6690000D01*
X-11577000Y7567000D02*
X-11510000Y7500000D01*
D69*
%TO.N,/USB/USB_D+*%
X-650000Y34918749D02*
X-650000Y34530761D01*
X-14962773Y32225000D02*
X-16025000Y31162773D01*
X-12945172Y-2565414D02*
X-16025000Y514414D01*
X-1593200Y32225000D02*
X-14962773Y32225000D01*
X-16025000Y31162773D02*
X-16025000Y30800000D01*
X-950000Y35218749D02*
X-650000Y34918749D01*
X-950000Y36212500D02*
X-950000Y35218749D01*
X-16025000Y514414D02*
X-16025000Y30800000D01*
X-650000Y34530761D02*
X-225000Y34105761D01*
X-12312497Y-3233445D02*
X-12945172Y-2600770D01*
X-225000Y34105761D02*
X-225000Y33593200D01*
X-225000Y33593200D02*
X-1593200Y32225000D01*
X-12945172Y-2600770D02*
X-12945172Y-2565414D01*
%TO.N,/USB/USB_D-*%
X-15575000Y700810D02*
X-12626974Y-2247216D01*
X650000Y34918749D02*
X650000Y34530761D01*
X650000Y34530761D02*
X225000Y34105761D01*
X-12626974Y-2247216D02*
X-12591618Y-2247216D01*
X950000Y35218749D02*
X650000Y34918749D01*
X-14775000Y31775000D02*
X-15575000Y30975000D01*
X-15575000Y30975000D02*
X-15575000Y700810D01*
X225000Y33406800D02*
X-1406800Y31775000D01*
X225000Y34105761D02*
X225000Y33406800D01*
X950000Y36212500D02*
X950000Y35218749D01*
X-1406800Y31775000D02*
X-14775000Y31775000D01*
X-12591618Y-2247216D02*
X-11958943Y-2879891D01*
D70*
%TO.N,/SDRAM/DQ0*%
X-6410912Y4300000D02*
X-5594982Y3484070D01*
X-7100000Y4300000D02*
X-6410912Y4300000D01*
X-8050000Y6850000D02*
X-8050000Y5250000D01*
X-6800000Y8100000D02*
X-8050000Y6850000D01*
X-8050000Y5250000D02*
X-7100000Y4300000D01*
X-6800000Y8800000D02*
X-6800000Y8100000D01*
X2350000Y32100000D02*
X500000Y32100000D01*
%TO.N,/SDRAM/DQ1*%
X-8700000Y7300000D02*
X-8700000Y5100000D01*
X-7400000Y3800000D02*
X-6618020Y3800000D01*
X-8300000Y7700000D02*
X-8700000Y7300000D01*
X-8700000Y5100000D02*
X-7400000Y3800000D01*
X-6618020Y3800000D02*
X-5948536Y3130516D01*
X4000000Y30500000D02*
X2350000Y30500000D01*
%TO.N,/SDRAM/DQ2*%
X-5600000Y-2761166D02*
X-11958943Y-9120109D01*
X-5600000Y1500000D02*
X-5600000Y-2761166D01*
X5300000Y29600000D02*
X5200000Y29700000D01*
X5200000Y29700000D02*
X2350000Y29700000D01*
%TO.N,/SDRAM/DQ3*%
X-11605390Y-9473662D02*
X-10731728Y-8600000D01*
X-4800000Y-3400000D02*
X-4800000Y200000D01*
X700000Y28100000D02*
X2350000Y28100000D01*
X-10731728Y-8600000D02*
X-10000000Y-8600000D01*
X-10000000Y-8600000D02*
X-4800000Y-3400000D01*
%TO.N,/SDRAM/DQ4*%
X7600000Y3600000D02*
X7125126Y3600000D01*
X9650000Y17450000D02*
X9650000Y5650000D01*
X7125126Y3600000D02*
X6302089Y2776963D01*
X10200000Y18000000D02*
X9650000Y17450000D01*
X9650000Y5650000D02*
X7600000Y3600000D01*
X10200000Y20600000D02*
X10200000Y18000000D01*
X3600000Y27300000D02*
X2350000Y27300000D01*
X4200000Y27900000D02*
X3600000Y27300000D01*
%TO.N,/SDRAM/DQ5*%
X4800000Y25700000D02*
X2350000Y25700000D01*
X9050500Y5815160D02*
X7235340Y4000000D01*
X9050500Y18700000D02*
X9050500Y5815160D01*
X7235340Y4000000D02*
X6818020Y4000000D01*
X5400000Y26300000D02*
X4800000Y25700000D01*
X6818020Y4000000D02*
X5948536Y3130516D01*
%TO.N,/SDRAM/DQ6*%
X8400000Y16349000D02*
X8400000Y5851471D01*
X4000000Y24900000D02*
X2350000Y24900000D01*
X6898529Y4350000D02*
X6460912Y4350000D01*
X8400000Y5851471D02*
X6898529Y4350000D01*
X4100000Y24800000D02*
X4000000Y24900000D01*
X8451000Y16400000D02*
X8400000Y16349000D01*
X6460912Y4350000D02*
X5594982Y3484070D01*
%TO.N,/SDRAM/DQ7*%
X5400000Y5410408D02*
X5400000Y6100000D01*
X7800000Y8500000D02*
X7800000Y12600000D01*
X5400000Y6100000D02*
X7800000Y8500000D01*
X4534322Y4544730D02*
X5400000Y5410408D01*
X3800000Y23300000D02*
X2350000Y23300000D01*
%TO.N,/SDRAM/LDQM*%
X3900000Y21200000D02*
X3400000Y21700000D01*
X-1700000Y-3300000D02*
X-1700000Y-17953048D01*
X3400000Y21700000D02*
X2350000Y21700000D01*
X-1700000Y-17953048D02*
X-2413002Y-18666050D01*
X3900000Y17000000D02*
X3900000Y21200000D01*
%TO.N,/SDRAM/NWE*%
X8100000Y-9900000D02*
X9200000Y-9900000D01*
X10187876Y-10887876D02*
X10191176Y-10887876D01*
X9200000Y-9900000D02*
X10187876Y-10887876D01*
X1200000Y20900000D02*
X2350000Y20900000D01*
X3800000Y-5600000D02*
X8100000Y-9900000D01*
X600000Y21500000D02*
X1200000Y20900000D01*
%TO.N,/SDRAM/NCAS*%
X800000Y19900000D02*
X1000000Y20100000D01*
X-4300000Y-14800000D02*
X-4910912Y-14800000D01*
X-2400000Y-14900000D02*
X-3000000Y-15500000D01*
X-3000000Y-15500000D02*
X-3600000Y-15500000D01*
X1000000Y20100000D02*
X2350000Y20100000D01*
X-4910912Y-14800000D02*
X-5594982Y-15484070D01*
X-3600000Y-15500000D02*
X-4300000Y-14800000D01*
%TO.N,/SDRAM/NRAS*%
X1400000Y19300000D02*
X2350000Y19300000D01*
X10089088Y200000D02*
X9484070Y-405018D01*
X-300000Y22600000D02*
X-300000Y19800000D01*
X13524284Y-475716D02*
X12700000Y-1300000D01*
X13000000Y7500000D02*
X13524284Y6975716D01*
X-300000Y19800000D02*
X500000Y19000000D01*
X12700000Y-1300000D02*
X12050000Y-1300000D01*
X-400000Y22700000D02*
X-300000Y22600000D01*
X12050000Y-1300000D02*
X10550000Y200000D01*
X13524284Y6975716D02*
X13524284Y-475716D01*
X1100000Y19000000D02*
X1400000Y19300000D01*
X10550000Y200000D02*
X10089088Y200000D01*
X500000Y19000000D02*
X1100000Y19000000D01*
%TO.N,/SDRAM/NCS*%
X15900000Y-2000000D02*
X15900000Y-4300000D01*
X13000000Y9200000D02*
X14033970Y8166030D01*
X-700000Y25400000D02*
X-1700000Y24400000D01*
X-1700000Y22750000D02*
X-850000Y21900000D01*
X9700000Y-9500000D02*
X10217514Y-9500000D01*
X9300000Y-8300000D02*
X9300000Y-9100000D01*
X10217514Y-9500000D02*
X10898283Y-10180769D01*
X15900000Y-4300000D02*
X13925000Y-6275000D01*
X14033970Y-133970D02*
X15900000Y-2000000D01*
X-850000Y21900000D02*
X-850000Y19550000D01*
X14033970Y8166030D02*
X14033970Y-133970D01*
X13925000Y-6275000D02*
X11325000Y-6275000D01*
X11325000Y-6275000D02*
X9300000Y-8300000D01*
X-850000Y19550000D02*
X200000Y18500000D01*
X9300000Y-9100000D02*
X9700000Y-9500000D01*
X-1700000Y24400000D02*
X-1700000Y22750000D01*
X200000Y18500000D02*
X2350000Y18500000D01*
%TO.N,/SDRAM/BS0*%
X2350000Y17700000D02*
X300000Y17700000D01*
X-7009196Y2069856D02*
X-6200000Y1260660D01*
X-6200000Y1260660D02*
X-6200000Y-700000D01*
%TO.N,/SDRAM/BS1*%
X-7300000Y-300000D02*
X-6700000Y300000D01*
X2350000Y16900000D02*
X1450000Y16900000D01*
X700000Y16150000D02*
X700000Y16100000D01*
X-6700000Y300000D02*
X-6700000Y1053554D01*
X-6700000Y1053554D02*
X-7362749Y1716303D01*
X-7300000Y-2200000D02*
X-7300000Y-300000D01*
X1450000Y16900000D02*
X700000Y16150000D01*
%TO.N,/SDRAM/A10*%
X3800000Y10900000D02*
X3800000Y15600000D01*
X3300000Y16100000D02*
X2350000Y16100000D01*
X6339340Y1400000D02*
X7009196Y2069856D01*
X3800000Y15600000D02*
X3300000Y16100000D01*
X5600000Y1400000D02*
X6339340Y1400000D01*
X4800000Y2200000D02*
X5600000Y1400000D01*
%TO.N,/SDRAM/A0*%
X-2400000Y-1600000D02*
X-900000Y-3100000D01*
X-900000Y-3100000D02*
X-900000Y-11110408D01*
X-2400000Y1700000D02*
X-2400000Y-1600000D01*
X-2400000Y9700000D02*
X-2400000Y12900000D01*
X-2400000Y12900000D02*
X0Y15300000D01*
X0Y15300000D02*
X2350000Y15300000D01*
X-900000Y-11110408D02*
X4534322Y-16544730D01*
%TO.N,/SDRAM/A1*%
X-200000Y-11103300D02*
X4887876Y-16191176D01*
X-1500000Y11800000D02*
X-1500000Y12967791D01*
X-200000Y-2800000D02*
X-200000Y-11103300D01*
X-1500000Y12967791D02*
X32209Y14500000D01*
X-1600000Y-400000D02*
X-1600000Y-1400000D01*
X-1600000Y-1400000D02*
X-200000Y-2800000D01*
X32209Y14500000D02*
X2350000Y14500000D01*
%TO.N,/SDRAM/A2*%
X-700000Y1700000D02*
X-700000Y-1200000D01*
X100000Y13700000D02*
X2350000Y13700000D01*
X-700000Y-1200000D02*
X600000Y-2500000D01*
X-700000Y10200000D02*
X-700000Y12900000D01*
X600000Y-11196194D02*
X5241429Y-15837623D01*
X-700000Y12900000D02*
X100000Y13700000D01*
X600000Y-2500000D02*
X600000Y-11196194D01*
%TO.N,/SDRAM/A3*%
X400000Y12900000D02*
X2350000Y12900000D01*
X0Y12500000D02*
X400000Y12900000D01*
X-100000Y-500000D02*
X1400000Y-2000000D01*
X1400000Y-2000000D02*
X1400000Y-11289088D01*
X1400000Y-11289088D02*
X5594982Y-15484070D01*
%TO.N,/SDRAM/A4*%
X2200000Y-4300000D02*
X2200000Y-11381980D01*
X9150000Y-2050000D02*
X7700000Y-3500000D01*
X7700000Y-3500000D02*
X3000000Y-3500000D01*
X15150000Y3950000D02*
X15100000Y4000000D01*
X2200000Y-11381980D02*
X5948536Y-15130516D01*
X15100000Y12555000D02*
X14755000Y12900000D01*
X3000000Y-3500000D02*
X2200000Y-4300000D01*
X14755000Y12900000D02*
X13850000Y12900000D01*
X15100000Y4000000D02*
X15100000Y12555000D01*
%TO.N,/SDRAM/A5*%
X2900000Y-5000000D02*
X2900000Y-11374874D01*
X8800000Y-3600000D02*
X8200000Y-4200000D01*
X3700000Y-4200000D02*
X2900000Y-5000000D01*
X14850000Y2350000D02*
X15800000Y3300000D01*
X8200000Y-4200000D02*
X3700000Y-4200000D01*
X14750000Y2350000D02*
X14850000Y2350000D01*
X2900000Y-11374874D02*
X6302089Y-14776963D01*
X15800000Y12900000D02*
X15000000Y13700000D01*
X15800000Y3300000D02*
X15800000Y12900000D01*
X15000000Y13700000D02*
X13850000Y13700000D01*
%TO.N,/SDRAM/A6*%
X9130516Y-51464D02*
X9881980Y700000D01*
X13000000Y6651471D02*
X12275000Y7376471D01*
X12275000Y7376471D02*
X12275000Y14175000D01*
X12600000Y14500000D02*
X13850000Y14500000D01*
X12504293Y-745707D02*
X13000000Y-250000D01*
X12275000Y14175000D02*
X12600000Y14500000D01*
X13000000Y-250000D02*
X13000000Y6651471D01*
X10650000Y700000D02*
X12095707Y-745707D01*
X9881980Y700000D02*
X10650000Y700000D01*
X12095707Y-745707D02*
X12504293Y-745707D01*
%TO.N,/SDRAM/A7*%
X8069856Y1009196D02*
X8700000Y1639340D01*
X12300000Y4400000D02*
X12300000Y5900000D01*
X8700000Y2000000D02*
X10100000Y3400000D01*
X11300000Y3400000D02*
X12300000Y4400000D01*
X8700000Y1639340D02*
X8700000Y2000000D01*
X10100000Y3400000D02*
X11300000Y3400000D01*
X12400000Y15300000D02*
X13850000Y15300000D01*
X11800000Y6400000D02*
X11800000Y14700000D01*
X11800000Y14700000D02*
X12400000Y15300000D01*
X12300000Y5900000D02*
X11800000Y6400000D01*
%TO.N,/SDRAM/A8*%
X11322047Y15522047D02*
X11900000Y16100000D01*
X7716303Y1362749D02*
X8350000Y1996446D01*
X9850000Y3850000D02*
X10550000Y3850000D01*
X10550000Y3850000D02*
X11322047Y4622047D01*
X11322047Y4622047D02*
X11322047Y15522047D01*
X8350000Y1996446D02*
X8350000Y2350000D01*
X8350000Y2350000D02*
X9850000Y3850000D01*
X11900000Y16100000D02*
X13850000Y16100000D01*
%TO.N,/SDRAM/A9*%
X7362749Y1716303D02*
X7880687Y2234241D01*
X10800000Y16200000D02*
X11500000Y16900000D01*
X10800000Y5432992D02*
X10800000Y16200000D01*
X7880687Y2513679D02*
X10800000Y5432992D01*
X7880687Y2234241D02*
X7880687Y2513679D01*
X11500000Y16900000D02*
X13850000Y16900000D01*
%TO.N,/SDRAM/A11*%
X10205062Y5505062D02*
X10205062Y16805062D01*
X6655643Y2423410D02*
X7432233Y3200000D01*
X10205062Y16805062D02*
X11100000Y17700000D01*
X7900000Y3200000D02*
X10205062Y5505062D01*
X7432233Y3200000D02*
X7900000Y3200000D01*
X11100000Y17700000D02*
X13850000Y17700000D01*
%TO.N,/SDRAM/CKE*%
X10350000Y-8925378D02*
X11251837Y-9827215D01*
X11600000Y-7200000D02*
X10350000Y-8450000D01*
X10350000Y-8450000D02*
X10350000Y-8925378D01*
X13850000Y19300000D02*
X15800000Y19300000D01*
%TO.N,/SDRAM/UDQM*%
X15000000Y20900000D02*
X13850000Y20900000D01*
X-900000Y-13100000D02*
X-900000Y-17860155D01*
X-900000Y-17860155D02*
X-2059449Y-19019604D01*
%TO.N,/SDRAM/DQ8*%
X5000000Y5717514D02*
X5000000Y6500000D01*
X7700000Y19400000D02*
X11600000Y23300000D01*
X7000000Y13100000D02*
X7700000Y13800000D01*
X11600000Y23300000D02*
X13850000Y23300000D01*
X7700000Y13800000D02*
X7700000Y19400000D01*
X4180769Y4898283D02*
X5000000Y5717514D01*
X5000000Y6500000D02*
X7000000Y8500000D01*
X7000000Y8500000D02*
X7000000Y13100000D01*
%TO.N,/SDRAM/DQ9*%
X3827215Y5251837D02*
X4650000Y6074622D01*
X11100000Y24900000D02*
X13850000Y24900000D01*
X6400000Y14450000D02*
X7000000Y15050000D01*
X7000000Y15050000D02*
X7000000Y20800000D01*
X7000000Y20800000D02*
X11100000Y24900000D01*
X4650000Y6074622D02*
X4650000Y6950000D01*
X6400000Y8700000D02*
X6400000Y14450000D01*
X4650000Y6950000D02*
X6400000Y8700000D01*
%TO.N,/SDRAM/DQ10*%
X4300000Y7475000D02*
X5800000Y8975000D01*
X6300000Y22100000D02*
X9900000Y25700000D01*
X4300000Y6431728D02*
X4300000Y7475000D01*
X3473662Y5605390D02*
X4300000Y6431728D01*
X5800000Y8975000D02*
X5800000Y15900000D01*
X5800000Y15900000D02*
X6300000Y16400000D01*
X6300000Y16400000D02*
X6300000Y22100000D01*
X9900000Y25700000D02*
X13850000Y25700000D01*
%TO.N,/SDRAM/DQ11*%
X5200000Y9200000D02*
X5200000Y17100000D01*
X3950000Y6788834D02*
X3950000Y7950000D01*
X9700000Y27300000D02*
X13850000Y27300000D01*
X5200000Y17100000D02*
X5500000Y17400000D01*
X5500000Y23100000D02*
X9700000Y27300000D01*
X3120109Y5958943D02*
X3950000Y6788834D01*
X5500000Y17400000D02*
X5500000Y23100000D01*
X3950000Y7950000D02*
X5200000Y9200000D01*
%TO.N,/SDRAM/DQ12*%
X3600000Y8500000D02*
X4700000Y9600000D01*
X2766555Y6312497D02*
X3600000Y7145942D01*
X3600000Y7145942D02*
X3600000Y8500000D01*
X4700000Y24200000D02*
X8600000Y28100000D01*
X4700000Y9600000D02*
X4700000Y24200000D01*
X8600000Y28100000D02*
X13850000Y28100000D01*
%TO.N,/SDRAM/DQ13*%
X3345942Y200000D02*
X-2766555Y6312497D01*
X7900000Y-900000D02*
X6500000Y-900000D01*
X5400000Y200000D02*
X3345942Y200000D01*
X12600000Y29700000D02*
X13850000Y29700000D01*
X6500000Y-900000D02*
X5400000Y200000D01*
%TO.N,/SDRAM/DQ14*%
X4800000Y-800000D02*
X3638834Y-800000D01*
X12900000Y30500000D02*
X13850000Y30500000D01*
X6300000Y-2300000D02*
X4800000Y-800000D01*
X6900000Y-2300000D02*
X6300000Y-2300000D01*
X3638834Y-800000D02*
X-3120109Y5958943D01*
X12200000Y31200000D02*
X12900000Y30500000D01*
%TO.N,/SDRAM/DQ15*%
X-2800000Y4931728D02*
X-3473662Y5605390D01*
X4493902Y-2500000D02*
X-2800000Y4793902D01*
X5100000Y-2500000D02*
X4493902Y-2500000D01*
X11000000Y32100000D02*
X13850000Y32100000D01*
X-2800000Y4793902D02*
X-2800000Y4931728D01*
%TO.N,/accelerometer/ADXL372_CLK*%
X-8699500Y-26300000D02*
X-9699500Y-27300000D01*
X2500000Y4400000D02*
X2000000Y4900000D01*
X-9699500Y-27300000D02*
X-11012500Y-27300000D01*
X2000000Y4900000D02*
X1100000Y4900000D01*
X-432738Y6100000D02*
X-1705895Y7373157D01*
X-100000Y6100000D02*
X-432738Y6100000D01*
X1100000Y4900000D02*
X-100000Y6100000D01*
%TO.N,/accelerometer/ADXL372_MOSI*%
X-11800000Y-26000000D02*
X-11800000Y-26525000D01*
X-11500000Y-25700000D02*
X-11800000Y-26000000D01*
X2853048Y1400000D02*
X3300500Y1400000D01*
X-10100000Y-25700000D02*
X-11500000Y-25700000D01*
X-2413002Y6666050D02*
X2853048Y1400000D01*
%TO.N,/accelerometer/ADXL372_MISO*%
X360155Y4600000D02*
X-2059449Y7019604D01*
X700000Y4600000D02*
X360155Y4600000D01*
X-12300000Y-25809828D02*
X-12300000Y-26525000D01*
X2400000Y2900000D02*
X700000Y4600000D01*
X-10700000Y-24300000D02*
X-10790172Y-24300000D01*
X-10790172Y-24300000D02*
X-12300000Y-25809828D01*
%TO.N,/accelerometer/ADXL372_CS*%
X-500Y7000000D02*
X-625632Y7000000D01*
X-12790000Y-24290000D02*
X-12790000Y-25300000D01*
X-12790000Y-25300000D02*
X-12800000Y-25310000D01*
X-12100000Y-23600000D02*
X-12790000Y-24290000D01*
X-625632Y7000000D02*
X-1352342Y7726710D01*
X-12800000Y-25310000D02*
X-12800000Y-26525000D01*
X1399500Y5600000D02*
X-500Y7000000D01*
%TO.N,/accelerometer/ADXL372_INT2*%
X-7625378Y-21050000D02*
X-3827215Y-17251837D01*
X-14200000Y-26800000D02*
X-14500000Y-26500000D01*
X-14500000Y-23400000D02*
X-13400000Y-22300000D01*
X-8350000Y-21050000D02*
X-7625378Y-21050000D01*
X-13400000Y-22300000D02*
X-9600000Y-22300000D01*
X-14500000Y-26500000D02*
X-14500000Y-23400000D01*
X-13587500Y-26800000D02*
X-14200000Y-26800000D01*
X-9600000Y-22300000D02*
X-8350000Y-21050000D01*
%TO.N,/accelerometer/ADXL372_INT1*%
X-10100000Y-21700000D02*
X-8950000Y-20550000D01*
X-7832486Y-20550000D02*
X-4180769Y-16898283D01*
X-15040645Y-22940645D02*
X-13800000Y-21700000D01*
X-13800000Y-21700000D02*
X-10100000Y-21700000D01*
X-8950000Y-20550000D02*
X-7832486Y-20550000D01*
X-14044975Y-27800000D02*
X-15040645Y-26804330D01*
X-15040645Y-26804330D02*
X-15040645Y-22940645D01*
X-13587500Y-27800000D02*
X-14044975Y-27800000D01*
%TO.N,/accelerometer/LSM6DS3_MISO*%
X6400000Y-10800000D02*
X6400000Y-11339340D01*
X-6500000Y-31100000D02*
X-10362500Y-34962500D01*
X6400000Y-11339340D02*
X8069856Y-13009196D01*
X-4500000Y-31100000D02*
X-6500000Y-31100000D01*
X-10362500Y-34962500D02*
X-10362500Y-37100000D01*
%TO.N,/accelerometer/LSM6DS3_INT1*%
X-11400000Y-35000000D02*
X-11062500Y-35337500D01*
X-8973245Y-27767791D02*
X-7800000Y-26594546D01*
X-11062500Y-38337500D02*
X-10800000Y-38600000D01*
X-7800000Y-25900000D02*
X-5600000Y-23700000D01*
X-11062500Y-35337500D02*
X-11062500Y-38337500D01*
X-5600000Y-23700000D02*
X-5600000Y-20438834D01*
X-5600000Y-20438834D02*
X-3120109Y-17958943D01*
X-10800000Y-38600000D02*
X-10362500Y-38600000D01*
X-7800000Y-26594546D02*
X-7800000Y-25900000D01*
%TO.N,/accelerometer/LSM6DS3_INT2*%
X-7400000Y-38100000D02*
X-8037500Y-38100000D01*
X-7000000Y-37700000D02*
X-7400000Y-38100000D01*
X-7600000Y-35900000D02*
X-7000000Y-36500000D01*
X-6800000Y-25700000D02*
X-4800000Y-23700000D01*
X-4800000Y-23700000D02*
X-4800000Y-20345942D01*
X-4800000Y-20345942D02*
X-2766555Y-18312497D01*
X-8100000Y-35900000D02*
X-7600000Y-35900000D01*
X-6800000Y-26800000D02*
X-6800000Y-25700000D01*
X-7000000Y-36500000D02*
X-7000000Y-37700000D01*
X-9500000Y-29500000D02*
X-6800000Y-26800000D01*
%TO.N,/accelerometer/LSM6DS3_CS*%
X-8700000Y-35362500D02*
X-8700000Y-36937500D01*
X-3124500Y-27900000D02*
X-3000000Y-28024500D01*
X-7537500Y-34200000D02*
X-8700000Y-35362500D01*
X6746446Y-13100000D02*
X7362749Y-13716303D01*
X-3800000Y-34200000D02*
X-7537500Y-34200000D01*
X-3000000Y-33400000D02*
X-3800000Y-34200000D01*
X-3000000Y-28024500D02*
X-3000000Y-33400000D01*
X4900000Y-12300000D02*
X5700000Y-13100000D01*
X5700000Y-13100000D02*
X6746446Y-13100000D01*
%TO.N,/accelerometer/LSM6DS3_CLK*%
X-7511223Y-33460967D02*
X-9255000Y-35204744D01*
X-9200000Y-36259828D02*
X-9200000Y-36937500D01*
X-4060967Y-33460967D02*
X-7511223Y-33460967D01*
X-9255000Y-36204828D02*
X-9200000Y-36259828D01*
X-3700000Y-33100000D02*
X-4060967Y-33460967D01*
X6753554Y-12400000D02*
X7716303Y-13362749D01*
X-9255000Y-35204744D02*
X-9255000Y-36204828D01*
X-3700000Y-29600000D02*
X-3700000Y-33100000D01*
X-3900000Y-29400000D02*
X-3700000Y-29600000D01*
X6400000Y-12400000D02*
X6753554Y-12400000D01*
%TO.N,/accelerometer/LSM6DS3_MOSI*%
X-4500000Y-32600000D02*
X-7300000Y-32600000D01*
X8100000Y-10900000D02*
X7905472Y-11094528D01*
X7905472Y-11094528D02*
X7905472Y-12137705D01*
X-9700000Y-35137500D02*
X-9700000Y-36937500D01*
X7905472Y-12137705D02*
X8423410Y-12655643D01*
X-7300000Y-32600000D02*
X-9700000Y-35000000D01*
X-9700000Y-35000000D02*
X-9700000Y-35300000D01*
%TO.N,/accelerometer/IIS3DWB_MISO*%
X-4000000Y-22900000D02*
X-4000000Y-23600000D01*
X10225000Y-4350000D02*
X10488834Y-4350000D01*
X-10400000Y-31800000D02*
X-12512500Y-31800000D01*
X-5800000Y-25400000D02*
X-5800000Y-26900000D01*
X10488834Y-4350000D02*
X11958943Y-2879891D01*
X-15700000Y-34987500D02*
X-15700000Y-36925000D01*
X-15700000Y-36925000D02*
X-15525000Y-37100000D01*
X-8100000Y-29500000D02*
X-10400000Y-31800000D01*
X-12512500Y-31800000D02*
X-15700000Y-34987500D01*
X-8100000Y-29200000D02*
X-8100000Y-29500000D01*
X-5800000Y-26900000D02*
X-8100000Y-29200000D01*
X-4000000Y-23600000D02*
X-5800000Y-25400000D01*
%TO.N,/accelerometer/IIS3DWB_INT1*%
X-11293763Y-20600000D02*
X-9993763Y-19300000D01*
X-15850152Y-38600000D02*
X-16294000Y-38156152D01*
X-15525000Y-38600000D02*
X-15850152Y-38600000D01*
X-9993763Y-19300000D02*
X-7996700Y-19300000D01*
X-16294000Y-34890263D02*
X-15600000Y-34196263D01*
X-16150000Y-22150000D02*
X-14600000Y-20600000D01*
X-15600000Y-34196263D02*
X-15600000Y-32600000D01*
X-7996700Y-19300000D02*
X-4887876Y-16191176D01*
X-14600000Y-20600000D02*
X-11293763Y-20600000D01*
X-16294000Y-38156152D02*
X-16294000Y-34890263D01*
X-15600000Y-32600000D02*
X-16150000Y-32050000D01*
X-16150000Y-32050000D02*
X-16150000Y-22150000D01*
%TO.N,/accelerometer/IIS3DWB_INT2*%
X-14200000Y-21100000D02*
X-10600000Y-21100000D01*
X-12337500Y-38100000D02*
X-12212000Y-38100000D01*
X-15300000Y-31600000D02*
X-15300000Y-27800000D01*
X-9500000Y-20000000D02*
X-7989592Y-20000000D01*
X-7989592Y-20000000D02*
X-4534322Y-16544730D01*
X-15600000Y-22500000D02*
X-14200000Y-21100000D01*
X-10600000Y-21100000D02*
X-9500000Y-20000000D01*
X-13200000Y-38100000D02*
X-12337500Y-38100000D01*
X-14450000Y-32450000D02*
X-15300000Y-31600000D01*
X-15600000Y-27500000D02*
X-15600000Y-22500000D01*
X-15300000Y-27800000D02*
X-15600000Y-27500000D01*
%TO.N,/accelerometer/IIS3DWB_CS*%
X-4700000Y-28600000D02*
X-10200000Y-34100000D01*
X-12600000Y-34100000D02*
X-13862500Y-35362500D01*
X11550000Y-5250000D02*
X11550000Y-4703048D01*
X-3350000Y-26375000D02*
X-3350000Y-26950000D01*
X11550000Y-4703048D02*
X12666050Y-3586998D01*
X-3350000Y-26950000D02*
X-4700000Y-28300000D01*
X-4700000Y-28300000D02*
X-4700000Y-28600000D01*
X-13862500Y-35362500D02*
X-13862500Y-36937500D01*
X-10200000Y-34100000D02*
X-12600000Y-34100000D01*
%TO.N,/accelerometer/IIS3DWB_CLK*%
X-4350000Y-27250000D02*
X-5800000Y-28700000D01*
X-3400000Y-24400000D02*
X-3400000Y-25001471D01*
X-14562500Y-35262500D02*
X-14562500Y-36237500D01*
X12312497Y-3233445D02*
X9170942Y-6375000D01*
X-12600000Y-33300000D02*
X-14562500Y-35262500D01*
X-5800000Y-28700000D02*
X-5800000Y-28900000D01*
X9170942Y-6375000D02*
X8575000Y-6375000D01*
X-3400000Y-25001471D02*
X-4350000Y-25951471D01*
X-5800000Y-28900000D02*
X-10200000Y-33300000D01*
X-14562500Y-36237500D02*
X-14362500Y-36437500D01*
X-14362500Y-36437500D02*
X-14362500Y-36937500D01*
X-10200000Y-33300000D02*
X-12600000Y-33300000D01*
X-4350000Y-25951471D02*
X-4350000Y-27250000D01*
%TO.N,/accelerometer/IIS3DWB_MOSI*%
X-5000000Y-25700000D02*
X-5000000Y-27100000D01*
X-5000000Y-27100000D02*
X-10400000Y-32500000D01*
X-14862500Y-36437500D02*
X-14862500Y-36937500D01*
X-4800000Y-25500000D02*
X-5000000Y-25700000D01*
X-15100000Y-36200000D02*
X-14862500Y-36437500D01*
X10831728Y-3300000D02*
X11605390Y-2526338D01*
X10200000Y-3300000D02*
X10831728Y-3300000D01*
X8400000Y-5100000D02*
X10200000Y-3300000D01*
X-10400000Y-32500000D02*
X-12500000Y-32500000D01*
X7425000Y-5100000D02*
X8400000Y-5100000D01*
X-12500000Y-32500000D02*
X-15100000Y-35100000D01*
X-15100000Y-35100000D02*
X-15100000Y-36200000D01*
D67*
%TO.N,Net-(C220-Pad1)*%
X2748008Y8415270D02*
X2748008Y8851992D01*
X1705895Y7373157D02*
X2748008Y8415270D01*
D70*
%TO.N,Net-(J801-Pin_3)*%
X-700000Y-40800000D02*
X-1200000Y-40300000D01*
X-700000Y-41850000D02*
X-700000Y-40800000D01*
X-4700000Y-43500000D02*
X-5350000Y-43500000D01*
X-5950000Y-42900000D02*
X-5950000Y-41600000D01*
X-5350000Y-43500000D02*
X-5950000Y-42900000D01*
X-1200000Y-40300000D02*
X-1200000Y-39410000D01*
%TO.N,/expansion/EXP_MOSI*%
X-2350000Y-23000000D02*
X-2350000Y-34225000D01*
X-200000Y-20850000D02*
X-2350000Y-23000000D01*
X2766555Y-18312497D02*
X2104058Y-17650000D01*
X-2350000Y-34225000D02*
X-4950000Y-36825000D01*
X2104058Y-17650000D02*
X900000Y-17650000D01*
X900000Y-17650000D02*
X-200000Y-18750000D01*
X-200000Y-18750000D02*
X-200000Y-20850000D01*
X-4950000Y-36825000D02*
X-4950000Y-41600000D01*
%TO.N,/expansion/EXP_MISO*%
X1200000Y-18000000D02*
X400000Y-18800000D01*
X-1400000Y-27600000D02*
X-1700000Y-27900000D01*
X-1700000Y-35200000D02*
X-3950000Y-37450000D01*
X400000Y-21300000D02*
X-1400000Y-23100000D01*
X-1400000Y-23100000D02*
X-1400000Y-27600000D01*
X-3950000Y-37450000D02*
X-3950000Y-41600000D01*
X-1700000Y-27900000D02*
X-1700000Y-35200000D01*
X2413002Y-18666050D02*
X1746952Y-18000000D01*
X400000Y-18800000D02*
X400000Y-21300000D01*
X1746952Y-18000000D02*
X1200000Y-18000000D01*
%TO.N,/expansion/EXP_CLK*%
X1352342Y-19726710D02*
X1950000Y-20324368D01*
X-500000Y-23200000D02*
X-500000Y-28500000D01*
X1352342Y-19726710D02*
X1352342Y-19752342D01*
X1950000Y-20324368D02*
X1950000Y-20750000D01*
X-1015074Y-36015074D02*
X-2950000Y-37950000D01*
X-1015074Y-29015074D02*
X-1015074Y-36015074D01*
X-2950000Y-37950000D02*
X-2950000Y-41600000D01*
X-500000Y-28500000D02*
X-1015074Y-29015074D01*
X1950000Y-20750000D02*
X-500000Y-23200000D01*
%TO.N,/expansion/EXP_CS*%
X2800000Y-22200000D02*
X2800000Y-19760155D01*
X-1950000Y-42550000D02*
X-1500000Y-43000000D01*
X-200000Y-43000000D02*
X250000Y-42550000D01*
X-1950000Y-41600000D02*
X-1950000Y-42550000D01*
X250000Y-31650000D02*
X1600000Y-30300000D01*
X1600000Y-23400000D02*
X2800000Y-22200000D01*
X250000Y-42550000D02*
X250000Y-31650000D01*
X1600000Y-30300000D02*
X1600000Y-23400000D01*
X2800000Y-19760155D02*
X2059449Y-19019604D01*
X-1500000Y-43000000D02*
X-200000Y-43000000D01*
%TO.N,/expansion/EXP_INT*%
X2350000Y-20017262D02*
X2350000Y-21550000D01*
X-1200000Y-37600000D02*
X-1200000Y-38390000D01*
X-300000Y-36700000D02*
X-1200000Y-37600000D01*
X2350000Y-21550000D02*
X600000Y-23300000D01*
X600000Y-29300000D02*
X-300000Y-30200000D01*
X1705895Y-19373157D02*
X2350000Y-20017262D01*
X-300000Y-30200000D02*
X-300000Y-36700000D01*
X600000Y-23300000D02*
X600000Y-29300000D01*
%TO.N,/microcontroller/SPI1_SCK*%
X-7103554Y-12750000D02*
X-7716303Y-13362749D01*
X-5650000Y-12750000D02*
X-7103554Y-12750000D01*
X-4650000Y-13750000D02*
X-5650000Y-12750000D01*
%TO.N,/microcontroller/SPI1_NSS*%
X-6960660Y-11900000D02*
X-8069856Y-13009196D01*
X-4400000Y-11900000D02*
X-6960660Y-11900000D01*
X-4050000Y-12250000D02*
X-4400000Y-11900000D01*
%TO.N,/microcontroller/SPI1_MOSI*%
X-6750000Y-10300000D02*
X-6774874Y-10300000D01*
X-6774874Y-10300000D02*
X-8776963Y-12302089D01*
%TO.N,/microcontroller/SPI1_MISO*%
X-5000000Y-11000000D02*
X-6767767Y-11000000D01*
X-6767767Y-11000000D02*
X-8423410Y-12655643D01*
X-4950000Y-10950000D02*
X-5000000Y-11000000D01*
%TO.N,/encoder/ENC_IW*%
X16294000Y-38806000D02*
X16294000Y-36600000D01*
X7950000Y-41600000D02*
X7950000Y-40550000D01*
X13726710Y-7352342D02*
X14474368Y-8100000D01*
X16294000Y-26394000D02*
X16294000Y-36700000D01*
X8300000Y-40200000D02*
X14900000Y-40200000D01*
X16150000Y-8750000D02*
X16150000Y-23250000D01*
X15600000Y-23800000D02*
X15600000Y-25700000D01*
X15600000Y-25700000D02*
X16294000Y-26394000D01*
X15500000Y-8100000D02*
X16150000Y-8750000D01*
X14474368Y-8100000D02*
X15500000Y-8100000D01*
X16150000Y-23250000D02*
X15600000Y-23800000D01*
X7950000Y-40550000D02*
X8300000Y-40200000D01*
X14900000Y-40200000D02*
X16294000Y-38806000D01*
%TO.N,/encoder/ENC_A*%
X14900000Y-21700000D02*
X12500000Y-24100000D01*
X14700000Y-28561551D02*
X14700000Y-37100000D01*
X13019604Y-8059449D02*
X15325000Y-10364845D01*
X13000000Y-38800000D02*
X7200000Y-38800000D01*
X15325000Y-10364845D02*
X15325000Y-13375000D01*
X14900000Y-13800000D02*
X14900000Y-21700000D01*
X12500000Y-26361551D02*
X14700000Y-28561551D01*
X12500000Y-24100000D02*
X12500000Y-26361551D01*
X14700000Y-37100000D02*
X13000000Y-38800000D01*
X5950000Y-40050000D02*
X5950000Y-41600000D01*
X15325000Y-13375000D02*
X14900000Y-13800000D01*
X7200000Y-38800000D02*
X5950000Y-40050000D01*
%TO.N,/encoder/ENC_B*%
X15523697Y-14377476D02*
X15771949Y-14129224D01*
X15528759Y-27528759D02*
X14000000Y-26000000D01*
X15528759Y-37946956D02*
X15528759Y-27528759D01*
X14800000Y-8600000D02*
X14267262Y-8600000D01*
X15771949Y-9571949D02*
X14800000Y-8600000D01*
X14000000Y-26000000D02*
X14000000Y-23900000D01*
X14000000Y-23900000D02*
X15523697Y-22376303D01*
X7800000Y-39500000D02*
X13975715Y-39500000D01*
X14267262Y-8600000D02*
X13373157Y-7705895D01*
X13975715Y-39500000D02*
X15528759Y-37946956D01*
X6950000Y-41600000D02*
X6950000Y-40350000D01*
X15523697Y-22376303D02*
X15523697Y-14377476D01*
X6950000Y-40350000D02*
X7800000Y-39500000D01*
X15771949Y-14129224D02*
X15771949Y-9571949D01*
D68*
%TO.N,Net-(U101-OUT)*%
X10275000Y-32300000D02*
X10012500Y-32037500D01*
X11762500Y-32037500D02*
X11500000Y-32300000D01*
D67*
X11762500Y-32037500D02*
X12200000Y-31600000D01*
X12200000Y-31600000D02*
X12200000Y-30375000D01*
D68*
X11500000Y-32300000D02*
X10275000Y-32300000D01*
X10225000Y-32250000D02*
X10012500Y-32037500D01*
X10225000Y-33257500D02*
X10225000Y-32250000D01*
D67*
%TO.N,Net-(J102-Pin_2)*%
X11550000Y-30375000D02*
X11550000Y-29230000D01*
X11084668Y-31500500D02*
X11550000Y-31035168D01*
X11550000Y-31035168D02*
X11550000Y-30375000D01*
X11550000Y-29230000D02*
X11880000Y-28900000D01*
D68*
%TO.N,Net-(D101-A)*%
X8512500Y-37900000D02*
X9235000Y-37177500D01*
X9235000Y-37177500D02*
X9235000Y-36437500D01*
%TO.N,Net-(D102-A)*%
X2000000Y-37575000D02*
X1837500Y-37737500D01*
X2415000Y-36537500D02*
X2000000Y-36952500D01*
X2000000Y-36952500D02*
X2000000Y-37575000D01*
D67*
%TO.N,Net-(U101-ILIM)*%
X11052500Y-34800000D02*
X10225000Y-35627500D01*
X13500000Y-35100000D02*
X13200000Y-34800000D01*
X13500000Y-36100000D02*
X13500000Y-35100000D01*
X13200000Y-34800000D02*
X11052500Y-34800000D01*
%TD*%
%TA.AperFunction,Conductor*%
%TO.N,GND*%
G36*
X11943039Y-18219685D02*
G01*
X11988794Y-18272489D01*
X12000000Y-18324000D01*
X12000000Y-18876000D01*
X11980315Y-18943039D01*
X11927511Y-18988794D01*
X11876000Y-19000000D01*
X11224000Y-19000000D01*
X11156961Y-18980315D01*
X11111206Y-18927511D01*
X11100000Y-18876000D01*
X11100000Y-18324000D01*
X11119685Y-18256961D01*
X11172489Y-18211206D01*
X11224000Y-18200000D01*
X11876000Y-18200000D01*
X11943039Y-18219685D01*
G37*
%TD.AperFunction*%
%TD*%
%TA.AperFunction,Conductor*%
%TO.N,GND*%
G36*
X-10138020Y30097617D02*
G01*
X-10123189Y30094667D01*
X-10078518Y30085781D01*
X-10033822Y30067267D01*
X-9993727Y30040477D01*
X-9959522Y30006272D01*
X-9932730Y29966175D01*
X-9914218Y29921480D01*
X-9902383Y29861980D01*
X-9900000Y29837789D01*
X-9900000Y27762210D01*
X-9902382Y27738020D01*
X-9902383Y27738017D01*
X-9914218Y27678519D01*
X-9932729Y27633826D01*
X-9959524Y27593724D01*
X-9993724Y27559524D01*
X-10033826Y27532729D01*
X-10078514Y27514219D01*
X-10138028Y27502381D01*
X-10162211Y27500000D01*
X-12437789Y27500000D01*
X-12461980Y27502383D01*
X-12476582Y27505287D01*
X-12521480Y27514218D01*
X-12566175Y27532730D01*
X-12606272Y27559522D01*
X-12640477Y27593727D01*
X-12667267Y27633822D01*
X-12685781Y27678517D01*
X-12689542Y27697427D01*
X-12697617Y27738022D01*
X-12700000Y27762210D01*
X-12700000Y29837789D01*
X-12697617Y29861982D01*
X-12685781Y29921482D01*
X-12667267Y29966179D01*
X-12640481Y30006268D01*
X-12606269Y30040479D01*
X-12566179Y30067267D01*
X-12521482Y30085781D01*
X-12487857Y30092469D01*
X-12461978Y30097617D01*
X-12437789Y30100000D01*
X-10162211Y30100000D01*
X-10138020Y30097617D01*
G37*
%TD.AperFunction*%
%TD*%
%TA.AperFunction,Conductor*%
%TO.N,+5V*%
G36*
X8886972Y-30002381D02*
G01*
X8936915Y-30012315D01*
X8981607Y-30030826D01*
X9013593Y-30052199D01*
X9047800Y-30086406D01*
X9052695Y-30093731D01*
X9069171Y-30118389D01*
X9087685Y-30163088D01*
X9100000Y-30225000D01*
X9117127Y-30311104D01*
X9117127Y-30311105D01*
X9165900Y-30384099D01*
X9238894Y-30432872D01*
X9238898Y-30432874D01*
X9324995Y-30449999D01*
X9324999Y-30450000D01*
X9325000Y-30450000D01*
X9937789Y-30450000D01*
X9961980Y-30452383D01*
X10021480Y-30464218D01*
X10066175Y-30482730D01*
X10106272Y-30509522D01*
X10140477Y-30543727D01*
X10167267Y-30583822D01*
X10185781Y-30628517D01*
X10197617Y-30688022D01*
X10200000Y-30712210D01*
X10200000Y-30837789D01*
X10197617Y-30861982D01*
X10185781Y-30921482D01*
X10167267Y-30966179D01*
X10140481Y-31006268D01*
X10106269Y-31040479D01*
X10071975Y-31063394D01*
X10066179Y-31067267D01*
X10021482Y-31085781D01*
X9987857Y-31092469D01*
X9961978Y-31097617D01*
X9937789Y-31100000D01*
X9349995Y-31100000D01*
X9254329Y-31119029D01*
X9254328Y-31119029D01*
X9173223Y-31173223D01*
X9119029Y-31254328D01*
X9119029Y-31254329D01*
X9100000Y-31349995D01*
X9100000Y-33737787D01*
X9097617Y-33761980D01*
X9089963Y-33800456D01*
X9069649Y-33847772D01*
X9066044Y-33852879D01*
X9052422Y-33869052D01*
X8965818Y-33955655D01*
X8904494Y-33989139D01*
X8902331Y-33989590D01*
X8874297Y-33995166D01*
X8861978Y-33997617D01*
X8837788Y-34000000D01*
X7803550Y-34000000D01*
X7707885Y-34019028D01*
X7707885Y-34019029D01*
X7707883Y-34019029D01*
X7707883Y-34019030D01*
X7667329Y-34046126D01*
X7626774Y-34073224D01*
X7626773Y-34073225D01*
X7381857Y-34318142D01*
X7363068Y-34333562D01*
X7320843Y-34361775D01*
X7312625Y-34367267D01*
X7267928Y-34385781D01*
X7233777Y-34392574D01*
X7208425Y-34397617D01*
X7184236Y-34400000D01*
X5762211Y-34400000D01*
X5738020Y-34397617D01*
X5723189Y-34394667D01*
X5678518Y-34385781D01*
X5633822Y-34367267D01*
X5593727Y-34340477D01*
X5559522Y-34306272D01*
X5532730Y-34266175D01*
X5514218Y-34221480D01*
X5502383Y-34161980D01*
X5500000Y-34137789D01*
X5500000Y-32362210D01*
X5502383Y-32338019D01*
X5514218Y-32278519D01*
X5532729Y-32233826D01*
X5559524Y-32193724D01*
X5593724Y-32159524D01*
X5633826Y-32132729D01*
X5678514Y-32114219D01*
X5738028Y-32102381D01*
X5762211Y-32100000D01*
X7750001Y-32100000D01*
X7750002Y-32099999D01*
X7845671Y-32080970D01*
X7926777Y-32026777D01*
X7980970Y-31945671D01*
X8000000Y-31850000D01*
X8000000Y-30262210D01*
X8002383Y-30238019D01*
X8014218Y-30178519D01*
X8032729Y-30133826D01*
X8059524Y-30093724D01*
X8093724Y-30059524D01*
X8133826Y-30032729D01*
X8178514Y-30014219D01*
X8238028Y-30002381D01*
X8262211Y-30000000D01*
X8862789Y-30000000D01*
X8886972Y-30002381D01*
G37*
%TD.AperFunction*%
%TD*%
%TA.AperFunction,Conductor*%
%TO.N,GND*%
G36*
X2461980Y-32202383D02*
G01*
X2521480Y-32214218D01*
X2566175Y-32232730D01*
X2606272Y-32259522D01*
X2640477Y-32293727D01*
X2667267Y-32333822D01*
X2685781Y-32378517D01*
X2697617Y-32438022D01*
X2700000Y-32462210D01*
X2700000Y-35637789D01*
X2697617Y-35661982D01*
X2685781Y-35721482D01*
X2667267Y-35766179D01*
X2640481Y-35806268D01*
X2606269Y-35840479D01*
X2571975Y-35863394D01*
X2566179Y-35867267D01*
X2521482Y-35885781D01*
X2487857Y-35892469D01*
X2461978Y-35897617D01*
X2437789Y-35900000D01*
X862211Y-35900000D01*
X838020Y-35897617D01*
X823189Y-35894667D01*
X778518Y-35885781D01*
X733822Y-35867267D01*
X693727Y-35840477D01*
X659519Y-35806268D01*
X646395Y-35786626D01*
X625520Y-35719950D01*
X625500Y-35717740D01*
X625500Y-32382260D01*
X645185Y-32315221D01*
X646397Y-32313371D01*
X659519Y-32293732D01*
X693727Y-32259522D01*
X733823Y-32232730D01*
X778514Y-32214219D01*
X838028Y-32202381D01*
X862211Y-32200000D01*
X2437789Y-32200000D01*
X2461980Y-32202383D01*
G37*
%TD.AperFunction*%
%TD*%
%TA.AperFunction,Conductor*%
%TO.N,GND*%
G36*
X10961980Y-27402383D02*
G01*
X11021480Y-27414218D01*
X11066175Y-27432730D01*
X11106272Y-27459522D01*
X11140477Y-27493727D01*
X11167267Y-27533822D01*
X11185781Y-27578517D01*
X11189542Y-27597427D01*
X11197617Y-27638019D01*
X11200000Y-27662210D01*
X11200000Y-28904781D01*
X11180315Y-28971820D01*
X11175772Y-28978412D01*
X11147206Y-29017119D01*
X11143216Y-29024667D01*
X11139528Y-29032326D01*
X11121992Y-29089177D01*
X11102353Y-29145301D01*
X11100771Y-29153659D01*
X11099500Y-29162100D01*
X11099500Y-29168498D01*
X11079815Y-29235537D01*
X11027011Y-29281292D01*
X10999694Y-29290115D01*
X10985688Y-29292901D01*
X10961977Y-29297617D01*
X10937789Y-29300000D01*
X10449995Y-29300000D01*
X10354329Y-29319029D01*
X10354328Y-29319029D01*
X10273223Y-29373223D01*
X10219029Y-29454328D01*
X10219029Y-29454329D01*
X10200000Y-29549995D01*
X10200000Y-29837789D01*
X10197617Y-29861982D01*
X10185781Y-29921482D01*
X10167267Y-29966179D01*
X10140481Y-30006268D01*
X10106269Y-30040479D01*
X10071975Y-30063394D01*
X10066179Y-30067267D01*
X10021482Y-30085781D01*
X9987857Y-30092469D01*
X9961978Y-30097617D01*
X9937789Y-30100000D01*
X9662211Y-30100000D01*
X9638020Y-30097617D01*
X9623189Y-30094667D01*
X9578518Y-30085781D01*
X9533822Y-30067267D01*
X9493727Y-30040477D01*
X9459522Y-30006272D01*
X9432730Y-29966175D01*
X9414218Y-29921480D01*
X9402383Y-29861980D01*
X9400000Y-29837789D01*
X9400000Y-29749999D01*
X9399999Y-29749995D01*
X9380970Y-29654329D01*
X9380970Y-29654328D01*
X9359262Y-29621842D01*
X9326777Y-29573223D01*
X9292014Y-29549995D01*
X9245671Y-29519029D01*
X9150004Y-29500000D01*
X9150000Y-29500000D01*
X8262211Y-29500000D01*
X8238020Y-29497617D01*
X8223189Y-29494667D01*
X8178518Y-29485781D01*
X8133822Y-29467267D01*
X8093727Y-29440477D01*
X8059522Y-29406272D01*
X8032730Y-29366175D01*
X8014218Y-29321480D01*
X8013730Y-29319029D01*
X8002383Y-29261980D01*
X8000000Y-29237789D01*
X8000000Y-27662210D01*
X8002383Y-27638019D01*
X8014218Y-27578517D01*
X8032729Y-27533826D01*
X8059524Y-27493724D01*
X8093724Y-27459524D01*
X8133826Y-27432729D01*
X8178514Y-27414219D01*
X8238028Y-27402381D01*
X8262211Y-27400000D01*
X10937789Y-27400000D01*
X10961980Y-27402383D01*
G37*
%TD.AperFunction*%
%TD*%
M02*
