M48
; DRILL file {KiCad 7.0.6} date Thu May 23 09:50:57 2024
; FORMAT={-:-/ absolute / inch / decimal}
; #@! TF.CreationDate,2024-05-23T09:50:57-04:00
; #@! TF.GenerationSoftware,Kicad,Pcbnew,7.0.6
; #@! TF.FileFunction,Plated,1,4,PTH
FMAT,2
INCH
; #@! TA.AperFunction,Plated,PTH,ViaDrill
T1C0.0098
; #@! TA.AperFunction,Plated,PTH,ViaDrill
T2C0.0118
; #@! TA.AperFunction,Plated,PTH,ComponentDrill
T3C0.0197
; #@! TA.AperFunction,Plated,PTH,ComponentDrill
T4C0.0276
; #@! TA.AperFunction,Plated,PTH,ComponentDrill
T5C0.0984
%
G90
G05
T1
X-0.5876Y-0.0591
X-0.5856Y-0.7214
X-0.5787Y-0.6457
X-0.5748Y0.5925
X-0.5745Y-0.2441
X-0.5728Y-0.3406
X-0.5689Y-1.2776
X-0.5551Y-1.2323
X-0.5354Y-0.9567
X-0.4921Y-0.4724
X-0.4843Y1.0984
X-0.4808Y-1.5
X-0.4803Y-0.252
X-0.4764Y-0.9291
X-0.4616Y-0.5037
X-0.4488Y-1.378
X-0.4449Y1.0984
X-0.4291Y-0.185
X-0.4213Y-0.9567
X-0.4173Y0.7756
X-0.4055Y1.0984
X-0.3976Y-1.0118
X-0.374Y-1.1614
X-0.3583Y0.8071
X-0.3533Y-1.0932
X-0.3504Y0.1654
X-0.343Y-0.5635
X-0.3425Y-1.0354
X-0.3268Y0.3031
X-0.3228Y-0.8583
X-0.3189Y-0.063
X-0.3189Y-1.4134
X-0.2953Y0.7756
X-0.2874Y-0.0866
X-0.2677Y0.3465
X-0.2657Y-0.4055
X-0.2441Y-0.0276
X-0.2205Y0.0591
X-0.1949Y-0.4311
X-0.1929Y-0.3701
X-0.189Y0.0079
X-0.189Y-1.0039
X-0.185Y0.3091
X-0.185Y-1.7126
X-0.185Y0.378
X-0.1831Y-0.5413
X-0.1772Y-1.2244
X-0.1772Y-1.2835
X-0.1594Y-0.4823
X-0.1575Y-0.9016
X-0.1535Y-1.1575
X-0.1339Y-0.9606
X-0.1319Y-1.0384
X-0.123Y-1.0984
X-0.1181Y-0.3819
X-0.1181Y-0.8858
X-0.0945Y0.3819
X-0.0945Y0.0669
X-0.0945Y-0.5866
X-0.0841Y1.1697
X-0.0787Y1.5512
X-0.0669Y-0.1299
X-0.063Y-0.0157
X-0.0591Y0.5984
X-0.0591Y0.4646
X-0.0354Y-0.5157
X-0.0276Y1.0
X-0.0276Y0.4016
X-0.0276Y0.0669
X-0.0276Y-1.6476
X-0.0157Y0.8937
X-0.0039Y-0.0197
X0.0Y0.4921
X0.0041Y0.9565
X0.0118Y0.6969
X0.0197Y1.2638
X0.0236Y0.8465
X0.0276Y1.1063
X0.0276Y0.6339
X0.0315Y0.7835
X0.0394Y1.3307
X0.0551Y0.2205
X0.0945Y0.1142
X0.0984Y0.1732
X0.1299Y0.0551
X0.1496Y0.9173
X0.1496Y0.4291
X0.1496Y-0.2205
X0.1535Y1.1417
X0.1535Y0.6693
X0.1575Y1.2008
X0.1614Y0.9764
X0.1654Y1.0984
X0.189Y0.0866
X0.1929Y-0.4843
X0.2008Y-0.0984
X0.2087Y1.1654
X0.2126Y1.0354
X0.2165Y1.311
X0.252Y-0.4252
X0.252Y-0.4882
X0.2717Y-0.0906
X0.2835Y-0.6535
X0.2913Y0.2244
X0.2923Y-0.2008
X0.3071Y0.4961
X0.311Y-0.0354
X0.3189Y-0.4291
X0.3327Y0.6457
X0.3376Y-0.251
X0.3465Y-0.1417
X0.3563Y0.7362
X0.3602Y-0.0807
X0.4016Y0.811
X0.4026Y-0.1713
X0.4252Y0.0748
X0.4331Y1.2638
X0.4488Y-0.4764
X0.4528Y0.8504
X0.4547Y-0.2067
X0.4567Y-0.2835
X0.4803Y1.3031
X0.4803Y1.2283
X0.4823Y0.0079
X0.4961Y1.1693
X0.5079Y0.437
X0.5118Y0.3622
X0.5118Y0.2953
X0.5256Y-0.0689
X0.5276Y-0.815
X0.5807Y0.0925
X0.5906Y0.8228
X0.5965Y0.1555
X0.5984Y-0.1063
X0.6024Y1.0433
X0.6063Y1.2402
X0.6142Y0.8661
X0.622Y0.7598
T2
X-0.5827Y-1.6024
X-0.5787Y-0.5827
X-0.5315Y-0.4449
X-0.5079Y-1.2283
X-0.4803Y0.7402
X-0.4567Y-1.5669
X-0.4252Y1.6102
X-0.4016Y0.5748
X-0.3898Y0.3465
X-0.3858Y1.7835
X-0.3781Y1.6844
X-0.3622Y-1.6417
X-0.3504Y-0.126
X-0.3386Y-0.1811
X-0.311Y-1.6929
X-0.2874Y1.5945
X-0.2862Y1.7754
X-0.2618Y0.2539
X-0.2598Y1.7008
X-0.126Y-0.1299
X0.0Y1.3701
X0.0394Y-1.3701
X0.0394Y-1.4016
X0.0866Y1.4646
X0.0866Y1.4173
X0.0984Y0.4252
X0.1161Y-1.6969
X0.126Y1.4843
X0.1457Y-1.5354
X0.1624Y-1.2244
X0.1732Y-0.8819
X0.2047Y1.4921
X0.2146Y-1.7165
X0.2244Y1.4213
X0.2283Y1.6457
X0.2283Y1.5748
X0.252Y-1.2244
X0.2756Y1.7717
X0.2953Y-1.7087
X0.3228Y1.2756
X0.3357Y-1.0946
X0.3386Y1.6929
X0.3543Y1.1969
X0.3819Y-1.0945
X0.3819Y-1.1378
X0.3858Y-0.9134
X0.3898Y1.7677
X0.4134Y-0.5315
X0.4173Y1.6457
X0.4252Y-1.0945
X0.4331Y-0.748
X0.4364Y-1.2402
X0.4449Y-1.4921
X0.4528Y0.748
X0.4528Y-1.3425
X0.4724Y-0.748
X0.5059Y-1.2854
X0.506Y-1.4776
X0.5079Y-0.4609
X0.5354Y-1.252
X0.5984Y1.5748
X0.5984Y1.5
X0.5984Y1.4173
X0.6142Y-1.6063
T4
X-0.0955Y1.6122
X0.0955Y1.6122
T5
X-0.5469Y1.7344
X-0.5469Y-1.7344
X0.5469Y1.7344
X0.5469Y-1.7344
T3
G00X-0.1417Y1.7313
M15
G01X-0.1417Y1.6998
M16
G05
G00X0.1417Y1.7313
M15
G01X0.1417Y1.6998
M16
G05
T0
M30
