%TF.GenerationSoftware,KiCad,Pcbnew,7.0.6*%
%TF.CreationDate,2024-05-23T09:50:57-04:00*%
%TF.ProjectId,ActiveImpactor_Control,41637469-7665-4496-9d70-6163746f725f,rev?*%
%TF.SameCoordinates,Original*%
%TF.FileFunction,Other,Comment*%
%FSLAX46Y46*%
G04 Gerber Fmt 4.6, Leading zero omitted, Abs format (unit mm)*
G04 Created by KiCad (PCBNEW 7.0.6) date 2024-05-23 09:50:57*
%MOMM*%
%LPD*%
G01*
G04 APERTURE LIST*
%ADD10C,0.070000*%
%ADD11C,0.150000*%
G04 APERTURE END LIST*
D10*
X-12908592Y-18338095D02*
X-13308592Y-18338095D01*
X-12908592Y-18109524D02*
X-13137163Y-18280953D01*
X-13308592Y-18109524D02*
X-13080020Y-18338095D01*
X-13118116Y-17938095D02*
X-13118116Y-17804762D01*
X-12908592Y-17747619D02*
X-12908592Y-17938095D01*
X-12908592Y-17938095D02*
X-13308592Y-17938095D01*
X-13308592Y-17938095D02*
X-13308592Y-17747619D01*
X-13118116Y-17576190D02*
X-13118116Y-17442857D01*
X-12908592Y-17385714D02*
X-12908592Y-17576190D01*
X-12908592Y-17576190D02*
X-13308592Y-17576190D01*
X-13308592Y-17576190D02*
X-13308592Y-17385714D01*
X-12908592Y-17214285D02*
X-13308592Y-17214285D01*
X-13308592Y-17214285D02*
X-13308592Y-17061904D01*
X-13308592Y-17061904D02*
X-13289544Y-17023809D01*
X-13289544Y-17023809D02*
X-13270497Y-17004762D01*
X-13270497Y-17004762D02*
X-13232401Y-16985714D01*
X-13232401Y-16985714D02*
X-13175259Y-16985714D01*
X-13175259Y-16985714D02*
X-13137163Y-17004762D01*
X-13137163Y-17004762D02*
X-13118116Y-17023809D01*
X-13118116Y-17023809D02*
X-13099068Y-17061904D01*
X-13099068Y-17061904D02*
X-13099068Y-17214285D01*
X-13308592Y-16738095D02*
X-13308592Y-16661904D01*
X-13308592Y-16661904D02*
X-13289544Y-16623809D01*
X-13289544Y-16623809D02*
X-13251449Y-16585714D01*
X-13251449Y-16585714D02*
X-13175259Y-16566666D01*
X-13175259Y-16566666D02*
X-13041925Y-16566666D01*
X-13041925Y-16566666D02*
X-12965735Y-16585714D01*
X-12965735Y-16585714D02*
X-12927640Y-16623809D01*
X-12927640Y-16623809D02*
X-12908592Y-16661904D01*
X-12908592Y-16661904D02*
X-12908592Y-16738095D01*
X-12908592Y-16738095D02*
X-12927640Y-16776190D01*
X-12927640Y-16776190D02*
X-12965735Y-16814285D01*
X-12965735Y-16814285D02*
X-13041925Y-16833333D01*
X-13041925Y-16833333D02*
X-13175259Y-16833333D01*
X-13175259Y-16833333D02*
X-13251449Y-16814285D01*
X-13251449Y-16814285D02*
X-13289544Y-16776190D01*
X-13289544Y-16776190D02*
X-13308592Y-16738095D01*
X-13308592Y-16395237D02*
X-12984782Y-16395237D01*
X-12984782Y-16395237D02*
X-12946687Y-16376190D01*
X-12946687Y-16376190D02*
X-12927640Y-16357142D01*
X-12927640Y-16357142D02*
X-12908592Y-16319047D01*
X-12908592Y-16319047D02*
X-12908592Y-16242856D01*
X-12908592Y-16242856D02*
X-12927640Y-16204761D01*
X-12927640Y-16204761D02*
X-12946687Y-16185714D01*
X-12946687Y-16185714D02*
X-12984782Y-16166666D01*
X-12984782Y-16166666D02*
X-13308592Y-16166666D01*
X-13308592Y-16033332D02*
X-13308592Y-15804761D01*
X-12908592Y-15919047D02*
X-13308592Y-15919047D01*
D11*
%TO.C,H102*%
X-11390500Y44053000D02*
G75*
G03*
X-11390500Y44053000I-2500000J0D01*
G01*
%TO.C,H101*%
X16390500Y44053000D02*
G75*
G03*
X16390500Y44053000I-2500000J0D01*
G01*
%TO.C,H104*%
X16390500Y-44053000D02*
G75*
G03*
X16390500Y-44053000I-2500000J0D01*
G01*
%TO.C,H103*%
X-11390500Y-44053000D02*
G75*
G03*
X-11390500Y-44053000I-2500000J0D01*
G01*
%TD*%
M02*
