%TF.GenerationSoftware,KiCad,Pcbnew,7.0.6*%
%TF.CreationDate,2024-05-23T09:50:57-04:00*%
%TF.ProjectId,ActiveImpactor_Control,41637469-7665-4496-9d70-6163746f725f,rev?*%
%TF.SameCoordinates,Original*%
%TF.FileFunction,Paste,Top*%
%TF.FilePolarity,Positive*%
%FSLAX46Y46*%
G04 Gerber Fmt 4.6, Leading zero omitted, Abs format (unit mm)*
G04 Created by KiCad (PCBNEW 7.0.6) date 2024-05-23 09:50:57*
%MOMM*%
%LPD*%
G01*
G04 APERTURE LIST*
G04 Aperture macros list*
%AMRoundRect*
0 Rectangle with rounded corners*
0 $1 Rounding radius*
0 $2 $3 $4 $5 $6 $7 $8 $9 X,Y pos of 4 corners*
0 Add a 4 corners polygon primitive as box body*
4,1,4,$2,$3,$4,$5,$6,$7,$8,$9,$2,$3,0*
0 Add four circle primitives for the rounded corners*
1,1,$1+$1,$2,$3*
1,1,$1+$1,$4,$5*
1,1,$1+$1,$6,$7*
1,1,$1+$1,$8,$9*
0 Add four rect primitives between the rounded corners*
20,1,$1+$1,$2,$3,$4,$5,0*
20,1,$1+$1,$4,$5,$6,$7,0*
20,1,$1+$1,$6,$7,$8,$9,0*
20,1,$1+$1,$8,$9,$2,$3,0*%
%AMRotRect*
0 Rectangle, with rotation*
0 The origin of the aperture is its center*
0 $1 length*
0 $2 width*
0 $3 Rotation angle, in degrees counterclockwise*
0 Add horizontal line*
21,1,$1,$2,0,0,$3*%
%AMOutline4P*
0 Free polygon, 4 corners , with rotation*
0 The origin of the aperture is its center*
0 number of corners: always 4*
0 $1 to $8 corner X, Y*
0 $9 Rotation angle, in degrees counterclockwise*
0 create outline with 4 corners*
4,1,4,$1,$2,$3,$4,$5,$6,$7,$8,$1,$2,$9*%
G04 Aperture macros list end*
%ADD10RoundRect,0.135000X0.135000X0.185000X-0.135000X0.185000X-0.135000X-0.185000X0.135000X-0.185000X0*%
%ADD11RoundRect,0.225000X-0.017678X0.335876X-0.335876X0.017678X0.017678X-0.335876X0.335876X-0.017678X0*%
%ADD12RoundRect,0.140000X-0.219203X-0.021213X-0.021213X-0.219203X0.219203X0.021213X0.021213X0.219203X0*%
%ADD13RoundRect,0.135000X0.185000X-0.135000X0.185000X0.135000X-0.185000X0.135000X-0.185000X-0.135000X0*%
%ADD14RotRect,1.400000X1.200000X315.000000*%
%ADD15RoundRect,0.135000X-0.226274X-0.035355X-0.035355X-0.226274X0.226274X0.035355X0.035355X0.226274X0*%
%ADD16RoundRect,0.140000X-0.021213X0.219203X-0.219203X0.021213X0.021213X-0.219203X0.219203X-0.021213X0*%
%ADD17RoundRect,0.140000X0.140000X0.170000X-0.140000X0.170000X-0.140000X-0.170000X0.140000X-0.170000X0*%
%ADD18RoundRect,0.140000X0.170000X-0.140000X0.170000X0.140000X-0.170000X0.140000X-0.170000X-0.140000X0*%
%ADD19RoundRect,0.218750X0.218750X0.256250X-0.218750X0.256250X-0.218750X-0.256250X0.218750X-0.256250X0*%
%ADD20RoundRect,0.140000X-0.140000X-0.170000X0.140000X-0.170000X0.140000X0.170000X-0.140000X0.170000X0*%
%ADD21RoundRect,0.140000X0.021213X-0.219203X0.219203X-0.021213X-0.021213X0.219203X-0.219203X0.021213X0*%
%ADD22RoundRect,0.140000X0.219203X0.021213X0.021213X0.219203X-0.219203X-0.021213X-0.021213X-0.219203X0*%
%ADD23RoundRect,0.218750X-0.218750X-0.256250X0.218750X-0.256250X0.218750X0.256250X-0.218750X0.256250X0*%
%ADD24RoundRect,0.135000X-0.135000X-0.185000X0.135000X-0.185000X0.135000X0.185000X-0.135000X0.185000X0*%
%ADD25RoundRect,0.218750X0.256250X-0.218750X0.256250X0.218750X-0.256250X0.218750X-0.256250X-0.218750X0*%
%ADD26RoundRect,0.140000X-0.170000X0.140000X-0.170000X-0.140000X0.170000X-0.140000X0.170000X0.140000X0*%
%ADD27RoundRect,0.225000X-0.250000X0.225000X-0.250000X-0.225000X0.250000X-0.225000X0.250000X0.225000X0*%
%ADD28R,1.500000X2.000000*%
%ADD29R,3.800000X2.000000*%
%ADD30RoundRect,0.075000X0.387500X0.075000X-0.387500X0.075000X-0.387500X-0.075000X0.387500X-0.075000X0*%
%ADD31RoundRect,0.075000X0.075000X0.325000X-0.075000X0.325000X-0.075000X-0.325000X0.075000X-0.325000X0*%
%ADD32RoundRect,0.225000X0.250000X-0.225000X0.250000X0.225000X-0.250000X0.225000X-0.250000X-0.225000X0*%
%ADD33RoundRect,0.135000X-0.185000X0.135000X-0.185000X-0.135000X0.185000X-0.135000X0.185000X0.135000X0*%
%ADD34RoundRect,0.147500X-0.226274X-0.017678X-0.017678X-0.226274X0.226274X0.017678X0.017678X0.226274X0*%
%ADD35RoundRect,0.135000X-0.035355X0.226274X-0.226274X0.035355X0.035355X-0.226274X0.226274X-0.035355X0*%
%ADD36RoundRect,0.225000X-0.225000X-0.250000X0.225000X-0.250000X0.225000X0.250000X-0.225000X0.250000X0*%
%ADD37RoundRect,0.087500X-0.225000X-0.087500X0.225000X-0.087500X0.225000X0.087500X-0.225000X0.087500X0*%
%ADD38RoundRect,0.087500X-0.087500X-0.225000X0.087500X-0.225000X0.087500X0.225000X-0.087500X0.225000X0*%
%ADD39RoundRect,0.225000X0.225000X0.250000X-0.225000X0.250000X-0.225000X-0.250000X0.225000X-0.250000X0*%
%ADD40RoundRect,0.200000X-0.800000X0.200000X-0.800000X-0.200000X0.800000X-0.200000X0.800000X0.200000X0*%
%ADD41RoundRect,0.150000X-0.150000X-0.625000X0.150000X-0.625000X0.150000X0.625000X-0.150000X0.625000X0*%
%ADD42RoundRect,0.250000X-0.350000X-0.650000X0.350000X-0.650000X0.350000X0.650000X-0.350000X0.650000X0*%
%ADD43RoundRect,0.225000X0.335876X0.017678X0.017678X0.335876X-0.335876X-0.017678X-0.017678X-0.335876X0*%
%ADD44RoundRect,0.135000X0.226274X0.035355X0.035355X0.226274X-0.226274X-0.035355X-0.035355X-0.226274X0*%
%ADD45R,0.711200X2.006600*%
%ADD46R,2.692400X1.397000*%
%ADD47R,0.990600X2.590800*%
%ADD48R,1.193800X1.193800*%
%ADD49R,1.498600X2.590800*%
%ADD50R,1.510000X0.458000*%
%ADD51RoundRect,0.150000X0.150000X-0.512500X0.150000X0.512500X-0.150000X0.512500X-0.150000X-0.512500X0*%
%ADD52Outline4P,-0.200000X-0.625000X0.200000X-0.625000X0.200000X0.625000X-0.200000X0.625000X0.000000*%
%ADD53R,0.400000X1.250000*%
%ADD54Outline4P,-0.300000X-0.675000X0.300000X-0.675000X0.300000X0.675000X-0.300000X0.675000X0.000000*%
%ADD55RoundRect,0.100000X0.100000X-0.637500X0.100000X0.637500X-0.100000X0.637500X-0.100000X-0.637500X0*%
%ADD56RoundRect,0.075000X0.521491X-0.415425X-0.415425X0.521491X-0.521491X0.415425X0.415425X-0.521491X0*%
%ADD57RoundRect,0.075000X0.521491X0.415425X0.415425X0.521491X-0.521491X-0.415425X-0.415425X-0.521491X0*%
G04 APERTURE END LIST*
D10*
%TO.C,R206*%
X-9580000Y-15800000D03*
X-10600000Y-15800000D03*
%TD*%
D11*
%TO.C,C201*%
X4948008Y-19951992D03*
X3851992Y-21048008D03*
%TD*%
D12*
%TO.C,C203*%
X9460589Y-17460589D03*
X10139411Y-18139411D03*
%TD*%
D13*
%TO.C,R501*%
X-7200000Y11890000D03*
X-7200000Y12910000D03*
%TD*%
D10*
%TO.C,R505*%
X-10490000Y7500000D03*
X-11510000Y7500000D03*
%TD*%
D13*
%TO.C,R504*%
X-5000000Y11890000D03*
X-5000000Y12910000D03*
%TD*%
D14*
%TO.C,Y201*%
X9921142Y-16023223D03*
X11476777Y-17578858D03*
X12678858Y-16376777D03*
X11123223Y-14821142D03*
%TD*%
D15*
%TO.C,R202*%
X12539376Y-14339376D03*
X13260624Y-15060624D03*
%TD*%
D16*
%TO.C,C218*%
X14639411Y-11460589D03*
X13960589Y-12139411D03*
%TD*%
D17*
%TO.C,C404*%
X2780000Y34400000D03*
X1820000Y34400000D03*
%TD*%
D18*
%TO.C,C103*%
X9800000Y-30780000D03*
X9800000Y-29820000D03*
%TD*%
D17*
%TO.C,C701*%
X-12920000Y-30300000D03*
X-13880000Y-30300000D03*
%TD*%
D18*
%TO.C,C408*%
X850000Y22820000D03*
X850000Y23780000D03*
%TD*%
D17*
%TO.C,C706*%
X-12882500Y-39850000D03*
X-13842500Y-39850000D03*
%TD*%
D16*
%TO.C,C216*%
X8189411Y-14960589D03*
X7510589Y-15639411D03*
%TD*%
D19*
%TO.C,D102*%
X3412500Y-37737500D03*
X1837500Y-37737500D03*
%TD*%
D20*
%TO.C,C705*%
X-15742500Y-39850000D03*
X-14782500Y-39850000D03*
%TD*%
D17*
%TO.C,C702*%
X-10720000Y-30300000D03*
X-11680000Y-30300000D03*
%TD*%
D21*
%TO.C,C211*%
X12260589Y-11039411D03*
X12939411Y-10360589D03*
%TD*%
D22*
%TO.C,C209*%
X-10360589Y-12839411D03*
X-11039411Y-12160589D03*
%TD*%
D23*
%TO.C,FB101*%
X8437500Y-32037500D03*
X10012500Y-32037500D03*
%TD*%
D12*
%TO.C,C217*%
X6160589Y5839411D03*
X6839411Y5160589D03*
%TD*%
D24*
%TO.C,R507*%
X-5010000Y11000000D03*
X-3990000Y11000000D03*
%TD*%
D25*
%TO.C,D201*%
X7500000Y-23887500D03*
X7500000Y-22312500D03*
%TD*%
D26*
%TO.C,C403*%
X15400000Y23780000D03*
X15400000Y22820000D03*
%TD*%
D22*
%TO.C,C214*%
X-6860589Y-16339411D03*
X-7539411Y-15660589D03*
%TD*%
D10*
%TO.C,R801*%
X2610000Y-25250000D03*
X1590000Y-25250000D03*
%TD*%
D24*
%TO.C,R506*%
X-13710000Y12900000D03*
X-12690000Y12900000D03*
%TD*%
D27*
%TO.C,C106*%
X8525000Y-33562500D03*
X8525000Y-35112500D03*
%TD*%
D20*
%TO.C,C101*%
X12820000Y-28900000D03*
X13780000Y-28900000D03*
%TD*%
D28*
%TO.C,U102*%
X1825000Y-33287500D03*
X4125000Y-33287500D03*
D29*
X4125000Y-26987500D03*
D28*
X6425000Y-33287500D03*
%TD*%
D15*
%TO.C,R502*%
X-13860624Y-9339376D03*
X-13139376Y-10060624D03*
%TD*%
D18*
%TO.C,C402*%
X15400000Y29620000D03*
X15400000Y30580000D03*
%TD*%
D16*
%TO.C,C206*%
X13539411Y-17660589D03*
X12860589Y-18339411D03*
%TD*%
D30*
%TO.C,U702*%
X-11012500Y-28800000D03*
X-11012500Y-28300000D03*
X-11012500Y-27800000D03*
X-11012500Y-27300000D03*
X-11012500Y-26800000D03*
D31*
X-11800000Y-26525000D03*
X-12300000Y-26525000D03*
X-12800000Y-26525000D03*
D30*
X-13587500Y-26800000D03*
X-13587500Y-27300000D03*
X-13587500Y-27800000D03*
X-13587500Y-28300000D03*
X-13587500Y-28800000D03*
D31*
X-12800000Y-29075000D03*
X-12300000Y-29075000D03*
X-11800000Y-29075000D03*
%TD*%
D32*
%TO.C,C104*%
X8525000Y-30512500D03*
X8525000Y-28962500D03*
%TD*%
D33*
%TO.C,R201*%
X8800000Y-21290000D03*
X8800000Y-22310000D03*
%TD*%
D22*
%TO.C,C212*%
X839411Y8460589D03*
X160589Y9139411D03*
%TD*%
D34*
%TO.C,L201*%
X13257053Y-12757053D03*
X13942947Y-13442947D03*
%TD*%
D20*
%TO.C,C301*%
X2220000Y38800000D03*
X3180000Y38800000D03*
%TD*%
D35*
%TO.C,R401*%
X-8539376Y3060624D03*
X-9260624Y2339376D03*
%TD*%
D13*
%TO.C,R802*%
X-1200000Y-39410000D03*
X-1200000Y-38390000D03*
%TD*%
%TO.C,R701*%
X-6300000Y-35210000D03*
X-6300000Y-34190000D03*
%TD*%
D16*
%TO.C,C202*%
X-2060589Y-21060589D03*
X-2739411Y-21739411D03*
%TD*%
D26*
%TO.C,C102*%
X10225000Y-33257500D03*
X10225000Y-34217500D03*
%TD*%
D12*
%TO.C,C204*%
X13860589Y-2660589D03*
X14539411Y-3339411D03*
%TD*%
D16*
%TO.C,C208*%
X-14660589Y-4921178D03*
X-15339411Y-5600000D03*
%TD*%
%TO.C,C219*%
X14239411Y-10460589D03*
X13560589Y-11139411D03*
%TD*%
D10*
%TO.C,R205*%
X-9580000Y-17100000D03*
X-10600000Y-17100000D03*
%TD*%
D26*
%TO.C,C407*%
X850000Y12080000D03*
X850000Y11120000D03*
%TD*%
D36*
%TO.C,C401*%
X3925000Y34600000D03*
X5475000Y34600000D03*
%TD*%
D11*
%TO.C,C222*%
X-14251992Y-2651992D03*
X-15348008Y-3748008D03*
%TD*%
D16*
%TO.C,C210*%
X-2760589Y-20421178D03*
X-3439411Y-21100000D03*
%TD*%
D19*
%TO.C,D101*%
X10087500Y-37900000D03*
X8512500Y-37900000D03*
%TD*%
D37*
%TO.C,U703*%
X-15525000Y-37100000D03*
X-15525000Y-37600000D03*
X-15525000Y-38100000D03*
X-15525000Y-38600000D03*
D38*
X-14862500Y-38762500D03*
X-14362500Y-38762500D03*
X-13862500Y-38762500D03*
D37*
X-13200000Y-38600000D03*
X-13200000Y-38100000D03*
X-13200000Y-37600000D03*
X-13200000Y-37100000D03*
D38*
X-13862500Y-36937500D03*
X-14362500Y-36937500D03*
X-14862500Y-36937500D03*
%TD*%
D26*
%TO.C,C406*%
X850000Y25780000D03*
X850000Y24820000D03*
%TD*%
D37*
%TO.C,U701*%
X-10362500Y-37100000D03*
X-10362500Y-37600000D03*
X-10362500Y-38100000D03*
X-10362500Y-38600000D03*
D38*
X-9700000Y-38762500D03*
X-9200000Y-38762500D03*
X-8700000Y-38762500D03*
D37*
X-8037500Y-38600000D03*
X-8037500Y-38100000D03*
X-8037500Y-37600000D03*
X-8037500Y-37100000D03*
D38*
X-8700000Y-36937500D03*
X-9200000Y-36937500D03*
X-9700000Y-36937500D03*
%TD*%
D39*
%TO.C,C107*%
X3700000Y-35337500D03*
X2150000Y-35337500D03*
%TD*%
D24*
%TO.C,R102*%
X6315000Y-36437500D03*
X7335000Y-36437500D03*
%TD*%
D21*
%TO.C,C213*%
X-10539411Y660589D03*
X-9860589Y1339411D03*
%TD*%
D40*
%TO.C,SW201*%
X11000000Y-21000000D03*
X11000000Y-25200000D03*
%TD*%
D17*
%TO.C,C703*%
X-7720000Y-39850000D03*
X-8680000Y-39850000D03*
%TD*%
D33*
%TO.C,R101*%
X10225000Y-35627500D03*
X10225000Y-36647500D03*
%TD*%
D41*
%TO.C,J801*%
X-7950000Y-41600000D03*
X-6950000Y-41600000D03*
X-5950000Y-41600000D03*
X-4950000Y-41600000D03*
X-3950000Y-41600000D03*
X-2950000Y-41600000D03*
X-1950000Y-41600000D03*
D42*
X-9250000Y-45475000D03*
X-650000Y-45475000D03*
%TD*%
D24*
%TO.C,R103*%
X8215000Y-36437500D03*
X9235000Y-36437500D03*
%TD*%
D10*
%TO.C,R207*%
X-9580000Y-18400000D03*
X-10600000Y-18400000D03*
%TD*%
D43*
%TO.C,C220*%
X2748008Y8851992D03*
X1651992Y9948008D03*
%TD*%
D10*
%TO.C,R703*%
X-12852500Y-35850000D03*
X-13872500Y-35850000D03*
%TD*%
D23*
%TO.C,FB501*%
X-10187500Y10100000D03*
X-8612500Y10100000D03*
%TD*%
D44*
%TO.C,R203*%
X-6739376Y-23160624D03*
X-7460624Y-22439376D03*
%TD*%
D45*
%TO.C,J501*%
X-4977001Y16701649D03*
X-6077001Y16701649D03*
X-7177002Y16701649D03*
X-8277002Y16701649D03*
X-9377002Y16701649D03*
X-10477003Y16701649D03*
X-11577000Y16701649D03*
X-12677001Y16701649D03*
D46*
X-6377001Y29401649D03*
D47*
X-14776999Y17201650D03*
D46*
X-11277001Y29401649D03*
D48*
X-3326999Y29501651D03*
D49*
X-1477000Y17201651D03*
%TD*%
D50*
%TO.C,U401*%
X2350000Y32900000D03*
X2350000Y32100000D03*
X2350000Y31300000D03*
X2350000Y30500000D03*
X2350000Y29700000D03*
X2350000Y28900000D03*
X2350000Y28100000D03*
X2350000Y27300000D03*
X2350000Y26500000D03*
X2350000Y25700000D03*
X2350000Y24900000D03*
X2350000Y24100000D03*
X2350000Y23300000D03*
X2350000Y22500000D03*
X2350000Y21700000D03*
X2350000Y20900000D03*
X2350000Y20100000D03*
X2350000Y19300000D03*
X2350000Y18500000D03*
X2350000Y17700000D03*
X2350000Y16900000D03*
X2350000Y16100000D03*
X2350000Y15300000D03*
X2350000Y14500000D03*
X2350000Y13700000D03*
X2350000Y12900000D03*
X2350000Y12100000D03*
X13850000Y12100000D03*
X13850000Y12900000D03*
X13850000Y13700000D03*
X13850000Y14500000D03*
X13850000Y15300000D03*
X13850000Y16100000D03*
X13850000Y16900000D03*
X13850000Y17700000D03*
X13850000Y18500000D03*
X13850000Y19300000D03*
X13850000Y20100000D03*
X13850000Y20900000D03*
X13850000Y21700000D03*
X13850000Y22500000D03*
X13850000Y23300000D03*
X13850000Y24100000D03*
X13850000Y24900000D03*
X13850000Y25700000D03*
X13850000Y26500000D03*
X13850000Y27300000D03*
X13850000Y28100000D03*
X13850000Y28900000D03*
X13850000Y29700000D03*
X13850000Y30500000D03*
X13850000Y31300000D03*
X13850000Y32100000D03*
X13850000Y32900000D03*
%TD*%
D21*
%TO.C,C207*%
X-6639411Y5060589D03*
X-5960589Y5739411D03*
%TD*%
D17*
%TO.C,C501*%
X-8920000Y12900000D03*
X-9880000Y12900000D03*
%TD*%
D12*
%TO.C,C205*%
X9560589Y2039411D03*
X10239411Y1360589D03*
%TD*%
D17*
%TO.C,C105*%
X11880000Y-28900000D03*
X10920000Y-28900000D03*
%TD*%
D24*
%TO.C,R702*%
X-13810000Y-25400000D03*
X-12790000Y-25400000D03*
%TD*%
D10*
%TO.C,R104*%
X3435000Y-36537500D03*
X2415000Y-36537500D03*
%TD*%
D26*
%TO.C,C405*%
X850000Y30580000D03*
X850000Y29620000D03*
%TD*%
D51*
%TO.C,U301*%
X-950000Y36212500D03*
X0Y36212500D03*
X950000Y36212500D03*
X950000Y38487500D03*
X0Y38487500D03*
X-950000Y38487500D03*
%TD*%
D26*
%TO.C,C221*%
X-15600000Y-17320000D03*
X-15600000Y-18280000D03*
%TD*%
D13*
%TO.C,R204*%
X8800000Y-24910000D03*
X8800000Y-23890000D03*
%TD*%
%TO.C,R503*%
X-6100000Y11890000D03*
X-6100000Y12910000D03*
%TD*%
D52*
%TO.C,J301*%
X1300000Y40950000D03*
D53*
X650000Y40950000D03*
X0Y40950000D03*
X-650000Y40950000D03*
X-1300000Y40950000D03*
D54*
X-975000Y43625000D03*
X800000Y43625000D03*
%TD*%
D39*
%TO.C,C502*%
X-8625000Y11600000D03*
X-10175000Y11600000D03*
%TD*%
D20*
%TO.C,C704*%
X-10580000Y-39850000D03*
X-9620000Y-39850000D03*
%TD*%
D55*
%TO.C,U101*%
X11550000Y-36100000D03*
X12200000Y-36100000D03*
X12850000Y-36100000D03*
X13500000Y-36100000D03*
X13500000Y-30375000D03*
X12850000Y-30375000D03*
X12200000Y-30375000D03*
X11550000Y-30375000D03*
%TD*%
D41*
%TO.C,J601*%
X2950000Y-41600000D03*
X3950000Y-41600000D03*
X4950000Y-41600000D03*
X5950000Y-41600000D03*
X6950000Y-41600000D03*
X7950000Y-41600000D03*
D42*
X1650000Y-45475000D03*
X9250000Y-45475000D03*
%TD*%
D56*
%TO.C,U201*%
X1352342Y-19726710D03*
X1705895Y-19373157D03*
X2059449Y-19019604D03*
X2413002Y-18666050D03*
X2766555Y-18312497D03*
X3120109Y-17958943D03*
X3473662Y-17605390D03*
X3827215Y-17251837D03*
X4180769Y-16898283D03*
X4534322Y-16544730D03*
X4887876Y-16191176D03*
X5241429Y-15837623D03*
X5594982Y-15484070D03*
X5948536Y-15130516D03*
X6302089Y-14776963D03*
X6655643Y-14423410D03*
X7009196Y-14069856D03*
X7362749Y-13716303D03*
X7716303Y-13362749D03*
X8069856Y-13009196D03*
X8423410Y-12655643D03*
X8776963Y-12302089D03*
X9130516Y-11948536D03*
X9484070Y-11594982D03*
X9837623Y-11241429D03*
X10191176Y-10887876D03*
X10544730Y-10534322D03*
X10898283Y-10180769D03*
X11251837Y-9827215D03*
X11605390Y-9473662D03*
X11958943Y-9120109D03*
X12312497Y-8766555D03*
X12666050Y-8413002D03*
X13019604Y-8059449D03*
X13373157Y-7705895D03*
X13726710Y-7352342D03*
D57*
X13726710Y-4647658D03*
X13373157Y-4294105D03*
X13019604Y-3940551D03*
X12666050Y-3586998D03*
X12312497Y-3233445D03*
X11958943Y-2879891D03*
X11605390Y-2526338D03*
X11251837Y-2172785D03*
X10898283Y-1819231D03*
X10544730Y-1465678D03*
X10191176Y-1112124D03*
X9837623Y-758571D03*
X9484070Y-405018D03*
X9130516Y-51464D03*
X8776963Y302089D03*
X8423410Y655643D03*
X8069856Y1009196D03*
X7716303Y1362749D03*
X7362749Y1716303D03*
X7009196Y2069856D03*
X6655643Y2423410D03*
X6302089Y2776963D03*
X5948536Y3130516D03*
X5594982Y3484070D03*
X5241429Y3837623D03*
X4887876Y4191176D03*
X4534322Y4544730D03*
X4180769Y4898283D03*
X3827215Y5251837D03*
X3473662Y5605390D03*
X3120109Y5958943D03*
X2766555Y6312497D03*
X2413002Y6666050D03*
X2059449Y7019604D03*
X1705895Y7373157D03*
X1352342Y7726710D03*
D56*
X-1352342Y7726710D03*
X-1705895Y7373157D03*
X-2059449Y7019604D03*
X-2413002Y6666050D03*
X-2766555Y6312497D03*
X-3120109Y5958943D03*
X-3473662Y5605390D03*
X-3827215Y5251837D03*
X-4180769Y4898283D03*
X-4534322Y4544730D03*
X-4887876Y4191176D03*
X-5241429Y3837623D03*
X-5594982Y3484070D03*
X-5948536Y3130516D03*
X-6302089Y2776963D03*
X-6655643Y2423410D03*
X-7009196Y2069856D03*
X-7362749Y1716303D03*
X-7716303Y1362749D03*
X-8069856Y1009196D03*
X-8423410Y655643D03*
X-8776963Y302089D03*
X-9130516Y-51464D03*
X-9484070Y-405018D03*
X-9837623Y-758571D03*
X-10191176Y-1112124D03*
X-10544730Y-1465678D03*
X-10898283Y-1819231D03*
X-11251837Y-2172785D03*
X-11605390Y-2526338D03*
X-11958943Y-2879891D03*
X-12312497Y-3233445D03*
X-12666050Y-3586998D03*
X-13019604Y-3940551D03*
X-13373157Y-4294105D03*
X-13726710Y-4647658D03*
D57*
X-13726710Y-7352342D03*
X-13373157Y-7705895D03*
X-13019604Y-8059449D03*
X-12666050Y-8413002D03*
X-12312497Y-8766555D03*
X-11958943Y-9120109D03*
X-11605390Y-9473662D03*
X-11251837Y-9827215D03*
X-10898283Y-10180769D03*
X-10544730Y-10534322D03*
X-10191176Y-10887876D03*
X-9837623Y-11241429D03*
X-9484070Y-11594982D03*
X-9130516Y-11948536D03*
X-8776963Y-12302089D03*
X-8423410Y-12655643D03*
X-8069856Y-13009196D03*
X-7716303Y-13362749D03*
X-7362749Y-13716303D03*
X-7009196Y-14069856D03*
X-6655643Y-14423410D03*
X-6302089Y-14776963D03*
X-5948536Y-15130516D03*
X-5594982Y-15484070D03*
X-5241429Y-15837623D03*
X-4887876Y-16191176D03*
X-4534322Y-16544730D03*
X-4180769Y-16898283D03*
X-3827215Y-17251837D03*
X-3473662Y-17605390D03*
X-3120109Y-17958943D03*
X-2766555Y-18312497D03*
X-2413002Y-18666050D03*
X-2059449Y-19019604D03*
X-1705895Y-19373157D03*
X-1352342Y-19726710D03*
%TD*%
D16*
%TO.C,C215*%
X4139411Y-19060589D03*
X3460589Y-19739411D03*
%TD*%
M02*
