%TF.GenerationSoftware,KiCad,Pcbnew,7.0.6*%
%TF.CreationDate,2024-05-08T12:01:16-04:00*%
%TF.ProjectId,ActiveImpactor_Power,41637469-7665-4496-9d70-6163746f725f,rev?*%
%TF.SameCoordinates,Original*%
%TF.FileFunction,Legend,Top*%
%TF.FilePolarity,Positive*%
%FSLAX46Y46*%
G04 Gerber Fmt 4.6, Leading zero omitted, Abs format (unit mm)*
G04 Created by KiCad (PCBNEW 7.0.6) date 2024-05-08 12:01:16*
%MOMM*%
%LPD*%
G01*
G04 APERTURE LIST*
G04 Aperture macros list*
%AMRoundRect*
0 Rectangle with rounded corners*
0 $1 Rounding radius*
0 $2 $3 $4 $5 $6 $7 $8 $9 X,Y pos of 4 corners*
0 Add a 4 corners polygon primitive as box body*
4,1,4,$2,$3,$4,$5,$6,$7,$8,$9,$2,$3,0*
0 Add four circle primitives for the rounded corners*
1,1,$1+$1,$2,$3*
1,1,$1+$1,$4,$5*
1,1,$1+$1,$6,$7*
1,1,$1+$1,$8,$9*
0 Add four rect primitives between the rounded corners*
20,1,$1+$1,$2,$3,$4,$5,0*
20,1,$1+$1,$4,$5,$6,$7,0*
20,1,$1+$1,$6,$7,$8,$9,0*
20,1,$1+$1,$8,$9,$2,$3,0*%
%AMFreePoly0*
4,1,19,0.500000,-0.750000,0.000000,-0.750000,0.000000,-0.744911,-0.071157,-0.744911,-0.207708,-0.704816,-0.327430,-0.627875,-0.420627,-0.520320,-0.479746,-0.390866,-0.500000,-0.250000,-0.500000,0.250000,-0.479746,0.390866,-0.420627,0.520320,-0.327430,0.627875,-0.207708,0.704816,-0.071157,0.744911,0.000000,0.744911,0.000000,0.750000,0.500000,0.750000,0.500000,-0.750000,0.500000,-0.750000,
$1*%
%AMFreePoly1*
4,1,19,0.000000,0.744911,0.071157,0.744911,0.207708,0.704816,0.327430,0.627875,0.420627,0.520320,0.479746,0.390866,0.500000,0.250000,0.500000,-0.250000,0.479746,-0.390866,0.420627,-0.520320,0.327430,-0.627875,0.207708,-0.704816,0.071157,-0.744911,0.000000,-0.744911,0.000000,-0.750000,-0.500000,-0.750000,-0.500000,0.750000,0.000000,0.750000,0.000000,0.744911,0.000000,0.744911,
$1*%
G04 Aperture macros list end*
%ADD10C,0.150000*%
%ADD11C,0.120000*%
%ADD12C,0.127000*%
%ADD13C,0.200000*%
%ADD14RoundRect,0.250000X0.250000X1.500000X-0.250000X1.500000X-0.250000X-1.500000X0.250000X-1.500000X0*%
%ADD15RoundRect,0.250001X0.499999X1.449999X-0.499999X1.449999X-0.499999X-1.449999X0.499999X-1.449999X0*%
%ADD16RoundRect,0.250000X1.000000X0.650000X-1.000000X0.650000X-1.000000X-0.650000X1.000000X-0.650000X0*%
%ADD17RoundRect,0.250000X0.550000X-1.500000X0.550000X1.500000X-0.550000X1.500000X-0.550000X-1.500000X0*%
%ADD18RoundRect,0.225000X-0.225000X-0.250000X0.225000X-0.250000X0.225000X0.250000X-0.225000X0.250000X0*%
%ADD19R,3.500000X2.350000*%
%ADD20RoundRect,0.150000X0.200000X-0.150000X0.200000X0.150000X-0.200000X0.150000X-0.200000X-0.150000X0*%
%ADD21RoundRect,0.150000X0.150000X0.625000X-0.150000X0.625000X-0.150000X-0.625000X0.150000X-0.625000X0*%
%ADD22RoundRect,0.250000X0.350000X0.650000X-0.350000X0.650000X-0.350000X-0.650000X0.350000X-0.650000X0*%
%ADD23RoundRect,0.135000X-0.135000X-0.185000X0.135000X-0.185000X0.135000X0.185000X-0.135000X0.185000X0*%
%ADD24RoundRect,0.218750X-0.218750X-0.256250X0.218750X-0.256250X0.218750X0.256250X-0.218750X0.256250X0*%
%ADD25RoundRect,0.250000X-0.250000X-1.500000X0.250000X-1.500000X0.250000X1.500000X-0.250000X1.500000X0*%
%ADD26RoundRect,0.250001X-0.499999X-1.449999X0.499999X-1.449999X0.499999X1.449999X-0.499999X1.449999X0*%
%ADD27RoundRect,0.135000X0.135000X0.185000X-0.135000X0.185000X-0.135000X-0.185000X0.135000X-0.185000X0*%
%ADD28FreePoly0,90.000000*%
%ADD29FreePoly1,90.000000*%
%ADD30RoundRect,0.140000X0.170000X-0.140000X0.170000X0.140000X-0.170000X0.140000X-0.170000X-0.140000X0*%
%ADD31RoundRect,0.200000X0.200000X0.800000X-0.200000X0.800000X-0.200000X-0.800000X0.200000X-0.800000X0*%
%ADD32RoundRect,0.075000X-0.700000X-0.075000X0.700000X-0.075000X0.700000X0.075000X-0.700000X0.075000X0*%
%ADD33RoundRect,0.075000X-0.075000X-0.700000X0.075000X-0.700000X0.075000X0.700000X-0.075000X0.700000X0*%
%ADD34RoundRect,0.200000X-0.200000X-0.275000X0.200000X-0.275000X0.200000X0.275000X-0.200000X0.275000X0*%
%ADD35RoundRect,0.250000X-0.362500X-1.425000X0.362500X-1.425000X0.362500X1.425000X-0.362500X1.425000X0*%
%ADD36RoundRect,0.102000X1.387500X-1.387500X1.387500X1.387500X-1.387500X1.387500X-1.387500X-1.387500X0*%
%ADD37C,2.979000*%
%ADD38R,0.610000X1.270000*%
%ADD39R,3.910000X3.810000*%
%ADD40R,0.610000X1.020000*%
%ADD41RoundRect,0.250000X-0.650000X0.325000X-0.650000X-0.325000X0.650000X-0.325000X0.650000X0.325000X0*%
%ADD42RoundRect,0.140000X0.140000X0.170000X-0.140000X0.170000X-0.140000X-0.170000X0.140000X-0.170000X0*%
%ADD43RoundRect,0.200000X0.200000X0.275000X-0.200000X0.275000X-0.200000X-0.275000X0.200000X-0.275000X0*%
%ADD44RoundRect,0.250000X0.325000X0.650000X-0.325000X0.650000X-0.325000X-0.650000X0.325000X-0.650000X0*%
%ADD45RoundRect,0.225000X0.250000X-0.225000X0.250000X0.225000X-0.250000X0.225000X-0.250000X-0.225000X0*%
%ADD46C,0.990600*%
%ADD47C,0.787400*%
%ADD48R,1.400000X1.200000*%
%ADD49RoundRect,0.150000X-0.150000X0.512500X-0.150000X-0.512500X0.150000X-0.512500X0.150000X0.512500X0*%
%ADD50RoundRect,0.150000X0.150000X0.200000X-0.150000X0.200000X-0.150000X-0.200000X0.150000X-0.200000X0*%
%ADD51C,4.750000*%
%ADD52RoundRect,0.250000X-0.850000X-0.350000X0.850000X-0.350000X0.850000X0.350000X-0.850000X0.350000X0*%
%ADD53RoundRect,0.249997X-2.950003X-2.650003X2.950003X-2.650003X2.950003X2.650003X-2.950003X2.650003X0*%
%ADD54RoundRect,0.218750X0.218750X0.256250X-0.218750X0.256250X-0.218750X-0.256250X0.218750X-0.256250X0*%
%ADD55RoundRect,0.147500X-0.172500X0.147500X-0.172500X-0.147500X0.172500X-0.147500X0.172500X0.147500X0*%
%ADD56R,1.550000X0.600000*%
%ADD57R,2.600000X3.100000*%
%ADD58RoundRect,0.225000X0.225000X0.250000X-0.225000X0.250000X-0.225000X-0.250000X0.225000X-0.250000X0*%
%ADD59RoundRect,0.140000X-0.170000X0.140000X-0.170000X-0.140000X0.170000X-0.140000X0.170000X0.140000X0*%
%ADD60RoundRect,0.100000X0.100000X-0.637500X0.100000X0.637500X-0.100000X0.637500X-0.100000X-0.637500X0*%
%ADD61RoundRect,0.135000X-0.185000X0.135000X-0.185000X-0.135000X0.185000X-0.135000X0.185000X0.135000X0*%
%ADD62RoundRect,0.135000X0.185000X-0.135000X0.185000X0.135000X-0.185000X0.135000X-0.185000X-0.135000X0*%
%ADD63RoundRect,0.225000X-0.250000X0.225000X-0.250000X-0.225000X0.250000X-0.225000X0.250000X0.225000X0*%
%ADD64RoundRect,0.218750X-0.256250X0.218750X-0.256250X-0.218750X0.256250X-0.218750X0.256250X0.218750X0*%
%ADD65RoundRect,0.250000X-0.787500X-1.025000X0.787500X-1.025000X0.787500X1.025000X-0.787500X1.025000X0*%
%ADD66RoundRect,0.140000X-0.140000X-0.170000X0.140000X-0.170000X0.140000X0.170000X-0.140000X0.170000X0*%
%ADD67RoundRect,0.075000X-0.075000X0.650000X-0.075000X-0.650000X0.075000X-0.650000X0.075000X0.650000X0*%
%ADD68R,3.800000X3.800000*%
%ADD69C,3.800000*%
%ADD70RoundRect,0.250000X0.600000X0.725000X-0.600000X0.725000X-0.600000X-0.725000X0.600000X-0.725000X0*%
%ADD71O,1.700000X1.950000*%
G04 APERTURE END LIST*
D10*
X2450000Y38000000D02*
X2450000Y37000000D01*
X9000000Y37500000D02*
X8000000Y37500000D01*
X3000000Y37500000D02*
X1900000Y37500000D01*
X5593247Y-17440475D02*
X5593247Y-17173809D01*
X6012295Y-17059523D02*
X6012295Y-17440475D01*
X6012295Y-17440475D02*
X5212295Y-17440475D01*
X5212295Y-17440475D02*
X5212295Y-17059523D01*
X6012295Y-16716665D02*
X5212295Y-16716665D01*
X5212295Y-16716665D02*
X6012295Y-16259522D01*
X6012295Y-16259522D02*
X5212295Y-16259522D01*
X-15383966Y-1533333D02*
X-15383966Y-1866666D01*
X-15383966Y-1866666D02*
X-15050633Y-1899999D01*
X-15050633Y-1899999D02*
X-15083966Y-1866666D01*
X-15083966Y-1866666D02*
X-15117300Y-1799999D01*
X-15117300Y-1799999D02*
X-15117300Y-1633333D01*
X-15117300Y-1633333D02*
X-15083966Y-1566666D01*
X-15083966Y-1566666D02*
X-15050633Y-1533333D01*
X-15050633Y-1533333D02*
X-14983966Y-1499999D01*
X-14983966Y-1499999D02*
X-14817300Y-1499999D01*
X-14817300Y-1499999D02*
X-14750633Y-1533333D01*
X-14750633Y-1533333D02*
X-14717300Y-1566666D01*
X-14717300Y-1566666D02*
X-14683966Y-1633333D01*
X-14683966Y-1633333D02*
X-14683966Y-1799999D01*
X-14683966Y-1799999D02*
X-14717300Y-1866666D01*
X-14717300Y-1866666D02*
X-14750633Y-1899999D01*
X-15383966Y-1299999D02*
X-14683966Y-1066666D01*
X-14683966Y-1066666D02*
X-15383966Y-833332D01*
X10886104Y43628572D02*
X10924200Y43590476D01*
X10924200Y43590476D02*
X10962295Y43476191D01*
X10962295Y43476191D02*
X10962295Y43400000D01*
X10962295Y43400000D02*
X10924200Y43285714D01*
X10924200Y43285714D02*
X10848009Y43209524D01*
X10848009Y43209524D02*
X10771819Y43171429D01*
X10771819Y43171429D02*
X10619438Y43133333D01*
X10619438Y43133333D02*
X10505152Y43133333D01*
X10505152Y43133333D02*
X10352771Y43171429D01*
X10352771Y43171429D02*
X10276580Y43209524D01*
X10276580Y43209524D02*
X10200390Y43285714D01*
X10200390Y43285714D02*
X10162295Y43400000D01*
X10162295Y43400000D02*
X10162295Y43476191D01*
X10162295Y43476191D02*
X10200390Y43590476D01*
X10200390Y43590476D02*
X10238485Y43628572D01*
X10962295Y43971429D02*
X10162295Y43971429D01*
X10543247Y43971429D02*
X10543247Y44428572D01*
X10962295Y44428572D02*
X10162295Y44428572D01*
X10962295Y45266667D02*
X10581342Y45000000D01*
X10962295Y44809524D02*
X10162295Y44809524D01*
X10162295Y44809524D02*
X10162295Y45114286D01*
X10162295Y45114286D02*
X10200390Y45190476D01*
X10200390Y45190476D02*
X10238485Y45228571D01*
X10238485Y45228571D02*
X10314676Y45266667D01*
X10314676Y45266667D02*
X10428961Y45266667D01*
X10428961Y45266667D02*
X10505152Y45228571D01*
X10505152Y45228571D02*
X10543247Y45190476D01*
X10543247Y45190476D02*
X10581342Y45114286D01*
X10581342Y45114286D02*
X10581342Y44809524D01*
X10200390Y46028571D02*
X10162295Y45952381D01*
X10162295Y45952381D02*
X10162295Y45838095D01*
X10162295Y45838095D02*
X10200390Y45723809D01*
X10200390Y45723809D02*
X10276580Y45647619D01*
X10276580Y45647619D02*
X10352771Y45609524D01*
X10352771Y45609524D02*
X10505152Y45571428D01*
X10505152Y45571428D02*
X10619438Y45571428D01*
X10619438Y45571428D02*
X10771819Y45609524D01*
X10771819Y45609524D02*
X10848009Y45647619D01*
X10848009Y45647619D02*
X10924200Y45723809D01*
X10924200Y45723809D02*
X10962295Y45838095D01*
X10962295Y45838095D02*
X10962295Y45914286D01*
X10962295Y45914286D02*
X10924200Y46028571D01*
X10924200Y46028571D02*
X10886104Y46066667D01*
X10886104Y46066667D02*
X10619438Y46066667D01*
X10619438Y46066667D02*
X10619438Y45914286D01*
X5173809Y-407200D02*
X5316666Y-454819D01*
X5316666Y-454819D02*
X5554761Y-454819D01*
X5554761Y-454819D02*
X5649999Y-407200D01*
X5649999Y-407200D02*
X5697618Y-359580D01*
X5697618Y-359580D02*
X5745237Y-264342D01*
X5745237Y-264342D02*
X5745237Y-169104D01*
X5745237Y-169104D02*
X5697618Y-73866D01*
X5697618Y-73866D02*
X5649999Y-26247D01*
X5649999Y-26247D02*
X5554761Y21371D01*
X5554761Y21371D02*
X5364285Y68990D01*
X5364285Y68990D02*
X5269047Y116609D01*
X5269047Y116609D02*
X5221428Y164228D01*
X5221428Y164228D02*
X5173809Y259466D01*
X5173809Y259466D02*
X5173809Y354704D01*
X5173809Y354704D02*
X5221428Y449942D01*
X5221428Y449942D02*
X5269047Y497561D01*
X5269047Y497561D02*
X5364285Y545180D01*
X5364285Y545180D02*
X5602380Y545180D01*
X5602380Y545180D02*
X5745237Y497561D01*
X6030952Y545180D02*
X6602380Y545180D01*
X6316666Y-454819D02*
X6316666Y545180D01*
X6888095Y-169104D02*
X7364285Y-169104D01*
X6792857Y-454819D02*
X7126190Y545180D01*
X7126190Y545180D02*
X7459523Y-454819D01*
X7650000Y545180D02*
X8221428Y545180D01*
X7935714Y-454819D02*
X7935714Y545180D01*
X-14366666Y-25516033D02*
X-14366666Y-24816033D01*
X-14366666Y-24816033D02*
X-14199999Y-24816033D01*
X-14199999Y-24816033D02*
X-14099999Y-24849366D01*
X-14099999Y-24849366D02*
X-14033333Y-24916033D01*
X-14033333Y-24916033D02*
X-13999999Y-24982700D01*
X-13999999Y-24982700D02*
X-13966666Y-25116033D01*
X-13966666Y-25116033D02*
X-13966666Y-25216033D01*
X-13966666Y-25216033D02*
X-13999999Y-25349366D01*
X-13999999Y-25349366D02*
X-14033333Y-25416033D01*
X-14033333Y-25416033D02*
X-14099999Y-25482700D01*
X-14099999Y-25482700D02*
X-14199999Y-25516033D01*
X-14199999Y-25516033D02*
X-14366666Y-25516033D01*
X-13666666Y-25149366D02*
X-13433333Y-25149366D01*
X-13333333Y-25516033D02*
X-13666666Y-25516033D01*
X-13666666Y-25516033D02*
X-13666666Y-24816033D01*
X-13666666Y-24816033D02*
X-13333333Y-24816033D01*
X-12800000Y-25149366D02*
X-12700000Y-25182700D01*
X-12700000Y-25182700D02*
X-12666666Y-25216033D01*
X-12666666Y-25216033D02*
X-12633333Y-25282700D01*
X-12633333Y-25282700D02*
X-12633333Y-25382700D01*
X-12633333Y-25382700D02*
X-12666666Y-25449366D01*
X-12666666Y-25449366D02*
X-12700000Y-25482700D01*
X-12700000Y-25482700D02*
X-12766666Y-25516033D01*
X-12766666Y-25516033D02*
X-13033333Y-25516033D01*
X-13033333Y-25516033D02*
X-13033333Y-24816033D01*
X-13033333Y-24816033D02*
X-12800000Y-24816033D01*
X-12800000Y-24816033D02*
X-12733333Y-24849366D01*
X-12733333Y-24849366D02*
X-12700000Y-24882700D01*
X-12700000Y-24882700D02*
X-12666666Y-24949366D01*
X-12666666Y-24949366D02*
X-12666666Y-25016033D01*
X-12666666Y-25016033D02*
X-12700000Y-25082700D01*
X-12700000Y-25082700D02*
X-12733333Y-25116033D01*
X-12733333Y-25116033D02*
X-12800000Y-25149366D01*
X-12800000Y-25149366D02*
X-13033333Y-25149366D01*
X-12333333Y-24816033D02*
X-12333333Y-25382700D01*
X-12333333Y-25382700D02*
X-12300000Y-25449366D01*
X-12300000Y-25449366D02*
X-12266666Y-25482700D01*
X-12266666Y-25482700D02*
X-12200000Y-25516033D01*
X-12200000Y-25516033D02*
X-12066666Y-25516033D01*
X-12066666Y-25516033D02*
X-12000000Y-25482700D01*
X-12000000Y-25482700D02*
X-11966666Y-25449366D01*
X-11966666Y-25449366D02*
X-11933333Y-25382700D01*
X-11933333Y-25382700D02*
X-11933333Y-24816033D01*
X-11233333Y-24849366D02*
X-11300000Y-24816033D01*
X-11300000Y-24816033D02*
X-11400000Y-24816033D01*
X-11400000Y-24816033D02*
X-11500000Y-24849366D01*
X-11500000Y-24849366D02*
X-11566667Y-24916033D01*
X-11566667Y-24916033D02*
X-11600000Y-24982700D01*
X-11600000Y-24982700D02*
X-11633333Y-25116033D01*
X-11633333Y-25116033D02*
X-11633333Y-25216033D01*
X-11633333Y-25216033D02*
X-11600000Y-25349366D01*
X-11600000Y-25349366D02*
X-11566667Y-25416033D01*
X-11566667Y-25416033D02*
X-11500000Y-25482700D01*
X-11500000Y-25482700D02*
X-11400000Y-25516033D01*
X-11400000Y-25516033D02*
X-11333333Y-25516033D01*
X-11333333Y-25516033D02*
X-11233333Y-25482700D01*
X-11233333Y-25482700D02*
X-11200000Y-25449366D01*
X-11200000Y-25449366D02*
X-11200000Y-25216033D01*
X-11200000Y-25216033D02*
X-11333333Y-25216033D01*
X-10919047Y16945180D02*
X-10728571Y16945180D01*
X-10728571Y16945180D02*
X-10633333Y16897561D01*
X-10633333Y16897561D02*
X-10538095Y16802323D01*
X-10538095Y16802323D02*
X-10490476Y16611847D01*
X-10490476Y16611847D02*
X-10490476Y16278514D01*
X-10490476Y16278514D02*
X-10538095Y16088038D01*
X-10538095Y16088038D02*
X-10633333Y15992800D01*
X-10633333Y15992800D02*
X-10728571Y15945180D01*
X-10728571Y15945180D02*
X-10919047Y15945180D01*
X-10919047Y15945180D02*
X-11014285Y15992800D01*
X-11014285Y15992800D02*
X-11109523Y16088038D01*
X-11109523Y16088038D02*
X-11157142Y16278514D01*
X-11157142Y16278514D02*
X-11157142Y16611847D01*
X-11157142Y16611847D02*
X-11109523Y16802323D01*
X-11109523Y16802323D02*
X-11014285Y16897561D01*
X-11014285Y16897561D02*
X-10919047Y16945180D01*
X-10061904Y15945180D02*
X-10061904Y16945180D01*
X-10061904Y16945180D02*
X-9490476Y15945180D01*
X-9490476Y15945180D02*
X-9490476Y16945180D01*
X2042857Y-36259580D02*
X1995238Y-36307200D01*
X1995238Y-36307200D02*
X1852381Y-36354819D01*
X1852381Y-36354819D02*
X1757143Y-36354819D01*
X1757143Y-36354819D02*
X1614286Y-36307200D01*
X1614286Y-36307200D02*
X1519048Y-36211961D01*
X1519048Y-36211961D02*
X1471429Y-36116723D01*
X1471429Y-36116723D02*
X1423810Y-35926247D01*
X1423810Y-35926247D02*
X1423810Y-35783390D01*
X1423810Y-35783390D02*
X1471429Y-35592914D01*
X1471429Y-35592914D02*
X1519048Y-35497676D01*
X1519048Y-35497676D02*
X1614286Y-35402438D01*
X1614286Y-35402438D02*
X1757143Y-35354819D01*
X1757143Y-35354819D02*
X1852381Y-35354819D01*
X1852381Y-35354819D02*
X1995238Y-35402438D01*
X1995238Y-35402438D02*
X2042857Y-35450057D01*
X2661905Y-35354819D02*
X2852381Y-35354819D01*
X2852381Y-35354819D02*
X2947619Y-35402438D01*
X2947619Y-35402438D02*
X3042857Y-35497676D01*
X3042857Y-35497676D02*
X3090476Y-35688152D01*
X3090476Y-35688152D02*
X3090476Y-36021485D01*
X3090476Y-36021485D02*
X3042857Y-36211961D01*
X3042857Y-36211961D02*
X2947619Y-36307200D01*
X2947619Y-36307200D02*
X2852381Y-36354819D01*
X2852381Y-36354819D02*
X2661905Y-36354819D01*
X2661905Y-36354819D02*
X2566667Y-36307200D01*
X2566667Y-36307200D02*
X2471429Y-36211961D01*
X2471429Y-36211961D02*
X2423810Y-36021485D01*
X2423810Y-36021485D02*
X2423810Y-35688152D01*
X2423810Y-35688152D02*
X2471429Y-35497676D01*
X2471429Y-35497676D02*
X2566667Y-35402438D01*
X2566667Y-35402438D02*
X2661905Y-35354819D01*
X3519048Y-36354819D02*
X3519048Y-35354819D01*
X4471428Y-36354819D02*
X3995238Y-36354819D01*
X3995238Y-36354819D02*
X3995238Y-35354819D01*
X-10456752Y41766666D02*
X-10418657Y41880952D01*
X-10418657Y41880952D02*
X-10380561Y41919047D01*
X-10380561Y41919047D02*
X-10304371Y41957143D01*
X-10304371Y41957143D02*
X-10190085Y41957143D01*
X-10190085Y41957143D02*
X-10113895Y41919047D01*
X-10113895Y41919047D02*
X-10075800Y41880952D01*
X-10075800Y41880952D02*
X-10037704Y41804762D01*
X-10037704Y41804762D02*
X-10037704Y41500000D01*
X-10037704Y41500000D02*
X-10837704Y41500000D01*
X-10837704Y41500000D02*
X-10837704Y41766666D01*
X-10837704Y41766666D02*
X-10799609Y41842857D01*
X-10799609Y41842857D02*
X-10761514Y41880952D01*
X-10761514Y41880952D02*
X-10685323Y41919047D01*
X-10685323Y41919047D02*
X-10609133Y41919047D01*
X-10609133Y41919047D02*
X-10532942Y41880952D01*
X-10532942Y41880952D02*
X-10494847Y41842857D01*
X-10494847Y41842857D02*
X-10456752Y41766666D01*
X-10456752Y41766666D02*
X-10456752Y41500000D01*
X-10266276Y42261904D02*
X-10266276Y42642857D01*
X-10037704Y42185714D02*
X-10837704Y42452381D01*
X-10837704Y42452381D02*
X-10037704Y42719047D01*
X-10037704Y43366666D02*
X-10037704Y42985714D01*
X-10037704Y42985714D02*
X-10837704Y42985714D01*
X-10266276Y43595237D02*
X-10266276Y43976190D01*
X-10037704Y43519047D02*
X-10837704Y43785714D01*
X-10837704Y43785714D02*
X-10037704Y44052380D01*
X-10037704Y44319047D02*
X-10837704Y44319047D01*
X-10837704Y44319047D02*
X-10037704Y44776190D01*
X-10037704Y44776190D02*
X-10837704Y44776190D01*
X-10113895Y45614285D02*
X-10075800Y45576189D01*
X-10075800Y45576189D02*
X-10037704Y45461904D01*
X-10037704Y45461904D02*
X-10037704Y45385713D01*
X-10037704Y45385713D02*
X-10075800Y45271427D01*
X-10075800Y45271427D02*
X-10151990Y45195237D01*
X-10151990Y45195237D02*
X-10228180Y45157142D01*
X-10228180Y45157142D02*
X-10380561Y45119046D01*
X-10380561Y45119046D02*
X-10494847Y45119046D01*
X-10494847Y45119046D02*
X-10647228Y45157142D01*
X-10647228Y45157142D02*
X-10723419Y45195237D01*
X-10723419Y45195237D02*
X-10799609Y45271427D01*
X-10799609Y45271427D02*
X-10837704Y45385713D01*
X-10837704Y45385713D02*
X-10837704Y45461904D01*
X-10837704Y45461904D02*
X-10799609Y45576189D01*
X-10799609Y45576189D02*
X-10761514Y45614285D01*
X-10456752Y45957142D02*
X-10456752Y46223808D01*
X-10037704Y46338094D02*
X-10037704Y45957142D01*
X-10037704Y45957142D02*
X-10837704Y45957142D01*
X-10837704Y45957142D02*
X-10837704Y46338094D01*
X-15550633Y-17049999D02*
X-15517300Y-16949999D01*
X-15517300Y-16949999D02*
X-15483966Y-16916665D01*
X-15483966Y-16916665D02*
X-15417300Y-16883332D01*
X-15417300Y-16883332D02*
X-15317300Y-16883332D01*
X-15317300Y-16883332D02*
X-15250633Y-16916665D01*
X-15250633Y-16916665D02*
X-15217300Y-16949999D01*
X-15217300Y-16949999D02*
X-15183966Y-17016665D01*
X-15183966Y-17016665D02*
X-15183966Y-17283332D01*
X-15183966Y-17283332D02*
X-15883966Y-17283332D01*
X-15883966Y-17283332D02*
X-15883966Y-17049999D01*
X-15883966Y-17049999D02*
X-15850633Y-16983332D01*
X-15850633Y-16983332D02*
X-15817300Y-16949999D01*
X-15817300Y-16949999D02*
X-15750633Y-16916665D01*
X-15750633Y-16916665D02*
X-15683966Y-16916665D01*
X-15683966Y-16916665D02*
X-15617300Y-16949999D01*
X-15617300Y-16949999D02*
X-15583966Y-16983332D01*
X-15583966Y-16983332D02*
X-15550633Y-17049999D01*
X-15550633Y-17049999D02*
X-15550633Y-17283332D01*
X-15883966Y-16449999D02*
X-15883966Y-16316665D01*
X-15883966Y-16316665D02*
X-15850633Y-16249999D01*
X-15850633Y-16249999D02*
X-15783966Y-16183332D01*
X-15783966Y-16183332D02*
X-15650633Y-16149999D01*
X-15650633Y-16149999D02*
X-15417300Y-16149999D01*
X-15417300Y-16149999D02*
X-15283966Y-16183332D01*
X-15283966Y-16183332D02*
X-15217300Y-16249999D01*
X-15217300Y-16249999D02*
X-15183966Y-16316665D01*
X-15183966Y-16316665D02*
X-15183966Y-16449999D01*
X-15183966Y-16449999D02*
X-15217300Y-16516665D01*
X-15217300Y-16516665D02*
X-15283966Y-16583332D01*
X-15283966Y-16583332D02*
X-15417300Y-16616665D01*
X-15417300Y-16616665D02*
X-15650633Y-16616665D01*
X-15650633Y-16616665D02*
X-15783966Y-16583332D01*
X-15783966Y-16583332D02*
X-15850633Y-16516665D01*
X-15850633Y-16516665D02*
X-15883966Y-16449999D01*
X-15883966Y-15716666D02*
X-15883966Y-15583332D01*
X-15883966Y-15583332D02*
X-15850633Y-15516666D01*
X-15850633Y-15516666D02*
X-15783966Y-15449999D01*
X-15783966Y-15449999D02*
X-15650633Y-15416666D01*
X-15650633Y-15416666D02*
X-15417300Y-15416666D01*
X-15417300Y-15416666D02*
X-15283966Y-15449999D01*
X-15283966Y-15449999D02*
X-15217300Y-15516666D01*
X-15217300Y-15516666D02*
X-15183966Y-15583332D01*
X-15183966Y-15583332D02*
X-15183966Y-15716666D01*
X-15183966Y-15716666D02*
X-15217300Y-15783332D01*
X-15217300Y-15783332D02*
X-15283966Y-15849999D01*
X-15283966Y-15849999D02*
X-15417300Y-15883332D01*
X-15417300Y-15883332D02*
X-15650633Y-15883332D01*
X-15650633Y-15883332D02*
X-15783966Y-15849999D01*
X-15783966Y-15849999D02*
X-15850633Y-15783332D01*
X-15850633Y-15783332D02*
X-15883966Y-15716666D01*
X-15883966Y-15216666D02*
X-15883966Y-14816666D01*
X-15183966Y-15016666D02*
X-15883966Y-15016666D01*
X-15383966Y-5433333D02*
X-15383966Y-4999999D01*
X-15383966Y-4999999D02*
X-15117300Y-5233333D01*
X-15117300Y-5233333D02*
X-15117300Y-5133333D01*
X-15117300Y-5133333D02*
X-15083966Y-5066666D01*
X-15083966Y-5066666D02*
X-15050633Y-5033333D01*
X-15050633Y-5033333D02*
X-14983966Y-4999999D01*
X-14983966Y-4999999D02*
X-14817300Y-4999999D01*
X-14817300Y-4999999D02*
X-14750633Y-5033333D01*
X-14750633Y-5033333D02*
X-14717300Y-5066666D01*
X-14717300Y-5066666D02*
X-14683966Y-5133333D01*
X-14683966Y-5133333D02*
X-14683966Y-5333333D01*
X-14683966Y-5333333D02*
X-14717300Y-5399999D01*
X-14717300Y-5399999D02*
X-14750633Y-5433333D01*
X-14750633Y-4699999D02*
X-14717300Y-4666666D01*
X-14717300Y-4666666D02*
X-14683966Y-4699999D01*
X-14683966Y-4699999D02*
X-14717300Y-4733332D01*
X-14717300Y-4733332D02*
X-14750633Y-4699999D01*
X-14750633Y-4699999D02*
X-14683966Y-4699999D01*
X-15383966Y-4433333D02*
X-15383966Y-3999999D01*
X-15383966Y-3999999D02*
X-15117300Y-4233333D01*
X-15117300Y-4233333D02*
X-15117300Y-4133333D01*
X-15117300Y-4133333D02*
X-15083966Y-4066666D01*
X-15083966Y-4066666D02*
X-15050633Y-4033333D01*
X-15050633Y-4033333D02*
X-14983966Y-3999999D01*
X-14983966Y-3999999D02*
X-14817300Y-3999999D01*
X-14817300Y-3999999D02*
X-14750633Y-4033333D01*
X-14750633Y-4033333D02*
X-14717300Y-4066666D01*
X-14717300Y-4066666D02*
X-14683966Y-4133333D01*
X-14683966Y-4133333D02*
X-14683966Y-4333333D01*
X-14683966Y-4333333D02*
X-14717300Y-4399999D01*
X-14717300Y-4399999D02*
X-14750633Y-4433333D01*
X-15383966Y-3799999D02*
X-14683966Y-3566666D01*
X-14683966Y-3566666D02*
X-15383966Y-3333332D01*
X-11252380Y25745180D02*
X-11061904Y25745180D01*
X-11061904Y25745180D02*
X-10966666Y25697561D01*
X-10966666Y25697561D02*
X-10871428Y25602323D01*
X-10871428Y25602323D02*
X-10823809Y25411847D01*
X-10823809Y25411847D02*
X-10823809Y25078514D01*
X-10823809Y25078514D02*
X-10871428Y24888038D01*
X-10871428Y24888038D02*
X-10966666Y24792800D01*
X-10966666Y24792800D02*
X-11061904Y24745180D01*
X-11061904Y24745180D02*
X-11252380Y24745180D01*
X-11252380Y24745180D02*
X-11347618Y24792800D01*
X-11347618Y24792800D02*
X-11442856Y24888038D01*
X-11442856Y24888038D02*
X-11490475Y25078514D01*
X-11490475Y25078514D02*
X-11490475Y25411847D01*
X-11490475Y25411847D02*
X-11442856Y25602323D01*
X-11442856Y25602323D02*
X-11347618Y25697561D01*
X-11347618Y25697561D02*
X-11252380Y25745180D01*
X-10061904Y25268990D02*
X-10395237Y25268990D01*
X-10395237Y24745180D02*
X-10395237Y25745180D01*
X-10395237Y25745180D02*
X-9919047Y25745180D01*
X-9204761Y25268990D02*
X-9538094Y25268990D01*
X-9538094Y24745180D02*
X-9538094Y25745180D01*
X-9538094Y25745180D02*
X-9061904Y25745180D01*
D11*
%TO.C,J105*%
X9460000Y38440000D02*
X8440000Y38440000D01*
X9460000Y42690000D02*
X9460000Y38440000D01*
X8440000Y38440000D02*
X8440000Y40040000D01*
X8440000Y40040000D02*
X7160000Y40040000D01*
X7740000Y46260000D02*
X3060000Y46260000D01*
X7160000Y40040000D02*
X7160000Y37150000D01*
X2360000Y38440000D02*
X2360000Y40040000D01*
X2360000Y40040000D02*
X3640000Y40040000D01*
X1340000Y38440000D02*
X2360000Y38440000D01*
X1340000Y42690000D02*
X1340000Y38440000D01*
%TO.C,D101*%
X3110000Y9750000D02*
X3110000Y13050000D01*
X3110000Y9750000D02*
X-2400000Y9750000D01*
X3110000Y13050000D02*
X-2400000Y13050000D01*
%TO.C,C101*%
X6452500Y20462500D02*
X6452500Y21250000D01*
X6058750Y20856250D02*
X6846250Y20856250D01*
X5954437Y21490000D02*
X7240000Y21490000D01*
X5954437Y21490000D02*
X4890000Y22554437D01*
X10645563Y21490000D02*
X9360000Y21490000D01*
X10645563Y21490000D02*
X11710000Y22554437D01*
X4890000Y22554437D02*
X4890000Y28310000D01*
X11710000Y22554437D02*
X11710000Y28310000D01*
X4890000Y28310000D02*
X7240000Y28310000D01*
X11710000Y28310000D02*
X9360000Y28310000D01*
%TO.C,C303*%
X8759420Y12310000D02*
X9040580Y12310000D01*
X8759420Y11290000D02*
X9040580Y11290000D01*
%TO.C,L101*%
X-5440000Y10860000D02*
X-6990000Y10860000D01*
X-5440000Y10860000D02*
X-5440000Y3340000D01*
X-12560000Y10860000D02*
X-11010000Y10860000D01*
X-12560000Y10860000D02*
X-12560000Y3340000D01*
X-5440000Y3340000D02*
X-6990000Y3340000D01*
X-12560000Y3340000D02*
X-11010000Y3340000D01*
%TO.C,D302*%
X-11000000Y-33740000D02*
X-12200000Y-33740000D01*
X-11000000Y-35700000D02*
X-11000000Y-33740000D01*
X-12200000Y-35700000D02*
X-12200000Y-33740000D01*
%TO.C,J104*%
X10000Y41815000D02*
X-1040000Y41815000D01*
X10000Y44315000D02*
X10000Y41815000D01*
X-1040000Y41815000D02*
X-1040000Y40825000D01*
X-1160000Y46285000D02*
X-8040000Y46285000D01*
X-9210000Y41815000D02*
X-8160000Y41815000D01*
X-9210000Y44315000D02*
X-9210000Y41815000D01*
%TO.C,R201*%
X8146359Y-1220000D02*
X8453641Y-1220000D01*
X8146359Y-1980000D02*
X8453641Y-1980000D01*
%TO.C,D102*%
X-13285000Y-665000D02*
X-13285000Y-2135000D01*
X-13285000Y-2135000D02*
X-11000000Y-2135000D01*
X-11000000Y-665000D02*
X-13285000Y-665000D01*
%TO.C,J301*%
X-4060000Y-38440000D02*
X-3040000Y-38440000D01*
X-4060000Y-42690000D02*
X-4060000Y-38440000D01*
X-3040000Y-38440000D02*
X-3040000Y-40040000D01*
X-3040000Y-40040000D02*
X-1760000Y-40040000D01*
X-2340000Y-46260000D02*
X2340000Y-46260000D01*
X-1760000Y-40040000D02*
X-1760000Y-37150000D01*
X3040000Y-38440000D02*
X3040000Y-40040000D01*
X3040000Y-40040000D02*
X1760000Y-40040000D01*
X4060000Y-38440000D02*
X3040000Y-38440000D01*
X4060000Y-42690000D02*
X4060000Y-38440000D01*
%TO.C,R101*%
X4246359Y-17720000D02*
X4553641Y-17720000D01*
X4246359Y-18480000D02*
X4553641Y-18480000D01*
%TO.C,R205*%
X-9546359Y-20880000D02*
X-9853641Y-20880000D01*
X-9546359Y-20120000D02*
X-9853641Y-20120000D01*
%TO.C,JP201*%
X-13500000Y-17500000D02*
X-14100000Y-17500000D01*
X-14800000Y-16800000D02*
X-14800000Y-15400000D01*
X-12800000Y-15400000D02*
X-12800000Y-16800000D01*
X-14100000Y-14700000D02*
X-13500000Y-14700000D01*
X-14800000Y-16800000D02*
G75*
G03*
X-14100000Y-17500000I699999J-1D01*
G01*
X-13500000Y-17500000D02*
G75*
G03*
X-12800000Y-16800000I1J699999D01*
G01*
X-14100000Y-14700000D02*
G75*
G03*
X-14800000Y-15400000I0J-700000D01*
G01*
X-12800000Y-15400000D02*
G75*
G03*
X-13500000Y-14700000I-700000J0D01*
G01*
%TO.C,C209*%
X-11360000Y-15507836D02*
X-11360000Y-15292164D01*
X-10640000Y-15507836D02*
X-10640000Y-15292164D01*
%TO.C,R102*%
X5453641Y-14780000D02*
X5146359Y-14780000D01*
X5453641Y-14020000D02*
X5146359Y-14020000D01*
%TO.C,R204*%
X-11846359Y-13830000D02*
X-12153641Y-13830000D01*
X-11846359Y-13070000D02*
X-12153641Y-13070000D01*
%TO.C,SW201*%
X8570000Y-5670000D02*
X4430000Y-5670000D01*
X8570000Y-5370000D02*
X8570000Y-5670000D01*
X8570000Y-2530000D02*
X8570000Y-2830000D01*
X4430000Y-5670000D02*
X4430000Y-5370000D01*
X4430000Y-2830000D02*
X4430000Y-2530000D01*
X4430000Y-2530000D02*
X8570000Y-2530000D01*
%TO.C,U201*%
X-7910000Y-8290000D02*
X-7910000Y-9240000D01*
X-7910000Y-9240000D02*
X-9250000Y-9240000D01*
X-7910000Y-18510000D02*
X-7910000Y-17560000D01*
X-6960000Y-8290000D02*
X-7910000Y-8290000D01*
X-6960000Y-18510000D02*
X-7910000Y-18510000D01*
X1360000Y-8290000D02*
X2310000Y-8290000D01*
X1360000Y-18510000D02*
X2310000Y-18510000D01*
X2310000Y-8290000D02*
X2310000Y-9240000D01*
X2310000Y-18510000D02*
X2310000Y-17560000D01*
%TO.C,R107*%
X-12037258Y622500D02*
X-11562742Y622500D01*
X-12037258Y-422500D02*
X-11562742Y-422500D01*
%TO.C,R302*%
X-5077064Y-32990000D02*
X-722936Y-32990000D01*
X-5077064Y-36410000D02*
X-722936Y-36410000D01*
D12*
%TO.C,SW101*%
X-4664000Y14015000D02*
X3700000Y14015000D01*
X-7770000Y15400000D02*
X-7770000Y26200000D01*
X-12490000Y17750000D02*
X-12490000Y23850000D01*
X-7775000Y17750000D02*
X-12490000Y17750000D01*
X-12490000Y23850000D02*
X-7775000Y23850000D01*
X-4664000Y27585000D02*
X3700000Y27585000D01*
D13*
X5150000Y16100000D02*
G75*
G03*
X5150000Y16100000I-100000J0D01*
G01*
D11*
%TO.C,Q303*%
X4830000Y-32600000D02*
X4830000Y-26255000D01*
X9970000Y-32145000D02*
X9970000Y-26255000D01*
%TO.C,C102*%
X8010000Y7611252D02*
X8010000Y6188748D01*
X6190000Y7611252D02*
X6190000Y6188748D01*
%TO.C,C208*%
X-5692164Y-20960000D02*
X-5907836Y-20960000D01*
X-5692164Y-20240000D02*
X-5907836Y-20240000D01*
%TO.C,C205*%
X-7962164Y-8010000D02*
X-8177836Y-8010000D01*
X-7962164Y-7290000D02*
X-8177836Y-7290000D01*
%TO.C,R110*%
X637258Y-29422500D02*
X162742Y-29422500D01*
X637258Y-28377500D02*
X162742Y-28377500D01*
%TO.C,G\u002A\u002A\u002A*%
G36*
X11366863Y-14221212D02*
G01*
X11366863Y-14767448D01*
X10355084Y-14767448D01*
X9343304Y-14767448D01*
X9343304Y-14227419D01*
X9343304Y-13687390D01*
X9423999Y-13687390D01*
X9504693Y-13687390D01*
X9504693Y-14140518D01*
X9504693Y-14593646D01*
X9877127Y-14593646D01*
X10249561Y-14593646D01*
X10249561Y-14183969D01*
X10249561Y-13774291D01*
X10330255Y-13774291D01*
X10410949Y-13774291D01*
X10410949Y-14183969D01*
X10410949Y-14593646D01*
X10808212Y-14593646D01*
X11205475Y-14593646D01*
X11205475Y-14134311D01*
X11205475Y-13674975D01*
X11286169Y-13674975D01*
X11366863Y-13674975D01*
X11366863Y-14221212D01*
G37*
G36*
X13635306Y-12104042D02*
G01*
X13730712Y-12126508D01*
X13811274Y-12168014D01*
X13853805Y-12203663D01*
X13883553Y-12235414D01*
X13906797Y-12266518D01*
X13924410Y-12300626D01*
X13937266Y-12341387D01*
X13946237Y-12392452D01*
X13952197Y-12457472D01*
X13956019Y-12540095D01*
X13958527Y-12641471D01*
X13963620Y-12905278D01*
X13571497Y-12905278D01*
X13179375Y-12905278D01*
X13179375Y-12670015D01*
X13180086Y-12567518D01*
X13182640Y-12485765D01*
X13187668Y-12420698D01*
X13195799Y-12368260D01*
X13207665Y-12324396D01*
X13223895Y-12285049D01*
X13245121Y-12246161D01*
X13245301Y-12245861D01*
X13294616Y-12184151D01*
X13358963Y-12139890D01*
X13439997Y-12112225D01*
X13526106Y-12100948D01*
X13635306Y-12104042D01*
G37*
G36*
X14162176Y-18971237D02*
G01*
X14259391Y-18977544D01*
X14343212Y-18987225D01*
X14398894Y-18997949D01*
X14524019Y-19037532D01*
X14628111Y-19088847D01*
X14712473Y-19152781D01*
X14778405Y-19230216D01*
X14804524Y-19273628D01*
X14831496Y-19331232D01*
X14851665Y-19392143D01*
X14865805Y-19460927D01*
X14874694Y-19542151D01*
X14879105Y-19640382D01*
X14879941Y-19717717D01*
X14880157Y-19919452D01*
X14029766Y-19919452D01*
X13179375Y-19919452D01*
X13179590Y-19717717D01*
X13181444Y-19605585D01*
X13187256Y-19513509D01*
X13197803Y-19436924D01*
X13213860Y-19371262D01*
X13236202Y-19311956D01*
X13255008Y-19273628D01*
X13315176Y-19186949D01*
X13395772Y-19113889D01*
X13496225Y-19054818D01*
X13615964Y-19010109D01*
X13688368Y-18992084D01*
X13761190Y-18980762D01*
X13851073Y-18973067D01*
X13951925Y-18968948D01*
X14057657Y-18968355D01*
X14162176Y-18971237D01*
G37*
G36*
X11588803Y-21794050D02*
G01*
X11893989Y-21794092D01*
X12176194Y-21794168D01*
X12436344Y-21794285D01*
X12675362Y-21794448D01*
X12894173Y-21794663D01*
X13093701Y-21794935D01*
X13274871Y-21795270D01*
X13438608Y-21795673D01*
X13585834Y-21796150D01*
X13717476Y-21796707D01*
X13834457Y-21797349D01*
X13937701Y-21798082D01*
X14028134Y-21798911D01*
X14106678Y-21799843D01*
X14174260Y-21800882D01*
X14231803Y-21802034D01*
X14280231Y-21803305D01*
X14320469Y-21804701D01*
X14353442Y-21806227D01*
X14380073Y-21807888D01*
X14401287Y-21809691D01*
X14418008Y-21811641D01*
X14428452Y-21813254D01*
X14599033Y-21853976D01*
X14765987Y-21915001D01*
X14923077Y-21993715D01*
X15039442Y-22069109D01*
X15145690Y-22155767D01*
X15249184Y-22257749D01*
X15345617Y-22369765D01*
X15430682Y-22486524D01*
X15500072Y-22602736D01*
X15536501Y-22679694D01*
X15582311Y-22803815D01*
X15619228Y-22932615D01*
X15645673Y-23059117D01*
X15660064Y-23176339D01*
X15662268Y-23235013D01*
X15662268Y-23296187D01*
X11931721Y-23296187D01*
X8201174Y-23296187D01*
X8201174Y-22545112D01*
X8201174Y-21794037D01*
X11259714Y-21794037D01*
X11588803Y-21794050D01*
G37*
G36*
X9416768Y-17100852D02*
G01*
X9443269Y-17114439D01*
X9489077Y-17138161D01*
X9551511Y-17170620D01*
X9627892Y-17210420D01*
X9715537Y-17256163D01*
X9811768Y-17306450D01*
X9913902Y-17359886D01*
X9976700Y-17392771D01*
X10463169Y-17647605D01*
X10915016Y-17647605D01*
X11366863Y-17647605D01*
X11366863Y-17734506D01*
X11366863Y-17821407D01*
X10914767Y-17821407D01*
X10462672Y-17821407D01*
X9907242Y-18113147D01*
X9798923Y-18169999D01*
X9697418Y-18223192D01*
X9604814Y-18271637D01*
X9523203Y-18314245D01*
X9454674Y-18349926D01*
X9401317Y-18377591D01*
X9365222Y-18396151D01*
X9348479Y-18404517D01*
X9347558Y-18404887D01*
X9345515Y-18393490D01*
X9344008Y-18363367D01*
X9343320Y-18320617D01*
X9343304Y-18312763D01*
X9343304Y-18220638D01*
X9815000Y-17980676D01*
X9914818Y-17929753D01*
X10007441Y-17882224D01*
X10090596Y-17839277D01*
X10162010Y-17802097D01*
X10219409Y-17771872D01*
X10260521Y-17749788D01*
X10283071Y-17737033D01*
X10286750Y-17734376D01*
X10276023Y-17727669D01*
X10245342Y-17711094D01*
X10196993Y-17685822D01*
X10133259Y-17653027D01*
X10056428Y-17613880D01*
X9968784Y-17569553D01*
X9872611Y-17521218D01*
X9815054Y-17492424D01*
X9343304Y-17256810D01*
X9343304Y-17160289D01*
X9343304Y-17063768D01*
X9416768Y-17100852D01*
G37*
G36*
X9999894Y-11939064D02*
G01*
X10034378Y-11946837D01*
X10141068Y-11983667D01*
X10227948Y-12035317D01*
X10295325Y-12102059D01*
X10343511Y-12184166D01*
X10361633Y-12234897D01*
X10368772Y-12255639D01*
X10374204Y-12253861D01*
X10378966Y-12241104D01*
X10421754Y-12144003D01*
X10478419Y-12067289D01*
X10549467Y-12010428D01*
X10632094Y-11973894D01*
X10658871Y-11966338D01*
X10686640Y-11960493D01*
X10718952Y-11956145D01*
X10759360Y-11953081D01*
X10811415Y-11951086D01*
X10878669Y-11949946D01*
X10964673Y-11949447D01*
X11039187Y-11949364D01*
X11366863Y-11949364D01*
X11366863Y-12036266D01*
X11366863Y-12123167D01*
X11040133Y-12123167D01*
X10924899Y-12123562D01*
X10831479Y-12125091D01*
X10756863Y-12128273D01*
X10698042Y-12133626D01*
X10652007Y-12141667D01*
X10615751Y-12152913D01*
X10586264Y-12167884D01*
X10560538Y-12187097D01*
X10536793Y-12209800D01*
X10512985Y-12236038D01*
X10494362Y-12262181D01*
X10480213Y-12291717D01*
X10469828Y-12328130D01*
X10462497Y-12374907D01*
X10457511Y-12435534D01*
X10454159Y-12513496D01*
X10451731Y-12612279D01*
X10451404Y-12629057D01*
X10446127Y-12905278D01*
X10906495Y-12905278D01*
X11366863Y-12905278D01*
X11366863Y-12992180D01*
X11366863Y-13079081D01*
X10355084Y-13079081D01*
X9504693Y-13079081D01*
X9343304Y-13079081D01*
X9343357Y-12905278D01*
X9504693Y-12905278D01*
X9896815Y-12905278D01*
X10288938Y-12905278D01*
X10283845Y-12641471D01*
X10281660Y-12547465D01*
X10278983Y-12474562D01*
X10275501Y-12419039D01*
X10270899Y-12377170D01*
X10264866Y-12345232D01*
X10257087Y-12319498D01*
X10256686Y-12318411D01*
X10216134Y-12243565D01*
X10156810Y-12183034D01*
X10081061Y-12138078D01*
X9991235Y-12109956D01*
X9889677Y-12099928D01*
X9851424Y-12100948D01*
X9754395Y-12114761D01*
X9675503Y-12144420D01*
X9613093Y-12190781D01*
X9570619Y-12245861D01*
X9549353Y-12284761D01*
X9533087Y-12324089D01*
X9521191Y-12367905D01*
X9513034Y-12420263D01*
X9507986Y-12485220D01*
X9505415Y-12566834D01*
X9504693Y-12669160D01*
X9504693Y-12670015D01*
X9504693Y-12905278D01*
X9343357Y-12905278D01*
X9343398Y-12771823D01*
X9344284Y-12640786D01*
X9347195Y-12531315D01*
X9352645Y-12440195D01*
X9361149Y-12364208D01*
X9373219Y-12300140D01*
X9389369Y-12244773D01*
X9410112Y-12194891D01*
X9435963Y-12147279D01*
X9445614Y-12131655D01*
X9506276Y-12058410D01*
X9584092Y-12000221D01*
X9675710Y-11958141D01*
X9777783Y-11933220D01*
X9886961Y-11926511D01*
X9999894Y-11939064D01*
G37*
G36*
X10820803Y-18790481D02*
G01*
X10867587Y-18802752D01*
X10921894Y-18819685D01*
X10978587Y-18839664D01*
X11032530Y-18861075D01*
X11078584Y-18882301D01*
X11083475Y-18884832D01*
X11160003Y-18933413D01*
X11230920Y-18993908D01*
X11289696Y-19060080D01*
X11324851Y-19115378D01*
X11362845Y-19214399D01*
X11384669Y-19326122D01*
X11389623Y-19443826D01*
X11377005Y-19560789D01*
X11373270Y-19579160D01*
X11336031Y-19693533D01*
X11276991Y-19797440D01*
X11197322Y-19889838D01*
X11098195Y-19969683D01*
X10980781Y-20035930D01*
X10846253Y-20087536D01*
X10783383Y-20104977D01*
X10639610Y-20132313D01*
X10482070Y-20147663D01*
X10318551Y-20151029D01*
X10156842Y-20142408D01*
X10004733Y-20121801D01*
X9926784Y-20105058D01*
X9782151Y-20059038D01*
X9655917Y-19997949D01*
X9548721Y-19922519D01*
X9461199Y-19833475D01*
X9393989Y-19731548D01*
X9347728Y-19617463D01*
X9323054Y-19491951D01*
X9318875Y-19410459D01*
X9329304Y-19284736D01*
X9360725Y-19172174D01*
X9413178Y-19072722D01*
X9486704Y-18986334D01*
X9581344Y-18912959D01*
X9697137Y-18852549D01*
X9820857Y-18808823D01*
X9869952Y-18795812D01*
X9909815Y-18787523D01*
X9934704Y-18785039D01*
X9939809Y-18786386D01*
X9947923Y-18802455D01*
X9960564Y-18834822D01*
X9973270Y-18871369D01*
X9998181Y-18946795D01*
X9928343Y-18961663D01*
X9822230Y-18991462D01*
X9725288Y-19032721D01*
X9641697Y-19083043D01*
X9575633Y-19140033D01*
X9541429Y-19183590D01*
X9509749Y-19241518D01*
X9490474Y-19299249D01*
X9481845Y-19364679D01*
X9482106Y-19445708D01*
X9482271Y-19449277D01*
X9486781Y-19510099D01*
X9495244Y-19556915D01*
X9510246Y-19600513D01*
X9527521Y-19637944D01*
X9584223Y-19725210D01*
X9661800Y-19799301D01*
X9760026Y-19860127D01*
X9878674Y-19907597D01*
X10017518Y-19941620D01*
X10176332Y-19962106D01*
X10354888Y-19968964D01*
X10355084Y-19968964D01*
X10534343Y-19962121D01*
X10693543Y-19941635D01*
X10832530Y-19907566D01*
X10951148Y-19859976D01*
X11049245Y-19798928D01*
X11126666Y-19724482D01*
X11182646Y-19637944D01*
X11204315Y-19589615D01*
X11217487Y-19546227D01*
X11224749Y-19496994D01*
X11227896Y-19449277D01*
X11228466Y-19367483D01*
X11220216Y-19301594D01*
X11201387Y-19243713D01*
X11170221Y-19185939D01*
X11168738Y-19183590D01*
X11117788Y-19123300D01*
X11046318Y-19067962D01*
X10958508Y-19019971D01*
X10858536Y-18981724D01*
X10781824Y-18961663D01*
X10711986Y-18946795D01*
X10736897Y-18871369D01*
X10751120Y-18830708D01*
X10763406Y-18799766D01*
X10770358Y-18786386D01*
X10786681Y-18784488D01*
X10820803Y-18790481D01*
G37*
G36*
X10864077Y-15368025D02*
G01*
X10984102Y-15388175D01*
X11088789Y-15427697D01*
X11177793Y-15486331D01*
X11250772Y-15563816D01*
X11307380Y-15659890D01*
X11332354Y-15723362D01*
X11340106Y-15748192D01*
X11346294Y-15773265D01*
X11351141Y-15801805D01*
X11354872Y-15837038D01*
X11357711Y-15882187D01*
X11359881Y-15940477D01*
X11361607Y-16015133D01*
X11363112Y-16109380D01*
X11364039Y-16179594D01*
X11368780Y-16555132D01*
X10396435Y-16555132D01*
X10354897Y-16555132D01*
X9504693Y-16555132D01*
X9341013Y-16555132D01*
X9343575Y-16381329D01*
X9504693Y-16381329D01*
X9872042Y-16381329D01*
X10239391Y-16381329D01*
X10396435Y-16381329D01*
X10801955Y-16381329D01*
X11207475Y-16381329D01*
X11203308Y-16092693D01*
X11201921Y-16000798D01*
X11200483Y-15930012D01*
X11198584Y-15876616D01*
X11195819Y-15836892D01*
X11191779Y-15807124D01*
X11186056Y-15783592D01*
X11178244Y-15762578D01*
X11167935Y-15740365D01*
X11163749Y-15731798D01*
X11116382Y-15659823D01*
X11053503Y-15606256D01*
X10974524Y-15570817D01*
X10878854Y-15553228D01*
X10784603Y-15552070D01*
X10677572Y-15566810D01*
X10587787Y-15599391D01*
X10515263Y-15649805D01*
X10460018Y-15718040D01*
X10433155Y-15772514D01*
X10423988Y-15797701D01*
X10416983Y-15823611D01*
X10411767Y-15854205D01*
X10407965Y-15893445D01*
X10405203Y-15945292D01*
X10403107Y-16013707D01*
X10401302Y-16102651D01*
X10401150Y-16111315D01*
X10396435Y-16381329D01*
X10239391Y-16381329D01*
X10234168Y-16136144D01*
X10231732Y-16043803D01*
X10228639Y-15972510D01*
X10224553Y-15918482D01*
X10219143Y-15877940D01*
X10212074Y-15847104D01*
X10207418Y-15833072D01*
X10170343Y-15765475D01*
X10114913Y-15705674D01*
X10047583Y-15660452D01*
X10039382Y-15656499D01*
X9991452Y-15641645D01*
X9928807Y-15632325D01*
X9859029Y-15628597D01*
X9789698Y-15630523D01*
X9728396Y-15638161D01*
X9682704Y-15651573D01*
X9678495Y-15653644D01*
X9628349Y-15683915D01*
X9588477Y-15718266D01*
X9557804Y-15759746D01*
X9535255Y-15811407D01*
X9519754Y-15876299D01*
X9510226Y-15957473D01*
X9505597Y-16057978D01*
X9504693Y-16146762D01*
X9504693Y-16381329D01*
X9343575Y-16381329D01*
X9346182Y-16204423D01*
X9348422Y-16084122D01*
X9351638Y-15985417D01*
X9356417Y-15905076D01*
X9363348Y-15839871D01*
X9373018Y-15786570D01*
X9386015Y-15741943D01*
X9402927Y-15702759D01*
X9424343Y-15665789D01*
X9450849Y-15627802D01*
X9451211Y-15627312D01*
X9497931Y-15572380D01*
X9549374Y-15530912D01*
X9614001Y-15496605D01*
X9643020Y-15484436D01*
X9704834Y-15467632D01*
X9782115Y-15458121D01*
X9866604Y-15455881D01*
X9950043Y-15460889D01*
X10024171Y-15473122D01*
X10065170Y-15485603D01*
X10145087Y-15528059D01*
X10214902Y-15586560D01*
X10268219Y-15655438D01*
X10278991Y-15675148D01*
X10296895Y-15710282D01*
X10307160Y-15725528D01*
X10313182Y-15723242D01*
X10318353Y-15705780D01*
X10319038Y-15702943D01*
X10346699Y-15630788D01*
X10392292Y-15558455D01*
X10450039Y-15493149D01*
X10514167Y-15442072D01*
X10539928Y-15427430D01*
X10619364Y-15396906D01*
X10711553Y-15376016D01*
X10805623Y-15366753D01*
X10864077Y-15368025D01*
G37*
G36*
X13989565Y-11294460D02*
G01*
X15805035Y-11297605D01*
X15808151Y-17155043D01*
X15808389Y-17612836D01*
X15808602Y-18046444D01*
X15808788Y-18456512D01*
X15808945Y-18843684D01*
X15809071Y-19208605D01*
X15809165Y-19551918D01*
X15809224Y-19874268D01*
X15809248Y-20176300D01*
X15809235Y-20458657D01*
X15809182Y-20721984D01*
X15809088Y-20966925D01*
X15808951Y-21194124D01*
X15808769Y-21404227D01*
X15808541Y-21597877D01*
X15808265Y-21775718D01*
X15807939Y-21938395D01*
X15807561Y-22086552D01*
X15807130Y-22220834D01*
X15806644Y-22341884D01*
X15806101Y-22450347D01*
X15805499Y-22546868D01*
X15804837Y-22632090D01*
X15804113Y-22706659D01*
X15803325Y-22771217D01*
X15802471Y-22826411D01*
X15801550Y-22872883D01*
X15800560Y-22911279D01*
X15799499Y-22942242D01*
X15798365Y-22966417D01*
X15797156Y-22984448D01*
X15795872Y-22996980D01*
X15794509Y-23004657D01*
X15793067Y-23008122D01*
X15792224Y-23008464D01*
X15779631Y-22994569D01*
X15761669Y-22957828D01*
X15738894Y-22899509D01*
X15718014Y-22839459D01*
X15642376Y-22639828D01*
X15555930Y-22461631D01*
X15457955Y-22303616D01*
X15347735Y-22164531D01*
X15304081Y-22117998D01*
X15183739Y-22008235D01*
X15053069Y-21914405D01*
X14909904Y-21835561D01*
X14752076Y-21770755D01*
X14577420Y-21719038D01*
X14383768Y-21679464D01*
X14260386Y-21661511D01*
X14218849Y-21656662D01*
X14175903Y-21652622D01*
X14129039Y-21649334D01*
X14075747Y-21646743D01*
X14013515Y-21644792D01*
X13939834Y-21643425D01*
X13852194Y-21642585D01*
X13748083Y-21642217D01*
X13624993Y-21642265D01*
X13480412Y-21642672D01*
X13427664Y-21642875D01*
X13192274Y-21643271D01*
X13015574Y-21642529D01*
X12978681Y-21642374D01*
X12783881Y-21640060D01*
X12604869Y-21636205D01*
X12438642Y-21630685D01*
X12282195Y-21623376D01*
X12132524Y-21614154D01*
X11986624Y-21602893D01*
X11841491Y-21589471D01*
X11694122Y-21573764D01*
X11659508Y-21569804D01*
X11308131Y-21521484D01*
X10976715Y-21460199D01*
X10665558Y-21386028D01*
X10374958Y-21299049D01*
X10105213Y-21199341D01*
X9895748Y-21106187D01*
X9717367Y-21014897D01*
X9558747Y-20922238D01*
X9414901Y-20824823D01*
X9280842Y-20719263D01*
X9151586Y-20602171D01*
X9146177Y-20596940D01*
X8994025Y-20436163D01*
X8863155Y-20268535D01*
X8751249Y-20090355D01*
X8655994Y-19897926D01*
X8575073Y-19687545D01*
X8572765Y-19680687D01*
X8547097Y-19599631D01*
X8530622Y-19537902D01*
X8523136Y-19496132D01*
X8524437Y-19474949D01*
X8534319Y-19474986D01*
X8552579Y-19496873D01*
X8579012Y-19541240D01*
X8602945Y-19587365D01*
X8676561Y-19715592D01*
X8770541Y-19847489D01*
X8881505Y-19979461D01*
X9006074Y-20107914D01*
X9140870Y-20229253D01*
X9282513Y-20339885D01*
X9361926Y-20394744D01*
X9554450Y-20508749D01*
X9750927Y-20600220D01*
X9949926Y-20668775D01*
X10150019Y-20714034D01*
X10349775Y-20735615D01*
X10547765Y-20733138D01*
X10609580Y-20727309D01*
X10837712Y-20691779D01*
X11051105Y-20639240D01*
X11248784Y-20570111D01*
X11429771Y-20484812D01*
X11593090Y-20383762D01*
X11737762Y-20267380D01*
X11783068Y-20223850D01*
X11882364Y-20113742D01*
X11897079Y-20093255D01*
X13015574Y-20093255D01*
X14029766Y-20093255D01*
X15043958Y-20093255D01*
X15038164Y-19767375D01*
X15035783Y-19656097D01*
X15032887Y-19566529D01*
X15029273Y-19495555D01*
X15024737Y-19440057D01*
X15019078Y-19396919D01*
X15012093Y-19363024D01*
X15011804Y-19361896D01*
X14969856Y-19241965D01*
X14909892Y-19132845D01*
X14834450Y-19037872D01*
X14746064Y-18960382D01*
X14672644Y-18915664D01*
X14551829Y-18865915D01*
X14414281Y-18828608D01*
X14264766Y-18803773D01*
X14108054Y-18791439D01*
X13948914Y-18791635D01*
X13792115Y-18804392D01*
X13642425Y-18829737D01*
X13504612Y-18867701D01*
X13404658Y-18907867D01*
X13316785Y-18960326D01*
X13234149Y-19029793D01*
X13163107Y-19110017D01*
X13110012Y-19194746D01*
X13107215Y-19200508D01*
X13084794Y-19249813D01*
X13066898Y-19295709D01*
X13052953Y-19341980D01*
X13042387Y-19392411D01*
X13034626Y-19450787D01*
X13029098Y-19520891D01*
X13025228Y-19606509D01*
X13022445Y-19711424D01*
X13021368Y-19767375D01*
X13017987Y-19957537D01*
X13015574Y-20093255D01*
X11897079Y-20093255D01*
X11965146Y-19998486D01*
X12033860Y-19873537D01*
X12090955Y-19734352D01*
X12138876Y-19576386D01*
X12145360Y-19551043D01*
X12147330Y-19542063D01*
X12149178Y-19530818D01*
X12150907Y-19516508D01*
X12152524Y-19498331D01*
X12154033Y-19475487D01*
X12155438Y-19447175D01*
X12156745Y-19412593D01*
X12157958Y-19370940D01*
X12159082Y-19321415D01*
X12160123Y-19263218D01*
X12161083Y-19195546D01*
X12161969Y-19117600D01*
X12162786Y-19028577D01*
X12163537Y-18927677D01*
X12164229Y-18814099D01*
X12164865Y-18687042D01*
X12165450Y-18545704D01*
X12165990Y-18389285D01*
X12166268Y-18293157D01*
X13017987Y-18293157D01*
X13098681Y-18293157D01*
X13179375Y-18293157D01*
X13179375Y-18057282D01*
X13179375Y-17821407D01*
X14029766Y-17821407D01*
X14880157Y-17821407D01*
X14880157Y-18057282D01*
X14880157Y-18293157D01*
X14960851Y-18293157D01*
X15041545Y-18293157D01*
X15041545Y-17734506D01*
X15041545Y-17175855D01*
X14960851Y-17175855D01*
X14880157Y-17175855D01*
X14880157Y-17411730D01*
X14880157Y-17647605D01*
X14029766Y-17647605D01*
X13179375Y-17647605D01*
X13179375Y-17411730D01*
X13179375Y-17175855D01*
X13098681Y-17175855D01*
X13024194Y-17175855D01*
X13017987Y-17175855D01*
X13017987Y-17734506D01*
X13017987Y-18293157D01*
X12166268Y-18293157D01*
X12166489Y-18216983D01*
X12166951Y-18027997D01*
X12167382Y-17821527D01*
X12167787Y-17596770D01*
X12168170Y-17352927D01*
X12168536Y-17089196D01*
X12168889Y-16804776D01*
X12169129Y-16593039D01*
X13019570Y-16593039D01*
X13020405Y-16636718D01*
X13020516Y-16639440D01*
X13024194Y-16726739D01*
X14017351Y-16417054D01*
X14168953Y-16369775D01*
X14313881Y-16324564D01*
X14450364Y-16281974D01*
X14576632Y-16242558D01*
X14690912Y-16206870D01*
X14791435Y-16175462D01*
X14876430Y-16148889D01*
X14944126Y-16127703D01*
X14992752Y-16112458D01*
X15020537Y-16103706D01*
X15026513Y-16101786D01*
X15034660Y-16091234D01*
X15038918Y-16064431D01*
X15039663Y-16017962D01*
X15038928Y-15989005D01*
X15035338Y-15881807D01*
X14029766Y-15567839D01*
X13024194Y-15253871D01*
X13020506Y-15341653D01*
X13020357Y-15393670D01*
X13024720Y-15427154D01*
X13030646Y-15437981D01*
X13044538Y-15442893D01*
X13080287Y-15454364D01*
X13135973Y-15471806D01*
X13209676Y-15494628D01*
X13299475Y-15522242D01*
X13403450Y-15554058D01*
X13519680Y-15589487D01*
X13646246Y-15627941D01*
X13781227Y-15668829D01*
X13897140Y-15703851D01*
X14038642Y-15746562D01*
X14174108Y-15787464D01*
X14301517Y-15825948D01*
X14418851Y-15861402D01*
X14524089Y-15893215D01*
X14615211Y-15920778D01*
X14690198Y-15943478D01*
X14747030Y-15960707D01*
X14783687Y-15971852D01*
X14796979Y-15975931D01*
X14844153Y-15990687D01*
X14691456Y-16036936D01*
X14652151Y-16048832D01*
X14591650Y-16067129D01*
X14512526Y-16091051D01*
X14417352Y-16119820D01*
X14308702Y-16152658D01*
X14189147Y-16188787D01*
X14061262Y-16227431D01*
X13927617Y-16267811D01*
X13790787Y-16309149D01*
X13784376Y-16311086D01*
X13652640Y-16350954D01*
X13528012Y-16388808D01*
X13412513Y-16424024D01*
X13308164Y-16455981D01*
X13216987Y-16484054D01*
X13141003Y-16507621D01*
X13082233Y-16526060D01*
X13042699Y-16538747D01*
X13024423Y-16545059D01*
X13023416Y-16545564D01*
X13020645Y-16560357D01*
X13019570Y-16593039D01*
X12169129Y-16593039D01*
X12169236Y-16498865D01*
X12169579Y-16170664D01*
X12169925Y-15819370D01*
X12170278Y-15444182D01*
X12170338Y-15378820D01*
X12170900Y-14767448D01*
X13017987Y-14767448D01*
X14029766Y-14767448D01*
X15041545Y-14767448D01*
X15041545Y-14221212D01*
X15041545Y-13674975D01*
X14960851Y-13674975D01*
X14880157Y-13674975D01*
X14880157Y-14134311D01*
X14880157Y-14593646D01*
X14482894Y-14593646D01*
X14085631Y-14593646D01*
X14085631Y-14183969D01*
X14085631Y-13774291D01*
X14004937Y-13774291D01*
X13924243Y-13774291D01*
X13924243Y-14183969D01*
X13924243Y-14593646D01*
X13551809Y-14593646D01*
X13179375Y-14593646D01*
X13179375Y-14140518D01*
X13179375Y-13687390D01*
X13098681Y-13687390D01*
X13017987Y-13687390D01*
X13017987Y-14227419D01*
X13017987Y-14767448D01*
X12170900Y-14767448D01*
X12172452Y-13079081D01*
X13017987Y-13079081D01*
X14029766Y-13079081D01*
X15041545Y-13079081D01*
X15041545Y-12992180D01*
X15041545Y-12905278D01*
X14581177Y-12905278D01*
X14120809Y-12905278D01*
X14126086Y-12629057D01*
X14128437Y-12526859D01*
X14131605Y-12446005D01*
X14136302Y-12383008D01*
X14143237Y-12334381D01*
X14153120Y-12296640D01*
X14166661Y-12266298D01*
X14184570Y-12239868D01*
X14207557Y-12213866D01*
X14211475Y-12209800D01*
X14236416Y-12186068D01*
X14262254Y-12167072D01*
X14291997Y-12152292D01*
X14328655Y-12141211D01*
X14375235Y-12133311D01*
X14434746Y-12128075D01*
X14510198Y-12124984D01*
X14604598Y-12123521D01*
X14714815Y-12123167D01*
X15041545Y-12123167D01*
X15041545Y-12036266D01*
X15041545Y-11949364D01*
X14713869Y-11949364D01*
X14612372Y-11949538D01*
X14532150Y-11950200D01*
X14469653Y-11951565D01*
X14421328Y-11953847D01*
X14383624Y-11957260D01*
X14352989Y-11962019D01*
X14325871Y-11968336D01*
X14306776Y-11973894D01*
X14221377Y-12012111D01*
X14150847Y-12069668D01*
X14094683Y-12147096D01*
X14053649Y-12241104D01*
X14046961Y-12256895D01*
X14041438Y-12251193D01*
X14036316Y-12234897D01*
X13998348Y-12144394D01*
X13941355Y-12069403D01*
X13865027Y-12009652D01*
X13769054Y-11964866D01*
X13709060Y-11946837D01*
X13595649Y-11928235D01*
X13484978Y-11929213D01*
X13380397Y-11948722D01*
X13285254Y-11985709D01*
X13202899Y-12039124D01*
X13136681Y-12107914D01*
X13120296Y-12131655D01*
X13092663Y-12179224D01*
X13070306Y-12228009D01*
X13052710Y-12281228D01*
X13039362Y-12342096D01*
X13029748Y-12413830D01*
X13023356Y-12499646D01*
X13019670Y-12602761D01*
X13018179Y-12726389D01*
X13018081Y-12771823D01*
X13017987Y-13079081D01*
X12172452Y-13079081D01*
X12174096Y-11291315D01*
X13989565Y-11294460D01*
G37*
%TO.C,C306*%
X-11788748Y-29010000D02*
X-13211252Y-29010000D01*
X-11788748Y-27190000D02*
X-13211252Y-27190000D01*
%TO.C,C104*%
X-5210000Y9459420D02*
X-5210000Y9740580D01*
X-4190000Y9459420D02*
X-4190000Y9740580D01*
%TO.C,Q301*%
X-9970000Y-32600000D02*
X-9970000Y-26255000D01*
X-4830000Y-32145000D02*
X-4830000Y-26255000D01*
%TO.C,J201*%
X-14005000Y-19465000D02*
X-13370000Y-19465000D01*
X-14005000Y-20100000D02*
X-14005000Y-19465000D01*
%TO.C,Y201*%
X-11000000Y-12900000D02*
X-11000000Y-9600000D01*
X-11000000Y-9600000D02*
X-15000000Y-9600000D01*
%TO.C,R206*%
X-9546359Y-19880000D02*
X-9853641Y-19880000D01*
X-9546359Y-19120000D02*
X-9853641Y-19120000D01*
%TO.C,U102*%
X-6940000Y-4400000D02*
X-6940000Y-2600000D01*
X-6940000Y-4400000D02*
X-6940000Y-5200000D01*
X-10060000Y-4400000D02*
X-10060000Y-3600000D01*
X-10060000Y-4400000D02*
X-10060000Y-5200000D01*
%TO.C,C212*%
X-10360000Y-18207836D02*
X-10360000Y-17992164D01*
X-9640000Y-18207836D02*
X-9640000Y-17992164D01*
%TO.C,C203*%
X1359420Y-20390000D02*
X1640580Y-20390000D01*
X1359420Y-21410000D02*
X1640580Y-21410000D01*
%TO.C,C202*%
X-8942164Y-9010000D02*
X-9157836Y-9010000D01*
X-8942164Y-8290000D02*
X-9157836Y-8290000D01*
%TO.C,D303*%
X-14060000Y-38300000D02*
X-14060000Y-39500000D01*
X-12100000Y-38300000D02*
X-14060000Y-38300000D01*
X-12100000Y-39500000D02*
X-14060000Y-39500000D01*
%TO.C,U301*%
X7855000Y19550000D02*
X7855000Y19280000D01*
X7855000Y19280000D02*
X5025000Y19280000D01*
X7855000Y12920000D02*
X6755000Y12920000D01*
X7855000Y12650000D02*
X7855000Y12920000D01*
X14275000Y19550000D02*
X7855000Y19550000D01*
X14275000Y12650000D02*
X7855000Y12650000D01*
%TO.C,R104*%
X-4137258Y3922500D02*
X-3662742Y3922500D01*
X-4137258Y2877500D02*
X-3662742Y2877500D01*
%TO.C,D309*%
X12140000Y-38300000D02*
X12140000Y-39500000D01*
X14100000Y-38300000D02*
X12140000Y-38300000D01*
X14100000Y-39500000D02*
X12140000Y-39500000D01*
%TO.C,D301*%
X-14160000Y-30500000D02*
X-14160000Y-31700000D01*
X-12200000Y-30500000D02*
X-14160000Y-30500000D01*
X-12200000Y-31700000D02*
X-14160000Y-31700000D01*
%TO.C,R103*%
X5453641Y-15780000D02*
X5146359Y-15780000D01*
X5453641Y-15020000D02*
X5146359Y-15020000D01*
%TO.C,C213*%
X-13892164Y-13810000D02*
X-14107836Y-13810000D01*
X-13892164Y-13090000D02*
X-14107836Y-13090000D01*
%TO.C,D306*%
X4500000Y-29540000D02*
X3300000Y-29540000D01*
X4500000Y-31500000D02*
X4500000Y-29540000D01*
X3300000Y-31500000D02*
X3300000Y-29540000D01*
%TO.C,C210*%
X-10360000Y-15507836D02*
X-10360000Y-15292164D01*
X-9640000Y-15507836D02*
X-9640000Y-15292164D01*
%TO.C,R106*%
X-11562742Y1077500D02*
X-12037258Y1077500D01*
X-11562742Y2122500D02*
X-12037258Y2122500D01*
%TO.C,D201*%
X7285000Y-2335000D02*
X7285000Y-865000D01*
X7285000Y-865000D02*
X5000000Y-865000D01*
X5000000Y-2335000D02*
X7285000Y-2335000D01*
%TO.C,C304*%
X-14992164Y-31360000D02*
X-15207836Y-31360000D01*
X-14992164Y-30640000D02*
X-15207836Y-30640000D01*
%TO.C,D307*%
X11500000Y-39740000D02*
X10300000Y-39740000D01*
X11500000Y-41700000D02*
X11500000Y-39740000D01*
X10300000Y-41700000D02*
X10300000Y-39740000D01*
%TO.C,C204*%
X4190000Y-9290580D02*
X4190000Y-9009420D01*
X5210000Y-9290580D02*
X5210000Y-9009420D01*
%TO.C,C109*%
X-6510000Y-3940580D02*
X-6510000Y-3659420D01*
X-5490000Y-3940580D02*
X-5490000Y-3659420D01*
D10*
%TO.C,U101*%
X-2225000Y9470000D02*
X-2225000Y9420000D01*
X-2225000Y9470000D02*
X1925000Y9470000D01*
X-2225000Y9420000D02*
X-3625000Y9420000D01*
X-2225000Y4320000D02*
X-2225000Y4465000D01*
X-2225000Y4320000D02*
X1925000Y4320000D01*
X1925000Y9470000D02*
X1925000Y9325000D01*
X1925000Y4320000D02*
X1925000Y4465000D01*
D11*
%TO.C,D308*%
X15000000Y-33740000D02*
X13800000Y-33740000D01*
X15000000Y-35700000D02*
X15000000Y-33740000D01*
X13800000Y-35700000D02*
X13800000Y-33740000D01*
%TO.C,R105*%
X-1137258Y3922500D02*
X-662742Y3922500D01*
X-1137258Y2877500D02*
X-662742Y2877500D01*
%TO.C,C107*%
X540580Y-30910000D02*
X259420Y-30910000D01*
X540580Y-29890000D02*
X259420Y-29890000D01*
%TO.C,G\u002A\u002A\u002A*%
G36*
X10867312Y6194834D02*
G01*
X10899911Y6179553D01*
X10919285Y6149495D01*
X10928272Y6100901D01*
X10929904Y6051790D01*
X10929904Y5955724D01*
X10814624Y5955724D01*
X10699344Y5955724D01*
X10699344Y6049557D01*
X10703386Y6114914D01*
X10717318Y6159078D01*
X10743850Y6185444D01*
X10785693Y6197410D01*
X10818652Y6199092D01*
X10867312Y6194834D01*
G37*
G36*
X11109228Y4002234D02*
G01*
X11109228Y3908436D01*
X10965129Y3947518D01*
X10886570Y3968954D01*
X10830092Y3984725D01*
X10792997Y3995665D01*
X10772585Y4002604D01*
X10766156Y4006376D01*
X10769793Y4007723D01*
X10786368Y4011302D01*
X10822631Y4020277D01*
X10873537Y4033367D01*
X10934043Y4049291D01*
X10945915Y4052453D01*
X11109228Y4096032D01*
X11109228Y4002234D01*
G37*
G36*
X10876699Y5148644D02*
G01*
X10894680Y5136275D01*
X10912377Y5120533D01*
X10922884Y5103338D01*
X10928061Y5077855D01*
X10929769Y5037251D01*
X10929904Y5006937D01*
X10929904Y4905396D01*
X10814624Y4905396D01*
X10699344Y4905396D01*
X10699344Y5000043D01*
X10702637Y5065421D01*
X10714312Y5109950D01*
X10737068Y5137760D01*
X10773603Y5152982D01*
X10802321Y5157687D01*
X10845279Y5158872D01*
X10876699Y5148644D01*
G37*
G36*
X15771659Y5483094D02*
G01*
X15771659Y5407540D01*
X15599561Y5268546D01*
X15427462Y5129551D01*
X15599561Y5125987D01*
X15771659Y5122424D01*
X15771659Y5026719D01*
X15771659Y4931014D01*
X15419415Y4931014D01*
X15067171Y4931014D01*
X15067171Y5004907D01*
X15067171Y5078800D01*
X15246260Y5219455D01*
X15425350Y5360111D01*
X15246260Y5363665D01*
X15067171Y5367219D01*
X15067171Y5462934D01*
X15067171Y5558648D01*
X15419415Y5558648D01*
X15771659Y5558648D01*
X15771659Y5483094D01*
G37*
G36*
X15771659Y7045877D02*
G01*
X15771659Y6970423D01*
X15598509Y6831329D01*
X15425358Y6692234D01*
X15598509Y6688670D01*
X15771659Y6685107D01*
X15771659Y6589401D01*
X15771659Y6493696D01*
X15419415Y6493696D01*
X15067171Y6493696D01*
X15067171Y6567484D01*
X15067171Y6641272D01*
X15246709Y6782033D01*
X15426247Y6922794D01*
X15246709Y6926348D01*
X15067171Y6929901D01*
X15067171Y7025616D01*
X15067171Y7121331D01*
X15419415Y7121331D01*
X15771659Y7121331D01*
X15771659Y7045877D01*
G37*
G36*
X15771659Y8493180D02*
G01*
X15771659Y8417626D01*
X15599561Y8278631D01*
X15427462Y8139637D01*
X15599561Y8136073D01*
X15771659Y8132509D01*
X15771659Y8036804D01*
X15771659Y7941099D01*
X15419415Y7941099D01*
X15067171Y7941099D01*
X15067171Y8014992D01*
X15067171Y8088886D01*
X15246260Y8229541D01*
X15425350Y8370197D01*
X15246260Y8373751D01*
X15067171Y8377304D01*
X15067171Y8473019D01*
X15067171Y8568734D01*
X15419415Y8568734D01*
X15771659Y8568734D01*
X15771659Y8493180D01*
G37*
G36*
X15771659Y6154261D02*
G01*
X15771659Y5904488D01*
X15419415Y5904488D01*
X15067171Y5904488D01*
X15067171Y6147857D01*
X15067171Y6391225D01*
X15150429Y6391225D01*
X15233686Y6391225D01*
X15233686Y6243923D01*
X15233686Y6096621D01*
X15284922Y6096621D01*
X15336157Y6096621D01*
X15336157Y6224710D01*
X15336157Y6352799D01*
X15413011Y6352799D01*
X15489864Y6352799D01*
X15489864Y6224710D01*
X15489864Y6096621D01*
X15547504Y6096621D01*
X15605144Y6096621D01*
X15605144Y6250328D01*
X15605144Y6404034D01*
X15688401Y6404034D01*
X15771659Y6404034D01*
X15771659Y6154261D01*
G37*
G36*
X12748667Y7298502D02*
G01*
X12798169Y7282430D01*
X12834814Y7251753D01*
X12838990Y7245523D01*
X12848204Y7227934D01*
X12854854Y7207192D01*
X12859349Y7179029D01*
X12862096Y7139174D01*
X12863502Y7083358D01*
X12863976Y7007309D01*
X12863996Y6983636D01*
X12864044Y6762683D01*
X12709529Y6762683D01*
X12555014Y6762683D01*
X12559025Y6992984D01*
X12560557Y7075001D01*
X12562247Y7135396D01*
X12564651Y7178161D01*
X12568326Y7207287D01*
X12573831Y7226768D01*
X12581722Y7240594D01*
X12592558Y7252759D01*
X12595746Y7255963D01*
X12640182Y7285580D01*
X12693580Y7299656D01*
X12748667Y7298502D01*
G37*
G36*
X13525858Y7368046D02*
G01*
X13581065Y7346930D01*
X13624770Y7307868D01*
X13628957Y7301963D01*
X13639074Y7285708D01*
X13646543Y7268738D01*
X13651765Y7247064D01*
X13655140Y7216697D01*
X13657069Y7173646D01*
X13657952Y7113922D01*
X13658189Y7033534D01*
X13658195Y7010562D01*
X13658195Y6762683D01*
X13491679Y6762683D01*
X13325164Y6762683D01*
X13325164Y7025847D01*
X13325244Y7114280D01*
X13325737Y7180743D01*
X13327023Y7228885D01*
X13329481Y7262355D01*
X13333491Y7284800D01*
X13339432Y7299869D01*
X13347684Y7311210D01*
X13355714Y7319561D01*
X13406735Y7354776D01*
X13465599Y7370800D01*
X13525858Y7368046D01*
G37*
G36*
X13342754Y5202524D02*
G01*
X13347221Y5170774D01*
X13349860Y5116219D01*
X13350779Y5037516D01*
X13350782Y5032114D01*
X13350328Y4958772D01*
X13348764Y4907849D01*
X13345779Y4876161D01*
X13341068Y4860522D01*
X13334320Y4857747D01*
X13333933Y4857885D01*
X13317407Y4862946D01*
X13279688Y4873816D01*
X13224286Y4889507D01*
X13154706Y4909028D01*
X13074456Y4931392D01*
X13001472Y4951622D01*
X12916265Y4975306D01*
X12839980Y4996746D01*
X12775852Y5015015D01*
X12727117Y5029183D01*
X12697009Y5038322D01*
X12688492Y5041464D01*
X12701501Y5045740D01*
X12735302Y5055367D01*
X12785883Y5069284D01*
X12849235Y5086429D01*
X12921345Y5105744D01*
X12998203Y5126166D01*
X13075798Y5146635D01*
X13150120Y5166089D01*
X13217156Y5183470D01*
X13272897Y5197714D01*
X13313332Y5207763D01*
X13334449Y5212554D01*
X13336353Y5212809D01*
X13342754Y5202524D01*
G37*
G36*
X15771659Y3005081D02*
G01*
X15771659Y2898364D01*
X15662784Y2831832D01*
X15612451Y2800307D01*
X15580422Y2777497D01*
X15562677Y2759547D01*
X15555199Y2742603D01*
X15553908Y2727380D01*
X15553908Y2689460D01*
X15662784Y2689460D01*
X15771659Y2689460D01*
X15771659Y2593394D01*
X15771659Y2497327D01*
X15419415Y2497327D01*
X15232408Y2497327D01*
X15067171Y2497327D01*
X15067171Y2677063D01*
X15067413Y2689460D01*
X15232408Y2689460D01*
X15310540Y2689460D01*
X15388671Y2689460D01*
X15384830Y2762999D01*
X15381289Y2805828D01*
X15374112Y2830791D01*
X15359948Y2845636D01*
X15345764Y2853360D01*
X15314113Y2863640D01*
X15284732Y2857601D01*
X15275315Y2853360D01*
X15254960Y2840919D01*
X15243725Y2823291D01*
X15238258Y2792727D01*
X15236249Y2762999D01*
X15232408Y2689460D01*
X15067413Y2689460D01*
X15069076Y2774705D01*
X15075758Y2850691D01*
X15088668Y2908765D01*
X15109259Y2952671D01*
X15138982Y2986153D01*
X15179287Y3012955D01*
X15201664Y3024019D01*
X15277817Y3045745D01*
X15355621Y3044076D01*
X15429350Y3019885D01*
X15486318Y2980656D01*
X15514795Y2954627D01*
X15643227Y3033213D01*
X15771659Y3111799D01*
X15771659Y3005081D01*
G37*
G36*
X15484732Y3801265D02*
G01*
X15569205Y3774613D01*
X15646158Y3726531D01*
X15686360Y3688118D01*
X15738675Y3612634D01*
X15767154Y3530781D01*
X15771349Y3445622D01*
X15750814Y3360221D01*
X15738259Y3331954D01*
X15688750Y3258618D01*
X15624873Y3203157D01*
X15550608Y3165567D01*
X15469932Y3145843D01*
X15439215Y3145155D01*
X15386825Y3143981D01*
X15305264Y3159974D01*
X15229229Y3193819D01*
X15162697Y3245511D01*
X15109647Y3315045D01*
X15100189Y3332720D01*
X15071454Y3417325D01*
X15068805Y3470305D01*
X15232494Y3470305D01*
X15241343Y3418435D01*
X15247529Y3404826D01*
X15276879Y3374090D01*
X15323645Y3350667D01*
X15380274Y3336138D01*
X15439215Y3332083D01*
X15492916Y3340083D01*
X15514987Y3348862D01*
X15562886Y3384526D01*
X15593472Y3430011D01*
X15604757Y3479763D01*
X15594753Y3528231D01*
X15585153Y3544878D01*
X15542904Y3584395D01*
X15486475Y3608652D01*
X15422545Y3617261D01*
X15357796Y3609830D01*
X15298908Y3585969D01*
X15268911Y3563361D01*
X15242131Y3521935D01*
X15232494Y3470305D01*
X15068805Y3470305D01*
X15067157Y3503266D01*
X15086690Y3586515D01*
X15129440Y3663042D01*
X15154772Y3692840D01*
X15227761Y3752275D01*
X15309855Y3790133D01*
X15396897Y3806450D01*
X15484732Y3801265D01*
G37*
G36*
X15771659Y7768179D02*
G01*
X15770547Y7727467D01*
X15765740Y7706258D01*
X15755029Y7698482D01*
X15746041Y7697731D01*
X15725211Y7693492D01*
X15720424Y7687630D01*
X15725801Y7670908D01*
X15739323Y7640814D01*
X15746041Y7627282D01*
X15768555Y7557055D01*
X15765996Y7483328D01*
X15738630Y7405920D01*
X15710109Y7360040D01*
X15674387Y7317273D01*
X15655615Y7300050D01*
X15598759Y7264217D01*
X15530651Y7234837D01*
X15462081Y7215916D01*
X15415655Y7210993D01*
X15326137Y7222259D01*
X15246347Y7253823D01*
X15178467Y7302336D01*
X15124678Y7364450D01*
X15087163Y7436816D01*
X15068102Y7516084D01*
X15069677Y7598905D01*
X15094070Y7681931D01*
X15100295Y7695128D01*
X15126015Y7737755D01*
X15155790Y7774498D01*
X15172538Y7789455D01*
X15211656Y7817309D01*
X15238682Y7780165D01*
X15265799Y7744548D01*
X15291859Y7712583D01*
X15318010Y7682145D01*
X15275848Y7639983D01*
X15246521Y7604146D01*
X15234701Y7568876D01*
X15233686Y7550867D01*
X15240243Y7498312D01*
X15262866Y7460954D01*
X15305982Y7432080D01*
X15314775Y7427937D01*
X15381404Y7407636D01*
X15446541Y7405364D01*
X15505814Y7419276D01*
X15554849Y7447526D01*
X15589274Y7488271D01*
X15604716Y7539666D01*
X15605144Y7550429D01*
X15595974Y7596145D01*
X15572982Y7642642D01*
X15548348Y7671412D01*
X15536624Y7678312D01*
X15530610Y7670824D01*
X15528475Y7644479D01*
X15528290Y7622446D01*
X15528290Y7556833D01*
X15464246Y7556833D01*
X15400202Y7556833D01*
X15400202Y7697731D01*
X15400202Y7838628D01*
X15585930Y7838628D01*
X15771659Y7838628D01*
X15771659Y7768179D01*
G37*
G36*
X15645766Y2401472D02*
G01*
X15686621Y2381140D01*
X15688226Y2379897D01*
X15713151Y2357099D01*
X15732141Y2330513D01*
X15746101Y2296320D01*
X15755940Y2250698D01*
X15762565Y2189825D01*
X15766881Y2109882D01*
X15769043Y2039410D01*
X15774565Y1818457D01*
X15489864Y1818457D01*
X15420868Y1818457D01*
X15220877Y1818457D01*
X15067171Y1818457D01*
X15067213Y2010590D01*
X15220877Y2010590D01*
X15278517Y2010590D01*
X15336157Y2010590D01*
X15489864Y2010590D01*
X15553908Y2010590D01*
X15617953Y2010590D01*
X15617953Y2080205D01*
X15615782Y2125987D01*
X15610243Y2165719D01*
X15606125Y2180929D01*
X15583871Y2213046D01*
X15550324Y2222177D01*
X15521775Y2215490D01*
X15505485Y2207569D01*
X15495948Y2195147D01*
X15491368Y2172116D01*
X15489949Y2132370D01*
X15489864Y2106974D01*
X15489864Y2010590D01*
X15336157Y2010590D01*
X15336157Y2093397D01*
X15334963Y2140001D01*
X15330153Y2167800D01*
X15319883Y2183548D01*
X15309681Y2190374D01*
X15283237Y2197434D01*
X15254776Y2185886D01*
X15252041Y2184125D01*
X15234269Y2169209D01*
X15224857Y2149091D01*
X15221277Y2115904D01*
X15220877Y2087148D01*
X15220877Y2010590D01*
X15067213Y2010590D01*
X15067219Y2039410D01*
X15067538Y2121778D01*
X15068716Y2182759D01*
X15071144Y2226578D01*
X15075213Y2257463D01*
X15081315Y2279638D01*
X15089840Y2297331D01*
X15091324Y2299815D01*
X15132314Y2344447D01*
X15186066Y2371378D01*
X15246150Y2379875D01*
X15306136Y2369204D01*
X15359593Y2338632D01*
X15367652Y2331323D01*
X15409762Y2290509D01*
X15436689Y2334079D01*
X15471419Y2375202D01*
X15516590Y2398766D01*
X15577868Y2407469D01*
X15591210Y2407665D01*
X15645766Y2401472D01*
G37*
G36*
X15422320Y4727027D02*
G01*
X15771065Y4591578D01*
X15771362Y4513431D01*
X15771659Y4435283D01*
X15644322Y4385658D01*
X15593144Y4364922D01*
X15553055Y4347159D01*
X15528654Y4334506D01*
X15523537Y4329480D01*
X15537541Y4322235D01*
X15569937Y4308032D01*
X15615250Y4289223D01*
X15647672Y4276182D01*
X15765255Y4229436D01*
X15769072Y4150962D01*
X15770057Y4106193D01*
X15766589Y4080549D01*
X15757274Y4067719D01*
X15749859Y4064090D01*
X15732153Y4057346D01*
X15693946Y4042602D01*
X15638607Y4021166D01*
X15569503Y3994343D01*
X15490002Y3963438D01*
X15403482Y3929763D01*
X15318004Y3896570D01*
X15240490Y3866655D01*
X15174096Y3841221D01*
X15121977Y3821471D01*
X15087292Y3808609D01*
X15073196Y3803838D01*
X15073114Y3803832D01*
X15070248Y3815596D01*
X15068958Y3846782D01*
X15069448Y3891230D01*
X15069834Y3902694D01*
X15073575Y4001556D01*
X15308421Y4076665D01*
X15380523Y4100277D01*
X15442797Y4121731D01*
X15491681Y4139711D01*
X15523611Y4152899D01*
X15535023Y4159980D01*
X15534872Y4160330D01*
X15518671Y4169162D01*
X15486874Y4182030D01*
X15466542Y4189268D01*
X15406606Y4209651D01*
X15240624Y4154044D01*
X15179850Y4133783D01*
X15128415Y4116826D01*
X15090868Y4104657D01*
X15071756Y4098761D01*
X15070321Y4098437D01*
X15068665Y4110122D01*
X15068471Y4140759D01*
X15069782Y4183725D01*
X15069788Y4183855D01*
X15073575Y4269273D01*
X15163237Y4293946D01*
X15208637Y4307327D01*
X15244130Y4319431D01*
X15262568Y4327803D01*
X15263115Y4328259D01*
X15256527Y4335808D01*
X15230157Y4347654D01*
X15189027Y4361689D01*
X15170251Y4367250D01*
X15067171Y4396600D01*
X15067171Y4478078D01*
X15068548Y4519997D01*
X15072143Y4549456D01*
X15076778Y4559700D01*
X15091885Y4555844D01*
X15126346Y4545200D01*
X15175293Y4529321D01*
X15233860Y4509760D01*
X15243964Y4506336D01*
X15401543Y4452830D01*
X15471321Y4474825D01*
X15509057Y4488161D01*
X15534395Y4499874D01*
X15541099Y4505829D01*
X15529473Y4512286D01*
X15497162Y4524756D01*
X15448021Y4541893D01*
X15385904Y4562351D01*
X15318218Y4583687D01*
X15246099Y4606204D01*
X15182062Y4626651D01*
X15130299Y4643652D01*
X15095001Y4655832D01*
X15080678Y4661596D01*
X15072557Y4680331D01*
X15069172Y4722394D01*
X15069797Y4766565D01*
X15073575Y4862475D01*
X15422320Y4727027D01*
G37*
G36*
X14759758Y5187191D02*
G01*
X14759758Y1728795D01*
X12281240Y1728795D01*
X12069894Y1728795D01*
X12069017Y1728795D01*
X11519112Y1728795D01*
X9802723Y1728795D01*
X9802723Y2740696D01*
X10429545Y2740696D01*
X10433154Y2590192D01*
X10436762Y2439687D01*
X10977937Y2436346D01*
X11519112Y2433005D01*
X11519112Y2522945D01*
X12069894Y2522945D01*
X13107413Y2522945D01*
X14144932Y2522945D01*
X14144932Y3583645D01*
X14144932Y4644346D01*
X13939990Y4706461D01*
X13735048Y4768576D01*
X13735048Y5041265D01*
X13735048Y5313954D01*
X13808699Y5334724D01*
X13853765Y5347962D01*
X13913459Y5366214D01*
X13978074Y5386490D01*
X14010439Y5396855D01*
X14138527Y5438217D01*
X14141965Y5743262D01*
X14142948Y5839300D01*
X14143330Y5912638D01*
X14142921Y5966187D01*
X14141532Y6002862D01*
X14138974Y6025575D01*
X14135058Y6037240D01*
X14129595Y6040770D01*
X14122752Y6039222D01*
X14107503Y6033449D01*
X14070064Y6019427D01*
X14012257Y5997836D01*
X13935904Y5969353D01*
X13842826Y5934659D01*
X13734846Y5894430D01*
X13613786Y5849348D01*
X13481466Y5800089D01*
X13339709Y5747334D01*
X13190338Y5691760D01*
X13107413Y5660914D01*
X12954704Y5604110D01*
X12808635Y5549765D01*
X12671025Y5498557D01*
X12543698Y5451165D01*
X12428473Y5408267D01*
X12327172Y5370541D01*
X12241617Y5338665D01*
X12173629Y5313318D01*
X12125028Y5295177D01*
X12097636Y5284921D01*
X12092310Y5282902D01*
X12084319Y5277619D01*
X12078472Y5266602D01*
X12074441Y5246305D01*
X12071898Y5213184D01*
X12070514Y5163694D01*
X12069963Y5094291D01*
X12069894Y5040789D01*
X12069894Y4807466D01*
X12630282Y4598608D01*
X12767365Y4547511D01*
X12916616Y4491868D01*
X13072170Y4433867D01*
X13228159Y4375695D01*
X13378715Y4319542D01*
X13517971Y4267594D01*
X13640059Y4222041D01*
X13658195Y4215273D01*
X14125719Y4040797D01*
X13885552Y4037312D01*
X13645386Y4033827D01*
X13645386Y3566586D01*
X13645386Y3099344D01*
X12857640Y3099344D01*
X12069894Y3099344D01*
X12069894Y2811145D01*
X12069894Y2522945D01*
X11519112Y2522945D01*
X11519112Y2586850D01*
X11519112Y2740696D01*
X11307766Y2740696D01*
X11096419Y2740696D01*
X11096419Y2920020D01*
X11096419Y3099344D01*
X11307766Y3099344D01*
X11519112Y3099344D01*
X11519112Y3253190D01*
X11519112Y3407035D01*
X11506906Y3406960D01*
X10977937Y3403694D01*
X10436762Y3400353D01*
X10433154Y3249849D01*
X10429545Y3099344D01*
X10634893Y3099344D01*
X10840242Y3099344D01*
X10840242Y2920020D01*
X10840242Y2740696D01*
X10634893Y2740696D01*
X10429545Y2740696D01*
X9802723Y2740696D01*
X9802723Y3949163D01*
X10432529Y3949163D01*
X10435796Y3908455D01*
X10443212Y3886994D01*
X10445914Y3884143D01*
X10461179Y3876914D01*
X10497836Y3861842D01*
X10553241Y3839946D01*
X10624751Y3812248D01*
X10709722Y3779769D01*
X10805511Y3743531D01*
X10909476Y3704553D01*
X10949117Y3689778D01*
X11055995Y3649970D01*
X11156202Y3612573D01*
X11247007Y3578613D01*
X11325676Y3549115D01*
X11389478Y3525104D01*
X11435679Y3507605D01*
X11461548Y3497643D01*
X11465277Y3496134D01*
X11492613Y3486423D01*
X11506906Y3483611D01*
X11511855Y3495744D01*
X11515745Y3529467D01*
X11518267Y3580762D01*
X11519112Y3642119D01*
X11519112Y3800627D01*
X11416641Y3830236D01*
X11314170Y3859846D01*
X11314170Y4002979D01*
X11314170Y4146113D01*
X11416641Y4175290D01*
X11519112Y4204467D01*
X11519112Y4362798D01*
X11518245Y4423088D01*
X11515877Y4472808D01*
X11512362Y4507084D01*
X11508052Y4521037D01*
X11507659Y4521130D01*
X11493477Y4516796D01*
X11457988Y4504447D01*
X11403875Y4485057D01*
X11333820Y4459601D01*
X11250505Y4429055D01*
X11156612Y4394395D01*
X11054822Y4356595D01*
X11036933Y4349930D01*
X10931039Y4310467D01*
X10830011Y4272836D01*
X10737005Y4238211D01*
X10655177Y4207767D01*
X10587682Y4182678D01*
X10537676Y4164117D01*
X10508315Y4153258D01*
X10507211Y4152852D01*
X10436762Y4126974D01*
X10433105Y4012180D01*
X10432529Y3949163D01*
X9802723Y3949163D01*
X9802723Y4604387D01*
X10436762Y4604387D01*
X10977937Y4601046D01*
X11519112Y4597705D01*
X11519112Y4751550D01*
X11519112Y4905396D01*
X11359001Y4905396D01*
X11198890Y4905396D01*
X11198890Y4961101D01*
X11198890Y5016806D01*
X11359001Y5115983D01*
X11519112Y5215160D01*
X11519112Y5386694D01*
X11519112Y5558227D01*
X11381417Y5473163D01*
X11322414Y5436693D01*
X11265434Y5401438D01*
X11217219Y5371573D01*
X11186082Y5352248D01*
X11128442Y5316397D01*
X11083611Y5359312D01*
X11006113Y5417344D01*
X10921216Y5452978D01*
X10832621Y5466903D01*
X10744027Y5459808D01*
X10659134Y5432383D01*
X10581643Y5385317D01*
X10515254Y5319299D01*
X10468240Y5244628D01*
X10458092Y5223042D01*
X10450408Y5202526D01*
X10444844Y5179239D01*
X10441058Y5149336D01*
X10438705Y5108975D01*
X10437444Y5054313D01*
X10436931Y4981507D01*
X10436825Y4892587D01*
X10436762Y4604387D01*
X9802723Y4604387D01*
X9802723Y5187191D01*
X9802723Y5654715D01*
X10436762Y5654715D01*
X10977937Y5651374D01*
X11519112Y5648033D01*
X11519112Y5801878D01*
X11519112Y5955724D01*
X11359001Y5955724D01*
X11198890Y5955724D01*
X11199104Y6010161D01*
X11199317Y6064599D01*
X11359181Y6160666D01*
X11401810Y6186283D01*
X12069017Y6186283D01*
X13098435Y6186283D01*
X13258586Y6186387D01*
X13411312Y6186688D01*
X13554679Y6187170D01*
X13686754Y6187817D01*
X13805602Y6188613D01*
X13909289Y6189543D01*
X13995881Y6190590D01*
X14063444Y6191738D01*
X14110044Y6192972D01*
X14133747Y6194276D01*
X14136393Y6194823D01*
X14138859Y6209798D01*
X14140889Y6247275D01*
X14142497Y6304139D01*
X14143695Y6377278D01*
X14144496Y6463578D01*
X14144912Y6559926D01*
X14144957Y6663209D01*
X14144642Y6770314D01*
X14143981Y6878128D01*
X14142986Y6983537D01*
X14141671Y7083429D01*
X14140047Y7174691D01*
X14138128Y7254208D01*
X14135925Y7318869D01*
X14133453Y7365560D01*
X14131528Y7386189D01*
X14103607Y7526843D01*
X14060117Y7649992D01*
X14001677Y7754377D01*
X13928905Y7838739D01*
X13894947Y7867342D01*
X13832547Y7907887D01*
X13767102Y7934549D01*
X13692406Y7948885D01*
X13602256Y7952452D01*
X13560598Y7951217D01*
X13496212Y7947448D01*
X13448890Y7941640D01*
X13410079Y7931926D01*
X13371226Y7916442D01*
X13345979Y7904417D01*
X13256459Y7846478D01*
X13179009Y7768006D01*
X13117061Y7672589D01*
X13109429Y7657268D01*
X13072755Y7580856D01*
X13056468Y7620176D01*
X13031657Y7659683D01*
X12990184Y7705123D01*
X12938340Y7751052D01*
X12882415Y7792025D01*
X12828699Y7822597D01*
X12816454Y7827936D01*
X12778609Y7841607D01*
X12741561Y7850448D01*
X12698045Y7855434D01*
X12640791Y7857546D01*
X12594359Y7857842D01*
X12530046Y7857522D01*
X12483999Y7855599D01*
X12448865Y7850629D01*
X12417294Y7841168D01*
X12381934Y7825773D01*
X12348792Y7809605D01*
X12249679Y7747520D01*
X12168606Y7668906D01*
X12107807Y7575946D01*
X12106141Y7572596D01*
X12076298Y7512002D01*
X12072658Y6849143D01*
X12069017Y6186283D01*
X11401810Y6186283D01*
X11519044Y6256732D01*
X11519078Y6426450D01*
X11518729Y6489029D01*
X11517747Y6541205D01*
X11516273Y6578267D01*
X11514450Y6595503D01*
X11513997Y6596167D01*
X11501967Y6589777D01*
X11471799Y6572059D01*
X11427122Y6545192D01*
X11371564Y6511356D01*
X11320385Y6479908D01*
X11131889Y6363648D01*
X11098143Y6394589D01*
X11032025Y6447106D01*
X10964234Y6482178D01*
X10905826Y6500712D01*
X10813258Y6511899D01*
X10722396Y6499722D01*
X10637338Y6466320D01*
X10562181Y6413836D01*
X10501024Y6344410D01*
X10460989Y6268306D01*
X10452772Y6244105D01*
X10446618Y6217285D01*
X10442239Y6183857D01*
X10439352Y6139831D01*
X10437669Y6081218D01*
X10436905Y6004026D01*
X10436762Y5930106D01*
X10436762Y5654715D01*
X9802723Y5654715D01*
X9802723Y6692234D01*
X10436762Y6692234D01*
X10977937Y6688893D01*
X11519112Y6685551D01*
X11519112Y6839536D01*
X11519112Y6993521D01*
X11404285Y6992812D01*
X10977937Y6990179D01*
X10436762Y6986838D01*
X10436762Y6839536D01*
X10436762Y6692234D01*
X9802723Y6692234D01*
X9802723Y7556833D01*
X10436762Y7556833D01*
X10437782Y7489578D01*
X10441506Y7440765D01*
X10448928Y7403276D01*
X10461046Y7369993D01*
X10463733Y7364049D01*
X10514538Y7279632D01*
X10579308Y7216613D01*
X10658892Y7174385D01*
X10754138Y7152342D01*
X10760722Y7151611D01*
X10845331Y7152318D01*
X10917973Y7174592D01*
X10982501Y7219849D01*
X11003424Y7240883D01*
X11021395Y7261515D01*
X11037097Y7283211D01*
X11052169Y7309629D01*
X11068254Y7344425D01*
X11086991Y7391259D01*
X11110021Y7453788D01*
X11138984Y7535671D01*
X11150789Y7569474D01*
X11173089Y7623483D01*
X11193489Y7652203D01*
X11202747Y7656991D01*
X11233922Y7653170D01*
X11253670Y7629432D01*
X11262151Y7588705D01*
X11259523Y7533921D01*
X11245947Y7468010D01*
X11221581Y7393901D01*
X11186586Y7314525D01*
X11183803Y7308966D01*
X11165140Y7270362D01*
X11153000Y7242051D01*
X11150019Y7230390D01*
X11165533Y7221075D01*
X11197729Y7204338D01*
X11240584Y7183063D01*
X11288079Y7160136D01*
X11334191Y7138444D01*
X11372901Y7120872D01*
X11398188Y7110305D01*
X11404285Y7108522D01*
X11418100Y7120054D01*
X11436660Y7151418D01*
X11457833Y7197770D01*
X11479487Y7254266D01*
X11499490Y7316060D01*
X11506374Y7340516D01*
X11521831Y7420177D01*
X11529446Y7509495D01*
X11529411Y7601037D01*
X11521918Y7687368D01*
X11507161Y7761053D01*
X11494552Y7796892D01*
X11450106Y7869287D01*
X11390598Y7925675D01*
X11320307Y7965220D01*
X11243515Y7987087D01*
X11164503Y7990439D01*
X11087552Y7974441D01*
X11016943Y7938257D01*
X10972113Y7898888D01*
X10941935Y7860296D01*
X10912940Y7810094D01*
X10883492Y7744733D01*
X10851958Y7660661D01*
X10823982Y7577087D01*
X10800878Y7516724D01*
X10777770Y7480629D01*
X10753417Y7467479D01*
X10728164Y7474933D01*
X10707655Y7502264D01*
X10700863Y7547515D01*
X10707408Y7607215D01*
X10726909Y7677892D01*
X10758984Y7756077D01*
X10759031Y7756176D01*
X10775563Y7796293D01*
X10783021Y7825797D01*
X10781241Y7837340D01*
X10765596Y7847369D01*
X10732762Y7866200D01*
X10688231Y7890728D01*
X10657170Y7907429D01*
X10544547Y7967438D01*
X10514915Y7899831D01*
X10482025Y7821201D01*
X10459648Y7756734D01*
X10445902Y7698174D01*
X10438906Y7637266D01*
X10436780Y7565752D01*
X10436762Y7556833D01*
X9802723Y7556833D01*
X9802723Y8645587D01*
X12281240Y8645587D01*
X14759758Y8645587D01*
X14759758Y5187191D01*
G37*
%TO.C,C309*%
X14560000Y-32642164D02*
X14560000Y-32857836D01*
X13840000Y-32642164D02*
X13840000Y-32857836D01*
%TO.C,C201*%
X-11659420Y-7910000D02*
X-11940580Y-7910000D01*
X-11659420Y-6890000D02*
X-11940580Y-6890000D01*
%TO.C,R112*%
X-12037258Y-5377500D02*
X-11562742Y-5377500D01*
X-12037258Y-6422500D02*
X-11562742Y-6422500D01*
%TO.C,D104*%
X-13285000Y-3665000D02*
X-13285000Y-5135000D01*
X-13285000Y-5135000D02*
X-11000000Y-5135000D01*
X-11000000Y-3665000D02*
X-13285000Y-3665000D01*
%TO.C,U303*%
X-4510000Y-28900000D02*
X-4510000Y-32500000D01*
X-4510000Y-28900000D02*
X-4510000Y-26700000D01*
X-1290000Y-28900000D02*
X-1290000Y-31100000D01*
X-1290000Y-28900000D02*
X-1290000Y-26700000D01*
%TO.C,R303*%
X-10020000Y-34836359D02*
X-10020000Y-35143641D01*
X-10780000Y-34836359D02*
X-10780000Y-35143641D01*
%TO.C,R202*%
X9420000Y-3553641D02*
X9420000Y-3246359D01*
X10180000Y-3553641D02*
X10180000Y-3246359D01*
%TO.C,C305*%
X110000Y-26459420D02*
X110000Y-26740580D01*
X-910000Y-26459420D02*
X-910000Y-26740580D01*
%TO.C,R307*%
X11353641Y-39080000D02*
X11046359Y-39080000D01*
X11353641Y-38320000D02*
X11046359Y-38320000D01*
%TO.C,C301*%
X10859420Y20910000D02*
X11140580Y20910000D01*
X10859420Y19890000D02*
X11140580Y19890000D01*
%TO.C,D103*%
X7935000Y-16515000D02*
X6465000Y-16515000D01*
X6465000Y-16515000D02*
X6465000Y-18800000D01*
X7935000Y-18800000D02*
X7935000Y-16515000D01*
%TO.C,R109*%
X10120000Y-7743641D02*
X10120000Y-7436359D01*
X10880000Y-7743641D02*
X10880000Y-7436359D01*
%TO.C,D310*%
X12140000Y-30500000D02*
X12140000Y-31700000D01*
X14100000Y-30500000D02*
X12140000Y-30500000D01*
X14100000Y-31700000D02*
X12140000Y-31700000D01*
%TO.C,Q304*%
X4830000Y-43600000D02*
X4830000Y-37255000D01*
X9970000Y-43145000D02*
X9970000Y-37255000D01*
%TO.C,C206*%
X3140000Y-8407836D02*
X3140000Y-8192164D01*
X3860000Y-8407836D02*
X3860000Y-8192164D01*
%TO.C,C105*%
X-9610000Y2460000D02*
X-9610000Y-2060000D01*
X-9610000Y-2060000D02*
X-1550000Y-2060000D01*
X-1550000Y2460000D02*
X-9610000Y2460000D01*
%TO.C,C302*%
X-11407836Y-31940000D02*
X-11192164Y-31940000D01*
X-11407836Y-32660000D02*
X-11192164Y-32660000D01*
%TO.C,C308*%
X11307836Y-31660000D02*
X11092164Y-31660000D01*
X11307836Y-30940000D02*
X11092164Y-30940000D01*
%TO.C,R111*%
X6820000Y-20563641D02*
X6820000Y-20256359D01*
X7580000Y-20563641D02*
X7580000Y-20256359D01*
%TO.C,C307*%
X12210000Y-27288748D02*
X12210000Y-28711252D01*
X10390000Y-27288748D02*
X10390000Y-28711252D01*
%TO.C,R304*%
X-11420000Y-37106359D02*
X-11420000Y-37413641D01*
X-12180000Y-37106359D02*
X-12180000Y-37413641D01*
%TO.C,U302*%
X-12440000Y-35000000D02*
X-12440000Y-32075000D01*
X-12440000Y-35000000D02*
X-12440000Y-36500000D01*
X-15660000Y-35000000D02*
X-15660000Y-33500000D01*
X-15660000Y-35000000D02*
X-15660000Y-36500000D01*
%TO.C,R108*%
X10120000Y-5843641D02*
X10120000Y-5536359D01*
X10880000Y-5843641D02*
X10880000Y-5536359D01*
%TO.C,R207*%
X-9546359Y-21880000D02*
X-9853641Y-21880000D01*
X-9546359Y-21120000D02*
X-9853641Y-21120000D01*
%TO.C,Q302*%
X-9970000Y-43600000D02*
X-9970000Y-37255000D01*
X-4830000Y-43145000D02*
X-4830000Y-37255000D01*
%TO.C,U304*%
X13510000Y-35000000D02*
X13510000Y-32075000D01*
X13510000Y-35000000D02*
X13510000Y-36500000D01*
X10290000Y-35000000D02*
X10290000Y-33500000D01*
X10290000Y-35000000D02*
X10290000Y-36500000D01*
%TO.C,R203*%
X-11653641Y-16520000D02*
X-11346359Y-16520000D01*
X-11653641Y-17280000D02*
X-11346359Y-17280000D01*
%TO.C,C207*%
X2192164Y-19240000D02*
X2407836Y-19240000D01*
X2192164Y-19960000D02*
X2407836Y-19960000D01*
%TO.C,C103*%
X5710000Y7611252D02*
X5710000Y6188748D01*
X3890000Y7611252D02*
X3890000Y6188748D01*
%TO.C,R305*%
X15980000Y-34846359D02*
X15980000Y-35153641D01*
X15220000Y-34846359D02*
X15220000Y-35153641D01*
%TO.C,D304*%
X-10300000Y-29240000D02*
X-11500000Y-29240000D01*
X-10300000Y-31200000D02*
X-10300000Y-29240000D01*
X-11500000Y-31200000D02*
X-11500000Y-29240000D01*
%TO.C,C211*%
X-12892164Y-9410000D02*
X-13107836Y-9410000D01*
X-12892164Y-8690000D02*
X-13107836Y-8690000D01*
%TO.C,C106*%
X9860000Y-7482164D02*
X9860000Y-7697836D01*
X9140000Y-7482164D02*
X9140000Y-7697836D01*
%TO.C,R306*%
X14580000Y-37096359D02*
X14580000Y-37403641D01*
X13820000Y-37096359D02*
X13820000Y-37403641D01*
%TO.C,D305*%
X-10300000Y-39740000D02*
X-11500000Y-39740000D01*
X-10300000Y-41700000D02*
X-10300000Y-39740000D01*
X-11500000Y-41700000D02*
X-11500000Y-39740000D01*
%TO.C,C108*%
X-11659420Y-3410000D02*
X-11940580Y-3410000D01*
X-11659420Y-2390000D02*
X-11940580Y-2390000D01*
%TO.C,R301*%
X-14846359Y-39080000D02*
X-15153641Y-39080000D01*
X-14846359Y-38320000D02*
X-15153641Y-38320000D01*
%TD*%
%LPC*%
D14*
%TO.C,J105*%
X6400000Y38900000D03*
X4400000Y38900000D03*
D15*
X8750000Y44650000D03*
X2050000Y44650000D03*
%TD*%
D16*
%TO.C,D101*%
X1600000Y11400000D03*
X-2400000Y11400000D03*
%TD*%
D17*
%TO.C,C101*%
X8300000Y22200000D03*
X8300000Y27600000D03*
%TD*%
D18*
%TO.C,C303*%
X8125000Y11800000D03*
X9675000Y11800000D03*
%TD*%
D19*
%TO.C,L101*%
X-9000000Y10125000D03*
X-9000000Y4075000D03*
%TD*%
D20*
%TO.C,D302*%
X-11600000Y-34300000D03*
X-11600000Y-35700000D03*
%TD*%
D21*
%TO.C,J104*%
X-1600000Y41600000D03*
X-2600000Y41600000D03*
X-3600000Y41600000D03*
X-4600000Y41600000D03*
X-5600000Y41600000D03*
X-6600000Y41600000D03*
X-7600000Y41600000D03*
D22*
X-300000Y45475000D03*
X-8900000Y45475000D03*
%TD*%
D23*
%TO.C,R201*%
X7790000Y-1600000D03*
X8810000Y-1600000D03*
%TD*%
D24*
%TO.C,D102*%
X-12587500Y-1400000D03*
X-11012500Y-1400000D03*
%TD*%
D25*
%TO.C,J301*%
X-1000000Y-38900000D03*
X1000000Y-38900000D03*
D26*
X-3350000Y-44650000D03*
X3350000Y-44650000D03*
%TD*%
D23*
%TO.C,R101*%
X3890000Y-18100000D03*
X4910000Y-18100000D03*
%TD*%
D27*
%TO.C,R205*%
X-9190000Y-20500000D03*
X-10210000Y-20500000D03*
%TD*%
D28*
%TO.C,JP201*%
X-13800000Y-16750000D03*
D29*
X-13800000Y-15450000D03*
%TD*%
D30*
%TO.C,C209*%
X-11000000Y-15880000D03*
X-11000000Y-14920000D03*
%TD*%
D27*
%TO.C,R102*%
X5810000Y-14400000D03*
X4790000Y-14400000D03*
%TD*%
%TO.C,R204*%
X-11490000Y-13450000D03*
X-12510000Y-13450000D03*
%TD*%
D31*
%TO.C,SW201*%
X8600000Y-4100000D03*
X4400000Y-4100000D03*
%TD*%
D32*
%TO.C,U201*%
X-8475000Y-9650000D03*
X-8475000Y-10150000D03*
X-8475000Y-10650000D03*
X-8475000Y-11150000D03*
X-8475000Y-11650000D03*
X-8475000Y-12150000D03*
X-8475000Y-12650000D03*
X-8475000Y-13150000D03*
X-8475000Y-13650000D03*
X-8475000Y-14150000D03*
X-8475000Y-14650000D03*
X-8475000Y-15150000D03*
X-8475000Y-15650000D03*
X-8475000Y-16150000D03*
X-8475000Y-16650000D03*
X-8475000Y-17150000D03*
D33*
X-6550000Y-19075000D03*
X-6050000Y-19075000D03*
X-5550000Y-19075000D03*
X-5050000Y-19075000D03*
X-4550000Y-19075000D03*
X-4050000Y-19075000D03*
X-3550000Y-19075000D03*
X-3050000Y-19075000D03*
X-2550000Y-19075000D03*
X-2050000Y-19075000D03*
X-1550000Y-19075000D03*
X-1050000Y-19075000D03*
X-550000Y-19075000D03*
X-50000Y-19075000D03*
X450000Y-19075000D03*
X950000Y-19075000D03*
D32*
X2875000Y-17150000D03*
X2875000Y-16650000D03*
X2875000Y-16150000D03*
X2875000Y-15650000D03*
X2875000Y-15150000D03*
X2875000Y-14650000D03*
X2875000Y-14150000D03*
X2875000Y-13650000D03*
X2875000Y-13150000D03*
X2875000Y-12650000D03*
X2875000Y-12150000D03*
X2875000Y-11650000D03*
X2875000Y-11150000D03*
X2875000Y-10650000D03*
X2875000Y-10150000D03*
X2875000Y-9650000D03*
D33*
X950000Y-7725000D03*
X450000Y-7725000D03*
X-50000Y-7725000D03*
X-550000Y-7725000D03*
X-1050000Y-7725000D03*
X-1550000Y-7725000D03*
X-2050000Y-7725000D03*
X-2550000Y-7725000D03*
X-3050000Y-7725000D03*
X-3550000Y-7725000D03*
X-4050000Y-7725000D03*
X-4550000Y-7725000D03*
X-5050000Y-7725000D03*
X-5550000Y-7725000D03*
X-6050000Y-7725000D03*
X-6550000Y-7725000D03*
%TD*%
D34*
%TO.C,R107*%
X-12625000Y100000D03*
X-10975000Y100000D03*
%TD*%
D35*
%TO.C,R302*%
X-5862500Y-34700000D03*
X62500Y-34700000D03*
%TD*%
D36*
%TO.C,SW101*%
X3065000Y16100000D03*
D37*
X3065000Y20800000D03*
X3065000Y25500000D03*
X-6465000Y14195000D03*
X-6465000Y27405000D03*
%TD*%
D38*
%TO.C,Q303*%
X5495000Y-31870000D03*
X6765000Y-31870000D03*
X8035000Y-31870000D03*
X9305000Y-31870000D03*
D39*
X7400000Y-28510000D03*
D40*
X5495000Y-26405000D03*
X6765000Y-26405000D03*
X8035000Y-26405000D03*
X9305000Y-26405000D03*
%TD*%
D41*
%TO.C,C102*%
X7100000Y8375000D03*
X7100000Y5425000D03*
%TD*%
D42*
%TO.C,C208*%
X-5320000Y-20600000D03*
X-6280000Y-20600000D03*
%TD*%
%TO.C,C205*%
X-7590000Y-7650000D03*
X-8550000Y-7650000D03*
%TD*%
D43*
%TO.C,R110*%
X1225000Y-28900000D03*
X-425000Y-28900000D03*
%TD*%
D44*
%TO.C,C306*%
X-11025000Y-28100000D03*
X-13975000Y-28100000D03*
%TD*%
D45*
%TO.C,C104*%
X-4700000Y8825000D03*
X-4700000Y10375000D03*
%TD*%
D38*
%TO.C,Q301*%
X-9305000Y-31870000D03*
X-8035000Y-31870000D03*
X-6765000Y-31870000D03*
X-5495000Y-31870000D03*
D39*
X-7400000Y-28510000D03*
D40*
X-9305000Y-26405000D03*
X-8035000Y-26405000D03*
X-6765000Y-26405000D03*
X-5495000Y-26405000D03*
%TD*%
D46*
%TO.C,J201*%
X-12735000Y-18830000D03*
X-11719000Y-23910000D03*
X-13751000Y-23910000D03*
D47*
X-13370000Y-20100000D03*
X-12100000Y-20100000D03*
X-13370000Y-21370000D03*
X-12100000Y-21370000D03*
X-13370000Y-22640000D03*
X-12100000Y-22640000D03*
%TD*%
D48*
%TO.C,Y201*%
X-11900000Y-10400000D03*
X-14100000Y-10400000D03*
X-14100000Y-12100000D03*
X-11900000Y-12100000D03*
%TD*%
D27*
%TO.C,R206*%
X-9190000Y-19500000D03*
X-10210000Y-19500000D03*
%TD*%
D49*
%TO.C,U102*%
X-7550000Y-3262500D03*
X-8500000Y-3262500D03*
X-9450000Y-3262500D03*
X-9450000Y-5537500D03*
X-7550000Y-5537500D03*
%TD*%
D30*
%TO.C,C212*%
X-10000000Y-18580000D03*
X-10000000Y-17620000D03*
%TD*%
D18*
%TO.C,C203*%
X725000Y-20900000D03*
X2275000Y-20900000D03*
%TD*%
D42*
%TO.C,C202*%
X-8570000Y-8650000D03*
X-9530000Y-8650000D03*
%TD*%
D50*
%TO.C,D303*%
X-13500000Y-38900000D03*
X-12100000Y-38900000D03*
%TD*%
D51*
%TO.C,H102*%
X-13890500Y44053000D03*
%TD*%
D52*
%TO.C,U301*%
X6125000Y18380000D03*
D53*
X12425000Y16100000D03*
D52*
X6125000Y13820000D03*
%TD*%
D34*
%TO.C,R104*%
X-4725000Y3400000D03*
X-3075000Y3400000D03*
%TD*%
D51*
%TO.C,H101*%
X13890500Y44053000D03*
%TD*%
D50*
%TO.C,D309*%
X12700000Y-38900000D03*
X14100000Y-38900000D03*
%TD*%
%TO.C,D301*%
X-13600000Y-31100000D03*
X-12200000Y-31100000D03*
%TD*%
D27*
%TO.C,R103*%
X5810000Y-15400000D03*
X4790000Y-15400000D03*
%TD*%
D42*
%TO.C,C213*%
X-13520000Y-13450000D03*
X-14480000Y-13450000D03*
%TD*%
D20*
%TO.C,D306*%
X3900000Y-30100000D03*
X3900000Y-31500000D03*
%TD*%
D30*
%TO.C,C210*%
X-10000000Y-15880000D03*
X-10000000Y-14920000D03*
%TD*%
D43*
%TO.C,R106*%
X-10975000Y1600000D03*
X-12625000Y1600000D03*
%TD*%
D54*
%TO.C,D201*%
X6587500Y-1600000D03*
X5012500Y-1600000D03*
%TD*%
D42*
%TO.C,C304*%
X-14620000Y-31000000D03*
X-15580000Y-31000000D03*
%TD*%
D55*
%TO.C,L201*%
X-12000000Y-14915000D03*
X-12000000Y-15885000D03*
%TD*%
D20*
%TO.C,D307*%
X10900000Y-40300000D03*
X10900000Y-41700000D03*
%TD*%
D45*
%TO.C,C204*%
X4700000Y-9925000D03*
X4700000Y-8375000D03*
%TD*%
%TO.C,C109*%
X-6000000Y-4575000D03*
X-6000000Y-3025000D03*
%TD*%
D56*
%TO.C,U101*%
X-2850000Y8800000D03*
X-2850000Y7530000D03*
X-2850000Y6260000D03*
X-2850000Y4990000D03*
X2550000Y4990000D03*
X2550000Y6260000D03*
X2550000Y7530000D03*
X2550000Y8800000D03*
D57*
X-150000Y6895000D03*
%TD*%
D20*
%TO.C,D308*%
X14400000Y-34300000D03*
X14400000Y-35700000D03*
%TD*%
D34*
%TO.C,R105*%
X-1725000Y3400000D03*
X-75000Y3400000D03*
%TD*%
D58*
%TO.C,C107*%
X1175000Y-30400000D03*
X-375000Y-30400000D03*
%TD*%
D59*
%TO.C,C309*%
X14200000Y-32270000D03*
X14200000Y-33230000D03*
%TD*%
D58*
%TO.C,C201*%
X-11025000Y-7400000D03*
X-12575000Y-7400000D03*
%TD*%
D34*
%TO.C,R112*%
X-12625000Y-5900000D03*
X-10975000Y-5900000D03*
%TD*%
D24*
%TO.C,D104*%
X-12587500Y-4400000D03*
X-11012500Y-4400000D03*
%TD*%
D60*
%TO.C,U303*%
X-3875000Y-31762500D03*
X-3225000Y-31762500D03*
X-2575000Y-31762500D03*
X-1925000Y-31762500D03*
X-1925000Y-26037500D03*
X-2575000Y-26037500D03*
X-3225000Y-26037500D03*
X-3875000Y-26037500D03*
%TD*%
D61*
%TO.C,R303*%
X-10400000Y-34480000D03*
X-10400000Y-35500000D03*
%TD*%
D51*
%TO.C,H104*%
X13890500Y-44053000D03*
%TD*%
D62*
%TO.C,R202*%
X9800000Y-3910000D03*
X9800000Y-2890000D03*
%TD*%
D63*
%TO.C,C305*%
X-400000Y-25825000D03*
X-400000Y-27375000D03*
%TD*%
D27*
%TO.C,R307*%
X11710000Y-38700000D03*
X10690000Y-38700000D03*
%TD*%
D51*
%TO.C,H103*%
X-13890500Y-44053000D03*
%TD*%
D18*
%TO.C,C301*%
X10225000Y20400000D03*
X11775000Y20400000D03*
%TD*%
D64*
%TO.C,D103*%
X7200000Y-17212500D03*
X7200000Y-18787500D03*
%TD*%
D62*
%TO.C,R109*%
X10500000Y-8100000D03*
X10500000Y-7080000D03*
%TD*%
D50*
%TO.C,D310*%
X12700000Y-31100000D03*
X14100000Y-31100000D03*
%TD*%
D38*
%TO.C,Q304*%
X5495000Y-42870000D03*
X6765000Y-42870000D03*
X8035000Y-42870000D03*
X9305000Y-42870000D03*
D39*
X7400000Y-39510000D03*
D40*
X5495000Y-37405000D03*
X6765000Y-37405000D03*
X8035000Y-37405000D03*
X9305000Y-37405000D03*
%TD*%
D30*
%TO.C,C206*%
X3500000Y-8780000D03*
X3500000Y-7820000D03*
%TD*%
D65*
%TO.C,C105*%
X-8312500Y200000D03*
X-2087500Y200000D03*
%TD*%
D66*
%TO.C,C302*%
X-11780000Y-32300000D03*
X-10820000Y-32300000D03*
%TD*%
D42*
%TO.C,C308*%
X11680000Y-31300000D03*
X10720000Y-31300000D03*
%TD*%
D62*
%TO.C,R111*%
X7200000Y-20920000D03*
X7200000Y-19900000D03*
%TD*%
D41*
%TO.C,C307*%
X11300000Y-26525000D03*
X11300000Y-29475000D03*
%TD*%
D61*
%TO.C,R304*%
X-11800000Y-36750000D03*
X-11800000Y-37770000D03*
%TD*%
D67*
%TO.C,U302*%
X-13050000Y-32800000D03*
X-13550000Y-32800000D03*
X-14050000Y-32800000D03*
X-14550000Y-32800000D03*
X-15050000Y-32800000D03*
X-15050000Y-37200000D03*
X-14550000Y-37200000D03*
X-14050000Y-37200000D03*
X-13550000Y-37200000D03*
X-13050000Y-37200000D03*
%TD*%
D62*
%TO.C,R108*%
X10500000Y-6200000D03*
X10500000Y-5180000D03*
%TD*%
D27*
%TO.C,R207*%
X-9190000Y-21500000D03*
X-10210000Y-21500000D03*
%TD*%
D38*
%TO.C,Q302*%
X-9305000Y-42870000D03*
X-8035000Y-42870000D03*
X-6765000Y-42870000D03*
X-5495000Y-42870000D03*
D39*
X-7400000Y-39510000D03*
D40*
X-9305000Y-37405000D03*
X-8035000Y-37405000D03*
X-6765000Y-37405000D03*
X-5495000Y-37405000D03*
%TD*%
D67*
%TO.C,U304*%
X12900000Y-32800000D03*
X12400000Y-32800000D03*
X11900000Y-32800000D03*
X11400000Y-32800000D03*
X10900000Y-32800000D03*
X10900000Y-37200000D03*
X11400000Y-37200000D03*
X11900000Y-37200000D03*
X12400000Y-37200000D03*
X12900000Y-37200000D03*
%TD*%
D23*
%TO.C,R203*%
X-12010000Y-16900000D03*
X-10990000Y-16900000D03*
%TD*%
D66*
%TO.C,C207*%
X1820000Y-19600000D03*
X2780000Y-19600000D03*
%TD*%
D41*
%TO.C,C103*%
X4800000Y8375000D03*
X4800000Y5425000D03*
%TD*%
D61*
%TO.C,R305*%
X15600000Y-34490000D03*
X15600000Y-35510000D03*
%TD*%
D20*
%TO.C,D304*%
X-10900000Y-29800000D03*
X-10900000Y-31200000D03*
%TD*%
D42*
%TO.C,C211*%
X-12520000Y-9050000D03*
X-13480000Y-9050000D03*
%TD*%
D59*
%TO.C,C106*%
X9500000Y-7110000D03*
X9500000Y-8070000D03*
%TD*%
D61*
%TO.C,R306*%
X14200000Y-36740000D03*
X14200000Y-37760000D03*
%TD*%
D20*
%TO.C,D305*%
X-10900000Y-40300000D03*
X-10900000Y-41700000D03*
%TD*%
D58*
%TO.C,C108*%
X-11025000Y-2900000D03*
X-12575000Y-2900000D03*
%TD*%
D27*
%TO.C,R301*%
X-14490000Y-38700000D03*
X-15510000Y-38700000D03*
%TD*%
D68*
%TO.C,J101*%
X-2400000Y38500000D03*
D69*
X-7400000Y38500000D03*
%TD*%
D70*
%TO.C,J102*%
X7500000Y32500000D03*
D71*
X5000000Y32500000D03*
X2500000Y32500000D03*
X0Y32500000D03*
X-2500000Y32500000D03*
X-5000000Y32500000D03*
X-7500000Y32500000D03*
%TD*%
%LPD*%
M02*
