%TF.GenerationSoftware,KiCad,Pcbnew,7.0.6*%
%TF.CreationDate,2024-05-08T12:01:16-04:00*%
%TF.ProjectId,ActiveImpactor_Power,41637469-7665-4496-9d70-6163746f725f,rev?*%
%TF.SameCoordinates,Original*%
%TF.FileFunction,Legend,Bot*%
%TF.FilePolarity,Positive*%
%FSLAX46Y46*%
G04 Gerber Fmt 4.6, Leading zero omitted, Abs format (unit mm)*
G04 Created by KiCad (PCBNEW 7.0.6) date 2024-05-08 12:01:16*
%MOMM*%
%LPD*%
G01*
G04 APERTURE LIST*
G04 Aperture macros list*
%AMRoundRect*
0 Rectangle with rounded corners*
0 $1 Rounding radius*
0 $2 $3 $4 $5 $6 $7 $8 $9 X,Y pos of 4 corners*
0 Add a 4 corners polygon primitive as box body*
4,1,4,$2,$3,$4,$5,$6,$7,$8,$9,$2,$3,0*
0 Add four circle primitives for the rounded corners*
1,1,$1+$1,$2,$3*
1,1,$1+$1,$4,$5*
1,1,$1+$1,$6,$7*
1,1,$1+$1,$8,$9*
0 Add four rect primitives between the rounded corners*
20,1,$1+$1,$2,$3,$4,$5,0*
20,1,$1+$1,$4,$5,$6,$7,0*
20,1,$1+$1,$6,$7,$8,$9,0*
20,1,$1+$1,$8,$9,$2,$3,0*%
G04 Aperture macros list end*
%ADD10C,0.200000*%
%ADD11C,0.150000*%
%ADD12C,0.120000*%
%ADD13RoundRect,0.102000X1.387500X-1.387500X1.387500X1.387500X-1.387500X1.387500X-1.387500X-1.387500X0*%
%ADD14C,2.979000*%
%ADD15C,0.990600*%
%ADD16C,4.750000*%
%ADD17C,1.000000*%
%ADD18R,3.800000X3.800000*%
%ADD19C,3.800000*%
%ADD20RoundRect,0.250000X-0.250000X-2.500000X0.250000X-2.500000X0.250000X2.500000X-0.250000X2.500000X0*%
%ADD21RoundRect,0.250000X-0.550000X-1.250000X0.550000X-1.250000X0.550000X1.250000X-0.550000X1.250000X0*%
%ADD22RoundRect,0.150000X-0.150000X-0.625000X0.150000X-0.625000X0.150000X0.625000X-0.150000X0.625000X0*%
%ADD23RoundRect,0.250000X-0.350000X-0.650000X0.350000X-0.650000X0.350000X0.650000X-0.350000X0.650000X0*%
%ADD24RoundRect,0.250000X0.600000X0.725000X-0.600000X0.725000X-0.600000X-0.725000X0.600000X-0.725000X0*%
%ADD25O,1.700000X1.950000*%
G04 APERTURE END LIST*
D10*
X11121925Y27875625D02*
G75*
G03*
X12709375Y26288125I1587475J-25D01*
G01*
X12709375Y-34211875D02*
G75*
G03*
X11121875Y-35799375I5J-1587505D01*
G01*
X11121875Y40575625D02*
G75*
G03*
X9534375Y42163125I-1587505J-5D01*
G01*
X-11103125Y-35799375D02*
G75*
G03*
X-12690625Y-34211875I-1587500J0D01*
G01*
X-9515625Y42163125D02*
X9534375Y42163125D01*
X13912500Y-34211875D02*
X12709375Y-34211875D01*
X-15500000Y-32624375D02*
G75*
G03*
X-13912500Y-34211875I1587500J0D01*
G01*
X12709375Y26288125D02*
X13912500Y26288125D01*
X9534375Y-42149375D02*
X-9515625Y-42149375D01*
X-9515625Y42163125D02*
G75*
G03*
X-11103125Y40575625I0J-1587500D01*
G01*
X-15500000Y-32624375D02*
X-15500000Y24700625D01*
X-11103125Y27875625D02*
X-11103125Y40575625D01*
X-11103125Y-40561875D02*
G75*
G03*
X-9515625Y-42149375I1587500J0D01*
G01*
X-13912500Y26288125D02*
G75*
G03*
X-15500000Y24700625I0J-1587500D01*
G01*
X15500000Y24700625D02*
X15500000Y-32624375D01*
X11121875Y40575625D02*
X11121875Y27875625D01*
X13912500Y-34211870D02*
G75*
G03*
X15500000Y-32624375I0J1587500D01*
G01*
X-13912500Y26288125D02*
X-12690625Y26288125D01*
X9534375Y-42149375D02*
G75*
G03*
X11121875Y-40561875I-5J1587505D01*
G01*
X-12690625Y-34211875D02*
X-13912500Y-34211875D01*
X15500005Y24700625D02*
G75*
G03*
X13912500Y26288125I-1587445J55D01*
G01*
X-11103125Y-40561875D02*
X-11103125Y-35799375D01*
X-12690625Y26288125D02*
G75*
G03*
X-11103125Y27875625I0J1587500D01*
G01*
X11121875Y-35799375D02*
X11121875Y-40561875D01*
D11*
X6783332Y-23436104D02*
X6821428Y-23474200D01*
X6821428Y-23474200D02*
X6935713Y-23512295D01*
X6935713Y-23512295D02*
X7011904Y-23512295D01*
X7011904Y-23512295D02*
X7126190Y-23474200D01*
X7126190Y-23474200D02*
X7202380Y-23398009D01*
X7202380Y-23398009D02*
X7240475Y-23321819D01*
X7240475Y-23321819D02*
X7278571Y-23169438D01*
X7278571Y-23169438D02*
X7278571Y-23055152D01*
X7278571Y-23055152D02*
X7240475Y-22902771D01*
X7240475Y-22902771D02*
X7202380Y-22826580D01*
X7202380Y-22826580D02*
X7126190Y-22750390D01*
X7126190Y-22750390D02*
X7011904Y-22712295D01*
X7011904Y-22712295D02*
X6935713Y-22712295D01*
X6935713Y-22712295D02*
X6821428Y-22750390D01*
X6821428Y-22750390D02*
X6783332Y-22788485D01*
X6478571Y-23474200D02*
X6364285Y-23512295D01*
X6364285Y-23512295D02*
X6173809Y-23512295D01*
X6173809Y-23512295D02*
X6097618Y-23474200D01*
X6097618Y-23474200D02*
X6059523Y-23436104D01*
X6059523Y-23436104D02*
X6021428Y-23359914D01*
X6021428Y-23359914D02*
X6021428Y-23283723D01*
X6021428Y-23283723D02*
X6059523Y-23207533D01*
X6059523Y-23207533D02*
X6097618Y-23169438D01*
X6097618Y-23169438D02*
X6173809Y-23131342D01*
X6173809Y-23131342D02*
X6326190Y-23093247D01*
X6326190Y-23093247D02*
X6402380Y-23055152D01*
X6402380Y-23055152D02*
X6440475Y-23017057D01*
X6440475Y-23017057D02*
X6478571Y-22940866D01*
X6478571Y-22940866D02*
X6478571Y-22864676D01*
X6478571Y-22864676D02*
X6440475Y-22788485D01*
X6440475Y-22788485D02*
X6402380Y-22750390D01*
X6402380Y-22750390D02*
X6326190Y-22712295D01*
X6326190Y-22712295D02*
X6135713Y-22712295D01*
X6135713Y-22712295D02*
X6021428Y-22750390D01*
X-8595238Y-26962295D02*
X-8595238Y-26162295D01*
X-8595238Y-26162295D02*
X-8900000Y-26162295D01*
X-8900000Y-26162295D02*
X-8976190Y-26200390D01*
X-8976190Y-26200390D02*
X-9014285Y-26238485D01*
X-9014285Y-26238485D02*
X-9052381Y-26314676D01*
X-9052381Y-26314676D02*
X-9052381Y-26428961D01*
X-9052381Y-26428961D02*
X-9014285Y-26505152D01*
X-9014285Y-26505152D02*
X-8976190Y-26543247D01*
X-8976190Y-26543247D02*
X-8900000Y-26581342D01*
X-8900000Y-26581342D02*
X-8595238Y-26581342D01*
X-9319047Y-26162295D02*
X-9509523Y-26962295D01*
X-9509523Y-26962295D02*
X-9661904Y-26390866D01*
X-9661904Y-26390866D02*
X-9814285Y-26962295D01*
X-9814285Y-26962295D02*
X-10004762Y-26162295D01*
X-10309524Y-26962295D02*
X-10309524Y-26162295D01*
X-10309524Y-26162295D02*
X-10576190Y-26733723D01*
X-10576190Y-26733723D02*
X-10842857Y-26162295D01*
X-10842857Y-26162295D02*
X-10842857Y-26962295D01*
X-11642857Y-26962295D02*
X-11185714Y-26962295D01*
X-11414286Y-26962295D02*
X-11414286Y-26162295D01*
X-11414286Y-26162295D02*
X-11338095Y-26276580D01*
X-11338095Y-26276580D02*
X-11261905Y-26352771D01*
X-11261905Y-26352771D02*
X-11185714Y-26390866D01*
X-1171429Y14787704D02*
X-1171429Y15587704D01*
X-1171429Y15587704D02*
X-1476191Y15587704D01*
X-1476191Y15587704D02*
X-1552381Y15549609D01*
X-1552381Y15549609D02*
X-1590476Y15511514D01*
X-1590476Y15511514D02*
X-1628572Y15435323D01*
X-1628572Y15435323D02*
X-1628572Y15321038D01*
X-1628572Y15321038D02*
X-1590476Y15244847D01*
X-1590476Y15244847D02*
X-1552381Y15206752D01*
X-1552381Y15206752D02*
X-1476191Y15168657D01*
X-1476191Y15168657D02*
X-1171429Y15168657D01*
X-1971429Y14787704D02*
X-1971429Y15587704D01*
X-1971429Y15206752D02*
X-2428572Y15206752D01*
X-2428572Y14787704D02*
X-2428572Y15587704D01*
X13727704Y-20091792D02*
X13727704Y-19567982D01*
X13413419Y-20196554D02*
X14513419Y-19829887D01*
X14513419Y-19829887D02*
X13413419Y-19463220D01*
X13465800Y-18625125D02*
X13413419Y-18729887D01*
X13413419Y-18729887D02*
X13413419Y-18939411D01*
X13413419Y-18939411D02*
X13465800Y-19044173D01*
X13465800Y-19044173D02*
X13518180Y-19096554D01*
X13518180Y-19096554D02*
X13622942Y-19148935D01*
X13622942Y-19148935D02*
X13937228Y-19148935D01*
X13937228Y-19148935D02*
X14041990Y-19096554D01*
X14041990Y-19096554D02*
X14094371Y-19044173D01*
X14094371Y-19044173D02*
X14146752Y-18939411D01*
X14146752Y-18939411D02*
X14146752Y-18729887D01*
X14146752Y-18729887D02*
X14094371Y-18625125D01*
X14146752Y-18310840D02*
X14146752Y-17891792D01*
X14513419Y-18153697D02*
X13570561Y-18153697D01*
X13570561Y-18153697D02*
X13465800Y-18101316D01*
X13465800Y-18101316D02*
X13413419Y-17996554D01*
X13413419Y-17996554D02*
X13413419Y-17891792D01*
X13413419Y-17525126D02*
X14146752Y-17525126D01*
X14513419Y-17525126D02*
X14461038Y-17577507D01*
X14461038Y-17577507D02*
X14408657Y-17525126D01*
X14408657Y-17525126D02*
X14461038Y-17472745D01*
X14461038Y-17472745D02*
X14513419Y-17525126D01*
X14513419Y-17525126D02*
X14408657Y-17525126D01*
X14146752Y-17106078D02*
X13413419Y-16844173D01*
X13413419Y-16844173D02*
X14146752Y-16582268D01*
X13465800Y-15744173D02*
X13413419Y-15848935D01*
X13413419Y-15848935D02*
X13413419Y-16058459D01*
X13413419Y-16058459D02*
X13465800Y-16163221D01*
X13465800Y-16163221D02*
X13570561Y-16215602D01*
X13570561Y-16215602D02*
X13989609Y-16215602D01*
X13989609Y-16215602D02*
X14094371Y-16163221D01*
X14094371Y-16163221D02*
X14146752Y-16058459D01*
X14146752Y-16058459D02*
X14146752Y-15848935D01*
X14146752Y-15848935D02*
X14094371Y-15744173D01*
X14094371Y-15744173D02*
X13989609Y-15691792D01*
X13989609Y-15691792D02*
X13884847Y-15691792D01*
X13884847Y-15691792D02*
X13780085Y-16215602D01*
X13413419Y-14382269D02*
X14146752Y-14382269D01*
X14513419Y-14382269D02*
X14461038Y-14434650D01*
X14461038Y-14434650D02*
X14408657Y-14382269D01*
X14408657Y-14382269D02*
X14461038Y-14329888D01*
X14461038Y-14329888D02*
X14513419Y-14382269D01*
X14513419Y-14382269D02*
X14408657Y-14382269D01*
X13413419Y-13858459D02*
X14146752Y-13858459D01*
X14041990Y-13858459D02*
X14094371Y-13806078D01*
X14094371Y-13806078D02*
X14146752Y-13701316D01*
X14146752Y-13701316D02*
X14146752Y-13544173D01*
X14146752Y-13544173D02*
X14094371Y-13439411D01*
X14094371Y-13439411D02*
X13989609Y-13387030D01*
X13989609Y-13387030D02*
X13413419Y-13387030D01*
X13989609Y-13387030D02*
X14094371Y-13334649D01*
X14094371Y-13334649D02*
X14146752Y-13229887D01*
X14146752Y-13229887D02*
X14146752Y-13072744D01*
X14146752Y-13072744D02*
X14094371Y-12967983D01*
X14094371Y-12967983D02*
X13989609Y-12915602D01*
X13989609Y-12915602D02*
X13413419Y-12915602D01*
X14146752Y-12391792D02*
X13046752Y-12391792D01*
X14094371Y-12391792D02*
X14146752Y-12287030D01*
X14146752Y-12287030D02*
X14146752Y-12077506D01*
X14146752Y-12077506D02*
X14094371Y-11972744D01*
X14094371Y-11972744D02*
X14041990Y-11920363D01*
X14041990Y-11920363D02*
X13937228Y-11867982D01*
X13937228Y-11867982D02*
X13622942Y-11867982D01*
X13622942Y-11867982D02*
X13518180Y-11920363D01*
X13518180Y-11920363D02*
X13465800Y-11972744D01*
X13465800Y-11972744D02*
X13413419Y-12077506D01*
X13413419Y-12077506D02*
X13413419Y-12287030D01*
X13413419Y-12287030D02*
X13465800Y-12391792D01*
X13413419Y-10925125D02*
X13989609Y-10925125D01*
X13989609Y-10925125D02*
X14094371Y-10977506D01*
X14094371Y-10977506D02*
X14146752Y-11082268D01*
X14146752Y-11082268D02*
X14146752Y-11291792D01*
X14146752Y-11291792D02*
X14094371Y-11396554D01*
X13465800Y-10925125D02*
X13413419Y-11029887D01*
X13413419Y-11029887D02*
X13413419Y-11291792D01*
X13413419Y-11291792D02*
X13465800Y-11396554D01*
X13465800Y-11396554D02*
X13570561Y-11448935D01*
X13570561Y-11448935D02*
X13675323Y-11448935D01*
X13675323Y-11448935D02*
X13780085Y-11396554D01*
X13780085Y-11396554D02*
X13832466Y-11291792D01*
X13832466Y-11291792D02*
X13832466Y-11029887D01*
X13832466Y-11029887D02*
X13884847Y-10925125D01*
X13465800Y-9929887D02*
X13413419Y-10034649D01*
X13413419Y-10034649D02*
X13413419Y-10244173D01*
X13413419Y-10244173D02*
X13465800Y-10348935D01*
X13465800Y-10348935D02*
X13518180Y-10401316D01*
X13518180Y-10401316D02*
X13622942Y-10453697D01*
X13622942Y-10453697D02*
X13937228Y-10453697D01*
X13937228Y-10453697D02*
X14041990Y-10401316D01*
X14041990Y-10401316D02*
X14094371Y-10348935D01*
X14094371Y-10348935D02*
X14146752Y-10244173D01*
X14146752Y-10244173D02*
X14146752Y-10034649D01*
X14146752Y-10034649D02*
X14094371Y-9929887D01*
X14146752Y-9615602D02*
X14146752Y-9196554D01*
X14513419Y-9458459D02*
X13570561Y-9458459D01*
X13570561Y-9458459D02*
X13465800Y-9406078D01*
X13465800Y-9406078D02*
X13413419Y-9301316D01*
X13413419Y-9301316D02*
X13413419Y-9196554D01*
X13413419Y-8672745D02*
X13465800Y-8777507D01*
X13465800Y-8777507D02*
X13518180Y-8829888D01*
X13518180Y-8829888D02*
X13622942Y-8882269D01*
X13622942Y-8882269D02*
X13937228Y-8882269D01*
X13937228Y-8882269D02*
X14041990Y-8829888D01*
X14041990Y-8829888D02*
X14094371Y-8777507D01*
X14094371Y-8777507D02*
X14146752Y-8672745D01*
X14146752Y-8672745D02*
X14146752Y-8515602D01*
X14146752Y-8515602D02*
X14094371Y-8410840D01*
X14094371Y-8410840D02*
X14041990Y-8358459D01*
X14041990Y-8358459D02*
X13937228Y-8306078D01*
X13937228Y-8306078D02*
X13622942Y-8306078D01*
X13622942Y-8306078D02*
X13518180Y-8358459D01*
X13518180Y-8358459D02*
X13465800Y-8410840D01*
X13465800Y-8410840D02*
X13413419Y-8515602D01*
X13413419Y-8515602D02*
X13413419Y-8672745D01*
X13413419Y-7834650D02*
X14146752Y-7834650D01*
X13937228Y-7834650D02*
X14041990Y-7782269D01*
X14041990Y-7782269D02*
X14094371Y-7729888D01*
X14094371Y-7729888D02*
X14146752Y-7625126D01*
X14146752Y-7625126D02*
X14146752Y-7520364D01*
X14146752Y-6315603D02*
X13046752Y-6315603D01*
X14094371Y-6315603D02*
X14146752Y-6210841D01*
X14146752Y-6210841D02*
X14146752Y-6001317D01*
X14146752Y-6001317D02*
X14094371Y-5896555D01*
X14094371Y-5896555D02*
X14041990Y-5844174D01*
X14041990Y-5844174D02*
X13937228Y-5791793D01*
X13937228Y-5791793D02*
X13622942Y-5791793D01*
X13622942Y-5791793D02*
X13518180Y-5844174D01*
X13518180Y-5844174D02*
X13465800Y-5896555D01*
X13465800Y-5896555D02*
X13413419Y-6001317D01*
X13413419Y-6001317D02*
X13413419Y-6210841D01*
X13413419Y-6210841D02*
X13465800Y-6315603D01*
X13413419Y-5163222D02*
X13465800Y-5267984D01*
X13465800Y-5267984D02*
X13518180Y-5320365D01*
X13518180Y-5320365D02*
X13622942Y-5372746D01*
X13622942Y-5372746D02*
X13937228Y-5372746D01*
X13937228Y-5372746D02*
X14041990Y-5320365D01*
X14041990Y-5320365D02*
X14094371Y-5267984D01*
X14094371Y-5267984D02*
X14146752Y-5163222D01*
X14146752Y-5163222D02*
X14146752Y-5006079D01*
X14146752Y-5006079D02*
X14094371Y-4901317D01*
X14094371Y-4901317D02*
X14041990Y-4848936D01*
X14041990Y-4848936D02*
X13937228Y-4796555D01*
X13937228Y-4796555D02*
X13622942Y-4796555D01*
X13622942Y-4796555D02*
X13518180Y-4848936D01*
X13518180Y-4848936D02*
X13465800Y-4901317D01*
X13465800Y-4901317D02*
X13413419Y-5006079D01*
X13413419Y-5006079D02*
X13413419Y-5163222D01*
X14146752Y-4429889D02*
X13413419Y-4220365D01*
X13413419Y-4220365D02*
X13937228Y-4010841D01*
X13937228Y-4010841D02*
X13413419Y-3801317D01*
X13413419Y-3801317D02*
X14146752Y-3591793D01*
X13465800Y-2753698D02*
X13413419Y-2858460D01*
X13413419Y-2858460D02*
X13413419Y-3067984D01*
X13413419Y-3067984D02*
X13465800Y-3172746D01*
X13465800Y-3172746D02*
X13570561Y-3225127D01*
X13570561Y-3225127D02*
X13989609Y-3225127D01*
X13989609Y-3225127D02*
X14094371Y-3172746D01*
X14094371Y-3172746D02*
X14146752Y-3067984D01*
X14146752Y-3067984D02*
X14146752Y-2858460D01*
X14146752Y-2858460D02*
X14094371Y-2753698D01*
X14094371Y-2753698D02*
X13989609Y-2701317D01*
X13989609Y-2701317D02*
X13884847Y-2701317D01*
X13884847Y-2701317D02*
X13780085Y-3225127D01*
X13413419Y-2229889D02*
X14146752Y-2229889D01*
X13937228Y-2229889D02*
X14041990Y-2177508D01*
X14041990Y-2177508D02*
X14094371Y-2125127D01*
X14094371Y-2125127D02*
X14146752Y-2020365D01*
X14146752Y-2020365D02*
X14146752Y-1915603D01*
X13413419Y-710842D02*
X14513419Y-710842D01*
X14094371Y-710842D02*
X14146752Y-606080D01*
X14146752Y-606080D02*
X14146752Y-396556D01*
X14146752Y-396556D02*
X14094371Y-291794D01*
X14094371Y-291794D02*
X14041990Y-239413D01*
X14041990Y-239413D02*
X13937228Y-187032D01*
X13937228Y-187032D02*
X13622942Y-187032D01*
X13622942Y-187032D02*
X13518180Y-239413D01*
X13518180Y-239413D02*
X13465800Y-291794D01*
X13465800Y-291794D02*
X13413419Y-396556D01*
X13413419Y-396556D02*
X13413419Y-606080D01*
X13413419Y-606080D02*
X13465800Y-710842D01*
X13413419Y441538D02*
X13465800Y336776D01*
X13465800Y336776D02*
X13518180Y284395D01*
X13518180Y284395D02*
X13622942Y232014D01*
X13622942Y232014D02*
X13937228Y232014D01*
X13937228Y232014D02*
X14041990Y284395D01*
X14041990Y284395D02*
X14094371Y336776D01*
X14094371Y336776D02*
X14146752Y441538D01*
X14146752Y441538D02*
X14146752Y598681D01*
X14146752Y598681D02*
X14094371Y703443D01*
X14094371Y703443D02*
X14041990Y755824D01*
X14041990Y755824D02*
X13937228Y808205D01*
X13937228Y808205D02*
X13622942Y808205D01*
X13622942Y808205D02*
X13518180Y755824D01*
X13518180Y755824D02*
X13465800Y703443D01*
X13465800Y703443D02*
X13413419Y598681D01*
X13413419Y598681D02*
X13413419Y441538D01*
X13413419Y1751062D02*
X13989609Y1751062D01*
X13989609Y1751062D02*
X14094371Y1698681D01*
X14094371Y1698681D02*
X14146752Y1593919D01*
X14146752Y1593919D02*
X14146752Y1384395D01*
X14146752Y1384395D02*
X14094371Y1279633D01*
X13465800Y1751062D02*
X13413419Y1646300D01*
X13413419Y1646300D02*
X13413419Y1384395D01*
X13413419Y1384395D02*
X13465800Y1279633D01*
X13465800Y1279633D02*
X13570561Y1227252D01*
X13570561Y1227252D02*
X13675323Y1227252D01*
X13675323Y1227252D02*
X13780085Y1279633D01*
X13780085Y1279633D02*
X13832466Y1384395D01*
X13832466Y1384395D02*
X13832466Y1646300D01*
X13832466Y1646300D02*
X13884847Y1751062D01*
X13413419Y2274871D02*
X14146752Y2274871D01*
X13937228Y2274871D02*
X14041990Y2327252D01*
X14041990Y2327252D02*
X14094371Y2379633D01*
X14094371Y2379633D02*
X14146752Y2484395D01*
X14146752Y2484395D02*
X14146752Y2589157D01*
X13413419Y3427252D02*
X14513419Y3427252D01*
X13465800Y3427252D02*
X13413419Y3322490D01*
X13413419Y3322490D02*
X13413419Y3112966D01*
X13413419Y3112966D02*
X13465800Y3008204D01*
X13465800Y3008204D02*
X13518180Y2955823D01*
X13518180Y2955823D02*
X13622942Y2903442D01*
X13622942Y2903442D02*
X13937228Y2903442D01*
X13937228Y2903442D02*
X14041990Y2955823D01*
X14041990Y2955823D02*
X14094371Y3008204D01*
X14094371Y3008204D02*
X14146752Y3112966D01*
X14146752Y3112966D02*
X14146752Y3322490D01*
X14146752Y3322490D02*
X14094371Y3427252D01*
X13465800Y4003442D02*
X13413419Y4003442D01*
X13413419Y4003442D02*
X13308657Y3951061D01*
X13308657Y3951061D02*
X13256276Y3898680D01*
X13413419Y5941538D02*
X13937228Y5574871D01*
X13413419Y5312966D02*
X14513419Y5312966D01*
X14513419Y5312966D02*
X14513419Y5732014D01*
X14513419Y5732014D02*
X14461038Y5836776D01*
X14461038Y5836776D02*
X14408657Y5889157D01*
X14408657Y5889157D02*
X14303895Y5941538D01*
X14303895Y5941538D02*
X14146752Y5941538D01*
X14146752Y5941538D02*
X14041990Y5889157D01*
X14041990Y5889157D02*
X13989609Y5836776D01*
X13989609Y5836776D02*
X13937228Y5732014D01*
X13937228Y5732014D02*
X13937228Y5312966D01*
X13989609Y6412966D02*
X13989609Y6779633D01*
X13413419Y6936776D02*
X13413419Y6412966D01*
X13413419Y6412966D02*
X14513419Y6412966D01*
X14513419Y6412966D02*
X14513419Y6936776D01*
X14513419Y7251061D02*
X13413419Y7617728D01*
X13413419Y7617728D02*
X14513419Y7984395D01*
X13413419Y9765347D02*
X13413419Y9136775D01*
X13413419Y9451061D02*
X14513419Y9451061D01*
X14513419Y9451061D02*
X14356276Y9346299D01*
X14356276Y9346299D02*
X14251514Y9241537D01*
X14251514Y9241537D02*
X14199133Y9136775D01*
X13518180Y10236775D02*
X13465800Y10289156D01*
X13465800Y10289156D02*
X13413419Y10236775D01*
X13413419Y10236775D02*
X13465800Y10184394D01*
X13465800Y10184394D02*
X13518180Y10236775D01*
X13518180Y10236775D02*
X13413419Y10236775D01*
X14513419Y10970109D02*
X14513419Y11074871D01*
X14513419Y11074871D02*
X14461038Y11179633D01*
X14461038Y11179633D02*
X14408657Y11232014D01*
X14408657Y11232014D02*
X14303895Y11284395D01*
X14303895Y11284395D02*
X14094371Y11336776D01*
X14094371Y11336776D02*
X13832466Y11336776D01*
X13832466Y11336776D02*
X13622942Y11284395D01*
X13622942Y11284395D02*
X13518180Y11232014D01*
X13518180Y11232014D02*
X13465800Y11179633D01*
X13465800Y11179633D02*
X13413419Y11074871D01*
X13413419Y11074871D02*
X13413419Y10970109D01*
X13413419Y10970109D02*
X13465800Y10865347D01*
X13465800Y10865347D02*
X13518180Y10812966D01*
X13518180Y10812966D02*
X13622942Y10760585D01*
X13622942Y10760585D02*
X13832466Y10708204D01*
X13832466Y10708204D02*
X14094371Y10708204D01*
X14094371Y10708204D02*
X14303895Y10760585D01*
X14303895Y10760585D02*
X14408657Y10812966D01*
X14408657Y10812966D02*
X14461038Y10865347D01*
X14461038Y10865347D02*
X14513419Y10970109D01*
X12742419Y-19725125D02*
X11956704Y-19725125D01*
X11956704Y-19725125D02*
X11799561Y-19777506D01*
X11799561Y-19777506D02*
X11694800Y-19882268D01*
X11694800Y-19882268D02*
X11642419Y-20039411D01*
X11642419Y-20039411D02*
X11642419Y-20144173D01*
X11747180Y-19201316D02*
X11694800Y-19148935D01*
X11694800Y-19148935D02*
X11642419Y-19201316D01*
X11642419Y-19201316D02*
X11694800Y-19253697D01*
X11694800Y-19253697D02*
X11747180Y-19201316D01*
X11747180Y-19201316D02*
X11642419Y-19201316D01*
X12742419Y-17996554D02*
X12742419Y-17367982D01*
X11642419Y-17682268D02*
X12742419Y-17682268D01*
X11747180Y-17001316D02*
X11694800Y-16948935D01*
X11694800Y-16948935D02*
X11642419Y-17001316D01*
X11642419Y-17001316D02*
X11694800Y-17053697D01*
X11694800Y-17053697D02*
X11747180Y-17001316D01*
X11747180Y-17001316D02*
X11642419Y-17001316D01*
X11956704Y-15691792D02*
X11956704Y-15167982D01*
X11642419Y-15796554D02*
X12742419Y-15429887D01*
X12742419Y-15429887D02*
X11642419Y-15063220D01*
X12375752Y-14696554D02*
X11642419Y-14696554D01*
X12270990Y-14696554D02*
X12323371Y-14644173D01*
X12323371Y-14644173D02*
X12375752Y-14539411D01*
X12375752Y-14539411D02*
X12375752Y-14382268D01*
X12375752Y-14382268D02*
X12323371Y-14277506D01*
X12323371Y-14277506D02*
X12218609Y-14225125D01*
X12218609Y-14225125D02*
X11642419Y-14225125D01*
X12375752Y-13858459D02*
X12375752Y-13439411D01*
X12742419Y-13701316D02*
X11799561Y-13701316D01*
X11799561Y-13701316D02*
X11694800Y-13648935D01*
X11694800Y-13648935D02*
X11642419Y-13544173D01*
X11642419Y-13544173D02*
X11642419Y-13439411D01*
X11642419Y-12915602D02*
X11694800Y-13020364D01*
X11694800Y-13020364D02*
X11747180Y-13072745D01*
X11747180Y-13072745D02*
X11851942Y-13125126D01*
X11851942Y-13125126D02*
X12166228Y-13125126D01*
X12166228Y-13125126D02*
X12270990Y-13072745D01*
X12270990Y-13072745D02*
X12323371Y-13020364D01*
X12323371Y-13020364D02*
X12375752Y-12915602D01*
X12375752Y-12915602D02*
X12375752Y-12758459D01*
X12375752Y-12758459D02*
X12323371Y-12653697D01*
X12323371Y-12653697D02*
X12270990Y-12601316D01*
X12270990Y-12601316D02*
X12166228Y-12548935D01*
X12166228Y-12548935D02*
X11851942Y-12548935D01*
X11851942Y-12548935D02*
X11747180Y-12601316D01*
X11747180Y-12601316D02*
X11694800Y-12653697D01*
X11694800Y-12653697D02*
X11642419Y-12758459D01*
X11642419Y-12758459D02*
X11642419Y-12915602D01*
X11642419Y-11920364D02*
X11694800Y-12025126D01*
X11694800Y-12025126D02*
X11799561Y-12077507D01*
X11799561Y-12077507D02*
X12742419Y-12077507D01*
X11642419Y-11501317D02*
X12375752Y-11501317D01*
X12742419Y-11501317D02*
X12690038Y-11553698D01*
X12690038Y-11553698D02*
X12637657Y-11501317D01*
X12637657Y-11501317D02*
X12690038Y-11448936D01*
X12690038Y-11448936D02*
X12742419Y-11501317D01*
X12742419Y-11501317D02*
X12637657Y-11501317D01*
X11642419Y-10977507D02*
X12742419Y-10977507D01*
X12061466Y-10872745D02*
X11642419Y-10558459D01*
X12375752Y-10558459D02*
X11956704Y-10977507D01*
X11694800Y-10034650D02*
X11642419Y-10034650D01*
X11642419Y-10034650D02*
X11537657Y-10087031D01*
X11537657Y-10087031D02*
X11485276Y-10139412D01*
X11642419Y-8725126D02*
X12742419Y-8725126D01*
X12742419Y-8725126D02*
X11956704Y-8358459D01*
X11956704Y-8358459D02*
X12742419Y-7991792D01*
X12742419Y-7991792D02*
X11642419Y-7991792D01*
X11642419Y-6996554D02*
X12218609Y-6996554D01*
X12218609Y-6996554D02*
X12323371Y-7048935D01*
X12323371Y-7048935D02*
X12375752Y-7153697D01*
X12375752Y-7153697D02*
X12375752Y-7363221D01*
X12375752Y-7363221D02*
X12323371Y-7467983D01*
X11694800Y-6996554D02*
X11642419Y-7101316D01*
X11642419Y-7101316D02*
X11642419Y-7363221D01*
X11642419Y-7363221D02*
X11694800Y-7467983D01*
X11694800Y-7467983D02*
X11799561Y-7520364D01*
X11799561Y-7520364D02*
X11904323Y-7520364D01*
X11904323Y-7520364D02*
X12009085Y-7467983D01*
X12009085Y-7467983D02*
X12061466Y-7363221D01*
X12061466Y-7363221D02*
X12061466Y-7101316D01*
X12061466Y-7101316D02*
X12113847Y-6996554D01*
X12375752Y-6577507D02*
X11642419Y-6315602D01*
X12375752Y-6053697D02*
X11642419Y-6315602D01*
X11642419Y-6315602D02*
X11380514Y-6420364D01*
X11380514Y-6420364D02*
X11328133Y-6472745D01*
X11328133Y-6472745D02*
X11275752Y-6577507D01*
X12637657Y-4848936D02*
X12690038Y-4796555D01*
X12690038Y-4796555D02*
X12742419Y-4691793D01*
X12742419Y-4691793D02*
X12742419Y-4429888D01*
X12742419Y-4429888D02*
X12690038Y-4325126D01*
X12690038Y-4325126D02*
X12637657Y-4272745D01*
X12637657Y-4272745D02*
X12532895Y-4220364D01*
X12532895Y-4220364D02*
X12428133Y-4220364D01*
X12428133Y-4220364D02*
X12270990Y-4272745D01*
X12270990Y-4272745D02*
X11642419Y-4901317D01*
X11642419Y-4901317D02*
X11642419Y-4220364D01*
X12742419Y-3539412D02*
X12742419Y-3434650D01*
X12742419Y-3434650D02*
X12690038Y-3329888D01*
X12690038Y-3329888D02*
X12637657Y-3277507D01*
X12637657Y-3277507D02*
X12532895Y-3225126D01*
X12532895Y-3225126D02*
X12323371Y-3172745D01*
X12323371Y-3172745D02*
X12061466Y-3172745D01*
X12061466Y-3172745D02*
X11851942Y-3225126D01*
X11851942Y-3225126D02*
X11747180Y-3277507D01*
X11747180Y-3277507D02*
X11694800Y-3329888D01*
X11694800Y-3329888D02*
X11642419Y-3434650D01*
X11642419Y-3434650D02*
X11642419Y-3539412D01*
X11642419Y-3539412D02*
X11694800Y-3644174D01*
X11694800Y-3644174D02*
X11747180Y-3696555D01*
X11747180Y-3696555D02*
X11851942Y-3748936D01*
X11851942Y-3748936D02*
X12061466Y-3801317D01*
X12061466Y-3801317D02*
X12323371Y-3801317D01*
X12323371Y-3801317D02*
X12532895Y-3748936D01*
X12532895Y-3748936D02*
X12637657Y-3696555D01*
X12637657Y-3696555D02*
X12690038Y-3644174D01*
X12690038Y-3644174D02*
X12742419Y-3539412D01*
X12637657Y-2753698D02*
X12690038Y-2701317D01*
X12690038Y-2701317D02*
X12742419Y-2596555D01*
X12742419Y-2596555D02*
X12742419Y-2334650D01*
X12742419Y-2334650D02*
X12690038Y-2229888D01*
X12690038Y-2229888D02*
X12637657Y-2177507D01*
X12637657Y-2177507D02*
X12532895Y-2125126D01*
X12532895Y-2125126D02*
X12428133Y-2125126D01*
X12428133Y-2125126D02*
X12270990Y-2177507D01*
X12270990Y-2177507D02*
X11642419Y-2806079D01*
X11642419Y-2806079D02*
X11642419Y-2125126D01*
X12375752Y-1182269D02*
X11642419Y-1182269D01*
X12794800Y-1444174D02*
X12009085Y-1706079D01*
X12009085Y-1706079D02*
X12009085Y-1025126D01*
X-3699999Y-31754819D02*
X-3223809Y-31754819D01*
X-3223809Y-31754819D02*
X-3176190Y-32231009D01*
X-3176190Y-32231009D02*
X-3223809Y-32183390D01*
X-3223809Y-32183390D02*
X-3319047Y-32135771D01*
X-3319047Y-32135771D02*
X-3557142Y-32135771D01*
X-3557142Y-32135771D02*
X-3652380Y-32183390D01*
X-3652380Y-32183390D02*
X-3699999Y-32231009D01*
X-3699999Y-32231009D02*
X-3747618Y-32326247D01*
X-3747618Y-32326247D02*
X-3747618Y-32564342D01*
X-3747618Y-32564342D02*
X-3699999Y-32659580D01*
X-3699999Y-32659580D02*
X-3652380Y-32707200D01*
X-3652380Y-32707200D02*
X-3557142Y-32754819D01*
X-3557142Y-32754819D02*
X-3319047Y-32754819D01*
X-3319047Y-32754819D02*
X-3223809Y-32707200D01*
X-3223809Y-32707200D02*
X-3176190Y-32659580D01*
X-4033333Y-31754819D02*
X-4366666Y-32754819D01*
X-4366666Y-32754819D02*
X-4699999Y-31754819D01*
X-5985714Y-31754819D02*
X-6176190Y-31754819D01*
X-6176190Y-31754819D02*
X-6271428Y-31802438D01*
X-6271428Y-31802438D02*
X-6366666Y-31897676D01*
X-6366666Y-31897676D02*
X-6414285Y-32088152D01*
X-6414285Y-32088152D02*
X-6414285Y-32421485D01*
X-6414285Y-32421485D02*
X-6366666Y-32611961D01*
X-6366666Y-32611961D02*
X-6271428Y-32707200D01*
X-6271428Y-32707200D02*
X-6176190Y-32754819D01*
X-6176190Y-32754819D02*
X-5985714Y-32754819D01*
X-5985714Y-32754819D02*
X-5890476Y-32707200D01*
X-5890476Y-32707200D02*
X-5795238Y-32611961D01*
X-5795238Y-32611961D02*
X-5747619Y-32421485D01*
X-5747619Y-32421485D02*
X-5747619Y-32088152D01*
X-5747619Y-32088152D02*
X-5795238Y-31897676D01*
X-5795238Y-31897676D02*
X-5890476Y-31802438D01*
X-5890476Y-31802438D02*
X-5985714Y-31754819D01*
X-6842857Y-31754819D02*
X-6842857Y-32564342D01*
X-6842857Y-32564342D02*
X-6890476Y-32659580D01*
X-6890476Y-32659580D02*
X-6938095Y-32707200D01*
X-6938095Y-32707200D02*
X-7033333Y-32754819D01*
X-7033333Y-32754819D02*
X-7223809Y-32754819D01*
X-7223809Y-32754819D02*
X-7319047Y-32707200D01*
X-7319047Y-32707200D02*
X-7366666Y-32659580D01*
X-7366666Y-32659580D02*
X-7414285Y-32564342D01*
X-7414285Y-32564342D02*
X-7414285Y-31754819D01*
X-7747619Y-31754819D02*
X-8319047Y-31754819D01*
X-8033333Y-32754819D02*
X-8033333Y-31754819D01*
X4907142Y-27262295D02*
X4907142Y-26462295D01*
X4907142Y-26462295D02*
X4640476Y-27033723D01*
X4640476Y-27033723D02*
X4373809Y-26462295D01*
X4373809Y-26462295D02*
X4373809Y-27262295D01*
X3992856Y-27262295D02*
X3992856Y-26462295D01*
X3650000Y-27224200D02*
X3535714Y-27262295D01*
X3535714Y-27262295D02*
X3345238Y-27262295D01*
X3345238Y-27262295D02*
X3269047Y-27224200D01*
X3269047Y-27224200D02*
X3230952Y-27186104D01*
X3230952Y-27186104D02*
X3192857Y-27109914D01*
X3192857Y-27109914D02*
X3192857Y-27033723D01*
X3192857Y-27033723D02*
X3230952Y-26957533D01*
X3230952Y-26957533D02*
X3269047Y-26919438D01*
X3269047Y-26919438D02*
X3345238Y-26881342D01*
X3345238Y-26881342D02*
X3497619Y-26843247D01*
X3497619Y-26843247D02*
X3573809Y-26805152D01*
X3573809Y-26805152D02*
X3611904Y-26767057D01*
X3611904Y-26767057D02*
X3650000Y-26690866D01*
X3650000Y-26690866D02*
X3650000Y-26614676D01*
X3650000Y-26614676D02*
X3611904Y-26538485D01*
X3611904Y-26538485D02*
X3573809Y-26500390D01*
X3573809Y-26500390D02*
X3497619Y-26462295D01*
X3497619Y-26462295D02*
X3307142Y-26462295D01*
X3307142Y-26462295D02*
X3192857Y-26500390D01*
X2697618Y-26462295D02*
X2545237Y-26462295D01*
X2545237Y-26462295D02*
X2469047Y-26500390D01*
X2469047Y-26500390D02*
X2392856Y-26576580D01*
X2392856Y-26576580D02*
X2354761Y-26728961D01*
X2354761Y-26728961D02*
X2354761Y-26995628D01*
X2354761Y-26995628D02*
X2392856Y-27148009D01*
X2392856Y-27148009D02*
X2469047Y-27224200D01*
X2469047Y-27224200D02*
X2545237Y-27262295D01*
X2545237Y-27262295D02*
X2697618Y-27262295D01*
X2697618Y-27262295D02*
X2773809Y-27224200D01*
X2773809Y-27224200D02*
X2849999Y-27148009D01*
X2849999Y-27148009D02*
X2888095Y-26995628D01*
X2888095Y-26995628D02*
X2888095Y-26728961D01*
X2888095Y-26728961D02*
X2849999Y-26576580D01*
X2849999Y-26576580D02*
X2773809Y-26500390D01*
X2773809Y-26500390D02*
X2697618Y-26462295D01*
X5726189Y-25236104D02*
X5764285Y-25274200D01*
X5764285Y-25274200D02*
X5878570Y-25312295D01*
X5878570Y-25312295D02*
X5954761Y-25312295D01*
X5954761Y-25312295D02*
X6069047Y-25274200D01*
X6069047Y-25274200D02*
X6145237Y-25198009D01*
X6145237Y-25198009D02*
X6183332Y-25121819D01*
X6183332Y-25121819D02*
X6221428Y-24969438D01*
X6221428Y-24969438D02*
X6221428Y-24855152D01*
X6221428Y-24855152D02*
X6183332Y-24702771D01*
X6183332Y-24702771D02*
X6145237Y-24626580D01*
X6145237Y-24626580D02*
X6069047Y-24550390D01*
X6069047Y-24550390D02*
X5954761Y-24512295D01*
X5954761Y-24512295D02*
X5878570Y-24512295D01*
X5878570Y-24512295D02*
X5764285Y-24550390D01*
X5764285Y-24550390D02*
X5726189Y-24588485D01*
X5002380Y-25312295D02*
X5383332Y-25312295D01*
X5383332Y-25312295D02*
X5383332Y-24512295D01*
X4735713Y-25312295D02*
X4735713Y-24512295D01*
X4278570Y-25312295D02*
X4621428Y-24855152D01*
X4278570Y-24512295D02*
X4735713Y-24969438D01*
X5454761Y-11912295D02*
X5454761Y-11112295D01*
X5073809Y-11912295D02*
X5073809Y-11112295D01*
X5073809Y-11112295D02*
X4616666Y-11912295D01*
X4616666Y-11912295D02*
X4616666Y-11112295D01*
X4350000Y-11112295D02*
X3892857Y-11112295D01*
X4121429Y-11912295D02*
X4121429Y-11112295D01*
X3207143Y-11912295D02*
X3664286Y-11912295D01*
X3435714Y-11912295D02*
X3435714Y-11112295D01*
X3435714Y-11112295D02*
X3511905Y-11226580D01*
X3511905Y-11226580D02*
X3588095Y-11302771D01*
X3588095Y-11302771D02*
X3664286Y-11340866D01*
X3857142Y-29262295D02*
X3857142Y-28462295D01*
X3857142Y-28462295D02*
X3590476Y-29033723D01*
X3590476Y-29033723D02*
X3323809Y-28462295D01*
X3323809Y-28462295D02*
X3323809Y-29262295D01*
X2790475Y-28462295D02*
X2638094Y-28462295D01*
X2638094Y-28462295D02*
X2561904Y-28500390D01*
X2561904Y-28500390D02*
X2485713Y-28576580D01*
X2485713Y-28576580D02*
X2447618Y-28728961D01*
X2447618Y-28728961D02*
X2447618Y-28995628D01*
X2447618Y-28995628D02*
X2485713Y-29148009D01*
X2485713Y-29148009D02*
X2561904Y-29224200D01*
X2561904Y-29224200D02*
X2638094Y-29262295D01*
X2638094Y-29262295D02*
X2790475Y-29262295D01*
X2790475Y-29262295D02*
X2866666Y-29224200D01*
X2866666Y-29224200D02*
X2942856Y-29148009D01*
X2942856Y-29148009D02*
X2980952Y-28995628D01*
X2980952Y-28995628D02*
X2980952Y-28728961D01*
X2980952Y-28728961D02*
X2942856Y-28576580D01*
X2942856Y-28576580D02*
X2866666Y-28500390D01*
X2866666Y-28500390D02*
X2790475Y-28462295D01*
X2142857Y-29224200D02*
X2028571Y-29262295D01*
X2028571Y-29262295D02*
X1838095Y-29262295D01*
X1838095Y-29262295D02*
X1761904Y-29224200D01*
X1761904Y-29224200D02*
X1723809Y-29186104D01*
X1723809Y-29186104D02*
X1685714Y-29109914D01*
X1685714Y-29109914D02*
X1685714Y-29033723D01*
X1685714Y-29033723D02*
X1723809Y-28957533D01*
X1723809Y-28957533D02*
X1761904Y-28919438D01*
X1761904Y-28919438D02*
X1838095Y-28881342D01*
X1838095Y-28881342D02*
X1990476Y-28843247D01*
X1990476Y-28843247D02*
X2066666Y-28805152D01*
X2066666Y-28805152D02*
X2104761Y-28767057D01*
X2104761Y-28767057D02*
X2142857Y-28690866D01*
X2142857Y-28690866D02*
X2142857Y-28614676D01*
X2142857Y-28614676D02*
X2104761Y-28538485D01*
X2104761Y-28538485D02*
X2066666Y-28500390D01*
X2066666Y-28500390D02*
X1990476Y-28462295D01*
X1990476Y-28462295D02*
X1799999Y-28462295D01*
X1799999Y-28462295D02*
X1685714Y-28500390D01*
X1342856Y-29262295D02*
X1342856Y-28462295D01*
X3304761Y-16512295D02*
X3304761Y-15712295D01*
X2923809Y-16512295D02*
X2923809Y-15712295D01*
X2923809Y-15712295D02*
X2466666Y-16512295D01*
X2466666Y-16512295D02*
X2466666Y-15712295D01*
X2200000Y-15712295D02*
X1742857Y-15712295D01*
X1971429Y-16512295D02*
X1971429Y-15712295D01*
X1514286Y-15788485D02*
X1476190Y-15750390D01*
X1476190Y-15750390D02*
X1400000Y-15712295D01*
X1400000Y-15712295D02*
X1209524Y-15712295D01*
X1209524Y-15712295D02*
X1133333Y-15750390D01*
X1133333Y-15750390D02*
X1095238Y-15788485D01*
X1095238Y-15788485D02*
X1057143Y-15864676D01*
X1057143Y-15864676D02*
X1057143Y-15940866D01*
X1057143Y-15940866D02*
X1095238Y-16055152D01*
X1095238Y-16055152D02*
X1552381Y-16512295D01*
X1552381Y-16512295D02*
X1057143Y-16512295D01*
X10066666Y36268990D02*
X9923809Y36221371D01*
X9923809Y36221371D02*
X9876190Y36173752D01*
X9876190Y36173752D02*
X9828571Y36078514D01*
X9828571Y36078514D02*
X9828571Y35935657D01*
X9828571Y35935657D02*
X9876190Y35840419D01*
X9876190Y35840419D02*
X9923809Y35792800D01*
X9923809Y35792800D02*
X10019047Y35745180D01*
X10019047Y35745180D02*
X10399999Y35745180D01*
X10399999Y35745180D02*
X10399999Y36745180D01*
X10399999Y36745180D02*
X10066666Y36745180D01*
X10066666Y36745180D02*
X9971428Y36697561D01*
X9971428Y36697561D02*
X9923809Y36649942D01*
X9923809Y36649942D02*
X9876190Y36554704D01*
X9876190Y36554704D02*
X9876190Y36459466D01*
X9876190Y36459466D02*
X9923809Y36364228D01*
X9923809Y36364228D02*
X9971428Y36316609D01*
X9971428Y36316609D02*
X10066666Y36268990D01*
X10066666Y36268990D02*
X10399999Y36268990D01*
X9447618Y36030895D02*
X8971428Y36030895D01*
X9542856Y35745180D02*
X9209523Y36745180D01*
X9209523Y36745180D02*
X8876190Y35745180D01*
X8066666Y35745180D02*
X8542856Y35745180D01*
X8542856Y35745180D02*
X8542856Y36745180D01*
X7780951Y36030895D02*
X7304761Y36030895D01*
X7876189Y35745180D02*
X7542856Y36745180D01*
X7542856Y36745180D02*
X7209523Y35745180D01*
X6876189Y35745180D02*
X6876189Y36745180D01*
X6876189Y36745180D02*
X6304761Y35745180D01*
X6304761Y35745180D02*
X6304761Y36745180D01*
X5257142Y35840419D02*
X5304761Y35792800D01*
X5304761Y35792800D02*
X5447618Y35745180D01*
X5447618Y35745180D02*
X5542856Y35745180D01*
X5542856Y35745180D02*
X5685713Y35792800D01*
X5685713Y35792800D02*
X5780951Y35888038D01*
X5780951Y35888038D02*
X5828570Y35983276D01*
X5828570Y35983276D02*
X5876189Y36173752D01*
X5876189Y36173752D02*
X5876189Y36316609D01*
X5876189Y36316609D02*
X5828570Y36507085D01*
X5828570Y36507085D02*
X5780951Y36602323D01*
X5780951Y36602323D02*
X5685713Y36697561D01*
X5685713Y36697561D02*
X5542856Y36745180D01*
X5542856Y36745180D02*
X5447618Y36745180D01*
X5447618Y36745180D02*
X5304761Y36697561D01*
X5304761Y36697561D02*
X5257142Y36649942D01*
X4828570Y36268990D02*
X4495237Y36268990D01*
X4352380Y35745180D02*
X4828570Y35745180D01*
X4828570Y35745180D02*
X4828570Y36745180D01*
X4828570Y36745180D02*
X4352380Y36745180D01*
X-8447619Y-1462295D02*
X-8066667Y-1462295D01*
X-8066667Y-1462295D02*
X-8028571Y-1843247D01*
X-8028571Y-1843247D02*
X-8066667Y-1805152D01*
X-8066667Y-1805152D02*
X-8142857Y-1767057D01*
X-8142857Y-1767057D02*
X-8333333Y-1767057D01*
X-8333333Y-1767057D02*
X-8409524Y-1805152D01*
X-8409524Y-1805152D02*
X-8447619Y-1843247D01*
X-8447619Y-1843247D02*
X-8485714Y-1919438D01*
X-8485714Y-1919438D02*
X-8485714Y-2109914D01*
X-8485714Y-2109914D02*
X-8447619Y-2186104D01*
X-8447619Y-2186104D02*
X-8409524Y-2224200D01*
X-8409524Y-2224200D02*
X-8333333Y-2262295D01*
X-8333333Y-2262295D02*
X-8142857Y-2262295D01*
X-8142857Y-2262295D02*
X-8066667Y-2224200D01*
X-8066667Y-2224200D02*
X-8028571Y-2186104D01*
X-8714286Y-1462295D02*
X-8980953Y-2262295D01*
X-8980953Y-2262295D02*
X-9247619Y-1462295D01*
X1130952Y-6412295D02*
X635714Y-6412295D01*
X635714Y-6412295D02*
X902380Y-6717057D01*
X902380Y-6717057D02*
X788095Y-6717057D01*
X788095Y-6717057D02*
X711904Y-6755152D01*
X711904Y-6755152D02*
X673809Y-6793247D01*
X673809Y-6793247D02*
X635714Y-6869438D01*
X635714Y-6869438D02*
X635714Y-7059914D01*
X635714Y-7059914D02*
X673809Y-7136104D01*
X673809Y-7136104D02*
X711904Y-7174200D01*
X711904Y-7174200D02*
X788095Y-7212295D01*
X788095Y-7212295D02*
X1016666Y-7212295D01*
X1016666Y-7212295D02*
X1092857Y-7174200D01*
X1092857Y-7174200D02*
X1130952Y-7136104D01*
X292856Y-7136104D02*
X254761Y-7174200D01*
X254761Y-7174200D02*
X292856Y-7212295D01*
X292856Y-7212295D02*
X330952Y-7174200D01*
X330952Y-7174200D02*
X292856Y-7136104D01*
X292856Y-7136104D02*
X292856Y-7212295D01*
X-11904Y-6412295D02*
X-507142Y-6412295D01*
X-507142Y-6412295D02*
X-240476Y-6717057D01*
X-240476Y-6717057D02*
X-354761Y-6717057D01*
X-354761Y-6717057D02*
X-430952Y-6755152D01*
X-430952Y-6755152D02*
X-469047Y-6793247D01*
X-469047Y-6793247D02*
X-507142Y-6869438D01*
X-507142Y-6869438D02*
X-507142Y-7059914D01*
X-507142Y-7059914D02*
X-469047Y-7136104D01*
X-469047Y-7136104D02*
X-430952Y-7174200D01*
X-430952Y-7174200D02*
X-354761Y-7212295D01*
X-354761Y-7212295D02*
X-126190Y-7212295D01*
X-126190Y-7212295D02*
X-49999Y-7174200D01*
X-49999Y-7174200D02*
X-11904Y-7136104D01*
X-735714Y-6412295D02*
X-1002381Y-7212295D01*
X-1002381Y-7212295D02*
X-1269047Y-6412295D01*
X10490475Y-28943247D02*
X10223809Y-28943247D01*
X10109523Y-29362295D02*
X10490475Y-29362295D01*
X10490475Y-29362295D02*
X10490475Y-28562295D01*
X10490475Y-28562295D02*
X10109523Y-28562295D01*
X9766665Y-29362295D02*
X9766665Y-28562295D01*
X9766665Y-28562295D02*
X9309522Y-29362295D01*
X9309522Y-29362295D02*
X9309522Y-28562295D01*
X6023808Y-36007200D02*
X5880951Y-36054819D01*
X5880951Y-36054819D02*
X5642856Y-36054819D01*
X5642856Y-36054819D02*
X5547618Y-36007200D01*
X5547618Y-36007200D02*
X5499999Y-35959580D01*
X5499999Y-35959580D02*
X5452380Y-35864342D01*
X5452380Y-35864342D02*
X5452380Y-35769104D01*
X5452380Y-35769104D02*
X5499999Y-35673866D01*
X5499999Y-35673866D02*
X5547618Y-35626247D01*
X5547618Y-35626247D02*
X5642856Y-35578628D01*
X5642856Y-35578628D02*
X5833332Y-35531009D01*
X5833332Y-35531009D02*
X5928570Y-35483390D01*
X5928570Y-35483390D02*
X5976189Y-35435771D01*
X5976189Y-35435771D02*
X6023808Y-35340533D01*
X6023808Y-35340533D02*
X6023808Y-35245295D01*
X6023808Y-35245295D02*
X5976189Y-35150057D01*
X5976189Y-35150057D02*
X5928570Y-35102438D01*
X5928570Y-35102438D02*
X5833332Y-35054819D01*
X5833332Y-35054819D02*
X5595237Y-35054819D01*
X5595237Y-35054819D02*
X5452380Y-35102438D01*
X5023808Y-36054819D02*
X5023808Y-35054819D01*
X5023808Y-35054819D02*
X4642856Y-35054819D01*
X4642856Y-35054819D02*
X4547618Y-35102438D01*
X4547618Y-35102438D02*
X4499999Y-35150057D01*
X4499999Y-35150057D02*
X4452380Y-35245295D01*
X4452380Y-35245295D02*
X4452380Y-35388152D01*
X4452380Y-35388152D02*
X4499999Y-35483390D01*
X4499999Y-35483390D02*
X4547618Y-35531009D01*
X4547618Y-35531009D02*
X4642856Y-35578628D01*
X4642856Y-35578628D02*
X5023808Y-35578628D01*
X4023808Y-36054819D02*
X4023808Y-35054819D01*
X13404761Y-24662295D02*
X13404761Y-23862295D01*
X13404761Y-23862295D02*
X13099999Y-23862295D01*
X13099999Y-23862295D02*
X13023809Y-23900390D01*
X13023809Y-23900390D02*
X12985714Y-23938485D01*
X12985714Y-23938485D02*
X12947618Y-24014676D01*
X12947618Y-24014676D02*
X12947618Y-24128961D01*
X12947618Y-24128961D02*
X12985714Y-24205152D01*
X12985714Y-24205152D02*
X13023809Y-24243247D01*
X13023809Y-24243247D02*
X13099999Y-24281342D01*
X13099999Y-24281342D02*
X13404761Y-24281342D01*
X12680952Y-23862295D02*
X12490476Y-24662295D01*
X12490476Y-24662295D02*
X12338095Y-24090866D01*
X12338095Y-24090866D02*
X12185714Y-24662295D01*
X12185714Y-24662295D02*
X11995238Y-23862295D01*
X11690475Y-24662295D02*
X11690475Y-23862295D01*
X11690475Y-23862295D02*
X11423809Y-24433723D01*
X11423809Y-24433723D02*
X11157142Y-23862295D01*
X11157142Y-23862295D02*
X11157142Y-24662295D01*
X10814285Y-23938485D02*
X10776189Y-23900390D01*
X10776189Y-23900390D02*
X10699999Y-23862295D01*
X10699999Y-23862295D02*
X10509523Y-23862295D01*
X10509523Y-23862295D02*
X10433332Y-23900390D01*
X10433332Y-23900390D02*
X10395237Y-23938485D01*
X10395237Y-23938485D02*
X10357142Y-24014676D01*
X10357142Y-24014676D02*
X10357142Y-24090866D01*
X10357142Y-24090866D02*
X10395237Y-24205152D01*
X10395237Y-24205152D02*
X10852380Y-24662295D01*
X10852380Y-24662295D02*
X10357142Y-24662295D01*
X-928572Y-22386104D02*
X-890476Y-22424200D01*
X-890476Y-22424200D02*
X-776191Y-22462295D01*
X-776191Y-22462295D02*
X-700000Y-22462295D01*
X-700000Y-22462295D02*
X-585714Y-22424200D01*
X-585714Y-22424200D02*
X-509524Y-22348009D01*
X-509524Y-22348009D02*
X-471429Y-22271819D01*
X-471429Y-22271819D02*
X-433333Y-22119438D01*
X-433333Y-22119438D02*
X-433333Y-22005152D01*
X-433333Y-22005152D02*
X-471429Y-21852771D01*
X-471429Y-21852771D02*
X-509524Y-21776580D01*
X-509524Y-21776580D02*
X-585714Y-21700390D01*
X-585714Y-21700390D02*
X-700000Y-21662295D01*
X-700000Y-21662295D02*
X-776191Y-21662295D01*
X-776191Y-21662295D02*
X-890476Y-21700390D01*
X-890476Y-21700390D02*
X-928572Y-21738485D01*
X-1271429Y-21662295D02*
X-1271429Y-22309914D01*
X-1271429Y-22309914D02*
X-1309524Y-22386104D01*
X-1309524Y-22386104D02*
X-1347619Y-22424200D01*
X-1347619Y-22424200D02*
X-1423810Y-22462295D01*
X-1423810Y-22462295D02*
X-1576191Y-22462295D01*
X-1576191Y-22462295D02*
X-1652381Y-22424200D01*
X-1652381Y-22424200D02*
X-1690476Y-22386104D01*
X-1690476Y-22386104D02*
X-1728572Y-22309914D01*
X-1728572Y-22309914D02*
X-1728572Y-21662295D01*
X-2566667Y-22462295D02*
X-2300000Y-22081342D01*
X-2109524Y-22462295D02*
X-2109524Y-21662295D01*
X-2109524Y-21662295D02*
X-2414286Y-21662295D01*
X-2414286Y-21662295D02*
X-2490476Y-21700390D01*
X-2490476Y-21700390D02*
X-2528571Y-21738485D01*
X-2528571Y-21738485D02*
X-2566667Y-21814676D01*
X-2566667Y-21814676D02*
X-2566667Y-21928961D01*
X-2566667Y-21928961D02*
X-2528571Y-22005152D01*
X-2528571Y-22005152D02*
X-2490476Y-22043247D01*
X-2490476Y-22043247D02*
X-2414286Y-22081342D01*
X-2414286Y-22081342D02*
X-2109524Y-22081342D01*
X4545238Y12937704D02*
X5002381Y12937704D01*
X4773809Y12937704D02*
X4773809Y13737704D01*
X4773809Y13737704D02*
X4850000Y13623419D01*
X4850000Y13623419D02*
X4926190Y13547228D01*
X4926190Y13547228D02*
X5002381Y13509133D01*
X4240476Y13661514D02*
X4202380Y13699609D01*
X4202380Y13699609D02*
X4126190Y13737704D01*
X4126190Y13737704D02*
X3935714Y13737704D01*
X3935714Y13737704D02*
X3859523Y13699609D01*
X3859523Y13699609D02*
X3821428Y13661514D01*
X3821428Y13661514D02*
X3783333Y13585323D01*
X3783333Y13585323D02*
X3783333Y13509133D01*
X3783333Y13509133D02*
X3821428Y13394847D01*
X3821428Y13394847D02*
X4278571Y12937704D01*
X4278571Y12937704D02*
X3783333Y12937704D01*
X3554761Y13737704D02*
X3288094Y12937704D01*
X3288094Y12937704D02*
X3021428Y13737704D01*
X1668990Y36542856D02*
X1621371Y36685713D01*
X1621371Y36685713D02*
X1573752Y36733332D01*
X1573752Y36733332D02*
X1478514Y36780951D01*
X1478514Y36780951D02*
X1335657Y36780951D01*
X1335657Y36780951D02*
X1240419Y36733332D01*
X1240419Y36733332D02*
X1192800Y36685713D01*
X1192800Y36685713D02*
X1145180Y36590475D01*
X1145180Y36590475D02*
X1145180Y36209523D01*
X1145180Y36209523D02*
X2145180Y36209523D01*
X2145180Y36209523D02*
X2145180Y36542856D01*
X2145180Y36542856D02*
X2097561Y36638094D01*
X2097561Y36638094D02*
X2049942Y36685713D01*
X2049942Y36685713D02*
X1954704Y36733332D01*
X1954704Y36733332D02*
X1859466Y36733332D01*
X1859466Y36733332D02*
X1764228Y36685713D01*
X1764228Y36685713D02*
X1716609Y36638094D01*
X1716609Y36638094D02*
X1668990Y36542856D01*
X1668990Y36542856D02*
X1668990Y36209523D01*
X1430895Y37161904D02*
X1430895Y37638094D01*
X1145180Y37066666D02*
X2145180Y37399999D01*
X2145180Y37399999D02*
X1145180Y37733332D01*
X2145180Y37923809D02*
X2145180Y38495237D01*
X1145180Y38209523D02*
X2145180Y38209523D01*
X764228Y39114285D02*
X811847Y39066666D01*
X811847Y39066666D02*
X954704Y38971428D01*
X954704Y38971428D02*
X1049942Y38923809D01*
X1049942Y38923809D02*
X1192800Y38876190D01*
X1192800Y38876190D02*
X1430895Y38828571D01*
X1430895Y38828571D02*
X1621371Y38828571D01*
X1621371Y38828571D02*
X1859466Y38876190D01*
X1859466Y38876190D02*
X2002323Y38923809D01*
X2002323Y38923809D02*
X2097561Y38971428D01*
X2097561Y38971428D02*
X2240419Y39066666D01*
X2240419Y39066666D02*
X2288038Y39114285D01*
X2145180Y39923809D02*
X2145180Y39733333D01*
X2145180Y39733333D02*
X2097561Y39638095D01*
X2097561Y39638095D02*
X2049942Y39590476D01*
X2049942Y39590476D02*
X1907085Y39495238D01*
X1907085Y39495238D02*
X1716609Y39447619D01*
X1716609Y39447619D02*
X1335657Y39447619D01*
X1335657Y39447619D02*
X1240419Y39495238D01*
X1240419Y39495238D02*
X1192800Y39542857D01*
X1192800Y39542857D02*
X1145180Y39638095D01*
X1145180Y39638095D02*
X1145180Y39828571D01*
X1145180Y39828571D02*
X1192800Y39923809D01*
X1192800Y39923809D02*
X1240419Y39971428D01*
X1240419Y39971428D02*
X1335657Y40019047D01*
X1335657Y40019047D02*
X1573752Y40019047D01*
X1573752Y40019047D02*
X1668990Y39971428D01*
X1668990Y39971428D02*
X1716609Y39923809D01*
X1716609Y39923809D02*
X1764228Y39828571D01*
X1764228Y39828571D02*
X1764228Y39638095D01*
X1764228Y39638095D02*
X1716609Y39542857D01*
X1716609Y39542857D02*
X1668990Y39495238D01*
X1668990Y39495238D02*
X1573752Y39447619D01*
X1192800Y40400000D02*
X1145180Y40542857D01*
X1145180Y40542857D02*
X1145180Y40780952D01*
X1145180Y40780952D02*
X1192800Y40876190D01*
X1192800Y40876190D02*
X1240419Y40923809D01*
X1240419Y40923809D02*
X1335657Y40971428D01*
X1335657Y40971428D02*
X1430895Y40971428D01*
X1430895Y40971428D02*
X1526133Y40923809D01*
X1526133Y40923809D02*
X1573752Y40876190D01*
X1573752Y40876190D02*
X1621371Y40780952D01*
X1621371Y40780952D02*
X1668990Y40590476D01*
X1668990Y40590476D02*
X1716609Y40495238D01*
X1716609Y40495238D02*
X1764228Y40447619D01*
X1764228Y40447619D02*
X1859466Y40400000D01*
X1859466Y40400000D02*
X1954704Y40400000D01*
X1954704Y40400000D02*
X2049942Y40447619D01*
X2049942Y40447619D02*
X2097561Y40495238D01*
X2097561Y40495238D02*
X2145180Y40590476D01*
X2145180Y40590476D02*
X2145180Y40828571D01*
X2145180Y40828571D02*
X2097561Y40971428D01*
X764228Y41304762D02*
X811847Y41352381D01*
X811847Y41352381D02*
X954704Y41447619D01*
X954704Y41447619D02*
X1049942Y41495238D01*
X1049942Y41495238D02*
X1192800Y41542857D01*
X1192800Y41542857D02*
X1430895Y41590476D01*
X1430895Y41590476D02*
X1621371Y41590476D01*
X1621371Y41590476D02*
X1859466Y41542857D01*
X1859466Y41542857D02*
X2002323Y41495238D01*
X2002323Y41495238D02*
X2097561Y41447619D01*
X2097561Y41447619D02*
X2240419Y41352381D01*
X2240419Y41352381D02*
X2288038Y41304762D01*
X-8328571Y-34514700D02*
X-9471429Y-34514700D01*
X-6828571Y44485300D02*
X-7971429Y44485300D01*
X-7400000Y43913871D02*
X-7400000Y45056728D01*
X-1828571Y44385300D02*
X-2971429Y44385300D01*
X-2028571Y-34414700D02*
X-3171429Y-34414700D01*
X-2600000Y-34986128D02*
X-2600000Y-33843271D01*
D12*
%TO.C,TP112*%
X-5900000Y-1900000D02*
G75*
G03*
X-5900000Y-1900000I-700000J0D01*
G01*
%TO.C,J101*%
X310000Y37090000D02*
X-1390000Y35790000D01*
X310000Y39910000D02*
X310000Y37090000D01*
X310000Y39910000D02*
X-1390000Y41210000D01*
X-1390000Y35790000D02*
X-10110000Y35790000D01*
X-1390000Y41210000D02*
X-10110000Y41210000D01*
X-10110000Y41210000D02*
X-10110000Y35790000D01*
%TO.C,TP103*%
X5700000Y-29600000D02*
G75*
G03*
X5700000Y-29600000I-700000J0D01*
G01*
%TO.C,TP105*%
X7700000Y-26000000D02*
G75*
G03*
X7700000Y-26000000I-700000J0D01*
G01*
%TO.C,TP108*%
X10600000Y-30600000D02*
G75*
G03*
X10600000Y-30600000I-700000J0D01*
G01*
%TO.C,TP109*%
X-10100000Y-28100000D02*
G75*
G03*
X-10100000Y-28100000I-700000J0D01*
G01*
%TO.C,J103*%
X-9785000Y-35840000D02*
X-7460000Y-35840000D01*
X-9785000Y-36690000D02*
X-9785000Y-35840000D01*
X-9785000Y-40210000D02*
X-9785000Y-41060000D01*
X-9785000Y-41060000D02*
X-1615000Y-41060000D01*
X-7460000Y-35840000D02*
X-7460000Y-33450000D01*
X-1615000Y-35840000D02*
X-3940000Y-35840000D01*
X-1615000Y-36690000D02*
X-1615000Y-35840000D01*
X-1615000Y-41060000D02*
X-1615000Y-40210000D01*
%TO.C,J106*%
X390000Y-37790000D02*
X1440000Y-37790000D01*
X390000Y-38940000D02*
X390000Y-37790000D01*
X1440000Y-37790000D02*
X1440000Y-36800000D01*
X1560000Y-40910000D02*
X8440000Y-40910000D01*
X9610000Y-37790000D02*
X8560000Y-37790000D01*
X9610000Y-38940000D02*
X9610000Y-37790000D01*
%TO.C,J102*%
X10350000Y35250000D02*
X10350000Y34000000D01*
X10060000Y28990000D02*
X-10060000Y28990000D01*
X10060000Y34960000D02*
X10060000Y28990000D01*
X10050000Y32700000D02*
X9300000Y32700000D01*
X10050000Y34200000D02*
X8250000Y34200000D01*
X10050000Y34950000D02*
X10050000Y34200000D01*
X9300000Y29750000D02*
X0Y29750000D01*
X9300000Y32700000D02*
X9300000Y29750000D01*
X9100000Y35250000D02*
X10350000Y35250000D01*
X8250000Y34200000D02*
X8250000Y34950000D01*
X8250000Y34950000D02*
X10050000Y34950000D01*
X6750000Y34200000D02*
X-6750000Y34200000D01*
X6750000Y34950000D02*
X6750000Y34200000D01*
X-6750000Y34200000D02*
X-6750000Y34950000D01*
X-6750000Y34950000D02*
X6750000Y34950000D01*
X-8250000Y34200000D02*
X-10050000Y34200000D01*
X-8250000Y34950000D02*
X-8250000Y34200000D01*
X-9300000Y29750000D02*
X0Y29750000D01*
X-9300000Y32700000D02*
X-9300000Y29750000D01*
X-10050000Y32700000D02*
X-9300000Y32700000D01*
X-10050000Y34200000D02*
X-10050000Y34950000D01*
X-10050000Y34950000D02*
X-8250000Y34950000D01*
X-10060000Y28990000D02*
X-10060000Y34960000D01*
X-10060000Y34960000D02*
X10060000Y34960000D01*
%TO.C,TP101*%
X5300000Y-13300000D02*
G75*
G03*
X5300000Y-13300000I-700000J0D01*
G01*
%TO.C,TP102*%
X2700000Y-14400000D02*
G75*
G03*
X2700000Y-14400000I-700000J0D01*
G01*
%TO.C,TP113*%
X3200000Y-6800000D02*
G75*
G03*
X3200000Y-6800000I-700000J0D01*
G01*
%TO.C,TP106*%
X8700000Y-24200000D02*
G75*
G03*
X8700000Y-24200000I-700000J0D01*
G01*
%TO.C,TP301*%
X7200000Y13300000D02*
G75*
G03*
X7200000Y13300000I-700000J0D01*
G01*
%TO.C,TP110*%
X12600000Y-25800000D02*
G75*
G03*
X12600000Y-25800000I-700000J0D01*
G01*
%TO.C,TP107*%
X-1100000Y13500000D02*
G75*
G03*
X-1100000Y13500000I-700000J0D01*
G01*
%TO.C,TP104*%
X6700000Y-27800000D02*
G75*
G03*
X6700000Y-27800000I-700000J0D01*
G01*
%TO.C,TP111*%
X-800000Y-23600000D02*
G75*
G03*
X-800000Y-23600000I-700000J0D01*
G01*
%TD*%
%LPC*%
D13*
%TO.C,SW101*%
X3065000Y16100000D03*
D14*
X3065000Y20800000D03*
X3065000Y25500000D03*
X-6465000Y14195000D03*
X-6465000Y27405000D03*
%TD*%
D15*
%TO.C,J201*%
X-12735000Y-18830000D03*
X-11719000Y-23910000D03*
X-13751000Y-23910000D03*
%TD*%
D16*
%TO.C,H102*%
X-13890500Y44053000D03*
%TD*%
%TO.C,H101*%
X13890500Y44053000D03*
%TD*%
%TO.C,H104*%
X13890500Y-44053000D03*
%TD*%
%TO.C,H103*%
X-13890500Y-44053000D03*
%TD*%
D17*
%TO.C,TP112*%
X-6600000Y-1900000D03*
%TD*%
D18*
%TO.C,J101*%
X-2400000Y38500000D03*
D19*
X-7400000Y38500000D03*
%TD*%
D17*
%TO.C,TP103*%
X5000000Y-29600000D03*
%TD*%
%TO.C,TP105*%
X7000000Y-26000000D03*
%TD*%
%TO.C,TP108*%
X9900000Y-30600000D03*
%TD*%
%TO.C,TP109*%
X-10800000Y-28100000D03*
%TD*%
D20*
%TO.C,J103*%
X-6700000Y-36200000D03*
X-4700000Y-36200000D03*
D21*
X-9100000Y-38450000D03*
X-2300000Y-38450000D03*
%TD*%
D22*
%TO.C,J106*%
X2000000Y-37575000D03*
X3000000Y-37575000D03*
X4000000Y-37575000D03*
X5000000Y-37575000D03*
X6000000Y-37575000D03*
X7000000Y-37575000D03*
X8000000Y-37575000D03*
D23*
X700000Y-40100000D03*
X9300000Y-40100000D03*
%TD*%
D24*
%TO.C,J102*%
X7500000Y32500000D03*
D25*
X5000000Y32500000D03*
X2500000Y32500000D03*
X0Y32500000D03*
X-2500000Y32500000D03*
X-5000000Y32500000D03*
X-7500000Y32500000D03*
%TD*%
D17*
%TO.C,TP101*%
X4600000Y-13300000D03*
%TD*%
%TO.C,TP102*%
X2000000Y-14400000D03*
%TD*%
%TO.C,TP113*%
X2500000Y-6800000D03*
%TD*%
%TO.C,TP106*%
X8000000Y-24200000D03*
%TD*%
%TO.C,TP301*%
X6500000Y13300000D03*
%TD*%
%TO.C,TP110*%
X11900000Y-25800000D03*
%TD*%
%TO.C,TP107*%
X-1800000Y13500000D03*
%TD*%
%TO.C,TP104*%
X6000000Y-27800000D03*
%TD*%
%TO.C,TP111*%
X-1500000Y-23600000D03*
%TD*%
%LPD*%
M02*
