%TF.GenerationSoftware,KiCad,Pcbnew,7.0.6*%
%TF.CreationDate,2024-05-08T12:01:16-04:00*%
%TF.ProjectId,ActiveImpactor_Power,41637469-7665-4496-9d70-6163746f725f,rev?*%
%TF.SameCoordinates,Original*%
%TF.FileFunction,Copper,L4,Bot*%
%TF.FilePolarity,Positive*%
%FSLAX46Y46*%
G04 Gerber Fmt 4.6, Leading zero omitted, Abs format (unit mm)*
G04 Created by KiCad (PCBNEW 7.0.6) date 2024-05-08 12:01:16*
%MOMM*%
%LPD*%
G01*
G04 APERTURE LIST*
G04 Aperture macros list*
%AMRoundRect*
0 Rectangle with rounded corners*
0 $1 Rounding radius*
0 $2 $3 $4 $5 $6 $7 $8 $9 X,Y pos of 4 corners*
0 Add a 4 corners polygon primitive as box body*
4,1,4,$2,$3,$4,$5,$6,$7,$8,$9,$2,$3,0*
0 Add four circle primitives for the rounded corners*
1,1,$1+$1,$2,$3*
1,1,$1+$1,$4,$5*
1,1,$1+$1,$6,$7*
1,1,$1+$1,$8,$9*
0 Add four rect primitives between the rounded corners*
20,1,$1+$1,$2,$3,$4,$5,0*
20,1,$1+$1,$4,$5,$6,$7,0*
20,1,$1+$1,$6,$7,$8,$9,0*
20,1,$1+$1,$8,$9,$2,$3,0*%
G04 Aperture macros list end*
%TA.AperFunction,ComponentPad*%
%ADD10R,2.775000X2.775000*%
%TD*%
%TA.AperFunction,ComponentPad*%
%ADD11C,2.775000*%
%TD*%
%TA.AperFunction,ComponentPad*%
%ADD12C,4.750000*%
%TD*%
%TA.AperFunction,ComponentPad*%
%ADD13C,0.600000*%
%TD*%
%TA.AperFunction,SMDPad,CuDef*%
%ADD14R,2.950000X4.500000*%
%TD*%
%TA.AperFunction,SMDPad,CuDef*%
%ADD15C,1.000000*%
%TD*%
%TA.AperFunction,ComponentPad*%
%ADD16R,3.800000X3.800000*%
%TD*%
%TA.AperFunction,ComponentPad*%
%ADD17C,3.800000*%
%TD*%
%TA.AperFunction,SMDPad,CuDef*%
%ADD18RoundRect,0.250000X-0.250000X-2.500000X0.250000X-2.500000X0.250000X2.500000X-0.250000X2.500000X0*%
%TD*%
%TA.AperFunction,SMDPad,CuDef*%
%ADD19RoundRect,0.250000X-0.550000X-1.250000X0.550000X-1.250000X0.550000X1.250000X-0.550000X1.250000X0*%
%TD*%
%TA.AperFunction,SMDPad,CuDef*%
%ADD20RoundRect,0.150000X-0.150000X-0.625000X0.150000X-0.625000X0.150000X0.625000X-0.150000X0.625000X0*%
%TD*%
%TA.AperFunction,SMDPad,CuDef*%
%ADD21RoundRect,0.250000X-0.350000X-0.650000X0.350000X-0.650000X0.350000X0.650000X-0.350000X0.650000X0*%
%TD*%
%TA.AperFunction,ComponentPad*%
%ADD22RoundRect,0.250000X0.600000X0.725000X-0.600000X0.725000X-0.600000X-0.725000X0.600000X-0.725000X0*%
%TD*%
%TA.AperFunction,ComponentPad*%
%ADD23O,1.700000X1.950000*%
%TD*%
%TA.AperFunction,ViaPad*%
%ADD24C,0.700000*%
%TD*%
%TA.AperFunction,ViaPad*%
%ADD25C,0.900000*%
%TD*%
%TA.AperFunction,ViaPad*%
%ADD26C,0.650000*%
%TD*%
%TA.AperFunction,Conductor*%
%ADD27C,0.600000*%
%TD*%
%TA.AperFunction,Conductor*%
%ADD28C,1.000000*%
%TD*%
%TA.AperFunction,Conductor*%
%ADD29C,0.500000*%
%TD*%
%TA.AperFunction,Conductor*%
%ADD30C,0.200000*%
%TD*%
%TA.AperFunction,Conductor*%
%ADD31C,0.300000*%
%TD*%
G04 APERTURE END LIST*
D10*
%TO.P,SW101,1,A*%
%TO.N,+BATT*%
X3065000Y16100000D03*
D11*
%TO.P,SW101,2,B*%
%TO.N,Net-(J101-Pin_2)*%
X3065000Y20800000D03*
%TO.P,SW101,3,C*%
%TO.N,Net-(J105-Pin_2)*%
X3065000Y25500000D03*
%TO.P,SW101,MP*%
%TO.N,N/C*%
X-6465000Y14195000D03*
X-6465000Y27405000D03*
%TD*%
D12*
%TO.P,H102,1,1*%
%TO.N,GND*%
X-13890500Y44053000D03*
%TD*%
%TO.P,H101,1,1*%
%TO.N,GND*%
X13890500Y44053000D03*
%TD*%
D13*
%TO.P,U101,9,GNDPAD*%
%TO.N,GND*%
X-750000Y8695000D03*
X-750000Y7495000D03*
X-750000Y6195000D03*
X-750000Y5095000D03*
D14*
X-150000Y6895000D03*
D13*
X450000Y8695000D03*
X450000Y7495000D03*
X450000Y6195000D03*
X450000Y5095000D03*
%TD*%
D12*
%TO.P,H104,1,1*%
%TO.N,GND*%
X13890500Y-44053000D03*
%TD*%
%TO.P,H103,1,1*%
%TO.N,GND*%
X-13890500Y-44053000D03*
%TD*%
D15*
%TO.P,TP112,1,1*%
%TO.N,+5V*%
X-6600000Y-1900000D03*
%TD*%
D16*
%TO.P,J101,1,Pin_1*%
%TO.N,GND*%
X-2400000Y38500000D03*
D17*
%TO.P,J101,2,Pin_2*%
%TO.N,Net-(J101-Pin_2)*%
X-7400000Y38500000D03*
%TD*%
D15*
%TO.P,TP103,1,1*%
%TO.N,/Microcontroller/MOSI*%
X5000000Y-29600000D03*
%TD*%
%TO.P,TP105,1,1*%
%TO.N,/Microcontroller/CLK*%
X7000000Y-26000000D03*
%TD*%
%TO.P,TP108,1,1*%
%TO.N,/H-Bridge/COIL_EN*%
X9900000Y-30600000D03*
%TD*%
%TO.P,TP109,1,1*%
%TO.N,/H-Bridge/COIL_PWM1*%
X-10800000Y-28100000D03*
%TD*%
D18*
%TO.P,J103,1,Pin_1*%
%TO.N,GND*%
X-6700000Y-36200000D03*
%TO.P,J103,2,Pin_2*%
%TO.N,+5V*%
X-4700000Y-36200000D03*
D19*
%TO.P,J103,MP*%
%TO.N,N/C*%
X-9100000Y-38450000D03*
X-2300000Y-38450000D03*
%TD*%
D20*
%TO.P,J106,1,Pin_1*%
%TO.N,GND*%
X2000000Y-37575000D03*
%TO.P,J106,2,Pin_2*%
%TO.N,Net-(J106-Pin_2)*%
X3000000Y-37575000D03*
%TO.P,J106,3,Pin_3*%
%TO.N,Net-(J106-Pin_3)*%
X4000000Y-37575000D03*
%TO.P,J106,4,Pin_4*%
%TO.N,/Microcontroller/MOSI*%
X5000000Y-37575000D03*
%TO.P,J106,5,Pin_5*%
%TO.N,/Microcontroller/MISO*%
X6000000Y-37575000D03*
%TO.P,J106,6,Pin_6*%
%TO.N,/Microcontroller/CLK*%
X7000000Y-37575000D03*
%TO.P,J106,7,Pin_7*%
%TO.N,/Microcontroller/CS*%
X8000000Y-37575000D03*
D21*
%TO.P,J106,MP*%
%TO.N,N/C*%
X700000Y-40100000D03*
X9300000Y-40100000D03*
%TD*%
D22*
%TO.P,J102,1,Pin_1*%
%TO.N,Net-(J102-Pin_1)*%
X7500000Y32500000D03*
D23*
%TO.P,J102,2,Pin_2*%
%TO.N,Net-(J102-Pin_2)*%
X5000000Y32500000D03*
%TO.P,J102,3,Pin_3*%
%TO.N,Net-(J102-Pin_3)*%
X2500000Y32500000D03*
%TO.P,J102,4,Pin_4*%
%TO.N,Net-(J102-Pin_4)*%
X0Y32500000D03*
%TO.P,J102,5,Pin_5*%
%TO.N,Net-(J102-Pin_5)*%
X-2500000Y32500000D03*
%TO.P,J102,6,Pin_6*%
%TO.N,Net-(J102-Pin_6)*%
X-5000000Y32500000D03*
%TO.P,J102,7,Pin_7*%
%TO.N,Net-(J102-Pin_7)*%
X-7500000Y32500000D03*
%TD*%
D15*
%TO.P,TP101,1,1*%
%TO.N,Net-(J106-Pin_2)*%
X4600000Y-13300000D03*
%TD*%
%TO.P,TP102,1,1*%
%TO.N,Net-(J106-Pin_3)*%
X2000000Y-14400000D03*
%TD*%
%TO.P,TP113,1,1*%
%TO.N,+3.3V*%
X2500000Y-6800000D03*
%TD*%
%TO.P,TP106,1,1*%
%TO.N,/Microcontroller/CS*%
X8000000Y-24200000D03*
%TD*%
%TO.P,TP301,1,1*%
%TO.N,+12V*%
X6500000Y13300000D03*
%TD*%
%TO.P,TP110,1,1*%
%TO.N,/H-Bridge/COIL_PWM2*%
X11900000Y-25800000D03*
%TD*%
%TO.P,TP107,1,1*%
%TO.N,Net-(D101-K)*%
X-1800000Y13500000D03*
%TD*%
%TO.P,TP104,1,1*%
%TO.N,/Microcontroller/MISO*%
X6000000Y-27800000D03*
%TD*%
%TO.P,TP111,1,1*%
%TO.N,/Microcontroller/ADC_CURRENT*%
X-1500000Y-23600000D03*
%TD*%
D24*
%TO.N,GND*%
X-400000Y-31600000D03*
D25*
X-7200000Y-45800000D03*
D24*
X-2900000Y24650000D03*
D25*
X5900000Y-44500000D03*
X14100000Y-29500000D03*
D24*
X11800000Y-39600000D03*
X-15050000Y6700000D03*
X600000Y-2550000D03*
X-6000000Y-9400000D03*
X-14300000Y8650000D03*
X-8450000Y7150000D03*
X-14431310Y11482949D03*
X300000Y23550000D03*
D25*
X-3900000Y-42300000D03*
X-8500000Y-45800000D03*
X10000000Y28900000D03*
X6500000Y27600000D03*
D24*
X-14250000Y16850000D03*
D25*
X8500000Y-45800000D03*
D24*
X-13800000Y-7400000D03*
X2049500Y-39200000D03*
D25*
X5900000Y-45800000D03*
D24*
X-1800000Y-27900000D03*
X-13100000Y4200000D03*
X-13800000Y-1400000D03*
X1600000Y-32050000D03*
D25*
X-9800000Y-44500000D03*
X-3900000Y-41100000D03*
D24*
X-6031310Y23373450D03*
D25*
X-5900000Y-44500000D03*
X8500000Y-44500000D03*
D24*
X6000000Y-8300000D03*
D25*
X5100000Y3900000D03*
X6500000Y28900000D03*
D24*
X5900000Y24100000D03*
X-750000Y-5500000D03*
D25*
X4000000Y3900000D03*
X10000000Y27600000D03*
D24*
X14050000Y24600000D03*
X9500000Y-9000000D03*
X-13800000Y-4400000D03*
X-10400000Y-33200000D03*
X5500000Y22100000D03*
D25*
X-9800000Y-45800000D03*
D24*
X7150000Y-10450000D03*
D25*
X-5900000Y-45800000D03*
D24*
X-3500000Y17800000D03*
X-8500000Y-4500000D03*
D25*
X-2700000Y-41100000D03*
D24*
X-3400000Y-5500000D03*
X-8500000Y-5400000D03*
D25*
X9800000Y-45800000D03*
X7200000Y-44500000D03*
D24*
X-4000000Y26850000D03*
D25*
X6500000Y26300000D03*
D24*
X11500000Y22550000D03*
D25*
X13000000Y-29500000D03*
D24*
X-10850000Y6600000D03*
X3709266Y-19190734D03*
X-2700000Y15750000D03*
X8500000Y-17200000D03*
D25*
X10000000Y18200000D03*
D24*
X-10000000Y-14000000D03*
D25*
X14800000Y18200000D03*
D24*
X-11900000Y11800000D03*
D25*
X7200000Y-45800000D03*
X-12800000Y-26300000D03*
X-200000Y-500000D03*
D24*
X-7149500Y-20600000D03*
X-14500000Y-39700000D03*
D25*
X9800000Y-44500000D03*
D24*
X-13250000Y14200000D03*
D25*
X7300000Y3900000D03*
D24*
X-350000Y15750000D03*
X-6800000Y17750000D03*
X-9500000Y-7600000D03*
X-10600000Y-11900000D03*
X-9800000Y14100000D03*
D25*
X-2700000Y-42300000D03*
D24*
X-14400000Y-22600000D03*
X2650000Y-950000D03*
X-5550000Y6050000D03*
X10500000Y-9000000D03*
X-14649500Y-14200000D03*
X9800000Y-2000000D03*
X-14500000Y1550000D03*
D25*
X10000000Y14000000D03*
X14800000Y14000000D03*
D24*
X14100000Y21250000D03*
D25*
X12500000Y14000000D03*
X10000000Y26300000D03*
X14800000Y16100000D03*
X10000000Y16100000D03*
D24*
X-13800000Y-2900000D03*
X-14600000Y-8800000D03*
D25*
X6200000Y3900000D03*
D24*
X-4600000Y-3000000D03*
D25*
X-7200000Y-44500000D03*
X12500000Y18200000D03*
D24*
X-9400000Y27150000D03*
X15300000Y-33300000D03*
X-1200000Y26500000D03*
X10450000Y24300000D03*
X9200000Y-11200000D03*
D25*
X1100000Y800000D03*
X-14000000Y-26300000D03*
X-200000Y800000D03*
D24*
X-6600000Y-10900000D03*
X-343611Y18064232D03*
X-10000000Y-16709500D03*
D25*
X-8500000Y-44500000D03*
D24*
X-6150000Y3700000D03*
%TO.N,Net-(D101-K)*%
X-600000Y13500000D03*
D25*
%TO.N,+5V*%
X-6600000Y900000D03*
X-5500000Y900000D03*
X-6600000Y-500000D03*
X-5500000Y-500000D03*
D24*
%TO.N,/Microcontroller/ADC_CURRENT*%
X900000Y-27600000D03*
X-1550000Y-20800000D03*
%TO.N,+3.3V*%
X2500000Y-8700000D03*
X3000000Y-18100000D03*
X1100000Y-25800000D03*
X-13500000Y-14309500D03*
X-11025000Y-8583911D03*
D26*
X-3674500Y-20754454D03*
D24*
X2500000Y-4900000D03*
X-14400000Y-20200000D03*
%TO.N,+12V*%
X15300000Y-32200000D03*
X-12200000Y-33200000D03*
D25*
X8100000Y13800000D03*
X8100000Y15100000D03*
X6800000Y15100000D03*
D24*
X-11300000Y-33200000D03*
D25*
X5500000Y15100000D03*
D24*
X15300000Y-31100000D03*
%TO.N,Net-(D302-A)*%
X-12400000Y-35700000D03*
D26*
X-5933009Y-31033009D03*
%TO.N,Net-(D303-A)*%
X-12100000Y-40300000D03*
X-6020793Y-41948296D03*
%TO.N,Net-(D309-A)*%
X14100000Y-40100000D03*
X9696915Y-41812738D03*
D24*
%TO.N,Net-(J102-Pin_1)*%
X-1600000Y43100000D03*
%TO.N,Net-(J102-Pin_2)*%
X-2600000Y43100000D03*
%TO.N,Net-(J102-Pin_3)*%
X-3600000Y43100000D03*
%TO.N,Net-(J102-Pin_4)*%
X-4600000Y43100000D03*
%TO.N,Net-(J102-Pin_5)*%
X-5600000Y43100000D03*
%TO.N,Net-(J102-Pin_6)*%
X-6600000Y43100000D03*
%TO.N,Net-(J102-Pin_7)*%
X-7600000Y43100000D03*
D26*
%TO.N,Net-(J106-Pin_2)*%
X6700000Y-15400000D03*
%TO.N,Net-(J106-Pin_3)*%
X6700000Y-14400000D03*
%TO.N,/Microcontroller/MISO*%
X400000Y-17100000D03*
%TO.N,/Microcontroller/MOSI*%
X-800000Y-16200000D03*
%TO.N,/Microcontroller/CLK*%
X1600000Y-18000000D03*
%TO.N,/Microcontroller/CS*%
X4900000Y-19100000D03*
%TO.N,/Microcontroller/BOOT0*%
X-11458411Y-17758411D03*
X-6600000Y-6300000D03*
D24*
%TO.N,/H-Bridge/COIL_EN*%
X10900000Y-35600000D03*
X-14449500Y-35000000D03*
D26*
X-7700000Y-21571636D03*
X8400000Y-20900000D03*
%TO.N,/Microcontroller/SWD_SWCLK*%
X-5800000Y-15300000D03*
X-8500000Y-20500000D03*
%TO.N,/Microcontroller/SWD_SWDIO*%
X777345Y-10625500D03*
X-1600000Y-10625500D03*
%TO.N,/Microcontroller/SWD_SWO*%
X-7930420Y-19547242D03*
X-5900000Y-12500000D03*
D24*
%TO.N,/H-Bridge/COIL_PWM1*%
X-13800000Y-35800000D03*
D26*
X-5800000Y-17600000D03*
%TO.N,/H-Bridge/COIL_PWM2*%
X6000000Y-12400000D03*
D24*
X11900000Y-35499500D03*
%TD*%
D27*
%TO.N,GND*%
X2000000Y-37575000D02*
X2000000Y-39150500D01*
D28*
X-2700000Y-42300000D02*
X-2700000Y-41100000D01*
X-3900000Y-41100000D02*
X-3900000Y-42300000D01*
X-3900000Y-42300000D02*
X-2700000Y-41100000D01*
X-4300000Y-40700000D02*
X-5500000Y-40700000D01*
D29*
X2000000Y-39150500D02*
X2049500Y-39200000D01*
D28*
X-6700000Y-39500000D02*
X-6700000Y-36200000D01*
X-3900000Y-41100000D02*
X-4300000Y-40700000D01*
X-2700000Y-41100000D02*
X-3900000Y-41100000D01*
X-5500000Y-40700000D02*
X-6700000Y-39500000D01*
X-3900000Y-42300000D02*
X-2700000Y-42300000D01*
D29*
%TO.N,Net-(D101-K)*%
X-1800000Y13500000D02*
X-600000Y13500000D01*
D28*
%TO.N,+5V*%
X-4700000Y-6598057D02*
X-6600000Y-4698057D01*
X-5500000Y-500000D02*
X-5500000Y-200000D01*
X-5500000Y-500000D02*
X-5500000Y900000D01*
X-5500000Y-200000D02*
X-6600000Y900000D01*
X-6600000Y900000D02*
X-5500000Y900000D01*
X-6600000Y-500000D02*
X-5500000Y-500000D01*
X-4700000Y-36200000D02*
X-4700000Y-6598057D01*
X-6600000Y-500000D02*
X-6600000Y900000D01*
X-6600000Y-4698057D02*
X-6600000Y-500000D01*
D30*
%TO.N,/Microcontroller/ADC_CURRENT*%
X-1500000Y-25200000D02*
X-1500000Y-23600000D01*
X-1550000Y-20800000D02*
X-1500000Y-20850000D01*
X900000Y-27600000D02*
X-1500000Y-25200000D01*
X-1500000Y-20850000D02*
X-1500000Y-23600000D01*
D29*
%TO.N,+3.3V*%
X-13500000Y-11491089D02*
X-13500000Y-14309500D01*
X-14400000Y-17200000D02*
X-13500000Y-16300000D01*
X-3674500Y-20754454D02*
X-3675980Y-20755934D01*
X1000000Y-29800000D02*
X1000000Y-29700000D01*
X1500000Y-12000000D02*
X2500000Y-11000000D01*
X-13500000Y-16300000D02*
X-13500000Y-14309500D01*
X-11025000Y-8583911D02*
X-11025000Y-9016089D01*
X2100000Y-28600000D02*
X2100000Y-26800000D01*
X-11025000Y-9016089D02*
X-13500000Y-11491089D01*
X2500000Y-11000000D02*
X2500000Y-8700000D01*
X-14400000Y-20200000D02*
X-14400000Y-17200000D01*
X-3675980Y-20755934D02*
X-3675980Y-28424020D01*
X-3674500Y-20754454D02*
X-3750000Y-20678954D01*
X1000000Y-29700000D02*
X2100000Y-28600000D01*
X-3675980Y-28424020D02*
X-2300000Y-29800000D01*
X-3750000Y-13950000D02*
X-1800000Y-12000000D01*
X2100000Y-26800000D02*
X1100000Y-25800000D01*
X-3750000Y-20678954D02*
X-3750000Y-13950000D01*
X2500000Y-8700000D02*
X2500000Y-4900000D01*
X-2300000Y-29800000D02*
X1000000Y-29800000D01*
X-1800000Y-12000000D02*
X1500000Y-12000000D01*
D28*
%TO.N,+12V*%
X-9100000Y10900000D02*
X-100000Y10900000D01*
X-11100000Y-34300000D02*
X-11100000Y-36400000D01*
X-15700000Y4300000D02*
X-9100000Y10900000D01*
X-12200000Y-33200000D02*
X-11100000Y-34300000D01*
X-11100000Y-36400000D02*
X-12200000Y-37500000D01*
X-14500000Y-37500000D02*
X-15700000Y-36300000D01*
X-15700000Y-36300000D02*
X-15700000Y4300000D01*
X1100000Y12100000D02*
X8800000Y12100000D01*
X15300000Y5600000D02*
X15300000Y-32200000D01*
X8800000Y12100000D02*
X15300000Y5600000D01*
X-12200000Y-37500000D02*
X-14500000Y-37500000D01*
X-100000Y10900000D02*
X1100000Y12100000D01*
D31*
%TO.N,Net-(D302-A)*%
X-5933009Y-31033009D02*
X-6026516Y-30939502D01*
X-6026516Y-30939502D02*
X-11439502Y-30939502D01*
X-13100000Y-35000000D02*
X-12400000Y-35700000D01*
X-13100000Y-32600000D02*
X-13100000Y-35000000D01*
X-11439502Y-30939502D02*
X-13100000Y-32600000D01*
%TO.N,Net-(D303-A)*%
X-12100000Y-40900000D02*
X-12100000Y-40300000D01*
X-6020793Y-41948296D02*
X-11051704Y-41948296D01*
X-11051704Y-41948296D02*
X-12100000Y-40900000D01*
%TO.N,Net-(D309-A)*%
X10709653Y-40800000D02*
X13400000Y-40800000D01*
X9696915Y-41812738D02*
X10709653Y-40800000D01*
X13400000Y-40800000D02*
X14100000Y-40100000D01*
%TO.N,Net-(J102-Pin_1)*%
X-1600000Y43100000D02*
X3700000Y43100000D01*
X3700000Y43100000D02*
X7500000Y39300000D01*
X7500000Y39300000D02*
X7500000Y32500000D01*
%TO.N,Net-(J102-Pin_2)*%
X2100000Y42200000D02*
X5000000Y39300000D01*
X5000000Y39300000D02*
X5000000Y32500000D01*
X-2300000Y42200000D02*
X2100000Y42200000D01*
X-2600000Y43100000D02*
X-2600000Y42500000D01*
X-2600000Y42500000D02*
X-2300000Y42200000D01*
%TO.N,Net-(J102-Pin_3)*%
X-3600000Y41900000D02*
X-3300000Y41600000D01*
X500000Y41600000D02*
X2500000Y39600000D01*
X-3600000Y43100000D02*
X-3600000Y41900000D01*
X-3300000Y41600000D02*
X500000Y41600000D01*
X2500000Y39600000D02*
X2500000Y32500000D01*
%TO.N,Net-(J102-Pin_4)*%
X-4600000Y41500000D02*
X-4100000Y41000000D01*
X0Y40500000D02*
X0Y32500000D01*
X-500000Y41000000D02*
X0Y40500000D01*
X-4100000Y41000000D02*
X-500000Y41000000D01*
X-4600000Y43100000D02*
X-4600000Y41500000D01*
%TO.N,Net-(J102-Pin_5)*%
X-4900000Y40300000D02*
X-4900000Y34900000D01*
X-5600000Y41000000D02*
X-4900000Y40300000D01*
X-4900000Y34900000D02*
X-2500000Y32500000D01*
X-5600000Y43100000D02*
X-5600000Y41000000D01*
%TO.N,Net-(J102-Pin_6)*%
X-6600000Y42100000D02*
X-7700000Y41000000D01*
X-7300000Y34800000D02*
X-5000000Y32500000D01*
X-10000000Y40100000D02*
X-10000000Y36700000D01*
X-8100000Y34800000D02*
X-7300000Y34800000D01*
X-10000000Y36700000D02*
X-8100000Y34800000D01*
X-9100000Y41000000D02*
X-10000000Y40100000D01*
X-7700000Y41000000D02*
X-9100000Y41000000D01*
X-6600000Y43100000D02*
X-6600000Y42100000D01*
%TO.N,Net-(J102-Pin_7)*%
X-10900000Y35900000D02*
X-7500000Y32500000D01*
X-7600000Y42400000D02*
X-8200000Y41800000D01*
X-7600000Y43100000D02*
X-7600000Y42400000D01*
X-10900000Y40600000D02*
X-10900000Y35900000D01*
X-9700000Y41800000D02*
X-10900000Y40600000D01*
X-8200000Y41800000D02*
X-9700000Y41800000D01*
D30*
%TO.N,Net-(J106-Pin_2)*%
X7200000Y-13300000D02*
X-1600000Y-13300000D01*
X-3200000Y-18000000D02*
X3000000Y-24200000D01*
X-3200000Y-14900000D02*
X-3200000Y-18000000D01*
X3000000Y-24200000D02*
X3000000Y-37575000D01*
X7700000Y-14800000D02*
X7700000Y-13900000D01*
X6700000Y-15400000D02*
X7100000Y-15400000D01*
X7700000Y-13800000D02*
X7200000Y-13300000D01*
X-1600000Y-13300000D02*
X-3200000Y-14900000D01*
X7100000Y-15400000D02*
X7700000Y-14800000D01*
X7700000Y-13900000D02*
X7700000Y-13800000D01*
%TO.N,Net-(J106-Pin_3)*%
X-800000Y-14400000D02*
X-2000000Y-15600000D01*
X6700000Y-14400000D02*
X4400000Y-14400000D01*
X-2000000Y-18100000D02*
X4000000Y-24100000D01*
X4400000Y-14400000D02*
X-800000Y-14400000D01*
X-2000000Y-15600000D02*
X-2000000Y-18100000D01*
X4000000Y-24100000D02*
X4000000Y-37575000D01*
%TO.N,/Microcontroller/MISO*%
X400000Y-17100000D02*
X400000Y-18100000D01*
X6000000Y-23700000D02*
X6000000Y-37575000D01*
X400000Y-18100000D02*
X6000000Y-23700000D01*
%TO.N,/Microcontroller/MOSI*%
X-800000Y-16200000D02*
X-900000Y-16300000D01*
X-900000Y-16300000D02*
X-900000Y-18000000D01*
X5000000Y-23900000D02*
X5000000Y-37575000D01*
X-900000Y-18000000D02*
X5000000Y-23900000D01*
%TO.N,/Microcontroller/CLK*%
X7000000Y-23400000D02*
X7000000Y-37575000D01*
X1600000Y-18000000D02*
X7000000Y-23400000D01*
%TO.N,/Microcontroller/CS*%
X4900000Y-19100000D02*
X4900000Y-20000000D01*
X8000000Y-23100000D02*
X8000000Y-37575000D01*
X4900000Y-20000000D02*
X8000000Y-23100000D01*
%TO.N,/Microcontroller/BOOT0*%
X-9658411Y-17758411D02*
X-8000000Y-16100000D01*
X-8000000Y-16100000D02*
X-8000000Y-7700000D01*
X-8000000Y-7700000D02*
X-6600000Y-6300000D01*
X-11458411Y-17758411D02*
X-9658411Y-17758411D01*
%TO.N,/H-Bridge/COIL_EN*%
X10900000Y-35600000D02*
X9900000Y-34600000D01*
X9900000Y-22400000D02*
X8400000Y-20900000D01*
X-7700000Y-22400000D02*
X-14400000Y-29100000D01*
X9900000Y-34600000D02*
X9900000Y-22400000D01*
X-14400000Y-29100000D02*
X-14400000Y-34950500D01*
X-14400000Y-34950500D02*
X-14449500Y-35000000D01*
X-7700000Y-21571636D02*
X-7700000Y-22400000D01*
%TO.N,/Microcontroller/SWD_SWCLK*%
X-7200000Y-19700000D02*
X-7200000Y-17800000D01*
X-8500000Y-20500000D02*
X-8000000Y-20500000D01*
X-8000000Y-20500000D02*
X-7200000Y-19700000D01*
X-5800000Y-16400000D02*
X-5800000Y-15300000D01*
X-7200000Y-17800000D02*
X-5800000Y-16400000D01*
%TO.N,/Microcontroller/SWD_SWDIO*%
X-1600000Y-10625500D02*
X777345Y-10625500D01*
%TO.N,/Microcontroller/SWD_SWO*%
X-6800000Y-16000000D02*
X-8100000Y-17300000D01*
X-5900000Y-12500000D02*
X-6800000Y-13400000D01*
X-8100000Y-17300000D02*
X-8100000Y-19377662D01*
X-8100000Y-19377662D02*
X-7930420Y-19547242D01*
X-6800000Y-13400000D02*
X-6800000Y-16000000D01*
%TO.N,/H-Bridge/COIL_PWM1*%
X-13800000Y-31100000D02*
X-13800000Y-35800000D01*
X-5800000Y-17600000D02*
X-6500000Y-18300000D01*
X-6500000Y-23800000D02*
X-13800000Y-31100000D01*
X-6500000Y-18300000D02*
X-6500000Y-23800000D01*
%TO.N,/H-Bridge/COIL_PWM2*%
X11900000Y-16500000D02*
X11900000Y-35499500D01*
X7800000Y-12400000D02*
X11900000Y-16500000D01*
X6000000Y-12400000D02*
X7800000Y-12400000D01*
%TD*%
%TA.AperFunction,Conductor*%
%TO.N,+12V*%
G36*
X8004031Y15499469D02*
G01*
X8024783Y15496737D01*
X8113224Y15485093D01*
X8144491Y15476715D01*
X8234918Y15439259D01*
X8262951Y15423074D01*
X8340601Y15363491D01*
X8363491Y15340601D01*
X8423074Y15262951D01*
X8439259Y15234918D01*
X8476715Y15144491D01*
X8485093Y15113224D01*
X8499469Y15004035D01*
X8500000Y14995934D01*
X8500000Y12504065D01*
X8499469Y12495964D01*
X8485093Y12386775D01*
X8476715Y12355508D01*
X8439259Y12265081D01*
X8423074Y12237048D01*
X8363491Y12159398D01*
X8340602Y12136509D01*
X8288526Y12096549D01*
X8262951Y12076925D01*
X8234918Y12060740D01*
X8144491Y12023284D01*
X8113223Y12014906D01*
X8004031Y12000530D01*
X7995933Y12000000D01*
X5604067Y12000000D01*
X5595967Y12000530D01*
X5486775Y12014906D01*
X5455508Y12023284D01*
X5365079Y12060740D01*
X5337050Y12076923D01*
X5259392Y12136513D01*
X5236513Y12159392D01*
X5176923Y12237050D01*
X5160740Y12265081D01*
X5123284Y12355508D01*
X5114906Y12386776D01*
X5100531Y12495964D01*
X5100000Y12504066D01*
X5100000Y14995933D01*
X5100531Y15004035D01*
X5114906Y15113223D01*
X5123284Y15144491D01*
X5160740Y15234918D01*
X5176925Y15262951D01*
X5236508Y15340601D01*
X5259398Y15363491D01*
X5337048Y15423074D01*
X5365081Y15439259D01*
X5455508Y15476715D01*
X5486775Y15485093D01*
X5572457Y15496374D01*
X5595968Y15499469D01*
X5604066Y15500000D01*
X7995934Y15500000D01*
X8004031Y15499469D01*
G37*
%TD.AperFunction*%
%TD*%
M02*
