M48
; DRILL file {KiCad 7.0.6} date Wed May  8 12:01:16 2024
; FORMAT={-:-/ absolute / inch / decimal}
; #@! TF.CreationDate,2024-05-08T12:01:16-04:00
; #@! TF.GenerationSoftware,Kicad,Pcbnew,7.0.6
; #@! TF.FileFunction,Plated,1,4,PTH
FMAT,2
INCH
; #@! TA.AperFunction,Plated,PTH,ViaDrill
T1C0.0098
; #@! TA.AperFunction,Plated,PTH,ViaDrill
T2C0.0118
; #@! TA.AperFunction,Plated,PTH,ComponentDrill
T3C0.0118
; #@! TA.AperFunction,Plated,PTH,ViaDrill
T4C0.0157
; #@! TA.AperFunction,Plated,PTH,ComponentDrill
T5C0.0374
; #@! TA.AperFunction,Plated,PTH,ComponentDrill
T6C0.0728
; #@! TA.AperFunction,Plated,PTH,ComponentDrill
T7C0.0984
; #@! TA.AperFunction,Plated,PTH,ComponentDrill
T8C0.1063
%
G90
G05
T1
X-0.4764Y-1.5866
X-0.4511Y-0.6992
X-0.3346Y-0.8071
X-0.3122Y-0.7696
X-0.3031Y-0.8493
X-0.2598Y-0.248
X-0.237Y-1.6515
X-0.2336Y-1.2218
X-0.2323Y-0.4921
X-0.2283Y-0.6024
X-0.2283Y-0.6929
X-0.1447Y-0.8171
X-0.063Y-0.4183
X-0.0315Y-0.6378
X0.0157Y-0.6732
X0.0306Y-0.4183
X0.063Y-0.7087
X0.1929Y-0.752
X0.2362Y-0.4882
X0.2638Y-0.5669
X0.2638Y-0.6063
X0.3307Y-0.8228
X0.3818Y-1.6462
X0.5551Y-1.5787
T2
X-0.5925Y0.2638
X-0.5768Y-0.5591
X-0.5748Y-0.3465
X-0.5709Y0.061
X-0.5709Y-1.563
X-0.5689Y-1.378
X-0.5682Y0.4521
X-0.5669Y-0.7953
X-0.5669Y-0.8898
X-0.563Y0.3406
X-0.561Y0.6634
X-0.5433Y-0.0551
X-0.5433Y-0.1142
X-0.5433Y-0.1732
X-0.5433Y-0.2913
X-0.5433Y-1.4094
X-0.5315Y-0.5634
X-0.5217Y0.5591
X-0.5157Y0.1654
X-0.4882Y-1.4055
X-0.4803Y-1.3071
X-0.4685Y0.4646
X-0.4449Y-1.3071
X-0.4341Y-0.3379
X-0.4272Y0.2598
X-0.4173Y-0.4685
X-0.4094Y-1.3071
X-0.3937Y-0.5512
X-0.3937Y-0.6579
X-0.3858Y0.5551
X-0.374Y-0.2992
X-0.3701Y1.0689
X-0.3346Y-0.1772
X-0.3346Y-0.2126
X-0.3327Y0.2815
X-0.2992Y1.6969
X-0.2815Y-0.811
X-0.2677Y0.6988
X-0.2598Y1.6969
X-0.2598Y-0.4291
X-0.2421Y0.1457
X-0.2375Y0.9202
X-0.2362Y-0.3701
X-0.2205Y1.6969
X-0.2185Y0.2382
X-0.1811Y1.6969
X-0.1811Y-0.1181
X-0.1575Y1.0571
X-0.1417Y1.6969
X-0.1378Y0.7008
X-0.1339Y-0.2165
X-0.1142Y0.9705
X-0.1063Y0.6201
X-0.1024Y1.6969
X-0.0709Y-1.0984
X-0.063Y1.6969
X-0.061Y-0.8189
X-0.0472Y1.0433
X-0.0295Y-0.2165
X-0.0236Y0.5315
X-0.0157Y-1.2441
X-0.0138Y0.6201
X-0.0135Y0.7112
X0.0118Y0.9272
X0.0236Y-0.1004
X0.0354Y-1.0866
X0.0433Y-1.0157
X0.063Y-1.2618
X0.0807Y-1.5433
X0.0984Y-0.1929
X0.0984Y-0.3425
X0.1043Y-0.0374
X0.1181Y-0.7126
X0.146Y-0.7555
X0.2165Y0.8701
X0.2323Y0.9488
X0.2362Y-0.3268
X0.2815Y-0.4114
X0.3346Y-0.6772
X0.3622Y-0.4409
X0.374Y-0.3543
X0.3858Y-0.0787
X0.4114Y0.9567
X0.4134Y-0.3543
X0.4291Y-1.4016
X0.4528Y0.8878
X0.4646Y-1.5591
X0.4685Y-1.3976
X0.5531Y0.9685
X0.5551Y0.8366
X0.6024Y-1.2244
X0.6024Y-1.2677
X0.6024Y-1.311
T3
X-0.0295Y0.3423
X-0.0295Y0.2951
X-0.0295Y0.2439
X-0.0295Y0.2006
X0.0177Y0.3423
X0.0177Y0.2951
X0.0177Y0.2439
X0.0177Y0.2006
T4
X-0.5512Y-1.0354
X-0.5039Y-1.0354
X-0.3858Y-1.752
X-0.3858Y-1.8031
X-0.3346Y-1.752
X-0.3346Y-1.8031
X-0.2835Y-1.752
X-0.2835Y-1.8031
X-0.2598Y0.0354
X-0.2598Y-0.0197
X-0.2323Y-1.752
X-0.2323Y-1.8031
X-0.2165Y0.0354
X-0.2165Y-0.0197
X-0.1535Y-1.6181
X-0.1535Y-1.6654
X-0.1063Y-1.6181
X-0.1063Y-1.6654
X-0.0079Y0.0315
X-0.0079Y-0.0197
X0.0433Y0.0315
X0.1575Y0.1535
X0.2008Y0.1535
X0.2165Y0.5945
X0.2323Y-1.752
X0.2323Y-1.8031
X0.2441Y0.1535
X0.2559Y1.1378
X0.2559Y1.0866
X0.2559Y1.0354
X0.2677Y0.5945
X0.2835Y-1.752
X0.2835Y-1.8031
X0.2874Y0.1535
X0.3189Y0.5945
X0.3189Y0.5433
X0.3346Y-1.752
X0.3346Y-1.8031
X0.3858Y-1.752
X0.3858Y-1.8031
X0.3937Y1.1378
X0.3937Y1.0866
X0.3937Y1.0354
X0.3937Y0.7165
X0.3937Y0.6339
X0.3937Y0.5512
X0.4921Y0.7165
X0.4921Y0.5512
X0.5118Y-1.1614
X0.5551Y-1.1614
X0.5827Y0.7165
X0.5827Y0.6339
X0.5827Y0.5512
T5
X-0.2953Y1.2795
X-0.1969Y1.2795
X-0.0984Y1.2795
X0.0Y1.2795
X0.0984Y1.2795
X0.1969Y1.2795
X0.2953Y1.2795
T6
X-0.2545Y1.0789
X-0.2545Y0.5589
X0.1207Y1.0039
X0.1207Y0.8189
X0.1207Y0.6339
T7
X-0.5469Y1.7344
X-0.5469Y-1.7344
X0.5469Y1.7344
X0.5469Y-1.7344
T8
X-0.2913Y1.5157
X-0.0945Y1.5157
T0
M30
