%TF.GenerationSoftware,KiCad,Pcbnew,7.0.6*%
%TF.CreationDate,2024-05-08T12:01:16-04:00*%
%TF.ProjectId,ActiveImpactor_Power,41637469-7665-4496-9d70-6163746f725f,rev?*%
%TF.SameCoordinates,Original*%
%TF.FileFunction,Soldermask,Bot*%
%TF.FilePolarity,Negative*%
%FSLAX46Y46*%
G04 Gerber Fmt 4.6, Leading zero omitted, Abs format (unit mm)*
G04 Created by KiCad (PCBNEW 7.0.6) date 2024-05-08 12:01:16*
%MOMM*%
%LPD*%
G01*
G04 APERTURE LIST*
G04 APERTURE END LIST*
G36*
X-13817798Y-41682765D02*
G01*
X-13741381Y-41682765D01*
X-13658984Y-41693173D01*
X-13580500Y-41698318D01*
X-13514773Y-41711391D01*
X-13445477Y-41720146D01*
X-13358518Y-41742473D01*
X-13275805Y-41758926D01*
X-13217950Y-41778564D01*
X-13156612Y-41794314D01*
X-13066792Y-41829876D01*
X-12981627Y-41858786D01*
X-12932153Y-41883183D01*
X-12879305Y-41904108D01*
X-12788545Y-41954003D01*
X-12703000Y-41996190D01*
X-12662107Y-42023513D01*
X-12617956Y-42047786D01*
X-12528365Y-42112876D01*
X-12444692Y-42168786D01*
X-12412229Y-42197254D01*
X-12376666Y-42223093D01*
X-12290501Y-42304006D01*
X-12211121Y-42373621D01*
X-12186628Y-42401549D01*
X-12159257Y-42427253D01*
X-12078865Y-42524430D01*
X-12006286Y-42607192D01*
X-11989007Y-42633050D01*
X-11969149Y-42657056D01*
X-11896923Y-42770864D01*
X-11833690Y-42865500D01*
X-11822621Y-42887945D01*
X-11809340Y-42908873D01*
X-11747654Y-43039962D01*
X-11696286Y-43144127D01*
X-11690194Y-43162071D01*
X-11682353Y-43178736D01*
X-11633509Y-43329059D01*
X-11596426Y-43438305D01*
X-11593919Y-43450905D01*
X-11590191Y-43462381D01*
X-11556357Y-43639743D01*
X-11535818Y-43743000D01*
X-11535377Y-43749722D01*
X-11534306Y-43755339D01*
X-11517470Y-44022940D01*
X-11515500Y-44053000D01*
X-11517470Y-44083062D01*
X-11534306Y-44350660D01*
X-11535377Y-44356275D01*
X-11535818Y-44363000D01*
X-11556361Y-44466279D01*
X-11590191Y-44643618D01*
X-11593919Y-44655091D01*
X-11596426Y-44667695D01*
X-11633517Y-44776962D01*
X-11682353Y-44927263D01*
X-11690193Y-44943924D01*
X-11696286Y-44961873D01*
X-11747664Y-45066058D01*
X-11809340Y-45197126D01*
X-11822618Y-45218049D01*
X-11833690Y-45240500D01*
X-11896935Y-45335153D01*
X-11969149Y-45448943D01*
X-11989004Y-45472944D01*
X-12006286Y-45498808D01*
X-12078880Y-45581586D01*
X-12159257Y-45678746D01*
X-12186623Y-45704444D01*
X-12211121Y-45732379D01*
X-12290517Y-45802007D01*
X-12376666Y-45882906D01*
X-12412222Y-45908739D01*
X-12444692Y-45937214D01*
X-12528383Y-45993134D01*
X-12617956Y-46058213D01*
X-12662099Y-46082481D01*
X-12703000Y-46109810D01*
X-12788563Y-46152005D01*
X-12879305Y-46201891D01*
X-12932142Y-46222811D01*
X-12981627Y-46247214D01*
X-13066809Y-46276129D01*
X-13156612Y-46311685D01*
X-13217938Y-46327431D01*
X-13275805Y-46347074D01*
X-13358536Y-46363530D01*
X-13445477Y-46385853D01*
X-13514762Y-46394605D01*
X-13580500Y-46407682D01*
X-13658989Y-46412826D01*
X-13741381Y-46423235D01*
X-13817798Y-46423235D01*
X-13890500Y-46428000D01*
X-13963202Y-46423235D01*
X-14039619Y-46423235D01*
X-14122009Y-46412826D01*
X-14200500Y-46407682D01*
X-14266238Y-46394605D01*
X-14335522Y-46385853D01*
X-14422459Y-46363531D01*
X-14505195Y-46347074D01*
X-14563064Y-46327429D01*
X-14624387Y-46311685D01*
X-14714183Y-46276132D01*
X-14799373Y-46247214D01*
X-14848861Y-46222809D01*
X-14901694Y-46201891D01*
X-14992427Y-46152010D01*
X-15078000Y-46109810D01*
X-15118905Y-46082477D01*
X-15163043Y-46058213D01*
X-15252604Y-45993142D01*
X-15336308Y-45937214D01*
X-15368781Y-45908735D01*
X-15404333Y-45882906D01*
X-15490467Y-45802020D01*
X-15569879Y-45732379D01*
X-15594381Y-45704439D01*
X-15621742Y-45678746D01*
X-15702102Y-45581606D01*
X-15774714Y-45498808D01*
X-15791999Y-45472937D01*
X-15811850Y-45448943D01*
X-15884044Y-45335183D01*
X-15947310Y-45240500D01*
X-15958384Y-45218042D01*
X-15971659Y-45197126D01*
X-16033313Y-45066103D01*
X-16084714Y-44961873D01*
X-16090809Y-44943917D01*
X-16098646Y-44927263D01*
X-16147459Y-44777031D01*
X-16184574Y-44667695D01*
X-16187082Y-44655083D01*
X-16190808Y-44643618D01*
X-16224613Y-44466402D01*
X-16245182Y-44363000D01*
X-16245623Y-44356267D01*
X-16246693Y-44350660D01*
X-16263503Y-44083464D01*
X-16265500Y-44053000D01*
X-16263506Y-44022581D01*
X-16246693Y-43755339D01*
X-16245623Y-43749730D01*
X-16245182Y-43743000D01*
X-16224618Y-43639620D01*
X-16190808Y-43462381D01*
X-16187082Y-43450913D01*
X-16184574Y-43438305D01*
X-16147466Y-43328991D01*
X-16098646Y-43178736D01*
X-16090807Y-43162079D01*
X-16084714Y-43144127D01*
X-16033323Y-43039917D01*
X-15971659Y-42908873D01*
X-15958382Y-42887952D01*
X-15947310Y-42865500D01*
X-15884056Y-42770835D01*
X-15811850Y-42657056D01*
X-15791996Y-42633056D01*
X-15774714Y-42607192D01*
X-15702116Y-42524410D01*
X-15621742Y-42427253D01*
X-15594376Y-42401554D01*
X-15569879Y-42373621D01*
X-15490483Y-42303993D01*
X-15404333Y-42223093D01*
X-15368775Y-42197258D01*
X-15336308Y-42168786D01*
X-15252621Y-42112868D01*
X-15163043Y-42047786D01*
X-15118896Y-42023516D01*
X-15078000Y-41996190D01*
X-14992444Y-41953998D01*
X-14901694Y-41904108D01*
X-14848850Y-41883185D01*
X-14799373Y-41858786D01*
X-14714200Y-41829873D01*
X-14624387Y-41794314D01*
X-14563052Y-41778565D01*
X-14505195Y-41758926D01*
X-14422476Y-41742472D01*
X-14335522Y-41720146D01*
X-14266227Y-41711392D01*
X-14200500Y-41698318D01*
X-14122014Y-41693173D01*
X-14039619Y-41682765D01*
X-13963202Y-41682765D01*
X-13890500Y-41678000D01*
X-13817798Y-41682765D01*
G37*
G36*
X13963202Y-41682765D02*
G01*
X14039619Y-41682765D01*
X14122014Y-41693173D01*
X14200500Y-41698318D01*
X14266227Y-41711392D01*
X14335522Y-41720146D01*
X14422476Y-41742472D01*
X14505195Y-41758926D01*
X14563052Y-41778565D01*
X14624387Y-41794314D01*
X14714200Y-41829873D01*
X14799373Y-41858786D01*
X14848850Y-41883185D01*
X14901694Y-41904108D01*
X14992444Y-41953998D01*
X15078000Y-41996190D01*
X15118896Y-42023516D01*
X15163043Y-42047786D01*
X15252621Y-42112868D01*
X15336308Y-42168786D01*
X15368775Y-42197258D01*
X15404333Y-42223093D01*
X15490483Y-42303993D01*
X15569879Y-42373621D01*
X15594376Y-42401554D01*
X15621742Y-42427253D01*
X15702116Y-42524410D01*
X15774714Y-42607192D01*
X15791996Y-42633056D01*
X15811850Y-42657056D01*
X15884056Y-42770835D01*
X15947310Y-42865500D01*
X15958382Y-42887952D01*
X15971659Y-42908873D01*
X16033323Y-43039917D01*
X16084714Y-43144127D01*
X16090807Y-43162079D01*
X16098646Y-43178736D01*
X16147466Y-43328991D01*
X16184574Y-43438305D01*
X16187082Y-43450913D01*
X16190808Y-43462381D01*
X16224618Y-43639620D01*
X16245182Y-43743000D01*
X16245623Y-43749730D01*
X16246693Y-43755339D01*
X16263506Y-44022581D01*
X16265500Y-44053000D01*
X16263503Y-44083464D01*
X16246693Y-44350660D01*
X16245623Y-44356267D01*
X16245182Y-44363000D01*
X16224613Y-44466402D01*
X16190808Y-44643618D01*
X16187082Y-44655083D01*
X16184574Y-44667695D01*
X16147459Y-44777031D01*
X16098646Y-44927263D01*
X16090809Y-44943917D01*
X16084714Y-44961873D01*
X16033313Y-45066103D01*
X15971659Y-45197126D01*
X15958384Y-45218042D01*
X15947310Y-45240500D01*
X15884044Y-45335183D01*
X15811850Y-45448943D01*
X15791999Y-45472937D01*
X15774714Y-45498808D01*
X15702102Y-45581606D01*
X15621742Y-45678746D01*
X15594381Y-45704439D01*
X15569879Y-45732379D01*
X15490467Y-45802020D01*
X15404333Y-45882906D01*
X15368781Y-45908735D01*
X15336308Y-45937214D01*
X15252604Y-45993142D01*
X15163043Y-46058213D01*
X15118905Y-46082477D01*
X15078000Y-46109810D01*
X14992427Y-46152010D01*
X14901694Y-46201891D01*
X14848861Y-46222809D01*
X14799373Y-46247214D01*
X14714183Y-46276132D01*
X14624387Y-46311685D01*
X14563064Y-46327429D01*
X14505195Y-46347074D01*
X14422459Y-46363531D01*
X14335522Y-46385853D01*
X14266238Y-46394605D01*
X14200500Y-46407682D01*
X14122009Y-46412826D01*
X14039619Y-46423235D01*
X13963202Y-46423235D01*
X13890500Y-46428000D01*
X13817798Y-46423235D01*
X13741381Y-46423235D01*
X13658989Y-46412826D01*
X13580500Y-46407682D01*
X13514762Y-46394605D01*
X13445477Y-46385853D01*
X13358536Y-46363530D01*
X13275805Y-46347074D01*
X13217938Y-46327431D01*
X13156612Y-46311685D01*
X13066809Y-46276129D01*
X12981627Y-46247214D01*
X12932142Y-46222811D01*
X12879305Y-46201891D01*
X12788563Y-46152005D01*
X12703000Y-46109810D01*
X12662099Y-46082481D01*
X12617956Y-46058213D01*
X12528383Y-45993134D01*
X12444692Y-45937214D01*
X12412222Y-45908739D01*
X12376666Y-45882906D01*
X12290517Y-45802007D01*
X12211121Y-45732379D01*
X12186623Y-45704444D01*
X12159257Y-45678746D01*
X12078880Y-45581586D01*
X12006286Y-45498808D01*
X11989004Y-45472944D01*
X11969149Y-45448943D01*
X11896935Y-45335153D01*
X11833690Y-45240500D01*
X11822618Y-45218049D01*
X11809340Y-45197126D01*
X11747664Y-45066058D01*
X11696286Y-44961873D01*
X11690193Y-44943924D01*
X11682353Y-44927263D01*
X11633517Y-44776962D01*
X11596426Y-44667695D01*
X11593919Y-44655091D01*
X11590191Y-44643618D01*
X11556361Y-44466279D01*
X11535818Y-44363000D01*
X11535377Y-44356275D01*
X11534306Y-44350660D01*
X11517470Y-44083062D01*
X11515500Y-44053000D01*
X11517470Y-44022940D01*
X11534306Y-43755339D01*
X11535377Y-43749722D01*
X11535818Y-43743000D01*
X11556357Y-43639743D01*
X11590191Y-43462381D01*
X11593919Y-43450905D01*
X11596426Y-43438305D01*
X11633509Y-43329059D01*
X11682353Y-43178736D01*
X11690194Y-43162071D01*
X11696286Y-43144127D01*
X11747654Y-43039962D01*
X11809340Y-42908873D01*
X11822621Y-42887945D01*
X11833690Y-42865500D01*
X11896923Y-42770864D01*
X11969149Y-42657056D01*
X11989007Y-42633050D01*
X12006286Y-42607192D01*
X12078865Y-42524430D01*
X12159257Y-42427253D01*
X12186628Y-42401549D01*
X12211121Y-42373621D01*
X12290501Y-42304006D01*
X12376666Y-42223093D01*
X12412229Y-42197254D01*
X12444692Y-42168786D01*
X12528365Y-42112876D01*
X12617956Y-42047786D01*
X12662107Y-42023513D01*
X12703000Y-41996190D01*
X12788545Y-41954003D01*
X12879305Y-41904108D01*
X12932153Y-41883183D01*
X12981627Y-41858786D01*
X13066792Y-41829876D01*
X13156612Y-41794314D01*
X13217950Y-41778564D01*
X13275805Y-41758926D01*
X13358518Y-41742473D01*
X13445477Y-41720146D01*
X13514773Y-41711391D01*
X13580500Y-41698318D01*
X13658984Y-41693173D01*
X13741381Y-41682765D01*
X13817798Y-41682765D01*
X13890500Y-41678000D01*
X13963202Y-41682765D01*
G37*
G36*
X1053231Y-39200642D02*
G01*
X1105772Y-39206738D01*
X1123723Y-39214664D01*
X1145671Y-39219030D01*
X1169166Y-39234729D01*
X1190890Y-39244321D01*
X1205726Y-39259157D01*
X1226777Y-39273223D01*
X1240842Y-39294273D01*
X1255678Y-39309109D01*
X1265269Y-39330830D01*
X1280970Y-39354329D01*
X1285335Y-39376277D01*
X1293260Y-39394224D01*
X1299352Y-39446747D01*
X1300000Y-39450000D01*
X1300000Y-40750000D01*
X1299354Y-40753243D01*
X1293261Y-40805772D01*
X1285336Y-40823719D01*
X1280970Y-40845671D01*
X1265267Y-40869171D01*
X1255678Y-40890890D01*
X1240844Y-40905723D01*
X1226777Y-40926777D01*
X1205723Y-40940844D01*
X1190890Y-40955678D01*
X1169170Y-40965267D01*
X1145671Y-40980970D01*
X1123720Y-40985336D01*
X1105775Y-40993260D01*
X1053254Y-40999352D01*
X1050000Y-41000000D01*
X350000Y-41000000D01*
X346758Y-40999355D01*
X294227Y-40993261D01*
X276278Y-40985335D01*
X254329Y-40980970D01*
X230830Y-40965268D01*
X209109Y-40955678D01*
X194273Y-40940842D01*
X173223Y-40926777D01*
X159157Y-40905726D01*
X144321Y-40890890D01*
X134729Y-40869166D01*
X119030Y-40845671D01*
X114664Y-40823724D01*
X106739Y-40805775D01*
X100644Y-40753242D01*
X100000Y-40750000D01*
X100000Y-39450000D01*
X100642Y-39446770D01*
X106738Y-39394227D01*
X114664Y-39376274D01*
X119030Y-39354329D01*
X134728Y-39330835D01*
X144321Y-39309109D01*
X159159Y-39294270D01*
X173223Y-39273223D01*
X194270Y-39259159D01*
X209109Y-39244321D01*
X230835Y-39234727D01*
X254329Y-39219030D01*
X276273Y-39214665D01*
X294224Y-39206739D01*
X346759Y-39200644D01*
X350000Y-39200000D01*
X1050000Y-39200000D01*
X1053231Y-39200642D01*
G37*
G36*
X9653231Y-39200642D02*
G01*
X9705772Y-39206738D01*
X9723723Y-39214664D01*
X9745671Y-39219030D01*
X9769166Y-39234729D01*
X9790890Y-39244321D01*
X9805726Y-39259157D01*
X9826777Y-39273223D01*
X9840842Y-39294273D01*
X9855678Y-39309109D01*
X9865269Y-39330830D01*
X9880970Y-39354329D01*
X9885335Y-39376277D01*
X9893260Y-39394224D01*
X9899352Y-39446747D01*
X9900000Y-39450000D01*
X9900000Y-40750000D01*
X9899354Y-40753243D01*
X9893261Y-40805772D01*
X9885336Y-40823719D01*
X9880970Y-40845671D01*
X9865267Y-40869171D01*
X9855678Y-40890890D01*
X9840844Y-40905723D01*
X9826777Y-40926777D01*
X9805723Y-40940844D01*
X9790890Y-40955678D01*
X9769170Y-40965267D01*
X9745671Y-40980970D01*
X9723720Y-40985336D01*
X9705775Y-40993260D01*
X9653254Y-40999352D01*
X9650000Y-41000000D01*
X8950000Y-41000000D01*
X8946758Y-40999355D01*
X8894227Y-40993261D01*
X8876278Y-40985335D01*
X8854329Y-40980970D01*
X8830830Y-40965268D01*
X8809109Y-40955678D01*
X8794273Y-40940842D01*
X8773223Y-40926777D01*
X8759157Y-40905726D01*
X8744321Y-40890890D01*
X8734729Y-40869166D01*
X8719030Y-40845671D01*
X8714664Y-40823724D01*
X8706739Y-40805775D01*
X8700644Y-40753242D01*
X8700000Y-40750000D01*
X8700000Y-39450000D01*
X8700642Y-39446770D01*
X8706738Y-39394227D01*
X8714664Y-39376274D01*
X8719030Y-39354329D01*
X8734728Y-39330835D01*
X8744321Y-39309109D01*
X8759159Y-39294270D01*
X8773223Y-39273223D01*
X8794270Y-39259159D01*
X8809109Y-39244321D01*
X8830835Y-39234727D01*
X8854329Y-39219030D01*
X8876273Y-39214665D01*
X8894224Y-39206739D01*
X8946759Y-39200644D01*
X8950000Y-39200000D01*
X9650000Y-39200000D01*
X9653231Y-39200642D01*
G37*
G36*
X-8546770Y-36950642D02*
G01*
X-8494227Y-36956738D01*
X-8476274Y-36964664D01*
X-8454329Y-36969030D01*
X-8430835Y-36984728D01*
X-8409109Y-36994321D01*
X-8394270Y-37009159D01*
X-8373223Y-37023223D01*
X-8359159Y-37044270D01*
X-8344321Y-37059109D01*
X-8334727Y-37080835D01*
X-8319030Y-37104329D01*
X-8314665Y-37126273D01*
X-8306739Y-37144224D01*
X-8300644Y-37196759D01*
X-8300000Y-37200000D01*
X-8300000Y-39700000D01*
X-8300642Y-39703231D01*
X-8306738Y-39755772D01*
X-8314664Y-39773723D01*
X-8319030Y-39795671D01*
X-8334729Y-39819166D01*
X-8344321Y-39840890D01*
X-8359157Y-39855726D01*
X-8373223Y-39876777D01*
X-8394273Y-39890842D01*
X-8409109Y-39905678D01*
X-8430830Y-39915269D01*
X-8454329Y-39930970D01*
X-8476277Y-39935335D01*
X-8494224Y-39943260D01*
X-8546747Y-39949352D01*
X-8550000Y-39950000D01*
X-9650000Y-39950000D01*
X-9653243Y-39949354D01*
X-9705772Y-39943261D01*
X-9723719Y-39935336D01*
X-9745671Y-39930970D01*
X-9769171Y-39915267D01*
X-9790890Y-39905678D01*
X-9805723Y-39890844D01*
X-9826777Y-39876777D01*
X-9840844Y-39855723D01*
X-9855678Y-39840890D01*
X-9865267Y-39819170D01*
X-9880970Y-39795671D01*
X-9885336Y-39773720D01*
X-9893260Y-39755775D01*
X-9899352Y-39703254D01*
X-9900000Y-39700000D01*
X-9900000Y-37200000D01*
X-9899355Y-37196758D01*
X-9893261Y-37144227D01*
X-9885335Y-37126278D01*
X-9880970Y-37104329D01*
X-9865268Y-37080830D01*
X-9855678Y-37059109D01*
X-9840842Y-37044273D01*
X-9826777Y-37023223D01*
X-9805726Y-37009157D01*
X-9790890Y-36994321D01*
X-9769166Y-36984729D01*
X-9745671Y-36969030D01*
X-9723724Y-36964664D01*
X-9705775Y-36956739D01*
X-9653242Y-36950644D01*
X-9650000Y-36950000D01*
X-8550000Y-36950000D01*
X-8546770Y-36950642D01*
G37*
G36*
X-1746770Y-36950642D02*
G01*
X-1694227Y-36956738D01*
X-1676274Y-36964664D01*
X-1654329Y-36969030D01*
X-1630835Y-36984728D01*
X-1609109Y-36994321D01*
X-1594270Y-37009159D01*
X-1573223Y-37023223D01*
X-1559159Y-37044270D01*
X-1544321Y-37059109D01*
X-1534727Y-37080835D01*
X-1519030Y-37104329D01*
X-1514665Y-37126273D01*
X-1506739Y-37144224D01*
X-1500644Y-37196759D01*
X-1500000Y-37200000D01*
X-1500000Y-39700000D01*
X-1500642Y-39703231D01*
X-1506738Y-39755772D01*
X-1514664Y-39773723D01*
X-1519030Y-39795671D01*
X-1534729Y-39819166D01*
X-1544321Y-39840890D01*
X-1559157Y-39855726D01*
X-1573223Y-39876777D01*
X-1594273Y-39890842D01*
X-1609109Y-39905678D01*
X-1630830Y-39915269D01*
X-1654329Y-39930970D01*
X-1676277Y-39935335D01*
X-1694224Y-39943260D01*
X-1746747Y-39949352D01*
X-1750000Y-39950000D01*
X-2850000Y-39950000D01*
X-2853243Y-39949354D01*
X-2905772Y-39943261D01*
X-2923719Y-39935336D01*
X-2945671Y-39930970D01*
X-2969171Y-39915267D01*
X-2990890Y-39905678D01*
X-3005723Y-39890844D01*
X-3026777Y-39876777D01*
X-3040844Y-39855723D01*
X-3055678Y-39840890D01*
X-3065267Y-39819170D01*
X-3080970Y-39795671D01*
X-3085336Y-39773720D01*
X-3093260Y-39755775D01*
X-3099352Y-39703254D01*
X-3100000Y-39700000D01*
X-3100000Y-37200000D01*
X-3099355Y-37196758D01*
X-3093261Y-37144227D01*
X-3085335Y-37126278D01*
X-3080970Y-37104329D01*
X-3065268Y-37080830D01*
X-3055678Y-37059109D01*
X-3040842Y-37044273D01*
X-3026777Y-37023223D01*
X-3005726Y-37009157D01*
X-2990890Y-36994321D01*
X-2969166Y-36984729D01*
X-2945671Y-36969030D01*
X-2923724Y-36964664D01*
X-2905775Y-36956739D01*
X-2853242Y-36950644D01*
X-2850000Y-36950000D01*
X-1750000Y-36950000D01*
X-1746770Y-36950642D01*
G37*
G36*
X-6446770Y-33450642D02*
G01*
X-6394227Y-33456738D01*
X-6376274Y-33464664D01*
X-6354329Y-33469030D01*
X-6330835Y-33484728D01*
X-6309109Y-33494321D01*
X-6294270Y-33509159D01*
X-6273223Y-33523223D01*
X-6259159Y-33544270D01*
X-6244321Y-33559109D01*
X-6234727Y-33580835D01*
X-6219030Y-33604329D01*
X-6214665Y-33626273D01*
X-6206739Y-33644224D01*
X-6200644Y-33696759D01*
X-6200000Y-33700000D01*
X-6200000Y-38700000D01*
X-6200642Y-38703231D01*
X-6206738Y-38755772D01*
X-6214664Y-38773723D01*
X-6219030Y-38795671D01*
X-6234729Y-38819166D01*
X-6244321Y-38840890D01*
X-6259157Y-38855726D01*
X-6273223Y-38876777D01*
X-6294273Y-38890842D01*
X-6309109Y-38905678D01*
X-6330830Y-38915269D01*
X-6354329Y-38930970D01*
X-6376277Y-38935335D01*
X-6394224Y-38943260D01*
X-6446747Y-38949352D01*
X-6450000Y-38950000D01*
X-6950000Y-38950000D01*
X-6953243Y-38949354D01*
X-7005772Y-38943261D01*
X-7023719Y-38935336D01*
X-7045671Y-38930970D01*
X-7069171Y-38915267D01*
X-7090890Y-38905678D01*
X-7105723Y-38890844D01*
X-7126777Y-38876777D01*
X-7140844Y-38855723D01*
X-7155678Y-38840890D01*
X-7165267Y-38819170D01*
X-7180970Y-38795671D01*
X-7185336Y-38773720D01*
X-7193260Y-38755775D01*
X-7199352Y-38703254D01*
X-7200000Y-38700000D01*
X-7200000Y-33700000D01*
X-7199355Y-33696758D01*
X-7193261Y-33644227D01*
X-7185335Y-33626278D01*
X-7180970Y-33604329D01*
X-7165268Y-33580830D01*
X-7155678Y-33559109D01*
X-7140842Y-33544273D01*
X-7126777Y-33523223D01*
X-7105726Y-33509157D01*
X-7090890Y-33494321D01*
X-7069166Y-33484729D01*
X-7045671Y-33469030D01*
X-7023724Y-33464664D01*
X-7005775Y-33456739D01*
X-6953242Y-33450644D01*
X-6950000Y-33450000D01*
X-6450000Y-33450000D01*
X-6446770Y-33450642D01*
G37*
G36*
X-4446770Y-33450642D02*
G01*
X-4394227Y-33456738D01*
X-4376274Y-33464664D01*
X-4354329Y-33469030D01*
X-4330835Y-33484728D01*
X-4309109Y-33494321D01*
X-4294270Y-33509159D01*
X-4273223Y-33523223D01*
X-4259159Y-33544270D01*
X-4244321Y-33559109D01*
X-4234727Y-33580835D01*
X-4219030Y-33604329D01*
X-4214665Y-33626273D01*
X-4206739Y-33644224D01*
X-4200644Y-33696759D01*
X-4200000Y-33700000D01*
X-4200000Y-38700000D01*
X-4200642Y-38703231D01*
X-4206738Y-38755772D01*
X-4214664Y-38773723D01*
X-4219030Y-38795671D01*
X-4234729Y-38819166D01*
X-4244321Y-38840890D01*
X-4259157Y-38855726D01*
X-4273223Y-38876777D01*
X-4294273Y-38890842D01*
X-4309109Y-38905678D01*
X-4330830Y-38915269D01*
X-4354329Y-38930970D01*
X-4376277Y-38935335D01*
X-4394224Y-38943260D01*
X-4446747Y-38949352D01*
X-4450000Y-38950000D01*
X-4950000Y-38950000D01*
X-4953243Y-38949354D01*
X-5005772Y-38943261D01*
X-5023719Y-38935336D01*
X-5045671Y-38930970D01*
X-5069171Y-38915267D01*
X-5090890Y-38905678D01*
X-5105723Y-38890844D01*
X-5126777Y-38876777D01*
X-5140844Y-38855723D01*
X-5155678Y-38840890D01*
X-5165267Y-38819170D01*
X-5180970Y-38795671D01*
X-5185336Y-38773720D01*
X-5193260Y-38755775D01*
X-5199352Y-38703254D01*
X-5200000Y-38700000D01*
X-5200000Y-33700000D01*
X-5199355Y-33696758D01*
X-5193261Y-33644227D01*
X-5185335Y-33626278D01*
X-5180970Y-33604329D01*
X-5165268Y-33580830D01*
X-5155678Y-33559109D01*
X-5140842Y-33544273D01*
X-5126777Y-33523223D01*
X-5105726Y-33509157D01*
X-5090890Y-33494321D01*
X-5069166Y-33484729D01*
X-5045671Y-33469030D01*
X-5023724Y-33464664D01*
X-5005775Y-33456739D01*
X-4953242Y-33450644D01*
X-4950000Y-33450000D01*
X-4450000Y-33450000D01*
X-4446770Y-33450642D01*
G37*
G36*
X2207403Y-36811418D02*
G01*
X2256066Y-36843934D01*
X2288582Y-36892597D01*
X2300000Y-36950000D01*
X2300000Y-38200000D01*
X2288582Y-38257403D01*
X2256066Y-38306066D01*
X2207403Y-38338582D01*
X2150000Y-38350000D01*
X1850000Y-38350000D01*
X1792597Y-38338582D01*
X1743934Y-38306066D01*
X1711418Y-38257403D01*
X1700000Y-38200000D01*
X1700000Y-36950000D01*
X1711418Y-36892597D01*
X1743934Y-36843934D01*
X1792597Y-36811418D01*
X1850000Y-36800000D01*
X2150000Y-36800000D01*
X2207403Y-36811418D01*
G37*
G36*
X3207403Y-36811418D02*
G01*
X3256066Y-36843934D01*
X3288582Y-36892597D01*
X3300000Y-36950000D01*
X3300000Y-38200000D01*
X3288582Y-38257403D01*
X3256066Y-38306066D01*
X3207403Y-38338582D01*
X3150000Y-38350000D01*
X2850000Y-38350000D01*
X2792597Y-38338582D01*
X2743934Y-38306066D01*
X2711418Y-38257403D01*
X2700000Y-38200000D01*
X2700000Y-36950000D01*
X2711418Y-36892597D01*
X2743934Y-36843934D01*
X2792597Y-36811418D01*
X2850000Y-36800000D01*
X3150000Y-36800000D01*
X3207403Y-36811418D01*
G37*
G36*
X4207403Y-36811418D02*
G01*
X4256066Y-36843934D01*
X4288582Y-36892597D01*
X4300000Y-36950000D01*
X4300000Y-38200000D01*
X4288582Y-38257403D01*
X4256066Y-38306066D01*
X4207403Y-38338582D01*
X4150000Y-38350000D01*
X3850000Y-38350000D01*
X3792597Y-38338582D01*
X3743934Y-38306066D01*
X3711418Y-38257403D01*
X3700000Y-38200000D01*
X3700000Y-36950000D01*
X3711418Y-36892597D01*
X3743934Y-36843934D01*
X3792597Y-36811418D01*
X3850000Y-36800000D01*
X4150000Y-36800000D01*
X4207403Y-36811418D01*
G37*
G36*
X5207403Y-36811418D02*
G01*
X5256066Y-36843934D01*
X5288582Y-36892597D01*
X5300000Y-36950000D01*
X5300000Y-38200000D01*
X5288582Y-38257403D01*
X5256066Y-38306066D01*
X5207403Y-38338582D01*
X5150000Y-38350000D01*
X4850000Y-38350000D01*
X4792597Y-38338582D01*
X4743934Y-38306066D01*
X4711418Y-38257403D01*
X4700000Y-38200000D01*
X4700000Y-36950000D01*
X4711418Y-36892597D01*
X4743934Y-36843934D01*
X4792597Y-36811418D01*
X4850000Y-36800000D01*
X5150000Y-36800000D01*
X5207403Y-36811418D01*
G37*
G36*
X6207403Y-36811418D02*
G01*
X6256066Y-36843934D01*
X6288582Y-36892597D01*
X6300000Y-36950000D01*
X6300000Y-38200000D01*
X6288582Y-38257403D01*
X6256066Y-38306066D01*
X6207403Y-38338582D01*
X6150000Y-38350000D01*
X5850000Y-38350000D01*
X5792597Y-38338582D01*
X5743934Y-38306066D01*
X5711418Y-38257403D01*
X5700000Y-38200000D01*
X5700000Y-36950000D01*
X5711418Y-36892597D01*
X5743934Y-36843934D01*
X5792597Y-36811418D01*
X5850000Y-36800000D01*
X6150000Y-36800000D01*
X6207403Y-36811418D01*
G37*
G36*
X7207403Y-36811418D02*
G01*
X7256066Y-36843934D01*
X7288582Y-36892597D01*
X7300000Y-36950000D01*
X7300000Y-38200000D01*
X7288582Y-38257403D01*
X7256066Y-38306066D01*
X7207403Y-38338582D01*
X7150000Y-38350000D01*
X6850000Y-38350000D01*
X6792597Y-38338582D01*
X6743934Y-38306066D01*
X6711418Y-38257403D01*
X6700000Y-38200000D01*
X6700000Y-36950000D01*
X6711418Y-36892597D01*
X6743934Y-36843934D01*
X6792597Y-36811418D01*
X6850000Y-36800000D01*
X7150000Y-36800000D01*
X7207403Y-36811418D01*
G37*
G36*
X8207403Y-36811418D02*
G01*
X8256066Y-36843934D01*
X8288582Y-36892597D01*
X8300000Y-36950000D01*
X8300000Y-38200000D01*
X8288582Y-38257403D01*
X8256066Y-38306066D01*
X8207403Y-38338582D01*
X8150000Y-38350000D01*
X7850000Y-38350000D01*
X7792597Y-38338582D01*
X7743934Y-38306066D01*
X7711418Y-38257403D01*
X7700000Y-38200000D01*
X7700000Y-36950000D01*
X7711418Y-36892597D01*
X7743934Y-36843934D01*
X7792597Y-36811418D01*
X7850000Y-36800000D01*
X8150000Y-36800000D01*
X8207403Y-36811418D01*
G37*
G36*
X9936035Y-30105089D02*
G01*
X9971157Y-30105089D01*
X9999702Y-30113470D01*
X10029321Y-30117370D01*
X10069106Y-30133849D01*
X10107708Y-30145184D01*
X10128083Y-30158278D01*
X10149827Y-30167285D01*
X10189671Y-30197859D01*
X10227430Y-30222125D01*
X10239601Y-30236172D01*
X10253309Y-30246690D01*
X10288845Y-30293002D01*
X10320627Y-30329680D01*
X10325974Y-30341390D01*
X10332714Y-30350173D01*
X10359326Y-30414421D01*
X10379746Y-30459134D01*
X10380755Y-30466154D01*
X10382629Y-30470678D01*
X10395900Y-30571484D01*
X10400000Y-30600000D01*
X10395899Y-30628517D01*
X10382629Y-30729321D01*
X10380755Y-30733843D01*
X10379746Y-30740866D01*
X10359324Y-30785583D01*
X10332714Y-30849827D01*
X10325974Y-30858609D01*
X10320627Y-30870320D01*
X10288841Y-30907002D01*
X10253309Y-30953309D01*
X10239604Y-30963824D01*
X10227430Y-30977875D01*
X10189663Y-31002145D01*
X10149827Y-31032714D01*
X10128087Y-31041718D01*
X10107708Y-31054816D01*
X10069097Y-31066152D01*
X10029321Y-31082629D01*
X9999708Y-31086527D01*
X9971157Y-31094911D01*
X9936028Y-31094911D01*
X9900000Y-31099654D01*
X9863972Y-31094911D01*
X9828843Y-31094911D01*
X9800291Y-31086527D01*
X9770678Y-31082629D01*
X9730898Y-31066151D01*
X9692292Y-31054816D01*
X9671913Y-31041719D01*
X9650172Y-31032714D01*
X9610330Y-31002142D01*
X9572570Y-30977875D01*
X9560397Y-30963827D01*
X9546690Y-30953309D01*
X9511149Y-30906992D01*
X9479373Y-30870320D01*
X9474026Y-30858612D01*
X9467285Y-30849827D01*
X9440665Y-30785560D01*
X9420254Y-30740866D01*
X9419244Y-30733847D01*
X9417370Y-30729321D01*
X9404088Y-30628435D01*
X9400000Y-30600000D01*
X9404088Y-30571567D01*
X9417370Y-30470678D01*
X9419245Y-30466151D01*
X9420254Y-30459134D01*
X9440662Y-30414444D01*
X9467285Y-30350173D01*
X9474026Y-30341387D01*
X9479373Y-30329680D01*
X9511145Y-30293012D01*
X9546690Y-30246690D01*
X9560399Y-30236170D01*
X9572570Y-30222125D01*
X9610325Y-30197860D01*
X9650173Y-30167285D01*
X9671916Y-30158278D01*
X9692292Y-30145184D01*
X9730891Y-30133850D01*
X9770678Y-30117370D01*
X9800297Y-30113470D01*
X9828843Y-30105089D01*
X9863965Y-30105089D01*
X9900000Y-30100345D01*
X9936035Y-30105089D01*
G37*
G36*
X5036035Y-29105089D02*
G01*
X5071157Y-29105089D01*
X5099702Y-29113470D01*
X5129321Y-29117370D01*
X5169106Y-29133849D01*
X5207708Y-29145184D01*
X5228083Y-29158278D01*
X5249827Y-29167285D01*
X5289671Y-29197859D01*
X5327430Y-29222125D01*
X5339601Y-29236172D01*
X5353309Y-29246690D01*
X5388845Y-29293002D01*
X5420627Y-29329680D01*
X5425974Y-29341390D01*
X5432714Y-29350173D01*
X5459326Y-29414421D01*
X5479746Y-29459134D01*
X5480755Y-29466154D01*
X5482629Y-29470678D01*
X5495900Y-29571484D01*
X5500000Y-29600000D01*
X5495899Y-29628517D01*
X5482629Y-29729321D01*
X5480755Y-29733843D01*
X5479746Y-29740866D01*
X5459324Y-29785583D01*
X5432714Y-29849827D01*
X5425974Y-29858609D01*
X5420627Y-29870320D01*
X5388841Y-29907002D01*
X5353309Y-29953309D01*
X5339604Y-29963824D01*
X5327430Y-29977875D01*
X5289663Y-30002145D01*
X5249827Y-30032714D01*
X5228087Y-30041718D01*
X5207708Y-30054816D01*
X5169097Y-30066152D01*
X5129321Y-30082629D01*
X5099708Y-30086527D01*
X5071157Y-30094911D01*
X5036028Y-30094911D01*
X5000000Y-30099654D01*
X4963972Y-30094911D01*
X4928843Y-30094911D01*
X4900291Y-30086527D01*
X4870678Y-30082629D01*
X4830898Y-30066151D01*
X4792292Y-30054816D01*
X4771913Y-30041719D01*
X4750172Y-30032714D01*
X4710330Y-30002142D01*
X4672570Y-29977875D01*
X4660397Y-29963827D01*
X4646690Y-29953309D01*
X4611149Y-29906992D01*
X4579373Y-29870320D01*
X4574026Y-29858612D01*
X4567285Y-29849827D01*
X4540665Y-29785560D01*
X4520254Y-29740866D01*
X4519244Y-29733847D01*
X4517370Y-29729321D01*
X4504088Y-29628435D01*
X4500000Y-29600000D01*
X4504088Y-29571567D01*
X4517370Y-29470678D01*
X4519245Y-29466151D01*
X4520254Y-29459134D01*
X4540662Y-29414444D01*
X4567285Y-29350173D01*
X4574026Y-29341387D01*
X4579373Y-29329680D01*
X4611145Y-29293012D01*
X4646690Y-29246690D01*
X4660399Y-29236170D01*
X4672570Y-29222125D01*
X4710325Y-29197860D01*
X4750173Y-29167285D01*
X4771916Y-29158278D01*
X4792292Y-29145184D01*
X4830891Y-29133850D01*
X4870678Y-29117370D01*
X4900297Y-29113470D01*
X4928843Y-29105089D01*
X4963965Y-29105089D01*
X5000000Y-29100345D01*
X5036035Y-29105089D01*
G37*
G36*
X-10763965Y-27605089D02*
G01*
X-10728843Y-27605089D01*
X-10700297Y-27613470D01*
X-10670678Y-27617370D01*
X-10630890Y-27633850D01*
X-10592292Y-27645184D01*
X-10571918Y-27658277D01*
X-10550172Y-27667285D01*
X-10510322Y-27697863D01*
X-10472570Y-27722125D01*
X-10460400Y-27736169D01*
X-10446690Y-27746690D01*
X-10411145Y-27793012D01*
X-10379373Y-27829680D01*
X-10374026Y-27841387D01*
X-10367285Y-27850173D01*
X-10340662Y-27914444D01*
X-10320254Y-27959134D01*
X-10319245Y-27966151D01*
X-10317370Y-27970678D01*
X-10304088Y-28071567D01*
X-10300000Y-28100000D01*
X-10304088Y-28128435D01*
X-10317370Y-28229321D01*
X-10319244Y-28233847D01*
X-10320254Y-28240866D01*
X-10340665Y-28285560D01*
X-10367285Y-28349827D01*
X-10374026Y-28358612D01*
X-10379373Y-28370320D01*
X-10411149Y-28406992D01*
X-10446690Y-28453309D01*
X-10460397Y-28463827D01*
X-10472570Y-28477875D01*
X-10510330Y-28502142D01*
X-10550172Y-28532714D01*
X-10571913Y-28541719D01*
X-10592292Y-28554816D01*
X-10630898Y-28566151D01*
X-10670678Y-28582629D01*
X-10700291Y-28586527D01*
X-10728843Y-28594911D01*
X-10763972Y-28594911D01*
X-10800000Y-28599654D01*
X-10836028Y-28594911D01*
X-10871157Y-28594911D01*
X-10899708Y-28586527D01*
X-10929321Y-28582629D01*
X-10969097Y-28566152D01*
X-11007708Y-28554816D01*
X-11028087Y-28541718D01*
X-11049827Y-28532714D01*
X-11089663Y-28502145D01*
X-11127430Y-28477875D01*
X-11139604Y-28463824D01*
X-11153309Y-28453309D01*
X-11188841Y-28407002D01*
X-11220627Y-28370320D01*
X-11225974Y-28358609D01*
X-11232714Y-28349827D01*
X-11259324Y-28285583D01*
X-11279746Y-28240866D01*
X-11280755Y-28233843D01*
X-11282629Y-28229321D01*
X-11295898Y-28128526D01*
X-11300000Y-28100000D01*
X-11295901Y-28071493D01*
X-11282629Y-27970678D01*
X-11280755Y-27966154D01*
X-11279746Y-27959134D01*
X-11259326Y-27914421D01*
X-11232714Y-27850173D01*
X-11225974Y-27841390D01*
X-11220627Y-27829680D01*
X-11188845Y-27793002D01*
X-11153309Y-27746690D01*
X-11139602Y-27736172D01*
X-11127430Y-27722125D01*
X-11089668Y-27697856D01*
X-11049826Y-27667285D01*
X-11028084Y-27658279D01*
X-11007708Y-27645184D01*
X-10969104Y-27633849D01*
X-10929321Y-27617370D01*
X-10899702Y-27613470D01*
X-10871157Y-27605089D01*
X-10836035Y-27605089D01*
X-10800000Y-27600345D01*
X-10763965Y-27605089D01*
G37*
G36*
X6036035Y-27305089D02*
G01*
X6071157Y-27305089D01*
X6099702Y-27313470D01*
X6129321Y-27317370D01*
X6169106Y-27333849D01*
X6207708Y-27345184D01*
X6228083Y-27358278D01*
X6249827Y-27367285D01*
X6289671Y-27397859D01*
X6327430Y-27422125D01*
X6339601Y-27436172D01*
X6353309Y-27446690D01*
X6388845Y-27493002D01*
X6420627Y-27529680D01*
X6425974Y-27541390D01*
X6432714Y-27550173D01*
X6459326Y-27614421D01*
X6479746Y-27659134D01*
X6480755Y-27666154D01*
X6482629Y-27670678D01*
X6495900Y-27771484D01*
X6500000Y-27800000D01*
X6495899Y-27828517D01*
X6482629Y-27929321D01*
X6480755Y-27933843D01*
X6479746Y-27940866D01*
X6459324Y-27985583D01*
X6432714Y-28049827D01*
X6425974Y-28058609D01*
X6420627Y-28070320D01*
X6388841Y-28107002D01*
X6353309Y-28153309D01*
X6339604Y-28163824D01*
X6327430Y-28177875D01*
X6289663Y-28202145D01*
X6249827Y-28232714D01*
X6228087Y-28241718D01*
X6207708Y-28254816D01*
X6169097Y-28266152D01*
X6129321Y-28282629D01*
X6099708Y-28286527D01*
X6071157Y-28294911D01*
X6036028Y-28294911D01*
X6000000Y-28299654D01*
X5963972Y-28294911D01*
X5928843Y-28294911D01*
X5900291Y-28286527D01*
X5870678Y-28282629D01*
X5830898Y-28266151D01*
X5792292Y-28254816D01*
X5771913Y-28241719D01*
X5750172Y-28232714D01*
X5710330Y-28202142D01*
X5672570Y-28177875D01*
X5660397Y-28163827D01*
X5646690Y-28153309D01*
X5611149Y-28106992D01*
X5579373Y-28070320D01*
X5574026Y-28058612D01*
X5567285Y-28049827D01*
X5540665Y-27985560D01*
X5520254Y-27940866D01*
X5519244Y-27933847D01*
X5517370Y-27929321D01*
X5504088Y-27828435D01*
X5500000Y-27800000D01*
X5504088Y-27771567D01*
X5517370Y-27670678D01*
X5519245Y-27666151D01*
X5520254Y-27659134D01*
X5540662Y-27614444D01*
X5567285Y-27550173D01*
X5574026Y-27541387D01*
X5579373Y-27529680D01*
X5611145Y-27493012D01*
X5646690Y-27446690D01*
X5660399Y-27436170D01*
X5672570Y-27422125D01*
X5710325Y-27397860D01*
X5750173Y-27367285D01*
X5771916Y-27358278D01*
X5792292Y-27345184D01*
X5830891Y-27333850D01*
X5870678Y-27317370D01*
X5900297Y-27313470D01*
X5928843Y-27305089D01*
X5963965Y-27305089D01*
X6000000Y-27300345D01*
X6036035Y-27305089D01*
G37*
G36*
X7036035Y-25505089D02*
G01*
X7071157Y-25505089D01*
X7099702Y-25513470D01*
X7129321Y-25517370D01*
X7169106Y-25533849D01*
X7207708Y-25545184D01*
X7228083Y-25558278D01*
X7249827Y-25567285D01*
X7289671Y-25597859D01*
X7327430Y-25622125D01*
X7339601Y-25636172D01*
X7353309Y-25646690D01*
X7388845Y-25693002D01*
X7420627Y-25729680D01*
X7425974Y-25741390D01*
X7432714Y-25750173D01*
X7459326Y-25814421D01*
X7479746Y-25859134D01*
X7480755Y-25866154D01*
X7482629Y-25870678D01*
X7495900Y-25971484D01*
X7500000Y-26000000D01*
X7495899Y-26028517D01*
X7482629Y-26129321D01*
X7480755Y-26133843D01*
X7479746Y-26140866D01*
X7459324Y-26185583D01*
X7432714Y-26249827D01*
X7425974Y-26258609D01*
X7420627Y-26270320D01*
X7388841Y-26307002D01*
X7353309Y-26353309D01*
X7339604Y-26363824D01*
X7327430Y-26377875D01*
X7289663Y-26402145D01*
X7249827Y-26432714D01*
X7228087Y-26441718D01*
X7207708Y-26454816D01*
X7169097Y-26466152D01*
X7129321Y-26482629D01*
X7099708Y-26486527D01*
X7071157Y-26494911D01*
X7036028Y-26494911D01*
X7000000Y-26499654D01*
X6963972Y-26494911D01*
X6928843Y-26494911D01*
X6900291Y-26486527D01*
X6870678Y-26482629D01*
X6830898Y-26466151D01*
X6792292Y-26454816D01*
X6771913Y-26441719D01*
X6750172Y-26432714D01*
X6710330Y-26402142D01*
X6672570Y-26377875D01*
X6660397Y-26363827D01*
X6646690Y-26353309D01*
X6611149Y-26306992D01*
X6579373Y-26270320D01*
X6574026Y-26258612D01*
X6567285Y-26249827D01*
X6540665Y-26185560D01*
X6520254Y-26140866D01*
X6519244Y-26133847D01*
X6517370Y-26129321D01*
X6504088Y-26028435D01*
X6500000Y-26000000D01*
X6504088Y-25971567D01*
X6517370Y-25870678D01*
X6519245Y-25866151D01*
X6520254Y-25859134D01*
X6540662Y-25814444D01*
X6567285Y-25750173D01*
X6574026Y-25741387D01*
X6579373Y-25729680D01*
X6611145Y-25693012D01*
X6646690Y-25646690D01*
X6660399Y-25636170D01*
X6672570Y-25622125D01*
X6710325Y-25597860D01*
X6750173Y-25567285D01*
X6771916Y-25558278D01*
X6792292Y-25545184D01*
X6830891Y-25533850D01*
X6870678Y-25517370D01*
X6900297Y-25513470D01*
X6928843Y-25505089D01*
X6963965Y-25505089D01*
X7000000Y-25500345D01*
X7036035Y-25505089D01*
G37*
G36*
X11936035Y-25305089D02*
G01*
X11971157Y-25305089D01*
X11999702Y-25313470D01*
X12029321Y-25317370D01*
X12069106Y-25333849D01*
X12107708Y-25345184D01*
X12128083Y-25358278D01*
X12149827Y-25367285D01*
X12189671Y-25397859D01*
X12227430Y-25422125D01*
X12239601Y-25436172D01*
X12253309Y-25446690D01*
X12288845Y-25493002D01*
X12320627Y-25529680D01*
X12325974Y-25541390D01*
X12332714Y-25550173D01*
X12359326Y-25614421D01*
X12379746Y-25659134D01*
X12380755Y-25666154D01*
X12382629Y-25670678D01*
X12395901Y-25771493D01*
X12400000Y-25800000D01*
X12395898Y-25828526D01*
X12382629Y-25929321D01*
X12380755Y-25933843D01*
X12379746Y-25940866D01*
X12359324Y-25985583D01*
X12332714Y-26049827D01*
X12325974Y-26058609D01*
X12320627Y-26070320D01*
X12288841Y-26107002D01*
X12253309Y-26153309D01*
X12239604Y-26163824D01*
X12227430Y-26177875D01*
X12189663Y-26202145D01*
X12149827Y-26232714D01*
X12128087Y-26241718D01*
X12107708Y-26254816D01*
X12069097Y-26266152D01*
X12029321Y-26282629D01*
X11999708Y-26286527D01*
X11971157Y-26294911D01*
X11936028Y-26294911D01*
X11900000Y-26299654D01*
X11863972Y-26294911D01*
X11828843Y-26294911D01*
X11800291Y-26286527D01*
X11770678Y-26282629D01*
X11730898Y-26266151D01*
X11692292Y-26254816D01*
X11671913Y-26241719D01*
X11650172Y-26232714D01*
X11610330Y-26202142D01*
X11572570Y-26177875D01*
X11560397Y-26163827D01*
X11546690Y-26153309D01*
X11511149Y-26106992D01*
X11479373Y-26070320D01*
X11474026Y-26058612D01*
X11467285Y-26049827D01*
X11440665Y-25985560D01*
X11420254Y-25940866D01*
X11419244Y-25933847D01*
X11417370Y-25929321D01*
X11404088Y-25828435D01*
X11400000Y-25800000D01*
X11404088Y-25771567D01*
X11417370Y-25670678D01*
X11419245Y-25666151D01*
X11420254Y-25659134D01*
X11440662Y-25614444D01*
X11467285Y-25550173D01*
X11474026Y-25541387D01*
X11479373Y-25529680D01*
X11511145Y-25493012D01*
X11546690Y-25446690D01*
X11560399Y-25436170D01*
X11572570Y-25422125D01*
X11610325Y-25397860D01*
X11650173Y-25367285D01*
X11671916Y-25358278D01*
X11692292Y-25345184D01*
X11730891Y-25333850D01*
X11770678Y-25317370D01*
X11800297Y-25313470D01*
X11828843Y-25305089D01*
X11863965Y-25305089D01*
X11900000Y-25300345D01*
X11936035Y-25305089D01*
G37*
G36*
X8036035Y-23705089D02*
G01*
X8071157Y-23705089D01*
X8099702Y-23713470D01*
X8129321Y-23717370D01*
X8169106Y-23733849D01*
X8207708Y-23745184D01*
X8228083Y-23758278D01*
X8249827Y-23767285D01*
X8289671Y-23797859D01*
X8327430Y-23822125D01*
X8339601Y-23836172D01*
X8353309Y-23846690D01*
X8388845Y-23893002D01*
X8420627Y-23929680D01*
X8425974Y-23941390D01*
X8432714Y-23950173D01*
X8459326Y-24014421D01*
X8479746Y-24059134D01*
X8480755Y-24066154D01*
X8482629Y-24070678D01*
X8495900Y-24171484D01*
X8500000Y-24200000D01*
X8495899Y-24228517D01*
X8482629Y-24329321D01*
X8480755Y-24333843D01*
X8479746Y-24340866D01*
X8459324Y-24385583D01*
X8432714Y-24449827D01*
X8425974Y-24458609D01*
X8420627Y-24470320D01*
X8388841Y-24507002D01*
X8353309Y-24553309D01*
X8339604Y-24563824D01*
X8327430Y-24577875D01*
X8289663Y-24602145D01*
X8249827Y-24632714D01*
X8228087Y-24641718D01*
X8207708Y-24654816D01*
X8169097Y-24666152D01*
X8129321Y-24682629D01*
X8099708Y-24686527D01*
X8071157Y-24694911D01*
X8036028Y-24694911D01*
X8000000Y-24699654D01*
X7963972Y-24694911D01*
X7928843Y-24694911D01*
X7900291Y-24686527D01*
X7870678Y-24682629D01*
X7830898Y-24666151D01*
X7792292Y-24654816D01*
X7771913Y-24641719D01*
X7750172Y-24632714D01*
X7710330Y-24602142D01*
X7672570Y-24577875D01*
X7660397Y-24563827D01*
X7646690Y-24553309D01*
X7611149Y-24506992D01*
X7579373Y-24470320D01*
X7574026Y-24458612D01*
X7567285Y-24449827D01*
X7540665Y-24385560D01*
X7520254Y-24340866D01*
X7519244Y-24333847D01*
X7517370Y-24329321D01*
X7504088Y-24228435D01*
X7500000Y-24200000D01*
X7504088Y-24171567D01*
X7517370Y-24070678D01*
X7519245Y-24066151D01*
X7520254Y-24059134D01*
X7540662Y-24014444D01*
X7567285Y-23950173D01*
X7574026Y-23941387D01*
X7579373Y-23929680D01*
X7611145Y-23893012D01*
X7646690Y-23846690D01*
X7660399Y-23836170D01*
X7672570Y-23822125D01*
X7710325Y-23797860D01*
X7750173Y-23767285D01*
X7771916Y-23758278D01*
X7792292Y-23745184D01*
X7830891Y-23733850D01*
X7870678Y-23717370D01*
X7900297Y-23713470D01*
X7928843Y-23705089D01*
X7963965Y-23705089D01*
X8000000Y-23700345D01*
X8036035Y-23705089D01*
G37*
G36*
X-13715329Y-23419741D02*
G01*
X-13680511Y-23419741D01*
X-13652212Y-23428050D01*
X-13622894Y-23431910D01*
X-13583509Y-23448223D01*
X-13545245Y-23459459D01*
X-13525048Y-23472438D01*
X-13503522Y-23481355D01*
X-13464076Y-23511622D01*
X-13426647Y-23535677D01*
X-13414581Y-23549601D01*
X-13401013Y-23560013D01*
X-13365833Y-23605860D01*
X-13334327Y-23642221D01*
X-13329025Y-23653829D01*
X-13322355Y-23662523D01*
X-13296019Y-23726101D01*
X-13275763Y-23770458D01*
X-13274761Y-23777424D01*
X-13272910Y-23781894D01*
X-13259789Y-23881555D01*
X-13255700Y-23910000D01*
X-13259790Y-23938447D01*
X-13272910Y-24038105D01*
X-13274761Y-24042574D01*
X-13275763Y-24049542D01*
X-13296022Y-24093903D01*
X-13322355Y-24157477D01*
X-13329025Y-24166169D01*
X-13334327Y-24177779D01*
X-13365837Y-24214144D01*
X-13401013Y-24259986D01*
X-13414578Y-24270395D01*
X-13426647Y-24284323D01*
X-13464084Y-24308382D01*
X-13503522Y-24338644D01*
X-13525043Y-24347558D01*
X-13545245Y-24360541D01*
X-13583517Y-24371778D01*
X-13622894Y-24388089D01*
X-13652206Y-24391947D01*
X-13680511Y-24400259D01*
X-13715337Y-24400259D01*
X-13751000Y-24404954D01*
X-13786663Y-24400259D01*
X-13821489Y-24400259D01*
X-13849794Y-24391947D01*
X-13879105Y-24388089D01*
X-13918478Y-24371779D01*
X-13956755Y-24360541D01*
X-13976958Y-24347557D01*
X-13998477Y-24338644D01*
X-14037909Y-24308386D01*
X-14075353Y-24284323D01*
X-14087423Y-24270393D01*
X-14100986Y-24259986D01*
X-14136153Y-24214154D01*
X-14167673Y-24177779D01*
X-14172976Y-24166166D01*
X-14179644Y-24157477D01*
X-14205966Y-24093927D01*
X-14226237Y-24049542D01*
X-14227239Y-24042570D01*
X-14229089Y-24038105D01*
X-14242198Y-23938529D01*
X-14246300Y-23910000D01*
X-14242198Y-23881472D01*
X-14229089Y-23781894D01*
X-14227239Y-23777428D01*
X-14226237Y-23770458D01*
X-14205969Y-23726078D01*
X-14179644Y-23662523D01*
X-14172976Y-23653833D01*
X-14167673Y-23642221D01*
X-14136157Y-23605850D01*
X-14100986Y-23560013D01*
X-14087420Y-23549604D01*
X-14075353Y-23535677D01*
X-14037913Y-23511616D01*
X-13998476Y-23481355D01*
X-13976955Y-23472440D01*
X-13956755Y-23459459D01*
X-13918486Y-23448222D01*
X-13879105Y-23431910D01*
X-13849788Y-23428050D01*
X-13821489Y-23419741D01*
X-13786670Y-23419741D01*
X-13751000Y-23415045D01*
X-13715329Y-23419741D01*
G37*
G36*
X-11683329Y-23419741D02*
G01*
X-11648511Y-23419741D01*
X-11620212Y-23428050D01*
X-11590894Y-23431910D01*
X-11551509Y-23448223D01*
X-11513245Y-23459459D01*
X-11493048Y-23472438D01*
X-11471522Y-23481355D01*
X-11432076Y-23511622D01*
X-11394647Y-23535677D01*
X-11382581Y-23549601D01*
X-11369013Y-23560013D01*
X-11333833Y-23605860D01*
X-11302327Y-23642221D01*
X-11297025Y-23653829D01*
X-11290355Y-23662523D01*
X-11264019Y-23726101D01*
X-11243763Y-23770458D01*
X-11242761Y-23777424D01*
X-11240910Y-23781894D01*
X-11227789Y-23881555D01*
X-11223700Y-23910000D01*
X-11227790Y-23938447D01*
X-11240910Y-24038105D01*
X-11242761Y-24042574D01*
X-11243763Y-24049542D01*
X-11264022Y-24093903D01*
X-11290355Y-24157477D01*
X-11297025Y-24166169D01*
X-11302327Y-24177779D01*
X-11333837Y-24214144D01*
X-11369013Y-24259986D01*
X-11382578Y-24270395D01*
X-11394647Y-24284323D01*
X-11432084Y-24308382D01*
X-11471522Y-24338644D01*
X-11493043Y-24347558D01*
X-11513245Y-24360541D01*
X-11551517Y-24371778D01*
X-11590894Y-24388089D01*
X-11620206Y-24391947D01*
X-11648511Y-24400259D01*
X-11683337Y-24400259D01*
X-11719000Y-24404954D01*
X-11754663Y-24400259D01*
X-11789489Y-24400259D01*
X-11817794Y-24391947D01*
X-11847105Y-24388089D01*
X-11886478Y-24371779D01*
X-11924755Y-24360541D01*
X-11944958Y-24347557D01*
X-11966477Y-24338644D01*
X-12005909Y-24308386D01*
X-12043353Y-24284323D01*
X-12055423Y-24270393D01*
X-12068986Y-24259986D01*
X-12104153Y-24214154D01*
X-12135673Y-24177779D01*
X-12140976Y-24166166D01*
X-12147644Y-24157477D01*
X-12173966Y-24093927D01*
X-12194237Y-24049542D01*
X-12195239Y-24042570D01*
X-12197089Y-24038105D01*
X-12210198Y-23938529D01*
X-12214300Y-23910000D01*
X-12210198Y-23881472D01*
X-12197089Y-23781894D01*
X-12195239Y-23777428D01*
X-12194237Y-23770458D01*
X-12173969Y-23726078D01*
X-12147644Y-23662523D01*
X-12140976Y-23653833D01*
X-12135673Y-23642221D01*
X-12104157Y-23605850D01*
X-12068986Y-23560013D01*
X-12055420Y-23549604D01*
X-12043353Y-23535677D01*
X-12005913Y-23511616D01*
X-11966476Y-23481355D01*
X-11944955Y-23472440D01*
X-11924755Y-23459459D01*
X-11886486Y-23448222D01*
X-11847105Y-23431910D01*
X-11817788Y-23428050D01*
X-11789489Y-23419741D01*
X-11754670Y-23419741D01*
X-11719000Y-23415045D01*
X-11683329Y-23419741D01*
G37*
G36*
X-1463965Y-23105089D02*
G01*
X-1428843Y-23105089D01*
X-1400297Y-23113470D01*
X-1370678Y-23117370D01*
X-1330890Y-23133850D01*
X-1292292Y-23145184D01*
X-1271918Y-23158277D01*
X-1250172Y-23167285D01*
X-1210322Y-23197863D01*
X-1172570Y-23222125D01*
X-1160400Y-23236169D01*
X-1146690Y-23246690D01*
X-1111145Y-23293012D01*
X-1079373Y-23329680D01*
X-1074026Y-23341387D01*
X-1067285Y-23350173D01*
X-1040662Y-23414444D01*
X-1020254Y-23459134D01*
X-1019245Y-23466151D01*
X-1017370Y-23470678D01*
X-1004088Y-23571567D01*
X-1000000Y-23600000D01*
X-1004088Y-23628435D01*
X-1017370Y-23729321D01*
X-1019244Y-23733847D01*
X-1020254Y-23740866D01*
X-1040665Y-23785560D01*
X-1067285Y-23849827D01*
X-1074026Y-23858612D01*
X-1079373Y-23870320D01*
X-1111149Y-23906992D01*
X-1146690Y-23953309D01*
X-1160397Y-23963827D01*
X-1172570Y-23977875D01*
X-1210330Y-24002142D01*
X-1250172Y-24032714D01*
X-1271913Y-24041719D01*
X-1292292Y-24054816D01*
X-1330898Y-24066151D01*
X-1370678Y-24082629D01*
X-1400291Y-24086527D01*
X-1428843Y-24094911D01*
X-1463972Y-24094911D01*
X-1500000Y-24099654D01*
X-1536028Y-24094911D01*
X-1571157Y-24094911D01*
X-1599708Y-24086527D01*
X-1629321Y-24082629D01*
X-1669097Y-24066152D01*
X-1707708Y-24054816D01*
X-1728087Y-24041718D01*
X-1749827Y-24032714D01*
X-1789663Y-24002145D01*
X-1827430Y-23977875D01*
X-1839604Y-23963824D01*
X-1853309Y-23953309D01*
X-1888841Y-23907002D01*
X-1920627Y-23870320D01*
X-1925974Y-23858609D01*
X-1932714Y-23849827D01*
X-1959324Y-23785583D01*
X-1979746Y-23740866D01*
X-1980755Y-23733843D01*
X-1982629Y-23729321D01*
X-1995899Y-23628517D01*
X-2000000Y-23600000D01*
X-1995900Y-23571484D01*
X-1982629Y-23470678D01*
X-1980755Y-23466154D01*
X-1979746Y-23459134D01*
X-1959326Y-23414421D01*
X-1932714Y-23350173D01*
X-1925974Y-23341390D01*
X-1920627Y-23329680D01*
X-1888845Y-23293002D01*
X-1853309Y-23246690D01*
X-1839602Y-23236172D01*
X-1827430Y-23222125D01*
X-1789668Y-23197856D01*
X-1749826Y-23167285D01*
X-1728084Y-23158279D01*
X-1707708Y-23145184D01*
X-1669104Y-23133849D01*
X-1629321Y-23117370D01*
X-1599702Y-23113470D01*
X-1571157Y-23105089D01*
X-1536035Y-23105089D01*
X-1500000Y-23100345D01*
X-1463965Y-23105089D01*
G37*
G36*
X-12699329Y-18339741D02*
G01*
X-12664511Y-18339741D01*
X-12636212Y-18348050D01*
X-12606894Y-18351910D01*
X-12567509Y-18368223D01*
X-12529245Y-18379459D01*
X-12509048Y-18392438D01*
X-12487522Y-18401355D01*
X-12448076Y-18431622D01*
X-12410647Y-18455677D01*
X-12398581Y-18469601D01*
X-12385013Y-18480013D01*
X-12349833Y-18525860D01*
X-12318327Y-18562221D01*
X-12313025Y-18573829D01*
X-12306355Y-18582523D01*
X-12280019Y-18646101D01*
X-12259763Y-18690458D01*
X-12258761Y-18697424D01*
X-12256910Y-18701894D01*
X-12243789Y-18801555D01*
X-12239700Y-18830000D01*
X-12243790Y-18858447D01*
X-12256910Y-18958105D01*
X-12258761Y-18962574D01*
X-12259763Y-18969542D01*
X-12280022Y-19013903D01*
X-12306355Y-19077477D01*
X-12313025Y-19086169D01*
X-12318327Y-19097779D01*
X-12349837Y-19134144D01*
X-12385013Y-19179986D01*
X-12398578Y-19190395D01*
X-12410647Y-19204323D01*
X-12448084Y-19228382D01*
X-12487522Y-19258644D01*
X-12509043Y-19267558D01*
X-12529245Y-19280541D01*
X-12567517Y-19291778D01*
X-12606894Y-19308089D01*
X-12636206Y-19311947D01*
X-12664511Y-19320259D01*
X-12699337Y-19320259D01*
X-12735000Y-19324954D01*
X-12770663Y-19320259D01*
X-12805489Y-19320259D01*
X-12833794Y-19311947D01*
X-12863105Y-19308089D01*
X-12902478Y-19291779D01*
X-12940755Y-19280541D01*
X-12960958Y-19267557D01*
X-12982477Y-19258644D01*
X-13021909Y-19228386D01*
X-13059353Y-19204323D01*
X-13071423Y-19190393D01*
X-13084986Y-19179986D01*
X-13120153Y-19134154D01*
X-13151673Y-19097779D01*
X-13156976Y-19086166D01*
X-13163644Y-19077477D01*
X-13189966Y-19013927D01*
X-13210237Y-18969542D01*
X-13211239Y-18962570D01*
X-13213089Y-18958105D01*
X-13226198Y-18858529D01*
X-13230300Y-18830000D01*
X-13226198Y-18801472D01*
X-13213089Y-18701894D01*
X-13211239Y-18697428D01*
X-13210237Y-18690458D01*
X-13189969Y-18646078D01*
X-13163644Y-18582523D01*
X-13156976Y-18573833D01*
X-13151673Y-18562221D01*
X-13120157Y-18525850D01*
X-13084986Y-18480013D01*
X-13071420Y-18469604D01*
X-13059353Y-18455677D01*
X-13021913Y-18431616D01*
X-12982476Y-18401355D01*
X-12960955Y-18392440D01*
X-12940755Y-18379459D01*
X-12902486Y-18368222D01*
X-12863105Y-18351910D01*
X-12833788Y-18348050D01*
X-12805489Y-18339741D01*
X-12770670Y-18339741D01*
X-12735000Y-18335045D01*
X-12699329Y-18339741D01*
G37*
G36*
X2036035Y-13905089D02*
G01*
X2071157Y-13905089D01*
X2099702Y-13913470D01*
X2129321Y-13917370D01*
X2169106Y-13933849D01*
X2207708Y-13945184D01*
X2228083Y-13958278D01*
X2249827Y-13967285D01*
X2289671Y-13997859D01*
X2327430Y-14022125D01*
X2339601Y-14036172D01*
X2353309Y-14046690D01*
X2388845Y-14093002D01*
X2420627Y-14129680D01*
X2425974Y-14141390D01*
X2432714Y-14150173D01*
X2459326Y-14214421D01*
X2479746Y-14259134D01*
X2480755Y-14266154D01*
X2482629Y-14270678D01*
X2495900Y-14371484D01*
X2500000Y-14400000D01*
X2495899Y-14428517D01*
X2482629Y-14529321D01*
X2480755Y-14533843D01*
X2479746Y-14540866D01*
X2459324Y-14585583D01*
X2432714Y-14649827D01*
X2425974Y-14658609D01*
X2420627Y-14670320D01*
X2388841Y-14707002D01*
X2353309Y-14753309D01*
X2339604Y-14763824D01*
X2327430Y-14777875D01*
X2289663Y-14802145D01*
X2249827Y-14832714D01*
X2228087Y-14841718D01*
X2207708Y-14854816D01*
X2169097Y-14866152D01*
X2129321Y-14882629D01*
X2099709Y-14886527D01*
X2071157Y-14894911D01*
X2036027Y-14894911D01*
X1999999Y-14899654D01*
X1963971Y-14894911D01*
X1928843Y-14894911D01*
X1900291Y-14886527D01*
X1870678Y-14882629D01*
X1830898Y-14866151D01*
X1792292Y-14854816D01*
X1771913Y-14841719D01*
X1750172Y-14832714D01*
X1710330Y-14802142D01*
X1672570Y-14777875D01*
X1660397Y-14763827D01*
X1646690Y-14753309D01*
X1611149Y-14706992D01*
X1579373Y-14670320D01*
X1574026Y-14658612D01*
X1567285Y-14649827D01*
X1540665Y-14585560D01*
X1520254Y-14540866D01*
X1519244Y-14533847D01*
X1517370Y-14529321D01*
X1504088Y-14428435D01*
X1500000Y-14400000D01*
X1504088Y-14371567D01*
X1517370Y-14270678D01*
X1519245Y-14266151D01*
X1520254Y-14259134D01*
X1540662Y-14214444D01*
X1567285Y-14150173D01*
X1574026Y-14141387D01*
X1579373Y-14129680D01*
X1611145Y-14093012D01*
X1646690Y-14046690D01*
X1660399Y-14036170D01*
X1672570Y-14022125D01*
X1710325Y-13997860D01*
X1750173Y-13967285D01*
X1771916Y-13958278D01*
X1792292Y-13945184D01*
X1830891Y-13933850D01*
X1870678Y-13917370D01*
X1900297Y-13913470D01*
X1928843Y-13905089D01*
X1963965Y-13905089D01*
X2000000Y-13900345D01*
X2036035Y-13905089D01*
G37*
G36*
X4636035Y-12805089D02*
G01*
X4671157Y-12805089D01*
X4699702Y-12813470D01*
X4729321Y-12817370D01*
X4769106Y-12833849D01*
X4807708Y-12845184D01*
X4828083Y-12858278D01*
X4849827Y-12867285D01*
X4889671Y-12897859D01*
X4927430Y-12922125D01*
X4939601Y-12936172D01*
X4953309Y-12946690D01*
X4988845Y-12993002D01*
X5020627Y-13029680D01*
X5025974Y-13041390D01*
X5032714Y-13050173D01*
X5059326Y-13114421D01*
X5079746Y-13159134D01*
X5080755Y-13166154D01*
X5082629Y-13170678D01*
X5095900Y-13271484D01*
X5100000Y-13300000D01*
X5095899Y-13328517D01*
X5082629Y-13429321D01*
X5080755Y-13433843D01*
X5079746Y-13440866D01*
X5059324Y-13485583D01*
X5032714Y-13549827D01*
X5025974Y-13558609D01*
X5020627Y-13570320D01*
X4988841Y-13607002D01*
X4953309Y-13653309D01*
X4939604Y-13663824D01*
X4927430Y-13677875D01*
X4889663Y-13702145D01*
X4849827Y-13732714D01*
X4828087Y-13741718D01*
X4807708Y-13754816D01*
X4769097Y-13766152D01*
X4729321Y-13782629D01*
X4699708Y-13786527D01*
X4671157Y-13794911D01*
X4636028Y-13794911D01*
X4600000Y-13799654D01*
X4563972Y-13794911D01*
X4528843Y-13794911D01*
X4500291Y-13786527D01*
X4470678Y-13782629D01*
X4430898Y-13766151D01*
X4392292Y-13754816D01*
X4371913Y-13741719D01*
X4350172Y-13732714D01*
X4310330Y-13702142D01*
X4272570Y-13677875D01*
X4260397Y-13663827D01*
X4246690Y-13653309D01*
X4211149Y-13606992D01*
X4179373Y-13570320D01*
X4174026Y-13558612D01*
X4167285Y-13549827D01*
X4140665Y-13485560D01*
X4120254Y-13440866D01*
X4119244Y-13433847D01*
X4117370Y-13429321D01*
X4104089Y-13328443D01*
X4100000Y-13300000D01*
X4104086Y-13271575D01*
X4117370Y-13170678D01*
X4119245Y-13166151D01*
X4120254Y-13159134D01*
X4140662Y-13114444D01*
X4167285Y-13050173D01*
X4174026Y-13041387D01*
X4179373Y-13029680D01*
X4211145Y-12993012D01*
X4246690Y-12946690D01*
X4260399Y-12936170D01*
X4272570Y-12922125D01*
X4310325Y-12897860D01*
X4350173Y-12867285D01*
X4371916Y-12858278D01*
X4392292Y-12845184D01*
X4430891Y-12833850D01*
X4470678Y-12817370D01*
X4500297Y-12813470D01*
X4528843Y-12805089D01*
X4563965Y-12805089D01*
X4600000Y-12800345D01*
X4636035Y-12805089D01*
G37*
G36*
X2536035Y-6305089D02*
G01*
X2571157Y-6305089D01*
X2599702Y-6313470D01*
X2629321Y-6317370D01*
X2669106Y-6333849D01*
X2707708Y-6345184D01*
X2728083Y-6358278D01*
X2749827Y-6367285D01*
X2789671Y-6397859D01*
X2827430Y-6422125D01*
X2839601Y-6436172D01*
X2853309Y-6446690D01*
X2888845Y-6493002D01*
X2920627Y-6529680D01*
X2925974Y-6541390D01*
X2932714Y-6550173D01*
X2959326Y-6614421D01*
X2979746Y-6659134D01*
X2980755Y-6666154D01*
X2982629Y-6670678D01*
X2995900Y-6771484D01*
X3000000Y-6800000D01*
X2995899Y-6828517D01*
X2982629Y-6929321D01*
X2980755Y-6933843D01*
X2979746Y-6940866D01*
X2959324Y-6985583D01*
X2932714Y-7049827D01*
X2925974Y-7058609D01*
X2920627Y-7070320D01*
X2888841Y-7107002D01*
X2853309Y-7153309D01*
X2839604Y-7163824D01*
X2827430Y-7177875D01*
X2789663Y-7202145D01*
X2749827Y-7232714D01*
X2728087Y-7241718D01*
X2707708Y-7254816D01*
X2669097Y-7266152D01*
X2629321Y-7282629D01*
X2599708Y-7286527D01*
X2571157Y-7294911D01*
X2536028Y-7294911D01*
X2500000Y-7299654D01*
X2463972Y-7294911D01*
X2428843Y-7294911D01*
X2400291Y-7286527D01*
X2370678Y-7282629D01*
X2330898Y-7266151D01*
X2292292Y-7254816D01*
X2271913Y-7241719D01*
X2250172Y-7232714D01*
X2210330Y-7202142D01*
X2172570Y-7177875D01*
X2160397Y-7163827D01*
X2146690Y-7153309D01*
X2111149Y-7106992D01*
X2079373Y-7070320D01*
X2074026Y-7058612D01*
X2067285Y-7049827D01*
X2040665Y-6985560D01*
X2020254Y-6940866D01*
X2019244Y-6933847D01*
X2017370Y-6929321D01*
X2004088Y-6828435D01*
X2000000Y-6800000D01*
X2004088Y-6771567D01*
X2017370Y-6670678D01*
X2019245Y-6666151D01*
X2020254Y-6659134D01*
X2040662Y-6614444D01*
X2067285Y-6550173D01*
X2074026Y-6541387D01*
X2079373Y-6529680D01*
X2111145Y-6493012D01*
X2146690Y-6446690D01*
X2160399Y-6436170D01*
X2172570Y-6422125D01*
X2210325Y-6397860D01*
X2250173Y-6367285D01*
X2271916Y-6358278D01*
X2292292Y-6345184D01*
X2330891Y-6333850D01*
X2370678Y-6317370D01*
X2400297Y-6313470D01*
X2428843Y-6305089D01*
X2463965Y-6305089D01*
X2500000Y-6300345D01*
X2536035Y-6305089D01*
G37*
G36*
X-6563965Y-1405089D02*
G01*
X-6528843Y-1405089D01*
X-6500297Y-1413470D01*
X-6470678Y-1417370D01*
X-6430890Y-1433850D01*
X-6392292Y-1445184D01*
X-6371918Y-1458277D01*
X-6350172Y-1467285D01*
X-6310322Y-1497863D01*
X-6272570Y-1522125D01*
X-6260400Y-1536169D01*
X-6246690Y-1546690D01*
X-6211145Y-1593012D01*
X-6179373Y-1629680D01*
X-6174026Y-1641387D01*
X-6167285Y-1650173D01*
X-6140662Y-1714444D01*
X-6120254Y-1759134D01*
X-6119245Y-1766151D01*
X-6117370Y-1770678D01*
X-6104088Y-1871567D01*
X-6100000Y-1900000D01*
X-6104088Y-1928435D01*
X-6117370Y-2029321D01*
X-6119244Y-2033847D01*
X-6120254Y-2040866D01*
X-6140665Y-2085560D01*
X-6167285Y-2149827D01*
X-6174026Y-2158612D01*
X-6179373Y-2170320D01*
X-6211149Y-2206992D01*
X-6246690Y-2253309D01*
X-6260397Y-2263827D01*
X-6272570Y-2277875D01*
X-6310330Y-2302142D01*
X-6350172Y-2332714D01*
X-6371913Y-2341719D01*
X-6392292Y-2354816D01*
X-6430898Y-2366151D01*
X-6470678Y-2382629D01*
X-6500291Y-2386527D01*
X-6528843Y-2394911D01*
X-6563972Y-2394911D01*
X-6600000Y-2399654D01*
X-6636028Y-2394911D01*
X-6671157Y-2394911D01*
X-6699708Y-2386527D01*
X-6729321Y-2382629D01*
X-6769097Y-2366152D01*
X-6807708Y-2354816D01*
X-6828087Y-2341718D01*
X-6849827Y-2332714D01*
X-6889663Y-2302145D01*
X-6927430Y-2277875D01*
X-6939604Y-2263824D01*
X-6953309Y-2253309D01*
X-6988841Y-2207002D01*
X-7020627Y-2170320D01*
X-7025974Y-2158609D01*
X-7032714Y-2149827D01*
X-7059324Y-2085583D01*
X-7079746Y-2040866D01*
X-7080755Y-2033843D01*
X-7082629Y-2029321D01*
X-7095899Y-1928517D01*
X-7100000Y-1900000D01*
X-7095900Y-1871484D01*
X-7082629Y-1770678D01*
X-7080755Y-1766154D01*
X-7079746Y-1759134D01*
X-7059326Y-1714421D01*
X-7032714Y-1650173D01*
X-7025974Y-1641390D01*
X-7020627Y-1629680D01*
X-6988845Y-1593002D01*
X-6953309Y-1546690D01*
X-6939602Y-1536172D01*
X-6927430Y-1522125D01*
X-6889668Y-1497856D01*
X-6849826Y-1467285D01*
X-6828084Y-1458279D01*
X-6807708Y-1445184D01*
X-6769104Y-1433849D01*
X-6729321Y-1417370D01*
X-6699702Y-1413470D01*
X-6671157Y-1405089D01*
X-6636035Y-1405089D01*
X-6600000Y-1400345D01*
X-6563965Y-1405089D01*
G37*
G36*
X-6401940Y15679413D02*
G01*
X-6341998Y15679413D01*
X-6288490Y15670484D01*
X-6232010Y15666039D01*
X-6163986Y15649708D01*
X-6099349Y15638922D01*
X-6053509Y15623185D01*
X-6004754Y15611480D01*
X-5933776Y15582080D01*
X-5866675Y15559044D01*
X-5829199Y15538763D01*
X-5788838Y15522045D01*
X-5717297Y15478204D01*
X-5650321Y15441959D01*
X-5621337Y15419400D01*
X-5589563Y15399929D01*
X-5520137Y15340633D01*
X-5456189Y15290861D01*
X-5435325Y15268197D01*
X-5411851Y15248148D01*
X-5347385Y15172669D01*
X-5289575Y15109870D01*
X-5275987Y15089073D01*
X-5260070Y15070436D01*
X-5203499Y14978121D01*
X-5155024Y14903924D01*
X-5147449Y14886656D01*
X-5137954Y14871161D01*
X-5092195Y14760690D01*
X-5056205Y14678640D01*
X-5053051Y14666188D01*
X-5048519Y14655245D01*
X-5016371Y14521340D01*
X-4995815Y14440164D01*
X-4995252Y14433371D01*
X-4993960Y14427989D01*
X-4977967Y14224779D01*
X-4975500Y14195000D01*
X-4977967Y14165222D01*
X-4993960Y13962010D01*
X-4995252Y13956627D01*
X-4995815Y13949836D01*
X-5016366Y13868677D01*
X-5048519Y13734754D01*
X-5053052Y13723809D01*
X-5056205Y13711360D01*
X-5092188Y13629326D01*
X-5137954Y13518838D01*
X-5147451Y13503339D01*
X-5155024Y13486076D01*
X-5203489Y13411894D01*
X-5260070Y13319563D01*
X-5275990Y13300922D01*
X-5289575Y13280130D01*
X-5347373Y13217343D01*
X-5411851Y13141851D01*
X-5435329Y13121798D01*
X-5456189Y13099139D01*
X-5520124Y13049376D01*
X-5589563Y12990070D01*
X-5621343Y12970594D01*
X-5650321Y12948041D01*
X-5717283Y12911802D01*
X-5788838Y12867954D01*
X-5829207Y12851232D01*
X-5866675Y12830956D01*
X-5933761Y12807924D01*
X-6004754Y12778519D01*
X-6053519Y12766811D01*
X-6099349Y12751078D01*
X-6163972Y12740294D01*
X-6232010Y12723960D01*
X-6288502Y12719513D01*
X-6341998Y12710587D01*
X-6401927Y12710587D01*
X-6464999Y12705623D01*
X-6528072Y12710587D01*
X-6588002Y12710587D01*
X-6641498Y12719514D01*
X-6697989Y12723960D01*
X-6766023Y12740293D01*
X-6830651Y12751078D01*
X-6876483Y12766812D01*
X-6925245Y12778519D01*
X-6996232Y12807922D01*
X-7063325Y12830956D01*
X-7100796Y12851234D01*
X-7141161Y12867954D01*
X-7212707Y12911797D01*
X-7279679Y12948041D01*
X-7308659Y12970597D01*
X-7340436Y12990070D01*
X-7409864Y13049367D01*
X-7473811Y13099139D01*
X-7494673Y13121802D01*
X-7518148Y13141851D01*
X-7582612Y13217328D01*
X-7640425Y13280130D01*
X-7654012Y13300927D01*
X-7669929Y13319563D01*
X-7726494Y13411869D01*
X-7774976Y13486076D01*
X-7782551Y13503345D01*
X-7792045Y13518838D01*
X-7837793Y13629285D01*
X-7873795Y13711360D01*
X-7876949Y13723815D01*
X-7881480Y13734754D01*
X-7913613Y13868601D01*
X-7934185Y13949836D01*
X-7934748Y13956633D01*
X-7936039Y13962010D01*
X-7952030Y14165191D01*
X-7954500Y14195000D01*
X-7952029Y14224810D01*
X-7936039Y14427989D01*
X-7934748Y14433364D01*
X-7934185Y14440164D01*
X-7913609Y14521416D01*
X-7881480Y14655245D01*
X-7876949Y14666181D01*
X-7873795Y14678640D01*
X-7837786Y14760731D01*
X-7792045Y14871161D01*
X-7782552Y14886651D01*
X-7774976Y14903924D01*
X-7726484Y14978145D01*
X-7669929Y15070436D01*
X-7654015Y15089068D01*
X-7640425Y15109870D01*
X-7582600Y15172684D01*
X-7518148Y15248148D01*
X-7494678Y15268193D01*
X-7473811Y15290861D01*
X-7409851Y15340642D01*
X-7340436Y15399929D01*
X-7308665Y15419397D01*
X-7279679Y15441959D01*
X-7212693Y15478209D01*
X-7141161Y15522045D01*
X-7100804Y15538761D01*
X-7063325Y15559044D01*
X-6996218Y15582082D01*
X-6925245Y15611480D01*
X-6876492Y15623184D01*
X-6830651Y15638922D01*
X-6766010Y15649708D01*
X-6697989Y15666039D01*
X-6641510Y15670484D01*
X-6588002Y15679413D01*
X-6528060Y15679413D01*
X-6465000Y15684376D01*
X-6401940Y15679413D01*
G37*
G36*
X6536028Y13794911D02*
G01*
X6571157Y13794911D01*
X6599708Y13786527D01*
X6629321Y13782629D01*
X6669097Y13766152D01*
X6707708Y13754816D01*
X6728087Y13741718D01*
X6749827Y13732714D01*
X6789663Y13702145D01*
X6827430Y13677875D01*
X6839604Y13663824D01*
X6853309Y13653309D01*
X6888838Y13607005D01*
X6920627Y13570320D01*
X6925976Y13558607D01*
X6932714Y13549826D01*
X6959322Y13485588D01*
X6979746Y13440866D01*
X6980755Y13433843D01*
X6982629Y13429321D01*
X6995899Y13328517D01*
X7000000Y13300000D01*
X6995900Y13271484D01*
X6982629Y13170678D01*
X6980755Y13166154D01*
X6979746Y13159134D01*
X6959328Y13114425D01*
X6932714Y13050172D01*
X6925973Y13041388D01*
X6920627Y13029680D01*
X6888848Y12993005D01*
X6853309Y12946690D01*
X6839601Y12936172D01*
X6827430Y12922125D01*
X6789671Y12897859D01*
X6749827Y12867285D01*
X6728083Y12858278D01*
X6707708Y12845184D01*
X6669106Y12833849D01*
X6629321Y12817370D01*
X6599702Y12813470D01*
X6571157Y12805089D01*
X6536035Y12805089D01*
X6500000Y12800345D01*
X6463965Y12805089D01*
X6428843Y12805089D01*
X6400297Y12813470D01*
X6370678Y12817370D01*
X6330890Y12833850D01*
X6292292Y12845184D01*
X6271918Y12858277D01*
X6250172Y12867285D01*
X6210322Y12897863D01*
X6172570Y12922125D01*
X6160400Y12936169D01*
X6146690Y12946690D01*
X6111142Y12993015D01*
X6079373Y13029680D01*
X6074027Y13041384D01*
X6067285Y13050172D01*
X6040660Y13114449D01*
X6020254Y13159134D01*
X6019245Y13166151D01*
X6017370Y13170678D01*
X6004088Y13271567D01*
X6000000Y13300000D01*
X6004088Y13328435D01*
X6017370Y13429321D01*
X6019244Y13433847D01*
X6020254Y13440866D01*
X6040667Y13485564D01*
X6067285Y13549826D01*
X6074025Y13558610D01*
X6079373Y13570320D01*
X6111152Y13606995D01*
X6146690Y13653309D01*
X6160397Y13663826D01*
X6172570Y13677875D01*
X6210333Y13702144D01*
X6250173Y13732714D01*
X6271912Y13741718D01*
X6292292Y13754816D01*
X6330899Y13766152D01*
X6370678Y13782629D01*
X6400291Y13786527D01*
X6428843Y13794911D01*
X6463972Y13794911D01*
X6500000Y13799654D01*
X6536028Y13794911D01*
G37*
G36*
X-1763972Y13994911D02*
G01*
X-1728843Y13994911D01*
X-1700291Y13986527D01*
X-1670678Y13982629D01*
X-1630898Y13966151D01*
X-1592292Y13954816D01*
X-1571913Y13941719D01*
X-1550172Y13932714D01*
X-1510330Y13902142D01*
X-1472570Y13877875D01*
X-1460397Y13863827D01*
X-1446690Y13853309D01*
X-1411152Y13806995D01*
X-1379373Y13770320D01*
X-1374025Y13758610D01*
X-1367285Y13749826D01*
X-1340667Y13685564D01*
X-1320254Y13640866D01*
X-1319244Y13633847D01*
X-1317370Y13629321D01*
X-1304088Y13528435D01*
X-1300000Y13500000D01*
X-1304088Y13471567D01*
X-1317370Y13370678D01*
X-1319245Y13366151D01*
X-1320254Y13359134D01*
X-1340660Y13314449D01*
X-1367285Y13250172D01*
X-1374027Y13241384D01*
X-1379373Y13229680D01*
X-1411142Y13193015D01*
X-1446690Y13146690D01*
X-1460400Y13136169D01*
X-1472570Y13122125D01*
X-1510322Y13097863D01*
X-1550172Y13067285D01*
X-1571918Y13058277D01*
X-1592292Y13045184D01*
X-1630890Y13033850D01*
X-1670678Y13017370D01*
X-1700297Y13013470D01*
X-1728843Y13005089D01*
X-1763965Y13005089D01*
X-1800000Y13000345D01*
X-1836035Y13005089D01*
X-1871157Y13005089D01*
X-1899702Y13013470D01*
X-1929321Y13017370D01*
X-1969106Y13033849D01*
X-2007708Y13045184D01*
X-2028083Y13058278D01*
X-2049827Y13067285D01*
X-2089671Y13097859D01*
X-2127430Y13122125D01*
X-2139601Y13136172D01*
X-2153309Y13146690D01*
X-2188848Y13193005D01*
X-2220627Y13229680D01*
X-2225973Y13241388D01*
X-2232714Y13250172D01*
X-2259328Y13314425D01*
X-2279746Y13359134D01*
X-2280755Y13366154D01*
X-2282629Y13370678D01*
X-2295900Y13471484D01*
X-2300000Y13500000D01*
X-2295899Y13528517D01*
X-2282629Y13629321D01*
X-2280755Y13633843D01*
X-2279746Y13640866D01*
X-2259322Y13685588D01*
X-2232714Y13749826D01*
X-2225976Y13758607D01*
X-2220627Y13770320D01*
X-2188838Y13807005D01*
X-2153309Y13853309D01*
X-2139604Y13863824D01*
X-2127430Y13877875D01*
X-2089659Y13902148D01*
X-2049826Y13932714D01*
X-2028089Y13941717D01*
X-2007708Y13954816D01*
X-1969096Y13966153D01*
X-1929321Y13982629D01*
X-1899708Y13986527D01*
X-1871157Y13994911D01*
X-1836028Y13994911D01*
X-1800000Y13999654D01*
X-1763972Y13994911D01*
G37*
G36*
X4491534Y17581736D02*
G01*
X4524625Y17559625D01*
X4546736Y17526534D01*
X4554500Y17487500D01*
X4554500Y14712500D01*
X4546736Y14673466D01*
X4524625Y14640375D01*
X4491534Y14618264D01*
X4452500Y14610500D01*
X4448557Y14610500D01*
X1681436Y14610500D01*
X1677500Y14610500D01*
X1638466Y14618264D01*
X1605375Y14640375D01*
X1583264Y14673466D01*
X1575500Y14712500D01*
X1575500Y17487500D01*
X1583264Y17526534D01*
X1605375Y17559625D01*
X1638466Y17581736D01*
X1677500Y17589500D01*
X4452500Y17589500D01*
X4491534Y17581736D01*
G37*
G36*
X3128059Y22284413D02*
G01*
X3188002Y22284413D01*
X3241510Y22275484D01*
X3297989Y22271039D01*
X3366010Y22254708D01*
X3430651Y22243922D01*
X3476492Y22228184D01*
X3525245Y22216480D01*
X3596218Y22187082D01*
X3663325Y22164044D01*
X3700804Y22143761D01*
X3741161Y22127045D01*
X3812693Y22083209D01*
X3879679Y22046959D01*
X3908665Y22024397D01*
X3940436Y22004929D01*
X4009851Y21945642D01*
X4073811Y21895861D01*
X4094678Y21873193D01*
X4118148Y21853148D01*
X4182600Y21777684D01*
X4240425Y21714870D01*
X4254015Y21694068D01*
X4269929Y21675436D01*
X4326484Y21583145D01*
X4374976Y21508924D01*
X4382552Y21491651D01*
X4392045Y21476161D01*
X4437786Y21365731D01*
X4473795Y21283640D01*
X4476949Y21271181D01*
X4481480Y21260245D01*
X4513609Y21126416D01*
X4534185Y21045164D01*
X4534748Y21038364D01*
X4536039Y21032989D01*
X4552029Y20829810D01*
X4554500Y20800000D01*
X4552030Y20770191D01*
X4536039Y20567010D01*
X4534748Y20561633D01*
X4534185Y20554836D01*
X4513613Y20473601D01*
X4481480Y20339754D01*
X4476949Y20328815D01*
X4473795Y20316360D01*
X4437793Y20234285D01*
X4392045Y20123838D01*
X4382551Y20108345D01*
X4374976Y20091076D01*
X4326494Y20016869D01*
X4269929Y19924563D01*
X4254012Y19905927D01*
X4240425Y19885130D01*
X4182612Y19822328D01*
X4118148Y19746851D01*
X4094673Y19726802D01*
X4073811Y19704139D01*
X4009864Y19654367D01*
X3940436Y19595070D01*
X3908659Y19575597D01*
X3879679Y19553041D01*
X3812707Y19516797D01*
X3741161Y19472954D01*
X3700796Y19456234D01*
X3663325Y19435956D01*
X3596232Y19412922D01*
X3525245Y19383519D01*
X3476483Y19371812D01*
X3430651Y19356078D01*
X3366023Y19345293D01*
X3297989Y19328960D01*
X3241498Y19324514D01*
X3188002Y19315587D01*
X3128072Y19315587D01*
X3065000Y19310623D01*
X3001927Y19315587D01*
X2941998Y19315587D01*
X2888502Y19324513D01*
X2832010Y19328960D01*
X2763972Y19345294D01*
X2699349Y19356078D01*
X2653519Y19371811D01*
X2604754Y19383519D01*
X2533761Y19412924D01*
X2466675Y19435956D01*
X2429207Y19456232D01*
X2388838Y19472954D01*
X2317283Y19516802D01*
X2250321Y19553041D01*
X2221343Y19575594D01*
X2189563Y19595070D01*
X2120124Y19654376D01*
X2056189Y19704139D01*
X2035329Y19726798D01*
X2011851Y19746851D01*
X1947373Y19822343D01*
X1889575Y19885130D01*
X1875990Y19905922D01*
X1860070Y19924563D01*
X1803489Y20016894D01*
X1755024Y20091076D01*
X1747451Y20108339D01*
X1737954Y20123838D01*
X1692188Y20234326D01*
X1656205Y20316360D01*
X1653052Y20328809D01*
X1648519Y20339754D01*
X1616366Y20473677D01*
X1595815Y20554836D01*
X1595252Y20561627D01*
X1593960Y20567010D01*
X1577950Y20770432D01*
X1575500Y20800000D01*
X1577950Y20829570D01*
X1593960Y21032989D01*
X1595252Y21038371D01*
X1595815Y21045164D01*
X1616371Y21126340D01*
X1648519Y21260245D01*
X1653051Y21271188D01*
X1656205Y21283640D01*
X1692195Y21365690D01*
X1737954Y21476161D01*
X1747449Y21491656D01*
X1755024Y21508924D01*
X1803499Y21583121D01*
X1860070Y21675436D01*
X1875987Y21694073D01*
X1889575Y21714870D01*
X1947385Y21777669D01*
X2011851Y21853148D01*
X2035325Y21873197D01*
X2056189Y21895861D01*
X2120137Y21945633D01*
X2189563Y22004929D01*
X2221337Y22024400D01*
X2250321Y22046959D01*
X2317297Y22083204D01*
X2388838Y22127045D01*
X2429199Y22143763D01*
X2466675Y22164044D01*
X2533776Y22187080D01*
X2604754Y22216480D01*
X2653509Y22228185D01*
X2699349Y22243922D01*
X2763986Y22254708D01*
X2832010Y22271039D01*
X2888490Y22275484D01*
X2941998Y22284413D01*
X3001939Y22284413D01*
X3064999Y22289376D01*
X3128059Y22284413D01*
G37*
G36*
X3128060Y26984413D02*
G01*
X3188002Y26984413D01*
X3241510Y26975484D01*
X3297989Y26971039D01*
X3366010Y26954708D01*
X3430651Y26943922D01*
X3476492Y26928184D01*
X3525245Y26916480D01*
X3596218Y26887082D01*
X3663325Y26864044D01*
X3700804Y26843761D01*
X3741161Y26827045D01*
X3812693Y26783209D01*
X3879679Y26746959D01*
X3908665Y26724397D01*
X3940436Y26704929D01*
X4009851Y26645642D01*
X4073811Y26595861D01*
X4094678Y26573193D01*
X4118148Y26553148D01*
X4182600Y26477684D01*
X4240425Y26414870D01*
X4254015Y26394068D01*
X4269929Y26375436D01*
X4326484Y26283145D01*
X4374976Y26208924D01*
X4382552Y26191651D01*
X4392045Y26176161D01*
X4437786Y26065731D01*
X4473795Y25983640D01*
X4476949Y25971181D01*
X4481480Y25960245D01*
X4513609Y25826416D01*
X4534185Y25745164D01*
X4534748Y25738364D01*
X4536039Y25732989D01*
X4552029Y25529810D01*
X4554500Y25500000D01*
X4552030Y25470191D01*
X4536039Y25267010D01*
X4534748Y25261633D01*
X4534185Y25254836D01*
X4513613Y25173601D01*
X4481480Y25039754D01*
X4476949Y25028815D01*
X4473795Y25016360D01*
X4437793Y24934285D01*
X4392045Y24823838D01*
X4382551Y24808345D01*
X4374976Y24791076D01*
X4326494Y24716869D01*
X4269929Y24624563D01*
X4254012Y24605927D01*
X4240425Y24585130D01*
X4182612Y24522328D01*
X4118148Y24446851D01*
X4094673Y24426802D01*
X4073811Y24404139D01*
X4009864Y24354367D01*
X3940436Y24295070D01*
X3908659Y24275597D01*
X3879679Y24253041D01*
X3812707Y24216797D01*
X3741161Y24172954D01*
X3700796Y24156234D01*
X3663325Y24135956D01*
X3596232Y24112922D01*
X3525245Y24083519D01*
X3476483Y24071812D01*
X3430651Y24056078D01*
X3366023Y24045293D01*
X3297989Y24028960D01*
X3241498Y24024514D01*
X3188002Y24015587D01*
X3128072Y24015587D01*
X3065000Y24010623D01*
X3001927Y24015587D01*
X2941998Y24015587D01*
X2888502Y24024513D01*
X2832010Y24028960D01*
X2763972Y24045294D01*
X2699349Y24056078D01*
X2653519Y24071811D01*
X2604754Y24083519D01*
X2533761Y24112924D01*
X2466675Y24135956D01*
X2429207Y24156232D01*
X2388838Y24172954D01*
X2317283Y24216802D01*
X2250321Y24253041D01*
X2221343Y24275594D01*
X2189563Y24295070D01*
X2120124Y24354376D01*
X2056189Y24404139D01*
X2035329Y24426798D01*
X2011851Y24446851D01*
X1947373Y24522343D01*
X1889575Y24585130D01*
X1875990Y24605922D01*
X1860070Y24624563D01*
X1803489Y24716894D01*
X1755024Y24791076D01*
X1747451Y24808339D01*
X1737954Y24823838D01*
X1692188Y24934326D01*
X1656205Y25016360D01*
X1653052Y25028809D01*
X1648519Y25039754D01*
X1616366Y25173677D01*
X1595815Y25254836D01*
X1595252Y25261627D01*
X1593960Y25267010D01*
X1577950Y25470432D01*
X1575500Y25500000D01*
X1577950Y25529570D01*
X1593960Y25732989D01*
X1595252Y25738371D01*
X1595815Y25745164D01*
X1616371Y25826340D01*
X1648519Y25960245D01*
X1653051Y25971188D01*
X1656205Y25983640D01*
X1692195Y26065690D01*
X1737954Y26176161D01*
X1747449Y26191656D01*
X1755024Y26208924D01*
X1803499Y26283121D01*
X1860070Y26375436D01*
X1875987Y26394073D01*
X1889575Y26414870D01*
X1947385Y26477669D01*
X2011851Y26553148D01*
X2035325Y26573197D01*
X2056189Y26595861D01*
X2120137Y26645633D01*
X2189563Y26704929D01*
X2221337Y26724400D01*
X2250321Y26746959D01*
X2317297Y26783204D01*
X2388838Y26827045D01*
X2429199Y26843763D01*
X2466675Y26864044D01*
X2533776Y26887080D01*
X2604754Y26916480D01*
X2653509Y26928185D01*
X2699349Y26943922D01*
X2763986Y26954708D01*
X2832010Y26971039D01*
X2888490Y26975484D01*
X2941998Y26984413D01*
X3001940Y26984413D01*
X3065000Y26989376D01*
X3128060Y26984413D01*
G37*
G36*
X-6401940Y28889413D02*
G01*
X-6341998Y28889413D01*
X-6288490Y28880484D01*
X-6232010Y28876039D01*
X-6163986Y28859708D01*
X-6099349Y28848922D01*
X-6053509Y28833185D01*
X-6004754Y28821480D01*
X-5933776Y28792080D01*
X-5866675Y28769044D01*
X-5829199Y28748763D01*
X-5788838Y28732045D01*
X-5717297Y28688204D01*
X-5650321Y28651959D01*
X-5621337Y28629400D01*
X-5589563Y28609929D01*
X-5520137Y28550633D01*
X-5456189Y28500861D01*
X-5435325Y28478197D01*
X-5411851Y28458148D01*
X-5347385Y28382669D01*
X-5289575Y28319870D01*
X-5275987Y28299073D01*
X-5260070Y28280436D01*
X-5203499Y28188121D01*
X-5155024Y28113924D01*
X-5147449Y28096656D01*
X-5137954Y28081161D01*
X-5092195Y27970690D01*
X-5056205Y27888640D01*
X-5053051Y27876188D01*
X-5048519Y27865245D01*
X-5016371Y27731340D01*
X-4995815Y27650164D01*
X-4995252Y27643371D01*
X-4993960Y27637989D01*
X-4977950Y27434570D01*
X-4975500Y27405000D01*
X-4977950Y27375432D01*
X-4993960Y27172010D01*
X-4995252Y27166627D01*
X-4995815Y27159836D01*
X-5016366Y27078677D01*
X-5048519Y26944754D01*
X-5053052Y26933809D01*
X-5056205Y26921360D01*
X-5092188Y26839326D01*
X-5137954Y26728838D01*
X-5147451Y26713339D01*
X-5155024Y26696076D01*
X-5203489Y26621894D01*
X-5260070Y26529563D01*
X-5275990Y26510922D01*
X-5289575Y26490130D01*
X-5347373Y26427343D01*
X-5411851Y26351851D01*
X-5435329Y26331798D01*
X-5456189Y26309139D01*
X-5520124Y26259376D01*
X-5589563Y26200070D01*
X-5621343Y26180594D01*
X-5650321Y26158041D01*
X-5717283Y26121802D01*
X-5788838Y26077954D01*
X-5829207Y26061232D01*
X-5866675Y26040956D01*
X-5933761Y26017924D01*
X-6004754Y25988519D01*
X-6053519Y25976811D01*
X-6099349Y25961078D01*
X-6163972Y25950294D01*
X-6232010Y25933960D01*
X-6288502Y25929513D01*
X-6341998Y25920587D01*
X-6401927Y25920587D01*
X-6464999Y25915623D01*
X-6528072Y25920587D01*
X-6588002Y25920587D01*
X-6641498Y25929514D01*
X-6697989Y25933960D01*
X-6766023Y25950293D01*
X-6830651Y25961078D01*
X-6876483Y25976812D01*
X-6925245Y25988519D01*
X-6996232Y26017922D01*
X-7063325Y26040956D01*
X-7100796Y26061234D01*
X-7141161Y26077954D01*
X-7212707Y26121797D01*
X-7279679Y26158041D01*
X-7308659Y26180597D01*
X-7340436Y26200070D01*
X-7409864Y26259367D01*
X-7473811Y26309139D01*
X-7494673Y26331802D01*
X-7518148Y26351851D01*
X-7582612Y26427328D01*
X-7640425Y26490130D01*
X-7654012Y26510927D01*
X-7669929Y26529563D01*
X-7726494Y26621869D01*
X-7774976Y26696076D01*
X-7782551Y26713345D01*
X-7792045Y26728838D01*
X-7837793Y26839285D01*
X-7873795Y26921360D01*
X-7876949Y26933815D01*
X-7881480Y26944754D01*
X-7913613Y27078601D01*
X-7934185Y27159836D01*
X-7934748Y27166633D01*
X-7936039Y27172010D01*
X-7952030Y27375191D01*
X-7954500Y27405000D01*
X-7952029Y27434810D01*
X-7936039Y27637989D01*
X-7934748Y27643364D01*
X-7934185Y27650164D01*
X-7913609Y27731416D01*
X-7881480Y27865245D01*
X-7876949Y27876181D01*
X-7873795Y27888640D01*
X-7837786Y27970731D01*
X-7792045Y28081161D01*
X-7782552Y28096651D01*
X-7774976Y28113924D01*
X-7726484Y28188145D01*
X-7669929Y28280436D01*
X-7654015Y28299068D01*
X-7640425Y28319870D01*
X-7582600Y28382684D01*
X-7518148Y28458148D01*
X-7494678Y28478193D01*
X-7473811Y28500861D01*
X-7409851Y28550642D01*
X-7340436Y28609929D01*
X-7308665Y28629397D01*
X-7279679Y28651959D01*
X-7212693Y28688209D01*
X-7141161Y28732045D01*
X-7100804Y28748761D01*
X-7063325Y28769044D01*
X-6996218Y28792082D01*
X-6925245Y28821480D01*
X-6876492Y28833184D01*
X-6830651Y28848922D01*
X-6766010Y28859708D01*
X-6697989Y28876039D01*
X-6641510Y28880484D01*
X-6588002Y28889413D01*
X-6528060Y28889413D01*
X-6465000Y28894376D01*
X-6401940Y28889413D01*
G37*
G36*
X8103243Y33474354D02*
G01*
X8155772Y33468261D01*
X8173719Y33460336D01*
X8195671Y33455970D01*
X8219171Y33440267D01*
X8240890Y33430678D01*
X8255723Y33415844D01*
X8276777Y33401777D01*
X8290844Y33380723D01*
X8305678Y33365890D01*
X8315267Y33344170D01*
X8330970Y33320671D01*
X8335336Y33298720D01*
X8343260Y33280775D01*
X8349352Y33228254D01*
X8350000Y33225000D01*
X8350000Y31775000D01*
X8349355Y31771758D01*
X8343261Y31719227D01*
X8335335Y31701278D01*
X8330970Y31679329D01*
X8315268Y31655830D01*
X8305678Y31634109D01*
X8290842Y31619273D01*
X8276777Y31598223D01*
X8255726Y31584157D01*
X8240890Y31569321D01*
X8219166Y31559729D01*
X8195671Y31544030D01*
X8173724Y31539664D01*
X8155775Y31531739D01*
X8103242Y31525644D01*
X8100000Y31525000D01*
X8097683Y31525000D01*
X6902308Y31525000D01*
X6900000Y31525000D01*
X6896770Y31525642D01*
X6844227Y31531738D01*
X6826274Y31539664D01*
X6804329Y31544030D01*
X6780835Y31559728D01*
X6759109Y31569321D01*
X6744270Y31584159D01*
X6723223Y31598223D01*
X6709159Y31619270D01*
X6694321Y31634109D01*
X6684727Y31655835D01*
X6669030Y31679329D01*
X6664665Y31701273D01*
X6656739Y31719224D01*
X6650644Y31771759D01*
X6650000Y31775000D01*
X6650000Y33225000D01*
X6650642Y33228231D01*
X6656738Y33280772D01*
X6664664Y33298723D01*
X6669030Y33320671D01*
X6684729Y33344166D01*
X6694321Y33365890D01*
X6709157Y33380726D01*
X6723223Y33401777D01*
X6744273Y33415842D01*
X6759109Y33430678D01*
X6780830Y33440269D01*
X6804329Y33455970D01*
X6826277Y33460335D01*
X6844224Y33468260D01*
X6896747Y33474352D01*
X6900000Y33475000D01*
X8100000Y33475000D01*
X8103243Y33474354D01*
G37*
G36*
X-7431846Y33470124D02*
G01*
X-7411174Y33470124D01*
X-7341459Y33455305D01*
X-7272601Y33444017D01*
X-7254592Y33436841D01*
X-7237403Y33433188D01*
X-7169117Y33402785D01*
X-7101853Y33375985D01*
X-7088332Y33366818D01*
X-7075110Y33360931D01*
X-7011682Y33314847D01*
X-6949722Y33272838D01*
X-6940586Y33263193D01*
X-6931383Y33256507D01*
X-6876244Y33195268D01*
X-6823321Y33139398D01*
X-6818047Y33130633D01*
X-6812515Y33124489D01*
X-6768950Y33049033D01*
X-6728561Y32981906D01*
X-6726272Y32975113D01*
X-6723686Y32970634D01*
X-6694567Y32881015D01*
X-6669873Y32807725D01*
X-6669429Y32803650D01*
X-6668790Y32801681D01*
X-6656557Y32685292D01*
X-6650000Y32625000D01*
X-6650000Y32375000D01*
X-6654983Y32283099D01*
X-6664353Y32240527D01*
X-6668790Y32198318D01*
X-6683841Y32151995D01*
X-6694495Y32103594D01*
X-6711534Y32066762D01*
X-6723686Y32029365D01*
X-6749609Y31984464D01*
X-6771671Y31936779D01*
X-6794414Y31906860D01*
X-6812515Y31875510D01*
X-6849322Y31834630D01*
X-6882904Y31790455D01*
X-6909238Y31768086D01*
X-6931383Y31743492D01*
X-6978462Y31709287D01*
X-7022991Y31671464D01*
X-7050851Y31656693D01*
X-7075111Y31639068D01*
X-7131201Y31614094D01*
X-7185383Y31585370D01*
X-7212844Y31577745D01*
X-7237403Y31566811D01*
X-7300616Y31553374D01*
X-7362485Y31536197D01*
X-7387923Y31534817D01*
X-7411174Y31529876D01*
X-7479079Y31529876D01*
X-7546018Y31526247D01*
X-7568154Y31529876D01*
X-7588826Y31529876D01*
X-7658546Y31544695D01*
X-7727399Y31555983D01*
X-7745403Y31563156D01*
X-7762596Y31566811D01*
X-7830894Y31597219D01*
X-7898147Y31624015D01*
X-7911664Y31633180D01*
X-7924889Y31639068D01*
X-7988323Y31685155D01*
X-8050278Y31727162D01*
X-8059412Y31736805D01*
X-8068616Y31743492D01*
X-8123753Y31804729D01*
X-8176679Y31860602D01*
X-8181952Y31869366D01*
X-8187484Y31875510D01*
X-8231039Y31950949D01*
X-8271439Y32018094D01*
X-8273728Y32024887D01*
X-8276313Y32029365D01*
X-8305413Y32118928D01*
X-8330127Y32192275D01*
X-8330570Y32196352D01*
X-8331209Y32198318D01*
X-8343435Y32314640D01*
X-8350000Y32375000D01*
X-8350000Y32625000D01*
X-8345017Y32716901D01*
X-8335644Y32759480D01*
X-8331209Y32801681D01*
X-8316161Y32847991D01*
X-8305505Y32896406D01*
X-8288460Y32933246D01*
X-8276313Y32970634D01*
X-8250396Y33015522D01*
X-8228329Y33063221D01*
X-8205578Y33093148D01*
X-8187484Y33124489D01*
X-8150688Y33165355D01*
X-8117096Y33209545D01*
X-8090753Y33231920D01*
X-8068616Y33256507D01*
X-8021551Y33290700D01*
X-7977009Y33328536D01*
X-7949139Y33343311D01*
X-7924888Y33360931D01*
X-7868815Y33385896D01*
X-7814617Y33414630D01*
X-7787147Y33422257D01*
X-7762596Y33433188D01*
X-7699394Y33446621D01*
X-7637515Y33463803D01*
X-7612075Y33465182D01*
X-7588826Y33470124D01*
X-7520921Y33470124D01*
X-7453982Y33473753D01*
X-7431846Y33470124D01*
G37*
G36*
X-4931846Y33470124D02*
G01*
X-4911174Y33470124D01*
X-4841459Y33455305D01*
X-4772601Y33444017D01*
X-4754592Y33436841D01*
X-4737403Y33433188D01*
X-4669117Y33402785D01*
X-4601853Y33375985D01*
X-4588332Y33366818D01*
X-4575110Y33360931D01*
X-4511682Y33314847D01*
X-4449722Y33272838D01*
X-4440586Y33263193D01*
X-4431383Y33256507D01*
X-4376244Y33195268D01*
X-4323321Y33139398D01*
X-4318047Y33130633D01*
X-4312515Y33124489D01*
X-4268950Y33049033D01*
X-4228561Y32981906D01*
X-4226272Y32975113D01*
X-4223686Y32970634D01*
X-4194567Y32881015D01*
X-4169873Y32807725D01*
X-4169429Y32803650D01*
X-4168790Y32801681D01*
X-4156557Y32685292D01*
X-4150000Y32625000D01*
X-4150000Y32375000D01*
X-4154983Y32283099D01*
X-4164353Y32240527D01*
X-4168790Y32198318D01*
X-4183841Y32151995D01*
X-4194495Y32103594D01*
X-4211534Y32066762D01*
X-4223686Y32029365D01*
X-4249609Y31984464D01*
X-4271671Y31936779D01*
X-4294414Y31906860D01*
X-4312515Y31875510D01*
X-4349322Y31834630D01*
X-4382904Y31790455D01*
X-4409238Y31768086D01*
X-4431383Y31743492D01*
X-4478462Y31709287D01*
X-4522991Y31671464D01*
X-4550851Y31656693D01*
X-4575111Y31639068D01*
X-4631201Y31614094D01*
X-4685383Y31585370D01*
X-4712844Y31577745D01*
X-4737403Y31566811D01*
X-4800616Y31553374D01*
X-4862485Y31536197D01*
X-4887923Y31534817D01*
X-4911174Y31529876D01*
X-4979079Y31529876D01*
X-5046018Y31526247D01*
X-5068154Y31529876D01*
X-5088826Y31529876D01*
X-5158546Y31544695D01*
X-5227399Y31555983D01*
X-5245403Y31563156D01*
X-5262596Y31566811D01*
X-5330894Y31597219D01*
X-5398147Y31624015D01*
X-5411664Y31633180D01*
X-5424889Y31639068D01*
X-5488323Y31685155D01*
X-5550278Y31727162D01*
X-5559412Y31736805D01*
X-5568616Y31743492D01*
X-5623753Y31804729D01*
X-5676679Y31860602D01*
X-5681952Y31869366D01*
X-5687484Y31875510D01*
X-5731039Y31950949D01*
X-5771439Y32018094D01*
X-5773728Y32024887D01*
X-5776313Y32029365D01*
X-5805413Y32118928D01*
X-5830127Y32192275D01*
X-5830570Y32196352D01*
X-5831209Y32198318D01*
X-5843435Y32314640D01*
X-5850000Y32375000D01*
X-5850000Y32625000D01*
X-5845017Y32716901D01*
X-5835644Y32759480D01*
X-5831209Y32801681D01*
X-5816161Y32847991D01*
X-5805505Y32896406D01*
X-5788460Y32933246D01*
X-5776313Y32970634D01*
X-5750396Y33015522D01*
X-5728329Y33063221D01*
X-5705578Y33093148D01*
X-5687484Y33124489D01*
X-5650688Y33165355D01*
X-5617096Y33209545D01*
X-5590753Y33231920D01*
X-5568616Y33256507D01*
X-5521551Y33290700D01*
X-5477009Y33328536D01*
X-5449139Y33343311D01*
X-5424888Y33360931D01*
X-5368815Y33385896D01*
X-5314617Y33414630D01*
X-5287147Y33422257D01*
X-5262596Y33433188D01*
X-5199394Y33446621D01*
X-5137515Y33463803D01*
X-5112075Y33465182D01*
X-5088826Y33470124D01*
X-5020921Y33470124D01*
X-4953982Y33473753D01*
X-4931846Y33470124D01*
G37*
G36*
X-2431846Y33470124D02*
G01*
X-2411174Y33470124D01*
X-2341459Y33455305D01*
X-2272601Y33444017D01*
X-2254592Y33436841D01*
X-2237403Y33433188D01*
X-2169117Y33402785D01*
X-2101853Y33375985D01*
X-2088332Y33366818D01*
X-2075110Y33360931D01*
X-2011682Y33314847D01*
X-1949722Y33272838D01*
X-1940586Y33263193D01*
X-1931383Y33256507D01*
X-1876244Y33195268D01*
X-1823321Y33139398D01*
X-1818047Y33130633D01*
X-1812515Y33124489D01*
X-1768950Y33049033D01*
X-1728561Y32981906D01*
X-1726272Y32975113D01*
X-1723686Y32970634D01*
X-1694567Y32881015D01*
X-1669873Y32807725D01*
X-1669429Y32803650D01*
X-1668790Y32801681D01*
X-1656557Y32685292D01*
X-1650000Y32625000D01*
X-1650000Y32375000D01*
X-1654983Y32283099D01*
X-1664353Y32240527D01*
X-1668790Y32198318D01*
X-1683841Y32151995D01*
X-1694495Y32103594D01*
X-1711534Y32066762D01*
X-1723686Y32029365D01*
X-1749609Y31984464D01*
X-1771671Y31936779D01*
X-1794414Y31906860D01*
X-1812515Y31875510D01*
X-1849322Y31834630D01*
X-1882904Y31790455D01*
X-1909238Y31768086D01*
X-1931383Y31743492D01*
X-1978462Y31709287D01*
X-2022991Y31671464D01*
X-2050851Y31656693D01*
X-2075111Y31639068D01*
X-2131201Y31614094D01*
X-2185383Y31585370D01*
X-2212844Y31577745D01*
X-2237403Y31566811D01*
X-2300616Y31553374D01*
X-2362485Y31536197D01*
X-2387923Y31534817D01*
X-2411174Y31529876D01*
X-2479079Y31529876D01*
X-2546018Y31526247D01*
X-2568154Y31529876D01*
X-2588826Y31529876D01*
X-2658546Y31544695D01*
X-2727399Y31555983D01*
X-2745403Y31563156D01*
X-2762596Y31566811D01*
X-2830894Y31597219D01*
X-2898147Y31624015D01*
X-2911664Y31633180D01*
X-2924889Y31639068D01*
X-2988323Y31685155D01*
X-3050278Y31727162D01*
X-3059412Y31736805D01*
X-3068616Y31743492D01*
X-3123753Y31804729D01*
X-3176679Y31860602D01*
X-3181952Y31869366D01*
X-3187484Y31875510D01*
X-3231039Y31950949D01*
X-3271439Y32018094D01*
X-3273728Y32024887D01*
X-3276313Y32029365D01*
X-3305413Y32118928D01*
X-3330127Y32192275D01*
X-3330570Y32196352D01*
X-3331209Y32198318D01*
X-3343435Y32314640D01*
X-3350000Y32375000D01*
X-3350000Y32625000D01*
X-3345017Y32716901D01*
X-3335644Y32759480D01*
X-3331209Y32801681D01*
X-3316161Y32847991D01*
X-3305505Y32896406D01*
X-3288460Y32933246D01*
X-3276313Y32970634D01*
X-3250396Y33015522D01*
X-3228329Y33063221D01*
X-3205578Y33093148D01*
X-3187484Y33124489D01*
X-3150688Y33165355D01*
X-3117096Y33209545D01*
X-3090753Y33231920D01*
X-3068616Y33256507D01*
X-3021551Y33290700D01*
X-2977009Y33328536D01*
X-2949139Y33343311D01*
X-2924888Y33360931D01*
X-2868815Y33385896D01*
X-2814617Y33414630D01*
X-2787147Y33422257D01*
X-2762596Y33433188D01*
X-2699394Y33446621D01*
X-2637515Y33463803D01*
X-2612075Y33465182D01*
X-2588826Y33470124D01*
X-2520921Y33470124D01*
X-2453982Y33473753D01*
X-2431846Y33470124D01*
G37*
G36*
X68154Y33470124D02*
G01*
X88826Y33470124D01*
X158538Y33455306D01*
X227399Y33444017D01*
X245408Y33436841D01*
X262596Y33433188D01*
X330873Y33402789D01*
X398147Y33375985D01*
X411669Y33366816D01*
X424889Y33360931D01*
X488302Y33314858D01*
X550278Y33272838D01*
X559415Y33263191D01*
X568616Y33256507D01*
X623735Y33195289D01*
X676679Y33139398D01*
X681954Y33130630D01*
X687484Y33124489D01*
X731024Y33049074D01*
X771439Y32981906D01*
X773728Y32975109D01*
X776313Y32970634D01*
X805404Y32881098D01*
X830127Y32807725D01*
X830570Y32803645D01*
X831209Y32801681D01*
X843432Y32685388D01*
X850000Y32625000D01*
X850000Y32375000D01*
X845017Y32283099D01*
X835644Y32240520D01*
X831209Y32198318D01*
X816161Y32152005D01*
X805505Y32103594D01*
X788461Y32066755D01*
X776313Y32029365D01*
X750394Y31984472D01*
X728329Y31936779D01*
X705580Y31906854D01*
X687484Y31875510D01*
X650683Y31834637D01*
X617096Y31790455D01*
X590757Y31768082D01*
X568616Y31743492D01*
X521543Y31709292D01*
X477009Y31671464D01*
X449144Y31656691D01*
X424888Y31639068D01*
X368803Y31614097D01*
X314617Y31585370D01*
X287153Y31577744D01*
X262596Y31566811D01*
X199385Y31553375D01*
X137515Y31536197D01*
X112076Y31534817D01*
X88826Y31529876D01*
X20921Y31529876D01*
X-46018Y31526247D01*
X-68154Y31529876D01*
X-88826Y31529876D01*
X-158546Y31544695D01*
X-227399Y31555983D01*
X-245403Y31563156D01*
X-262596Y31566811D01*
X-330894Y31597219D01*
X-398147Y31624015D01*
X-411664Y31633180D01*
X-424889Y31639068D01*
X-488323Y31685155D01*
X-550278Y31727162D01*
X-559412Y31736805D01*
X-568616Y31743492D01*
X-623753Y31804729D01*
X-676679Y31860602D01*
X-681952Y31869366D01*
X-687484Y31875510D01*
X-731039Y31950949D01*
X-771439Y32018094D01*
X-773728Y32024887D01*
X-776313Y32029365D01*
X-805413Y32118928D01*
X-830127Y32192275D01*
X-830570Y32196352D01*
X-831209Y32198318D01*
X-843435Y32314640D01*
X-850000Y32375000D01*
X-850000Y32625000D01*
X-845017Y32716901D01*
X-835644Y32759480D01*
X-831209Y32801681D01*
X-816161Y32847991D01*
X-805505Y32896406D01*
X-788460Y32933246D01*
X-776313Y32970634D01*
X-750396Y33015522D01*
X-728329Y33063221D01*
X-705578Y33093148D01*
X-687484Y33124489D01*
X-650688Y33165355D01*
X-617096Y33209545D01*
X-590753Y33231920D01*
X-568616Y33256507D01*
X-521551Y33290700D01*
X-477009Y33328536D01*
X-449139Y33343311D01*
X-424888Y33360931D01*
X-368815Y33385896D01*
X-314617Y33414630D01*
X-287147Y33422257D01*
X-262596Y33433188D01*
X-199394Y33446621D01*
X-137515Y33463803D01*
X-112075Y33465182D01*
X-88826Y33470124D01*
X-20921Y33470124D01*
X46018Y33473753D01*
X68154Y33470124D01*
G37*
G36*
X2568154Y33470124D02*
G01*
X2588826Y33470124D01*
X2658538Y33455306D01*
X2727399Y33444017D01*
X2745408Y33436841D01*
X2762596Y33433188D01*
X2830873Y33402789D01*
X2898147Y33375985D01*
X2911669Y33366816D01*
X2924889Y33360931D01*
X2988302Y33314858D01*
X3050278Y33272838D01*
X3059415Y33263191D01*
X3068616Y33256507D01*
X3123735Y33195289D01*
X3176679Y33139398D01*
X3181954Y33130630D01*
X3187484Y33124489D01*
X3231024Y33049074D01*
X3271439Y32981906D01*
X3273728Y32975109D01*
X3276313Y32970634D01*
X3305404Y32881098D01*
X3330127Y32807725D01*
X3330570Y32803645D01*
X3331209Y32801681D01*
X3343432Y32685388D01*
X3350000Y32625000D01*
X3350000Y32375000D01*
X3345017Y32283099D01*
X3335644Y32240520D01*
X3331209Y32198318D01*
X3316161Y32152005D01*
X3305505Y32103594D01*
X3288461Y32066755D01*
X3276313Y32029365D01*
X3250394Y31984472D01*
X3228329Y31936779D01*
X3205580Y31906854D01*
X3187484Y31875510D01*
X3150683Y31834637D01*
X3117096Y31790455D01*
X3090757Y31768082D01*
X3068616Y31743492D01*
X3021543Y31709292D01*
X2977009Y31671464D01*
X2949144Y31656691D01*
X2924888Y31639068D01*
X2868803Y31614097D01*
X2814617Y31585370D01*
X2787153Y31577744D01*
X2762596Y31566811D01*
X2699385Y31553375D01*
X2637515Y31536197D01*
X2612076Y31534817D01*
X2588826Y31529876D01*
X2520921Y31529876D01*
X2453982Y31526247D01*
X2431846Y31529876D01*
X2411174Y31529876D01*
X2341451Y31544695D01*
X2272601Y31555983D01*
X2254597Y31563156D01*
X2237403Y31566811D01*
X2169095Y31597223D01*
X2101853Y31624015D01*
X2088337Y31633178D01*
X2075110Y31639068D01*
X2011661Y31685166D01*
X1949722Y31727162D01*
X1940589Y31736803D01*
X1931383Y31743492D01*
X1876226Y31804750D01*
X1823321Y31860602D01*
X1818049Y31869363D01*
X1812515Y31875510D01*
X1768936Y31950990D01*
X1728561Y32018094D01*
X1726273Y32024883D01*
X1723686Y32029365D01*
X1694558Y32119011D01*
X1669873Y32192275D01*
X1669429Y32196348D01*
X1668790Y32198318D01*
X1656554Y32314736D01*
X1650000Y32375000D01*
X1650000Y32625000D01*
X1654983Y32716901D01*
X1664353Y32759473D01*
X1668790Y32801681D01*
X1683840Y32848001D01*
X1694495Y32896406D01*
X1711535Y32933239D01*
X1723686Y32970634D01*
X1749607Y33015530D01*
X1771671Y33063221D01*
X1794417Y33093143D01*
X1812515Y33124489D01*
X1849317Y33165362D01*
X1882904Y33209545D01*
X1909242Y33231917D01*
X1931383Y33256507D01*
X1978453Y33290705D01*
X2022991Y33328536D01*
X2050856Y33343309D01*
X2075111Y33360931D01*
X2131190Y33385899D01*
X2185383Y33414630D01*
X2212850Y33422256D01*
X2237403Y33433188D01*
X2300607Y33446622D01*
X2362485Y33463803D01*
X2387924Y33465182D01*
X2411174Y33470124D01*
X2479079Y33470124D01*
X2546018Y33473753D01*
X2568154Y33470124D01*
G37*
G36*
X5068154Y33470124D02*
G01*
X5088826Y33470124D01*
X5158538Y33455306D01*
X5227399Y33444017D01*
X5245408Y33436841D01*
X5262596Y33433188D01*
X5330873Y33402789D01*
X5398147Y33375985D01*
X5411669Y33366816D01*
X5424889Y33360931D01*
X5488302Y33314858D01*
X5550278Y33272838D01*
X5559415Y33263191D01*
X5568616Y33256507D01*
X5623735Y33195289D01*
X5676679Y33139398D01*
X5681954Y33130630D01*
X5687484Y33124489D01*
X5731024Y33049074D01*
X5771439Y32981906D01*
X5773728Y32975109D01*
X5776313Y32970634D01*
X5805404Y32881098D01*
X5830127Y32807725D01*
X5830570Y32803645D01*
X5831209Y32801681D01*
X5843432Y32685388D01*
X5850000Y32625000D01*
X5850000Y32375000D01*
X5845017Y32283099D01*
X5835644Y32240520D01*
X5831209Y32198318D01*
X5816161Y32152005D01*
X5805505Y32103594D01*
X5788461Y32066755D01*
X5776313Y32029365D01*
X5750394Y31984472D01*
X5728329Y31936779D01*
X5705580Y31906854D01*
X5687484Y31875510D01*
X5650683Y31834637D01*
X5617096Y31790455D01*
X5590757Y31768082D01*
X5568616Y31743492D01*
X5521543Y31709292D01*
X5477009Y31671464D01*
X5449144Y31656691D01*
X5424888Y31639068D01*
X5368803Y31614097D01*
X5314617Y31585370D01*
X5287153Y31577744D01*
X5262596Y31566811D01*
X5199385Y31553375D01*
X5137515Y31536197D01*
X5112076Y31534817D01*
X5088826Y31529876D01*
X5020921Y31529876D01*
X4953982Y31526247D01*
X4931846Y31529876D01*
X4911174Y31529876D01*
X4841451Y31544695D01*
X4772601Y31555983D01*
X4754597Y31563156D01*
X4737403Y31566811D01*
X4669095Y31597223D01*
X4601853Y31624015D01*
X4588337Y31633178D01*
X4575110Y31639068D01*
X4511661Y31685166D01*
X4449722Y31727162D01*
X4440589Y31736803D01*
X4431383Y31743492D01*
X4376226Y31804750D01*
X4323321Y31860602D01*
X4318049Y31869363D01*
X4312515Y31875510D01*
X4268936Y31950990D01*
X4228561Y32018094D01*
X4226273Y32024883D01*
X4223686Y32029365D01*
X4194558Y32119011D01*
X4169873Y32192275D01*
X4169429Y32196348D01*
X4168790Y32198318D01*
X4156554Y32314736D01*
X4150000Y32375000D01*
X4150000Y32625000D01*
X4154983Y32716901D01*
X4164353Y32759473D01*
X4168790Y32801681D01*
X4183840Y32848001D01*
X4194495Y32896406D01*
X4211535Y32933239D01*
X4223686Y32970634D01*
X4249607Y33015530D01*
X4271671Y33063221D01*
X4294417Y33093143D01*
X4312515Y33124489D01*
X4349317Y33165362D01*
X4382904Y33209545D01*
X4409242Y33231917D01*
X4431383Y33256507D01*
X4478453Y33290705D01*
X4522991Y33328536D01*
X4550856Y33343309D01*
X4575111Y33360931D01*
X4631190Y33385899D01*
X4685383Y33414630D01*
X4712850Y33422256D01*
X4737403Y33433188D01*
X4800607Y33446622D01*
X4862485Y33463803D01*
X4887924Y33465182D01*
X4911174Y33470124D01*
X4979079Y33470124D01*
X5046018Y33473753D01*
X5068154Y33470124D01*
G37*
G36*
X-7129602Y40380661D02*
G01*
X-6864708Y40323037D01*
X-6610711Y40228301D01*
X-6372782Y40098382D01*
X-6155765Y39935924D01*
X-5964076Y39744235D01*
X-5801618Y39527218D01*
X-5671699Y39289289D01*
X-5576963Y39035292D01*
X-5519339Y38770398D01*
X-5500000Y38500000D01*
X-5519339Y38229602D01*
X-5576963Y37964708D01*
X-5671699Y37710711D01*
X-5801618Y37472782D01*
X-5964076Y37255765D01*
X-6155765Y37064076D01*
X-6372782Y36901618D01*
X-6610711Y36771699D01*
X-6864708Y36676963D01*
X-7129602Y36619339D01*
X-7400000Y36600000D01*
X-7670398Y36619339D01*
X-7935292Y36676963D01*
X-8189289Y36771699D01*
X-8427218Y36901618D01*
X-8644235Y37064076D01*
X-8835924Y37255765D01*
X-8998382Y37472782D01*
X-9128301Y37710711D01*
X-9223037Y37964708D01*
X-9280661Y38229602D01*
X-9300000Y38500000D01*
X-9280661Y38770398D01*
X-9223037Y39035292D01*
X-9128301Y39289289D01*
X-8998382Y39527218D01*
X-8835924Y39744235D01*
X-8644235Y39935924D01*
X-8427218Y40098382D01*
X-8189289Y40228301D01*
X-7935292Y40323037D01*
X-7670398Y40380661D01*
X-7400000Y40400000D01*
X-7129602Y40380661D01*
G37*
G36*
X-500000Y36600000D02*
G01*
X-503939Y36600000D01*
X-4296061Y36600000D01*
X-4300000Y36600000D01*
X-4300000Y40400000D01*
X-500000Y40400000D01*
X-500000Y36600000D01*
G37*
G36*
X-13817798Y46423235D02*
G01*
X-13741381Y46423235D01*
X-13658989Y46412826D01*
X-13580500Y46407682D01*
X-13514762Y46394605D01*
X-13445477Y46385853D01*
X-13358536Y46363530D01*
X-13275805Y46347074D01*
X-13217938Y46327431D01*
X-13156612Y46311685D01*
X-13066809Y46276129D01*
X-12981627Y46247214D01*
X-12932142Y46222811D01*
X-12879305Y46201891D01*
X-12788563Y46152005D01*
X-12703000Y46109810D01*
X-12662099Y46082481D01*
X-12617956Y46058213D01*
X-12528383Y45993134D01*
X-12444692Y45937214D01*
X-12412222Y45908739D01*
X-12376666Y45882906D01*
X-12290517Y45802007D01*
X-12211121Y45732379D01*
X-12186623Y45704444D01*
X-12159257Y45678746D01*
X-12078880Y45581586D01*
X-12006286Y45498808D01*
X-11989004Y45472944D01*
X-11969149Y45448943D01*
X-11896935Y45335153D01*
X-11833690Y45240500D01*
X-11822618Y45218049D01*
X-11809340Y45197126D01*
X-11747664Y45066058D01*
X-11696286Y44961873D01*
X-11690193Y44943924D01*
X-11682353Y44927263D01*
X-11633517Y44776962D01*
X-11596426Y44667695D01*
X-11593919Y44655091D01*
X-11590191Y44643618D01*
X-11556361Y44466279D01*
X-11535818Y44363000D01*
X-11535377Y44356275D01*
X-11534306Y44350660D01*
X-11517470Y44083062D01*
X-11515500Y44053000D01*
X-11517470Y44022940D01*
X-11534306Y43755339D01*
X-11535377Y43749722D01*
X-11535818Y43743000D01*
X-11556357Y43639743D01*
X-11590191Y43462381D01*
X-11593919Y43450905D01*
X-11596426Y43438305D01*
X-11633509Y43329059D01*
X-11682353Y43178736D01*
X-11690194Y43162071D01*
X-11696286Y43144127D01*
X-11747654Y43039962D01*
X-11809340Y42908873D01*
X-11822621Y42887945D01*
X-11833690Y42865500D01*
X-11896923Y42770864D01*
X-11969149Y42657056D01*
X-11989007Y42633050D01*
X-12006286Y42607192D01*
X-12078865Y42524430D01*
X-12159257Y42427253D01*
X-12186628Y42401549D01*
X-12211121Y42373621D01*
X-12290501Y42304006D01*
X-12376666Y42223093D01*
X-12412229Y42197254D01*
X-12444692Y42168786D01*
X-12528365Y42112876D01*
X-12617956Y42047786D01*
X-12662107Y42023513D01*
X-12703000Y41996190D01*
X-12788545Y41954003D01*
X-12879305Y41904108D01*
X-12932153Y41883183D01*
X-12981627Y41858786D01*
X-13066792Y41829876D01*
X-13156612Y41794314D01*
X-13217950Y41778564D01*
X-13275805Y41758926D01*
X-13358518Y41742473D01*
X-13445477Y41720146D01*
X-13514773Y41711391D01*
X-13580500Y41698318D01*
X-13658984Y41693173D01*
X-13741381Y41682765D01*
X-13817798Y41682765D01*
X-13890500Y41678000D01*
X-13963202Y41682765D01*
X-14039619Y41682765D01*
X-14122014Y41693173D01*
X-14200500Y41698318D01*
X-14266227Y41711392D01*
X-14335522Y41720146D01*
X-14422476Y41742472D01*
X-14505195Y41758926D01*
X-14563052Y41778565D01*
X-14624387Y41794314D01*
X-14714200Y41829873D01*
X-14799373Y41858786D01*
X-14848850Y41883185D01*
X-14901694Y41904108D01*
X-14992444Y41953998D01*
X-15078000Y41996190D01*
X-15118896Y42023516D01*
X-15163043Y42047786D01*
X-15252621Y42112868D01*
X-15336308Y42168786D01*
X-15368775Y42197258D01*
X-15404333Y42223093D01*
X-15490483Y42303993D01*
X-15569879Y42373621D01*
X-15594376Y42401554D01*
X-15621742Y42427253D01*
X-15702116Y42524410D01*
X-15774714Y42607192D01*
X-15791996Y42633056D01*
X-15811850Y42657056D01*
X-15884056Y42770835D01*
X-15947310Y42865500D01*
X-15958382Y42887952D01*
X-15971659Y42908873D01*
X-16033323Y43039917D01*
X-16084714Y43144127D01*
X-16090807Y43162079D01*
X-16098646Y43178736D01*
X-16147466Y43328991D01*
X-16184574Y43438305D01*
X-16187082Y43450913D01*
X-16190808Y43462381D01*
X-16224618Y43639620D01*
X-16245182Y43743000D01*
X-16245623Y43749730D01*
X-16246693Y43755339D01*
X-16263527Y44022901D01*
X-16265500Y44053000D01*
X-16263527Y44083100D01*
X-16246693Y44350660D01*
X-16245623Y44356267D01*
X-16245182Y44363000D01*
X-16224613Y44466402D01*
X-16190808Y44643618D01*
X-16187082Y44655083D01*
X-16184574Y44667695D01*
X-16147459Y44777031D01*
X-16098646Y44927263D01*
X-16090809Y44943917D01*
X-16084714Y44961873D01*
X-16033313Y45066103D01*
X-15971659Y45197126D01*
X-15958384Y45218042D01*
X-15947310Y45240500D01*
X-15884044Y45335183D01*
X-15811850Y45448943D01*
X-15791999Y45472937D01*
X-15774714Y45498808D01*
X-15702102Y45581606D01*
X-15621742Y45678746D01*
X-15594381Y45704439D01*
X-15569879Y45732379D01*
X-15490467Y45802020D01*
X-15404333Y45882906D01*
X-15368781Y45908735D01*
X-15336308Y45937214D01*
X-15252604Y45993142D01*
X-15163043Y46058213D01*
X-15118905Y46082477D01*
X-15078000Y46109810D01*
X-14992427Y46152010D01*
X-14901694Y46201891D01*
X-14848861Y46222809D01*
X-14799373Y46247214D01*
X-14714183Y46276132D01*
X-14624387Y46311685D01*
X-14563064Y46327429D01*
X-14505195Y46347074D01*
X-14422459Y46363531D01*
X-14335522Y46385853D01*
X-14266238Y46394605D01*
X-14200500Y46407682D01*
X-14122009Y46412826D01*
X-14039619Y46423235D01*
X-13963202Y46423235D01*
X-13890500Y46428000D01*
X-13817798Y46423235D01*
G37*
G36*
X13963202Y46423235D02*
G01*
X14039619Y46423235D01*
X14122009Y46412826D01*
X14200500Y46407682D01*
X14266238Y46394605D01*
X14335522Y46385853D01*
X14422459Y46363531D01*
X14505195Y46347074D01*
X14563064Y46327429D01*
X14624387Y46311685D01*
X14714183Y46276132D01*
X14799373Y46247214D01*
X14848861Y46222809D01*
X14901694Y46201891D01*
X14992427Y46152010D01*
X15078000Y46109810D01*
X15118905Y46082477D01*
X15163043Y46058213D01*
X15252604Y45993142D01*
X15336308Y45937214D01*
X15368781Y45908735D01*
X15404333Y45882906D01*
X15490467Y45802020D01*
X15569879Y45732379D01*
X15594381Y45704439D01*
X15621742Y45678746D01*
X15702102Y45581606D01*
X15774714Y45498808D01*
X15791999Y45472937D01*
X15811850Y45448943D01*
X15884044Y45335183D01*
X15947310Y45240500D01*
X15958384Y45218042D01*
X15971659Y45197126D01*
X16033313Y45066103D01*
X16084714Y44961873D01*
X16090809Y44943917D01*
X16098646Y44927263D01*
X16147459Y44777031D01*
X16184574Y44667695D01*
X16187082Y44655083D01*
X16190808Y44643618D01*
X16224613Y44466402D01*
X16245182Y44363000D01*
X16245623Y44356267D01*
X16246693Y44350660D01*
X16263527Y44083100D01*
X16265500Y44053000D01*
X16263527Y44022901D01*
X16246693Y43755339D01*
X16245623Y43749730D01*
X16245182Y43743000D01*
X16224618Y43639620D01*
X16190808Y43462381D01*
X16187082Y43450913D01*
X16184574Y43438305D01*
X16147466Y43328991D01*
X16098646Y43178736D01*
X16090807Y43162079D01*
X16084714Y43144127D01*
X16033323Y43039917D01*
X15971659Y42908873D01*
X15958382Y42887952D01*
X15947310Y42865500D01*
X15884056Y42770835D01*
X15811850Y42657056D01*
X15791996Y42633056D01*
X15774714Y42607192D01*
X15702116Y42524410D01*
X15621742Y42427253D01*
X15594376Y42401554D01*
X15569879Y42373621D01*
X15490483Y42303993D01*
X15404333Y42223093D01*
X15368775Y42197258D01*
X15336308Y42168786D01*
X15252621Y42112868D01*
X15163043Y42047786D01*
X15118896Y42023516D01*
X15078000Y41996190D01*
X14992444Y41953998D01*
X14901694Y41904108D01*
X14848850Y41883185D01*
X14799373Y41858786D01*
X14714200Y41829873D01*
X14624387Y41794314D01*
X14563052Y41778565D01*
X14505195Y41758926D01*
X14422476Y41742472D01*
X14335522Y41720146D01*
X14266227Y41711392D01*
X14200500Y41698318D01*
X14122014Y41693173D01*
X14039619Y41682765D01*
X13963202Y41682765D01*
X13890500Y41678000D01*
X13817798Y41682765D01*
X13741381Y41682765D01*
X13658984Y41693173D01*
X13580500Y41698318D01*
X13514773Y41711391D01*
X13445477Y41720146D01*
X13358518Y41742473D01*
X13275805Y41758926D01*
X13217950Y41778564D01*
X13156612Y41794314D01*
X13066792Y41829876D01*
X12981627Y41858786D01*
X12932153Y41883183D01*
X12879305Y41904108D01*
X12788545Y41954003D01*
X12703000Y41996190D01*
X12662107Y42023513D01*
X12617956Y42047786D01*
X12528365Y42112876D01*
X12444692Y42168786D01*
X12412229Y42197254D01*
X12376666Y42223093D01*
X12290501Y42304006D01*
X12211121Y42373621D01*
X12186628Y42401549D01*
X12159257Y42427253D01*
X12078865Y42524430D01*
X12006286Y42607192D01*
X11989007Y42633050D01*
X11969149Y42657056D01*
X11896923Y42770864D01*
X11833690Y42865500D01*
X11822621Y42887945D01*
X11809340Y42908873D01*
X11747654Y43039962D01*
X11696286Y43144127D01*
X11690194Y43162071D01*
X11682353Y43178736D01*
X11633509Y43329059D01*
X11596426Y43438305D01*
X11593919Y43450905D01*
X11590191Y43462381D01*
X11556357Y43639743D01*
X11535818Y43743000D01*
X11535377Y43749722D01*
X11534306Y43755339D01*
X11517470Y44022940D01*
X11515500Y44053000D01*
X11517470Y44083062D01*
X11534306Y44350660D01*
X11535377Y44356275D01*
X11535818Y44363000D01*
X11556361Y44466279D01*
X11590191Y44643618D01*
X11593919Y44655091D01*
X11596426Y44667695D01*
X11633517Y44776962D01*
X11682353Y44927263D01*
X11690193Y44943924D01*
X11696286Y44961873D01*
X11747664Y45066058D01*
X11809340Y45197126D01*
X11822618Y45218049D01*
X11833690Y45240500D01*
X11896935Y45335153D01*
X11969149Y45448943D01*
X11989004Y45472944D01*
X12006286Y45498808D01*
X12078880Y45581586D01*
X12159257Y45678746D01*
X12186623Y45704444D01*
X12211121Y45732379D01*
X12290517Y45802007D01*
X12376666Y45882906D01*
X12412222Y45908739D01*
X12444692Y45937214D01*
X12528383Y45993134D01*
X12617956Y46058213D01*
X12662099Y46082481D01*
X12703000Y46109810D01*
X12788563Y46152005D01*
X12879305Y46201891D01*
X12932142Y46222811D01*
X12981627Y46247214D01*
X13066809Y46276129D01*
X13156612Y46311685D01*
X13217938Y46327431D01*
X13275805Y46347074D01*
X13358536Y46363530D01*
X13445477Y46385853D01*
X13514762Y46394605D01*
X13580500Y46407682D01*
X13658989Y46412826D01*
X13741381Y46423235D01*
X13817798Y46423235D01*
X13890500Y46428000D01*
X13963202Y46423235D01*
G37*
M02*
