%TF.GenerationSoftware,KiCad,Pcbnew,7.0.6*%
%TF.CreationDate,2024-05-08T12:01:16-04:00*%
%TF.ProjectId,ActiveImpactor_Power,41637469-7665-4496-9d70-6163746f725f,rev?*%
%TF.SameCoordinates,Original*%
%TF.FileFunction,Copper,L1,Top*%
%TF.FilePolarity,Positive*%
%FSLAX46Y46*%
G04 Gerber Fmt 4.6, Leading zero omitted, Abs format (unit mm)*
G04 Created by KiCad (PCBNEW 7.0.6) date 2024-05-08 12:01:16*
%MOMM*%
%LPD*%
G01*
G04 APERTURE LIST*
G04 Aperture macros list*
%AMRoundRect*
0 Rectangle with rounded corners*
0 $1 Rounding radius*
0 $2 $3 $4 $5 $6 $7 $8 $9 X,Y pos of 4 corners*
0 Add a 4 corners polygon primitive as box body*
4,1,4,$2,$3,$4,$5,$6,$7,$8,$9,$2,$3,0*
0 Add four circle primitives for the rounded corners*
1,1,$1+$1,$2,$3*
1,1,$1+$1,$4,$5*
1,1,$1+$1,$6,$7*
1,1,$1+$1,$8,$9*
0 Add four rect primitives between the rounded corners*
20,1,$1+$1,$2,$3,$4,$5,0*
20,1,$1+$1,$4,$5,$6,$7,0*
20,1,$1+$1,$6,$7,$8,$9,0*
20,1,$1+$1,$8,$9,$2,$3,0*%
%AMFreePoly0*
4,1,19,0.500000,-0.750000,0.000000,-0.750000,0.000000,-0.744911,-0.071157,-0.744911,-0.207708,-0.704816,-0.327430,-0.627875,-0.420627,-0.520320,-0.479746,-0.390866,-0.500000,-0.250000,-0.500000,0.250000,-0.479746,0.390866,-0.420627,0.520320,-0.327430,0.627875,-0.207708,0.704816,-0.071157,0.744911,0.000000,0.744911,0.000000,0.750000,0.500000,0.750000,0.500000,-0.750000,0.500000,-0.750000,
$1*%
%AMFreePoly1*
4,1,19,0.000000,0.744911,0.071157,0.744911,0.207708,0.704816,0.327430,0.627875,0.420627,0.520320,0.479746,0.390866,0.500000,0.250000,0.500000,-0.250000,0.479746,-0.390866,0.420627,-0.520320,0.327430,-0.627875,0.207708,-0.704816,0.071157,-0.744911,0.000000,-0.744911,0.000000,-0.750000,-0.500000,-0.750000,-0.500000,0.750000,0.000000,0.750000,0.000000,0.744911,0.000000,0.744911,
$1*%
G04 Aperture macros list end*
%TA.AperFunction,SMDPad,CuDef*%
%ADD10RoundRect,0.250000X0.250000X1.500000X-0.250000X1.500000X-0.250000X-1.500000X0.250000X-1.500000X0*%
%TD*%
%TA.AperFunction,SMDPad,CuDef*%
%ADD11RoundRect,0.250001X0.499999X1.449999X-0.499999X1.449999X-0.499999X-1.449999X0.499999X-1.449999X0*%
%TD*%
%TA.AperFunction,SMDPad,CuDef*%
%ADD12RoundRect,0.250000X1.000000X0.650000X-1.000000X0.650000X-1.000000X-0.650000X1.000000X-0.650000X0*%
%TD*%
%TA.AperFunction,SMDPad,CuDef*%
%ADD13RoundRect,0.250000X0.550000X-1.500000X0.550000X1.500000X-0.550000X1.500000X-0.550000X-1.500000X0*%
%TD*%
%TA.AperFunction,SMDPad,CuDef*%
%ADD14RoundRect,0.225000X-0.225000X-0.250000X0.225000X-0.250000X0.225000X0.250000X-0.225000X0.250000X0*%
%TD*%
%TA.AperFunction,SMDPad,CuDef*%
%ADD15R,3.500000X2.350000*%
%TD*%
%TA.AperFunction,SMDPad,CuDef*%
%ADD16RoundRect,0.150000X0.200000X-0.150000X0.200000X0.150000X-0.200000X0.150000X-0.200000X-0.150000X0*%
%TD*%
%TA.AperFunction,SMDPad,CuDef*%
%ADD17RoundRect,0.150000X0.150000X0.625000X-0.150000X0.625000X-0.150000X-0.625000X0.150000X-0.625000X0*%
%TD*%
%TA.AperFunction,SMDPad,CuDef*%
%ADD18RoundRect,0.250000X0.350000X0.650000X-0.350000X0.650000X-0.350000X-0.650000X0.350000X-0.650000X0*%
%TD*%
%TA.AperFunction,SMDPad,CuDef*%
%ADD19RoundRect,0.135000X-0.135000X-0.185000X0.135000X-0.185000X0.135000X0.185000X-0.135000X0.185000X0*%
%TD*%
%TA.AperFunction,SMDPad,CuDef*%
%ADD20RoundRect,0.218750X-0.218750X-0.256250X0.218750X-0.256250X0.218750X0.256250X-0.218750X0.256250X0*%
%TD*%
%TA.AperFunction,SMDPad,CuDef*%
%ADD21RoundRect,0.250000X-0.250000X-1.500000X0.250000X-1.500000X0.250000X1.500000X-0.250000X1.500000X0*%
%TD*%
%TA.AperFunction,SMDPad,CuDef*%
%ADD22RoundRect,0.250001X-0.499999X-1.449999X0.499999X-1.449999X0.499999X1.449999X-0.499999X1.449999X0*%
%TD*%
%TA.AperFunction,SMDPad,CuDef*%
%ADD23RoundRect,0.135000X0.135000X0.185000X-0.135000X0.185000X-0.135000X-0.185000X0.135000X-0.185000X0*%
%TD*%
%TA.AperFunction,SMDPad,CuDef*%
%ADD24FreePoly0,90.000000*%
%TD*%
%TA.AperFunction,SMDPad,CuDef*%
%ADD25FreePoly1,90.000000*%
%TD*%
%TA.AperFunction,SMDPad,CuDef*%
%ADD26RoundRect,0.140000X0.170000X-0.140000X0.170000X0.140000X-0.170000X0.140000X-0.170000X-0.140000X0*%
%TD*%
%TA.AperFunction,SMDPad,CuDef*%
%ADD27RoundRect,0.200000X0.200000X0.800000X-0.200000X0.800000X-0.200000X-0.800000X0.200000X-0.800000X0*%
%TD*%
%TA.AperFunction,SMDPad,CuDef*%
%ADD28RoundRect,0.075000X-0.700000X-0.075000X0.700000X-0.075000X0.700000X0.075000X-0.700000X0.075000X0*%
%TD*%
%TA.AperFunction,SMDPad,CuDef*%
%ADD29RoundRect,0.075000X-0.075000X-0.700000X0.075000X-0.700000X0.075000X0.700000X-0.075000X0.700000X0*%
%TD*%
%TA.AperFunction,SMDPad,CuDef*%
%ADD30RoundRect,0.200000X-0.200000X-0.275000X0.200000X-0.275000X0.200000X0.275000X-0.200000X0.275000X0*%
%TD*%
%TA.AperFunction,SMDPad,CuDef*%
%ADD31RoundRect,0.250000X-0.362500X-1.425000X0.362500X-1.425000X0.362500X1.425000X-0.362500X1.425000X0*%
%TD*%
%TA.AperFunction,ComponentPad*%
%ADD32R,2.775000X2.775000*%
%TD*%
%TA.AperFunction,ComponentPad*%
%ADD33C,2.775000*%
%TD*%
%TA.AperFunction,SMDPad,CuDef*%
%ADD34R,0.610000X1.270000*%
%TD*%
%TA.AperFunction,SMDPad,CuDef*%
%ADD35R,3.910000X3.810000*%
%TD*%
%TA.AperFunction,SMDPad,CuDef*%
%ADD36R,0.610000X1.020000*%
%TD*%
%TA.AperFunction,SMDPad,CuDef*%
%ADD37RoundRect,0.250000X-0.650000X0.325000X-0.650000X-0.325000X0.650000X-0.325000X0.650000X0.325000X0*%
%TD*%
%TA.AperFunction,SMDPad,CuDef*%
%ADD38RoundRect,0.140000X0.140000X0.170000X-0.140000X0.170000X-0.140000X-0.170000X0.140000X-0.170000X0*%
%TD*%
%TA.AperFunction,SMDPad,CuDef*%
%ADD39RoundRect,0.200000X0.200000X0.275000X-0.200000X0.275000X-0.200000X-0.275000X0.200000X-0.275000X0*%
%TD*%
%TA.AperFunction,SMDPad,CuDef*%
%ADD40RoundRect,0.250000X0.325000X0.650000X-0.325000X0.650000X-0.325000X-0.650000X0.325000X-0.650000X0*%
%TD*%
%TA.AperFunction,SMDPad,CuDef*%
%ADD41RoundRect,0.225000X0.250000X-0.225000X0.250000X0.225000X-0.250000X0.225000X-0.250000X-0.225000X0*%
%TD*%
%TA.AperFunction,ConnectorPad*%
%ADD42C,0.787400*%
%TD*%
%TA.AperFunction,SMDPad,CuDef*%
%ADD43R,1.400000X1.200000*%
%TD*%
%TA.AperFunction,SMDPad,CuDef*%
%ADD44RoundRect,0.150000X-0.150000X0.512500X-0.150000X-0.512500X0.150000X-0.512500X0.150000X0.512500X0*%
%TD*%
%TA.AperFunction,SMDPad,CuDef*%
%ADD45RoundRect,0.150000X0.150000X0.200000X-0.150000X0.200000X-0.150000X-0.200000X0.150000X-0.200000X0*%
%TD*%
%TA.AperFunction,ComponentPad*%
%ADD46C,4.750000*%
%TD*%
%TA.AperFunction,SMDPad,CuDef*%
%ADD47RoundRect,0.250000X-0.850000X-0.350000X0.850000X-0.350000X0.850000X0.350000X-0.850000X0.350000X0*%
%TD*%
%TA.AperFunction,SMDPad,CuDef*%
%ADD48RoundRect,0.250000X-1.275000X-1.125000X1.275000X-1.125000X1.275000X1.125000X-1.275000X1.125000X0*%
%TD*%
%TA.AperFunction,SMDPad,CuDef*%
%ADD49RoundRect,0.249997X-2.950003X-2.650003X2.950003X-2.650003X2.950003X2.650003X-2.950003X2.650003X0*%
%TD*%
%TA.AperFunction,SMDPad,CuDef*%
%ADD50RoundRect,0.218750X0.218750X0.256250X-0.218750X0.256250X-0.218750X-0.256250X0.218750X-0.256250X0*%
%TD*%
%TA.AperFunction,SMDPad,CuDef*%
%ADD51RoundRect,0.147500X-0.172500X0.147500X-0.172500X-0.147500X0.172500X-0.147500X0.172500X0.147500X0*%
%TD*%
%TA.AperFunction,SMDPad,CuDef*%
%ADD52R,1.550000X0.600000*%
%TD*%
%TA.AperFunction,ComponentPad*%
%ADD53C,0.600000*%
%TD*%
%TA.AperFunction,SMDPad,CuDef*%
%ADD54R,2.600000X3.100000*%
%TD*%
%TA.AperFunction,SMDPad,CuDef*%
%ADD55R,2.950000X4.500000*%
%TD*%
%TA.AperFunction,SMDPad,CuDef*%
%ADD56RoundRect,0.225000X0.225000X0.250000X-0.225000X0.250000X-0.225000X-0.250000X0.225000X-0.250000X0*%
%TD*%
%TA.AperFunction,SMDPad,CuDef*%
%ADD57RoundRect,0.140000X-0.170000X0.140000X-0.170000X-0.140000X0.170000X-0.140000X0.170000X0.140000X0*%
%TD*%
%TA.AperFunction,SMDPad,CuDef*%
%ADD58RoundRect,0.100000X0.100000X-0.637500X0.100000X0.637500X-0.100000X0.637500X-0.100000X-0.637500X0*%
%TD*%
%TA.AperFunction,SMDPad,CuDef*%
%ADD59RoundRect,0.135000X-0.185000X0.135000X-0.185000X-0.135000X0.185000X-0.135000X0.185000X0.135000X0*%
%TD*%
%TA.AperFunction,SMDPad,CuDef*%
%ADD60RoundRect,0.135000X0.185000X-0.135000X0.185000X0.135000X-0.185000X0.135000X-0.185000X-0.135000X0*%
%TD*%
%TA.AperFunction,SMDPad,CuDef*%
%ADD61RoundRect,0.225000X-0.250000X0.225000X-0.250000X-0.225000X0.250000X-0.225000X0.250000X0.225000X0*%
%TD*%
%TA.AperFunction,SMDPad,CuDef*%
%ADD62RoundRect,0.218750X-0.256250X0.218750X-0.256250X-0.218750X0.256250X-0.218750X0.256250X0.218750X0*%
%TD*%
%TA.AperFunction,SMDPad,CuDef*%
%ADD63RoundRect,0.250000X-0.787500X-1.025000X0.787500X-1.025000X0.787500X1.025000X-0.787500X1.025000X0*%
%TD*%
%TA.AperFunction,SMDPad,CuDef*%
%ADD64RoundRect,0.140000X-0.140000X-0.170000X0.140000X-0.170000X0.140000X0.170000X-0.140000X0.170000X0*%
%TD*%
%TA.AperFunction,SMDPad,CuDef*%
%ADD65RoundRect,0.075000X-0.075000X0.650000X-0.075000X-0.650000X0.075000X-0.650000X0.075000X0.650000X0*%
%TD*%
%TA.AperFunction,ComponentPad*%
%ADD66R,3.800000X3.800000*%
%TD*%
%TA.AperFunction,ComponentPad*%
%ADD67C,3.800000*%
%TD*%
%TA.AperFunction,ComponentPad*%
%ADD68RoundRect,0.250000X0.600000X0.725000X-0.600000X0.725000X-0.600000X-0.725000X0.600000X-0.725000X0*%
%TD*%
%TA.AperFunction,ComponentPad*%
%ADD69O,1.700000X1.950000*%
%TD*%
%TA.AperFunction,ViaPad*%
%ADD70C,0.700000*%
%TD*%
%TA.AperFunction,ViaPad*%
%ADD71C,0.900000*%
%TD*%
%TA.AperFunction,ViaPad*%
%ADD72C,0.650000*%
%TD*%
%TA.AperFunction,Conductor*%
%ADD73C,0.500000*%
%TD*%
%TA.AperFunction,Conductor*%
%ADD74C,0.600000*%
%TD*%
%TA.AperFunction,Conductor*%
%ADD75C,1.000000*%
%TD*%
%TA.AperFunction,Conductor*%
%ADD76C,0.250000*%
%TD*%
%TA.AperFunction,Conductor*%
%ADD77C,0.300000*%
%TD*%
%TA.AperFunction,Conductor*%
%ADD78C,0.200000*%
%TD*%
G04 APERTURE END LIST*
D10*
%TO.P,J105,1,Pin_1*%
%TO.N,GND*%
X6400000Y38900000D03*
%TO.P,J105,2,Pin_2*%
%TO.N,Net-(J105-Pin_2)*%
X4400000Y38900000D03*
D11*
%TO.P,J105,MP*%
%TO.N,N/C*%
X8750000Y44650000D03*
X2050000Y44650000D03*
%TD*%
D12*
%TO.P,D101,1,K*%
%TO.N,Net-(D101-K)*%
X1600000Y11400000D03*
%TO.P,D101,2,A*%
%TO.N,GND*%
X-2400000Y11400000D03*
%TD*%
D13*
%TO.P,C101,1*%
%TO.N,+BATT*%
X8300000Y22200000D03*
%TO.P,C101,2*%
%TO.N,GND*%
X8300000Y27600000D03*
%TD*%
D14*
%TO.P,C303,1*%
%TO.N,+12V*%
X8125000Y11800000D03*
%TO.P,C303,2*%
%TO.N,GND*%
X9675000Y11800000D03*
%TD*%
D15*
%TO.P,L101,1,1*%
%TO.N,Net-(D101-K)*%
X-9000000Y10125000D03*
%TO.P,L101,2,2*%
%TO.N,+5V*%
X-9000000Y4075000D03*
%TD*%
D16*
%TO.P,D302,1,K*%
%TO.N,Net-(D302-K)*%
X-11600000Y-34300000D03*
%TO.P,D302,2,A*%
%TO.N,Net-(D302-A)*%
X-11600000Y-35700000D03*
%TD*%
D17*
%TO.P,J104,1,Pin_1*%
%TO.N,Net-(J102-Pin_1)*%
X-1600000Y41600000D03*
%TO.P,J104,2,Pin_2*%
%TO.N,Net-(J102-Pin_2)*%
X-2600000Y41600000D03*
%TO.P,J104,3,Pin_3*%
%TO.N,Net-(J102-Pin_3)*%
X-3600000Y41600000D03*
%TO.P,J104,4,Pin_4*%
%TO.N,Net-(J102-Pin_4)*%
X-4600000Y41600000D03*
%TO.P,J104,5,Pin_5*%
%TO.N,Net-(J102-Pin_5)*%
X-5600000Y41600000D03*
%TO.P,J104,6,Pin_6*%
%TO.N,Net-(J102-Pin_6)*%
X-6600000Y41600000D03*
%TO.P,J104,7,Pin_7*%
%TO.N,Net-(J102-Pin_7)*%
X-7600000Y41600000D03*
D18*
%TO.P,J104,MP*%
%TO.N,N/C*%
X-300000Y45475000D03*
X-8900000Y45475000D03*
%TD*%
D19*
%TO.P,R201,1*%
%TO.N,Net-(D201-K)*%
X7790000Y-1600000D03*
%TO.P,R201,2*%
%TO.N,GND*%
X8810000Y-1600000D03*
%TD*%
D20*
%TO.P,D102,1,K*%
%TO.N,GND*%
X-12587500Y-1400000D03*
%TO.P,D102,2,A*%
%TO.N,Net-(D102-A)*%
X-11012500Y-1400000D03*
%TD*%
D21*
%TO.P,J301,1,Pin_1*%
%TO.N,Net-(J301-Pin_1)*%
X-1000000Y-38900000D03*
%TO.P,J301,2,Pin_2*%
%TO.N,/H-Bridge/BRIDGE2*%
X1000000Y-38900000D03*
D22*
%TO.P,J301,MP*%
%TO.N,N/C*%
X-3350000Y-44650000D03*
X3350000Y-44650000D03*
%TD*%
D19*
%TO.P,R101,1*%
%TO.N,+3.3V*%
X3890000Y-18100000D03*
%TO.P,R101,2*%
%TO.N,/Microcontroller/CS*%
X4910000Y-18100000D03*
%TD*%
D23*
%TO.P,R205,1*%
%TO.N,/Microcontroller/SWD_SWCLK*%
X-9190000Y-20500000D03*
%TO.P,R205,2*%
%TO.N,Net-(J201-SWCLK)*%
X-10210000Y-20500000D03*
%TD*%
D24*
%TO.P,JP201,1,A*%
%TO.N,/Microcontroller/BOOT0*%
X-13800000Y-16750000D03*
D25*
%TO.P,JP201,2,B*%
%TO.N,+3.3V*%
X-13800000Y-15450000D03*
%TD*%
D26*
%TO.P,C209,1*%
%TO.N,+3.3VA*%
X-11000000Y-15880000D03*
%TO.P,C209,2*%
%TO.N,GND*%
X-11000000Y-14920000D03*
%TD*%
D23*
%TO.P,R102,1*%
%TO.N,Net-(J106-Pin_3)*%
X5810000Y-14400000D03*
%TO.P,R102,2*%
%TO.N,/Microcontroller/INT2*%
X4790000Y-14400000D03*
%TD*%
%TO.P,R204,1*%
%TO.N,/Microcontroller/HSE_OUT*%
X-11490000Y-13450000D03*
%TO.P,R204,2*%
%TO.N,Net-(C213-Pad1)*%
X-12510000Y-13450000D03*
%TD*%
D27*
%TO.P,SW201,1,1*%
%TO.N,/Microcontroller/BUTTON*%
X8600000Y-4100000D03*
%TO.P,SW201,2,2*%
%TO.N,+3.3V*%
X4400000Y-4100000D03*
%TD*%
D28*
%TO.P,U201,1,VBAT*%
%TO.N,+3.3V*%
X-8475000Y-9650000D03*
%TO.P,U201,2,PC13*%
%TO.N,unconnected-(U201-PC13-Pad2)*%
X-8475000Y-10150000D03*
%TO.P,U201,3,PC14*%
%TO.N,unconnected-(U201-PC14-Pad3)*%
X-8475000Y-10650000D03*
%TO.P,U201,4,PC15*%
%TO.N,unconnected-(U201-PC15-Pad4)*%
X-8475000Y-11150000D03*
%TO.P,U201,5,PH0*%
%TO.N,/Microcontroller/HSE_IN*%
X-8475000Y-11650000D03*
%TO.P,U201,6,PH1*%
%TO.N,/Microcontroller/HSE_OUT*%
X-8475000Y-12150000D03*
%TO.P,U201,7,NRST*%
%TO.N,/Microcontroller/SWD_NRST*%
X-8475000Y-12650000D03*
%TO.P,U201,8,PC0*%
%TO.N,unconnected-(U201-PC0-Pad8)*%
X-8475000Y-13150000D03*
%TO.P,U201,9,PC1*%
%TO.N,unconnected-(U201-PC1-Pad9)*%
X-8475000Y-13650000D03*
%TO.P,U201,10,PC2*%
%TO.N,unconnected-(U201-PC2-Pad10)*%
X-8475000Y-14150000D03*
%TO.P,U201,11,PC3*%
%TO.N,unconnected-(U201-PC3-Pad11)*%
X-8475000Y-14650000D03*
%TO.P,U201,12,VSSA*%
%TO.N,GND*%
X-8475000Y-15150000D03*
%TO.P,U201,13,VDDA*%
%TO.N,+3.3VA*%
X-8475000Y-15650000D03*
%TO.P,U201,14,PA0*%
%TO.N,unconnected-(U201-PA0-Pad14)*%
X-8475000Y-16150000D03*
%TO.P,U201,15,PA1*%
%TO.N,unconnected-(U201-PA1-Pad15)*%
X-8475000Y-16650000D03*
%TO.P,U201,16,PA2*%
%TO.N,unconnected-(U201-PA2-Pad16)*%
X-8475000Y-17150000D03*
D29*
%TO.P,U201,17,PA3*%
%TO.N,unconnected-(U201-PA3-Pad17)*%
X-6550000Y-19075000D03*
%TO.P,U201,18,VSS*%
%TO.N,GND*%
X-6050000Y-19075000D03*
%TO.P,U201,19,VDD*%
%TO.N,+3.3V*%
X-5550000Y-19075000D03*
%TO.P,U201,20,PA4*%
%TO.N,unconnected-(U201-PA4-Pad20)*%
X-5050000Y-19075000D03*
%TO.P,U201,21,PA5*%
%TO.N,unconnected-(U201-PA5-Pad21)*%
X-4550000Y-19075000D03*
%TO.P,U201,22,PA6*%
%TO.N,unconnected-(U201-PA6-Pad22)*%
X-4050000Y-19075000D03*
%TO.P,U201,23,PA7*%
%TO.N,/H-Bridge/COIL_PWM1*%
X-3550000Y-19075000D03*
%TO.P,U201,24,PC4*%
%TO.N,/H-Bridge/COIL_EN*%
X-3050000Y-19075000D03*
%TO.P,U201,25,PC5*%
%TO.N,unconnected-(U201-PC5-Pad25)*%
X-2550000Y-19075000D03*
%TO.P,U201,26,PB0*%
%TO.N,/Microcontroller/ADC_VBAT*%
X-2050000Y-19075000D03*
%TO.P,U201,27,PB1*%
%TO.N,/Microcontroller/ADC_CURRENT*%
X-1550000Y-19075000D03*
%TO.P,U201,28,PB2*%
%TO.N,unconnected-(U201-PB2-Pad28)*%
X-1050000Y-19075000D03*
%TO.P,U201,29,PB10*%
%TO.N,unconnected-(U201-PB10-Pad29)*%
X-550000Y-19075000D03*
%TO.P,U201,30,PB11*%
%TO.N,unconnected-(U201-PB11-Pad30)*%
X-50000Y-19075000D03*
%TO.P,U201,31,VCAP_1*%
%TO.N,Net-(U201-VCAP_1)*%
X450000Y-19075000D03*
%TO.P,U201,32,VDD*%
%TO.N,+3.3V*%
X950000Y-19075000D03*
D28*
%TO.P,U201,33,PB12*%
%TO.N,/Microcontroller/CS*%
X2875000Y-17150000D03*
%TO.P,U201,34,PB13*%
%TO.N,/Microcontroller/CLK*%
X2875000Y-16650000D03*
%TO.P,U201,35,PB14*%
%TO.N,/Microcontroller/MISO*%
X2875000Y-16150000D03*
%TO.P,U201,36,PB15*%
%TO.N,/Microcontroller/MOSI*%
X2875000Y-15650000D03*
%TO.P,U201,37,PC6*%
%TO.N,/Microcontroller/INT1*%
X2875000Y-15150000D03*
%TO.P,U201,38,PC7*%
%TO.N,/Microcontroller/INT2*%
X2875000Y-14650000D03*
%TO.P,U201,39,PC8*%
%TO.N,unconnected-(U201-PC8-Pad39)*%
X2875000Y-14150000D03*
%TO.P,U201,40,PC9*%
%TO.N,unconnected-(U201-PC9-Pad40)*%
X2875000Y-13650000D03*
%TO.P,U201,41,PA8*%
%TO.N,/H-Bridge/COIL_PWM2*%
X2875000Y-13150000D03*
%TO.P,U201,42,PA9*%
%TO.N,unconnected-(U201-PA9-Pad42)*%
X2875000Y-12650000D03*
%TO.P,U201,43,PA10*%
%TO.N,unconnected-(U201-PA10-Pad43)*%
X2875000Y-12150000D03*
%TO.P,U201,44,PA11*%
%TO.N,unconnected-(U201-PA11-Pad44)*%
X2875000Y-11650000D03*
%TO.P,U201,45,PA12*%
%TO.N,unconnected-(U201-PA12-Pad45)*%
X2875000Y-11150000D03*
%TO.P,U201,46,PA13*%
%TO.N,/Microcontroller/SWD_SWDIO*%
X2875000Y-10650000D03*
%TO.P,U201,47,VCAP_2*%
%TO.N,Net-(U201-VCAP_2)*%
X2875000Y-10150000D03*
%TO.P,U201,48,VDD*%
%TO.N,+3.3V*%
X2875000Y-9650000D03*
D29*
%TO.P,U201,49,PA14*%
%TO.N,/Microcontroller/SWD_SWCLK*%
X950000Y-7725000D03*
%TO.P,U201,50,PA15*%
%TO.N,/Microcontroller/BUTTON*%
X450000Y-7725000D03*
%TO.P,U201,51,PC10*%
%TO.N,/Microcontroller/LED_STATUS*%
X-50000Y-7725000D03*
%TO.P,U201,52,PC11*%
%TO.N,unconnected-(U201-PC11-Pad52)*%
X-550000Y-7725000D03*
%TO.P,U201,53,PC12*%
%TO.N,unconnected-(U201-PC12-Pad53)*%
X-1050000Y-7725000D03*
%TO.P,U201,54,PD2*%
%TO.N,unconnected-(U201-PD2-Pad54)*%
X-1550000Y-7725000D03*
%TO.P,U201,55,PB3*%
%TO.N,/Microcontroller/SWD_SWO*%
X-2050000Y-7725000D03*
%TO.P,U201,56,PB4*%
%TO.N,unconnected-(U201-PB4-Pad56)*%
X-2550000Y-7725000D03*
%TO.P,U201,57,PB5*%
%TO.N,unconnected-(U201-PB5-Pad57)*%
X-3050000Y-7725000D03*
%TO.P,U201,58,PB6*%
%TO.N,unconnected-(U201-PB6-Pad58)*%
X-3550000Y-7725000D03*
%TO.P,U201,59,PB7*%
%TO.N,unconnected-(U201-PB7-Pad59)*%
X-4050000Y-7725000D03*
%TO.P,U201,60,BOOT0*%
%TO.N,/Microcontroller/BOOT0*%
X-4550000Y-7725000D03*
%TO.P,U201,61,PB8*%
%TO.N,unconnected-(U201-PB8-Pad61)*%
X-5050000Y-7725000D03*
%TO.P,U201,62,PB9*%
%TO.N,unconnected-(U201-PB9-Pad62)*%
X-5550000Y-7725000D03*
%TO.P,U201,63,VSS*%
%TO.N,GND*%
X-6050000Y-7725000D03*
%TO.P,U201,64,VDD*%
%TO.N,+3.3V*%
X-6550000Y-7725000D03*
%TD*%
D30*
%TO.P,R107,1*%
%TO.N,Net-(R106-Pad2)*%
X-12625000Y100000D03*
%TO.P,R107,2*%
%TO.N,Net-(D102-A)*%
X-10975000Y100000D03*
%TD*%
D31*
%TO.P,R302,1*%
%TO.N,/H-Bridge/BRIDGE1*%
X-5862500Y-34700000D03*
%TO.P,R302,2*%
%TO.N,Net-(J301-Pin_1)*%
X62500Y-34700000D03*
%TD*%
D32*
%TO.P,SW101,1,A*%
%TO.N,+BATT*%
X3065000Y16100000D03*
D33*
%TO.P,SW101,2,B*%
%TO.N,Net-(J101-Pin_2)*%
X3065000Y20800000D03*
%TO.P,SW101,3,C*%
%TO.N,Net-(J105-Pin_2)*%
X3065000Y25500000D03*
%TO.P,SW101,MP*%
%TO.N,N/C*%
X-6465000Y14195000D03*
X-6465000Y27405000D03*
%TD*%
D34*
%TO.P,Q303,1,S*%
%TO.N,/H-Bridge/BRIDGE2*%
X5495000Y-31870000D03*
%TO.P,Q303,2,S*%
X6765000Y-31870000D03*
%TO.P,Q303,3,S*%
X8035000Y-31870000D03*
%TO.P,Q303,4,G*%
%TO.N,Net-(D308-A)*%
X9305000Y-31870000D03*
D35*
%TO.P,Q303,5,D*%
%TO.N,+BATT*%
X7400000Y-28510000D03*
D36*
X5495000Y-26405000D03*
X6765000Y-26405000D03*
X8035000Y-26405000D03*
X9305000Y-26405000D03*
%TD*%
D37*
%TO.P,C102,1*%
%TO.N,+BATT*%
X7100000Y8375000D03*
%TO.P,C102,2*%
%TO.N,GND*%
X7100000Y5425000D03*
%TD*%
D38*
%TO.P,C208,1*%
%TO.N,+3.3V*%
X-5320000Y-20600000D03*
%TO.P,C208,2*%
%TO.N,GND*%
X-6280000Y-20600000D03*
%TD*%
%TO.P,C205,1*%
%TO.N,+3.3V*%
X-7590000Y-7650000D03*
%TO.P,C205,2*%
%TO.N,GND*%
X-8550000Y-7650000D03*
%TD*%
D39*
%TO.P,R110,1*%
%TO.N,/Microcontroller/ADC_CURRENT*%
X1225000Y-28900000D03*
%TO.P,R110,2*%
%TO.N,/H-Bridge/CURRENT*%
X-425000Y-28900000D03*
%TD*%
D40*
%TO.P,C306,1*%
%TO.N,+BATT*%
X-11025000Y-28100000D03*
%TO.P,C306,2*%
%TO.N,GND*%
X-13975000Y-28100000D03*
%TD*%
D41*
%TO.P,C104,1*%
%TO.N,Net-(U101-BOOT)*%
X-4700000Y8825000D03*
%TO.P,C104,2*%
%TO.N,Net-(D101-K)*%
X-4700000Y10375000D03*
%TD*%
D34*
%TO.P,Q301,1,S*%
%TO.N,/H-Bridge/BRIDGE1*%
X-9305000Y-31870000D03*
%TO.P,Q301,2,S*%
X-8035000Y-31870000D03*
%TO.P,Q301,3,S*%
X-6765000Y-31870000D03*
%TO.P,Q301,4,G*%
%TO.N,Net-(D302-A)*%
X-5495000Y-31870000D03*
D35*
%TO.P,Q301,5,D*%
%TO.N,+BATT*%
X-7400000Y-28510000D03*
D36*
X-9305000Y-26405000D03*
X-8035000Y-26405000D03*
X-6765000Y-26405000D03*
X-5495000Y-26405000D03*
%TD*%
D42*
%TO.P,J201,1,VCC*%
%TO.N,+3.3V*%
X-13370000Y-20100000D03*
%TO.P,J201,2,SWDIO*%
%TO.N,Net-(J201-SWDIO)*%
X-12100000Y-20100000D03*
%TO.P,J201,3,~{RESET}*%
%TO.N,/Microcontroller/SWD_NRST*%
X-13370000Y-21370000D03*
%TO.P,J201,4,SWCLK*%
%TO.N,Net-(J201-SWCLK)*%
X-12100000Y-21370000D03*
%TO.P,J201,5,GND*%
%TO.N,GND*%
X-13370000Y-22640000D03*
%TO.P,J201,6,SWO*%
%TO.N,Net-(J201-SWO)*%
X-12100000Y-22640000D03*
%TD*%
D43*
%TO.P,Y201,1,1*%
%TO.N,/Microcontroller/HSE_IN*%
X-11900000Y-10400000D03*
%TO.P,Y201,2,2*%
%TO.N,GND*%
X-14100000Y-10400000D03*
%TO.P,Y201,3,3*%
%TO.N,Net-(C213-Pad1)*%
X-14100000Y-12100000D03*
%TO.P,Y201,4,4*%
%TO.N,GND*%
X-11900000Y-12100000D03*
%TD*%
D23*
%TO.P,R206,1*%
%TO.N,/Microcontroller/SWD_SWDIO*%
X-9190000Y-19500000D03*
%TO.P,R206,2*%
%TO.N,Net-(J201-SWDIO)*%
X-10210000Y-19500000D03*
%TD*%
D44*
%TO.P,U102,1,IN*%
%TO.N,+5V*%
X-7550000Y-3262500D03*
%TO.P,U102,2,GND*%
%TO.N,GND*%
X-8500000Y-3262500D03*
%TO.P,U102,3,EN*%
%TO.N,+5V*%
X-9450000Y-3262500D03*
%TO.P,U102,4,NC*%
%TO.N,unconnected-(U102-NC-Pad4)*%
X-9450000Y-5537500D03*
%TO.P,U102,5,OUT*%
%TO.N,+3.3V*%
X-7550000Y-5537500D03*
%TD*%
D26*
%TO.P,C212,1*%
%TO.N,/Microcontroller/SWD_NRST*%
X-10000000Y-18580000D03*
%TO.P,C212,2*%
%TO.N,GND*%
X-10000000Y-17620000D03*
%TD*%
D14*
%TO.P,C203,1*%
%TO.N,Net-(U201-VCAP_1)*%
X725000Y-20900000D03*
%TO.P,C203,2*%
%TO.N,GND*%
X2275000Y-20900000D03*
%TD*%
D38*
%TO.P,C202,1*%
%TO.N,+3.3V*%
X-8570000Y-8650000D03*
%TO.P,C202,2*%
%TO.N,GND*%
X-9530000Y-8650000D03*
%TD*%
D45*
%TO.P,D303,1,K*%
%TO.N,Net-(D303-K)*%
X-13500000Y-38900000D03*
%TO.P,D303,2,A*%
%TO.N,Net-(D303-A)*%
X-12100000Y-38900000D03*
%TD*%
D46*
%TO.P,H102,1,1*%
%TO.N,GND*%
X-13890500Y44053000D03*
%TD*%
D47*
%TO.P,U301,1,IN*%
%TO.N,+BATT*%
X6125000Y18380000D03*
D48*
%TO.P,U301,2,GND*%
%TO.N,GND*%
X10750000Y17625000D03*
X10750000Y14575000D03*
D49*
X12425000Y16100000D03*
D48*
X14100000Y17625000D03*
X14100000Y14575000D03*
D47*
%TO.P,U301,3,OUT*%
%TO.N,+12V*%
X6125000Y13820000D03*
%TD*%
D30*
%TO.P,R104,1*%
%TO.N,+5V*%
X-4725000Y3400000D03*
%TO.P,R104,2*%
%TO.N,Net-(U101-VSENSE)*%
X-3075000Y3400000D03*
%TD*%
D46*
%TO.P,H101,1,1*%
%TO.N,GND*%
X13890500Y44053000D03*
%TD*%
D45*
%TO.P,D309,1,K*%
%TO.N,Net-(D309-K)*%
X12700000Y-38900000D03*
%TO.P,D309,2,A*%
%TO.N,Net-(D309-A)*%
X14100000Y-38900000D03*
%TD*%
%TO.P,D301,1,K*%
%TO.N,Net-(D301-K)*%
X-13600000Y-31100000D03*
%TO.P,D301,2,A*%
%TO.N,+12V*%
X-12200000Y-31100000D03*
%TD*%
D23*
%TO.P,R103,1*%
%TO.N,Net-(J106-Pin_2)*%
X5810000Y-15400000D03*
%TO.P,R103,2*%
%TO.N,/Microcontroller/INT1*%
X4790000Y-15400000D03*
%TD*%
D38*
%TO.P,C213,1*%
%TO.N,Net-(C213-Pad1)*%
X-13520000Y-13450000D03*
%TO.P,C213,2*%
%TO.N,GND*%
X-14480000Y-13450000D03*
%TD*%
D16*
%TO.P,D306,1,K*%
%TO.N,+BATT*%
X3900000Y-30100000D03*
%TO.P,D306,2,A*%
%TO.N,/H-Bridge/BRIDGE2*%
X3900000Y-31500000D03*
%TD*%
D26*
%TO.P,C210,1*%
%TO.N,+3.3VA*%
X-10000000Y-15880000D03*
%TO.P,C210,2*%
%TO.N,GND*%
X-10000000Y-14920000D03*
%TD*%
D39*
%TO.P,R106,1*%
%TO.N,+5V*%
X-10975000Y1600000D03*
%TO.P,R106,2*%
%TO.N,Net-(R106-Pad2)*%
X-12625000Y1600000D03*
%TD*%
D50*
%TO.P,D201,1,K*%
%TO.N,Net-(D201-K)*%
X6587500Y-1600000D03*
%TO.P,D201,2,A*%
%TO.N,/Microcontroller/LED_STATUS*%
X5012500Y-1600000D03*
%TD*%
D38*
%TO.P,C304,1*%
%TO.N,Net-(D301-K)*%
X-14620000Y-31000000D03*
%TO.P,C304,2*%
%TO.N,/H-Bridge/BRIDGE1*%
X-15580000Y-31000000D03*
%TD*%
D51*
%TO.P,L201,1*%
%TO.N,+3.3V*%
X-12000000Y-14915000D03*
%TO.P,L201,2*%
%TO.N,+3.3VA*%
X-12000000Y-15885000D03*
%TD*%
D16*
%TO.P,D307,1,K*%
%TO.N,/H-Bridge/BRIDGE2*%
X10900000Y-40300000D03*
%TO.P,D307,2,A*%
%TO.N,GND*%
X10900000Y-41700000D03*
%TD*%
D41*
%TO.P,C204,1*%
%TO.N,Net-(U201-VCAP_2)*%
X4700000Y-9925000D03*
%TO.P,C204,2*%
%TO.N,GND*%
X4700000Y-8375000D03*
%TD*%
%TO.P,C109,1*%
%TO.N,+3.3V*%
X-6000000Y-4575000D03*
%TO.P,C109,2*%
%TO.N,GND*%
X-6000000Y-3025000D03*
%TD*%
D52*
%TO.P,U101,1,BOOT*%
%TO.N,Net-(U101-BOOT)*%
X-2850000Y8800000D03*
%TO.P,U101,2,NC*%
%TO.N,unconnected-(U101-NC-Pad2)*%
X-2850000Y7530000D03*
%TO.P,U101,3,NC*%
%TO.N,unconnected-(U101-NC-Pad3)*%
X-2850000Y6260000D03*
%TO.P,U101,4,VSENSE*%
%TO.N,Net-(U101-VSENSE)*%
X-2850000Y4990000D03*
%TO.P,U101,5,EN*%
%TO.N,unconnected-(U101-EN-Pad5)*%
X2550000Y4990000D03*
%TO.P,U101,6,GND*%
%TO.N,GND*%
X2550000Y6260000D03*
%TO.P,U101,7,VIN*%
%TO.N,+BATT*%
X2550000Y7530000D03*
%TO.P,U101,8,PH*%
%TO.N,Net-(D101-K)*%
X2550000Y8800000D03*
D53*
%TO.P,U101,9,GNDPAD*%
%TO.N,GND*%
X-750000Y8695000D03*
X-750000Y7495000D03*
X-750000Y6195000D03*
X-750000Y5095000D03*
D54*
X-150000Y6895000D03*
D55*
X-150000Y6895000D03*
D53*
X450000Y8695000D03*
X450000Y7495000D03*
X450000Y6195000D03*
X450000Y5095000D03*
%TD*%
D16*
%TO.P,D308,1,K*%
%TO.N,Net-(D308-K)*%
X14400000Y-34300000D03*
%TO.P,D308,2,A*%
%TO.N,Net-(D308-A)*%
X14400000Y-35700000D03*
%TD*%
D30*
%TO.P,R105,1*%
%TO.N,Net-(U101-VSENSE)*%
X-1725000Y3400000D03*
%TO.P,R105,2*%
%TO.N,GND*%
X-75000Y3400000D03*
%TD*%
D56*
%TO.P,C107,1*%
%TO.N,/Microcontroller/ADC_CURRENT*%
X1175000Y-30400000D03*
%TO.P,C107,2*%
%TO.N,GND*%
X-375000Y-30400000D03*
%TD*%
D57*
%TO.P,C309,1*%
%TO.N,+12V*%
X14200000Y-32270000D03*
%TO.P,C309,2*%
%TO.N,GND*%
X14200000Y-33230000D03*
%TD*%
D56*
%TO.P,C201,1*%
%TO.N,+3.3V*%
X-11025000Y-7400000D03*
%TO.P,C201,2*%
%TO.N,GND*%
X-12575000Y-7400000D03*
%TD*%
D30*
%TO.P,R112,1*%
%TO.N,+3.3V*%
X-12625000Y-5900000D03*
%TO.P,R112,2*%
%TO.N,Net-(D104-A)*%
X-10975000Y-5900000D03*
%TD*%
D20*
%TO.P,D104,1,K*%
%TO.N,GND*%
X-12587500Y-4400000D03*
%TO.P,D104,2,A*%
%TO.N,Net-(D104-A)*%
X-11012500Y-4400000D03*
%TD*%
D58*
%TO.P,U303,1,GND*%
%TO.N,GND*%
X-3875000Y-31762500D03*
%TO.P,U303,2,+*%
%TO.N,/H-Bridge/BRIDGE1*%
X-3225000Y-31762500D03*
%TO.P,U303,3,-*%
%TO.N,Net-(J301-Pin_1)*%
X-2575000Y-31762500D03*
%TO.P,U303,4,GND*%
%TO.N,GND*%
X-1925000Y-31762500D03*
%TO.P,U303,5,V+*%
%TO.N,+3.3V*%
X-1925000Y-26037500D03*
%TO.P,U303,6,REF2*%
X-2575000Y-26037500D03*
%TO.P,U303,7,REF1*%
%TO.N,GND*%
X-3225000Y-26037500D03*
%TO.P,U303,8*%
%TO.N,/H-Bridge/CURRENT*%
X-3875000Y-26037500D03*
%TD*%
D59*
%TO.P,R303,1*%
%TO.N,Net-(D302-K)*%
X-10400000Y-34480000D03*
%TO.P,R303,2*%
%TO.N,Net-(D302-A)*%
X-10400000Y-35500000D03*
%TD*%
D46*
%TO.P,H104,1,1*%
%TO.N,GND*%
X13890500Y-44053000D03*
%TD*%
D60*
%TO.P,R202,1*%
%TO.N,/Microcontroller/BUTTON*%
X9800000Y-3910000D03*
%TO.P,R202,2*%
%TO.N,GND*%
X9800000Y-2890000D03*
%TD*%
D61*
%TO.P,C305,1*%
%TO.N,+3.3V*%
X-400000Y-25825000D03*
%TO.P,C305,2*%
%TO.N,GND*%
X-400000Y-27375000D03*
%TD*%
D23*
%TO.P,R307,1*%
%TO.N,GND*%
X11710000Y-38700000D03*
%TO.P,R307,2*%
%TO.N,Net-(U304-RDT)*%
X10690000Y-38700000D03*
%TD*%
D46*
%TO.P,H103,1,1*%
%TO.N,GND*%
X-13890500Y-44053000D03*
%TD*%
D14*
%TO.P,C301,1*%
%TO.N,+BATT*%
X10225000Y20400000D03*
%TO.P,C301,2*%
%TO.N,GND*%
X11775000Y20400000D03*
%TD*%
D62*
%TO.P,D103,1,K*%
%TO.N,GND*%
X7200000Y-17212500D03*
%TO.P,D103,2,A*%
%TO.N,Net-(D103-A)*%
X7200000Y-18787500D03*
%TD*%
D60*
%TO.P,R109,1*%
%TO.N,GND*%
X10500000Y-8100000D03*
%TO.P,R109,2*%
%TO.N,/Microcontroller/ADC_VBAT*%
X10500000Y-7080000D03*
%TD*%
D45*
%TO.P,D310,1,K*%
%TO.N,Net-(D310-K)*%
X12700000Y-31100000D03*
%TO.P,D310,2,A*%
%TO.N,+12V*%
X14100000Y-31100000D03*
%TD*%
D34*
%TO.P,Q304,1,S*%
%TO.N,GND*%
X5495000Y-42870000D03*
%TO.P,Q304,2,S*%
X6765000Y-42870000D03*
%TO.P,Q304,3,S*%
X8035000Y-42870000D03*
%TO.P,Q304,4,G*%
%TO.N,Net-(D309-A)*%
X9305000Y-42870000D03*
D35*
%TO.P,Q304,5,D*%
%TO.N,/H-Bridge/BRIDGE2*%
X7400000Y-39510000D03*
D36*
X5495000Y-37405000D03*
X6765000Y-37405000D03*
X8035000Y-37405000D03*
X9305000Y-37405000D03*
%TD*%
D26*
%TO.P,C206,1*%
%TO.N,+3.3V*%
X3500000Y-8780000D03*
%TO.P,C206,2*%
%TO.N,GND*%
X3500000Y-7820000D03*
%TD*%
D63*
%TO.P,C105,1*%
%TO.N,+5V*%
X-8312500Y200000D03*
%TO.P,C105,2*%
%TO.N,GND*%
X-2087500Y200000D03*
%TD*%
D64*
%TO.P,C302,1*%
%TO.N,+12V*%
X-11780000Y-32300000D03*
%TO.P,C302,2*%
%TO.N,GND*%
X-10820000Y-32300000D03*
%TD*%
D38*
%TO.P,C308,1*%
%TO.N,Net-(D310-K)*%
X11680000Y-31300000D03*
%TO.P,C308,2*%
%TO.N,/H-Bridge/BRIDGE2*%
X10720000Y-31300000D03*
%TD*%
D60*
%TO.P,R111,1*%
%TO.N,/H-Bridge/COIL_EN*%
X7200000Y-20920000D03*
%TO.P,R111,2*%
%TO.N,Net-(D103-A)*%
X7200000Y-19900000D03*
%TD*%
D37*
%TO.P,C307,1*%
%TO.N,+BATT*%
X11300000Y-26525000D03*
%TO.P,C307,2*%
%TO.N,GND*%
X11300000Y-29475000D03*
%TD*%
D59*
%TO.P,R304,1*%
%TO.N,Net-(D303-K)*%
X-11800000Y-36750000D03*
%TO.P,R304,2*%
%TO.N,Net-(D303-A)*%
X-11800000Y-37770000D03*
%TD*%
D65*
%TO.P,U302,1,VDD*%
%TO.N,+12V*%
X-13050000Y-32800000D03*
%TO.P,U302,2,HB*%
%TO.N,Net-(D301-K)*%
X-13550000Y-32800000D03*
%TO.P,U302,3,HO*%
%TO.N,Net-(D302-K)*%
X-14050000Y-32800000D03*
%TO.P,U302,4,HS*%
%TO.N,/H-Bridge/BRIDGE1*%
X-14550000Y-32800000D03*
%TO.P,U302,5,NC*%
%TO.N,unconnected-(U302-NC-Pad5)*%
X-15050000Y-32800000D03*
%TO.P,U302,6,RDT*%
%TO.N,Net-(U302-RDT)*%
X-15050000Y-37200000D03*
%TO.P,U302,7,EN*%
%TO.N,/H-Bridge/COIL_EN*%
X-14550000Y-37200000D03*
%TO.P,U302,8,IN*%
%TO.N,/H-Bridge/COIL_PWM1*%
X-14050000Y-37200000D03*
%TO.P,U302,9,VSS*%
%TO.N,GND*%
X-13550000Y-37200000D03*
%TO.P,U302,10,LO*%
%TO.N,Net-(D303-K)*%
X-13050000Y-37200000D03*
%TD*%
D60*
%TO.P,R108,1*%
%TO.N,/Microcontroller/ADC_VBAT*%
X10500000Y-6200000D03*
%TO.P,R108,2*%
%TO.N,+BATT*%
X10500000Y-5180000D03*
%TD*%
D23*
%TO.P,R207,1*%
%TO.N,/Microcontroller/SWD_SWO*%
X-9190000Y-21500000D03*
%TO.P,R207,2*%
%TO.N,Net-(J201-SWO)*%
X-10210000Y-21500000D03*
%TD*%
D34*
%TO.P,Q302,1,S*%
%TO.N,GND*%
X-9305000Y-42870000D03*
%TO.P,Q302,2,S*%
X-8035000Y-42870000D03*
%TO.P,Q302,3,S*%
X-6765000Y-42870000D03*
%TO.P,Q302,4,G*%
%TO.N,Net-(D303-A)*%
X-5495000Y-42870000D03*
D35*
%TO.P,Q302,5,D*%
%TO.N,/H-Bridge/BRIDGE1*%
X-7400000Y-39510000D03*
D36*
X-9305000Y-37405000D03*
X-8035000Y-37405000D03*
X-6765000Y-37405000D03*
X-5495000Y-37405000D03*
%TD*%
D65*
%TO.P,U304,1,VDD*%
%TO.N,+12V*%
X12900000Y-32800000D03*
%TO.P,U304,2,HB*%
%TO.N,Net-(D310-K)*%
X12400000Y-32800000D03*
%TO.P,U304,3,HO*%
%TO.N,Net-(D308-K)*%
X11900000Y-32800000D03*
%TO.P,U304,4,HS*%
%TO.N,/H-Bridge/BRIDGE2*%
X11400000Y-32800000D03*
%TO.P,U304,5,NC*%
%TO.N,unconnected-(U304-NC-Pad5)*%
X10900000Y-32800000D03*
%TO.P,U304,6,RDT*%
%TO.N,Net-(U304-RDT)*%
X10900000Y-37200000D03*
%TO.P,U304,7,EN*%
%TO.N,/H-Bridge/COIL_EN*%
X11400000Y-37200000D03*
%TO.P,U304,8,IN*%
%TO.N,/H-Bridge/COIL_PWM2*%
X11900000Y-37200000D03*
%TO.P,U304,9,VSS*%
%TO.N,GND*%
X12400000Y-37200000D03*
%TO.P,U304,10,LO*%
%TO.N,Net-(D309-K)*%
X12900000Y-37200000D03*
%TD*%
D19*
%TO.P,R203,1*%
%TO.N,/Microcontroller/BOOT0*%
X-12010000Y-16900000D03*
%TO.P,R203,2*%
%TO.N,GND*%
X-10990000Y-16900000D03*
%TD*%
D64*
%TO.P,C207,1*%
%TO.N,+3.3V*%
X1820000Y-19600000D03*
%TO.P,C207,2*%
%TO.N,GND*%
X2780000Y-19600000D03*
%TD*%
D37*
%TO.P,C103,1*%
%TO.N,+BATT*%
X4800000Y8375000D03*
%TO.P,C103,2*%
%TO.N,GND*%
X4800000Y5425000D03*
%TD*%
D59*
%TO.P,R305,1*%
%TO.N,Net-(D308-K)*%
X15600000Y-34490000D03*
%TO.P,R305,2*%
%TO.N,Net-(D308-A)*%
X15600000Y-35510000D03*
%TD*%
D16*
%TO.P,D304,1,K*%
%TO.N,+BATT*%
X-10900000Y-29800000D03*
%TO.P,D304,2,A*%
%TO.N,/H-Bridge/BRIDGE1*%
X-10900000Y-31200000D03*
%TD*%
D38*
%TO.P,C211,1*%
%TO.N,/Microcontroller/HSE_IN*%
X-12520000Y-9050000D03*
%TO.P,C211,2*%
%TO.N,GND*%
X-13480000Y-9050000D03*
%TD*%
D57*
%TO.P,C106,1*%
%TO.N,/Microcontroller/ADC_VBAT*%
X9500000Y-7110000D03*
%TO.P,C106,2*%
%TO.N,GND*%
X9500000Y-8070000D03*
%TD*%
D59*
%TO.P,R306,1*%
%TO.N,Net-(D309-K)*%
X14200000Y-36740000D03*
%TO.P,R306,2*%
%TO.N,Net-(D309-A)*%
X14200000Y-37760000D03*
%TD*%
D16*
%TO.P,D305,1,K*%
%TO.N,/H-Bridge/BRIDGE1*%
X-10900000Y-40300000D03*
%TO.P,D305,2,A*%
%TO.N,GND*%
X-10900000Y-41700000D03*
%TD*%
D56*
%TO.P,C108,1*%
%TO.N,+5V*%
X-11025000Y-2900000D03*
%TO.P,C108,2*%
%TO.N,GND*%
X-12575000Y-2900000D03*
%TD*%
D23*
%TO.P,R301,1*%
%TO.N,GND*%
X-14490000Y-38700000D03*
%TO.P,R301,2*%
%TO.N,Net-(U302-RDT)*%
X-15510000Y-38700000D03*
%TD*%
D66*
%TO.P,J101,1,Pin_1*%
%TO.N,GND*%
X-2400000Y38500000D03*
D67*
%TO.P,J101,2,Pin_2*%
%TO.N,Net-(J101-Pin_2)*%
X-7400000Y38500000D03*
%TD*%
D68*
%TO.P,J102,1,Pin_1*%
%TO.N,Net-(J102-Pin_1)*%
X7500000Y32500000D03*
D69*
%TO.P,J102,2,Pin_2*%
%TO.N,Net-(J102-Pin_2)*%
X5000000Y32500000D03*
%TO.P,J102,3,Pin_3*%
%TO.N,Net-(J102-Pin_3)*%
X2500000Y32500000D03*
%TO.P,J102,4,Pin_4*%
%TO.N,Net-(J102-Pin_4)*%
X0Y32500000D03*
%TO.P,J102,5,Pin_5*%
%TO.N,Net-(J102-Pin_5)*%
X-2500000Y32500000D03*
%TO.P,J102,6,Pin_6*%
%TO.N,Net-(J102-Pin_6)*%
X-5000000Y32500000D03*
%TO.P,J102,7,Pin_7*%
%TO.N,Net-(J102-Pin_7)*%
X-7500000Y32500000D03*
%TD*%
D70*
%TO.N,GND*%
X-400000Y-31600000D03*
D71*
X-7200000Y-45800000D03*
D70*
X-2900000Y24650000D03*
D71*
X5900000Y-44500000D03*
X14100000Y-29500000D03*
D70*
X11800000Y-39600000D03*
X-15050000Y6700000D03*
X600000Y-2550000D03*
X-6000000Y-9400000D03*
X-14300000Y8650000D03*
X-8450000Y7150000D03*
X-14431310Y11482949D03*
X300000Y23550000D03*
D71*
X-3900000Y-42300000D03*
X-8500000Y-45800000D03*
X10000000Y28900000D03*
X6500000Y27600000D03*
D70*
X-14250000Y16850000D03*
D71*
X8500000Y-45800000D03*
D70*
X-13800000Y-7400000D03*
X2049500Y-39200000D03*
D71*
X5900000Y-45800000D03*
D70*
X-1800000Y-27900000D03*
X-13100000Y4200000D03*
X-13800000Y-1400000D03*
X1600000Y-32050000D03*
D71*
X-9800000Y-44500000D03*
X-3900000Y-41100000D03*
D70*
X-6031310Y23373450D03*
D71*
X-5900000Y-44500000D03*
X8500000Y-44500000D03*
D70*
X6000000Y-8300000D03*
D71*
X5100000Y3900000D03*
X6500000Y28900000D03*
D70*
X5900000Y24100000D03*
X-750000Y-5500000D03*
D71*
X4000000Y3900000D03*
X10000000Y27600000D03*
D70*
X14050000Y24600000D03*
X9500000Y-9000000D03*
X-13800000Y-4400000D03*
X-10400000Y-33200000D03*
X5500000Y22100000D03*
D71*
X-9800000Y-45800000D03*
D70*
X7150000Y-10450000D03*
D71*
X-5900000Y-45800000D03*
D70*
X-3500000Y17800000D03*
X-8500000Y-4500000D03*
D71*
X-2700000Y-41100000D03*
D70*
X-3400000Y-5500000D03*
X-8500000Y-5400000D03*
D71*
X9800000Y-45800000D03*
X7200000Y-44500000D03*
D70*
X-4000000Y26850000D03*
D71*
X6500000Y26300000D03*
D70*
X11500000Y22550000D03*
D71*
X13000000Y-29500000D03*
D70*
X-10850000Y6600000D03*
X3709266Y-19190734D03*
X-2700000Y15750000D03*
X8500000Y-17200000D03*
D71*
X10000000Y18200000D03*
D70*
X-10000000Y-14000000D03*
D71*
X14800000Y18200000D03*
D70*
X-11900000Y11800000D03*
D71*
X7200000Y-45800000D03*
X-12800000Y-26300000D03*
X-200000Y-500000D03*
D70*
X-7149500Y-20600000D03*
X-14500000Y-39700000D03*
D71*
X9800000Y-44500000D03*
D70*
X-13250000Y14200000D03*
D71*
X7300000Y3900000D03*
D70*
X-350000Y15750000D03*
X-6800000Y17750000D03*
X-9500000Y-7600000D03*
X-10600000Y-11900000D03*
X-9800000Y14100000D03*
D71*
X-2700000Y-42300000D03*
D70*
X-14400000Y-22600000D03*
X2650000Y-950000D03*
X-5550000Y6050000D03*
X10500000Y-9000000D03*
X-14649500Y-14200000D03*
X9800000Y-2000000D03*
X-14500000Y1550000D03*
D71*
X10000000Y14000000D03*
X14800000Y14000000D03*
D70*
X14100000Y21250000D03*
D71*
X12500000Y14000000D03*
X10000000Y26300000D03*
X14800000Y16100000D03*
X10000000Y16100000D03*
D70*
X-13800000Y-2900000D03*
X-14600000Y-8800000D03*
D71*
X6200000Y3900000D03*
D70*
X-4600000Y-3000000D03*
D71*
X-7200000Y-44500000D03*
X12500000Y18200000D03*
D70*
X-9400000Y27150000D03*
X15300000Y-33300000D03*
X-1200000Y26500000D03*
X10450000Y24300000D03*
X9200000Y-11200000D03*
D71*
X1100000Y800000D03*
X-14000000Y-26300000D03*
X-200000Y800000D03*
D70*
X-6600000Y-10900000D03*
X-343611Y18064232D03*
X-10000000Y-16709500D03*
D71*
X-8500000Y-44500000D03*
D70*
X-6150000Y3700000D03*
%TO.N,Net-(D101-K)*%
X-600000Y13500000D03*
D71*
%TO.N,+5V*%
X-6600000Y900000D03*
X-5500000Y900000D03*
X-6600000Y-500000D03*
X-5500000Y-500000D03*
D70*
%TO.N,/Microcontroller/ADC_CURRENT*%
X900000Y-27600000D03*
X-1550000Y-20800000D03*
%TO.N,+3.3V*%
X2500000Y-8700000D03*
X3000000Y-18100000D03*
X1100000Y-25800000D03*
X-13500000Y-14309500D03*
X-11025000Y-8583911D03*
D72*
X-3674500Y-20754454D03*
D70*
X2500000Y-4900000D03*
X-14400000Y-20200000D03*
%TO.N,+12V*%
X15300000Y-32200000D03*
X-12200000Y-33200000D03*
D71*
X8100000Y13800000D03*
X8100000Y15100000D03*
X6800000Y15100000D03*
D70*
X-11300000Y-33200000D03*
D71*
X5500000Y15100000D03*
D70*
X15300000Y-31100000D03*
%TO.N,Net-(D302-A)*%
X-12400000Y-35700000D03*
D72*
X-5933009Y-31033009D03*
%TO.N,Net-(D303-A)*%
X-12100000Y-40300000D03*
X-6020793Y-41948296D03*
%TO.N,Net-(D309-A)*%
X14100000Y-40100000D03*
X9696915Y-41812738D03*
D70*
%TO.N,Net-(J102-Pin_1)*%
X-1600000Y43100000D03*
%TO.N,Net-(J102-Pin_2)*%
X-2600000Y43100000D03*
%TO.N,Net-(J102-Pin_3)*%
X-3600000Y43100000D03*
%TO.N,Net-(J102-Pin_4)*%
X-4600000Y43100000D03*
%TO.N,Net-(J102-Pin_5)*%
X-5600000Y43100000D03*
%TO.N,Net-(J102-Pin_6)*%
X-6600000Y43100000D03*
%TO.N,Net-(J102-Pin_7)*%
X-7600000Y43100000D03*
D72*
%TO.N,Net-(J106-Pin_2)*%
X6700000Y-15400000D03*
%TO.N,Net-(J106-Pin_3)*%
X6700000Y-14400000D03*
%TO.N,/Microcontroller/MISO*%
X400000Y-17100000D03*
%TO.N,/Microcontroller/MOSI*%
X-800000Y-16200000D03*
%TO.N,/Microcontroller/CLK*%
X1600000Y-18000000D03*
%TO.N,/Microcontroller/CS*%
X4900000Y-19100000D03*
%TO.N,/Microcontroller/BOOT0*%
X-11458411Y-17758411D03*
X-6600000Y-6300000D03*
D70*
%TO.N,/H-Bridge/COIL_EN*%
X10900000Y-35600000D03*
X-14449500Y-35000000D03*
D72*
X-7700000Y-21571636D03*
X8400000Y-20900000D03*
%TO.N,/Microcontroller/SWD_SWCLK*%
X-5800000Y-15300000D03*
X-8500000Y-20500000D03*
%TO.N,/Microcontroller/SWD_SWDIO*%
X777345Y-10625500D03*
X-1600000Y-10625500D03*
%TO.N,/Microcontroller/SWD_SWO*%
X-7930420Y-19547242D03*
X-5900000Y-12500000D03*
D70*
%TO.N,/H-Bridge/COIL_PWM1*%
X-13800000Y-35800000D03*
D72*
X-5800000Y-17600000D03*
%TO.N,/H-Bridge/COIL_PWM2*%
X6000000Y-12400000D03*
D70*
X11900000Y-35499500D03*
%TD*%
D73*
%TO.N,+3.3V*%
X3000000Y-18100000D02*
X3890000Y-18100000D01*
X1820000Y-19280000D02*
X1820000Y-19600000D01*
X3000000Y-18100000D02*
X1820000Y-19280000D01*
D74*
%TO.N,+BATT*%
X3900000Y-30100000D02*
X5810000Y-30100000D01*
D73*
X5810000Y-30100000D02*
X7400000Y-28510000D01*
D74*
X2550000Y7530000D02*
X3955000Y7530000D01*
X3955000Y7530000D02*
X4800000Y8375000D01*
D73*
X-8990000Y-30100000D02*
X-7400000Y-28510000D01*
X10500000Y-5180000D02*
X11790000Y-5180000D01*
%TO.N,GND*%
X9800000Y-2000000D02*
X9400000Y-1600000D01*
D75*
X6400000Y41100000D02*
X5600000Y41900000D01*
D73*
X8487500Y-17212500D02*
X8500000Y-17200000D01*
X-400000Y-27375000D02*
X-1275000Y-27375000D01*
D75*
X5600000Y41900000D02*
X3300000Y41900000D01*
X11775000Y20400000D02*
X11775000Y18650000D01*
D76*
X-9350000Y-15150000D02*
X-9580000Y-14920000D01*
D73*
X-14100000Y-9300000D02*
X-14600000Y-8800000D01*
X-12587500Y-1400000D02*
X-12587500Y-4400000D01*
D77*
X-1400000Y-30400000D02*
X-375000Y-30400000D01*
X-14480000Y-14030500D02*
X-14480000Y-13450000D01*
D73*
X-10000000Y-17620000D02*
X-10000000Y-16709500D01*
D77*
X-1925000Y-30925000D02*
X-1400000Y-30400000D01*
D78*
X-13550000Y-37955330D02*
X-13894670Y-38300000D01*
X-13550000Y-37200000D02*
X-13550000Y-37955330D01*
D73*
X-13730000Y-8800000D02*
X-13480000Y-9050000D01*
D78*
X-13894670Y-38300000D02*
X-14090000Y-38300000D01*
D75*
X12500000Y18200000D02*
X11775000Y18650000D01*
D73*
X-8500000Y-4500000D02*
X-8500000Y-5400000D01*
D77*
X-6050000Y-19075000D02*
X-6050000Y-20370000D01*
X11726041Y-38700000D02*
X11710000Y-38700000D01*
D73*
X-13480000Y-9050000D02*
X-13850000Y-9050000D01*
X2780000Y-19600000D02*
X2780000Y-20395000D01*
X-10190500Y-16900000D02*
X-10000000Y-16709500D01*
D77*
X12400000Y-38026041D02*
X11726041Y-38700000D01*
X11710000Y-39510000D02*
X11710000Y-38700000D01*
D73*
X9800000Y-2000000D02*
X9800000Y-2890000D01*
X-8500000Y-3262500D02*
X-8500000Y-4500000D01*
D77*
X-6050000Y-20370000D02*
X-6280000Y-20600000D01*
D73*
X-11000000Y-14920000D02*
X-10000000Y-14920000D01*
X-1275000Y-27375000D02*
X-1800000Y-27900000D01*
X9500000Y-8070000D02*
X9530000Y-8100000D01*
X10500000Y-8100000D02*
X10500000Y-9000000D01*
D75*
X10000000Y18200000D02*
X10750000Y17625000D01*
D73*
X-375000Y-30400000D02*
X-375000Y-31575000D01*
D75*
X3300000Y41900000D02*
X2500000Y41100000D01*
X9675000Y11800000D02*
X9675000Y13675000D01*
D73*
X9530000Y-8100000D02*
X10500000Y-8100000D01*
X-12587500Y-1400000D02*
X-13800000Y-1400000D01*
D77*
X11800000Y-39600000D02*
X11710000Y-39510000D01*
X-3236396Y-30400000D02*
X-2000000Y-30400000D01*
D78*
X-14360000Y-22640000D02*
X-14400000Y-22600000D01*
X-14090000Y-38300000D02*
X-14490000Y-38700000D01*
D73*
X-6000000Y-3025000D02*
X-4625000Y-3025000D01*
D75*
X6400000Y38900000D02*
X6400000Y41100000D01*
D73*
X-8550000Y-7650000D02*
X-9450000Y-7650000D01*
D77*
X-6280000Y-20600000D02*
X-7149500Y-20600000D01*
D73*
X-10800000Y-12100000D02*
X-10600000Y-11900000D01*
D77*
X-6050000Y-7725000D02*
X-6050000Y-9350000D01*
X-2500000Y-27900000D02*
X-1800000Y-27900000D01*
D73*
X2780000Y-20395000D02*
X2275000Y-20900000D01*
D77*
X-3225000Y-26037500D02*
X-3225000Y-27175000D01*
X-3875000Y-31762500D02*
X-3875000Y-31038604D01*
X-2000000Y-30400000D02*
X-1400000Y-30400000D01*
D73*
X3500000Y-7820000D02*
X4145000Y-7820000D01*
X9400000Y-1600000D02*
X8810000Y-1600000D01*
X-12575000Y-7400000D02*
X-13800000Y-7400000D01*
X6000000Y-8300000D02*
X5925000Y-8375000D01*
X3709266Y-19190734D02*
X3300000Y-19600000D01*
X-11900000Y-12100000D02*
X-10800000Y-12100000D01*
D74*
X2550000Y6260000D02*
X3965000Y6260000D01*
D75*
X1200000Y38500000D02*
X-2400000Y38500000D01*
D77*
X-6050000Y-9350000D02*
X-6000000Y-9400000D01*
D73*
X-9530000Y-7630000D02*
X-9500000Y-7600000D01*
D77*
X-1925000Y-30475000D02*
X-2000000Y-30400000D01*
D73*
X4145000Y-7820000D02*
X4700000Y-8375000D01*
X-10820000Y-32300000D02*
X-10400000Y-32720000D01*
X-9450000Y-7650000D02*
X-9500000Y-7600000D01*
D77*
X-3875000Y-31038604D02*
X-3236396Y-30400000D01*
X-3225000Y-27175000D02*
X-2500000Y-27900000D01*
D73*
X14200000Y-33230000D02*
X15230000Y-33230000D01*
X-10400000Y-32720000D02*
X-10400000Y-33200000D01*
X-10990000Y-16900000D02*
X-10190500Y-16900000D01*
X-14490000Y-38700000D02*
X-14490000Y-39690000D01*
X-14600000Y-8800000D02*
X-13730000Y-8800000D01*
X7200000Y-17212500D02*
X8487500Y-17212500D01*
D77*
X-1925000Y-31762500D02*
X-1925000Y-30475000D01*
D73*
X-4625000Y-3025000D02*
X-4600000Y-3000000D01*
X-12575000Y-2900000D02*
X-13800000Y-2900000D01*
D75*
X2500000Y39800000D02*
X1200000Y38500000D01*
D73*
X9500000Y-8070000D02*
X9500000Y-9000000D01*
X-14100000Y-9300000D02*
X-14100000Y-10400000D01*
D74*
X3965000Y6260000D02*
X4800000Y5425000D01*
D77*
X-1925000Y-31762500D02*
X-1925000Y-30925000D01*
D76*
X-8475000Y-15150000D02*
X-9350000Y-15150000D01*
D75*
X9675000Y13675000D02*
X10000000Y14000000D01*
D73*
X-14490000Y-39690000D02*
X-14500000Y-39700000D01*
X5925000Y-8375000D02*
X4700000Y-8375000D01*
X-10000000Y-14920000D02*
X-10000000Y-14000000D01*
X-9530000Y-8650000D02*
X-9530000Y-7630000D01*
X3300000Y-19600000D02*
X2780000Y-19600000D01*
D75*
X2500000Y41100000D02*
X2500000Y39800000D01*
D73*
X-12587500Y-4400000D02*
X-13800000Y-4400000D01*
D76*
X-9580000Y-14920000D02*
X-10000000Y-14920000D01*
D73*
X15230000Y-33230000D02*
X15300000Y-33300000D01*
X-375000Y-31575000D02*
X-400000Y-31600000D01*
D77*
X12400000Y-37200000D02*
X12400000Y-38026041D01*
X-14649500Y-14200000D02*
X-14480000Y-14030500D01*
D78*
X-13370000Y-22640000D02*
X-14360000Y-22640000D01*
D73*
X-13850000Y-9050000D02*
X-14100000Y-9300000D01*
%TO.N,Net-(U101-BOOT)*%
X-4675000Y8800000D02*
X-4700000Y8825000D01*
D74*
X-2850000Y8800000D02*
X-4675000Y8800000D01*
D73*
%TO.N,+5V*%
X-9812500Y-2900000D02*
X-9450000Y-3262500D01*
X-4725000Y3400000D02*
X-4725000Y1675000D01*
X-11025000Y-2900000D02*
X-9812500Y-2900000D01*
X-4725000Y1675000D02*
X-5500000Y900000D01*
D78*
%TO.N,/Microcontroller/ADC_VBAT*%
X2700000Y-7100000D02*
X1600000Y-8200000D01*
X-600000Y-11000000D02*
X-600000Y-13400000D01*
D73*
X9500000Y-7110000D02*
X10470000Y-7110000D01*
X10470000Y-7110000D02*
X10500000Y-7080000D01*
D78*
X1600000Y-8800000D02*
X-600000Y-11000000D01*
D73*
X10500000Y-6200000D02*
X10500000Y-7080000D01*
D78*
X-2050000Y-14850000D02*
X-2050000Y-19075000D01*
X1600000Y-8200000D02*
X1600000Y-8800000D01*
X-600000Y-13400000D02*
X-2050000Y-14850000D01*
X9490000Y-7100000D02*
X2700000Y-7100000D01*
X9500000Y-7110000D02*
X9490000Y-7100000D01*
D77*
%TO.N,/Microcontroller/ADC_CURRENT*%
X1225000Y-28900000D02*
X1225000Y-27925000D01*
X1175000Y-28950000D02*
X1225000Y-28900000D01*
X1225000Y-27925000D02*
X900000Y-27600000D01*
D78*
X-1550000Y-20800000D02*
X-1550000Y-19075000D01*
D77*
X1175000Y-30400000D02*
X1175000Y-28950000D01*
D73*
%TO.N,+3.3V*%
X-6962500Y-5537500D02*
X-6000000Y-4575000D01*
X-13500000Y-14309500D02*
X-13500000Y-15150000D01*
X-12000000Y-14915000D02*
X-13265000Y-14915000D01*
X-6000000Y-4575000D02*
X-5525000Y-4100000D01*
X-7550000Y-5537500D02*
X-6962500Y-5537500D01*
X-400000Y-25825000D02*
X1075000Y-25825000D01*
X-12525000Y-5900000D02*
X-11025000Y-7400000D01*
D77*
X2875000Y-9075000D02*
X2500000Y-8700000D01*
X-5550000Y-20370000D02*
X-5320000Y-20600000D01*
X-5550000Y-19075000D02*
X-5550000Y-20370000D01*
X2875000Y-9650000D02*
X2875000Y-9075000D01*
D73*
X2500000Y-4900000D02*
X2500000Y-4100000D01*
D77*
X-8475000Y-9650000D02*
X-8475000Y-8745000D01*
D73*
X-7590000Y-7650000D02*
X-7590000Y-7834386D01*
X-11025000Y-8583911D02*
X-11025000Y-7400000D01*
X-3828954Y-20600000D02*
X-5320000Y-20600000D01*
D78*
X-8475000Y-8745000D02*
X-8570000Y-8650000D01*
D73*
X1075000Y-25825000D02*
X1100000Y-25800000D01*
X-5525000Y-4100000D02*
X2500000Y-4100000D01*
X2500000Y-4100000D02*
X4400000Y-4100000D01*
X-7590000Y-7834386D02*
X-8405614Y-8650000D01*
D77*
X1295000Y-19075000D02*
X1820000Y-19600000D01*
D78*
X-13370000Y-20100000D02*
X-14300000Y-20100000D01*
D73*
X-13500000Y-15150000D02*
X-13800000Y-15450000D01*
X-7550000Y-6800000D02*
X-10425000Y-6800000D01*
X-10425000Y-6800000D02*
X-11025000Y-7400000D01*
X-3674500Y-20754454D02*
X-3828954Y-20600000D01*
X-13265000Y-14915000D02*
X-13800000Y-15450000D01*
D77*
X3500000Y-8780000D02*
X2580000Y-8780000D01*
D73*
X-7550000Y-7610000D02*
X-7590000Y-7650000D01*
D77*
X950000Y-19075000D02*
X1295000Y-19075000D01*
D73*
X-7550000Y-5537500D02*
X-7550000Y-6800000D01*
D77*
X-6550000Y-7725000D02*
X-7515000Y-7725000D01*
X2875000Y-8955000D02*
X2875000Y-9650000D01*
D73*
X-8405614Y-8650000D02*
X-8570000Y-8650000D01*
D77*
X-7515000Y-7725000D02*
X-7590000Y-7650000D01*
D73*
X-12625000Y-5900000D02*
X-12525000Y-5900000D01*
D78*
X-14300000Y-20100000D02*
X-14400000Y-20200000D01*
D73*
X-7550000Y-6800000D02*
X-7550000Y-7610000D01*
D77*
X3050000Y-8780000D02*
X2875000Y-8955000D01*
X3500000Y-8780000D02*
X3050000Y-8780000D01*
X2580000Y-8780000D02*
X2500000Y-8700000D01*
%TO.N,Net-(U201-VCAP_1)*%
X450000Y-20625000D02*
X725000Y-20900000D01*
X450000Y-19075000D02*
X450000Y-20625000D01*
%TO.N,Net-(U201-VCAP_2)*%
X2875000Y-10150000D02*
X4475000Y-10150000D01*
X4475000Y-10150000D02*
X4700000Y-9925000D01*
D76*
%TO.N,+3.3VA*%
X-9580000Y-15880000D02*
X-10000000Y-15880000D01*
X-9350000Y-15650000D02*
X-9580000Y-15880000D01*
X-8475000Y-15650000D02*
X-9350000Y-15650000D01*
D73*
X-12000000Y-15885000D02*
X-10005000Y-15885000D01*
X-10005000Y-15885000D02*
X-10000000Y-15880000D01*
D77*
%TO.N,/Microcontroller/HSE_IN*%
X-10300000Y-10700000D02*
X-10600000Y-10400000D01*
X-10300000Y-11100000D02*
X-10300000Y-10700000D01*
X-12050000Y-9050000D02*
X-11900000Y-9200000D01*
X-8475000Y-11650000D02*
X-9750000Y-11650000D01*
X-11900000Y-9200000D02*
X-11900000Y-10400000D01*
X-12520000Y-9050000D02*
X-12050000Y-9050000D01*
X-10600000Y-10400000D02*
X-11850000Y-10400000D01*
X-9750000Y-11650000D02*
X-10300000Y-11100000D01*
D78*
%TO.N,/Microcontroller/SWD_NRST*%
X-12400000Y-17700000D02*
X-11400000Y-18700000D01*
X-14430000Y-21370000D02*
X-15200000Y-20600000D01*
X-11400000Y-18700000D02*
X-8700000Y-18700000D01*
X-15200000Y-19000000D02*
X-13900000Y-17700000D01*
X-15200000Y-20600000D02*
X-15200000Y-19000000D01*
X-13900000Y-17700000D02*
X-12400000Y-17700000D01*
X-7450000Y-12650000D02*
X-8475000Y-12650000D01*
X-13370000Y-21370000D02*
X-14430000Y-21370000D01*
X-8700000Y-18700000D02*
X-7000000Y-17000000D01*
X-7000000Y-17000000D02*
X-7000000Y-13100000D01*
X-7000000Y-13100000D02*
X-7450000Y-12650000D01*
D77*
%TO.N,Net-(C213-Pad1)*%
X-13520000Y-13380000D02*
X-13520000Y-13450000D01*
X-14100000Y-12100000D02*
X-14100000Y-12800000D01*
X-14100000Y-12800000D02*
X-13520000Y-13380000D01*
X-13520000Y-13450000D02*
X-12510000Y-13450000D01*
%TO.N,Net-(D301-K)*%
X-13550000Y-31150000D02*
X-13600000Y-31100000D01*
D73*
X-14620000Y-31000000D02*
X-13700000Y-31000000D01*
D77*
X-13550000Y-32800000D02*
X-13550000Y-31150000D01*
D73*
X-13700000Y-31000000D02*
X-13600000Y-31100000D01*
D77*
%TO.N,/H-Bridge/BRIDGE1*%
X-4400000Y-34700000D02*
X-5862500Y-34700000D01*
X-15290000Y-31660000D02*
X-15580000Y-31370000D01*
X-15580000Y-30580000D02*
X-15580000Y-31100000D01*
D73*
X-8190000Y-40300000D02*
X-7400000Y-39510000D01*
D77*
X-14550000Y-31950000D02*
X-14840000Y-31660000D01*
X-12100000Y-30000000D02*
X-15000000Y-30000000D01*
X-14840000Y-31660000D02*
X-15290000Y-31660000D01*
X-3225000Y-31762500D02*
X-3225000Y-33525000D01*
D74*
X-10900000Y-31200000D02*
X-9305000Y-31200000D01*
D77*
X-3225000Y-33525000D02*
X-4400000Y-34700000D01*
X-10900000Y-31200000D02*
X-12100000Y-30000000D01*
X-14550000Y-32800000D02*
X-14550000Y-31950000D01*
D74*
X-9305000Y-31200000D02*
X-9305000Y-31870000D01*
X-10900000Y-40300000D02*
X-8190000Y-40300000D01*
D77*
X-15000000Y-30000000D02*
X-15580000Y-30580000D01*
X-15580000Y-31370000D02*
X-15580000Y-31000000D01*
D73*
%TO.N,Net-(D310-K)*%
X12500000Y-31300000D02*
X12700000Y-31100000D01*
D77*
X12400000Y-31400000D02*
X12700000Y-31100000D01*
D73*
X11680000Y-31300000D02*
X12500000Y-31300000D01*
D77*
X12400000Y-32800000D02*
X12400000Y-31400000D01*
D73*
%TO.N,/H-Bridge/BRIDGE2*%
X8190000Y-40300000D02*
X7400000Y-39510000D01*
D77*
X8035000Y-31870000D02*
X8035000Y-31265000D01*
D74*
X10900000Y-40300000D02*
X8190000Y-40300000D01*
D77*
X10247058Y-30827058D02*
X10720000Y-31300000D01*
X8035000Y-31265000D02*
X8472942Y-30827058D01*
D76*
X11400000Y-32800000D02*
X11400000Y-31987609D01*
D77*
X8472942Y-30827058D02*
X10247058Y-30827058D01*
D76*
X10720000Y-31307609D02*
X10720000Y-31300000D01*
X11400000Y-31987609D02*
X10720000Y-31307609D01*
D73*
%TO.N,Net-(D102-A)*%
X-10975000Y-1362500D02*
X-11012500Y-1400000D01*
X-10975000Y100000D02*
X-10975000Y-1362500D01*
%TO.N,Net-(D103-A)*%
X7200000Y-19900000D02*
X7200000Y-18787500D01*
%TO.N,Net-(D104-A)*%
X-11012500Y-4400000D02*
X-11012500Y-5862500D01*
X-11012500Y-5862500D02*
X-10975000Y-5900000D01*
%TO.N,Net-(D201-K)*%
X6587500Y-1600000D02*
X7790000Y-1600000D01*
D77*
%TO.N,/Microcontroller/LED_STATUS*%
X6500000Y-5000000D02*
X6500000Y-3087500D01*
X791853Y-5800000D02*
X5700000Y-5800000D01*
X-50000Y-6641853D02*
X791853Y-5800000D01*
X6500000Y-3087500D02*
X5012500Y-1600000D01*
X-50000Y-7725000D02*
X-50000Y-6641853D01*
X5700000Y-5800000D02*
X6500000Y-5000000D01*
%TO.N,Net-(D302-K)*%
X-10900000Y-34500000D02*
X-10420000Y-34500000D01*
X-10420000Y-34500000D02*
X-10400000Y-34480000D01*
X-11600000Y-34300000D02*
X-11100000Y-34300000D01*
X-11100000Y-34300000D02*
X-10900000Y-34500000D01*
X-14050000Y-34050000D02*
X-13800000Y-34300000D01*
X-14050000Y-32800000D02*
X-14050000Y-34050000D01*
X-13800000Y-34300000D02*
X-11600000Y-34300000D01*
%TO.N,Net-(D302-A)*%
X-11600000Y-35700000D02*
X-11100000Y-35700000D01*
X-12400000Y-35700000D02*
X-11600000Y-35700000D01*
X-5933009Y-31033009D02*
X-5495000Y-31471018D01*
X-5495000Y-31471018D02*
X-5495000Y-31870000D01*
X-10900000Y-35500000D02*
X-10400000Y-35500000D01*
X-11100000Y-35700000D02*
X-10900000Y-35500000D01*
%TO.N,Net-(D303-K)*%
X-12350000Y-36750000D02*
X-11800000Y-36750000D01*
X-13050000Y-37200000D02*
X-12800000Y-37200000D01*
X-13050000Y-37200000D02*
X-13050000Y-38400000D01*
X-13050000Y-38400000D02*
X-13500000Y-38850000D01*
X-13500000Y-38850000D02*
X-13500000Y-38900000D01*
X-12800000Y-37200000D02*
X-12350000Y-36750000D01*
%TO.N,Net-(D303-A)*%
X-12100000Y-40300000D02*
X-12100000Y-38900000D01*
X-5495000Y-42474089D02*
X-6020793Y-41948296D01*
X-5495000Y-42870000D02*
X-5495000Y-42474089D01*
D73*
X-11800000Y-38600000D02*
X-11800000Y-37770000D01*
X-12100000Y-38900000D02*
X-11800000Y-38600000D01*
D77*
%TO.N,Net-(D308-K)*%
X11900000Y-33800000D02*
X12400000Y-34300000D01*
X15190000Y-34490000D02*
X15000000Y-34300000D01*
X12400000Y-34300000D02*
X14400000Y-34300000D01*
X15600000Y-34490000D02*
X15190000Y-34490000D01*
X15000000Y-34300000D02*
X14400000Y-34300000D01*
X11900000Y-32800000D02*
X11900000Y-33800000D01*
%TO.N,Net-(D308-A)*%
X11400000Y-34800000D02*
X12900000Y-34800000D01*
X9305000Y-31870000D02*
X9305000Y-32105000D01*
X10200000Y-33000000D02*
X10200000Y-33600000D01*
X15600000Y-35510000D02*
X15190000Y-35510000D01*
X15190000Y-35510000D02*
X15000000Y-35700000D01*
X9305000Y-32105000D02*
X10200000Y-33000000D01*
X10200000Y-33600000D02*
X11400000Y-34800000D01*
X13800000Y-35700000D02*
X14400000Y-35700000D01*
X15000000Y-35700000D02*
X14400000Y-35700000D01*
X12900000Y-34800000D02*
X13800000Y-35700000D01*
%TO.N,Net-(D309-K)*%
X12700000Y-38900000D02*
X12700000Y-38500000D01*
X12900000Y-38300000D02*
X12900000Y-37200000D01*
X14200000Y-36740000D02*
X13760000Y-36740000D01*
X13760000Y-36740000D02*
X13300000Y-37200000D01*
X12700000Y-38500000D02*
X12900000Y-38300000D01*
X13300000Y-37200000D02*
X12900000Y-37200000D01*
%TO.N,Net-(D309-A)*%
X9696915Y-41812738D02*
X9587262Y-41812738D01*
X9305000Y-42095000D02*
X9305000Y-42870000D01*
X9587262Y-41812738D02*
X9305000Y-42095000D01*
D73*
X14200000Y-38800000D02*
X14100000Y-38900000D01*
X14200000Y-37760000D02*
X14200000Y-38800000D01*
D77*
X14100000Y-40100000D02*
X14100000Y-38900000D01*
%TO.N,Net-(J102-Pin_1)*%
X-1600000Y41600000D02*
X-1600000Y43100000D01*
%TO.N,Net-(J102-Pin_2)*%
X-2600000Y41600000D02*
X-2600000Y43100000D01*
%TO.N,Net-(J102-Pin_3)*%
X-3600000Y41600000D02*
X-3600000Y43100000D01*
%TO.N,Net-(J102-Pin_4)*%
X-4600000Y41600000D02*
X-4600000Y43100000D01*
%TO.N,Net-(J102-Pin_5)*%
X-5600000Y41600000D02*
X-5600000Y43100000D01*
%TO.N,Net-(J102-Pin_6)*%
X-6600000Y41600000D02*
X-6600000Y43100000D01*
%TO.N,Net-(J102-Pin_7)*%
X-7600000Y41600000D02*
X-7600000Y43100000D01*
D75*
%TO.N,Net-(J105-Pin_2)*%
X-9300000Y33700000D02*
X-9300000Y31100000D01*
X-8500000Y34500000D02*
X-9300000Y33700000D01*
X-8600000Y30400000D02*
X-1835000Y30400000D01*
X-1835000Y30400000D02*
X3065000Y25500000D01*
X4400000Y38900000D02*
X4400000Y36000000D01*
X4400000Y36000000D02*
X2900000Y34500000D01*
X2900000Y34500000D02*
X-8500000Y34500000D01*
X-9300000Y31100000D02*
X-8600000Y30400000D01*
D78*
%TO.N,Net-(J106-Pin_2)*%
X5810000Y-15400000D02*
X6700000Y-15400000D01*
%TO.N,Net-(J106-Pin_3)*%
X5810000Y-14400000D02*
X6700000Y-14400000D01*
%TO.N,/Microcontroller/MISO*%
X1350000Y-16150000D02*
X2875000Y-16150000D01*
X400000Y-17100000D02*
X1350000Y-16150000D01*
%TO.N,/Microcontroller/MOSI*%
X-250000Y-15650000D02*
X2875000Y-15650000D01*
X-800000Y-16200000D02*
X-250000Y-15650000D01*
%TO.N,/Microcontroller/CLK*%
X1950000Y-16650000D02*
X2875000Y-16650000D01*
X1600000Y-18000000D02*
X1600000Y-17000000D01*
X1600000Y-17000000D02*
X1950000Y-16650000D01*
%TO.N,/Microcontroller/CS*%
X4910000Y-17410000D02*
X4650000Y-17150000D01*
X4910000Y-19090000D02*
X4910000Y-17410000D01*
X4650000Y-17150000D02*
X2875000Y-17150000D01*
X4900000Y-19100000D02*
X4910000Y-19090000D01*
%TO.N,Net-(J201-SWDIO)*%
X-10210000Y-19500000D02*
X-10900000Y-19500000D01*
X-11500000Y-20100000D02*
X-12100000Y-20100000D01*
X-10900000Y-19500000D02*
X-11500000Y-20100000D01*
%TO.N,Net-(J201-SWCLK)*%
X-10310000Y-20500000D02*
X-10210000Y-20600000D01*
X-12100000Y-21370000D02*
X-11570000Y-21370000D01*
X-11570000Y-21370000D02*
X-10700000Y-20500000D01*
X-10700000Y-20500000D02*
X-10310000Y-20500000D01*
%TO.N,Net-(J201-SWO)*%
X-11640000Y-22640000D02*
X-10500000Y-21500000D01*
X-10500000Y-21500000D02*
X-10210000Y-21500000D01*
X-12100000Y-22640000D02*
X-11640000Y-22640000D01*
D77*
%TO.N,Net-(J301-Pin_1)*%
X-2575000Y-31762500D02*
X-2575000Y-33525000D01*
X-1400000Y-34700000D02*
X62500Y-34700000D01*
X-2575000Y-33525000D02*
X-1400000Y-34700000D01*
D73*
%TO.N,/Microcontroller/BOOT0*%
X-13650000Y-16900000D02*
X-13800000Y-16750000D01*
D78*
X-12010000Y-17206822D02*
X-11458411Y-17758411D01*
X-4550000Y-7725000D02*
X-4550000Y-6650000D01*
X-12010000Y-16900000D02*
X-12010000Y-17206822D01*
X-4900000Y-6300000D02*
X-6600000Y-6300000D01*
X-4550000Y-6650000D02*
X-4900000Y-6300000D01*
D73*
X-12010000Y-16900000D02*
X-13650000Y-16900000D01*
D78*
%TO.N,/Microcontroller/INT1*%
X3850000Y-15150000D02*
X4100000Y-15400000D01*
X4100000Y-15400000D02*
X4790000Y-15400000D01*
X2875000Y-15150000D02*
X3850000Y-15150000D01*
%TO.N,/Microcontroller/INT2*%
X3867157Y-14650000D02*
X4117157Y-14400000D01*
X4117157Y-14400000D02*
X4790000Y-14400000D01*
X2875000Y-14650000D02*
X3867157Y-14650000D01*
D73*
%TO.N,Net-(R106-Pad2)*%
X-12625000Y1600000D02*
X-12625000Y100000D01*
D77*
%TO.N,/H-Bridge/CURRENT*%
X-3875000Y-26037500D02*
X-3875000Y-27625000D01*
X-3875000Y-27625000D02*
X-2600000Y-28900000D01*
X-2600000Y-28900000D02*
X-425000Y-28900000D01*
D78*
%TO.N,/H-Bridge/COIL_EN*%
X-7700000Y-21571636D02*
X-7671636Y-21600000D01*
X-3050000Y-20850000D02*
X-3050000Y-20750000D01*
D77*
X-14449500Y-35000000D02*
X-14550000Y-35100500D01*
D78*
X4200000Y-20900000D02*
X8400000Y-20900000D01*
X-3050000Y-19075000D02*
X-3050000Y-20750000D01*
X-2300000Y-21800000D02*
X3300000Y-21800000D01*
D77*
X-14550000Y-35100500D02*
X-14550000Y-37200000D01*
D78*
X-3050000Y-21050000D02*
X-3050000Y-20850000D01*
D77*
X10900000Y-35600000D02*
X11400000Y-36100000D01*
D78*
X-3600000Y-21600000D02*
X-3050000Y-21050000D01*
X-3050000Y-21050000D02*
X-2300000Y-21800000D01*
D77*
X11400000Y-36100000D02*
X11400000Y-37200000D01*
D78*
X-7671636Y-21600000D02*
X-3600000Y-21600000D01*
X3300000Y-21800000D02*
X4200000Y-20900000D01*
D77*
%TO.N,/Microcontroller/BUTTON*%
X8790000Y-3910000D02*
X8600000Y-4100000D01*
X450000Y-7725000D02*
X450000Y-6848959D01*
X8600000Y-5500000D02*
X8600000Y-4100000D01*
X7700000Y-6400000D02*
X8600000Y-5500000D01*
X9800000Y-3910000D02*
X8790000Y-3910000D01*
X450000Y-6848959D02*
X898959Y-6400000D01*
X898959Y-6400000D02*
X7700000Y-6400000D01*
%TO.N,/Microcontroller/HSE_OUT*%
X-8475000Y-12150000D02*
X-9750000Y-12150000D01*
X-9750000Y-12150000D02*
X-10300000Y-12700000D01*
X-11440000Y-13450000D02*
X-11490000Y-13500000D01*
X-10300000Y-13200000D02*
X-10550000Y-13450000D01*
X-10550000Y-13450000D02*
X-11440000Y-13450000D01*
X-10300000Y-12700000D02*
X-10300000Y-13200000D01*
D78*
%TO.N,/Microcontroller/SWD_SWCLK*%
X-3600000Y-12450000D02*
X-3600000Y-11300000D01*
X-1800000Y-9500000D02*
X134314Y-9500000D01*
X-5800000Y-15300000D02*
X-5800000Y-14650000D01*
X-8500000Y-20500000D02*
X-9190000Y-20500000D01*
X134314Y-9500000D02*
X950000Y-8684314D01*
X950000Y-8684314D02*
X950000Y-7725000D01*
X-5800000Y-14650000D02*
X-3600000Y-12450000D01*
X-3600000Y-11300000D02*
X-1800000Y-9500000D01*
%TO.N,/Microcontroller/SWD_SWDIO*%
X-2300000Y-11325500D02*
X-2300000Y-13000000D01*
X777345Y-10625500D02*
X801845Y-10650000D01*
X-8800000Y-19500000D02*
X-9190000Y-19500000D01*
X-2300000Y-13000000D02*
X-8800000Y-19500000D01*
X-1600000Y-10625500D02*
X-2300000Y-11325500D01*
X801845Y-10650000D02*
X2875000Y-10650000D01*
%TO.N,/Microcontroller/SWD_SWO*%
X-8616116Y-21500000D02*
X-9190000Y-21500000D01*
X-7875000Y-20758884D02*
X-8616116Y-21500000D01*
X-2050000Y-7725000D02*
X-2050000Y-8650000D01*
X-7930420Y-19547242D02*
X-7875000Y-19602662D01*
X-7875000Y-19602662D02*
X-7875000Y-20758884D01*
X-2050000Y-8650000D02*
X-5900000Y-12500000D01*
D77*
%TO.N,Net-(U302-RDT)*%
X-15050000Y-38240000D02*
X-15510000Y-38700000D01*
X-15050000Y-37200000D02*
X-15050000Y-38240000D01*
%TO.N,Net-(U304-RDT)*%
X10690000Y-38210000D02*
X10900000Y-38000000D01*
X10690000Y-38700000D02*
X10690000Y-38210000D01*
X10900000Y-37200000D02*
X10900000Y-38000000D01*
D78*
%TO.N,/H-Bridge/COIL_PWM1*%
X-5800000Y-17600000D02*
X-4219670Y-17600000D01*
D77*
X-13800000Y-35800000D02*
X-14050000Y-36050000D01*
D78*
X-4219670Y-17600000D02*
X-3550000Y-18269670D01*
X-3550000Y-18269670D02*
X-3550000Y-19075000D01*
D77*
X-14050000Y-36050000D02*
X-14050000Y-37200000D01*
D78*
%TO.N,/H-Bridge/COIL_PWM2*%
X5000000Y-12400000D02*
X4250000Y-13150000D01*
X4250000Y-13150000D02*
X2875000Y-13150000D01*
X6000000Y-12400000D02*
X5000000Y-12400000D01*
D77*
X11900000Y-35499500D02*
X11900000Y-37200000D01*
%TD*%
%TA.AperFunction,Conductor*%
%TO.N,/H-Bridge/BRIDGE2*%
G36*
X7904031Y-31200530D02*
G01*
X7995879Y-31212622D01*
X8013223Y-31214906D01*
X8044491Y-31223284D01*
X8134918Y-31260740D01*
X8162952Y-31276925D01*
X8240602Y-31336509D01*
X8263491Y-31359398D01*
X8323074Y-31437048D01*
X8339259Y-31465081D01*
X8376715Y-31555508D01*
X8385093Y-31586775D01*
X8399469Y-31695964D01*
X8400000Y-31704065D01*
X8400000Y-32499993D01*
X8400001Y-32500009D01*
X8417036Y-32629408D01*
X8417038Y-32629413D01*
X8466984Y-32749995D01*
X8466984Y-32749996D01*
X8466986Y-32749999D01*
X8466987Y-32750000D01*
X8546447Y-32853553D01*
X8650000Y-32933013D01*
X8650003Y-32933014D01*
X8650004Y-32933015D01*
X8710294Y-32957988D01*
X8770590Y-32982963D01*
X8888679Y-32998509D01*
X8890902Y-32998917D01*
X8892516Y-32999090D01*
X8892517Y-32999091D01*
X8893874Y-32999236D01*
X8895668Y-32999430D01*
X8899990Y-32999999D01*
X8899994Y-32999999D01*
X8900000Y-33000000D01*
X8900005Y-33000000D01*
X8902479Y-33000162D01*
X8952127Y-33005500D01*
X9137710Y-33005499D01*
X9145800Y-33006029D01*
X9213226Y-33014906D01*
X9244490Y-33023283D01*
X9322162Y-33055456D01*
X9362388Y-33082334D01*
X9513181Y-33233127D01*
X9546666Y-33294450D01*
X9549500Y-33320808D01*
X9549500Y-33514494D01*
X9547732Y-33530505D01*
X9547974Y-33530528D01*
X9547240Y-33538294D01*
X9549500Y-33610203D01*
X9549500Y-33640920D01*
X9549501Y-33640940D01*
X9550418Y-33648206D01*
X9550876Y-33654024D01*
X9552402Y-33702567D01*
X9552403Y-33702570D01*
X9558323Y-33722948D01*
X9562268Y-33741996D01*
X9564928Y-33763054D01*
X9564930Y-33763061D01*
X9582813Y-33808231D01*
X9584704Y-33813756D01*
X9591039Y-33835560D01*
X9595075Y-33849451D01*
X9600000Y-33884047D01*
X9600000Y-37395934D01*
X9599469Y-37404035D01*
X9585093Y-37513224D01*
X9576715Y-37544491D01*
X9539259Y-37634918D01*
X9523074Y-37662951D01*
X9463491Y-37740601D01*
X9440601Y-37763491D01*
X9362951Y-37823074D01*
X9334918Y-37839259D01*
X9244491Y-37876715D01*
X9213224Y-37885093D01*
X9124783Y-37896737D01*
X9104031Y-37899469D01*
X9095934Y-37900000D01*
X2000000Y-37900000D01*
X1999994Y-37900000D01*
X1999990Y-37900001D01*
X1870591Y-37917036D01*
X1870586Y-37917038D01*
X1750004Y-37966984D01*
X1750003Y-37966984D01*
X1646447Y-38046447D01*
X1566984Y-38150003D01*
X1566984Y-38150004D01*
X1517038Y-38270586D01*
X1517036Y-38270591D01*
X1500001Y-38399990D01*
X1500000Y-38400006D01*
X1500000Y-38491630D01*
X1480315Y-38558669D01*
X1468150Y-38574602D01*
X1357640Y-38697336D01*
X1268250Y-38852164D01*
X1268247Y-38852170D01*
X1213004Y-39022192D01*
X1213003Y-39022194D01*
X1194315Y-39200000D01*
X1213003Y-39377805D01*
X1213004Y-39377807D01*
X1268247Y-39547829D01*
X1268250Y-39547835D01*
X1357641Y-39702665D01*
X1468150Y-39825397D01*
X1498380Y-39888388D01*
X1500000Y-39908369D01*
X1500000Y-40195934D01*
X1499469Y-40204035D01*
X1485093Y-40313224D01*
X1476715Y-40344491D01*
X1439259Y-40434918D01*
X1423074Y-40462951D01*
X1363491Y-40540601D01*
X1340601Y-40563491D01*
X1262951Y-40623074D01*
X1234918Y-40639259D01*
X1144491Y-40676715D01*
X1113224Y-40685093D01*
X1016186Y-40697869D01*
X983814Y-40697869D01*
X886775Y-40685093D01*
X855508Y-40676715D01*
X765081Y-40639259D01*
X737048Y-40623074D01*
X659398Y-40563491D01*
X636508Y-40540601D01*
X576925Y-40462951D01*
X560740Y-40434918D01*
X523284Y-40344491D01*
X514906Y-40313223D01*
X500531Y-40204035D01*
X500000Y-40195933D01*
X500000Y-37378375D01*
X500488Y-37370606D01*
X513711Y-37265801D01*
X521422Y-37235730D01*
X555944Y-37148418D01*
X570883Y-37121204D01*
X626010Y-37045204D01*
X647241Y-37022553D01*
X728566Y-36955126D01*
X734841Y-36950555D01*
X1368438Y-36547358D01*
X1464803Y-36467461D01*
X1538303Y-36366132D01*
X1584330Y-36249722D01*
X1600000Y-36125527D01*
X1600000Y-33504066D01*
X1600531Y-33495964D01*
X1614906Y-33386776D01*
X1623284Y-33355508D01*
X1660740Y-33265081D01*
X1676923Y-33237050D01*
X1736513Y-33159392D01*
X1759392Y-33136513D01*
X1837050Y-33076923D01*
X1865079Y-33060740D01*
X1955509Y-33023283D01*
X1986775Y-33014906D01*
X2095967Y-33000530D01*
X2104067Y-33000000D01*
X2999993Y-33000000D01*
X3000000Y-33000000D01*
X3129410Y-32982963D01*
X3249995Y-32933015D01*
X3249996Y-32933015D01*
X3249996Y-32933014D01*
X3250000Y-32933013D01*
X3353553Y-32853553D01*
X3433013Y-32750000D01*
X3482963Y-32629410D01*
X3500000Y-32500000D01*
X3500000Y-31704065D01*
X3500531Y-31695964D01*
X3514906Y-31586776D01*
X3523284Y-31555508D01*
X3560740Y-31465081D01*
X3576923Y-31437050D01*
X3636513Y-31359392D01*
X3659392Y-31336513D01*
X3737050Y-31276923D01*
X3765079Y-31260740D01*
X3855509Y-31223283D01*
X3886775Y-31214906D01*
X3995967Y-31200530D01*
X4004067Y-31200000D01*
X7895933Y-31200000D01*
X7904031Y-31200530D01*
G37*
%TD.AperFunction*%
%TD*%
%TA.AperFunction,Conductor*%
%TO.N,+BATT*%
G36*
X-7900000Y-27400000D02*
G01*
X-7900000Y-27400006D01*
X-7900000Y-29595933D01*
X-7900530Y-29604031D01*
X-7907852Y-29659641D01*
X-7914906Y-29713223D01*
X-7923284Y-29744491D01*
X-7960740Y-29834918D01*
X-7976925Y-29862951D01*
X-8016482Y-29914503D01*
X-8036508Y-29940601D01*
X-8059398Y-29963491D01*
X-8137048Y-30023074D01*
X-8165081Y-30039259D01*
X-8255508Y-30076715D01*
X-8286775Y-30085093D01*
X-8372457Y-30096374D01*
X-8395968Y-30099469D01*
X-8404066Y-30100000D01*
X-10740243Y-30100000D01*
X-10759639Y-30098473D01*
X-10785405Y-30094392D01*
X-10869659Y-30081047D01*
X-10906554Y-30069059D01*
X-10997004Y-30022973D01*
X-11028391Y-30000169D01*
X-11100169Y-29928391D01*
X-11122973Y-29897004D01*
X-11169059Y-29806554D01*
X-11181047Y-29769659D01*
X-11198473Y-29659641D01*
X-11200000Y-29640242D01*
X-11200000Y-29449995D01*
X-11219029Y-29354329D01*
X-11219029Y-29354328D01*
X-11273223Y-29273223D01*
X-11354327Y-29219030D01*
X-11450000Y-29200000D01*
X-11521481Y-29185781D01*
X-11566179Y-29167267D01*
X-11571975Y-29163394D01*
X-11606269Y-29140479D01*
X-11640481Y-29106268D01*
X-11667267Y-29066179D01*
X-11685781Y-29021482D01*
X-11697617Y-28961982D01*
X-11700000Y-28937789D01*
X-11700000Y-27304065D01*
X-11699469Y-27295964D01*
X-11685093Y-27186775D01*
X-11676715Y-27155508D01*
X-11639259Y-27065081D01*
X-11623074Y-27037048D01*
X-11563491Y-26959398D01*
X-11540602Y-26936509D01*
X-11462952Y-26876925D01*
X-11434918Y-26860740D01*
X-11344491Y-26823284D01*
X-11313223Y-26814906D01*
X-11295879Y-26812622D01*
X-11204031Y-26800530D01*
X-11195933Y-26800000D01*
X-10100007Y-26800000D01*
X-10100000Y-26800000D01*
X-7900000Y-26800000D01*
X-7900000Y-27400000D01*
G37*
%TD.AperFunction*%
%TD*%
%TA.AperFunction,Conductor*%
%TO.N,Net-(J101-Pin_2)*%
G36*
X-8396968Y40399701D02*
G01*
X-8217065Y40381982D01*
X-8193224Y40377240D01*
X-8029001Y40327424D01*
X-8006543Y40318121D01*
X-7855201Y40237227D01*
X-7834989Y40223722D01*
X-7702333Y40114854D01*
X-7685145Y40097666D01*
X-7576277Y39965010D01*
X-7562772Y39944798D01*
X-7481878Y39793456D01*
X-7472576Y39771001D01*
X-7422757Y39606769D01*
X-7418018Y39582941D01*
X-7406310Y39464067D01*
X-7400299Y39403032D01*
X-7400000Y39396951D01*
X-7400000Y37603048D01*
X-7400299Y37596967D01*
X-7418018Y37417056D01*
X-7422757Y37393232D01*
X-7472577Y37228994D01*
X-7481875Y37206549D01*
X-7562775Y37055195D01*
X-7576272Y37034995D01*
X-7685149Y36902328D01*
X-7702328Y36885149D01*
X-7834995Y36776272D01*
X-7855195Y36762775D01*
X-8006549Y36681875D01*
X-8028994Y36672577D01*
X-8193232Y36622757D01*
X-8217056Y36618018D01*
X-8331501Y36606746D01*
X-8396969Y36600299D01*
X-8403049Y36600000D01*
X-10000000Y36600000D01*
X-10195090Y36580785D01*
X-10382683Y36523880D01*
X-10555570Y36431470D01*
X-10707107Y36307107D01*
X-10831470Y36155570D01*
X-10923880Y35982683D01*
X-10980785Y35795090D01*
X-11000000Y35600000D01*
X-11000000Y26614214D01*
X-10980785Y26419123D01*
X-10923880Y26231530D01*
X-10923877Y26231525D01*
X-10923876Y26231522D01*
X-10831473Y26058648D01*
X-10831469Y26058641D01*
X-10707102Y25907101D01*
X-7292898Y22492897D01*
X-7141358Y22368530D01*
X-7141351Y22368526D01*
X-6968477Y22276123D01*
X-6968474Y22276122D01*
X-6968470Y22276120D01*
X-6780877Y22219215D01*
X-6780875Y22219214D01*
X-6780877Y22219214D01*
X-6630280Y22204382D01*
X-6585786Y22200000D01*
X2096951Y22200000D01*
X2103032Y22199701D01*
X2282934Y22181982D01*
X2306775Y22177240D01*
X2470998Y22127424D01*
X2493456Y22118121D01*
X2644798Y22037227D01*
X2665010Y22023722D01*
X2797666Y21914854D01*
X2814854Y21897666D01*
X2923722Y21765010D01*
X2937227Y21744798D01*
X3018121Y21593456D01*
X3027424Y21570998D01*
X3077240Y21406775D01*
X3081982Y21382934D01*
X3099701Y21203032D01*
X3100000Y21196951D01*
X3100000Y20403048D01*
X3099701Y20396967D01*
X3081982Y20217065D01*
X3077240Y20193224D01*
X3027424Y20029001D01*
X3018121Y20006543D01*
X2937227Y19855201D01*
X2923722Y19834989D01*
X2814854Y19702333D01*
X2797666Y19685145D01*
X2665010Y19576277D01*
X2644799Y19562773D01*
X2493453Y19481877D01*
X2471001Y19472576D01*
X2306769Y19422757D01*
X2282941Y19418018D01*
X2164067Y19406310D01*
X2103032Y19400299D01*
X2096951Y19400000D01*
X-14896951Y19400000D01*
X-14903032Y19400299D01*
X-14964067Y19406310D01*
X-15082941Y19418018D01*
X-15106769Y19422757D01*
X-15271001Y19472576D01*
X-15293453Y19481877D01*
X-15444799Y19562773D01*
X-15465010Y19576277D01*
X-15597666Y19685145D01*
X-15614854Y19702333D01*
X-15723722Y19834989D01*
X-15737227Y19855201D01*
X-15818121Y20006543D01*
X-15827424Y20029001D01*
X-15877240Y20193224D01*
X-15881982Y20217065D01*
X-15899701Y20396967D01*
X-15900000Y20403048D01*
X-15900000Y39396951D01*
X-15899701Y39403032D01*
X-15881982Y39582934D01*
X-15877240Y39606775D01*
X-15827424Y39770998D01*
X-15818121Y39793456D01*
X-15737227Y39944798D01*
X-15723722Y39965010D01*
X-15614854Y40097666D01*
X-15597666Y40114854D01*
X-15465010Y40223722D01*
X-15444798Y40237227D01*
X-15293456Y40318121D01*
X-15270998Y40327424D01*
X-15106775Y40377240D01*
X-15082934Y40381982D01*
X-14903032Y40399701D01*
X-14896951Y40400000D01*
X-8403049Y40400000D01*
X-8396968Y40399701D01*
G37*
%TD.AperFunction*%
%TD*%
%TA.AperFunction,Conductor*%
%TO.N,Net-(U101-VSENSE)*%
G36*
X-2388020Y5297617D02*
G01*
X-2309387Y5281976D01*
X-2264687Y5263461D01*
X-2208376Y5225835D01*
X-2174165Y5191623D01*
X-2146397Y5150065D01*
X-2125519Y5083388D01*
X-2125499Y5081175D01*
X-2125499Y4597129D01*
X-2125498Y4597123D01*
X-2119091Y4537516D01*
X-2107818Y4507292D01*
X-2100000Y4463959D01*
X-2100000Y4299994D01*
X-2080424Y4176395D01*
X-2080423Y4176393D01*
X-2023607Y4064886D01*
X-2023603Y4064882D01*
X-2023602Y4064880D01*
X-1935119Y3976397D01*
X-1935116Y3976395D01*
X-1935114Y3976393D01*
X-1823607Y3919577D01*
X-1700000Y3900000D01*
X-1595792Y3883495D01*
X-1558895Y3871507D01*
X-1482383Y3832522D01*
X-1450997Y3809718D01*
X-1390281Y3749002D01*
X-1367477Y3717616D01*
X-1328492Y3641104D01*
X-1316504Y3604206D01*
X-1301527Y3509641D01*
X-1300000Y3490244D01*
X-1300000Y3404066D01*
X-1300531Y3395964D01*
X-1314906Y3286776D01*
X-1323284Y3255508D01*
X-1360740Y3165081D01*
X-1376923Y3137050D01*
X-1436513Y3059392D01*
X-1459392Y3036513D01*
X-1537050Y2976923D01*
X-1565079Y2960740D01*
X-1655508Y2923284D01*
X-1686775Y2914906D01*
X-1795967Y2900530D01*
X-1804067Y2900000D01*
X-2995933Y2900000D01*
X-3004031Y2900530D01*
X-3113223Y2914906D01*
X-3144491Y2923284D01*
X-3234918Y2960740D01*
X-3262951Y2976925D01*
X-3288526Y2996549D01*
X-3340602Y3036509D01*
X-3363491Y3059398D01*
X-3423074Y3137048D01*
X-3439259Y3165081D01*
X-3476715Y3255508D01*
X-3485093Y3286775D01*
X-3499469Y3395964D01*
X-3500000Y3404065D01*
X-3500000Y3858620D01*
X-3501703Y3899851D01*
X-3506803Y3940819D01*
X-3593197Y4459183D01*
X-3597979Y4497601D01*
X-3598402Y4502702D01*
X-3598592Y4507292D01*
X-3600000Y4541381D01*
X-3600000Y4890244D01*
X-3598473Y4909642D01*
X-3583495Y5004207D01*
X-3571507Y5041104D01*
X-3532522Y5117616D01*
X-3509718Y5149002D01*
X-3449002Y5209718D01*
X-3417616Y5232522D01*
X-3341104Y5271507D01*
X-3304207Y5283495D01*
X-3215046Y5297617D01*
X-3209640Y5298473D01*
X-3190244Y5300000D01*
X-2412211Y5300000D01*
X-2388020Y5297617D01*
G37*
%TD.AperFunction*%
%TD*%
%TA.AperFunction,Conductor*%
%TO.N,Net-(D101-K)*%
G36*
X2900000Y10207113D02*
G01*
X2900001Y10207097D01*
X2917036Y10077698D01*
X2917038Y10077693D01*
X2966984Y9957111D01*
X2966987Y9957106D01*
X3046445Y9853554D01*
X3046450Y9853548D01*
X3150672Y9749328D01*
X3156025Y9743224D01*
X3223075Y9655842D01*
X3239260Y9627808D01*
X3276715Y9537383D01*
X3285093Y9506117D01*
X3299469Y9396928D01*
X3300000Y9388827D01*
X3300000Y9004065D01*
X3299469Y8995964D01*
X3285093Y8886775D01*
X3276715Y8855508D01*
X3239259Y8765081D01*
X3223074Y8737048D01*
X3163491Y8659398D01*
X3140602Y8636509D01*
X3088526Y8596549D01*
X3062951Y8576925D01*
X3034918Y8560740D01*
X2944491Y8523284D01*
X2913223Y8514906D01*
X2804031Y8500530D01*
X2795933Y8500000D01*
X2304067Y8500000D01*
X2295967Y8500530D01*
X2186775Y8514906D01*
X2155508Y8523284D01*
X2065079Y8560740D01*
X2037050Y8576923D01*
X1959392Y8636513D01*
X1936513Y8659392D01*
X1876923Y8737050D01*
X1860740Y8765081D01*
X1834938Y8827372D01*
X1825499Y8874825D01*
X1825499Y9192870D01*
X1825499Y9192873D01*
X1819091Y9252483D01*
X1768796Y9387331D01*
X1768794Y9387333D01*
X1764545Y9395116D01*
X1765072Y9395403D01*
X1756626Y9410344D01*
X1735102Y9463248D01*
X1735100Y9463254D01*
X1657985Y9565970D01*
X1557248Y9645651D01*
X546182Y10252291D01*
X539615Y10256829D01*
X454607Y10324069D01*
X432376Y10346868D01*
X374537Y10423908D01*
X358849Y10451617D01*
X322547Y10540845D01*
X314434Y10571644D01*
X300514Y10679127D01*
X300000Y10687098D01*
X300000Y11000000D01*
X2900000Y11000000D01*
X2900000Y10207113D01*
G37*
%TD.AperFunction*%
%TD*%
%TA.AperFunction,Conductor*%
%TO.N,GND*%
G36*
X7504031Y5999469D02*
G01*
X7524783Y5996737D01*
X7613224Y5985093D01*
X7644491Y5976715D01*
X7734918Y5939259D01*
X7762951Y5923074D01*
X7840601Y5863491D01*
X7863491Y5840601D01*
X7923074Y5762951D01*
X7939259Y5734918D01*
X7976715Y5644491D01*
X7985093Y5613224D01*
X7999469Y5504035D01*
X8000000Y5495934D01*
X8000000Y1904065D01*
X7999469Y1895964D01*
X7985093Y1786775D01*
X7976715Y1755508D01*
X7939259Y1665081D01*
X7923074Y1637048D01*
X7863491Y1559398D01*
X7840602Y1536509D01*
X7793024Y1500001D01*
X7762951Y1476925D01*
X7734918Y1460740D01*
X7644491Y1423284D01*
X7613223Y1414906D01*
X7504031Y1400530D01*
X7495933Y1400000D01*
X3007107Y1400000D01*
X2877697Y1382963D01*
X2817402Y1357988D01*
X2757111Y1333015D01*
X2757109Y1333013D01*
X2757107Y1333013D01*
X2757106Y1333012D01*
X2653554Y1253554D01*
X2653547Y1253548D01*
X449328Y-950672D01*
X443224Y-956025D01*
X355842Y-1023075D01*
X327808Y-1039260D01*
X237383Y-1076715D01*
X206117Y-1085093D01*
X117676Y-1096737D01*
X96924Y-1099469D01*
X88827Y-1100000D01*
X-2695934Y-1100000D01*
X-2704031Y-1099469D01*
X-2724783Y-1096737D01*
X-2813224Y-1085093D01*
X-2844491Y-1076715D01*
X-2934918Y-1039259D01*
X-2962951Y-1023074D01*
X-3040601Y-963491D01*
X-3063491Y-940601D01*
X-3123074Y-862951D01*
X-3139259Y-834918D01*
X-3176715Y-744491D01*
X-3185093Y-713224D01*
X-3199469Y-604035D01*
X-3200000Y-595934D01*
X-3200000Y995934D01*
X-3199469Y1004035D01*
X-3185093Y1113224D01*
X-3176715Y1144491D01*
X-3139259Y1234918D01*
X-3123074Y1262951D01*
X-3063491Y1340601D01*
X-3040601Y1363491D01*
X-2962951Y1423074D01*
X-2934918Y1439259D01*
X-2844491Y1476715D01*
X-2813224Y1485093D01*
X-2724783Y1496737D01*
X-2704031Y1499469D01*
X-2695934Y1500000D01*
X-1000007Y1500000D01*
X-1000000Y1500000D01*
X-999994Y1500000D01*
X-999990Y1500001D01*
X-870591Y1517036D01*
X-870586Y1517038D01*
X-750004Y1566984D01*
X-750003Y1566984D01*
X-646447Y1646447D01*
X-566984Y1750003D01*
X-566984Y1750004D01*
X-517038Y1870586D01*
X-517036Y1870591D01*
X-500001Y1999990D01*
X-500000Y2000006D01*
X-500000Y3692886D01*
X-500001Y3692902D01*
X-517036Y3822301D01*
X-517038Y3822306D01*
X-566984Y3942888D01*
X-566987Y3942893D01*
X-646445Y4046445D01*
X-646451Y4046452D01*
X-1058573Y4458574D01*
X-1058580Y4458580D01*
X-1158579Y4535311D01*
X-1275031Y4583548D01*
X-1397996Y4599736D01*
X-1401975Y4600392D01*
X-1452343Y4610411D01*
X-1497041Y4628926D01*
X-1519390Y4643859D01*
X-1564196Y4697471D01*
X-1574500Y4746961D01*
X-1574500Y5325174D01*
X-1565061Y5372626D01*
X-1539260Y5434916D01*
X-1523075Y5462951D01*
X-1463491Y5540602D01*
X-1440601Y5563491D01*
X-1362951Y5623074D01*
X-1334918Y5639259D01*
X-1244491Y5676715D01*
X-1213224Y5685093D01*
X-1124783Y5696737D01*
X-1104031Y5699469D01*
X-1095934Y5700000D01*
X795934Y5700000D01*
X804031Y5699469D01*
X824783Y5696737D01*
X913224Y5685093D01*
X944491Y5676715D01*
X1034918Y5639259D01*
X1062951Y5623074D01*
X1140601Y5563491D01*
X1163491Y5540602D01*
X1223075Y5462951D01*
X1239260Y5434917D01*
X1265061Y5372629D01*
X1274500Y5325176D01*
X1274500Y4642129D01*
X1274501Y4642123D01*
X1280908Y4582516D01*
X1331202Y4447671D01*
X1331206Y4447664D01*
X1417452Y4332455D01*
X1417455Y4332452D01*
X1532664Y4246206D01*
X1532671Y4246202D01*
X1667517Y4195908D01*
X1667516Y4195908D01*
X1727116Y4189501D01*
X1727119Y4189500D01*
X1727127Y4189500D01*
X1727134Y4189500D01*
X1727135Y4189500D01*
X3372870Y4189500D01*
X3372876Y4189501D01*
X3432484Y4195909D01*
X3453970Y4203922D01*
X3481113Y4210678D01*
X3521117Y4215945D01*
X3529410Y4217037D01*
X3529411Y4217037D01*
X3529413Y4217038D01*
X3649995Y4266984D01*
X3649996Y4266984D01*
X3650000Y4266987D01*
X3753553Y4346447D01*
X3833013Y4450000D01*
X3833015Y4450003D01*
X3833015Y4450004D01*
X3882961Y4570586D01*
X3882963Y4570591D01*
X3892609Y4643859D01*
X3900000Y4700000D01*
X3900000Y5495934D01*
X3900531Y5504035D01*
X3914906Y5613223D01*
X3923284Y5644491D01*
X3960740Y5734918D01*
X3976925Y5762951D01*
X4036508Y5840601D01*
X4059398Y5863491D01*
X4137048Y5923074D01*
X4165081Y5939259D01*
X4255508Y5976715D01*
X4286775Y5985093D01*
X4372457Y5996374D01*
X4395968Y5999469D01*
X4404066Y6000000D01*
X7495934Y6000000D01*
X7504031Y5999469D01*
G37*
%TD.AperFunction*%
%TD*%
%TA.AperFunction,Conductor*%
%TO.N,GND*%
G36*
X11211971Y-41202381D02*
G01*
X11252346Y-41210412D01*
X11297043Y-41228927D01*
X11320913Y-41244877D01*
X11355122Y-41279086D01*
X11371072Y-41302956D01*
X11389588Y-41347656D01*
X11400000Y-41400000D01*
X11415224Y-41476537D01*
X11458578Y-41541421D01*
X11523463Y-41584776D01*
X11523464Y-41584777D01*
X11599995Y-41599999D01*
X11599999Y-41600000D01*
X11600000Y-41600000D01*
X13395933Y-41600000D01*
X13404031Y-41600530D01*
X13495879Y-41612622D01*
X13513223Y-41614906D01*
X13544491Y-41623284D01*
X13634918Y-41660740D01*
X13662952Y-41676925D01*
X13740602Y-41736509D01*
X13763491Y-41759398D01*
X13823074Y-41837048D01*
X13839259Y-41865081D01*
X13876715Y-41955508D01*
X13885093Y-41986775D01*
X13899469Y-42095964D01*
X13900000Y-42104065D01*
X13900000Y-45995934D01*
X13899469Y-46004035D01*
X13885093Y-46113224D01*
X13876715Y-46144491D01*
X13839259Y-46234918D01*
X13823074Y-46262951D01*
X13763491Y-46340601D01*
X13740601Y-46363491D01*
X13662951Y-46423074D01*
X13634918Y-46439259D01*
X13544491Y-46476715D01*
X13513224Y-46485093D01*
X13424783Y-46496737D01*
X13404031Y-46499469D01*
X13395934Y-46500000D01*
X5704066Y-46500000D01*
X5695968Y-46499469D01*
X5672457Y-46496374D01*
X5586775Y-46485093D01*
X5555508Y-46476715D01*
X5465081Y-46439259D01*
X5437048Y-46423074D01*
X5359398Y-46363491D01*
X5336508Y-46340601D01*
X5276925Y-46262951D01*
X5260740Y-46234918D01*
X5223284Y-46144491D01*
X5214906Y-46113223D01*
X5200531Y-46004035D01*
X5200000Y-45995933D01*
X5200000Y-42704066D01*
X5200531Y-42695964D01*
X5214906Y-42586776D01*
X5223284Y-42555508D01*
X5260740Y-42465081D01*
X5276923Y-42437050D01*
X5336513Y-42359392D01*
X5359392Y-42336513D01*
X5437050Y-42276923D01*
X5465079Y-42260740D01*
X5555509Y-42223283D01*
X5586775Y-42214906D01*
X5695967Y-42200530D01*
X5704067Y-42200000D01*
X7895933Y-42200000D01*
X7904031Y-42200530D01*
X7995879Y-42212622D01*
X8013223Y-42214906D01*
X8044491Y-42223284D01*
X8134918Y-42260740D01*
X8162952Y-42276925D01*
X8240602Y-42336509D01*
X8263491Y-42359398D01*
X8323074Y-42437048D01*
X8339259Y-42465081D01*
X8376715Y-42555508D01*
X8385093Y-42586775D01*
X8399469Y-42695964D01*
X8400000Y-42704065D01*
X8400000Y-43399993D01*
X8400001Y-43400009D01*
X8417036Y-43529408D01*
X8417038Y-43529413D01*
X8466984Y-43649995D01*
X8466984Y-43649996D01*
X8466986Y-43649999D01*
X8466987Y-43650000D01*
X8546447Y-43753553D01*
X8566772Y-43769149D01*
X8590549Y-43793211D01*
X8642452Y-43862544D01*
X8642455Y-43862547D01*
X8757664Y-43948793D01*
X8757671Y-43948797D01*
X8802618Y-43965560D01*
X8892517Y-43999091D01*
X8952127Y-44005500D01*
X9657872Y-44005499D01*
X9717483Y-43999091D01*
X9852331Y-43948796D01*
X9895287Y-43916638D01*
X9953408Y-43892968D01*
X10029410Y-43882963D01*
X10149995Y-43833015D01*
X10149996Y-43833015D01*
X10149996Y-43833014D01*
X10150000Y-43833013D01*
X10253553Y-43753553D01*
X10333013Y-43650000D01*
X10382963Y-43529410D01*
X10400000Y-43400000D01*
X10400000Y-42279184D01*
X10416614Y-42217183D01*
X10433967Y-42187127D01*
X10455201Y-42150349D01*
X10508823Y-41985314D01*
X10526962Y-41812738D01*
X10508823Y-41640162D01*
X10473129Y-41530307D01*
X10471135Y-41460471D01*
X10492683Y-41416512D01*
X10536513Y-41359392D01*
X10559392Y-41336513D01*
X10637050Y-41276923D01*
X10665079Y-41260740D01*
X10755509Y-41223283D01*
X10786775Y-41214906D01*
X10895967Y-41200530D01*
X10904067Y-41200000D01*
X11187789Y-41200000D01*
X11211971Y-41202381D01*
G37*
%TD.AperFunction*%
%TD*%
%TA.AperFunction,Conductor*%
%TO.N,+3.3V*%
G36*
X-395967Y-25300530D02*
G01*
X-286775Y-25314906D01*
X-255509Y-25323283D01*
X-165079Y-25360740D01*
X-137050Y-25376923D01*
X-59392Y-25436513D01*
X-36513Y-25459392D01*
X23076Y-25537050D01*
X39260Y-25565081D01*
X76716Y-25655508D01*
X85093Y-25686773D01*
X97870Y-25783820D01*
X97870Y-25816179D01*
X85094Y-25913224D01*
X76716Y-25944491D01*
X39260Y-26034918D01*
X23075Y-26062951D01*
X-36508Y-26140601D01*
X-59398Y-26163491D01*
X-137048Y-26223074D01*
X-165081Y-26239259D01*
X-255508Y-26276715D01*
X-286775Y-26285093D01*
X-372457Y-26296374D01*
X-395968Y-26299469D01*
X-404066Y-26300000D01*
X-992893Y-26300000D01*
X-992899Y-26300000D01*
X-992902Y-26300001D01*
X-1122301Y-26317036D01*
X-1122306Y-26317038D01*
X-1242888Y-26366984D01*
X-1242893Y-26366987D01*
X-1346445Y-26446445D01*
X-1346451Y-26446450D01*
X-1550671Y-26650671D01*
X-1556775Y-26656025D01*
X-1644157Y-26723075D01*
X-1672191Y-26739260D01*
X-1762616Y-26776715D01*
X-1793882Y-26785093D01*
X-1879564Y-26796374D01*
X-1903075Y-26799469D01*
X-1911173Y-26800000D01*
X-2295934Y-26800000D01*
X-2304031Y-26799469D01*
X-2324783Y-26796737D01*
X-2413224Y-26785093D01*
X-2444491Y-26776715D01*
X-2534918Y-26739259D01*
X-2562951Y-26723074D01*
X-2640601Y-26663491D01*
X-2663490Y-26640602D01*
X-2698875Y-26594488D01*
X-2724070Y-26529319D01*
X-2724500Y-26519001D01*
X-2724500Y-25580998D01*
X-2704815Y-25513959D01*
X-2698875Y-25505511D01*
X-2663490Y-25459397D01*
X-2640602Y-25436509D01*
X-2562952Y-25376925D01*
X-2534918Y-25360740D01*
X-2444491Y-25323284D01*
X-2413223Y-25314906D01*
X-2395879Y-25312622D01*
X-2304031Y-25300530D01*
X-2295933Y-25300000D01*
X-404067Y-25300000D01*
X-395967Y-25300530D01*
G37*
%TD.AperFunction*%
%TD*%
%TA.AperFunction,Conductor*%
%TO.N,+BATT*%
G36*
X8604031Y23899469D02*
G01*
X8624783Y23896737D01*
X8713224Y23885093D01*
X8744491Y23876715D01*
X8834918Y23839259D01*
X8862951Y23823074D01*
X8940601Y23763491D01*
X8963491Y23740601D01*
X9023074Y23662951D01*
X9039259Y23634918D01*
X9076715Y23544491D01*
X9085093Y23513224D01*
X9099469Y23404035D01*
X9100000Y23395934D01*
X9100000Y21600006D01*
X9100001Y21599990D01*
X9117036Y21470591D01*
X9117038Y21470586D01*
X9166984Y21350004D01*
X9166984Y21350003D01*
X9246447Y21246447D01*
X9350004Y21166984D01*
X9470586Y21117038D01*
X9470591Y21117036D01*
X9599990Y21100001D01*
X9599994Y21100000D01*
X9600000Y21100000D01*
X10195934Y21100000D01*
X10204031Y21099469D01*
X10224783Y21096737D01*
X10313224Y21085093D01*
X10344491Y21076715D01*
X10434918Y21039259D01*
X10462951Y21023074D01*
X10540601Y20963491D01*
X10563491Y20940601D01*
X10623074Y20862951D01*
X10639259Y20834918D01*
X10676715Y20744491D01*
X10685093Y20713224D01*
X10699469Y20604035D01*
X10700000Y20595934D01*
X10700000Y20304065D01*
X10699469Y20295964D01*
X10685093Y20186775D01*
X10676715Y20155508D01*
X10639259Y20065081D01*
X10623074Y20037048D01*
X10563491Y19959398D01*
X10540602Y19936509D01*
X10488526Y19896549D01*
X10462951Y19876925D01*
X10434918Y19860740D01*
X10344491Y19823284D01*
X10313223Y19814906D01*
X10204031Y19800530D01*
X10195933Y19800000D01*
X7800000Y19800000D01*
X7670590Y19782963D01*
X7610295Y19757988D01*
X7550004Y19733015D01*
X7550003Y19733015D01*
X7550000Y19733013D01*
X7446447Y19653553D01*
X7366987Y19550000D01*
X7366984Y19549996D01*
X7366984Y19549995D01*
X7317038Y19429413D01*
X7317036Y19429408D01*
X7300001Y19300009D01*
X7300000Y19299993D01*
X7300000Y16604065D01*
X7299469Y16595964D01*
X7285093Y16486775D01*
X7276715Y16455508D01*
X7239259Y16365081D01*
X7223074Y16337048D01*
X7163491Y16259398D01*
X7140602Y16236509D01*
X7088526Y16196549D01*
X7062951Y16176925D01*
X7034918Y16160740D01*
X6944491Y16123284D01*
X6913223Y16114906D01*
X6804031Y16100530D01*
X6795933Y16100000D01*
X5000000Y16100000D01*
X4870590Y16082963D01*
X4810295Y16057988D01*
X4750004Y16033015D01*
X4750003Y16033015D01*
X4750000Y16033013D01*
X4646447Y15953553D01*
X4566987Y15850000D01*
X4566984Y15849996D01*
X4566984Y15849995D01*
X4517038Y15729413D01*
X4517036Y15729408D01*
X4500001Y15600009D01*
X4500000Y15600000D01*
X4500000Y14700000D01*
X1700000Y14700000D01*
X1700000Y17500000D01*
X1700000Y17940242D01*
X1701527Y17959640D01*
X1718952Y18069658D01*
X1730940Y18106554D01*
X1777026Y18197004D01*
X1799830Y18228391D01*
X1871608Y18300169D01*
X1902995Y18322973D01*
X1993445Y18369059D01*
X2030340Y18381047D01*
X2107343Y18393243D01*
X2140360Y18398473D01*
X2159757Y18400000D01*
X4400005Y18400000D01*
X4523604Y18419575D01*
X4559329Y18437778D01*
X4635114Y18476393D01*
X4635116Y18476395D01*
X4635119Y18476397D01*
X4723602Y18564880D01*
X4723603Y18564882D01*
X4723607Y18564886D01*
X4780423Y18676393D01*
X4780424Y18676395D01*
X4800000Y18799994D01*
X4800000Y18988826D01*
X4800531Y18996928D01*
X4814906Y19106116D01*
X4823284Y19137383D01*
X4860739Y19227808D01*
X4876924Y19255842D01*
X4943974Y19343224D01*
X4949319Y19349319D01*
X6717038Y21117038D01*
X7353548Y21753547D01*
X7353554Y21753554D01*
X7433012Y21857106D01*
X7433015Y21857111D01*
X7482961Y21977693D01*
X7482963Y21977698D01*
X7500000Y22107107D01*
X7500000Y23395934D01*
X7500531Y23404035D01*
X7514906Y23513223D01*
X7523284Y23544491D01*
X7560740Y23634918D01*
X7576925Y23662951D01*
X7636508Y23740601D01*
X7659398Y23763491D01*
X7737048Y23823074D01*
X7765081Y23839259D01*
X7855508Y23876715D01*
X7886775Y23885093D01*
X7972457Y23896374D01*
X7995968Y23899469D01*
X8004066Y23900000D01*
X8595934Y23900000D01*
X8604031Y23899469D01*
G37*
%TD.AperFunction*%
%TD*%
%TA.AperFunction,Conductor*%
%TO.N,+12V*%
G36*
X15461980Y-30702383D02*
G01*
X15521480Y-30714218D01*
X15566175Y-30732730D01*
X15606272Y-30759522D01*
X15640477Y-30793727D01*
X15667267Y-30833822D01*
X15685781Y-30878517D01*
X15689542Y-30897427D01*
X15697617Y-30938019D01*
X15700000Y-30962210D01*
X15700000Y-32337789D01*
X15697617Y-32361982D01*
X15685781Y-32421482D01*
X15667267Y-32466179D01*
X15640481Y-32506268D01*
X15606269Y-32540479D01*
X15571975Y-32563394D01*
X15566179Y-32567267D01*
X15521482Y-32585781D01*
X15487857Y-32592469D01*
X15461978Y-32597617D01*
X15437789Y-32600000D01*
X13349995Y-32600000D01*
X13254329Y-32619029D01*
X13254328Y-32619029D01*
X13173223Y-32673223D01*
X13119029Y-32754328D01*
X13119029Y-32754329D01*
X13100000Y-32849995D01*
X13100000Y-33287789D01*
X13097617Y-33311980D01*
X13096117Y-33319521D01*
X13063732Y-33381432D01*
X13003017Y-33416006D01*
X12933247Y-33412267D01*
X12876575Y-33371400D01*
X12850994Y-33306382D01*
X12850500Y-33295330D01*
X12850500Y-32224000D01*
X12870185Y-32156961D01*
X12922989Y-32111206D01*
X12974500Y-32100000D01*
X13450001Y-32100000D01*
X13450002Y-32099999D01*
X13545671Y-32080970D01*
X13626777Y-32026777D01*
X13680970Y-31945671D01*
X13700000Y-31850000D01*
X13700000Y-30962210D01*
X13702383Y-30938019D01*
X13714218Y-30878517D01*
X13732729Y-30833826D01*
X13759524Y-30793724D01*
X13793724Y-30759524D01*
X13833826Y-30732729D01*
X13878514Y-30714219D01*
X13938028Y-30702381D01*
X13962211Y-30700000D01*
X15437789Y-30700000D01*
X15461980Y-30702383D01*
G37*
%TD.AperFunction*%
%TD*%
%TA.AperFunction,Conductor*%
%TO.N,/H-Bridge/BRIDGE1*%
G36*
X-6895967Y-31200530D02*
G01*
X-6817450Y-31210867D01*
X-6753555Y-31239133D01*
X-6715707Y-31295485D01*
X-6691295Y-31370620D01*
X-6604531Y-31520898D01*
X-6488419Y-31649854D01*
X-6451113Y-31676958D01*
X-6408450Y-31732284D01*
X-6400000Y-31777274D01*
X-6400000Y-32500000D01*
X-6382963Y-32629410D01*
X-6333013Y-32750000D01*
X-6253553Y-32853553D01*
X-6150000Y-32933013D01*
X-6029410Y-32982963D01*
X-5911315Y-32998510D01*
X-5909108Y-32998916D01*
X-5907485Y-32999090D01*
X-5907483Y-32999091D01*
X-5904288Y-32999434D01*
X-5900000Y-33000000D01*
X-5899979Y-33000000D01*
X-5897539Y-33000160D01*
X-5847873Y-33005500D01*
X-5662281Y-33005499D01*
X-5654203Y-33006029D01*
X-5586773Y-33014906D01*
X-5555509Y-33023283D01*
X-5465079Y-33060740D01*
X-5437050Y-33076923D01*
X-5359392Y-33136513D01*
X-5336513Y-33159392D01*
X-5276923Y-33237050D01*
X-5260740Y-33265081D01*
X-5223284Y-33355508D01*
X-5214906Y-33386776D01*
X-5200531Y-33495964D01*
X-5200000Y-33504066D01*
X-5200000Y-37395933D01*
X-5200531Y-37404035D01*
X-5214906Y-37513223D01*
X-5223284Y-37544491D01*
X-5260740Y-37634918D01*
X-5276925Y-37662951D01*
X-5336508Y-37740601D01*
X-5359398Y-37763491D01*
X-5437048Y-37823074D01*
X-5465081Y-37839259D01*
X-5555508Y-37876715D01*
X-5586775Y-37885093D01*
X-5672457Y-37896374D01*
X-5695968Y-37899469D01*
X-5704066Y-37900000D01*
X-9095934Y-37900000D01*
X-9104031Y-37899469D01*
X-9124783Y-37896737D01*
X-9213224Y-37885093D01*
X-9244491Y-37876715D01*
X-9334918Y-37839259D01*
X-9362951Y-37823074D01*
X-9440601Y-37763491D01*
X-9463491Y-37740601D01*
X-9523074Y-37662951D01*
X-9539259Y-37634918D01*
X-9576715Y-37544491D01*
X-9585093Y-37513224D01*
X-9599469Y-37404035D01*
X-9600000Y-37395934D01*
X-9599999Y-35813653D01*
X-9595076Y-35779059D01*
X-9582334Y-35735202D01*
X-9579500Y-35699183D01*
X-9579501Y-35300819D01*
X-9582334Y-35264797D01*
X-9595077Y-35220936D01*
X-9600000Y-35186343D01*
X-9600000Y-34793653D01*
X-9595076Y-34759060D01*
X-9582335Y-34715204D01*
X-9582334Y-34715202D01*
X-9579500Y-34679183D01*
X-9579501Y-34280819D01*
X-9582334Y-34244797D01*
X-9595077Y-34200936D01*
X-9600000Y-34166343D01*
X-9600000Y-33509767D01*
X-9593931Y-33471452D01*
X-9572657Y-33405978D01*
X-9563503Y-33377804D01*
X-9544815Y-33200000D01*
X-9563503Y-33022194D01*
X-9563504Y-33022192D01*
X-9593931Y-32928549D01*
X-9600000Y-32890231D01*
X-9600000Y-31704065D01*
X-9599469Y-31695964D01*
X-9585093Y-31586775D01*
X-9576715Y-31555508D01*
X-9539259Y-31465081D01*
X-9523074Y-31437048D01*
X-9463491Y-31359398D01*
X-9440602Y-31336509D01*
X-9362952Y-31276925D01*
X-9334918Y-31260740D01*
X-9244491Y-31223284D01*
X-9213223Y-31214906D01*
X-9182544Y-31210867D01*
X-9104031Y-31200530D01*
X-9095933Y-31200000D01*
X-6904067Y-31200000D01*
X-6895967Y-31200530D01*
G37*
%TD.AperFunction*%
%TD*%
%TA.AperFunction,Conductor*%
%TO.N,+12V*%
G36*
X-12021426Y-30719685D02*
G01*
X-12000784Y-30736319D01*
X-11836319Y-30900784D01*
X-11802834Y-30962107D01*
X-11800000Y-30988465D01*
X-11800000Y-31700001D01*
X-11799999Y-31700004D01*
X-11784777Y-31776535D01*
X-11784776Y-31776535D01*
X-11784776Y-31776537D01*
X-11741421Y-31841421D01*
X-11676537Y-31884776D01*
X-11600000Y-31900000D01*
X-11547651Y-31910412D01*
X-11502956Y-31928927D01*
X-11479086Y-31944877D01*
X-11444877Y-31979086D01*
X-11428927Y-32002956D01*
X-11410412Y-32047651D01*
X-11402881Y-32085516D01*
X-11400500Y-32109696D01*
X-11400500Y-32523066D01*
X-11400270Y-32525517D01*
X-11400000Y-32531296D01*
X-11400000Y-32550001D01*
X-11399999Y-32550004D01*
X-11380970Y-32645670D01*
X-11380970Y-32645671D01*
X-11326776Y-32726778D01*
X-11322768Y-32730786D01*
X-11296533Y-32755820D01*
X-11274999Y-32784999D01*
X-11274994Y-32785002D01*
X-11274993Y-32785004D01*
X-11236127Y-32813687D01*
X-11168157Y-32863852D01*
X-11113641Y-32882927D01*
X-11111761Y-32883586D01*
X-11054985Y-32924307D01*
X-11029238Y-32989260D01*
X-11035553Y-33035626D01*
X-11034442Y-33035900D01*
X-11036235Y-33043178D01*
X-11036237Y-33043182D01*
X-11055278Y-33200000D01*
X-11036237Y-33356818D01*
X-11036235Y-33356821D01*
X-11035802Y-33360394D01*
X-11047262Y-33429317D01*
X-11094166Y-33481104D01*
X-11134707Y-33496958D01*
X-11138020Y-33497617D01*
X-11162211Y-33500000D01*
X-12937789Y-33500000D01*
X-12961977Y-33497617D01*
X-12985688Y-33492901D01*
X-12999694Y-33490115D01*
X-13061604Y-33457729D01*
X-13096177Y-33397012D01*
X-13099500Y-33368498D01*
X-13099500Y-32131501D01*
X-13079815Y-32064462D01*
X-13027011Y-32018707D01*
X-12999691Y-32009884D01*
X-12961980Y-32002383D01*
X-12937789Y-32000000D01*
X-12849999Y-32000000D01*
X-12849995Y-31999999D01*
X-12754329Y-31980970D01*
X-12754328Y-31980970D01*
X-12700312Y-31944877D01*
X-12673223Y-31926777D01*
X-12645158Y-31884775D01*
X-12619029Y-31845671D01*
X-12619029Y-31845670D01*
X-12600000Y-31750004D01*
X-12600000Y-30962210D01*
X-12597617Y-30938022D01*
X-12585781Y-30878517D01*
X-12567267Y-30833822D01*
X-12540477Y-30793727D01*
X-12506272Y-30759522D01*
X-12466175Y-30732730D01*
X-12421480Y-30714218D01*
X-12361980Y-30702383D01*
X-12337789Y-30700000D01*
X-12088465Y-30700000D01*
X-12021426Y-30719685D01*
G37*
%TD.AperFunction*%
%TD*%
%TA.AperFunction,Conductor*%
%TO.N,GND*%
G36*
X-12538028Y-25802381D02*
G01*
X-12478514Y-25814219D01*
X-12433826Y-25832729D01*
X-12393724Y-25859524D01*
X-12359524Y-25893724D01*
X-12332729Y-25933826D01*
X-12314218Y-25978517D01*
X-12302383Y-26038019D01*
X-12300000Y-26062210D01*
X-12300000Y-26537789D01*
X-12302383Y-26561980D01*
X-12314218Y-26621480D01*
X-12332730Y-26666175D01*
X-12359522Y-26706272D01*
X-12393727Y-26740477D01*
X-12433822Y-26767267D01*
X-12478518Y-26785781D01*
X-12523189Y-26794667D01*
X-12538020Y-26797617D01*
X-12562211Y-26800000D01*
X-13150004Y-26800000D01*
X-13245670Y-26819029D01*
X-13245671Y-26819029D01*
X-13294290Y-26851515D01*
X-13326777Y-26873223D01*
X-13359262Y-26921842D01*
X-13380970Y-26954328D01*
X-13380970Y-26954329D01*
X-13399999Y-27049995D01*
X-13400000Y-27049998D01*
X-13400000Y-28737789D01*
X-13402383Y-28761980D01*
X-13414218Y-28821480D01*
X-13432730Y-28866175D01*
X-13459522Y-28906272D01*
X-13493727Y-28940477D01*
X-13533822Y-28967267D01*
X-13578518Y-28985781D01*
X-13623189Y-28994667D01*
X-13638020Y-28997617D01*
X-13662211Y-29000000D01*
X-14337789Y-29000000D01*
X-14361978Y-28997617D01*
X-14387857Y-28992469D01*
X-14421482Y-28985781D01*
X-14466179Y-28967267D01*
X-14471975Y-28963394D01*
X-14506269Y-28940479D01*
X-14540481Y-28906268D01*
X-14567267Y-28866179D01*
X-14585781Y-28821482D01*
X-14597617Y-28761982D01*
X-14600000Y-28737789D01*
X-14600000Y-26062210D01*
X-14597617Y-26038019D01*
X-14589542Y-25997427D01*
X-14585781Y-25978517D01*
X-14567267Y-25933822D01*
X-14540477Y-25893727D01*
X-14506272Y-25859522D01*
X-14466175Y-25832730D01*
X-14421480Y-25814218D01*
X-14361980Y-25802383D01*
X-14337789Y-25800000D01*
X-12562211Y-25800000D01*
X-12538028Y-25802381D01*
G37*
%TD.AperFunction*%
%TD*%
%TA.AperFunction,Conductor*%
%TO.N,GND*%
G36*
X-1557982Y12294468D02*
G01*
X-1531400Y12290968D01*
X-1486774Y12285093D01*
X-1455508Y12276715D01*
X-1365081Y12239259D01*
X-1337048Y12223074D01*
X-1259398Y12163491D01*
X-1236508Y12140601D01*
X-1176925Y12062951D01*
X-1160740Y12034918D01*
X-1123284Y11944491D01*
X-1114906Y11913223D01*
X-1100531Y11804035D01*
X-1100000Y11795934D01*
X-1100000Y10890161D01*
X-1082819Y10760214D01*
X-1082818Y10760211D01*
X-1032456Y10639200D01*
X-1032453Y10639196D01*
X-952371Y10535429D01*
X-848065Y10456037D01*
X-848061Y10456034D01*
X667166Y9590190D01*
X1214526Y9261773D01*
X1261884Y9210402D01*
X1274058Y9151194D01*
X1274500Y9151194D01*
X1274500Y9149044D01*
X1274550Y9148801D01*
X1274500Y9147868D01*
X1274500Y8674823D01*
X1265061Y8627370D01*
X1239260Y8565082D01*
X1223076Y8537050D01*
X1163486Y8459392D01*
X1140602Y8436509D01*
X1088526Y8396549D01*
X1062951Y8376925D01*
X1034918Y8360740D01*
X944491Y8323284D01*
X913223Y8314906D01*
X804031Y8300530D01*
X795933Y8300000D01*
X-1095933Y8300000D01*
X-1104031Y8300530D01*
X-1213223Y8314906D01*
X-1244491Y8323284D01*
X-1334918Y8360740D01*
X-1362951Y8376925D01*
X-1388526Y8396549D01*
X-1440602Y8436509D01*
X-1463491Y8459398D01*
X-1523074Y8537048D01*
X-1539259Y8565080D01*
X-1565061Y8627370D01*
X-1574500Y8674824D01*
X-1574500Y9147870D01*
X-1574501Y9147876D01*
X-1580909Y9207484D01*
X-1607017Y9277485D01*
X-1613774Y9304628D01*
X-1617037Y9329411D01*
X-1666984Y9449995D01*
X-1666984Y9449996D01*
X-1679170Y9465877D01*
X-1746447Y9553553D01*
X-1850000Y9633013D01*
X-1850003Y9633014D01*
X-1850004Y9633015D01*
X-1910295Y9657988D01*
X-1970590Y9682963D01*
X-2100000Y9700000D01*
X-2100007Y9700000D01*
X-3095933Y9700000D01*
X-3104031Y9700530D01*
X-3213223Y9714906D01*
X-3244491Y9723284D01*
X-3334918Y9760740D01*
X-3362951Y9776925D01*
X-3388526Y9796549D01*
X-3440602Y9836509D01*
X-3463491Y9859398D01*
X-3523074Y9937048D01*
X-3539259Y9965081D01*
X-3576715Y10055508D01*
X-3585093Y10086775D01*
X-3599469Y10195964D01*
X-3600000Y10204065D01*
X-3600000Y11795934D01*
X-3599469Y11804035D01*
X-3585093Y11913224D01*
X-3576715Y11944491D01*
X-3539259Y12034918D01*
X-3523074Y12062951D01*
X-3463491Y12140601D01*
X-3440601Y12163491D01*
X-3362951Y12223074D01*
X-3334918Y12239259D01*
X-3244491Y12276715D01*
X-3213225Y12285093D01*
X-3165585Y12291365D01*
X-3142017Y12294468D01*
X-3133921Y12294999D01*
X-1566079Y12294999D01*
X-1557982Y12294468D01*
G37*
%TD.AperFunction*%
%TD*%
%TA.AperFunction,Conductor*%
%TO.N,GND*%
G36*
X-10893528Y-41200530D02*
G01*
X-10784963Y-41214823D01*
X-10753704Y-41223199D01*
X-10698501Y-41246065D01*
X-10663861Y-41260415D01*
X-10635832Y-41276596D01*
X-10558676Y-41335799D01*
X-10535799Y-41358676D01*
X-10476598Y-41435830D01*
X-10460415Y-41463861D01*
X-10423199Y-41553704D01*
X-10414824Y-41584961D01*
X-10400578Y-41693163D01*
X-10400184Y-41697177D01*
X-10400000Y-41699984D01*
X-10400000Y-41700000D01*
X-10382963Y-41829410D01*
X-10333013Y-41950000D01*
X-10253553Y-42053553D01*
X-10150000Y-42133013D01*
X-10029410Y-42182963D01*
X-9900000Y-42200000D01*
X-6904066Y-42200000D01*
X-6895968Y-42200531D01*
X-6893671Y-42200833D01*
X-6880406Y-42202579D01*
X-6816512Y-42230841D01*
X-6783108Y-42280583D01*
X-6781724Y-42279967D01*
X-6779081Y-42285900D01*
X-6779079Y-42285907D01*
X-6692315Y-42436185D01*
X-6576203Y-42565141D01*
X-6451115Y-42656023D01*
X-6408449Y-42711353D01*
X-6400000Y-42756341D01*
X-6400000Y-43400000D01*
X-6382963Y-43529410D01*
X-6333013Y-43650000D01*
X-6253553Y-43753553D01*
X-6233219Y-43769155D01*
X-6209457Y-43793201D01*
X-6157546Y-43862546D01*
X-6042331Y-43948796D01*
X-5907483Y-43999091D01*
X-5847873Y-44005500D01*
X-5441901Y-44005499D01*
X-5374864Y-44025183D01*
X-5366413Y-44031126D01*
X-5359393Y-44036513D01*
X-5336508Y-44059399D01*
X-5276926Y-44137047D01*
X-5260740Y-44165081D01*
X-5223284Y-44255508D01*
X-5214906Y-44286776D01*
X-5200531Y-44395964D01*
X-5200000Y-44404066D01*
X-5200000Y-45995933D01*
X-5200531Y-46004035D01*
X-5214906Y-46113223D01*
X-5223284Y-46144491D01*
X-5260740Y-46234918D01*
X-5276925Y-46262951D01*
X-5336508Y-46340601D01*
X-5359398Y-46363491D01*
X-5437048Y-46423074D01*
X-5465081Y-46439259D01*
X-5555508Y-46476715D01*
X-5586775Y-46485093D01*
X-5672457Y-46496374D01*
X-5695968Y-46499469D01*
X-5704066Y-46500000D01*
X-13395934Y-46500000D01*
X-13404031Y-46499469D01*
X-13424783Y-46496737D01*
X-13513224Y-46485093D01*
X-13544491Y-46476715D01*
X-13634918Y-46439259D01*
X-13662951Y-46423074D01*
X-13740601Y-46363491D01*
X-13763491Y-46340601D01*
X-13823074Y-46262951D01*
X-13839259Y-46234918D01*
X-13876715Y-46144491D01*
X-13885093Y-46113224D01*
X-13899469Y-46004035D01*
X-13900000Y-45995934D01*
X-13900000Y-42104065D01*
X-13899469Y-42095964D01*
X-13885093Y-41986775D01*
X-13876715Y-41955508D01*
X-13839259Y-41865081D01*
X-13823074Y-41837048D01*
X-13763491Y-41759398D01*
X-13740602Y-41736509D01*
X-13662952Y-41676925D01*
X-13634918Y-41660740D01*
X-13544491Y-41623284D01*
X-13513223Y-41614906D01*
X-13495879Y-41612622D01*
X-13404031Y-41600530D01*
X-13395933Y-41600000D01*
X-11600018Y-41600000D01*
X-11600015Y-41600000D01*
X-11499494Y-41573284D01*
X-11425500Y-41500188D01*
X-11397560Y-41399999D01*
X-11378473Y-41331556D01*
X-11346175Y-41276650D01*
X-11319072Y-41249876D01*
X-11263778Y-41218251D01*
X-11210759Y-41204160D01*
X-11178909Y-41200000D01*
X-10901628Y-41200000D01*
X-10893528Y-41200530D01*
G37*
%TD.AperFunction*%
%TD*%
%TA.AperFunction,Conductor*%
%TO.N,+5V*%
G36*
X-7695968Y5199469D02*
G01*
X-7672457Y5196374D01*
X-7586775Y5185093D01*
X-7555508Y5176715D01*
X-7465081Y5139259D01*
X-7437048Y5123074D01*
X-7359398Y5063491D01*
X-7336508Y5040601D01*
X-7276925Y4962951D01*
X-7260740Y4934918D01*
X-7223284Y4844491D01*
X-7214906Y4813224D01*
X-7200528Y4704016D01*
X-7200000Y4695949D01*
X-7200000Y2000000D01*
X-7182963Y1870590D01*
X-7169777Y1838757D01*
X-7133015Y1750004D01*
X-7133015Y1750003D01*
X-7133013Y1750000D01*
X-7053553Y1646447D01*
X-6950000Y1566987D01*
X-6949997Y1566986D01*
X-6949995Y1566984D01*
X-6829413Y1517038D01*
X-6829408Y1517036D01*
X-6700009Y1500001D01*
X-6700006Y1500000D01*
X-6700000Y1500000D01*
X-5504066Y1500000D01*
X-5495968Y1499469D01*
X-5472457Y1496374D01*
X-5386775Y1485093D01*
X-5355508Y1476715D01*
X-5265081Y1439259D01*
X-5237048Y1423074D01*
X-5159398Y1363491D01*
X-5136508Y1340601D01*
X-5076925Y1262951D01*
X-5060740Y1234918D01*
X-5023284Y1144491D01*
X-5014906Y1113223D01*
X-5000531Y1004035D01*
X-5000000Y995933D01*
X-5000000Y-595933D01*
X-5000531Y-604035D01*
X-5014906Y-713223D01*
X-5023284Y-744491D01*
X-5060740Y-834918D01*
X-5076925Y-862951D01*
X-5136508Y-940601D01*
X-5159398Y-963491D01*
X-5237048Y-1023074D01*
X-5265081Y-1039259D01*
X-5355508Y-1076715D01*
X-5386775Y-1085093D01*
X-5472457Y-1096374D01*
X-5495968Y-1099469D01*
X-5504066Y-1100000D01*
X-6700000Y-1100000D01*
X-6700006Y-1100000D01*
X-6700009Y-1100001D01*
X-6829408Y-1117036D01*
X-6829413Y-1117038D01*
X-6949995Y-1166984D01*
X-6949996Y-1166984D01*
X-6949999Y-1166986D01*
X-6950000Y-1166987D01*
X-7053553Y-1246447D01*
X-7133013Y-1350000D01*
X-7133015Y-1350003D01*
X-7133015Y-1350004D01*
X-7182963Y-1470590D01*
X-7200000Y-1600000D01*
X-7200000Y-1600006D01*
X-7200000Y-3640243D01*
X-7201527Y-3659640D01*
X-7214057Y-3738755D01*
X-7226045Y-3775653D01*
X-7257928Y-3838227D01*
X-7280732Y-3869613D01*
X-7330386Y-3919267D01*
X-7361772Y-3942071D01*
X-7424346Y-3973954D01*
X-7461244Y-3985942D01*
X-7530603Y-3996927D01*
X-7569397Y-3996927D01*
X-7638755Y-3985942D01*
X-7675653Y-3973954D01*
X-7738227Y-3942071D01*
X-7769613Y-3919267D01*
X-7819267Y-3869613D01*
X-7842071Y-3838227D01*
X-7873954Y-3775653D01*
X-7885942Y-3738755D01*
X-7897972Y-3662797D01*
X-7899499Y-3643400D01*
X-7899499Y-2695730D01*
X-7902353Y-2665300D01*
X-7902353Y-2665298D01*
X-7947206Y-2537119D01*
X-7947207Y-2537117D01*
X-8027850Y-2427850D01*
X-8137117Y-2347207D01*
X-8137119Y-2347206D01*
X-8265299Y-2302353D01*
X-8295730Y-2299500D01*
X-8295734Y-2299500D01*
X-8704266Y-2299500D01*
X-8704270Y-2299500D01*
X-8734699Y-2302353D01*
X-8734701Y-2302353D01*
X-8862880Y-2347206D01*
X-8862882Y-2347207D01*
X-8972150Y-2427850D01*
X-9052792Y-2537117D01*
X-9052793Y-2537119D01*
X-9097646Y-2665298D01*
X-9097646Y-2665300D01*
X-9100500Y-2695730D01*
X-9100500Y-3643400D01*
X-9102027Y-3662797D01*
X-9114057Y-3738755D01*
X-9126045Y-3775653D01*
X-9157928Y-3838227D01*
X-9180732Y-3869613D01*
X-9230386Y-3919267D01*
X-9261772Y-3942071D01*
X-9324346Y-3973954D01*
X-9361244Y-3985942D01*
X-9430603Y-3996927D01*
X-9469397Y-3996927D01*
X-9538755Y-3985942D01*
X-9575653Y-3973954D01*
X-9638227Y-3942071D01*
X-9669613Y-3919267D01*
X-9719267Y-3869613D01*
X-9742071Y-3838227D01*
X-9773954Y-3775653D01*
X-9785942Y-3738757D01*
X-9798473Y-3659642D01*
X-9800000Y-3640243D01*
X-9800000Y-2409354D01*
X-9799661Y-2402879D01*
X-9790466Y-2315252D01*
X-9785093Y-2289932D01*
X-9757907Y-2206126D01*
X-9755587Y-2200072D01*
X-9443096Y-1496966D01*
X-9443094Y-1496962D01*
X-9410892Y-1397689D01*
X-9410891Y-1397686D01*
X-9400000Y-1293890D01*
X-9400000Y599993D01*
X-9400001Y600009D01*
X-9417036Y729408D01*
X-9417038Y729413D01*
X-9466984Y849995D01*
X-9466984Y849996D01*
X-9466987Y850000D01*
X-9546447Y953553D01*
X-9650000Y1033013D01*
X-9650003Y1033014D01*
X-9650004Y1033015D01*
X-9710295Y1057988D01*
X-9770590Y1082963D01*
X-9900000Y1100000D01*
X-9900007Y1100000D01*
X-10895933Y1100000D01*
X-10904031Y1100530D01*
X-10995879Y1112622D01*
X-11013223Y1114906D01*
X-11044491Y1123284D01*
X-11134918Y1160740D01*
X-11162951Y1176925D01*
X-11188526Y1196549D01*
X-11240602Y1236509D01*
X-11263491Y1259398D01*
X-11323074Y1337048D01*
X-11339259Y1365081D01*
X-11376715Y1455508D01*
X-11385093Y1486775D01*
X-11399469Y1595964D01*
X-11400000Y1604065D01*
X-11400000Y1740243D01*
X-11398473Y1759642D01*
X-11385942Y1838757D01*
X-11373954Y1875653D01*
X-11342071Y1938227D01*
X-11319267Y1969613D01*
X-11269613Y2019267D01*
X-11238227Y2042071D01*
X-11175653Y2073954D01*
X-11138756Y2085942D01*
X-11050000Y2100000D01*
X-10941847Y2117128D01*
X-10941846Y2117128D01*
X-10876798Y2150272D01*
X-10844275Y2166844D01*
X-10844274Y2166845D01*
X-10844269Y2166848D01*
X-10766848Y2244269D01*
X-10766845Y2244274D01*
X-10717128Y2341846D01*
X-10700000Y2449994D01*
X-10700000Y4695934D01*
X-10699469Y4704035D01*
X-10685093Y4813224D01*
X-10676715Y4844491D01*
X-10639259Y4934918D01*
X-10623074Y4962951D01*
X-10563491Y5040601D01*
X-10540601Y5063491D01*
X-10462951Y5123074D01*
X-10434918Y5139259D01*
X-10344491Y5176715D01*
X-10313224Y5185093D01*
X-10224783Y5196737D01*
X-10204031Y5199469D01*
X-10195934Y5200000D01*
X-7704066Y5200000D01*
X-7695968Y5199469D01*
G37*
%TD.AperFunction*%
%TD*%
%TA.AperFunction,Conductor*%
%TO.N,Net-(J301-Pin_1)*%
G36*
X204031Y-33000530D02*
G01*
X295879Y-33012622D01*
X313223Y-33014906D01*
X344491Y-33023284D01*
X434918Y-33060740D01*
X462952Y-33076925D01*
X540602Y-33136509D01*
X563491Y-33159398D01*
X623074Y-33237048D01*
X639259Y-33265081D01*
X676715Y-33355508D01*
X685093Y-33386775D01*
X699469Y-33495964D01*
X700000Y-33504065D01*
X700000Y-36121624D01*
X699512Y-36129393D01*
X686288Y-36234199D01*
X678577Y-36264269D01*
X644055Y-36351581D01*
X629115Y-36378796D01*
X589281Y-36433712D01*
X555481Y-36465517D01*
X491424Y-36506282D01*
X456751Y-36528347D01*
X443626Y-36537291D01*
X424529Y-36551202D01*
X412023Y-36560926D01*
X312386Y-36643536D01*
X312378Y-36643543D01*
X312375Y-36643546D01*
X312366Y-36643554D01*
X310623Y-36645193D01*
X292241Y-36659482D01*
X80248Y-36794387D01*
X-168438Y-36952642D01*
X-264803Y-37032539D01*
X-338303Y-37133868D01*
X-384330Y-37250278D01*
X-400000Y-37374473D01*
X-400000Y-37374475D01*
X-400000Y-40195933D01*
X-400531Y-40204035D01*
X-414906Y-40313223D01*
X-423284Y-40344491D01*
X-460740Y-40434918D01*
X-476925Y-40462951D01*
X-536508Y-40540601D01*
X-559398Y-40563491D01*
X-637048Y-40623074D01*
X-665081Y-40639259D01*
X-755508Y-40676715D01*
X-786775Y-40685093D01*
X-872457Y-40696374D01*
X-895968Y-40699469D01*
X-904066Y-40700000D01*
X-1095934Y-40700000D01*
X-1104031Y-40699469D01*
X-1124783Y-40696737D01*
X-1213224Y-40685093D01*
X-1244491Y-40676715D01*
X-1334918Y-40639259D01*
X-1362951Y-40623074D01*
X-1440601Y-40563491D01*
X-1463491Y-40540601D01*
X-1523074Y-40462951D01*
X-1539259Y-40434918D01*
X-1576715Y-40344491D01*
X-1585093Y-40313224D01*
X-1599469Y-40204035D01*
X-1600000Y-40195934D01*
X-1600000Y-37370270D01*
X-1598416Y-37350513D01*
X-1577802Y-37222787D01*
X-1565372Y-37185282D01*
X-1510275Y-37079461D01*
X-1486678Y-37047770D01*
X-1393861Y-36957636D01*
X-1378584Y-36945009D01*
X-813267Y-36549287D01*
X-813265Y-36549285D01*
X-698967Y-36438291D01*
X-698966Y-36438289D01*
X-625387Y-36296969D01*
X-625385Y-36296965D01*
X-600000Y-36139677D01*
X-600000Y-33504065D01*
X-599469Y-33495964D01*
X-585093Y-33386775D01*
X-576715Y-33355508D01*
X-539259Y-33265081D01*
X-523074Y-33237048D01*
X-463491Y-33159398D01*
X-440602Y-33136509D01*
X-362952Y-33076925D01*
X-334918Y-33060740D01*
X-244491Y-33023284D01*
X-213223Y-33014906D01*
X-195879Y-33012622D01*
X-104031Y-33000530D01*
X-95933Y-33000000D01*
X195933Y-33000000D01*
X204031Y-33000530D01*
G37*
%TD.AperFunction*%
%TD*%
%TA.AperFunction,Conductor*%
%TO.N,+BATT*%
G36*
X15799999Y-26395933D02*
G01*
X15799468Y-26404035D01*
X15785093Y-26513223D01*
X15776715Y-26544491D01*
X15739259Y-26634918D01*
X15723074Y-26662951D01*
X15663491Y-26740601D01*
X15640601Y-26763491D01*
X15562951Y-26823074D01*
X15534918Y-26839259D01*
X15444491Y-26876715D01*
X15413224Y-26885093D01*
X15324783Y-26896737D01*
X15304031Y-26899469D01*
X15295934Y-26900000D01*
X2404066Y-26900000D01*
X2395968Y-26899469D01*
X2372457Y-26896374D01*
X2286775Y-26885093D01*
X2255508Y-26876715D01*
X2165081Y-26839259D01*
X2137048Y-26823074D01*
X2059398Y-26763491D01*
X2036508Y-26740601D01*
X1976925Y-26662951D01*
X1960740Y-26634918D01*
X1923284Y-26544491D01*
X1914906Y-26513223D01*
X1903872Y-26429413D01*
X1900530Y-26404031D01*
X1900000Y-26395933D01*
X1900000Y-25300006D01*
X1900000Y-25300000D01*
X1882963Y-25170590D01*
X1833015Y-25050004D01*
X1833015Y-25050003D01*
X1833013Y-25050000D01*
X1753553Y-24946447D01*
X1650000Y-24866987D01*
X1649997Y-24866986D01*
X1649995Y-24866984D01*
X1529413Y-24817038D01*
X1529408Y-24817036D01*
X1400009Y-24800001D01*
X1400006Y-24800000D01*
X1400000Y-24800000D01*
X1399993Y-24800000D01*
X-4699993Y-24800000D01*
X-4700000Y-24800000D01*
X-4700006Y-24800000D01*
X-4700009Y-24800001D01*
X-4829408Y-24817036D01*
X-4829413Y-24817038D01*
X-4949995Y-24866984D01*
X-4949996Y-24866984D01*
X-4949999Y-24866986D01*
X-4950000Y-24866987D01*
X-5053553Y-24946447D01*
X-5133013Y-25050000D01*
X-5133015Y-25050003D01*
X-5133015Y-25050004D01*
X-5182963Y-25170590D01*
X-5200000Y-25300000D01*
X-5200000Y-25300006D01*
X-5200000Y-26395933D01*
X-5200530Y-26404031D01*
X-5203872Y-26429413D01*
X-5214906Y-26513223D01*
X-5223284Y-26544491D01*
X-5260740Y-26634918D01*
X-5276925Y-26662951D01*
X-5336508Y-26740601D01*
X-5359398Y-26763491D01*
X-5437048Y-26823074D01*
X-5465081Y-26839259D01*
X-5555508Y-26876715D01*
X-5586775Y-26885093D01*
X-5672457Y-26896374D01*
X-5695968Y-26899469D01*
X-5704066Y-26900000D01*
X-7900000Y-26900000D01*
X-7900000Y-26800000D01*
X-9600000Y-26800000D01*
X-9600000Y-22704065D01*
X-9599469Y-22695964D01*
X-9585093Y-22586775D01*
X-9576715Y-22555508D01*
X-9539259Y-22465081D01*
X-9523074Y-22437048D01*
X-9463491Y-22359398D01*
X-9440602Y-22336509D01*
X-9362952Y-22276925D01*
X-9334918Y-22260740D01*
X-9244491Y-22223284D01*
X-9213223Y-22214906D01*
X-9195879Y-22212622D01*
X-9104031Y-22200530D01*
X-9095933Y-22200000D01*
X-2376348Y-22200000D01*
X-2369997Y-22200500D01*
X-2363433Y-22200500D01*
X3369997Y-22200500D01*
X3376348Y-22200000D01*
X10899993Y-22200000D01*
X10900000Y-22200000D01*
X11029410Y-22182963D01*
X11149995Y-22133015D01*
X11149996Y-22133015D01*
X11149996Y-22133014D01*
X11150000Y-22133013D01*
X11253553Y-22053553D01*
X11333013Y-21950000D01*
X11382963Y-21829410D01*
X11400000Y-21700000D01*
X11400000Y7300000D01*
X11382963Y7429410D01*
X11333013Y7550000D01*
X11253553Y7653553D01*
X11150000Y7733013D01*
X11029410Y7782963D01*
X10900000Y7800000D01*
X15799999Y7800000D01*
X15799999Y-26395933D01*
G37*
%TD.AperFunction*%
%TD*%
%TA.AperFunction,Conductor*%
%TO.N,Net-(D101-K)*%
G36*
X704031Y14599469D02*
G01*
X724783Y14596737D01*
X813224Y14585093D01*
X844491Y14576715D01*
X934918Y14539259D01*
X962951Y14523074D01*
X1040601Y14463491D01*
X1063491Y14440601D01*
X1123074Y14362951D01*
X1139259Y14334918D01*
X1176715Y14244491D01*
X1185093Y14213224D01*
X1199469Y14104035D01*
X1200000Y14095934D01*
X1200000Y13600006D01*
X1200001Y13599990D01*
X1217036Y13470591D01*
X1217038Y13470586D01*
X1266984Y13350004D01*
X1266984Y13350003D01*
X1346447Y13246447D01*
X1450004Y13166984D01*
X1570586Y13117038D01*
X1570591Y13117036D01*
X1699990Y13100001D01*
X1699994Y13100000D01*
X1700000Y13100000D01*
X2400000Y13100000D01*
X2490244Y13100000D01*
X2509640Y13098473D01*
X2524425Y13096131D01*
X2604207Y13083495D01*
X2641104Y13071507D01*
X2717616Y13032522D01*
X2749002Y13009718D01*
X2809718Y12949002D01*
X2832522Y12917616D01*
X2871507Y12841104D01*
X2883495Y12804207D01*
X2898473Y12709642D01*
X2900000Y12690244D01*
X2900000Y11000000D01*
X2400000Y11000000D01*
X800000Y11000000D01*
X300000Y11000000D01*
X300000Y12300000D01*
X282963Y12429410D01*
X233013Y12550000D01*
X153553Y12653553D01*
X50000Y12733013D01*
X-70590Y12782963D01*
X-200000Y12800000D01*
X-200007Y12800000D01*
X-1341934Y12800000D01*
X-1348237Y12800320D01*
X-1349991Y12800500D01*
X-3450008Y12800499D01*
X-3451754Y12800320D01*
X-3458054Y12800000D01*
X-3699993Y12800000D01*
X-3700000Y12800000D01*
X-3829410Y12782963D01*
X-3949995Y12733015D01*
X-3949996Y12733015D01*
X-3949996Y12733014D01*
X-3950000Y12733013D01*
X-4053553Y12653553D01*
X-4133013Y12550000D01*
X-4182963Y12429410D01*
X-4200000Y12300001D01*
X-4200000Y12300000D01*
X-4200000Y10404066D01*
X-4200531Y10395964D01*
X-4214906Y10286776D01*
X-4223284Y10255508D01*
X-4260740Y10165081D01*
X-4276923Y10137050D01*
X-4336513Y10059392D01*
X-4359392Y10036513D01*
X-4437050Y9976923D01*
X-4465079Y9960740D01*
X-4555508Y9923284D01*
X-4586775Y9914906D01*
X-4695967Y9900530D01*
X-4704067Y9900000D01*
X-6700000Y9900000D01*
X-6829410Y9882963D01*
X-6949995Y9833015D01*
X-6949996Y9833015D01*
X-6949996Y9833014D01*
X-6950000Y9833013D01*
X-7053553Y9753553D01*
X-7133013Y9650000D01*
X-7182963Y9529410D01*
X-7182963Y9529408D01*
X-7200000Y9400000D01*
X-7214906Y9286776D01*
X-7223284Y9255508D01*
X-7260740Y9165081D01*
X-7276923Y9137050D01*
X-7336513Y9059392D01*
X-7359392Y9036513D01*
X-7437050Y8976923D01*
X-7465079Y8960740D01*
X-7555508Y8923284D01*
X-7586775Y8914906D01*
X-7695967Y8900530D01*
X-7704067Y8900000D01*
X-10295933Y8900000D01*
X-10304031Y8900530D01*
X-10413223Y8914906D01*
X-10444491Y8923284D01*
X-10534918Y8960740D01*
X-10562951Y8976925D01*
X-10588526Y8996549D01*
X-10640602Y9036509D01*
X-10663491Y9059398D01*
X-10723074Y9137048D01*
X-10739259Y9165081D01*
X-10776715Y9255508D01*
X-10785093Y9286775D01*
X-10799469Y9395964D01*
X-10800000Y9404065D01*
X-10800000Y11795934D01*
X-10799469Y11804035D01*
X-10785093Y11913224D01*
X-10776715Y11944491D01*
X-10739259Y12034918D01*
X-10723074Y12062951D01*
X-10663491Y12140601D01*
X-10640601Y12163491D01*
X-10562951Y12223074D01*
X-10534918Y12239259D01*
X-10444491Y12276715D01*
X-10413224Y12285093D01*
X-10324783Y12296737D01*
X-10304031Y12299469D01*
X-10295934Y12300000D01*
X-5907114Y12300000D01*
X-5907107Y12300000D01*
X-5907101Y12300000D01*
X-5907097Y12300001D01*
X-5777698Y12317036D01*
X-5777693Y12317038D01*
X-5657111Y12366984D01*
X-5657106Y12366987D01*
X-5553554Y12446445D01*
X-5553547Y12446451D01*
X-5271652Y12728346D01*
X-5258285Y12739929D01*
X-5225477Y12764490D01*
X-5225457Y12764507D01*
X-5034507Y12955457D01*
X-5034490Y12955477D01*
X-5009929Y12988285D01*
X-4998346Y13001652D01*
X-4646451Y13353547D01*
X-4646445Y13353554D01*
X-4566987Y13457106D01*
X-4566984Y13457111D01*
X-4517038Y13577693D01*
X-4517036Y13577698D01*
X-4500001Y13707097D01*
X-4500000Y13707113D01*
X-4500000Y14095934D01*
X-4499469Y14104035D01*
X-4485093Y14213224D01*
X-4476715Y14244491D01*
X-4439259Y14334918D01*
X-4423074Y14362951D01*
X-4363491Y14440601D01*
X-4340601Y14463491D01*
X-4262951Y14523074D01*
X-4234918Y14539259D01*
X-4144491Y14576715D01*
X-4113224Y14585093D01*
X-4024783Y14596737D01*
X-4004031Y14599469D01*
X-3995934Y14600000D01*
X695934Y14600000D01*
X704031Y14599469D01*
G37*
%TD.AperFunction*%
%TD*%
%TA.AperFunction,Conductor*%
%TO.N,+BATT*%
G36*
X4500000Y13007113D02*
G01*
X4500001Y13007097D01*
X4517036Y12877698D01*
X4517038Y12877693D01*
X4566984Y12757111D01*
X4566987Y12757106D01*
X4646445Y12653554D01*
X4646451Y12653547D01*
X6353547Y10946451D01*
X6353554Y10946445D01*
X6457106Y10866987D01*
X6457111Y10866984D01*
X6577693Y10817038D01*
X6577698Y10817036D01*
X6707097Y10800001D01*
X6707101Y10800000D01*
X6707107Y10800000D01*
X9638212Y10800000D01*
X9641352Y10799920D01*
X9725935Y10795631D01*
X9725936Y10795631D01*
X9725940Y10795631D01*
X9745122Y10798570D01*
X9763898Y10800000D01*
X15295934Y10800000D01*
X15304031Y10799469D01*
X15324783Y10796737D01*
X15413224Y10785093D01*
X15444491Y10776715D01*
X15534918Y10739259D01*
X15562951Y10723074D01*
X15640601Y10663491D01*
X15663491Y10640601D01*
X15723074Y10562951D01*
X15739259Y10534918D01*
X15776715Y10444491D01*
X15785093Y10413224D01*
X15799469Y10304035D01*
X15800000Y10295934D01*
X15800000Y7800000D01*
X15300000Y7800000D01*
X4404067Y7800000D01*
X4395967Y7800530D01*
X4286775Y7814906D01*
X4255508Y7823284D01*
X4165079Y7860740D01*
X4137050Y7876923D01*
X4059392Y7936513D01*
X4036513Y7959392D01*
X3976923Y8037050D01*
X3960740Y8065081D01*
X3923284Y8155508D01*
X3914906Y8186776D01*
X3900531Y8295964D01*
X3900000Y8304066D01*
X3900000Y9592886D01*
X3900000Y9592893D01*
X3882963Y9722303D01*
X3833013Y9842893D01*
X3753553Y9946447D01*
X3549320Y10150679D01*
X3543979Y10156768D01*
X3476924Y10244157D01*
X3460739Y10272191D01*
X3423284Y10362616D01*
X3414906Y10393883D01*
X3406031Y10461293D01*
X3405500Y10469395D01*
X3405500Y11000000D01*
X3400158Y11074694D01*
X3400000Y11079118D01*
X3400000Y13099993D01*
X3400000Y13100000D01*
X3382963Y13229410D01*
X3333013Y13350000D01*
X3253553Y13453553D01*
X3150000Y13533013D01*
X3029410Y13582963D01*
X2900000Y13600000D01*
X2899993Y13600000D01*
X2012211Y13600000D01*
X1988028Y13602381D01*
X1909379Y13618025D01*
X1864693Y13636534D01*
X1808370Y13674168D01*
X1774168Y13708370D01*
X1736534Y13764693D01*
X1718025Y13809379D01*
X1702381Y13888029D01*
X1700000Y13912210D01*
X1700000Y14700000D01*
X4500000Y14700000D01*
X4500000Y13007113D01*
G37*
%TD.AperFunction*%
%TD*%
%TA.AperFunction,Conductor*%
%TO.N,+12V*%
G36*
X8104031Y15499469D02*
G01*
X8124783Y15496737D01*
X8213224Y15485093D01*
X8244491Y15476715D01*
X8334918Y15439259D01*
X8362951Y15423074D01*
X8440601Y15363491D01*
X8463491Y15340601D01*
X8523074Y15262951D01*
X8539259Y15234918D01*
X8576715Y15144491D01*
X8585093Y15113224D01*
X8599469Y15004035D01*
X8600000Y14995934D01*
X8600000Y11804065D01*
X8599469Y11795964D01*
X8585093Y11686775D01*
X8576715Y11655508D01*
X8539259Y11565081D01*
X8523074Y11537048D01*
X8463491Y11459398D01*
X8440602Y11436509D01*
X8388526Y11396549D01*
X8362951Y11376925D01*
X8334918Y11360740D01*
X8244491Y11323284D01*
X8213223Y11314906D01*
X8104031Y11300530D01*
X8095933Y11300000D01*
X7111174Y11300000D01*
X7103074Y11300530D01*
X6993882Y11314906D01*
X6962616Y11323284D01*
X6872191Y11360739D01*
X6844157Y11376924D01*
X6833967Y11384742D01*
X6756768Y11443979D01*
X6750687Y11449312D01*
X5249312Y12950687D01*
X5243979Y12956768D01*
X5176924Y13044157D01*
X5160739Y13072191D01*
X5123284Y13162616D01*
X5114906Y13193883D01*
X5100531Y13303071D01*
X5100000Y13311173D01*
X5100000Y14995933D01*
X5100531Y15004035D01*
X5114906Y15113223D01*
X5123284Y15144491D01*
X5160740Y15234918D01*
X5176925Y15262951D01*
X5236508Y15340601D01*
X5259398Y15363491D01*
X5337048Y15423074D01*
X5365081Y15439259D01*
X5455508Y15476715D01*
X5486775Y15485093D01*
X5572457Y15496374D01*
X5595968Y15499469D01*
X5604066Y15500000D01*
X8095934Y15500000D01*
X8104031Y15499469D01*
G37*
%TD.AperFunction*%
%TD*%
%TA.AperFunction,Conductor*%
%TO.N,GND*%
G36*
X10504031Y29399469D02*
G01*
X10524783Y29396737D01*
X10613224Y29385093D01*
X10644491Y29376715D01*
X10734918Y29339259D01*
X10762951Y29323074D01*
X10840601Y29263491D01*
X10863491Y29240601D01*
X10923074Y29162951D01*
X10939259Y29134918D01*
X10976715Y29044491D01*
X10985093Y29013224D01*
X10999469Y28904035D01*
X11000000Y28895934D01*
X11000000Y26304065D01*
X10999469Y26295964D01*
X10985093Y26186775D01*
X10976715Y26155508D01*
X10939259Y26065081D01*
X10923074Y26037048D01*
X10863491Y25959398D01*
X10840602Y25936509D01*
X10788526Y25896549D01*
X10762951Y25876925D01*
X10734918Y25860740D01*
X10644491Y25823284D01*
X10613223Y25814906D01*
X10504031Y25800530D01*
X10495933Y25800000D01*
X6104067Y25800000D01*
X6095967Y25800530D01*
X5986775Y25814906D01*
X5955508Y25823284D01*
X5865079Y25860740D01*
X5837050Y25876923D01*
X5759392Y25936513D01*
X5736513Y25959392D01*
X5676923Y26037050D01*
X5660740Y26065081D01*
X5623284Y26155508D01*
X5614906Y26186776D01*
X5600531Y26295964D01*
X5600000Y26304066D01*
X5600000Y28895933D01*
X5600531Y28904035D01*
X5614906Y29013223D01*
X5623284Y29044491D01*
X5660740Y29134918D01*
X5676925Y29162951D01*
X5736508Y29240601D01*
X5759398Y29263491D01*
X5837048Y29323074D01*
X5865081Y29339259D01*
X5955508Y29376715D01*
X5986775Y29385093D01*
X6072457Y29396374D01*
X6095968Y29399469D01*
X6104066Y29400000D01*
X10495934Y29400000D01*
X10504031Y29399469D01*
G37*
%TD.AperFunction*%
%TD*%
%TA.AperFunction,Conductor*%
%TO.N,GND*%
G36*
X14361980Y-28902383D02*
G01*
X14421480Y-28914218D01*
X14466175Y-28932730D01*
X14506272Y-28959522D01*
X14540477Y-28993727D01*
X14567267Y-29033822D01*
X14585781Y-29078517D01*
X14589542Y-29097427D01*
X14597617Y-29138019D01*
X14600000Y-29162210D01*
X14600000Y-29837789D01*
X14597617Y-29861982D01*
X14585781Y-29921482D01*
X14567267Y-29966179D01*
X14540481Y-30006268D01*
X14506269Y-30040479D01*
X14471975Y-30063394D01*
X14466179Y-30067267D01*
X14421482Y-30085781D01*
X14387857Y-30092469D01*
X14361978Y-30097617D01*
X14337789Y-30100000D01*
X10662211Y-30100000D01*
X10638020Y-30097617D01*
X10623189Y-30094667D01*
X10578518Y-30085781D01*
X10533822Y-30067267D01*
X10493727Y-30040477D01*
X10459522Y-30006272D01*
X10432730Y-29966175D01*
X10414218Y-29921480D01*
X10402383Y-29861980D01*
X10400000Y-29837789D01*
X10400000Y-29162210D01*
X10402383Y-29138019D01*
X10414218Y-29078517D01*
X10432729Y-29033826D01*
X10459524Y-28993724D01*
X10493724Y-28959524D01*
X10533826Y-28932729D01*
X10578514Y-28914219D01*
X10638028Y-28902381D01*
X10662211Y-28900000D01*
X14337789Y-28900000D01*
X14361980Y-28902383D01*
G37*
%TD.AperFunction*%
%TD*%
M02*
