%TF.GenerationSoftware,KiCad,Pcbnew,7.0.6*%
%TF.CreationDate,2024-05-08T12:01:16-04:00*%
%TF.ProjectId,ActiveImpactor_Power,41637469-7665-4496-9d70-6163746f725f,rev?*%
%TF.SameCoordinates,Original*%
%TF.FileFunction,Paste,Top*%
%TF.FilePolarity,Positive*%
%FSLAX46Y46*%
G04 Gerber Fmt 4.6, Leading zero omitted, Abs format (unit mm)*
G04 Created by KiCad (PCBNEW 7.0.6) date 2024-05-08 12:01:16*
%MOMM*%
%LPD*%
G01*
G04 APERTURE LIST*
G04 Aperture macros list*
%AMRoundRect*
0 Rectangle with rounded corners*
0 $1 Rounding radius*
0 $2 $3 $4 $5 $6 $7 $8 $9 X,Y pos of 4 corners*
0 Add a 4 corners polygon primitive as box body*
4,1,4,$2,$3,$4,$5,$6,$7,$8,$9,$2,$3,0*
0 Add four circle primitives for the rounded corners*
1,1,$1+$1,$2,$3*
1,1,$1+$1,$4,$5*
1,1,$1+$1,$6,$7*
1,1,$1+$1,$8,$9*
0 Add four rect primitives between the rounded corners*
20,1,$1+$1,$2,$3,$4,$5,0*
20,1,$1+$1,$4,$5,$6,$7,0*
20,1,$1+$1,$6,$7,$8,$9,0*
20,1,$1+$1,$8,$9,$2,$3,0*%
G04 Aperture macros list end*
%ADD10RoundRect,0.250000X0.250000X1.500000X-0.250000X1.500000X-0.250000X-1.500000X0.250000X-1.500000X0*%
%ADD11RoundRect,0.250001X0.499999X1.449999X-0.499999X1.449999X-0.499999X-1.449999X0.499999X-1.449999X0*%
%ADD12RoundRect,0.250000X1.000000X0.650000X-1.000000X0.650000X-1.000000X-0.650000X1.000000X-0.650000X0*%
%ADD13RoundRect,0.250000X0.550000X-1.500000X0.550000X1.500000X-0.550000X1.500000X-0.550000X-1.500000X0*%
%ADD14RoundRect,0.225000X-0.225000X-0.250000X0.225000X-0.250000X0.225000X0.250000X-0.225000X0.250000X0*%
%ADD15R,3.500000X2.350000*%
%ADD16RoundRect,0.150000X0.200000X-0.150000X0.200000X0.150000X-0.200000X0.150000X-0.200000X-0.150000X0*%
%ADD17RoundRect,0.150000X0.150000X0.625000X-0.150000X0.625000X-0.150000X-0.625000X0.150000X-0.625000X0*%
%ADD18RoundRect,0.250000X0.350000X0.650000X-0.350000X0.650000X-0.350000X-0.650000X0.350000X-0.650000X0*%
%ADD19RoundRect,0.135000X-0.135000X-0.185000X0.135000X-0.185000X0.135000X0.185000X-0.135000X0.185000X0*%
%ADD20RoundRect,0.218750X-0.218750X-0.256250X0.218750X-0.256250X0.218750X0.256250X-0.218750X0.256250X0*%
%ADD21RoundRect,0.250000X-0.250000X-1.500000X0.250000X-1.500000X0.250000X1.500000X-0.250000X1.500000X0*%
%ADD22RoundRect,0.250001X-0.499999X-1.449999X0.499999X-1.449999X0.499999X1.449999X-0.499999X1.449999X0*%
%ADD23RoundRect,0.135000X0.135000X0.185000X-0.135000X0.185000X-0.135000X-0.185000X0.135000X-0.185000X0*%
%ADD24RoundRect,0.140000X0.170000X-0.140000X0.170000X0.140000X-0.170000X0.140000X-0.170000X-0.140000X0*%
%ADD25RoundRect,0.200000X0.200000X0.800000X-0.200000X0.800000X-0.200000X-0.800000X0.200000X-0.800000X0*%
%ADD26RoundRect,0.075000X-0.700000X-0.075000X0.700000X-0.075000X0.700000X0.075000X-0.700000X0.075000X0*%
%ADD27RoundRect,0.075000X-0.075000X-0.700000X0.075000X-0.700000X0.075000X0.700000X-0.075000X0.700000X0*%
%ADD28RoundRect,0.200000X-0.200000X-0.275000X0.200000X-0.275000X0.200000X0.275000X-0.200000X0.275000X0*%
%ADD29RoundRect,0.250000X-0.362500X-1.425000X0.362500X-1.425000X0.362500X1.425000X-0.362500X1.425000X0*%
%ADD30R,0.610000X1.270000*%
%ADD31R,3.910000X3.810000*%
%ADD32R,0.610000X1.020000*%
%ADD33RoundRect,0.250000X-0.650000X0.325000X-0.650000X-0.325000X0.650000X-0.325000X0.650000X0.325000X0*%
%ADD34RoundRect,0.140000X0.140000X0.170000X-0.140000X0.170000X-0.140000X-0.170000X0.140000X-0.170000X0*%
%ADD35RoundRect,0.200000X0.200000X0.275000X-0.200000X0.275000X-0.200000X-0.275000X0.200000X-0.275000X0*%
%ADD36RoundRect,0.250000X0.325000X0.650000X-0.325000X0.650000X-0.325000X-0.650000X0.325000X-0.650000X0*%
%ADD37RoundRect,0.225000X0.250000X-0.225000X0.250000X0.225000X-0.250000X0.225000X-0.250000X-0.225000X0*%
%ADD38R,1.400000X1.200000*%
%ADD39RoundRect,0.150000X-0.150000X0.512500X-0.150000X-0.512500X0.150000X-0.512500X0.150000X0.512500X0*%
%ADD40RoundRect,0.150000X0.150000X0.200000X-0.150000X0.200000X-0.150000X-0.200000X0.150000X-0.200000X0*%
%ADD41RoundRect,0.250000X-0.850000X-0.350000X0.850000X-0.350000X0.850000X0.350000X-0.850000X0.350000X0*%
%ADD42RoundRect,0.250000X-1.275000X-1.125000X1.275000X-1.125000X1.275000X1.125000X-1.275000X1.125000X0*%
%ADD43RoundRect,0.218750X0.218750X0.256250X-0.218750X0.256250X-0.218750X-0.256250X0.218750X-0.256250X0*%
%ADD44RoundRect,0.147500X-0.172500X0.147500X-0.172500X-0.147500X0.172500X-0.147500X0.172500X0.147500X0*%
%ADD45R,1.550000X0.600000*%
%ADD46R,2.600000X3.100000*%
%ADD47RoundRect,0.225000X0.225000X0.250000X-0.225000X0.250000X-0.225000X-0.250000X0.225000X-0.250000X0*%
%ADD48RoundRect,0.140000X-0.170000X0.140000X-0.170000X-0.140000X0.170000X-0.140000X0.170000X0.140000X0*%
%ADD49RoundRect,0.100000X0.100000X-0.637500X0.100000X0.637500X-0.100000X0.637500X-0.100000X-0.637500X0*%
%ADD50RoundRect,0.135000X-0.185000X0.135000X-0.185000X-0.135000X0.185000X-0.135000X0.185000X0.135000X0*%
%ADD51RoundRect,0.135000X0.185000X-0.135000X0.185000X0.135000X-0.185000X0.135000X-0.185000X-0.135000X0*%
%ADD52RoundRect,0.225000X-0.250000X0.225000X-0.250000X-0.225000X0.250000X-0.225000X0.250000X0.225000X0*%
%ADD53RoundRect,0.218750X-0.256250X0.218750X-0.256250X-0.218750X0.256250X-0.218750X0.256250X0.218750X0*%
%ADD54RoundRect,0.250000X-0.787500X-1.025000X0.787500X-1.025000X0.787500X1.025000X-0.787500X1.025000X0*%
%ADD55RoundRect,0.140000X-0.140000X-0.170000X0.140000X-0.170000X0.140000X0.170000X-0.140000X0.170000X0*%
%ADD56RoundRect,0.075000X-0.075000X0.650000X-0.075000X-0.650000X0.075000X-0.650000X0.075000X0.650000X0*%
G04 APERTURE END LIST*
D10*
%TO.C,J105*%
X6400000Y38900000D03*
X4400000Y38900000D03*
D11*
X8750000Y44650000D03*
X2050000Y44650000D03*
%TD*%
D12*
%TO.C,D101*%
X1600000Y11400000D03*
X-2400000Y11400000D03*
%TD*%
D13*
%TO.C,C101*%
X8300000Y22200000D03*
X8300000Y27600000D03*
%TD*%
D14*
%TO.C,C303*%
X8125000Y11800000D03*
X9675000Y11800000D03*
%TD*%
D15*
%TO.C,L101*%
X-9000000Y10125000D03*
X-9000000Y4075000D03*
%TD*%
D16*
%TO.C,D302*%
X-11600000Y-34300000D03*
X-11600000Y-35700000D03*
%TD*%
D17*
%TO.C,J104*%
X-1600000Y41600000D03*
X-2600000Y41600000D03*
X-3600000Y41600000D03*
X-4600000Y41600000D03*
X-5600000Y41600000D03*
X-6600000Y41600000D03*
X-7600000Y41600000D03*
D18*
X-300000Y45475000D03*
X-8900000Y45475000D03*
%TD*%
D19*
%TO.C,R201*%
X7790000Y-1600000D03*
X8810000Y-1600000D03*
%TD*%
D20*
%TO.C,D102*%
X-12587500Y-1400000D03*
X-11012500Y-1400000D03*
%TD*%
D21*
%TO.C,J301*%
X-1000000Y-38900000D03*
X1000000Y-38900000D03*
D22*
X-3350000Y-44650000D03*
X3350000Y-44650000D03*
%TD*%
D19*
%TO.C,R101*%
X3890000Y-18100000D03*
X4910000Y-18100000D03*
%TD*%
D23*
%TO.C,R205*%
X-9190000Y-20500000D03*
X-10210000Y-20500000D03*
%TD*%
D24*
%TO.C,C209*%
X-11000000Y-15880000D03*
X-11000000Y-14920000D03*
%TD*%
D23*
%TO.C,R102*%
X5810000Y-14400000D03*
X4790000Y-14400000D03*
%TD*%
%TO.C,R204*%
X-11490000Y-13450000D03*
X-12510000Y-13450000D03*
%TD*%
D25*
%TO.C,SW201*%
X8600000Y-4100000D03*
X4400000Y-4100000D03*
%TD*%
D26*
%TO.C,U201*%
X-8475000Y-9650000D03*
X-8475000Y-10150000D03*
X-8475000Y-10650000D03*
X-8475000Y-11150000D03*
X-8475000Y-11650000D03*
X-8475000Y-12150000D03*
X-8475000Y-12650000D03*
X-8475000Y-13150000D03*
X-8475000Y-13650000D03*
X-8475000Y-14150000D03*
X-8475000Y-14650000D03*
X-8475000Y-15150000D03*
X-8475000Y-15650000D03*
X-8475000Y-16150000D03*
X-8475000Y-16650000D03*
X-8475000Y-17150000D03*
D27*
X-6550000Y-19075000D03*
X-6050000Y-19075000D03*
X-5550000Y-19075000D03*
X-5050000Y-19075000D03*
X-4550000Y-19075000D03*
X-4050000Y-19075000D03*
X-3550000Y-19075000D03*
X-3050000Y-19075000D03*
X-2550000Y-19075000D03*
X-2050000Y-19075000D03*
X-1550000Y-19075000D03*
X-1050000Y-19075000D03*
X-550000Y-19075000D03*
X-50000Y-19075000D03*
X450000Y-19075000D03*
X950000Y-19075000D03*
D26*
X2875000Y-17150000D03*
X2875000Y-16650000D03*
X2875000Y-16150000D03*
X2875000Y-15650000D03*
X2875000Y-15150000D03*
X2875000Y-14650000D03*
X2875000Y-14150000D03*
X2875000Y-13650000D03*
X2875000Y-13150000D03*
X2875000Y-12650000D03*
X2875000Y-12150000D03*
X2875000Y-11650000D03*
X2875000Y-11150000D03*
X2875000Y-10650000D03*
X2875000Y-10150000D03*
X2875000Y-9650000D03*
D27*
X950000Y-7725000D03*
X450000Y-7725000D03*
X-50000Y-7725000D03*
X-550000Y-7725000D03*
X-1050000Y-7725000D03*
X-1550000Y-7725000D03*
X-2050000Y-7725000D03*
X-2550000Y-7725000D03*
X-3050000Y-7725000D03*
X-3550000Y-7725000D03*
X-4050000Y-7725000D03*
X-4550000Y-7725000D03*
X-5050000Y-7725000D03*
X-5550000Y-7725000D03*
X-6050000Y-7725000D03*
X-6550000Y-7725000D03*
%TD*%
D28*
%TO.C,R107*%
X-12625000Y100000D03*
X-10975000Y100000D03*
%TD*%
D29*
%TO.C,R302*%
X-5862500Y-34700000D03*
X62500Y-34700000D03*
%TD*%
D30*
%TO.C,Q303*%
X5495000Y-31870000D03*
X6765000Y-31870000D03*
X8035000Y-31870000D03*
X9305000Y-31870000D03*
D31*
X7400000Y-28510000D03*
D32*
X5495000Y-26405000D03*
X6765000Y-26405000D03*
X8035000Y-26405000D03*
X9305000Y-26405000D03*
%TD*%
D33*
%TO.C,C102*%
X7100000Y8375000D03*
X7100000Y5425000D03*
%TD*%
D34*
%TO.C,C208*%
X-5320000Y-20600000D03*
X-6280000Y-20600000D03*
%TD*%
%TO.C,C205*%
X-7590000Y-7650000D03*
X-8550000Y-7650000D03*
%TD*%
D35*
%TO.C,R110*%
X1225000Y-28900000D03*
X-425000Y-28900000D03*
%TD*%
D36*
%TO.C,C306*%
X-11025000Y-28100000D03*
X-13975000Y-28100000D03*
%TD*%
D37*
%TO.C,C104*%
X-4700000Y8825000D03*
X-4700000Y10375000D03*
%TD*%
D30*
%TO.C,Q301*%
X-9305000Y-31870000D03*
X-8035000Y-31870000D03*
X-6765000Y-31870000D03*
X-5495000Y-31870000D03*
D31*
X-7400000Y-28510000D03*
D32*
X-9305000Y-26405000D03*
X-8035000Y-26405000D03*
X-6765000Y-26405000D03*
X-5495000Y-26405000D03*
%TD*%
D38*
%TO.C,Y201*%
X-11900000Y-10400000D03*
X-14100000Y-10400000D03*
X-14100000Y-12100000D03*
X-11900000Y-12100000D03*
%TD*%
D23*
%TO.C,R206*%
X-9190000Y-19500000D03*
X-10210000Y-19500000D03*
%TD*%
D39*
%TO.C,U102*%
X-7550000Y-3262500D03*
X-8500000Y-3262500D03*
X-9450000Y-3262500D03*
X-9450000Y-5537500D03*
X-7550000Y-5537500D03*
%TD*%
D24*
%TO.C,C212*%
X-10000000Y-18580000D03*
X-10000000Y-17620000D03*
%TD*%
D14*
%TO.C,C203*%
X725000Y-20900000D03*
X2275000Y-20900000D03*
%TD*%
D34*
%TO.C,C202*%
X-8570000Y-8650000D03*
X-9530000Y-8650000D03*
%TD*%
D40*
%TO.C,D303*%
X-13500000Y-38900000D03*
X-12100000Y-38900000D03*
%TD*%
D41*
%TO.C,U301*%
X6125000Y18380000D03*
D42*
X10750000Y17625000D03*
X10750000Y14575000D03*
X14100000Y17625000D03*
X14100000Y14575000D03*
D41*
X6125000Y13820000D03*
%TD*%
D28*
%TO.C,R104*%
X-4725000Y3400000D03*
X-3075000Y3400000D03*
%TD*%
D40*
%TO.C,D309*%
X12700000Y-38900000D03*
X14100000Y-38900000D03*
%TD*%
%TO.C,D301*%
X-13600000Y-31100000D03*
X-12200000Y-31100000D03*
%TD*%
D23*
%TO.C,R103*%
X5810000Y-15400000D03*
X4790000Y-15400000D03*
%TD*%
D34*
%TO.C,C213*%
X-13520000Y-13450000D03*
X-14480000Y-13450000D03*
%TD*%
D16*
%TO.C,D306*%
X3900000Y-30100000D03*
X3900000Y-31500000D03*
%TD*%
D24*
%TO.C,C210*%
X-10000000Y-15880000D03*
X-10000000Y-14920000D03*
%TD*%
D35*
%TO.C,R106*%
X-10975000Y1600000D03*
X-12625000Y1600000D03*
%TD*%
D43*
%TO.C,D201*%
X6587500Y-1600000D03*
X5012500Y-1600000D03*
%TD*%
D34*
%TO.C,C304*%
X-14620000Y-31000000D03*
X-15580000Y-31000000D03*
%TD*%
D44*
%TO.C,L201*%
X-12000000Y-14915000D03*
X-12000000Y-15885000D03*
%TD*%
D16*
%TO.C,D307*%
X10900000Y-40300000D03*
X10900000Y-41700000D03*
%TD*%
D37*
%TO.C,C204*%
X4700000Y-9925000D03*
X4700000Y-8375000D03*
%TD*%
%TO.C,C109*%
X-6000000Y-4575000D03*
X-6000000Y-3025000D03*
%TD*%
D45*
%TO.C,U101*%
X-2850000Y8800000D03*
X-2850000Y7530000D03*
X-2850000Y6260000D03*
X-2850000Y4990000D03*
X2550000Y4990000D03*
X2550000Y6260000D03*
X2550000Y7530000D03*
X2550000Y8800000D03*
D46*
X-150000Y6895000D03*
%TD*%
D16*
%TO.C,D308*%
X14400000Y-34300000D03*
X14400000Y-35700000D03*
%TD*%
D28*
%TO.C,R105*%
X-1725000Y3400000D03*
X-75000Y3400000D03*
%TD*%
D47*
%TO.C,C107*%
X1175000Y-30400000D03*
X-375000Y-30400000D03*
%TD*%
D48*
%TO.C,C309*%
X14200000Y-32270000D03*
X14200000Y-33230000D03*
%TD*%
D47*
%TO.C,C201*%
X-11025000Y-7400000D03*
X-12575000Y-7400000D03*
%TD*%
D28*
%TO.C,R112*%
X-12625000Y-5900000D03*
X-10975000Y-5900000D03*
%TD*%
D20*
%TO.C,D104*%
X-12587500Y-4400000D03*
X-11012500Y-4400000D03*
%TD*%
D49*
%TO.C,U303*%
X-3875000Y-31762500D03*
X-3225000Y-31762500D03*
X-2575000Y-31762500D03*
X-1925000Y-31762500D03*
X-1925000Y-26037500D03*
X-2575000Y-26037500D03*
X-3225000Y-26037500D03*
X-3875000Y-26037500D03*
%TD*%
D50*
%TO.C,R303*%
X-10400000Y-34480000D03*
X-10400000Y-35500000D03*
%TD*%
D51*
%TO.C,R202*%
X9800000Y-3910000D03*
X9800000Y-2890000D03*
%TD*%
D52*
%TO.C,C305*%
X-400000Y-25825000D03*
X-400000Y-27375000D03*
%TD*%
D23*
%TO.C,R307*%
X11710000Y-38700000D03*
X10690000Y-38700000D03*
%TD*%
D14*
%TO.C,C301*%
X10225000Y20400000D03*
X11775000Y20400000D03*
%TD*%
D53*
%TO.C,D103*%
X7200000Y-17212500D03*
X7200000Y-18787500D03*
%TD*%
D51*
%TO.C,R109*%
X10500000Y-8100000D03*
X10500000Y-7080000D03*
%TD*%
D40*
%TO.C,D310*%
X12700000Y-31100000D03*
X14100000Y-31100000D03*
%TD*%
D30*
%TO.C,Q304*%
X5495000Y-42870000D03*
X6765000Y-42870000D03*
X8035000Y-42870000D03*
X9305000Y-42870000D03*
D31*
X7400000Y-39510000D03*
D32*
X5495000Y-37405000D03*
X6765000Y-37405000D03*
X8035000Y-37405000D03*
X9305000Y-37405000D03*
%TD*%
D24*
%TO.C,C206*%
X3500000Y-8780000D03*
X3500000Y-7820000D03*
%TD*%
D54*
%TO.C,C105*%
X-8312500Y200000D03*
X-2087500Y200000D03*
%TD*%
D55*
%TO.C,C302*%
X-11780000Y-32300000D03*
X-10820000Y-32300000D03*
%TD*%
D34*
%TO.C,C308*%
X11680000Y-31300000D03*
X10720000Y-31300000D03*
%TD*%
D51*
%TO.C,R111*%
X7200000Y-20920000D03*
X7200000Y-19900000D03*
%TD*%
D33*
%TO.C,C307*%
X11300000Y-26525000D03*
X11300000Y-29475000D03*
%TD*%
D50*
%TO.C,R304*%
X-11800000Y-36750000D03*
X-11800000Y-37770000D03*
%TD*%
D56*
%TO.C,U302*%
X-13050000Y-32800000D03*
X-13550000Y-32800000D03*
X-14050000Y-32800000D03*
X-14550000Y-32800000D03*
X-15050000Y-32800000D03*
X-15050000Y-37200000D03*
X-14550000Y-37200000D03*
X-14050000Y-37200000D03*
X-13550000Y-37200000D03*
X-13050000Y-37200000D03*
%TD*%
D51*
%TO.C,R108*%
X10500000Y-6200000D03*
X10500000Y-5180000D03*
%TD*%
D23*
%TO.C,R207*%
X-9190000Y-21500000D03*
X-10210000Y-21500000D03*
%TD*%
D30*
%TO.C,Q302*%
X-9305000Y-42870000D03*
X-8035000Y-42870000D03*
X-6765000Y-42870000D03*
X-5495000Y-42870000D03*
D31*
X-7400000Y-39510000D03*
D32*
X-9305000Y-37405000D03*
X-8035000Y-37405000D03*
X-6765000Y-37405000D03*
X-5495000Y-37405000D03*
%TD*%
D56*
%TO.C,U304*%
X12900000Y-32800000D03*
X12400000Y-32800000D03*
X11900000Y-32800000D03*
X11400000Y-32800000D03*
X10900000Y-32800000D03*
X10900000Y-37200000D03*
X11400000Y-37200000D03*
X11900000Y-37200000D03*
X12400000Y-37200000D03*
X12900000Y-37200000D03*
%TD*%
D19*
%TO.C,R203*%
X-12010000Y-16900000D03*
X-10990000Y-16900000D03*
%TD*%
D55*
%TO.C,C207*%
X1820000Y-19600000D03*
X2780000Y-19600000D03*
%TD*%
D33*
%TO.C,C103*%
X4800000Y8375000D03*
X4800000Y5425000D03*
%TD*%
D50*
%TO.C,R305*%
X15600000Y-34490000D03*
X15600000Y-35510000D03*
%TD*%
D16*
%TO.C,D304*%
X-10900000Y-29800000D03*
X-10900000Y-31200000D03*
%TD*%
D34*
%TO.C,C211*%
X-12520000Y-9050000D03*
X-13480000Y-9050000D03*
%TD*%
D48*
%TO.C,C106*%
X9500000Y-7110000D03*
X9500000Y-8070000D03*
%TD*%
D50*
%TO.C,R306*%
X14200000Y-36740000D03*
X14200000Y-37760000D03*
%TD*%
D16*
%TO.C,D305*%
X-10900000Y-40300000D03*
X-10900000Y-41700000D03*
%TD*%
D47*
%TO.C,C108*%
X-11025000Y-2900000D03*
X-12575000Y-2900000D03*
%TD*%
D23*
%TO.C,R301*%
X-14490000Y-38700000D03*
X-15510000Y-38700000D03*
%TD*%
M02*
