%TF.GenerationSoftware,KiCad,Pcbnew,7.0.6*%
%TF.CreationDate,2024-05-08T12:01:16-04:00*%
%TF.ProjectId,ActiveImpactor_Power,41637469-7665-4496-9d70-6163746f725f,rev?*%
%TF.SameCoordinates,Original*%
%TF.FileFunction,Other,Comment*%
%FSLAX46Y46*%
G04 Gerber Fmt 4.6, Leading zero omitted, Abs format (unit mm)*
G04 Created by KiCad (PCBNEW 7.0.6) date 2024-05-08 12:01:16*
%MOMM*%
%LPD*%
G01*
G04 APERTURE LIST*
%ADD10C,0.070000*%
%ADD11C,0.150000*%
G04 APERTURE END LIST*
D10*
X-12553592Y-22608095D02*
X-12953592Y-22608095D01*
X-12553592Y-22379524D02*
X-12782163Y-22550953D01*
X-12953592Y-22379524D02*
X-12725020Y-22608095D01*
X-12763116Y-22208095D02*
X-12763116Y-22074762D01*
X-12553592Y-22017619D02*
X-12553592Y-22208095D01*
X-12553592Y-22208095D02*
X-12953592Y-22208095D01*
X-12953592Y-22208095D02*
X-12953592Y-22017619D01*
X-12763116Y-21846190D02*
X-12763116Y-21712857D01*
X-12553592Y-21655714D02*
X-12553592Y-21846190D01*
X-12553592Y-21846190D02*
X-12953592Y-21846190D01*
X-12953592Y-21846190D02*
X-12953592Y-21655714D01*
X-12553592Y-21484285D02*
X-12953592Y-21484285D01*
X-12953592Y-21484285D02*
X-12953592Y-21331904D01*
X-12953592Y-21331904D02*
X-12934544Y-21293809D01*
X-12934544Y-21293809D02*
X-12915497Y-21274762D01*
X-12915497Y-21274762D02*
X-12877401Y-21255714D01*
X-12877401Y-21255714D02*
X-12820259Y-21255714D01*
X-12820259Y-21255714D02*
X-12782163Y-21274762D01*
X-12782163Y-21274762D02*
X-12763116Y-21293809D01*
X-12763116Y-21293809D02*
X-12744068Y-21331904D01*
X-12744068Y-21331904D02*
X-12744068Y-21484285D01*
X-12953592Y-21008095D02*
X-12953592Y-20931904D01*
X-12953592Y-20931904D02*
X-12934544Y-20893809D01*
X-12934544Y-20893809D02*
X-12896449Y-20855714D01*
X-12896449Y-20855714D02*
X-12820259Y-20836666D01*
X-12820259Y-20836666D02*
X-12686925Y-20836666D01*
X-12686925Y-20836666D02*
X-12610735Y-20855714D01*
X-12610735Y-20855714D02*
X-12572640Y-20893809D01*
X-12572640Y-20893809D02*
X-12553592Y-20931904D01*
X-12553592Y-20931904D02*
X-12553592Y-21008095D01*
X-12553592Y-21008095D02*
X-12572640Y-21046190D01*
X-12572640Y-21046190D02*
X-12610735Y-21084285D01*
X-12610735Y-21084285D02*
X-12686925Y-21103333D01*
X-12686925Y-21103333D02*
X-12820259Y-21103333D01*
X-12820259Y-21103333D02*
X-12896449Y-21084285D01*
X-12896449Y-21084285D02*
X-12934544Y-21046190D01*
X-12934544Y-21046190D02*
X-12953592Y-21008095D01*
X-12953592Y-20665237D02*
X-12629782Y-20665237D01*
X-12629782Y-20665237D02*
X-12591687Y-20646190D01*
X-12591687Y-20646190D02*
X-12572640Y-20627142D01*
X-12572640Y-20627142D02*
X-12553592Y-20589047D01*
X-12553592Y-20589047D02*
X-12553592Y-20512856D01*
X-12553592Y-20512856D02*
X-12572640Y-20474761D01*
X-12572640Y-20474761D02*
X-12591687Y-20455714D01*
X-12591687Y-20455714D02*
X-12629782Y-20436666D01*
X-12629782Y-20436666D02*
X-12953592Y-20436666D01*
X-12953592Y-20303332D02*
X-12953592Y-20074761D01*
X-12553592Y-20189047D02*
X-12953592Y-20189047D01*
D11*
%TO.C,H102*%
X-11390500Y44053000D02*
G75*
G03*
X-11390500Y44053000I-2500000J0D01*
G01*
%TO.C,H101*%
X16390500Y44053000D02*
G75*
G03*
X16390500Y44053000I-2500000J0D01*
G01*
%TO.C,H104*%
X16390500Y-44053000D02*
G75*
G03*
X16390500Y-44053000I-2500000J0D01*
G01*
%TO.C,H103*%
X-11390500Y-44053000D02*
G75*
G03*
X-11390500Y-44053000I-2500000J0D01*
G01*
%TD*%
M02*
