%TF.GenerationSoftware,KiCad,Pcbnew,8.0.4*%
%TF.CreationDate,2024-10-25T17:05:04-04:00*%
%TF.ProjectId,ActiveImpactor_NoseAccelerometer,41637469-7665-4496-9d70-6163746f725f,rev?*%
%TF.SameCoordinates,Original*%
%TF.FileFunction,Copper,L2,Bot*%
%TF.FilePolarity,Positive*%
%FSLAX46Y46*%
G04 Gerber Fmt 4.6, Leading zero omitted, Abs format (unit mm)*
G04 Created by KiCad (PCBNEW 8.0.4) date 2024-10-25 17:05:04*
%MOMM*%
%LPD*%
G01*
G04 APERTURE LIST*
%TA.AperFunction,ComponentPad*%
%ADD10C,4.400000*%
%TD*%
%TA.AperFunction,ViaPad*%
%ADD11C,0.700000*%
%TD*%
%TA.AperFunction,Conductor*%
%ADD12C,0.500000*%
%TD*%
%TA.AperFunction,Conductor*%
%ADD13C,0.200000*%
%TD*%
G04 APERTURE END LIST*
D10*
%TO.P,H104,1*%
%TO.N,N/C*%
X-9525000Y9525000D03*
%TD*%
%TO.P,H103,1*%
%TO.N,N/C*%
X-9525000Y-9525000D03*
%TD*%
%TO.P,H102,1*%
%TO.N,N/C*%
X9525000Y9525000D03*
%TD*%
%TO.P,H101,1*%
%TO.N,N/C*%
X9525000Y-9525000D03*
%TD*%
D11*
%TO.N,+3.3V*%
X9100000Y5100000D03*
X6100000Y5100000D03*
%TO.N,GND*%
X-500000Y-12500000D03*
X500000Y-12500000D03*
%TO.N,/INT*%
X-10300000Y3300000D03*
X-6500000Y3400000D03*
%TO.N,GND*%
X3000000Y6800000D03*
%TD*%
D12*
%TO.N,+3.3V*%
X6100000Y5100000D02*
X9100000Y5100000D01*
D13*
%TO.N,/INT*%
X-10200000Y3400000D02*
X-10300000Y3300000D01*
X-6500000Y3400000D02*
X-10200000Y3400000D01*
%TD*%
%TA.AperFunction,Conductor*%
%TO.N,GND*%
G36*
X423827Y17950679D02*
G01*
X1258965Y17911491D01*
X1264765Y17911082D01*
X2097129Y17832794D01*
X2102902Y17832114D01*
X2930685Y17714897D01*
X2936421Y17713947D01*
X3757786Y17558061D01*
X3763471Y17556844D01*
X4576663Y17362622D01*
X4582284Y17361139D01*
X5385457Y17129021D01*
X5391003Y17127276D01*
X6182395Y16857772D01*
X6187853Y16855770D01*
X6965788Y16549450D01*
X6971146Y16547193D01*
X7733825Y16204766D01*
X7739072Y16202261D01*
X8484883Y15824451D01*
X8490006Y15821703D01*
X9217279Y15409356D01*
X9222268Y15406371D01*
X9929433Y14960377D01*
X9934276Y14957161D01*
X10619728Y14478531D01*
X10624415Y14475092D01*
X11286715Y13964833D01*
X11291236Y13961178D01*
X11928862Y13420461D01*
X11933207Y13416598D01*
X12544806Y12846569D01*
X12548965Y12842506D01*
X13133161Y12244451D01*
X13137125Y12240198D01*
X13692653Y11615410D01*
X13696413Y11610976D01*
X14222041Y10960840D01*
X14225589Y10956235D01*
X14720167Y10282178D01*
X14723496Y10277411D01*
X15185941Y9580903D01*
X15189042Y9575986D01*
X15618335Y8858561D01*
X15621202Y8853503D01*
X16016375Y8116786D01*
X16019003Y8111600D01*
X16379234Y7357119D01*
X16381615Y7351815D01*
X16706072Y6581310D01*
X16708202Y6575901D01*
X16996192Y5791022D01*
X16998066Y5785519D01*
X17248952Y4988000D01*
X17250566Y4982414D01*
X17463788Y4174040D01*
X17465139Y4168386D01*
X17640243Y3350871D01*
X17641327Y3345159D01*
X17777917Y2520348D01*
X17778732Y2514591D01*
X17876512Y1684282D01*
X17877056Y1678494D01*
X17935809Y844538D01*
X17936082Y838731D01*
X17955681Y2907D01*
X17955681Y-2907D01*
X17936082Y-838731D01*
X17935809Y-844538D01*
X17877056Y-1678494D01*
X17876512Y-1684282D01*
X17778732Y-2514591D01*
X17777917Y-2520348D01*
X17641327Y-3345159D01*
X17640243Y-3350871D01*
X17465139Y-4168386D01*
X17463788Y-4174040D01*
X17250566Y-4982414D01*
X17248952Y-4988000D01*
X16998066Y-5785519D01*
X16996192Y-5791022D01*
X16708202Y-6575901D01*
X16706072Y-6581310D01*
X16381615Y-7351815D01*
X16379234Y-7357119D01*
X16019003Y-8111600D01*
X16016375Y-8116786D01*
X15621202Y-8853503D01*
X15618335Y-8858561D01*
X15189042Y-9575986D01*
X15185941Y-9580903D01*
X14723496Y-10277411D01*
X14720167Y-10282178D01*
X14225589Y-10956235D01*
X14222041Y-10960840D01*
X13696413Y-11610976D01*
X13692653Y-11615410D01*
X13137125Y-12240198D01*
X13133161Y-12244451D01*
X12548965Y-12842506D01*
X12544806Y-12846569D01*
X11933207Y-13416598D01*
X11928862Y-13420461D01*
X11291236Y-13961178D01*
X11286715Y-13964833D01*
X10624415Y-14475092D01*
X10619728Y-14478531D01*
X9934276Y-14957161D01*
X9929433Y-14960377D01*
X9222268Y-15406371D01*
X9217279Y-15409356D01*
X8490006Y-15821703D01*
X8484883Y-15824451D01*
X7739072Y-16202261D01*
X7733825Y-16204766D01*
X6971146Y-16547193D01*
X6965788Y-16549450D01*
X6187853Y-16855770D01*
X6182395Y-16857772D01*
X5391003Y-17127276D01*
X5385457Y-17129021D01*
X4582284Y-17361139D01*
X4576663Y-17362622D01*
X3763471Y-17556844D01*
X3757786Y-17558061D01*
X2936421Y-17713947D01*
X2930685Y-17714897D01*
X2102902Y-17832114D01*
X2097129Y-17832794D01*
X1264765Y-17911082D01*
X1258965Y-17911491D01*
X423827Y-17950679D01*
X418015Y-17950815D01*
X-418015Y-17950815D01*
X-423827Y-17950679D01*
X-1258965Y-17911491D01*
X-1264765Y-17911082D01*
X-2097129Y-17832794D01*
X-2102902Y-17832114D01*
X-2930685Y-17714897D01*
X-2936421Y-17713947D01*
X-3757786Y-17558061D01*
X-3763471Y-17556844D01*
X-4576663Y-17362622D01*
X-4582284Y-17361139D01*
X-5385457Y-17129021D01*
X-5391003Y-17127276D01*
X-6182395Y-16857772D01*
X-6187853Y-16855770D01*
X-6965788Y-16549450D01*
X-6971146Y-16547193D01*
X-7733825Y-16204766D01*
X-7739072Y-16202261D01*
X-8484883Y-15824451D01*
X-8490006Y-15821703D01*
X-9217279Y-15409356D01*
X-9222268Y-15406371D01*
X-9929433Y-14960377D01*
X-9934276Y-14957161D01*
X-10619728Y-14478531D01*
X-10624415Y-14475092D01*
X-11286715Y-13964833D01*
X-11291236Y-13961178D01*
X-11928862Y-13420461D01*
X-11933207Y-13416598D01*
X-12544806Y-12846569D01*
X-12548965Y-12842506D01*
X-13133161Y-12244451D01*
X-13137125Y-12240198D01*
X-13692653Y-11615410D01*
X-13696413Y-11610976D01*
X-14222041Y-10960840D01*
X-14225589Y-10956235D01*
X-14720167Y-10282178D01*
X-14723496Y-10277411D01*
X-15185941Y-9580903D01*
X-15189042Y-9575986D01*
X-15219551Y-9525000D01*
X-12230436Y-9525000D01*
X-12210710Y-9851104D01*
X-12151821Y-10172453D01*
X-12054627Y-10484361D01*
X-11920545Y-10782279D01*
X-11751530Y-11061863D01*
X-11550048Y-11319036D01*
X-11319036Y-11550048D01*
X-11061863Y-11751530D01*
X-10782279Y-11920545D01*
X-10484361Y-12054627D01*
X-10172453Y-12151821D01*
X-9851104Y-12210710D01*
X-9525000Y-12230436D01*
X-9198896Y-12210710D01*
X-8877547Y-12151821D01*
X-8565657Y-12054633D01*
X-8565652Y-12054631D01*
X-8565639Y-12054627D01*
X-8267721Y-11920545D01*
X-7988137Y-11751530D01*
X-7988134Y-11751528D01*
X-7988131Y-11751526D01*
X-7730960Y-11550045D01*
X-7499954Y-11319039D01*
X-7298473Y-11061868D01*
X-7293901Y-11054306D01*
X-7129455Y-10782279D01*
X-6995373Y-10484361D01*
X-6995370Y-10484354D01*
X-6995366Y-10484342D01*
X-6898178Y-10172452D01*
X-6839289Y-9851099D01*
X-6819564Y-9525000D01*
X6819564Y-9525000D01*
X6839289Y-9851099D01*
X6898178Y-10172452D01*
X6995366Y-10484342D01*
X6995370Y-10484354D01*
X6995373Y-10484361D01*
X7129455Y-10782279D01*
X7293901Y-11054306D01*
X7298473Y-11061868D01*
X7499954Y-11319039D01*
X7730960Y-11550045D01*
X7988131Y-11751526D01*
X7988134Y-11751528D01*
X7988137Y-11751530D01*
X8267721Y-11920545D01*
X8565639Y-12054627D01*
X8565652Y-12054631D01*
X8565657Y-12054633D01*
X8877547Y-12151821D01*
X9198896Y-12210710D01*
X9525000Y-12230436D01*
X9851104Y-12210710D01*
X10172453Y-12151821D01*
X10484361Y-12054627D01*
X10782279Y-11920545D01*
X11061863Y-11751530D01*
X11319036Y-11550048D01*
X11550048Y-11319036D01*
X11751530Y-11061863D01*
X11920545Y-10782279D01*
X12054627Y-10484361D01*
X12151821Y-10172453D01*
X12210710Y-9851104D01*
X12230436Y-9525000D01*
X12210710Y-9198896D01*
X12151821Y-8877547D01*
X12054627Y-8565639D01*
X11920545Y-8267721D01*
X11751530Y-7988137D01*
X11751528Y-7988134D01*
X11751526Y-7988131D01*
X11550045Y-7730960D01*
X11319039Y-7499954D01*
X11061868Y-7298473D01*
X11054306Y-7293901D01*
X10782279Y-7129455D01*
X10484361Y-6995373D01*
X10484354Y-6995370D01*
X10484342Y-6995366D01*
X10172452Y-6898178D01*
X9851099Y-6839289D01*
X9525000Y-6819564D01*
X9198900Y-6839289D01*
X8877547Y-6898178D01*
X8565657Y-6995366D01*
X8565641Y-6995372D01*
X8565639Y-6995373D01*
X8375933Y-7080752D01*
X8267725Y-7129453D01*
X8267723Y-7129454D01*
X7988131Y-7298473D01*
X7730960Y-7499954D01*
X7499954Y-7730960D01*
X7298473Y-7988131D01*
X7129454Y-8267723D01*
X7129453Y-8267725D01*
X6995372Y-8565642D01*
X6995366Y-8565657D01*
X6898178Y-8877547D01*
X6839289Y-9198900D01*
X6819564Y-9525000D01*
X-6819564Y-9525000D01*
X-6839289Y-9198900D01*
X-6898178Y-8877547D01*
X-6995366Y-8565657D01*
X-6995372Y-8565642D01*
X-7129453Y-8267725D01*
X-7129454Y-8267723D01*
X-7298473Y-7988131D01*
X-7499954Y-7730960D01*
X-7730960Y-7499954D01*
X-7988131Y-7298473D01*
X-8267723Y-7129454D01*
X-8267725Y-7129453D01*
X-8375933Y-7080752D01*
X-8565639Y-6995373D01*
X-8565642Y-6995372D01*
X-8565657Y-6995366D01*
X-8877547Y-6898178D01*
X-9198900Y-6839289D01*
X-9525000Y-6819564D01*
X-9851099Y-6839289D01*
X-10172452Y-6898178D01*
X-10484342Y-6995366D01*
X-10484354Y-6995370D01*
X-10484361Y-6995373D01*
X-10782279Y-7129455D01*
X-11054306Y-7293901D01*
X-11061868Y-7298473D01*
X-11319039Y-7499954D01*
X-11550045Y-7730960D01*
X-11751526Y-7988131D01*
X-11751528Y-7988134D01*
X-11751530Y-7988137D01*
X-11920545Y-8267721D01*
X-12054627Y-8565639D01*
X-12151821Y-8877547D01*
X-12210710Y-9198896D01*
X-12230436Y-9525000D01*
X-15219551Y-9525000D01*
X-15618335Y-8858561D01*
X-15621202Y-8853503D01*
X-16016375Y-8116786D01*
X-16019003Y-8111600D01*
X-16379234Y-7357119D01*
X-16381615Y-7351815D01*
X-16706072Y-6581310D01*
X-16708202Y-6575901D01*
X-16996192Y-5791022D01*
X-16998066Y-5785519D01*
X-17248952Y-4988000D01*
X-17250566Y-4982414D01*
X-17463788Y-4174040D01*
X-17465139Y-4168386D01*
X-17640243Y-3350871D01*
X-17641327Y-3345159D01*
X-17777917Y-2520348D01*
X-17778732Y-2514591D01*
X-17876512Y-1684282D01*
X-17877056Y-1678494D01*
X-17935809Y-844538D01*
X-17936082Y-838731D01*
X-17955681Y-2907D01*
X-17955681Y0D01*
X-5861757Y0D01*
X-5841736Y-484060D01*
X-5781810Y-964813D01*
X-5682389Y-1438976D01*
X-5544151Y-1903309D01*
X-5368041Y-2354641D01*
X-5368037Y-2354648D01*
X-5368035Y-2354654D01*
X-5234465Y-2627875D01*
X-5155261Y-2789888D01*
X-4907266Y-3206077D01*
X-4625750Y-3600366D01*
X-4625747Y-3600369D01*
X-4312636Y-3970059D01*
X-4312631Y-3970065D01*
X-3970065Y-4312631D01*
X-3970060Y-4312635D01*
X-3600366Y-4625750D01*
X-3206077Y-4907266D01*
X-2789888Y-5155261D01*
X-2789878Y-5155265D01*
X-2789878Y-5155266D01*
X-2354654Y-5368035D01*
X-2354648Y-5368037D01*
X-2354641Y-5368041D01*
X-1903309Y-5544151D01*
X-1438976Y-5682389D01*
X-964813Y-5781810D01*
X-484060Y-5841736D01*
X-35623Y-5860283D01*
X-2Y-5861757D01*
X0Y-5861757D01*
X2Y-5861757D01*
X35623Y-5860283D01*
X484060Y-5841736D01*
X964813Y-5781810D01*
X1438976Y-5682389D01*
X1903309Y-5544151D01*
X2354641Y-5368041D01*
X2354648Y-5368037D01*
X2354654Y-5368035D01*
X2789878Y-5155266D01*
X2789878Y-5155265D01*
X2789888Y-5155261D01*
X3206077Y-4907266D01*
X3600366Y-4625750D01*
X3970060Y-4312635D01*
X3970065Y-4312631D01*
X4312631Y-3970065D01*
X4312636Y-3970059D01*
X4625747Y-3600369D01*
X4625750Y-3600366D01*
X4907266Y-3206077D01*
X5155261Y-2789888D01*
X5234465Y-2627875D01*
X5368035Y-2354654D01*
X5368037Y-2354648D01*
X5368041Y-2354641D01*
X5544151Y-1903309D01*
X5682389Y-1438976D01*
X5781810Y-964813D01*
X5841736Y-484060D01*
X5861757Y0D01*
X5841736Y484060D01*
X5781810Y964813D01*
X5682389Y1438976D01*
X5544151Y1903309D01*
X5368041Y2354641D01*
X5303495Y2486671D01*
X5155266Y2789878D01*
X5155265Y2789879D01*
X5155261Y2789888D01*
X4907266Y3206077D01*
X4625750Y3600366D01*
X4312635Y3970060D01*
X4312631Y3970065D01*
X3970065Y4312631D01*
X3970059Y4312636D01*
X3687899Y4551613D01*
X3600366Y4625750D01*
X3206077Y4907266D01*
X2882628Y5100000D01*
X5244815Y5100000D01*
X5263503Y4922194D01*
X5263504Y4922192D01*
X5318747Y4752170D01*
X5318750Y4752164D01*
X5408140Y4597336D01*
X5527764Y4464478D01*
X5527767Y4464476D01*
X5672405Y4359389D01*
X5835735Y4286670D01*
X5835734Y4286670D01*
X5973439Y4257400D01*
X6010609Y4249500D01*
X6010610Y4249500D01*
X6189390Y4249500D01*
X6189391Y4249500D01*
X6254047Y4263243D01*
X6364264Y4286670D01*
X6364265Y4286670D01*
X6364267Y4286671D01*
X6481306Y4338780D01*
X6531741Y4349500D01*
X8668259Y4349500D01*
X8718694Y4338780D01*
X8835735Y4286670D01*
X8835734Y4286670D01*
X8973439Y4257400D01*
X9010609Y4249500D01*
X9010610Y4249500D01*
X9189390Y4249500D01*
X9189391Y4249500D01*
X9254047Y4263243D01*
X9364264Y4286670D01*
X9364265Y4286670D01*
X9364267Y4286671D01*
X9527593Y4359388D01*
X9672230Y4464474D01*
X9672232Y4464476D01*
X9672235Y4464478D01*
X9745003Y4545296D01*
X9791859Y4597335D01*
X9881250Y4752165D01*
X9936497Y4922197D01*
X9955185Y5100000D01*
X9936497Y5277803D01*
X9881250Y5447835D01*
X9791859Y5602665D01*
X9672230Y5735526D01*
X9527593Y5840612D01*
X9364267Y5913329D01*
X9189391Y5950500D01*
X9010609Y5950500D01*
X8835733Y5913329D01*
X8718694Y5861220D01*
X8668259Y5850500D01*
X6531741Y5850500D01*
X6481306Y5861220D01*
X6480100Y5861757D01*
X6364267Y5913329D01*
X6189391Y5950500D01*
X6010609Y5950500D01*
X5835733Y5913329D01*
X5835728Y5913327D01*
X5802988Y5898750D01*
X5672408Y5840612D01*
X5527770Y5735526D01*
X5408141Y5602665D01*
X5408140Y5602663D01*
X5318750Y5447835D01*
X5318747Y5447829D01*
X5263504Y5277807D01*
X5263503Y5277805D01*
X5244815Y5100000D01*
X2882628Y5100000D01*
X2789888Y5155261D01*
X2789878Y5155266D01*
X2354654Y5368035D01*
X2354648Y5368037D01*
X2354641Y5368041D01*
X1903309Y5544151D01*
X1438976Y5682389D01*
X964813Y5781810D01*
X484060Y5841736D01*
X35623Y5860283D01*
X2Y5861757D01*
X-2Y5861757D01*
X-35623Y5860283D01*
X-484060Y5841736D01*
X-964813Y5781810D01*
X-1438976Y5682389D01*
X-1903309Y5544151D01*
X-2354641Y5368041D01*
X-2354648Y5368037D01*
X-2354654Y5368035D01*
X-2789878Y5155266D01*
X-2789888Y5155261D01*
X-3206077Y4907266D01*
X-3600366Y4625750D01*
X-3687899Y4551613D01*
X-3970059Y4312636D01*
X-3970065Y4312631D01*
X-4312631Y3970065D01*
X-4312635Y3970060D01*
X-4625750Y3600366D01*
X-4907266Y3206077D01*
X-5155261Y2789888D01*
X-5155265Y2789879D01*
X-5155266Y2789878D01*
X-5303495Y2486671D01*
X-5368041Y2354641D01*
X-5544151Y1903309D01*
X-5682389Y1438976D01*
X-5781810Y964813D01*
X-5841736Y484060D01*
X-5861757Y0D01*
X-17955681Y0D01*
X-17955681Y2907D01*
X-17936082Y838731D01*
X-17935809Y844538D01*
X-17877056Y1678494D01*
X-17876512Y1684282D01*
X-17778732Y2514591D01*
X-17777917Y2520348D01*
X-17648805Y3300000D01*
X-11155185Y3300000D01*
X-11136497Y3122197D01*
X-11081250Y2952165D01*
X-10991859Y2797335D01*
X-10962269Y2764472D01*
X-10872235Y2664478D01*
X-10872232Y2664476D01*
X-10872230Y2664474D01*
X-10727593Y2559388D01*
X-10564267Y2486671D01*
X-10564265Y2486670D01*
X-10436594Y2459533D01*
X-10389391Y2449500D01*
X-10389390Y2449500D01*
X-10210610Y2449500D01*
X-10210609Y2449500D01*
X-10163405Y2459533D01*
X-10035735Y2486670D01*
X-9872405Y2559389D01*
X-9727767Y2664476D01*
X-9727764Y2664478D01*
X-9643133Y2758472D01*
X-9583646Y2795121D01*
X-9550983Y2799500D01*
X-7158729Y2799500D01*
X-7091690Y2779815D01*
X-7075755Y2767649D01*
X-7072234Y2764478D01*
X-7072230Y2764474D01*
X-6927593Y2659388D01*
X-6764267Y2586671D01*
X-6764265Y2586670D01*
X-6636594Y2559533D01*
X-6589391Y2549500D01*
X-6589390Y2549500D01*
X-6410610Y2549500D01*
X-6410609Y2549500D01*
X-6363405Y2559533D01*
X-6235735Y2586670D01*
X-6072405Y2659389D01*
X-5927767Y2764476D01*
X-5927764Y2764478D01*
X-5808140Y2897336D01*
X-5718750Y3052164D01*
X-5718747Y3052170D01*
X-5663504Y3222192D01*
X-5663503Y3222194D01*
X-5644815Y3400000D01*
X-5663503Y3577805D01*
X-5663504Y3577807D01*
X-5718747Y3747829D01*
X-5718750Y3747835D01*
X-5808140Y3902663D01*
X-5808141Y3902665D01*
X-5868828Y3970065D01*
X-5927764Y4035521D01*
X-5927767Y4035523D01*
X-5927770Y4035526D01*
X-6072407Y4140612D01*
X-6235733Y4213329D01*
X-6410609Y4250500D01*
X-6589391Y4250500D01*
X-6764267Y4213329D01*
X-6927592Y4140612D01*
X-7072230Y4035526D01*
X-7072238Y4035517D01*
X-7075755Y4032351D01*
X-7138747Y4002121D01*
X-7158729Y4000500D01*
X-9776907Y4000500D01*
X-9843946Y4020185D01*
X-9849792Y4024182D01*
X-9872402Y4040609D01*
X-9872404Y4040610D01*
X-9872407Y4040612D01*
X-10035733Y4113329D01*
X-10210609Y4150500D01*
X-10389391Y4150500D01*
X-10564267Y4113329D01*
X-10727592Y4040612D01*
X-10872230Y3935526D01*
X-10991859Y3802665D01*
X-11081250Y3647835D01*
X-11136497Y3477803D01*
X-11155185Y3300000D01*
X-17648805Y3300000D01*
X-17641327Y3345159D01*
X-17640243Y3350871D01*
X-17465139Y4168386D01*
X-17463788Y4174040D01*
X-17250566Y4982414D01*
X-17248952Y4988000D01*
X-16998066Y5785519D01*
X-16996192Y5791022D01*
X-16708202Y6575901D01*
X-16706072Y6581310D01*
X-16381615Y7351815D01*
X-16379234Y7357119D01*
X-16019003Y8111600D01*
X-16016375Y8116786D01*
X-15621202Y8853503D01*
X-15618335Y8858561D01*
X-15219551Y9525000D01*
X-12230436Y9525000D01*
X-12210710Y9198896D01*
X-12151821Y8877547D01*
X-12054627Y8565639D01*
X-11920545Y8267721D01*
X-11751530Y7988137D01*
X-11751526Y7988131D01*
X-11550045Y7730960D01*
X-11319039Y7499954D01*
X-11061868Y7298473D01*
X-11061863Y7298470D01*
X-10782279Y7129455D01*
X-10484361Y6995373D01*
X-10484354Y6995370D01*
X-10484342Y6995366D01*
X-10172452Y6898178D01*
X-9851099Y6839289D01*
X-9525000Y6819564D01*
X-9198900Y6839289D01*
X-8877547Y6898178D01*
X-8565657Y6995366D01*
X-8565642Y6995372D01*
X-8565641Y6995372D01*
X-8565639Y6995373D01*
X-8267721Y7129455D01*
X-8197825Y7171708D01*
X-7988131Y7298473D01*
X-7730960Y7499954D01*
X-7499954Y7730960D01*
X-7298473Y7988131D01*
X-7129454Y8267723D01*
X-7129453Y8267725D01*
X-6995372Y8565642D01*
X-6995366Y8565657D01*
X-6898178Y8877547D01*
X-6839289Y9198900D01*
X-6819564Y9525000D01*
X6819564Y9525000D01*
X6839289Y9198900D01*
X6898178Y8877547D01*
X6995366Y8565657D01*
X6995372Y8565642D01*
X7129453Y8267725D01*
X7129454Y8267723D01*
X7298473Y7988131D01*
X7499954Y7730960D01*
X7730960Y7499954D01*
X7988131Y7298473D01*
X8197825Y7171708D01*
X8267721Y7129455D01*
X8565639Y6995373D01*
X8565641Y6995372D01*
X8565642Y6995372D01*
X8565657Y6995366D01*
X8877547Y6898178D01*
X9198900Y6839289D01*
X9525000Y6819564D01*
X9851099Y6839289D01*
X10172452Y6898178D01*
X10484342Y6995366D01*
X10484354Y6995370D01*
X10484361Y6995373D01*
X10782279Y7129455D01*
X11061863Y7298470D01*
X11061868Y7298473D01*
X11319039Y7499954D01*
X11550045Y7730960D01*
X11751526Y7988131D01*
X11751530Y7988137D01*
X11920545Y8267721D01*
X12054627Y8565639D01*
X12151821Y8877547D01*
X12210710Y9198896D01*
X12230436Y9525000D01*
X12210710Y9851104D01*
X12151821Y10172453D01*
X12054627Y10484361D01*
X11920545Y10782279D01*
X11751530Y11061863D01*
X11550048Y11319036D01*
X11319036Y11550048D01*
X11061863Y11751530D01*
X10782279Y11920545D01*
X10484361Y12054627D01*
X10172453Y12151821D01*
X9851104Y12210710D01*
X9525000Y12230436D01*
X9198896Y12210710D01*
X8877547Y12151821D01*
X8565657Y12054633D01*
X8565652Y12054631D01*
X8565639Y12054627D01*
X8267721Y11920545D01*
X7988137Y11751530D01*
X7988134Y11751528D01*
X7988131Y11751526D01*
X7730960Y11550045D01*
X7499954Y11319039D01*
X7298473Y11061868D01*
X7298470Y11061863D01*
X7129455Y10782279D01*
X6995373Y10484361D01*
X6995372Y10484357D01*
X6995366Y10484342D01*
X6898178Y10172452D01*
X6839289Y9851099D01*
X6819564Y9525000D01*
X-6819564Y9525000D01*
X-6839289Y9851099D01*
X-6898178Y10172452D01*
X-6995366Y10484342D01*
X-6995372Y10484357D01*
X-6995373Y10484361D01*
X-7129455Y10782279D01*
X-7298470Y11061863D01*
X-7298473Y11061868D01*
X-7499954Y11319039D01*
X-7730960Y11550045D01*
X-7988131Y11751526D01*
X-7988134Y11751528D01*
X-7988137Y11751530D01*
X-8267721Y11920545D01*
X-8565639Y12054627D01*
X-8565652Y12054631D01*
X-8565657Y12054633D01*
X-8877547Y12151821D01*
X-9198896Y12210710D01*
X-9525000Y12230436D01*
X-9851104Y12210710D01*
X-10172453Y12151821D01*
X-10484361Y12054627D01*
X-10782279Y11920545D01*
X-11061863Y11751530D01*
X-11319036Y11550048D01*
X-11550048Y11319036D01*
X-11751530Y11061863D01*
X-11920545Y10782279D01*
X-12054627Y10484361D01*
X-12151821Y10172453D01*
X-12210710Y9851104D01*
X-12230436Y9525000D01*
X-15219551Y9525000D01*
X-15189042Y9575986D01*
X-15185941Y9580903D01*
X-14723496Y10277411D01*
X-14720167Y10282178D01*
X-14225589Y10956235D01*
X-14222041Y10960840D01*
X-13696413Y11610976D01*
X-13692653Y11615410D01*
X-13137125Y12240198D01*
X-13133161Y12244451D01*
X-12548965Y12842506D01*
X-12544806Y12846569D01*
X-11933207Y13416598D01*
X-11928862Y13420461D01*
X-11291236Y13961178D01*
X-11286715Y13964833D01*
X-10624415Y14475092D01*
X-10619728Y14478531D01*
X-9934276Y14957161D01*
X-9929433Y14960377D01*
X-9222268Y15406371D01*
X-9217279Y15409356D01*
X-8490006Y15821703D01*
X-8484883Y15824451D01*
X-7739072Y16202261D01*
X-7733825Y16204766D01*
X-6971146Y16547193D01*
X-6965788Y16549450D01*
X-6187853Y16855770D01*
X-6182395Y16857772D01*
X-5391003Y17127276D01*
X-5385457Y17129021D01*
X-4582284Y17361139D01*
X-4576663Y17362622D01*
X-3763471Y17556844D01*
X-3757786Y17558061D01*
X-2936421Y17713947D01*
X-2930685Y17714897D01*
X-2102902Y17832114D01*
X-2097129Y17832794D01*
X-1264765Y17911082D01*
X-1258965Y17911491D01*
X-423827Y17950679D01*
X-418015Y17950815D01*
X418015Y17950815D01*
X423827Y17950679D01*
G37*
%TD.AperFunction*%
%TD*%
M02*
