%TF.GenerationSoftware,KiCad,Pcbnew,8.0.4*%
%TF.CreationDate,2024-10-25T17:05:04-04:00*%
%TF.ProjectId,ActiveImpactor_NoseAccelerometer,41637469-7665-4496-9d70-6163746f725f,rev?*%
%TF.SameCoordinates,Original*%
%TF.FileFunction,Copper,L1,Top*%
%TF.FilePolarity,Positive*%
%FSLAX46Y46*%
G04 Gerber Fmt 4.6, Leading zero omitted, Abs format (unit mm)*
G04 Created by KiCad (PCBNEW 8.0.4) date 2024-10-25 17:05:04*
%MOMM*%
%LPD*%
G01*
G04 APERTURE LIST*
G04 Aperture macros list*
%AMRoundRect*
0 Rectangle with rounded corners*
0 $1 Rounding radius*
0 $2 $3 $4 $5 $6 $7 $8 $9 X,Y pos of 4 corners*
0 Add a 4 corners polygon primitive as box body*
4,1,4,$2,$3,$4,$5,$6,$7,$8,$9,$2,$3,0*
0 Add four circle primitives for the rounded corners*
1,1,$1+$1,$2,$3*
1,1,$1+$1,$4,$5*
1,1,$1+$1,$6,$7*
1,1,$1+$1,$8,$9*
0 Add four rect primitives between the rounded corners*
20,1,$1+$1,$2,$3,$4,$5,0*
20,1,$1+$1,$4,$5,$6,$7,0*
20,1,$1+$1,$6,$7,$8,$9,0*
20,1,$1+$1,$8,$9,$2,$3,0*%
G04 Aperture macros list end*
%TA.AperFunction,ComponentPad*%
%ADD10C,4.400000*%
%TD*%
%TA.AperFunction,SMDPad,CuDef*%
%ADD11RoundRect,0.087500X-0.087500X-0.225000X0.087500X-0.225000X0.087500X0.225000X-0.087500X0.225000X0*%
%TD*%
%TA.AperFunction,SMDPad,CuDef*%
%ADD12RoundRect,0.087500X-0.225000X-0.087500X0.225000X-0.087500X0.225000X0.087500X-0.225000X0.087500X0*%
%TD*%
%TA.AperFunction,SMDPad,CuDef*%
%ADD13C,1.000000*%
%TD*%
%TA.AperFunction,SMDPad,CuDef*%
%ADD14RoundRect,0.150000X0.150000X0.625000X-0.150000X0.625000X-0.150000X-0.625000X0.150000X-0.625000X0*%
%TD*%
%TA.AperFunction,SMDPad,CuDef*%
%ADD15RoundRect,0.250000X0.350000X0.650000X-0.350000X0.650000X-0.350000X-0.650000X0.350000X-0.650000X0*%
%TD*%
%TA.AperFunction,SMDPad,CuDef*%
%ADD16RoundRect,0.140000X0.140000X0.170000X-0.140000X0.170000X-0.140000X-0.170000X0.140000X-0.170000X0*%
%TD*%
%TA.AperFunction,SMDPad,CuDef*%
%ADD17RoundRect,0.140000X-0.140000X-0.170000X0.140000X-0.170000X0.140000X0.170000X-0.140000X0.170000X0*%
%TD*%
%TA.AperFunction,ViaPad*%
%ADD18C,0.700000*%
%TD*%
%TA.AperFunction,Conductor*%
%ADD19C,0.200000*%
%TD*%
%TA.AperFunction,Conductor*%
%ADD20C,0.500000*%
%TD*%
%TA.AperFunction,Conductor*%
%ADD21C,0.300000*%
%TD*%
G04 APERTURE END LIST*
D10*
%TO.P,H104,1*%
%TO.N,N/C*%
X-9525000Y9525000D03*
%TD*%
%TO.P,H103,1*%
%TO.N,N/C*%
X-9525000Y-9525000D03*
%TD*%
%TO.P,H102,1*%
%TO.N,N/C*%
X9525000Y9525000D03*
%TD*%
%TO.P,H101,1*%
%TO.N,N/C*%
X9525000Y-9525000D03*
%TD*%
D11*
%TO.P,U101,14,SDA*%
%TO.N,/MOSI*%
X-500000Y-8612500D03*
%TO.P,U101,13,SCL*%
%TO.N,/CLK*%
X0Y-8612500D03*
%TO.P,U101,12,CS*%
%TO.N,/CS*%
X500000Y-8612500D03*
D12*
%TO.P,U101,11,NC*%
%TO.N,unconnected-(U101-NC-Pad11)*%
X1162500Y-8775000D03*
%TO.P,U101,10,NC*%
%TO.N,unconnected-(U101-NC-Pad10)*%
X1162500Y-9275000D03*
%TO.P,U101,9,INT2*%
%TO.N,unconnected-(U101-INT2-Pad9)*%
X1162500Y-9775000D03*
%TO.P,U101,8,VDD*%
%TO.N,+3.3V*%
X1162500Y-10275000D03*
D11*
%TO.P,U101,7,GND*%
%TO.N,GND*%
X500000Y-10437500D03*
%TO.P,U101,6,GND*%
X0Y-10437500D03*
%TO.P,U101,5,VDDIO*%
%TO.N,+3.3V*%
X-500000Y-10437500D03*
D12*
%TO.P,U101,4,INT1*%
%TO.N,/INT*%
X-1162500Y-10275000D03*
%TO.P,U101,3,SCX*%
%TO.N,unconnected-(U101-SCX-Pad3)*%
X-1162500Y-9775000D03*
%TO.P,U101,2,SDX*%
%TO.N,unconnected-(U101-SDX-Pad2)*%
X-1162500Y-9275000D03*
%TO.P,U101,1,SDO/SA0*%
%TO.N,/MISO*%
X-1162500Y-8775000D03*
%TD*%
D13*
%TO.P,INT1,1,1*%
%TO.N,/INT*%
X-9600000Y-5000000D03*
%TD*%
%TO.P,CLK,1,1*%
%TO.N,/CLK*%
X6500000Y-3200000D03*
%TD*%
%TO.P,MOSI,1,1*%
%TO.N,/MOSI*%
X-5800000Y-4100000D03*
%TD*%
%TO.P,CS,1,1*%
%TO.N,/CS*%
X8500000Y2300000D03*
%TD*%
%TO.P,MISO,1,1*%
%TO.N,/MISO*%
X-9200000Y800000D03*
%TD*%
D14*
%TO.P,J101,1,Pin_1*%
%TO.N,GND*%
X3000000Y8500000D03*
%TO.P,J101,2,Pin_2*%
%TO.N,+3.3V*%
X2000000Y8500000D03*
%TO.P,J101,3,Pin_3*%
%TO.N,/INT*%
X1000000Y8500000D03*
%TO.P,J101,4,Pin_4*%
%TO.N,/MOSI*%
X0Y8500000D03*
%TO.P,J101,5,Pin_5*%
%TO.N,/MISO*%
X-1000000Y8500000D03*
%TO.P,J101,6,Pin_6*%
%TO.N,/CLK*%
X-2000000Y8500000D03*
%TO.P,J101,7,Pin_7*%
%TO.N,/CS*%
X-3000000Y8500000D03*
D15*
%TO.P,J101,MP*%
%TO.N,N/C*%
X4300000Y12375000D03*
X-4300000Y12375000D03*
%TD*%
D16*
%TO.P,C102,2*%
%TO.N,GND*%
X475000Y-11600000D03*
%TO.P,C102,1*%
%TO.N,+3.3V*%
X1435000Y-11600000D03*
%TD*%
D17*
%TO.P,C101,1*%
%TO.N,+3.3V*%
X-1425000Y-11600000D03*
%TO.P,C101,2*%
%TO.N,GND*%
X-465000Y-11600000D03*
%TD*%
D18*
%TO.N,+3.3V*%
X9100000Y5100000D03*
X6100000Y5100000D03*
%TO.N,GND*%
X-500000Y-12500000D03*
X500000Y-12500000D03*
%TO.N,/INT*%
X-10300000Y3300000D03*
X-6500000Y3400000D03*
%TO.N,GND*%
X3000000Y6800000D03*
%TD*%
D19*
%TO.N,/MOSI*%
X-500000Y-8100000D02*
X-500000Y-8612500D01*
X-1400000Y-7200000D02*
X-500000Y-8100000D01*
X-7800000Y4000000D02*
X-7800000Y-2100000D01*
X-5142432Y6657568D02*
X-7800000Y4000000D01*
X-716321Y6657568D02*
X-5142432Y6657568D01*
X-7800000Y-2100000D02*
X-2700000Y-7200000D01*
X0Y7373889D02*
X-716321Y6657568D01*
X0Y8500000D02*
X0Y7373889D01*
X-2700000Y-7200000D02*
X-1400000Y-7200000D01*
%TO.N,/MISO*%
X-3525000Y-8775000D02*
X-1162500Y-8775000D01*
X-9200000Y4900000D02*
X-9200000Y-3100000D01*
X-6900000Y7200000D02*
X-9200000Y4900000D01*
X-9200000Y-3100000D02*
X-3525000Y-8775000D01*
X-1400000Y7200000D02*
X-6900000Y7200000D01*
X-1000000Y7600000D02*
X-1400000Y7200000D01*
X-1000000Y8500000D02*
X-1000000Y7600000D01*
%TO.N,/CS*%
X500000Y-7800000D02*
X500000Y-8612500D01*
X4400000Y-7300000D02*
X1000000Y-7300000D01*
X8400000Y6400000D02*
X8400000Y-3300000D01*
X3800000Y11000000D02*
X8400000Y6400000D01*
X1000000Y-7300000D02*
X500000Y-7800000D01*
X-2300000Y11000000D02*
X3800000Y11000000D01*
X-3000000Y10300000D02*
X-2300000Y11000000D01*
X8400000Y-3300000D02*
X4400000Y-7300000D01*
X-3000000Y8500000D02*
X-3000000Y10300000D01*
%TO.N,/CLK*%
X-2000000Y9800000D02*
X-2000000Y8500000D01*
X7000000Y6400000D02*
X3300000Y10100000D01*
X7000000Y-2700000D02*
X7000000Y6400000D01*
X3400000Y-6300000D02*
X7000000Y-2700000D01*
X-1700000Y10100000D02*
X-2000000Y9800000D01*
X3300000Y10100000D02*
X-1700000Y10100000D01*
X900000Y-6300000D02*
X3400000Y-6300000D01*
X0Y-7200000D02*
X900000Y-6300000D01*
X0Y-8612500D02*
X0Y-7200000D01*
D20*
%TO.N,+3.3V*%
X4000000Y-10100000D02*
X4000000Y-11600000D01*
X4000000Y-11600000D02*
X2300000Y-13300000D01*
X10100000Y-4000000D02*
X4000000Y-10100000D01*
X2300000Y-13300000D02*
X1100000Y-13300000D01*
X10100000Y4100000D02*
X10100000Y-4000000D01*
X9100000Y5100000D02*
X10100000Y4100000D01*
X3568629Y5100000D02*
X6100000Y5100000D01*
X2000000Y6668629D02*
X3568629Y5100000D01*
X2000000Y8500000D02*
X2000000Y6668629D01*
X-1000000Y-13300000D02*
X1100000Y-13300000D01*
X1435000Y-12965000D02*
X1435000Y-11600000D01*
X-1425000Y-12875000D02*
X-1000000Y-13300000D01*
X-1425000Y-11600000D02*
X-1425000Y-12875000D01*
X1100000Y-13300000D02*
X1435000Y-12965000D01*
D21*
%TO.N,GND*%
X-465000Y-12465000D02*
X-500000Y-12500000D01*
X-465000Y-11600000D02*
X-465000Y-12465000D01*
X475000Y-12475000D02*
X500000Y-12500000D01*
X475000Y-11600000D02*
X475000Y-12475000D01*
D19*
%TO.N,/INT*%
X-3900000Y6100000D02*
X-6500000Y3500000D01*
X1000000Y7100000D02*
X0Y6100000D01*
X0Y6100000D02*
X-3900000Y6100000D01*
X-6500000Y3500000D02*
X-6500000Y3400000D01*
X1000000Y8500000D02*
X1000000Y7100000D01*
X-10900000Y2700000D02*
X-10900000Y-3600000D01*
X-10900000Y-3600000D02*
X-4225000Y-10275000D01*
X-4225000Y-10275000D02*
X-1162500Y-10275000D01*
X-10300000Y3300000D02*
X-10900000Y2700000D01*
D21*
%TO.N,+3.3V*%
X-1100000Y-11300000D02*
X-1100000Y-11146144D01*
X-1400000Y-11600000D02*
X-1100000Y-11300000D01*
X-1425000Y-11600000D02*
X-1400000Y-11600000D01*
X-1100000Y-11146144D02*
X-525000Y-10571144D01*
X1162500Y-10762500D02*
X1162500Y-10300000D01*
X1435000Y-11035000D02*
X1162500Y-10762500D01*
X1435000Y-11600000D02*
X1435000Y-11035000D01*
%TO.N,GND*%
X25000Y-11110000D02*
X25000Y-10437500D01*
X-465000Y-11600000D02*
X25000Y-11110000D01*
X500000Y-11575000D02*
X475000Y-11600000D01*
X500000Y-10437500D02*
X500000Y-11575000D01*
D20*
X3000000Y8500000D02*
X3000000Y6800000D01*
%TD*%
M02*
