<?xml version="1.0" encoding="UTF-8"?>
<svg id="Layer_2" data-name="Layer 2" xmlns="http://www.w3.org/2000/svg" viewBox="0 0 95.4397 60.4253">
  <defs>
    <style>
      .cls-1 {
        fill: #939598;
      }
    </style>
  </defs>
  <g id="Layer_1-2" data-name="Layer 1">
    <g>
      <path class="cls-1" d="M0,59.2818c6.5481,0,11.8564-5.3083,11.8564-11.8564V0H0V59.2818Z"/>
      <g>
        <path class="cls-1" d="M85.4253,39.4891h-2.8009v6.2819h2.9392c2.4206,0,3.4928-1.1064,3.4928-3.285,0-1.9943-1.0835-2.9969-3.6311-2.9969Z"/>
        <path class="cls-1" d="M95.3426,31.5898c-23.1719,.0002-58.5471,.0548-62.8093,.0548-10.1488,0-12.1086-9.483-12.2878-13.4334-.3847-8.4818,7.3621-14.7273,9.9368-15.4569,.1774-.0503,.1336-.2597-.0453-.2148C20.4916,4.9638,13.1217,13.9984,13.1217,38.4306c0,8.9674,1.5484,18.4923-10.8389,21.8062-.1087,.0291-.0889,.1884,.0236,.1884H95.3431c.0533,0,.0965-.0432,.0965-.0965V31.6864c0-.0533-.0438-.0965-.0971-.0965ZM28.9438,54.3934h-3.5503v-16.1377h3.5503c4.8069,0,6.8932,2.582,6.8932,8.069s-2.0863,8.0688-6.8932,8.0688Zm19.6535-14.9043h-3.7232v13.6592h3.7232v1.2451h-8.8181v-1.2451h3.7232v-13.6592h-3.7232v-1.2334h8.8181v1.2334Zm10.2703,14.9043h-1.7058l-5.0489-16.1377h1.4871l3.435,11.3656c.3343,1.0951,.6571,2.1324,.9914,3.2046,.311-1.0722,.6109-2.1095,.945-3.2046l3.4583-11.3656h1.4871l-5.0491,16.1377Zm17.5671,0h-8.6798v-16.1377h8.5874v1.2334h-7.2156v6.0285h6.5471v1.2565h-6.5471v6.3742h7.3081v1.2451Zm13.7631-4.8183v4.8183h-1.3717v-4.5876c0-2.0057-.9223-2.7897-3.0201-2.7897h-3.1817v7.3773h-1.3717v-16.1377h4.1727c3.3775,0,5.0491,1.5215,5.0491,4.2304,0,2.0978-1.0376,3.6311-2.8588,3.9423,1.6829,.2883,2.5822,1.5904,2.5822,3.1467Z"/>
        <path class="cls-1" d="M28.9438,39.4891h-2.1786v13.6592h2.1786c3.9192,0,5.4755-2.0632,5.4755-6.8237s-1.5563-6.8355-5.4755-6.8355Z"/>
      </g>
      <g>
        <path class="cls-1" d="M24.9554,17.0952c0-5.1064,2.052-8.2993,5.8789-8.2993,2.9969,0,4.4264,1.8558,5.0718,4.9796l-1.3257,.4611c-.5301-2.5129-1.3946-4.1612-3.8038-4.1612-3.0661,0-4.3687,2.8586-4.3687,7.0199s1.3026,7.0201,4.3687,7.0201c2.4092,0,3.2737-1.6483,3.8038-4.1729l1.3257,.4726c-.6455,3.124-2.0749,4.9798-5.0718,4.9798-3.8269,0-5.8789-3.2046-5.8789-8.2995Z"/>
        <path class="cls-1" d="M47.9978,9.0264h1.5446l-4.6684,8.945v7.1927h-1.3717v-7.1927l-4.68-8.945h1.5217l2.3515,4.6798c.484,.9452,.9683,1.9251,1.4755,2.9394,.5186-1.0029,.9912-1.9826,1.4755-2.9394l2.3515-4.6798Z"/>
        <path class="cls-1" d="M63.0752,20.7723c0,2.778-1.7637,4.3918-4.8071,4.3918h-4.6567V9.0264h4.0344c3.2046,0,4.7375,1.3601,4.7375,4.069,0,1.948-.7952,3.1584-2.2823,3.6772,1.8674,.4034,2.9742,1.8212,2.9742,3.9998Zm-8.0921-10.5125v5.9593h2.7089c2.2594,0,3.2737-1.0489,3.2737-3.1238,0-1.9941-.9339-2.8355-3.32-2.8355h-2.6626Zm3.285,13.6594c2.294,0,3.3662-1.0029,3.3662-3.1469,0-2.1671-1.1297-3.2967-3.6197-3.2967h-3.0315v6.4435h3.285Z"/>
        <path class="cls-1" d="M67.7548,25.1641V9.0264h8.5874v1.2334h-7.2156v6.0285h6.5471v1.2565h-6.5471v6.3744h7.3081v1.2449h-8.6798Z"/>
        <path class="cls-1" d="M90.1978,20.3458v4.8183h-1.3717v-4.5878c0-2.0057-.9223-2.7895-3.0201-2.7895h-3.1817v7.3773h-1.3717V9.0264h4.1727c3.3775,0,5.0491,1.5215,5.0491,4.2304,0,2.0978-1.0376,3.6309-2.8588,3.9421,1.6829,.2883,2.5822,1.5908,2.5822,3.1469Zm-4.6342-3.8038c2.4206,0,3.4928-1.1066,3.4928-3.2852,0-1.9943-1.0835-2.9969-3.6311-2.9969h-2.8009v6.2821h2.9392Z"/>
      </g>
    </g>
  </g>
</svg>